<svg xmlns="http://www.w3.org/2000/svg" xmlns:xlink="http://www.w3.org/1999/xlink" width="500" zoomAndPan="magnify" viewBox="0 0 375 374.999991" height="500" preserveAspectRatio="xMidYMid meet" version="1.0"><path fill="#f7f7f7" d="M 368.53125 180.871094 C 365.300781 160.988281 347.003906 147.839844 328.628906 142.941406 C 314.433594 139.171875 300 137.625 285.332031 138.304688 C 294.75 128.167969 302.640625 117.136719 307.667969 105.414062 C 316.414062 85.027344 319.792969 57.617188 298.539062 44.386719 C 281.433594 33.746094 259.496094 38.871094 243.71875 49.488281 C 231.539062 57.699219 220.878906 67.550781 211.742188 79.054688 C 210.300781 65.285156 207.175781 52.113281 201.652344 40.582031 C 192.050781 20.582031 173.628906 0.00390625 149.679688 7.320312 C 130.414062 13.175781 119.839844 33.089844 117.460938 51.953125 C 116.296875 61.210938 116.042969 70.492188 116.703125 79.800781 C 117.359375 89.109375 118.917969 98.261719 121.375 107.265625 C 122.421875 111.117188 123.640625 114.917969 124.976562 118.683594 C 102.128906 107.242188 76.789062 98.613281 53.507812 99.617188 C 31.3125 100.558594 5.136719 109.390625 2.417969 134.269531 C 0.226562 154.320312 14.359375 171.839844 30.761719 181.457031 C 38.816406 186.171875 47.25 190.058594 56.070312 193.121094 C 64.886719 196.179688 73.917969 198.355469 83.160156 199.648438 C 86.261719 200.074219 89.375 200.402344 92.492188 200.640625 C 72.40625 209.878906 53.496094 221.996094 40.941406 237.667969 C 27.074219 254.984375 16.511719 280.503906 33.46875 298.917969 C 47.117188 313.734375 69.628906 314.636719 87.660156 308.609375 C 101.589844 303.949219 114.492188 297.296875 126.363281 288.648438 C 124.085938 302.300781 123.570312 315.855469 125.824219 328.410156 C 129.757812 350.242188 142.027344 374.980469 167.054688 374.328125 C 187.195312 373.800781 202.683594 357.441406 210.007812 339.902344 C 215.65625 326.347656 219.132812 312.253906 220.433594 297.628906 C 229.222656 308.328125 239.085938 317.628906 250.027344 324.1875 C 269.0625 335.589844 295.773438 342.625 311.746094 323.351562 C 324.589844 307.84375 322.457031 285.410156 314.085938 268.355469 C 307.582031 255.183594 299.242188 243.300781 289.066406 232.703125 C 302.910156 233.128906 316.414062 231.816406 328.558594 227.886719 C 349.675781 221.085938 372.546875 205.574219 368.53125 180.871094 Z M 368.53125 180.871094 " fill-opacity="1" fill-rule="nonzero"/><path fill="#f1c869" d="M 238.488281 130.027344 C 226.472656 121.957031 214.082031 116.34375 199.4375 115.550781 C 175.859375 114.285156 149.644531 120.015625 132.703125 137.617188 C 119.339844 151.5 110.765625 170.289062 110.683594 189.695312 C 110.640625 199.554688 112.574219 209.496094 117.039062 218.28125 C 121.503906 227.066406 128.351562 234.417969 136.046875 240.539062 C 155.378906 255.933594 181.039062 263.707031 205.511719 260.074219 C 229.988281 256.445312 252.746094 241 263.8125 218.875 C 274.878906 196.746094 273.246094 168.4375 258.511719 148.59375 C 253.070312 141.222656 246.074219 135.125 238.488281 130.027344 Z M 238.488281 130.027344 " fill-opacity="1" fill-rule="nonzero"/><path fill="#14130c" d="M 221.847656 183.605469 C 221.21875 183.605469 220.59375 183.5625 219.972656 183.476562 C 208.183594 181.871094 198.34375 165.660156 197.257812 163.820312 C 197.15625 163.648438 197.09375 163.464844 197.066406 163.265625 C 197.039062 163.070312 197.050781 162.875 197.097656 162.679688 C 197.148438 162.488281 197.234375 162.3125 197.355469 162.152344 C 197.472656 161.992188 197.621094 161.863281 197.792969 161.761719 C 197.964844 161.660156 198.148438 161.59375 198.347656 161.566406 C 198.546875 161.539062 198.742188 161.550781 198.933594 161.597656 C 199.128906 161.648438 199.304688 161.734375 199.464844 161.855469 C 199.621094 161.976562 199.753906 162.121094 199.855469 162.292969 C 200.253906 162.976562 209.8125 179.054688 220.359375 180.496094 C 223.832031 180.964844 226.964844 179.792969 229.949219 176.910156 C 231.40625 175.5 232.21875 172.652344 232.121094 169.296875 C 232.054688 167.742188 231.828125 166.207031 231.445312 164.695312 C 231.0625 163.1875 230.535156 161.730469 229.851562 160.328125 C 229.171875 158.925781 228.359375 157.605469 227.410156 156.371094 C 226.457031 155.136719 225.394531 154.011719 224.210938 152.992188 C 224.0625 152.863281 223.941406 152.707031 223.851562 152.527344 C 223.761719 152.351562 223.707031 152.160156 223.691406 151.960938 C 223.679688 151.761719 223.703125 151.570312 223.765625 151.378906 C 223.828125 151.1875 223.921875 151.019531 224.054688 150.867188 C 224.183594 150.714844 224.339844 150.59375 224.519531 150.503906 C 224.695312 150.414062 224.886719 150.363281 225.085938 150.347656 C 225.285156 150.332031 225.480469 150.355469 225.667969 150.417969 C 225.859375 150.480469 226.03125 150.578125 226.179688 150.707031 C 227.523438 151.859375 228.734375 153.136719 229.8125 154.539062 C 230.894531 155.9375 231.820312 157.433594 232.59375 159.023438 C 233.367188 160.617188 233.96875 162.269531 234.40625 163.980469 C 234.839844 165.695312 235.09375 167.4375 235.171875 169.203125 C 235.296875 173.457031 234.171875 177.050781 232.085938 179.066406 C 228.953125 182.078125 225.519531 183.605469 221.847656 183.605469 Z M 221.847656 183.605469 " fill-opacity="1" fill-rule="nonzero"/><path fill="#14130c" d="M 159.328125 219.71875 C 157.855469 219.707031 156.40625 219.527344 154.976562 219.179688 C 153.261719 218.746094 151.609375 218.148438 150.019531 217.375 C 148.425781 216.605469 146.929688 215.683594 145.527344 214.609375 C 144.125 213.53125 142.847656 212.324219 141.695312 210.988281 C 140.539062 209.648438 139.53125 208.207031 138.671875 206.664062 C 138.578125 206.488281 138.523438 206.304688 138.503906 206.109375 C 138.484375 205.910156 138.5 205.71875 138.558594 205.53125 C 138.613281 205.339844 138.703125 205.167969 138.824219 205.015625 C 138.949219 204.863281 139.097656 204.738281 139.269531 204.640625 C 139.441406 204.542969 139.625 204.484375 139.820312 204.460938 C 140.015625 204.4375 140.210938 204.453125 140.398438 204.503906 C 140.589844 204.554688 140.761719 204.644531 140.917969 204.761719 C 141.074219 204.882812 141.203125 205.027344 141.304688 205.199219 C 142.058594 206.5625 142.945312 207.832031 143.964844 209.015625 C 144.980469 210.195312 146.109375 211.261719 147.34375 212.210938 C 148.578125 213.160156 149.898438 213.976562 151.300781 214.65625 C 152.703125 215.335938 154.160156 215.867188 155.671875 216.25 C 158.941406 217.023438 161.894531 216.804688 163.570312 215.664062 C 167.003906 213.320312 168.78125 210.5 169.027344 207.003906 C 169.761719 196.371094 155.953125 183.75 155.367188 183.21875 C 155.21875 183.085938 155.101562 182.925781 155.015625 182.746094 C 154.929688 182.566406 154.882812 182.375 154.871094 182.175781 C 154.863281 181.976562 154.890625 181.78125 154.957031 181.59375 C 155.023438 181.40625 155.125 181.238281 155.257812 181.089844 C 155.394531 180.941406 155.550781 180.824219 155.730469 180.738281 C 155.914062 180.652344 156.101562 180.605469 156.300781 180.59375 C 156.5 180.585938 156.695312 180.613281 156.882812 180.679688 C 157.074219 180.746094 157.242188 180.847656 157.390625 180.980469 C 158.972656 182.417969 172.855469 195.34375 172.035156 207.214844 C 171.722656 211.628906 169.449219 215.308594 165.269531 218.160156 C 163.445312 219.28125 161.464844 219.800781 159.328125 219.71875 Z M 159.328125 219.71875 " fill-opacity="1" fill-rule="nonzero"/><path fill="#14130c" d="M 203.480469 212.976562 C 201.285156 212.976562 199.09375 211.636719 197.324219 209.117188 C 197.207031 208.953125 197.125 208.773438 197.082031 208.578125 C 197.035156 208.382812 197.03125 208.1875 197.0625 207.988281 C 197.097656 207.789062 197.167969 207.605469 197.273438 207.433594 C 197.378906 207.265625 197.515625 207.121094 197.679688 207.003906 C 197.839844 206.890625 198.019531 206.808594 198.21875 206.761719 C 198.414062 206.71875 198.609375 206.710938 198.808594 206.746094 C 199.003906 206.777344 199.191406 206.847656 199.359375 206.953125 C 199.53125 207.0625 199.671875 207.195312 199.789062 207.359375 C 200.679688 208.636719 202.484375 210.628906 204.546875 209.703125 C 206.773438 208.707031 208.136719 207.40625 208.390625 206.054688 C 208.605469 204.921875 208.066406 203.640625 206.871094 202.429688 C 206.734375 202.285156 206.625 202.121094 206.550781 201.9375 C 206.476562 201.753906 206.441406 201.558594 206.441406 201.359375 C 206.445312 201.160156 206.484375 200.96875 206.5625 200.785156 C 206.640625 200.601562 206.753906 200.441406 206.894531 200.300781 C 207.035156 200.160156 207.199219 200.054688 207.386719 199.980469 C 207.570312 199.90625 207.761719 199.867188 207.960938 199.871094 C 208.160156 199.871094 208.351562 199.914062 208.539062 199.988281 C 208.722656 200.066406 208.882812 200.179688 209.023438 200.320312 C 210.921875 202.253906 211.753906 204.484375 211.367188 206.609375 C 211.050781 208.273438 209.832031 210.640625 205.789062 212.464844 C 205.054688 212.804688 204.285156 212.972656 203.480469 212.976562 Z M 203.480469 212.976562 " fill-opacity="1" fill-rule="nonzero"/><path fill="#14130c" d="M 145.492188 228.632812 C 145.269531 228.628906 145.058594 228.582031 144.859375 228.484375 C 144.675781 228.402344 144.519531 228.285156 144.382812 228.140625 C 144.246094 227.992188 144.144531 227.824219 144.078125 227.636719 C 144.007812 227.449219 143.976562 227.257812 143.988281 227.058594 C 143.996094 226.859375 144.042969 226.667969 144.125 226.488281 L 149.160156 215.652344 C 149.242188 215.472656 149.359375 215.3125 149.503906 215.179688 C 149.652344 215.042969 149.820312 214.941406 150.007812 214.871094 C 150.195312 214.804688 150.390625 214.773438 150.589844 214.78125 C 150.789062 214.789062 150.980469 214.835938 151.160156 214.921875 C 151.339844 215.007812 151.5 215.121094 151.632812 215.269531 C 151.769531 215.417969 151.871094 215.582031 151.9375 215.773438 C 152.007812 215.960938 152.039062 216.152344 152.027344 216.351562 C 152.019531 216.550781 151.972656 216.742188 151.886719 216.921875 L 146.855469 227.757812 C 146.734375 228.023438 146.546875 228.234375 146.300781 228.394531 C 146.054688 228.550781 145.785156 228.632812 145.492188 228.632812 Z M 145.492188 228.632812 " fill-opacity="1" fill-rule="nonzero"/><path fill="#14130c" d="M 161.8125 230.558594 C 161.621094 230.558594 161.4375 230.523438 161.261719 230.453125 C 161.082031 230.382812 160.925781 230.28125 160.785156 230.152344 C 160.648438 230.023438 160.535156 229.871094 160.457031 229.699219 C 160.375 229.527344 160.324219 229.347656 160.3125 229.15625 L 159.554688 218.316406 C 159.542969 218.117188 159.566406 217.925781 159.628906 217.734375 C 159.695312 217.546875 159.792969 217.375 159.921875 217.222656 C 160.054688 217.074219 160.207031 216.953125 160.386719 216.863281 C 160.566406 216.777344 160.753906 216.722656 160.953125 216.710938 C 161.152344 216.695312 161.347656 216.71875 161.535156 216.785156 C 161.726562 216.847656 161.894531 216.945312 162.046875 217.074219 C 162.199219 217.207031 162.316406 217.359375 162.40625 217.539062 C 162.496094 217.71875 162.546875 217.90625 162.5625 218.105469 L 163.3125 228.949219 C 163.324219 229.144531 163.300781 229.339844 163.238281 229.527344 C 163.175781 229.71875 163.078125 229.886719 162.945312 230.039062 C 162.816406 230.1875 162.660156 230.308594 162.484375 230.398438 C 162.304688 230.484375 162.117188 230.539062 161.917969 230.550781 Z M 161.8125 230.558594 " fill-opacity="1" fill-rule="nonzero"/><path fill="#14130c" d="M 176.972656 222.351562 C 176.425781 222.351562 176.003906 222.125 175.707031 221.667969 C 173.601562 218.332031 171.132812 215.289062 168.304688 212.535156 C 168.160156 212.394531 168.054688 212.234375 167.976562 212.046875 C 167.902344 211.863281 167.863281 211.671875 167.863281 211.472656 C 167.863281 211.273438 167.902344 211.082031 167.980469 210.894531 C 168.054688 210.710938 168.164062 210.550781 168.304688 210.40625 C 168.445312 210.265625 168.609375 210.160156 168.792969 210.082031 C 168.980469 210.007812 169.171875 209.96875 169.371094 209.96875 C 169.570312 209.96875 169.761719 210.007812 169.945312 210.085938 C 170.132812 210.160156 170.292969 210.269531 170.433594 210.410156 C 173.410156 213.3125 176.007812 216.515625 178.230469 220.023438 C 178.386719 220.253906 178.46875 220.507812 178.480469 220.785156 C 178.492188 221.0625 178.433594 221.324219 178.300781 221.570312 C 178.171875 221.8125 177.984375 222.007812 177.746094 222.148438 C 177.507812 222.292969 177.25 222.363281 176.972656 222.363281 Z M 176.972656 222.351562 " fill-opacity="1" fill-rule="nonzero"/><path fill="#14130c" d="M 243.882812 162.292969 L 243.742188 162.292969 L 231.402344 161.121094 C 231.203125 161.101562 231.015625 161.046875 230.835938 160.953125 C 230.660156 160.859375 230.507812 160.734375 230.382812 160.578125 C 230.257812 160.425781 230.164062 160.253906 230.105469 160.0625 C 230.046875 159.871094 230.027344 159.675781 230.046875 159.476562 C 230.066406 159.277344 230.125 159.089844 230.21875 158.914062 C 230.3125 158.738281 230.4375 158.585938 230.589844 158.457031 C 230.746094 158.332031 230.917969 158.238281 231.109375 158.179688 C 231.300781 158.125 231.496094 158.105469 231.691406 158.125 L 244.03125 159.292969 C 244.222656 159.3125 244.40625 159.363281 244.582031 159.453125 C 244.753906 159.539062 244.90625 159.65625 245.035156 159.804688 C 245.160156 159.949219 245.257812 160.117188 245.320312 160.300781 C 245.382812 160.484375 245.410156 160.671875 245.402344 160.867188 C 245.394531 161.0625 245.347656 161.246094 245.265625 161.421875 C 245.183594 161.601562 245.074219 161.753906 244.933594 161.890625 C 244.789062 162.023438 244.628906 162.125 244.449219 162.195312 C 244.265625 162.265625 244.078125 162.300781 243.882812 162.300781 Z M 243.882812 162.292969 " fill-opacity="1" fill-rule="nonzero"/><path fill="#14130c" d="M 241.558594 184.625 C 241.167969 184.625 240.832031 184.496094 240.542969 184.230469 L 232.066406 176.507812 C 231.921875 176.371094 231.804688 176.214844 231.71875 176.035156 C 231.636719 175.851562 231.589844 175.664062 231.582031 175.464844 C 231.570312 175.261719 231.601562 175.070312 231.667969 174.882812 C 231.738281 174.695312 231.839844 174.527344 231.972656 174.378906 C 232.109375 174.230469 232.265625 174.117188 232.445312 174.03125 C 232.628906 173.945312 232.816406 173.898438 233.015625 173.890625 C 233.214844 173.882812 233.410156 173.910156 233.597656 173.976562 C 233.785156 174.046875 233.953125 174.148438 234.101562 174.28125 L 242.570312 182.007812 C 242.800781 182.214844 242.953125 182.472656 243.023438 182.773438 C 243.09375 183.078125 243.074219 183.371094 242.960938 183.664062 C 242.851562 183.953125 242.664062 184.183594 242.410156 184.359375 C 242.152344 184.535156 241.871094 184.625 241.558594 184.625 Z M 241.558594 184.625 " fill-opacity="1" fill-rule="nonzero"/><path fill="#14130c" d="M 226.144531 193.855469 C 225.800781 193.855469 225.492188 193.75 225.222656 193.535156 C 224.949219 193.324219 224.769531 193.050781 224.6875 192.71875 L 222.34375 183.464844 C 222.292969 183.269531 222.285156 183.074219 222.3125 182.875 C 222.34375 182.675781 222.410156 182.492188 222.511719 182.320312 C 222.613281 182.148438 222.746094 182 222.90625 181.882812 C 223.070312 181.761719 223.246094 181.679688 223.441406 181.628906 C 223.636719 181.582031 223.832031 181.570312 224.03125 181.601562 C 224.230469 181.632812 224.414062 181.699219 224.585938 181.800781 C 224.757812 181.90625 224.902344 182.035156 225.023438 182.199219 C 225.140625 182.359375 225.226562 182.539062 225.273438 182.734375 L 227.585938 191.984375 C 227.632812 192.179688 227.644531 192.375 227.613281 192.574219 C 227.585938 192.769531 227.519531 192.953125 227.414062 193.125 C 227.3125 193.296875 227.183594 193.441406 227.023438 193.5625 C 226.863281 193.679688 226.683594 193.765625 226.492188 193.8125 C 226.378906 193.839844 226.261719 193.851562 226.144531 193.855469 Z M 226.144531 193.855469 " fill-opacity="1" fill-rule="nonzero"/><path fill="#f2e9ea" d="M 164.980469 54.238281 L 168.558594 67.363281 C 169.835938 72.046875 177.101562 70.050781 175.824219 65.359375 L 172.238281 52.234375 C 170.96875 47.550781 163.703125 49.546875 164.980469 54.238281 Z M 164.980469 54.238281 " fill-opacity="1" fill-rule="nonzero"/><path fill="#f2e9ea" d="M 176.96875 41.484375 C 181.8125 41.484375 181.816406 33.957031 176.96875 33.957031 C 172.117188 33.957031 172.117188 41.484375 176.96875 41.484375 Z M 176.96875 41.484375 " fill-opacity="1" fill-rule="nonzero"/><path fill="#f2e9ea" d="M 84.5625 288.011719 L 108.4375 276.074219 C 112.773438 273.910156 108.964844 267.414062 104.636719 269.574219 L 80.765625 281.511719 C 76.429688 283.675781 80.238281 290.171875 84.5625 288.011719 Z M 84.5625 288.011719 " fill-opacity="1" fill-rule="nonzero"/><path fill="#f2e9ea" d="M 99.375 238.398438 C 104.222656 238.398438 104.226562 230.875 99.375 230.875 C 94.527344 230.875 94.527344 238.398438 99.375 238.398438 Z M 99.375 238.398438 " fill-opacity="1" fill-rule="nonzero"/><path fill="#f2e9ea" d="M 252.945312 112.367188 L 266.0625 92.066406 C 268.703125 87.964844 262.191406 84.207031 259.566406 88.265625 L 246.449219 108.5625 C 243.8125 112.664062 250.328125 116.425781 252.945312 112.367188 Z M 252.945312 112.367188 " fill-opacity="1" fill-rule="nonzero"/><path fill="#f2e9ea" d="M 248.847656 265.21875 C 253.398438 274.046875 256.96875 283.253906 259.566406 292.84375 C 260.832031 297.527344 268.09375 295.53125 266.824219 290.847656 C 264.039062 280.632812 260.214844 270.820312 255.347656 261.417969 C 253.128906 257.113281 246.625 260.914062 248.847656 265.21875 Z M 248.847656 265.21875 " fill-opacity="1" fill-rule="nonzero"/><path fill="#f2e9ea" d="M 267.390625 263.554688 L 272.167969 268.328125 C 272.339844 268.511719 272.53125 268.671875 272.734375 268.820312 C 272.941406 268.964844 273.160156 269.085938 273.390625 269.1875 C 273.621094 269.289062 273.859375 269.363281 274.105469 269.417969 C 274.351562 269.472656 274.597656 269.5 274.851562 269.503906 C 275.101562 269.507812 275.351562 269.484375 275.597656 269.4375 C 275.847656 269.390625 276.085938 269.320312 276.320312 269.226562 C 276.554688 269.132812 276.773438 269.015625 276.984375 268.875 C 277.195312 268.738281 277.386719 268.578125 277.566406 268.402344 C 277.742188 268.222656 277.902344 268.027344 278.042969 267.820312 C 278.179688 267.609375 278.296875 267.386719 278.390625 267.15625 C 278.488281 266.921875 278.558594 266.683594 278.605469 266.433594 C 278.648438 266.1875 278.671875 265.9375 278.667969 265.6875 C 278.664062 265.433594 278.636719 265.1875 278.582031 264.941406 C 278.53125 264.695312 278.453125 264.457031 278.351562 264.226562 C 278.25 263.996094 278.128906 263.777344 277.984375 263.570312 C 277.839844 263.367188 277.675781 263.175781 277.492188 263.003906 L 272.71875 258.230469 C 272.363281 257.894531 271.953125 257.636719 271.496094 257.457031 C 271.039062 257.277344 270.566406 257.191406 270.078125 257.199219 C 269.585938 257.207031 269.113281 257.304688 268.664062 257.496094 C 268.210938 257.6875 267.8125 257.957031 267.464844 258.300781 C 267.117188 258.648438 266.847656 259.046875 266.65625 259.5 C 266.46875 259.953125 266.367188 260.421875 266.363281 260.914062 C 266.355469 261.402344 266.441406 261.878906 266.617188 262.335938 C 266.796875 262.792969 267.054688 263.199219 267.390625 263.554688 Z M 267.390625 263.554688 " fill-opacity="1" fill-rule="nonzero"/></svg>