<svg xmlns="http://www.w3.org/2000/svg" xmlns:xlink="http://www.w3.org/1999/xlink" width="500" zoomAndPan="magnify" viewBox="0 0 375 374.999991" height="500" preserveAspectRatio="xMidYMid meet" version="1.0"><path fill="#dbcae9" d="M 195.6875 165.644531 L 195.042969 163.804688 C 171.773438 145.625 164.152344 166.203125 166.46875 180.074219 C 166.824219 184.460938 167.628906 188.757812 168.886719 192.976562 C 170.144531 197.191406 171.824219 201.234375 173.929688 205.097656 C 189.699219 234.695312 228.867188 242.882812 222.050781 207.761719 L 221.117188 204.550781 L 234.207031 188.339844 C 246.445312 196.757812 262.300781 198.339844 257.15625 173.304688 C 245.4375 144.027344 233.3125 137.117188 226.398438 140.191406 C 221.253906 142.488281 219.324219 150.523438 220.714844 158.15625 Z M 195.6875 165.644531 " fill-opacity="1" fill-rule="evenodd"/><path fill="#e6e6e6" d="M 178.597656 212.058594 L 170.605469 198.464844 L 118.582031 235.382812 Z M 178.597656 212.058594 " fill-opacity="1" fill-rule="evenodd"/><path fill="#540c2c" d="M 236.164062 188.632812 C 229.691406 196.667969 222.835938 204.539062 216.585938 212.71875 C 216.445312 212.914062 216.277344 213.078125 216.074219 213.203125 C 215.871094 213.328125 215.652344 213.410156 215.414062 213.449219 C 215.179688 213.488281 214.945312 213.476562 214.710938 213.417969 C 214.480469 213.363281 214.265625 213.261719 214.074219 213.117188 C 213.882812 212.972656 213.722656 212.792969 213.597656 212.585938 C 213.472656 212.378906 213.394531 212.152344 213.355469 211.914062 C 213.320312 211.675781 213.332031 211.4375 213.386719 211.203125 C 213.445312 210.964844 213.542969 210.75 213.683594 210.550781 C 219.96875 202.328125 226.847656 194.421875 233.351562 186.351562 C 233.496094 186.160156 233.671875 186.003906 233.882812 185.886719 C 234.089844 185.769531 234.3125 185.695312 234.550781 185.667969 C 234.789062 185.640625 235.019531 185.660156 235.25 185.726562 C 235.480469 185.792969 235.6875 185.902344 235.875 186.054688 C 236.058594 186.207031 236.207031 186.390625 236.324219 186.605469 C 236.4375 186.816406 236.507812 187.039062 236.535156 187.28125 C 236.5625 187.519531 236.542969 187.753906 236.480469 187.988281 C 236.414062 188.21875 236.308594 188.429688 236.164062 188.621094 " fill-opacity="1" fill-rule="evenodd"/><path fill="#540c2c" d="M 220.9375 160.628906 C 209.714844 163.835938 198.464844 166.503906 187.308594 170.007812 C 180.148438 181.933594 199.867188 216.003906 214.320312 209.992188 C 214.535156 209.882812 214.761719 209.820312 215 209.804688 C 215.238281 209.785156 215.472656 209.816406 215.699219 209.890625 C 215.925781 209.96875 216.128906 210.085938 216.308594 210.246094 C 216.488281 210.40625 216.628906 210.59375 216.730469 210.808594 C 216.839844 211.023438 216.902344 211.253906 216.921875 211.496094 C 216.9375 211.734375 216.910156 211.972656 216.835938 212.203125 C 216.761719 212.433594 216.644531 212.640625 216.492188 212.824219 C 216.335938 213.011719 216.148438 213.160156 215.933594 213.273438 C 196.515625 221.34375 174.585938 180.042969 184.773438 167.28125 C 185.960938 165.800781 215.386719 158.425781 219.921875 157.144531 C 220.152344 157.074219 220.386719 157.054688 220.625 157.082031 C 220.863281 157.105469 221.089844 157.179688 221.300781 157.296875 C 221.507812 157.410156 221.6875 157.5625 221.835938 157.753906 C 221.984375 157.941406 222.089844 158.152344 222.15625 158.382812 C 222.222656 158.613281 222.246094 158.847656 222.21875 159.089844 C 222.195312 159.328125 222.128906 159.554688 222.011719 159.769531 C 221.898438 159.980469 221.75 160.164062 221.5625 160.320312 C 221.378906 160.472656 221.167969 160.585938 220.9375 160.660156 " fill-opacity="1" fill-rule="evenodd"/><path fill="#540c2c" d="M 224.101562 139.214844 C 224.234375 139.09375 224.382812 138.992188 224.546875 138.914062 C 224.667969 138.851562 224.796875 138.808594 224.933594 138.78125 C 244.292969 131.882812 260.261719 167.132812 259.871094 182.628906 C 259.636719 191.773438 253.4375 197.707031 244.625 195.8125 C 228.339844 192.316406 208.214844 150.289062 224.101562 139.214844 M 226.089844 142.226562 C 215.285156 149.070312 227.796875 175.789062 233.660156 183.335938 C 237.945312 188.832031 247.84375 197.148438 254.351562 189.410156 C 261.113281 181.363281 249.90625 158.457031 244.511719 151.386719 C 240.007812 145.480469 233.800781 139.253906 226.089844 142.226562 Z M 226.089844 142.226562 " fill-opacity="1" fill-rule="evenodd"/><path fill="#540c2c" d="M 193.957031 166.015625 C 185.597656 155.339844 168.300781 154.402344 167.902344 171.476562 C 167.386719 193.292969 177.304688 214.695312 196.542969 225.226562 C 210.511719 232.867188 223.640625 228.433594 220.585938 210.6875 C 220.386719 209.015625 219.886719 207.4375 219.078125 205.957031 C 218.9375 205.761719 218.835938 205.546875 218.777344 205.3125 C 218.714844 205.078125 218.703125 204.84375 218.734375 204.601562 C 218.769531 204.363281 218.84375 204.140625 218.964844 203.929688 C 219.085938 203.71875 219.242188 203.539062 219.433594 203.390625 C 219.621094 203.246094 219.832031 203.140625 220.066406 203.082031 C 220.296875 203.019531 220.53125 203.007812 220.765625 203.039062 C 221.003906 203.074219 221.226562 203.152344 221.429688 203.277344 C 221.636719 203.398438 221.808594 203.558594 221.949219 203.75 C 225.808594 211.804688 226.25 224.609375 217.890625 230.09375 C 203.097656 239.808594 181.105469 220.402344 173.425781 207.730469 C 167.21875 197.460938 159.148438 169.519531 168.328125 159.273438 C 176.289062 150.378906 190.128906 155.28125 196.921875 163.949219 C 197.0625 164.152344 197.15625 164.371094 197.207031 164.613281 C 197.257812 164.851562 197.261719 165.089844 197.214844 165.332031 C 197.171875 165.570312 197.085938 165.792969 196.953125 166 C 196.820312 166.203125 196.652344 166.378906 196.453125 166.515625 C 196.257812 166.652344 196.042969 166.746094 195.808594 166.796875 C 195.574219 166.84375 195.339844 166.847656 195.105469 166.800781 C 194.867188 166.757812 194.652344 166.667969 194.453125 166.535156 C 194.253906 166.402344 194.089844 166.234375 193.957031 166.035156 " fill-opacity="1" fill-rule="evenodd"/><path fill="#540c2c" d="M 170.828125 201.5625 C 156.871094 211.695312 141.273438 220.8125 127.132812 230.867188 C 143.855469 223.808594 160.578125 216.78125 177.300781 209.789062 C 177.519531 209.695312 177.753906 209.652344 177.992188 209.65625 C 178.230469 209.65625 178.460938 209.707031 178.683594 209.800781 C 178.902344 209.894531 179.097656 210.027344 179.261719 210.203125 C 179.429688 210.375 179.554688 210.570312 179.640625 210.796875 C 179.730469 211.019531 179.773438 211.253906 179.773438 211.492188 C 179.773438 211.734375 179.726562 211.96875 179.632812 212.191406 C 179.539062 212.414062 179.410156 212.609375 179.238281 212.78125 C 179.070312 212.953125 178.871094 213.085938 178.648438 213.183594 C 160.109375 220.949219 141.574219 228.742188 123.046875 236.5625 C 121.566406 237.203125 112.691406 242.335938 113.085938 237.847656 C 113.085938 237.542969 113.507812 237.03125 114.203125 236.351562 L 114.304688 236.304688 C 121.832031 229.003906 162.679688 202.972656 168.699219 198.605469 C 168.890625 198.460938 169.101562 198.359375 169.335938 198.300781 C 169.566406 198.246094 169.800781 198.234375 170.039062 198.269531 C 170.273438 198.308594 170.492188 198.390625 170.695312 198.515625 C 170.898438 198.640625 171.070312 198.800781 171.207031 198.996094 C 171.351562 199.191406 171.449219 199.410156 171.507812 199.644531 C 171.566406 199.878906 171.578125 200.117188 171.539062 200.355469 C 171.503906 200.597656 171.425781 200.820312 171.304688 201.027344 C 171.179688 201.238281 171.023438 201.414062 170.828125 201.5625 " fill-opacity="1" fill-rule="evenodd"/></svg>