<svg xmlns="http://www.w3.org/2000/svg" xmlns:xlink="http://www.w3.org/1999/xlink" width="500" zoomAndPan="magnify" viewBox="0 0 375 374.999991" height="500" preserveAspectRatio="xMidYMid meet" version="1.0"><defs><filter x="0%" y="0%" width="100%" height="100%" id="22dfe8c619"><feColorMatrix values="0 0 0 0 1 0 0 0 0 1 0 0 0 0 1 0 0 0 1 0" color-interpolation-filters="sRGB"/></filter><mask id="5d55b21b88"><g filter="url(#22dfe8c619)"><rect x="-37.5" width="450" fill="#000000" y="-37.499999" height="449.999989" fill-opacity="0.8471"/></g></mask><clipPath id="78f7babb3e"><path d="M 1 1 L 236 1 L 236 265.960938 L 1 265.960938 Z M 1 1 " clip-rule="nonzero"/></clipPath><clipPath id="6a6ff714fa"><rect x="0" width="237" y="0" height="266"/></clipPath><mask id="82ef127a51"><g filter="url(#22dfe8c619)"><rect x="-37.5" width="450" fill="#000000" y="-37.499999" height="449.999989" fill-opacity="0.8784"/></g></mask><clipPath id="cb5fbc666b"><path d="M 1 1 L 143.71875 1 L 143.71875 44 L 1 44 Z M 1 1 " clip-rule="nonzero"/></clipPath><clipPath id="d32f1979c5"><rect x="0" width="144" y="0" height="45"/></clipPath><clipPath id="3b275009e3"><path d="M 17 10 L 318 10 L 318 366 L 17 366 Z M 17 10 " clip-rule="nonzero"/></clipPath><clipPath id="b5fc2feb5e"><path d="M 263.351562 47.660156 C 274.320312 46.5625 285.285156 45.386719 296.253906 44.289062 C 286.933594 50.871094 277.609375 57.457031 268.363281 64.121094 C 268.441406 77.601562 268.523438 91.164062 268.601562 104.644531 C 262.566406 93.121094 256.613281 81.601562 250.582031 70.078125 C 239.066406 68.351562 227.625 66.707031 216.109375 64.980469 C 226.214844 61.0625 236.402344 57.066406 246.507812 53.144531 C 245.644531 39.035156 244.785156 24.925781 243.921875 10.738281 C 250.347656 23.046875 256.847656 35.351562 263.351562 47.660156 Z M 63.421875 93.359375 C 57.152344 102.136719 50.808594 110.917969 44.539062 119.695312 C 35.6875 116.324219 26.835938 112.953125 17.980469 109.585938 C 25.03125 117.03125 32.003906 124.476562 39.054688 131.925781 C 37.566406 142.035156 36 152.226562 34.511719 162.339844 C 41.015625 154.34375 47.59375 146.425781 54.097656 138.429688 C 63.65625 139.761719 73.214844 141.09375 82.847656 142.507812 C 74.78125 137.019531 66.789062 131.53125 58.71875 126.046875 C 60.285156 115.070312 61.855469 104.175781 63.421875 93.359375 Z M 289.597656 288.773438 C 285.992188 299.4375 282.308594 310.019531 278.707031 320.679688 C 270.089844 320.523438 261.472656 320.363281 252.851562 320.128906 C 260.765625 324.832031 268.679688 329.535156 276.589844 334.238281 C 277.53125 344.507812 278.472656 354.777344 279.410156 365.042969 C 283.40625 355.089844 287.480469 345.214844 291.476562 335.257812 C 300.328125 333.21875 309.101562 331.183594 317.957031 329.144531 C 309.574219 326.636719 301.191406 324.207031 292.808594 321.699219 C 291.710938 310.800781 290.613281 299.75 289.597656 288.773438 Z M 289.597656 288.773438 " clip-rule="nonzero"/></clipPath><linearGradient x1="75.78145" gradientTransform="matrix(0.783427, 0, 0, 0.783863, 9.129004, 0)" y1="-34.326533" x2="428.936913" gradientUnits="userSpaceOnUse" y2="439.82748" id="21f4dcf72c"><stop stop-opacity="1" stop-color="rgb(100%, 100%, 100%)" offset="0"/><stop stop-opacity="1" stop-color="rgb(100%, 100%, 100%)" offset="0.125"/><stop stop-opacity="1" stop-color="rgb(100%, 100%, 100%)" offset="0.1875"/><stop stop-opacity="1" stop-color="rgb(100%, 100%, 100%)" offset="0.21875"/><stop stop-opacity="1" stop-color="rgb(100%, 100%, 100%)" offset="0.234375"/><stop stop-opacity="1" stop-color="rgb(99.969482%, 99.867249%, 99.732971%)" offset="0.238281"/><stop stop-opacity="1" stop-color="rgb(99.938965%, 99.736023%, 99.467468%)" offset="0.242188"/><stop stop-opacity="1" stop-color="rgb(99.905396%, 99.589539%, 99.169922%)" offset="0.246094"/><stop stop-opacity="1" stop-color="rgb(99.871826%, 99.443054%, 98.873901%)" offset="0.25"/><stop stop-opacity="1" stop-color="rgb(99.838257%, 99.295044%, 98.576355%)" offset="0.253906"/><stop stop-opacity="1" stop-color="rgb(99.804688%, 99.14856%, 98.280334%)" offset="0.257812"/><stop stop-opacity="1" stop-color="rgb(99.769592%, 99.000549%, 97.982788%)" offset="0.261719"/><stop stop-opacity="1" stop-color="rgb(99.736023%, 98.854065%, 97.685242%)" offset="0.265625"/><stop stop-opacity="1" stop-color="rgb(99.702454%, 98.707581%, 97.387695%)" offset="0.269531"/><stop stop-opacity="1" stop-color="rgb(99.668884%, 98.561096%, 97.091675%)" offset="0.273438"/><stop stop-opacity="1" stop-color="rgb(99.635315%, 98.413086%, 96.794128%)" offset="0.277344"/><stop stop-opacity="1" stop-color="rgb(99.601746%, 98.266602%, 96.496582%)" offset="0.28125"/><stop stop-opacity="1" stop-color="rgb(99.568176%, 98.118591%, 96.199036%)" offset="0.285156"/><stop stop-opacity="1" stop-color="rgb(99.534607%, 97.972107%, 95.903015%)" offset="0.289063"/><stop stop-opacity="1" stop-color="rgb(99.499512%, 97.825623%, 95.605469%)" offset="0.292969"/><stop stop-opacity="1" stop-color="rgb(99.465942%, 97.679138%, 95.309448%)" offset="0.296875"/><stop stop-opacity="1" stop-color="rgb(99.432373%, 97.531128%, 95.011902%)" offset="0.300781"/><stop stop-opacity="1" stop-color="rgb(99.398804%, 97.384644%, 94.714355%)" offset="0.304688"/><stop stop-opacity="1" stop-color="rgb(99.365234%, 97.236633%, 94.416809%)" offset="0.308594"/><stop stop-opacity="1" stop-color="rgb(99.331665%, 97.090149%, 94.120789%)" offset="0.3125"/><stop stop-opacity="1" stop-color="rgb(99.298096%, 96.943665%, 93.823242%)" offset="0.316406"/><stop stop-opacity="1" stop-color="rgb(99.264526%, 96.79718%, 93.525696%)" offset="0.320312"/><stop stop-opacity="1" stop-color="rgb(99.230957%, 96.64917%, 93.228149%)" offset="0.324219"/><stop stop-opacity="1" stop-color="rgb(99.197388%, 96.502686%, 92.932129%)" offset="0.328125"/><stop stop-opacity="1" stop-color="rgb(99.162292%, 96.354675%, 92.634583%)" offset="0.332031"/><stop stop-opacity="1" stop-color="rgb(99.128723%, 96.208191%, 92.338562%)" offset="0.335938"/><stop stop-opacity="1" stop-color="rgb(99.095154%, 96.061707%, 92.041016%)" offset="0.339844"/><stop stop-opacity="1" stop-color="rgb(99.061584%, 95.915222%, 91.743469%)" offset="0.34375"/><stop stop-opacity="1" stop-color="rgb(99.028015%, 95.767212%, 91.445923%)" offset="0.347656"/><stop stop-opacity="1" stop-color="rgb(98.994446%, 95.620728%, 91.149902%)" offset="0.351562"/><stop stop-opacity="1" stop-color="rgb(98.960876%, 95.472717%, 90.852356%)" offset="0.355469"/><stop stop-opacity="1" stop-color="rgb(98.927307%, 95.326233%, 90.55481%)" offset="0.359375"/><stop stop-opacity="1" stop-color="rgb(98.892212%, 95.179749%, 90.257263%)" offset="0.363281"/><stop stop-opacity="1" stop-color="rgb(98.858643%, 95.033264%, 89.961243%)" offset="0.367188"/><stop stop-opacity="1" stop-color="rgb(98.825073%, 94.885254%, 89.663696%)" offset="0.371094"/><stop stop-opacity="1" stop-color="rgb(98.791504%, 94.73877%, 89.367676%)" offset="0.375"/><stop stop-opacity="1" stop-color="rgb(98.757935%, 94.590759%, 89.070129%)" offset="0.378906"/><stop stop-opacity="1" stop-color="rgb(98.724365%, 94.444275%, 88.772583%)" offset="0.382812"/><stop stop-opacity="1" stop-color="rgb(98.690796%, 94.297791%, 88.475037%)" offset="0.386719"/><stop stop-opacity="1" stop-color="rgb(98.657227%, 94.151306%, 88.179016%)" offset="0.390625"/><stop stop-opacity="1" stop-color="rgb(98.623657%, 94.003296%, 87.88147%)" offset="0.394531"/><stop stop-opacity="1" stop-color="rgb(98.590088%, 93.856812%, 87.585449%)" offset="0.398438"/><stop stop-opacity="1" stop-color="rgb(98.554993%, 93.708801%, 87.287903%)" offset="0.402344"/><stop stop-opacity="1" stop-color="rgb(98.521423%, 93.562317%, 86.990356%)" offset="0.40625"/><stop stop-opacity="1" stop-color="rgb(98.487854%, 93.415833%, 86.69281%)" offset="0.410156"/><stop stop-opacity="1" stop-color="rgb(98.454285%, 93.269348%, 86.39679%)" offset="0.414062"/><stop stop-opacity="1" stop-color="rgb(98.420715%, 93.121338%, 86.099243%)" offset="0.417969"/><stop stop-opacity="1" stop-color="rgb(98.387146%, 92.974854%, 85.801697%)" offset="0.421875"/><stop stop-opacity="1" stop-color="rgb(98.353577%, 92.826843%, 85.50415%)" offset="0.425781"/><stop stop-opacity="1" stop-color="rgb(98.320007%, 92.680359%, 85.20813%)" offset="0.429688"/><stop stop-opacity="1" stop-color="rgb(98.286438%, 92.533875%, 84.910583%)" offset="0.433594"/><stop stop-opacity="1" stop-color="rgb(98.252869%, 92.38739%, 84.614563%)" offset="0.4375"/><stop stop-opacity="1" stop-color="rgb(98.217773%, 92.23938%, 84.317017%)" offset="0.441406"/><stop stop-opacity="1" stop-color="rgb(98.184204%, 92.092896%, 84.01947%)" offset="0.445313"/><stop stop-opacity="1" stop-color="rgb(98.150635%, 91.944885%, 83.721924%)" offset="0.449219"/><stop stop-opacity="1" stop-color="rgb(98.117065%, 91.798401%, 83.425903%)" offset="0.453125"/><stop stop-opacity="1" stop-color="rgb(98.083496%, 91.651917%, 83.128357%)" offset="0.457031"/><stop stop-opacity="1" stop-color="rgb(98.049927%, 91.505432%, 82.830811%)" offset="0.460938"/><stop stop-opacity="1" stop-color="rgb(98.016357%, 91.357422%, 82.533264%)" offset="0.464844"/><stop stop-opacity="1" stop-color="rgb(97.982788%, 91.210938%, 82.237244%)" offset="0.46875"/><stop stop-opacity="1" stop-color="rgb(97.947693%, 91.062927%, 81.939697%)" offset="0.472656"/><stop stop-opacity="1" stop-color="rgb(97.914124%, 90.916443%, 81.643677%)" offset="0.476563"/><stop stop-opacity="1" stop-color="rgb(97.880554%, 90.769958%, 81.34613%)" offset="0.480469"/><stop stop-opacity="1" stop-color="rgb(97.846985%, 90.623474%, 81.048584%)" offset="0.484375"/><stop stop-opacity="1" stop-color="rgb(97.813416%, 90.475464%, 80.751038%)" offset="0.488281"/><stop stop-opacity="1" stop-color="rgb(97.779846%, 90.328979%, 80.455017%)" offset="0.492188"/><stop stop-opacity="1" stop-color="rgb(97.746277%, 90.180969%, 80.157471%)" offset="0.496094"/><stop stop-opacity="1" stop-color="rgb(97.712708%, 90.034485%, 79.86145%)" offset="0.5"/><stop stop-opacity="1" stop-color="rgb(97.679138%, 89.888%, 79.563904%)" offset="0.503906"/><stop stop-opacity="1" stop-color="rgb(97.645569%, 89.741516%, 79.266357%)" offset="0.507813"/><stop stop-opacity="1" stop-color="rgb(97.610474%, 89.593506%, 78.968811%)" offset="0.511719"/><stop stop-opacity="1" stop-color="rgb(97.576904%, 89.447021%, 78.672791%)" offset="0.515625"/><stop stop-opacity="1" stop-color="rgb(97.543335%, 89.299011%, 78.375244%)" offset="0.519531"/><stop stop-opacity="1" stop-color="rgb(97.509766%, 89.152527%, 78.077698%)" offset="0.523438"/><stop stop-opacity="1" stop-color="rgb(97.476196%, 89.006042%, 77.780151%)" offset="0.527344"/><stop stop-opacity="1" stop-color="rgb(97.442627%, 88.859558%, 77.484131%)" offset="0.53125"/><stop stop-opacity="1" stop-color="rgb(97.409058%, 88.711548%, 77.186584%)" offset="0.535156"/><stop stop-opacity="1" stop-color="rgb(97.375488%, 88.565063%, 76.890564%)" offset="0.539062"/><stop stop-opacity="1" stop-color="rgb(97.340393%, 88.417053%, 76.593018%)" offset="0.542969"/><stop stop-opacity="1" stop-color="rgb(97.306824%, 88.270569%, 76.295471%)" offset="0.546875"/><stop stop-opacity="1" stop-color="rgb(97.273254%, 88.124084%, 75.997925%)" offset="0.550781"/><stop stop-opacity="1" stop-color="rgb(97.239685%, 87.9776%, 75.701904%)" offset="0.554688"/><stop stop-opacity="1" stop-color="rgb(97.206116%, 87.82959%, 75.404358%)" offset="0.558594"/><stop stop-opacity="1" stop-color="rgb(97.172546%, 87.683105%, 75.106812%)" offset="0.5625"/><stop stop-opacity="1" stop-color="rgb(97.138977%, 87.535095%, 74.809265%)" offset="0.566406"/><stop stop-opacity="1" stop-color="rgb(97.105408%, 87.388611%, 74.513245%)" offset="0.570312"/><stop stop-opacity="1" stop-color="rgb(97.071838%, 87.242126%, 74.215698%)" offset="0.574219"/><stop stop-opacity="1" stop-color="rgb(97.038269%, 87.095642%, 73.919678%)" offset="0.578125"/><stop stop-opacity="1" stop-color="rgb(97.003174%, 86.947632%, 73.622131%)" offset="0.582031"/><stop stop-opacity="1" stop-color="rgb(96.969604%, 86.801147%, 73.324585%)" offset="0.585938"/><stop stop-opacity="1" stop-color="rgb(96.936035%, 86.653137%, 73.027039%)" offset="0.589844"/><stop stop-opacity="1" stop-color="rgb(96.902466%, 86.506653%, 72.731018%)" offset="0.59375"/><stop stop-opacity="1" stop-color="rgb(96.868896%, 86.360168%, 72.433472%)" offset="0.597656"/><stop stop-opacity="1" stop-color="rgb(96.835327%, 86.213684%, 72.137451%)" offset="0.601562"/><stop stop-opacity="1" stop-color="rgb(96.801758%, 86.065674%, 71.839905%)" offset="0.605469"/><stop stop-opacity="1" stop-color="rgb(96.768188%, 85.919189%, 71.542358%)" offset="0.609375"/><stop stop-opacity="1" stop-color="rgb(96.734619%, 85.771179%, 71.244812%)" offset="0.613281"/><stop stop-opacity="1" stop-color="rgb(96.70105%, 85.624695%, 70.948792%)" offset="0.617188"/><stop stop-opacity="1" stop-color="rgb(96.665955%, 85.47821%, 70.651245%)" offset="0.621094"/><stop stop-opacity="1" stop-color="rgb(96.632385%, 85.331726%, 70.353699%)" offset="0.625"/><stop stop-opacity="1" stop-color="rgb(96.598816%, 85.183716%, 70.056152%)" offset="0.628906"/><stop stop-opacity="1" stop-color="rgb(96.565247%, 85.037231%, 69.760132%)" offset="0.632812"/><stop stop-opacity="1" stop-color="rgb(96.531677%, 84.889221%, 69.462585%)" offset="0.636719"/><stop stop-opacity="1" stop-color="rgb(96.498108%, 84.742737%, 69.166565%)" offset="0.640625"/><stop stop-opacity="1" stop-color="rgb(96.464539%, 84.596252%, 68.869019%)" offset="0.644531"/><stop stop-opacity="1" stop-color="rgb(96.430969%, 84.449768%, 68.571472%)" offset="0.648438"/><stop stop-opacity="1" stop-color="rgb(96.395874%, 84.301758%, 68.273926%)" offset="0.652344"/><stop stop-opacity="1" stop-color="rgb(96.362305%, 84.155273%, 67.977905%)" offset="0.65625"/><stop stop-opacity="1" stop-color="rgb(96.328735%, 84.007263%, 67.680359%)" offset="0.660156"/><stop stop-opacity="1" stop-color="rgb(96.295166%, 83.860779%, 67.382812%)" offset="0.664063"/><stop stop-opacity="1" stop-color="rgb(96.261597%, 83.714294%, 67.085266%)" offset="0.667969"/><stop stop-opacity="1" stop-color="rgb(96.228027%, 83.56781%, 66.789246%)" offset="0.671875"/><stop stop-opacity="1" stop-color="rgb(96.194458%, 83.4198%, 66.491699%)" offset="0.675781"/><stop stop-opacity="1" stop-color="rgb(96.160889%, 83.273315%, 66.195679%)" offset="0.679688"/><stop stop-opacity="1" stop-color="rgb(96.127319%, 83.125305%, 65.898132%)" offset="0.683594"/><stop stop-opacity="1" stop-color="rgb(96.09375%, 82.978821%, 65.600586%)" offset="0.6875"/><stop stop-opacity="1" stop-color="rgb(96.058655%, 82.832336%, 65.30304%)" offset="0.691406"/><stop stop-opacity="1" stop-color="rgb(96.025085%, 82.685852%, 65.007019%)" offset="0.695313"/><stop stop-opacity="1" stop-color="rgb(95.991516%, 82.537842%, 64.709473%)" offset="0.699219"/><stop stop-opacity="1" stop-color="rgb(95.957947%, 82.391357%, 64.411926%)" offset="0.703125"/><stop stop-opacity="1" stop-color="rgb(95.924377%, 82.243347%, 64.11438%)" offset="0.707031"/><stop stop-opacity="1" stop-color="rgb(95.890808%, 82.096863%, 63.818359%)" offset="0.710938"/><stop stop-opacity="1" stop-color="rgb(95.857239%, 81.950378%, 63.520813%)" offset="0.714844"/><stop stop-opacity="1" stop-color="rgb(95.823669%, 81.803894%, 63.224792%)" offset="0.71875"/><stop stop-opacity="1" stop-color="rgb(95.788574%, 81.655884%, 62.927246%)" offset="0.722656"/><stop stop-opacity="1" stop-color="rgb(95.755005%, 81.509399%, 62.6297%)" offset="0.726563"/><stop stop-opacity="1" stop-color="rgb(95.721436%, 81.361389%, 62.332153%)" offset="0.730469"/><stop stop-opacity="1" stop-color="rgb(95.687866%, 81.214905%, 62.036133%)" offset="0.734375"/><stop stop-opacity="1" stop-color="rgb(95.654297%, 81.06842%, 61.738586%)" offset="0.738281"/><stop stop-opacity="1" stop-color="rgb(95.620728%, 80.921936%, 61.442566%)" offset="0.742188"/><stop stop-opacity="1" stop-color="rgb(95.587158%, 80.773926%, 61.14502%)" offset="0.746094"/><stop stop-opacity="1" stop-color="rgb(95.553589%, 80.627441%, 60.847473%)" offset="0.75"/><stop stop-opacity="1" stop-color="rgb(95.52002%, 80.479431%, 60.549927%)" offset="0.753906"/><stop stop-opacity="1" stop-color="rgb(95.48645%, 80.332947%, 60.253906%)" offset="0.757813"/><stop stop-opacity="1" stop-color="rgb(95.451355%, 80.186462%, 59.95636%)" offset="0.761719"/><stop stop-opacity="1" stop-color="rgb(95.417786%, 80.039978%, 59.658813%)" offset="0.765625"/><stop stop-opacity="1" stop-color="rgb(95.384216%, 79.891968%, 59.361267%)" offset="0.769531"/><stop stop-opacity="1" stop-color="rgb(95.350647%, 79.745483%, 59.065247%)" offset="0.773438"/><stop stop-opacity="1" stop-color="rgb(95.317078%, 79.597473%, 58.7677%)" offset="0.777344"/><stop stop-opacity="1" stop-color="rgb(95.283508%, 79.450989%, 58.47168%)" offset="0.78125"/><stop stop-opacity="1" stop-color="rgb(95.249939%, 79.304504%, 58.174133%)" offset="0.785156"/><stop stop-opacity="1" stop-color="rgb(95.21637%, 79.15802%, 57.876587%)" offset="0.789062"/><stop stop-opacity="1" stop-color="rgb(95.1828%, 79.01001%, 57.579041%)" offset="0.792969"/><stop stop-opacity="1" stop-color="rgb(95.149231%, 78.863525%, 57.28302%)" offset="0.796875"/><stop stop-opacity="1" stop-color="rgb(95.114136%, 78.715515%, 56.985474%)" offset="0.800781"/><stop stop-opacity="1" stop-color="rgb(95.080566%, 78.569031%, 56.687927%)" offset="0.804688"/><stop stop-opacity="1" stop-color="rgb(95.046997%, 78.422546%, 56.390381%)" offset="0.808594"/><stop stop-opacity="1" stop-color="rgb(95.013428%, 78.276062%, 56.09436%)" offset="0.8125"/><stop stop-opacity="1" stop-color="rgb(94.979858%, 78.128052%, 55.796814%)" offset="0.816406"/><stop stop-opacity="1" stop-color="rgb(94.946289%, 77.981567%, 55.500793%)" offset="0.820312"/><stop stop-opacity="1" stop-color="rgb(94.91272%, 77.833557%, 55.203247%)" offset="0.824219"/><stop stop-opacity="1" stop-color="rgb(94.87915%, 77.687073%, 54.905701%)" offset="0.828125"/><stop stop-opacity="1" stop-color="rgb(94.844055%, 77.540588%, 54.608154%)" offset="0.832031"/><stop stop-opacity="1" stop-color="rgb(94.810486%, 77.394104%, 54.312134%)" offset="0.835938"/><stop stop-opacity="1" stop-color="rgb(94.776917%, 77.246094%, 54.014587%)" offset="0.839844"/><stop stop-opacity="1" stop-color="rgb(94.743347%, 77.099609%, 53.718567%)" offset="0.84375"/><stop stop-opacity="1" stop-color="rgb(94.709778%, 76.953125%, 53.421021%)" offset="0.847656"/><stop stop-opacity="1" stop-color="rgb(94.676208%, 76.806641%, 53.123474%)" offset="0.851562"/><stop stop-opacity="1" stop-color="rgb(94.642639%, 76.65863%, 52.825928%)" offset="0.855469"/><stop stop-opacity="1" stop-color="rgb(94.60907%, 76.512146%, 52.529907%)" offset="0.859375"/><stop stop-opacity="1" stop-color="rgb(94.5755%, 76.364136%, 52.232361%)" offset="0.863281"/><stop stop-opacity="1" stop-color="rgb(94.541931%, 76.217651%, 51.934814%)" offset="0.867188"/><stop stop-opacity="1" stop-color="rgb(94.506836%, 76.071167%, 51.637268%)" offset="0.871094"/><stop stop-opacity="1" stop-color="rgb(94.473267%, 75.924683%, 51.341248%)" offset="0.875"/><stop stop-opacity="1" stop-color="rgb(94.439697%, 75.776672%, 51.043701%)" offset="0.878906"/><stop stop-opacity="1" stop-color="rgb(94.406128%, 75.630188%, 50.747681%)" offset="0.882812"/><stop stop-opacity="1" stop-color="rgb(94.372559%, 75.482178%, 50.450134%)" offset="0.886719"/><stop stop-opacity="1" stop-color="rgb(94.338989%, 75.335693%, 50.152588%)" offset="0.890625"/><stop stop-opacity="1" stop-color="rgb(94.30542%, 75.189209%, 49.855042%)" offset="0.894531"/><stop stop-opacity="1" stop-color="rgb(94.271851%, 75.042725%, 49.559021%)" offset="0.898438"/><stop stop-opacity="1" stop-color="rgb(94.236755%, 74.894714%, 49.261475%)" offset="0.902344"/><stop stop-opacity="1" stop-color="rgb(94.203186%, 74.74823%, 48.963928%)" offset="0.90625"/><stop stop-opacity="1" stop-color="rgb(94.169617%, 74.60022%, 48.666382%)" offset="0.910156"/><stop stop-opacity="1" stop-color="rgb(94.136047%, 74.453735%, 48.370361%)" offset="0.914062"/><stop stop-opacity="1" stop-color="rgb(94.102478%, 74.307251%, 48.072815%)" offset="0.917969"/><stop stop-opacity="1" stop-color="rgb(94.068909%, 74.160767%, 47.776794%)" offset="0.921875"/><stop stop-opacity="1" stop-color="rgb(94.035339%, 74.012756%, 47.479248%)" offset="0.925781"/><stop stop-opacity="1" stop-color="rgb(94.00177%, 73.866272%, 47.181702%)" offset="0.929688"/><stop stop-opacity="1" stop-color="rgb(93.968201%, 73.718262%, 46.884155%)" offset="0.933594"/><stop stop-opacity="1" stop-color="rgb(93.934631%, 73.571777%, 46.588135%)" offset="0.9375"/><stop stop-opacity="1" stop-color="rgb(93.899536%, 73.425293%, 46.290588%)" offset="0.941406"/><stop stop-opacity="1" stop-color="rgb(93.865967%, 73.278809%, 45.994568%)" offset="0.945312"/><stop stop-opacity="1" stop-color="rgb(93.832397%, 73.130798%, 45.697021%)" offset="0.949219"/><stop stop-opacity="1" stop-color="rgb(93.798828%, 72.984314%, 45.399475%)" offset="0.953125"/><stop stop-opacity="1" stop-color="rgb(93.765259%, 72.836304%, 45.101929%)" offset="0.957031"/><stop stop-opacity="1" stop-color="rgb(93.731689%, 72.689819%, 44.805908%)" offset="0.960938"/><stop stop-opacity="1" stop-color="rgb(93.69812%, 72.543335%, 44.508362%)" offset="0.964844"/><stop stop-opacity="1" stop-color="rgb(93.664551%, 72.396851%, 44.210815%)" offset="0.96875"/><stop stop-opacity="1" stop-color="rgb(93.629456%, 72.24884%, 43.913269%)" offset="0.972656"/><stop stop-opacity="1" stop-color="rgb(93.595886%, 72.102356%, 43.617249%)" offset="0.976562"/><stop stop-opacity="1" stop-color="rgb(93.562317%, 71.954346%, 43.319702%)" offset="0.980469"/><stop stop-opacity="1" stop-color="rgb(93.528748%, 71.807861%, 43.023682%)" offset="0.984375"/><stop stop-opacity="1" stop-color="rgb(93.495178%, 71.661377%, 42.726135%)" offset="0.988281"/><stop stop-opacity="1" stop-color="rgb(93.461609%, 71.514893%, 42.428589%)" offset="0.992188"/><stop stop-opacity="1" stop-color="rgb(93.42804%, 71.366882%, 42.131042%)" offset="0.996094"/><stop stop-opacity="1" stop-color="rgb(93.39447%, 71.220398%, 41.835022%)" offset="1"/></linearGradient></defs><path fill="#e69223" d="M 320.148438 162.574219 C 320.382812 159.515625 316.390625 159.28125 315.449219 161.710938 C 315.371094 162.023438 315.214844 162.257812 315.136719 162.574219 C 312.941406 146.113281 309.417969 129.492188 299.78125 125.808594 C 295.707031 124.242188 285.285156 122.988281 279.019531 113.972656 C 278.707031 113.582031 278.550781 113.269531 278.472656 113.191406 C 230.289062 47.972656 68.355469 70 50.652344 124.949219 C 46.578125 137.726562 50.730469 150.578125 53.863281 165.082031 C 53.472656 175.351562 51.824219 185.539062 48.769531 195.339844 C 46.421875 203.175781 43.207031 210.78125 39.289062 217.914062 C 35.21875 225.4375 29.96875 232.023438 24.875 238.84375 C 20.410156 244.878906 16.179688 251.226562 14.144531 258.675781 C 11.792969 267.140625 12.65625 276.078125 13.90625 284.699219 C 15.160156 292.695312 16.804688 301.003906 21.273438 307.902344 C 25.347656 314.171875 31.457031 318.5625 37.878906 321.699219 C 42.660156 324.050781 47.671875 325.851562 52.765625 327.496094 C 53 327.734375 53.234375 328.046875 53.472656 328.28125 C 82.457031 361.203125 132.832031 357.910156 180.777344 353.992188 C 180.777344 353.992188 251.757812 348.191406 316.390625 308.449219 C 321.402344 305.394531 329.316406 300.0625 331.980469 290.578125 C 332.136719 289.949219 332.292969 289.324219 332.449219 288.695312 C 335.113281 285.167969 337.148438 281.25 337.933594 276.703125 C 340.125 263.535156 331.273438 250.992188 323.28125 241.742188 C 319.992188 237.902344 316.859375 233.746094 314.742188 229.042969 C 314.820312 216.425781 319.523438 205.921875 316.9375 177.386719 C 318.347656 172.683594 319.757812 167.746094 320.148438 162.574219 Z M 51.042969 214.777344 C 42.660156 234.609375 34.589844 237.355469 31.300781 256.246094 C 27.460938 278.429688 35.140625 302.257812 46.578125 319.425781 C 44.929688 318.796875 43.363281 318.167969 41.796875 317.464844 C 35.058594 314.484375 28.714844 310.253906 24.71875 303.589844 C 20.175781 296.144531 18.921875 286.738281 17.902344 278.269531 C 16.804688 269.335938 17.355469 260.871094 21.273438 252.875 C 24.640625 245.898438 29.65625 240.019531 34.121094 233.828125 C 42.582031 222.070312 48.847656 208.742188 52.453125 194.398438 C 54.097656 188.046875 55.117188 181.542969 55.742188 174.878906 C 57.464844 186.871094 57.386719 199.886719 51.042969 214.777344 Z M 333.9375 271.84375 C 334.328125 275.292969 333.703125 278.429688 332.527344 281.40625 C 330.882812 271.609375 322.8125 262.59375 317.640625 246.683594 C 317.171875 245.113281 316.703125 243.625 316.3125 242.214844 C 323.597656 251.304688 332.605469 259.378906 333.9375 271.84375 Z M 333.9375 271.84375 " fill-opacity="1" fill-rule="nonzero"/><path fill="#2a4c09" d="M 87.941406 294.890625 C 87.941406 294.890625 113.953125 279.996094 142.859375 274.507812 C 173.492188 268.628906 215.09375 264.398438 263.742188 264.082031 C 260.375 266.511719 258.730469 269.101562 257.867188 270.746094 C 257.238281 272 255.988281 274.902344 256.144531 287.835938 C 256.144531 290.578125 256.222656 292.773438 256.300781 294.183594 C 261.15625 288.695312 266.09375 283.132812 270.949219 277.644531 C 278.078125 282.972656 285.207031 288.226562 292.417969 293.554688 C 299.152344 296.847656 305.8125 300.0625 312.550781 303.355469 C 306.675781 312.289062 300.796875 321.148438 294.84375 330.085938 C 267.660156 337.0625 233.109375 343.332031 192.921875 344.898438 C 147.480469 346.703125 108.546875 341.921875 78.699219 335.964844 C 73.449219 326.636719 68.277344 317.308594 63.027344 307.980469 C 69.453125 304.296875 77.835938 299.75 87.941406 294.890625 Z M 87.941406 294.890625 " fill-opacity="1" fill-rule="nonzero"/><path fill="#ffffff" d="M 60.601562 308.449219 C 60.445312 308.214844 60.445312 307.902344 60.445312 307.902344 C 60.445312 307.824219 60.445312 307.746094 60.445312 307.667969 C 56.371094 306.726562 53 303.433594 53.234375 298.886719 C 53.234375 298.652344 53.3125 298.496094 53.472656 298.339844 C 48.691406 297.476562 44.851562 294.652344 43.050781 290.109375 C 39.289062 285.5625 27.382812 271.058594 19.15625 256.480469 C 19.15625 256.480469 16.023438 250.992188 12.734375 240.410156 C 9.992188 231.789062 10.382812 229.4375 11.558594 228.574219 C 12.734375 227.710938 14.613281 228.496094 16.023438 229.042969 C 19.546875 230.457031 21.976562 232.964844 25.109375 237.433594 C 27.148438 240.332031 29.734375 244.328125 32.238281 249.347656 C 33.179688 248.640625 34.042969 247.9375 34.980469 247.308594 C 33.257812 244.722656 30.988281 240.960938 28.558594 236.179688 C 25.972656 231.082031 24.09375 227.398438 22.761719 222.304688 C 22.527344 221.441406 18.6875 206.078125 23.699219 203.414062 C 24.71875 202.863281 25.660156 203.019531 26.441406 203.175781 C 31.066406 203.804688 33.964844 209.054688 35.609375 212.191406 C 40.859375 222.148438 45.089844 231.789062 47.515625 237.589844 C 48.300781 237.433594 49.160156 237.195312 50.179688 236.804688 C 51.277344 236.414062 52.21875 235.863281 53 235.394531 C 50.101562 227.789062 47.75 220.890625 45.792969 214.933594 C 44.773438 211.878906 43.601562 207.957031 44.226562 202.941406 C 44.460938 201.53125 45.324219 195.101562 48.144531 194.398438 C 52.140625 193.457031 57.703125 204.195312 59.035156 206.78125 C 61.695312 211.878906 64.988281 220.109375 65.691406 231.632812 C 67.808594 232.335938 68.984375 232.101562 69.6875 231.632812 C 73.292969 229.59375 69.84375 221.519531 72.351562 208.898438 C 74.230469 199.570312 77.289062 197.925781 78.539062 197.535156 C 78.855469 197.375 80.34375 196.90625 81.675781 197.613281 C 84.574219 199.101562 84.101562 205.292969 83.945312 208.195312 C 83.632812 213.917969 83.945312 222.070312 86.375 232.964844 C 87 231.394531 87.941406 229.125 89.195312 226.457031 C 93.503906 217.128906 95.621094 215.328125 97.109375 214.386719 C 97.8125 213.917969 101.808594 211.328125 104.160156 212.820312 C 105.019531 213.367188 105.332031 214.230469 105.492188 214.699219 C 107.605469 220.421875 106.039062 227.164062 106.039062 227.164062 C 103.0625 239.707031 105.332031 235.316406 102.199219 246.917969 C 101.023438 251.386719 99.222656 257.265625 96.714844 264.082031 C 96.636719 265.414062 96.558594 266.90625 96.636719 268.550781 C 96.714844 270.433594 96.871094 272.078125 97.03125 273.566406 C 97.421875 274.585938 98.203125 276.234375 99.691406 277.722656 C 100.867188 278.976562 102.121094 279.839844 103.0625 280.308594 C 97.421875 287.050781 92.015625 291.753906 87.941406 294.890625 C 73.605469 305.863281 60.835938 308.84375 60.601562 308.449219 Z M 60.601562 308.449219 " fill-opacity="1" fill-rule="nonzero"/><path fill="#04383f" d="M 10.226562 239.3125 C 10.226562 239.3125 14.300781 254.207031 30.910156 276.390625 C 31.925781 277.800781 32.710938 278.742188 33.730469 279.839844 C 34.277344 280.464844 34.824219 281.09375 35.375 281.71875 C 35.375 281.71875 35.84375 282.269531 36.550781 283.054688 C 39.605469 286.738281 43.128906 293.714844 49.320312 296.847656 C 50.179688 297.320312 51.667969 297.945312 53.628906 298.339844 C 53.472656 298.496094 53.394531 298.652344 53.394531 298.886719 C 53.15625 303.433594 56.527344 306.648438 60.601562 307.667969 C 60.523438 307.902344 60.601562 308.136719 60.757812 308.449219 C 65.847656 317.542969 71.488281 326.402344 77.679688 334.789062 C 78.933594 336.433594 81.675781 334.710938 80.421875 333.140625 C 74.074219 325.144531 68.355469 316.835938 63.265625 307.980469 C 63.421875 307.980469 63.578125 307.980469 63.734375 307.980469 C 67.414062 307.824219 70.707031 306.175781 73.917969 304.609375 C 77.601562 302.804688 81.28125 300.925781 84.886719 298.886719 C 90.996094 295.359375 97.8125 290.890625 101.886719 284.933594 C 102.355469 284.230469 102.671875 283.601562 102.90625 282.972656 C 105.726562 287.757812 108.9375 292.300781 112.542969 296.457031 C 115.753906 300.21875 120.21875 305.785156 125.074219 307.351562 C 126.09375 307.667969 127.035156 306.410156 126.40625 305.550781 C 124.996094 303.511719 122.882812 302.257812 121.003906 300.613281 C 118.886719 298.808594 116.851562 296.925781 114.96875 294.890625 C 110.894531 290.65625 107.449219 285.953125 104.472656 280.859375 C 104.238281 280.386719 103.765625 280.230469 103.375 280.308594 C 103.140625 276.859375 99.851562 274.039062 98.125 270.433594 C 98.597656 268.707031 98.753906 266.828125 98.753906 264.867188 C 101.496094 259.535156 103.0625 253.109375 104.550781 247.386719 C 106.273438 240.882812 107.527344 234.21875 108.46875 227.554688 C 109.015625 223.246094 110.425781 217.523438 107.917969 213.523438 C 105.414062 209.449219 100.554688 210.074219 97.109375 212.582031 C 93.035156 215.5625 90.292969 220.34375 88.488281 224.890625 C 87.863281 226.457031 87.316406 228.027344 86.84375 229.59375 C 86.6875 221.988281 86.140625 214.308594 85.90625 206.703125 C 85.75 202.628906 85.199219 193.925781 78.933594 195.886719 C 73.996094 197.457031 71.960938 203.253906 71.253906 207.800781 C 70 215.328125 69.921875 223.007812 69.53125 230.613281 C 68.984375 229.75 68.042969 229.671875 67.257812 230.140625 C 65.378906 221.910156 63.96875 213.289062 60.679688 205.527344 C 58.796875 201.21875 54.019531 192.515625 48.300781 192.671875 C 41.875 192.832031 42.03125 202.472656 42.816406 206.625 C 44.695312 216.269531 48.144531 225.4375 51.511719 234.609375 C 50.652344 234.921875 49.867188 235.316406 49.003906 235.628906 C 49.003906 235.628906 49.003906 235.550781 49.003906 235.550781 C 45.558594 226.773438 41.640625 218.148438 37.097656 209.917969 C 34.433594 205.058594 28.636719 198.003906 22.605469 202.707031 C 17.121094 206.941406 19.078125 216.425781 21.035156 221.910156 C 24.25 230.691406 29.417969 238.765625 34.121094 246.761719 C 33.886719 246.996094 33.730469 247.230469 33.492188 247.464844 C 31.691406 243.546875 29.261719 239.941406 26.597656 236.570312 C 24.09375 233.433594 21.117188 229.59375 17.589844 227.632812 C 15.394531 226.457031 12.496094 226.066406 10.851562 228.261719 C 8.894531 230.21875 8.582031 233.199219 10.226562 239.3125 Z M 45.402344 237.273438 C 45.324219 237.355469 45.167969 237.355469 45.089844 237.433594 C 41.25 239.546875 37.878906 242.371094 34.902344 245.503906 C 31.691406 239.625 28.714844 233.511719 26.128906 227.398438 C 23.777344 221.910156 20.644531 214.386719 22.605469 208.351562 C 24.40625 202.628906 29.8125 205.449219 32.160156 209.132812 C 33.808594 211.800781 35.21875 214.621094 36.628906 217.445312 C 39.761719 223.636719 42.582031 230.0625 45.089844 236.570312 C 45.167969 236.882812 45.246094 237.117188 45.402344 237.273438 Z M 63.105469 231.867188 C 62.011719 231.945312 60.992188 231.945312 60.757812 232.023438 C 58.796875 232.335938 56.839844 232.730469 54.882812 233.355469 C 54.332031 233.511719 53.785156 233.667969 53.15625 233.90625 C 50.886719 227.320312 49.160156 220.65625 47.59375 213.835938 C 46.8125 210.625 45.949219 207.253906 45.636719 203.882812 C 45.402344 201.0625 45.871094 194.789062 49.945312 197.847656 C 54.566406 201.375 56.839844 207.019531 58.40625 212.503906 C 60.207031 218.777344 61.460938 225.28125 62.871094 231.632812 C 63.027344 231.632812 63.105469 231.710938 63.105469 231.867188 Z M 54.960938 298.574219 C 61.773438 299.277344 68.121094 296.066406 74.074219 293.085938 C 82.457031 288.851562 92.015625 283.210938 96.246094 274.742188 C 98.203125 277.644531 100.945312 280.074219 98.046875 283.757812 C 94.679688 287.992188 90.136719 291.285156 85.589844 294.183594 C 81.203125 297.003906 76.582031 299.4375 71.960938 301.789062 C 67.414062 304.140625 54.722656 308.921875 55.039062 298.964844 C 55.039062 298.808594 55.039062 298.730469 54.960938 298.574219 Z M 14.144531 231.316406 C 15.789062 230.535156 15.945312 230.925781 17.277344 232.023438 C 22.917969 236.804688 26.914062 243.074219 30.4375 249.425781 C 30.59375 249.738281 30.75 249.894531 30.988281 250.050781 C 30.4375 250.679688 29.96875 251.386719 29.5 252.089844 C 28.871094 253.03125 30.4375 254.207031 31.144531 253.265625 C 36.707031 245.820312 44.929688 240.410156 53.785156 237.511719 C 58.09375 236.097656 62.402344 236.179688 66.710938 235.238281 C 68.121094 234.921875 69.21875 234.140625 69.53125 233.121094 C 70 233.355469 70.707031 233.199219 70.785156 232.570312 C 71.488281 226.851562 72.351562 221.128906 72.976562 215.40625 C 73.449219 210.703125 73.527344 204.195312 77.050781 200.589844 C 78.539062 199.023438 80.34375 197.847656 81.832031 200.824219 C 82.378906 201.921875 82.300781 203.960938 82.378906 205.214844 C 82.535156 208.351562 82.535156 211.40625 82.613281 214.542969 C 82.769531 221.207031 82.613281 228.027344 83.085938 234.6875 C 83.164062 235.785156 84.023438 236.335938 84.886719 236.335938 C 84.496094 238.058594 83.945312 239.785156 82.929688 240.800781 C 81.125 242.449219 78.070312 242.839844 76.035156 244.410156 C 74.230469 245.820312 72.664062 247.464844 71.410156 249.347656 C 67.964844 254.519531 67.023438 260.871094 65.925781 266.828125 C 65.691406 268.238281 67.808594 268.863281 68.121094 267.375 C 69.296875 262.203125 70.550781 256.949219 73.527344 252.480469 C 74.9375 250.289062 76.738281 248.328125 78.933594 246.917969 C 80.890625 245.664062 82.847656 245.585938 84.808594 244.722656 C 88.019531 243.3125 88.175781 238.84375 89.039062 235.863281 C 90.214844 231.394531 91.546875 226.929688 93.738281 222.929688 C 94.835938 220.890625 96.167969 218.933594 97.890625 217.207031 C 99.378906 215.71875 100.085938 215.171875 102.355469 215.40625 C 104.707031 215.71875 104.785156 216.1875 105.019531 218.304688 C 105.570312 223.246094 104.082031 228.808594 103.21875 233.667969 C 102.277344 238.84375 101.101562 244.015625 99.613281 249.113281 C 98.359375 253.421875 96.558594 257.65625 95.304688 262.046875 C 95.070312 262.359375 94.914062 262.75 94.914062 263.222656 C 94.914062 263.222656 94.914062 263.300781 94.914062 263.300781 C 94.835938 263.613281 94.757812 263.847656 94.679688 264.160156 C 94.523438 264.789062 94.679688 265.257812 94.992188 265.730469 C 94.679688 276.78125 84.496094 283.835938 75.484375 288.773438 C 67.574219 293.085938 52.921875 300.769531 45.558594 292.066406 C 44.304688 289.871094 42.972656 287.835938 41.640625 285.71875 C 39.449219 282.503906 37.644531 280.230469 37.019531 279.445312 C 29.027344 269.335938 20.957031 254.914062 19 251.386719 C 19 251.386719 16.570312 247.621094 14.222656 240.175781 C 13.59375 238.136719 13.125 236.019531 12.96875 233.828125 C 12.734375 232.335938 12.496094 232.101562 14.144531 231.316406 Z M 14.144531 231.316406 " fill-opacity="1" fill-rule="nonzero"/><path fill="#d88098" d="M 246.039062 63.726562 C 292.257812 92.339844 299.546875 148.070312 300.796875 157.792969 C 301.660156 164.769531 308.554688 227.085938 264.605469 270.980469 C 214.230469 321.148438 119.59375 324.832031 91.074219 284.699219 C 85.277344 276.546875 78.777344 261.730469 82.769531 235.550781 C 79.011719 229.75 74.152344 221.050781 70.863281 209.605469 C 66.789062 195.496094 66.945312 184.050781 67.257812 173.9375 C 68.355469 136.550781 68.90625 117.816406 70.941406 111.621094 C 85.828125 64.746094 183.988281 25.242188 246.039062 63.726562 Z M 246.039062 63.726562 " fill-opacity="1" fill-rule="nonzero"/><g mask="url(#5d55b21b88)"><g transform="matrix(1, 0, 0, 1, 66, 47)"><g clip-path="url(#6a6ff714fa)"><g clip-path="url(#78f7babb3e)"><path fill="#ffffff" d="M 180.039062 16.726562 C 226.257812 45.339844 233.546875 101.070312 234.796875 110.792969 C 235.660156 117.769531 242.554688 180.085938 198.605469 223.980469 C 148.230469 274.148438 53.59375 277.832031 25.074219 237.699219 C 19.277344 229.546875 12.777344 214.730469 16.769531 188.550781 C 13.011719 182.75 8.152344 174.050781 4.863281 162.605469 C 0.789062 148.496094 0.945312 137.050781 1.257812 126.9375 C 2.355469 89.550781 2.90625 70.816406 4.941406 64.621094 C 19.828125 17.746094 117.988281 -21.757812 180.039062 16.726562 Z M 180.039062 16.726562 " fill-opacity="1" fill-rule="nonzero"/></g></g></g></g><path fill="#e69223" d="M 307.300781 181.933594 C 298.996094 240.019531 244.628906 274.429688 241.726562 272.234375 C 239.222656 270.277344 273.378906 237.117188 269.773438 192.28125 C 268.757812 179.503906 264.917969 168.84375 261 160.769531 C 254.339844 162.964844 243.53125 165.394531 230.445312 164.0625 C 207.101562 161.710938 191.667969 148.855469 186.183594 143.839844 C 186.730469 147.210938 187.125 152.773438 185.714844 159.28125 C 184.695312 164.0625 182.816406 171.117188 177.800781 173.234375 C 172.863281 175.273438 166.753906 172.292969 162.601562 169.628906 C 157.824219 166.492188 153.984375 162.023438 151.164062 157.164062 C 145.757812 147.835938 144.582031 137.253906 144.582031 126.671875 C 130.71875 140.546875 79.636719 189.851562 61.539062 177.9375 C 47.4375 168.6875 55.898438 123.773438 76.738281 93.828125 C 103.53125 55.339844 160.644531 24.222656 218.851562 41.9375 C 282.625 61.21875 314.980469 128.476562 307.300781 181.933594 Z M 307.300781 181.933594 " fill-opacity="1" fill-rule="nonzero"/><path fill="#04383f" d="M 264.683594 156.222656 C 263.898438 157.476562 263.117188 158.652344 262.175781 159.75 C 265.308594 163.042969 266.640625 169.472656 267.582031 173.15625 C 269.226562 180.132812 270.089844 187.34375 270.480469 194.476562 C 271.578125 212.582031 268.050781 229.515625 260.765625 245.976562 C 260.453125 246.679688 259.277344 246.132812 259.589844 245.425781 C 266.09375 229.984375 268.601562 212.503906 267.582031 195.808594 C 266.953125 184.757812 265.859375 171.746094 259.746094 162.257812 C 256.847656 164.925781 253.402344 166.804688 249.484375 167.980469 C 242.433594 170.019531 235.304688 168.453125 228.410156 166.414062 C 214.855469 162.339844 202.320312 155.988281 190.570312 148.226562 C 191.117188 160.925781 185.558594 178.40625 170.125 174.175781 C 162.835938 172.136719 157.117188 165.867188 152.964844 159.90625 C 148.1875 153.011719 145.289062 145.328125 143.644531 137.097656 C 143.410156 135.6875 145.601562 135.292969 145.835938 136.707031 C 148.265625 148.777344 155.863281 161.710938 166.597656 168.21875 C 173.023438 172.136719 179.996094 170.882812 183.285156 163.90625 C 186.027344 157.949219 186.886719 151.285156 186.339844 144.78125 C 186.183594 143.210938 187.90625 141.878906 189.316406 142.898438 C 200.050781 150.816406 212.113281 156.851562 224.726562 161.003906 C 231.152344 163.121094 238.28125 165.550781 245.175781 164.609375 C 251.914062 163.671875 257.789062 159.59375 261.550781 154.027344 C 262.882812 151.835938 265.9375 154.027344 264.683594 156.222656 Z M 132.988281 137.175781 C 122.960938 147.367188 111.601562 156.695312 99.691406 164.691406 C 87.628906 172.761719 72.585938 179.503906 58.25 173.390625 C 55.820312 172.371094 54.410156 176.210938 56.839844 177.230469 C 70.941406 183.1875 85.589844 177.703125 97.734375 169.941406 C 111.445312 161.164062 123.351562 150.421875 134.320312 138.429688 C 134.949219 137.644531 133.695312 136.46875 132.988281 137.175781 Z M 132.988281 137.175781 " fill-opacity="1" fill-rule="nonzero"/><path fill="#04383f" d="M 186.808594 309.703125 C 187.125 311.113281 186.339844 312.371094 184.929688 312.761719 C 184.851562 312.761719 184.851562 312.761719 184.773438 312.761719 C 167.222656 316.601562 150.851562 317.230469 136.121094 314.5625 C 107.683594 309.390625 85.828125 290.578125 80.578125 266.511719 C 79.089844 259.773438 78.777344 252.480469 79.558594 244.957031 C 79.636719 244.25 79.714844 243.546875 79.871094 242.839844 C 80.109375 241.273438 80.34375 239.785156 80.1875 238.371094 C 80.027344 236.414062 79.167969 234.921875 78.070312 233.121094 L 77.835938 232.652344 C 75.878906 229.359375 74.152344 225.988281 72.664062 222.539062 C 66.867188 209.214844 64.59375 194.789062 65.847656 179.660156 C 65.925781 178.722656 66.789062 178.015625 67.730469 178.015625 C 68.667969 178.09375 69.375 178.878906 69.296875 179.816406 C 68.511719 196.199219 72.351562 212.976562 80.265625 227.085938 C 80.734375 227.867188 81.203125 228.652344 81.753906 229.4375 C 82.929688 231.238281 84.179688 233.199219 84.730469 235.316406 C 85.433594 237.902344 85.042969 240.488281 84.652344 242.996094 C 84.574219 243.703125 84.417969 244.410156 84.339844 245.113281 C 83.476562 252.402344 83.867188 259.378906 85.433594 265.886719 C 88.332031 277.957031 95.933594 288.851562 106.824219 296.691406 C 125.46875 310.097656 149.832031 313.386719 183.441406 307.195312 C 185.242188 307.039062 186.496094 308.371094 186.808594 309.703125 Z M 186.808594 309.703125 " fill-opacity="1" fill-rule="nonzero"/><path fill="#04383f" d="M 307.613281 158.183594 C 308.476562 173.15625 309.101562 217.445312 279.488281 257.183594 C 265.386719 276.15625 249.09375 287.757812 238.4375 294.105469 C 206.710938 313.074219 176 314.878906 162.054688 314.800781 C 176.546875 311.429688 210.941406 301.394531 240.003906 270.199219 C 283.171875 223.792969 281.132812 166.257812 280.585938 155.046875 C 289.515625 156.144531 298.527344 157.164062 307.613281 158.183594 Z M 307.613281 158.183594 " fill-opacity="1" fill-rule="nonzero"/><path fill="#2a4c09" d="M 45.324219 170.648438 C 46.578125 168.058594 47.910156 165.472656 49.160156 162.886719 C 47.910156 154.265625 41.09375 99.472656 78.617188 57.066406 C 116.929688 13.640625 178.347656 10.816406 218.070312 24.847656 C 244.390625 34.097656 262.722656 51.421875 270.949219 59.339844 C 291.789062 79.40625 303.070312 100.570312 308.945312 114.050781 C 312.238281 114.367188 315.449219 114.679688 318.738281 114.992188 C 325.085938 156.378906 316.78125 186.402344 304.480469 189.222656 C 293.355469 191.8125 276.277344 172.683594 263.664062 145.25 C 247.367188 138.585938 198.5625 121.027344 139.648438 137.097656 C 94.128906 149.484375 65.144531 175.820312 52.375 189.066406 C 51.042969 188.046875 46.734375 184.679688 45.324219 178.5625 C 44.617188 175.191406 45.011719 172.292969 45.324219 170.648438 Z M 45.324219 170.648438 " fill-opacity="1" fill-rule="nonzero"/><path fill="#ffffff" d="M 186.105469 227.476562 C 186.417969 229.042969 183.128906 231.160156 180.464844 232.886719 C 178.664062 234.0625 174.902344 236.257812 161.664062 239.078125 C 152.886719 240.960938 150.144531 240.882812 147.558594 239.785156 C 145.445312 238.921875 144.035156 237.589844 143.171875 236.648438 C 149.519531 233.277344 155.941406 229.828125 162.289062 226.457031 C 180.542969 224.578125 185.714844 225.675781 186.105469 227.476562 Z M 186.105469 227.476562 " fill-opacity="1" fill-rule="nonzero"/><path fill="#d88098" d="M 153.042969 216.894531 C 153.359375 212.503906 158.292969 210.546875 161.582031 213.289062 C 162.914062 214.386719 160.957031 216.425781 159.703125 215.25 C 157.746094 213.523438 155.238281 214.699219 154.847656 217.128906 C 154.609375 218.148438 152.964844 217.914062 153.042969 216.894531 Z M 249.25 181.464844 C 242.199219 172.921875 228.722656 179.898438 227.46875 180.601562 C 225.667969 181.542969 220.574219 184.441406 218.148438 190.320312 C 217.128906 192.75 216.972656 194.789062 216.972656 195.261719 C 216.972656 195.261719 216.660156 199.886719 218.929688 203.804688 C 223.554688 211.722656 247.605469 210.46875 252.226562 197.296875 C 254.027344 191.890625 252.460938 185.304688 249.25 181.464844 Z M 88.175781 209.839844 C 83.789062 212.898438 82.929688 218.621094 82.769531 219.636719 C 82.144531 223.714844 82.769531 230.140625 86.609375 232.492188 C 87 232.730469 88.804688 233.828125 91.308594 234.609375 C 97.5 236.570312 102.433594 235.003906 104.160156 234.453125 C 109.878906 232.570312 115.203125 225.988281 114.578125 220.265625 C 113.480469 210.859375 96.480469 204.039062 88.175781 209.839844 Z M 88.175781 209.839844 " fill-opacity="1" fill-rule="nonzero"/><path fill="#04383f" d="M 186.183594 154.1875 C 196.523438 148.464844 211.019531 148.542969 222.535156 149.71875 C 232.953125 150.816406 243.765625 152.773438 251.050781 160.847656 C 251.914062 161.789062 250.269531 162.964844 249.40625 162.023438 C 245.878906 158.261719 240.476562 157.242188 235.617188 156.300781 C 230.605469 155.363281 225.433594 154.65625 220.261719 154.421875 C 214.855469 154.1875 209.292969 154.421875 203.96875 155.363281 C 198.5625 156.300781 193.703125 158.417969 188.535156 159.988281 C 184.539062 161.320312 182.65625 156.144531 186.183594 154.1875 Z M 128.445312 215.328125 C 100.007812 210.46875 78.855469 228.964844 69.0625 239.390625 C 71.410156 234.0625 73.761719 228.730469 76.113281 223.480469 C 72.742188 225.515625 69.375 227.554688 66.003906 229.515625 C 67.414062 223.792969 70.707031 214.464844 79.011719 207.722656 C 95.855469 193.925781 118.964844 202.316406 122.492188 203.570312 C 130.089844 206.3125 135.574219 210.308594 138.863281 213.054688 C 135.964844 212.898438 133.066406 212.660156 130.167969 212.503906 C 132.910156 214.308594 135.652344 216.109375 138.472656 217.914062 C 135.105469 216.738281 131.8125 215.875 128.445312 215.328125 Z M 179.210938 209.214844 C 180.855469 206.078125 182.5 203.019531 184.148438 199.886719 C 181.484375 201.609375 178.820312 203.335938 176.234375 205.058594 C 177.878906 200.824219 180.933594 194.242188 186.652344 187.65625 C 189.316406 184.601562 206.710938 164.691406 230.054688 168.375 C 241.570312 170.175781 249.640625 176.917969 253.949219 181.386719 C 249.71875 181.308594 245.410156 181.230469 241.179688 181.230469 C 246.195312 184.835938 251.285156 188.441406 256.300781 192.046875 C 241.492188 187.734375 211.566406 182.089844 187.203125 201.609375 C 184.226562 203.960938 181.5625 206.546875 179.210938 209.214844 Z M 100.945312 174.410156 C 95.855469 175.507812 90.683594 177.308594 86.140625 179.898438 C 77.523438 184.757812 69.765625 192.832031 67.179688 202.628906 C 67.101562 203.019531 67.574219 203.253906 67.808594 202.941406 C 73.839844 195.339844 80.027344 188.363281 88.804688 183.816406 C 92.957031 181.699219 97.34375 180.289062 101.964844 179.660156 C 104.316406 179.347656 106.742188 179.113281 109.09375 179.191406 C 111.367188 179.269531 113.480469 179.898438 115.753906 179.347656 C 118.574219 178.640625 118.496094 175.191406 116.144531 174.097656 C 112.070312 172.136719 105.253906 173.546875 100.945312 174.410156 Z M 100.945312 174.410156 " fill-opacity="1" fill-rule="nonzero"/><g mask="url(#82ef127a51)"><g transform="matrix(1, 0, 0, 1, 85, 172)"><g clip-path="url(#d32f1979c5)"><g clip-path="url(#cb5fbc666b)"><path fill="#ffffff" d="M 119.515625 11.34375 C 117.949219 7.113281 125.15625 4.449219 126.722656 8.757812 C 128.210938 12.992188 121.003906 15.578125 119.515625 11.34375 Z M 135.890625 1.234375 C 132.128906 1.703125 129.308594 4.527344 129.699219 7.503906 C 130.09375 10.484375 133.460938 12.519531 137.222656 12.050781 C 140.980469 11.582031 143.800781 8.757812 143.410156 5.78125 C 143.019531 2.800781 139.726562 0.761719 135.890625 1.234375 Z M 18.296875 36.117188 C 17.984375 31.570312 25.582031 31.019531 25.894531 35.566406 C 26.210938 40.113281 18.609375 40.660156 18.296875 36.117188 Z M 1.765625 40.347656 C 2.628906 43.25 6.308594 44.660156 9.992188 43.484375 C 13.675781 42.386719 15.867188 39.171875 15.007812 36.273438 C 14.144531 33.371094 10.460938 31.960938 6.78125 33.136719 C 3.097656 34.234375 0.828125 37.449219 1.765625 40.347656 Z M 1.765625 40.347656 " fill-opacity="1" fill-rule="nonzero"/></g></g></g></g><path fill="#04383f" d="M 319.367188 111.9375 C 317.171875 111.152344 314.195312 111.542969 311.296875 112.015625 C 302.757812 93.75 290.144531 77.132812 276.511719 62.394531 C 276.355469 62.238281 276.199219 62.160156 276.042969 62.238281 C 270.402344 56.359375 264.210938 50.949219 257.632812 46.089844 C 246.039062 37.546875 233.265625 30.648438 219.714844 25.789062 C 196.210938 17.402344 176.78125 16.539062 171.21875 16.460938 C 146.230469 15.992188 126.328125 22.261719 114.03125 27.277344 C 77.757812 48.679688 53.078125 85.910156 47.832031 127.847656 C 46.421875 139.058594 46.5 150.265625 47.988281 161.476562 C 47.753906 161.476562 47.515625 161.632812 47.359375 161.867188 C 45.089844 164.53125 43.441406 167.824219 42.738281 171.195312 C 42.660156 171.429688 42.738281 171.664062 42.894531 171.824219 C 42.894531 172.214844 42.972656 172.683594 43.050781 173.15625 C 43.601562 175.585938 45.167969 178.09375 46.105469 180.367188 C 47.4375 183.503906 48.769531 186.558594 50.101562 189.695312 C 50.335938 190.164062 50.652344 190.398438 51.042969 190.398438 C 51.121094 191.417969 52.765625 192.046875 53.550781 190.949219 C 80.5 152.382812 128.445312 137.410156 173.335938 134.433594 C 173.414062 134.433594 173.570312 134.433594 173.648438 134.355469 C 180.621094 134.039062 187.59375 133.335938 194.566406 133.414062 C 202.480469 133.492188 210.46875 134.039062 218.304688 135.058594 C 233.425781 137.097656 248.152344 141.015625 262.332031 146.347656 C 267.191406 157.320312 273.144531 168.058594 280.742188 177.386719 C 286.617188 184.601562 293.90625 190.636719 303.617188 190.949219 C 304.167969 190.949219 304.480469 190.636719 304.480469 190.164062 C 310.90625 188.519531 315.527344 182.011719 317.722656 176.132812 C 320.855469 167.746094 321.636719 158.183594 322.34375 149.324219 C 323.125 139.761719 323.046875 130.121094 322.265625 120.480469 C 322.265625 117.734375 322.578125 113.191406 319.367188 111.9375 Z M 64.4375 85.363281 C 64.832031 84.65625 65.222656 83.953125 65.613281 83.246094 C 72.976562 90.066406 81.832031 97.511719 92.5625 95.472656 C 96.949219 94.613281 100.945312 91.945312 103.21875 88.027344 C 105.804688 83.558594 105.019531 78.855469 103.375 74.308594 C 102.355469 71.332031 100.867188 68.117188 101.730469 64.902344 C 102.511719 61.925781 105.175781 59.808594 107.683594 58.320312 C 112.382812 55.496094 118.023438 54.085938 122.175781 50.324219 C 128.445312 44.679688 128.992188 34.488281 123.429688 28.296875 C 134.398438 24.769531 149.285156 21.476562 166.988281 21.320312 C 167.222656 21.320312 167.460938 21.320312 167.695312 21.320312 C 166.285156 26.023438 165.972656 31.277344 169.105469 35.351562 C 172.082031 39.191406 176.625 40.210938 181.089844 38.488281 C 187.359375 35.980469 191.511719 30.882812 198.796875 33.707031 C 200.753906 34.410156 202.398438 34.726562 204.359375 34.019531 C 205.847656 33.550781 207.023438 32.53125 208.042969 31.433594 C 208.746094 30.726562 209.6875 28.769531 210.546875 27.984375 C 210.78125 27.984375 211.019531 27.90625 211.175781 27.828125 C 212.351562 28.140625 213.523438 28.53125 214.699219 28.925781 C 240.945312 37.15625 264.292969 53.617188 282.074219 74.46875 C 286.695312 79.953125 290.925781 85.675781 294.765625 91.710938 C 286.148438 91.007812 277.609375 90.535156 268.992188 90.222656 C 268.992188 90.066406 268.914062 89.832031 268.835938 89.675781 C 264.210938 80.109375 258.335938 70.15625 247.605469 66.628906 C 242.746094 64.980469 238.359375 65.6875 233.582031 67.175781 C 228.019531 68.902344 224.257812 68.039062 219.792969 64.355469 C 213.839844 59.339844 208.433594 52.675781 199.816406 53.617188 C 190.648438 54.636719 181.953125 62.082031 176.546875 69.214844 C 170.28125 77.445312 166.753906 87.480469 166.519531 97.746094 C 142.46875 101.980469 118.652344 108.015625 95.933594 116.480469 C 92.484375 117.734375 89.117188 119.148438 85.75 120.558594 C 82.929688 116.402344 79.167969 113.269531 74.386719 111.621094 C 68.667969 109.742188 59.738281 112.484375 55.585938 107.390625 C 57.859375 99.785156 60.757812 92.417969 64.4375 85.363281 Z M 49.867188 144.699219 C 50.101562 144.699219 50.257812 144.621094 50.492188 144.464844 C 76.660156 124.789062 108.3125 114.992188 139.804688 107.625 C 172.863281 99.863281 206.789062 95.554688 240.789062 94.769531 C 259.746094 94.296875 278.628906 95.003906 297.507812 96.730469 C 297.664062 96.730469 297.742188 96.730469 297.898438 96.730469 C 300.640625 101.511719 303.148438 106.449219 305.34375 111.464844 C 269.539062 111.542969 233.816406 107.546875 198.089844 110.210938 C 163.464844 112.71875 128.914062 119.695312 96.792969 133.179688 C 80.109375 140.234375 64.910156 149.5625 50.492188 160.378906 C 49.945312 155.203125 49.789062 149.953125 49.867188 144.699219 Z M 316.230469 172.371094 C 315.371094 175.898438 314.039062 179.425781 312 182.484375 C 309.886719 185.695312 307.378906 187.5 304.246094 189.222656 C 304.089844 189.144531 303.933594 189.066406 303.699219 188.988281 C 294.609375 188.207031 287.558594 181.230469 282.386719 174.175781 C 286.148438 172.136719 288.265625 167.589844 287.792969 163.277344 C 287.480469 160.769531 286.304688 158.339844 284.503906 156.539062 C 282.703125 154.734375 280.429688 153.402344 281.132812 150.421875 C 281.527344 149.011719 282.386719 147.757812 282.703125 146.269531 C 283.796875 141.800781 280.820312 137.726562 276.511719 136.628906 C 270.871094 135.292969 265.9375 139.214844 262.175781 142.898438 C 262.097656 142.976562 262.019531 143.054688 261.941406 143.132812 C 247.996094 137.253906 233.425781 133.257812 218.460938 131.140625 C 203.890625 129.023438 187.828125 127.769531 173.179688 130.199219 C 150.617188 131.847656 127.738281 136.390625 107.058594 145.171875 C 104.785156 141.878906 101.023438 139.917969 96.949219 140.234375 C 92.09375 140.625 89.820312 144.230469 86.921875 147.601562 C 80.421875 155.203125 67.335938 157.792969 66.398438 169.3125 C 66.320312 170.097656 66.945312 170.488281 67.574219 170.488281 C 62.089844 175.664062 56.996094 181.464844 52.53125 187.8125 C 51.511719 185.539062 50.492188 183.265625 49.554688 180.992188 C 47.125 175.507812 46.261719 174.332031 46.339844 172.371094 C 46.421875 168.21875 50.101562 165.160156 51.667969 163.90625 C 86.0625 135.53125 130.089844 124.710938 142.625 122.046875 C 142.703125 122.125 142.703125 122.125 142.78125 122.203125 C 148.03125 125.496094 153.828125 128.945312 160.253906 128.238281 C 164.246094 127.847656 167.851562 125.730469 171.613281 124.398438 C 176.234375 122.753906 180.230469 123.378906 184.773438 124.949219 C 190.648438 126.90625 198.167969 129.652344 203.652344 125.183594 C 206.472656 122.832031 208.042969 118.753906 207.023438 115.382812 C 220.261719 114.914062 233.109375 114.992188 246.351562 114.992188 C 260.6875 115.070312 273.769531 115.382812 285.445312 115.933594 C 285.445312 115.933594 285.523438 116.011719 285.523438 116.011719 C 290.457031 120.714844 292.730469 127.378906 291.398438 134.039062 C 290.457031 138.664062 287.402344 143.605469 290.378906 148.226562 C 296.488281 157.792969 315.839844 142.664062 317.015625 156.773438 C 317.09375 157.871094 317.878906 158.496094 318.660156 158.730469 C 318.035156 163.433594 317.328125 167.980469 316.230469 172.371094 Z M 316.230469 172.371094 " fill-opacity="1" fill-rule="nonzero"/><path fill="#d88098" d="M 208.824219 230.535156 C 206.316406 230.769531 199.894531 231.789062 185.242188 241.351562 C 182.421875 243.234375 180.621094 244.410156 177.644531 245.269531 C 174.746094 246.054688 173.492188 245.742188 170.359375 246.445312 C 170.359375 246.445312 166.597656 247.386719 162.523438 249.816406 C 157.117188 253.03125 151.554688 262.125 149.285156 274.351562 C 162.835938 283.992188 178.976562 286.894531 190.414062 280.386719 C 200.675781 274.585938 204.671875 262.75 207.414062 254.519531 C 210.703125 244.644531 211.097656 235.941406 210.941406 230.457031 C 210.46875 230.457031 209.765625 230.457031 208.824219 230.535156 Z M 208.824219 230.535156 " fill-opacity="1" fill-rule="nonzero"/><path fill="#04383f" d="M 213.054688 215.171875 C 210.078125 213.601562 206.160156 220.34375 193.390625 221.832031 C 192.765625 221.910156 188.378906 221.910156 179.523438 221.988281 C 170.4375 222.070312 167.617188 222.148438 163.386719 223.007812 C 160.488281 223.558594 158.371094 224.5 153.4375 226.851562 C 139.570312 233.355469 132.675781 236.648438 131.265625 238.921875 C 125.15625 248.953125 136.121094 270.039062 151.632812 280.542969 C 155.082031 282.894531 167.929688 291.675781 182.1875 288.617188 C 214.855469 281.5625 221.28125 219.402344 213.054688 215.171875 Z M 152.339844 233.511719 C 153.042969 233.121094 153.75 232.652344 154.375 232.179688 C 154.769531 231.867188 155.238281 231.554688 155.628906 231.316406 C 157.824219 230.378906 160.015625 229.4375 162.210938 228.652344 C 162.367188 228.574219 162.445312 228.574219 162.601562 228.496094 C 167.773438 228.027344 173.414062 229.042969 178.035156 229.042969 C 179.914062 229.042969 181.71875 228.964844 183.597656 228.886719 C 178.664062 233.042969 172.238281 234.296875 165.972656 235.628906 C 160.171875 236.804688 151.949219 239.390625 146.308594 237.273438 C 148.34375 236.019531 150.378906 234.765625 152.339844 233.511719 Z M 204.671875 253.34375 C 201.148438 263.847656 194.488281 276.625 182.65625 280.859375 C 176.546875 283.054688 171.21875 282.582031 169.964844 282.425781 C 162.289062 281.5625 156.882812 277.410156 154.375 275.449219 C 152.496094 274.039062 151.164062 272.628906 150.222656 271.609375 C 150.222656 271.53125 150.300781 271.453125 150.300781 271.375 C 151.632812 264.632812 154.691406 258.441406 159.703125 253.738281 C 162.601562 250.992188 165.972656 248.875 169.886719 248.09375 C 173.335938 247.386719 176.859375 247.464844 180.230469 246.210938 C 185.949219 244.09375 185.398438 241.898438 195.191406 236.414062 C 197.621094 235.082031 201.148438 233.199219 205.925781 232.808594 C 207.023438 232.730469 207.960938 232.730469 208.589844 232.730469 C 208.433594 235.394531 208.042969 239 207.257812 243.152344 C 206.394531 248.015625 205.21875 251.777344 204.671875 253.34375 Z M 208.902344 229.515625 C 204.75 229.28125 200.207031 231.003906 196.757812 232.335938 C 193.9375 233.433594 191.355469 234.765625 188.925781 236.648438 C 185.558594 239.234375 182.5 242.371094 178.347656 243.625 C 174.589844 244.800781 170.515625 244.566406 166.832031 245.976562 C 163.464844 247.230469 160.488281 249.503906 158.058594 252.011719 C 153.199219 257.027344 150.222656 263.535156 149.128906 270.355469 C 146.855469 267.609375 143.800781 263.769531 140.507812 258.832031 C 136.671875 253.109375 131.5 245.269531 133.617188 242.761719 C 134.398438 241.820312 135.652344 242.371094 139.492188 240.722656 C 141.136719 240.019531 142.390625 239.3125 143.171875 238.84375 C 148.8125 242.917969 156.414062 240.960938 163.464844 239.785156 C 172.472656 238.292969 182.109375 237.039062 188.847656 230.0625 C 189.394531 229.4375 189.628906 228.808594 189.550781 228.183594 C 192.136719 227.867188 194.644531 227.398438 197.230469 226.691406 C 201.460938 225.597656 205.535156 223.949219 209.214844 221.753906 C 209.136719 224.421875 209.058594 226.929688 208.902344 229.515625 Z M 208.902344 229.515625 " fill-opacity="1" fill-rule="nonzero"/><path fill="#ffffff" d="M 274.003906 272.550781 C 274.398438 270.589844 275.808594 269.179688 276.746094 268.394531 C 276.984375 266.90625 277.21875 265.179688 277.296875 263.378906 C 277.375 261.730469 277.375 260.242188 277.296875 258.910156 C 274.945312 252.011719 273.300781 246.132812 272.203125 241.664062 C 269.304688 229.984375 271.5 234.375 268.835938 221.832031 C 268.835938 221.832031 267.425781 215.09375 269.695312 209.371094 C 269.933594 208.898438 270.246094 208.039062 271.105469 207.488281 C 273.457031 206.078125 277.453125 208.664062 278.15625 209.214844 C 279.644531 210.230469 281.683594 212.113281 285.757812 221.519531 C 286.933594 224.261719 287.871094 226.535156 288.421875 228.105469 C 291.085938 217.207031 291.554688 209.054688 291.476562 203.414062 C 291.398438 200.433594 291.085938 194.320312 293.984375 192.832031 C 295.316406 192.203125 296.804688 192.75 297.117188 192.832031 C 298.371094 193.300781 301.347656 194.945312 302.992188 204.351562 C 305.1875 217.050781 301.660156 224.96875 305.1875 227.164062 C 305.890625 227.632812 307.066406 227.949219 309.179688 227.242188 C 310.199219 215.71875 313.648438 207.566406 316.46875 202.550781 C 317.800781 200.042969 323.675781 189.460938 327.59375 190.480469 C 330.492188 191.183594 331.195312 197.613281 331.351562 199.101562 C 331.902344 204.117188 330.570312 208.039062 329.550781 211.09375 C 327.433594 217.050781 324.929688 223.871094 321.871094 231.394531 C 322.578125 231.867188 323.519531 232.414062 324.613281 232.886719 C 325.554688 233.277344 326.496094 233.511719 327.199219 233.667969 C 329.785156 227.949219 334.25 218.382812 339.734375 208.585938 C 341.457031 205.527344 344.4375 200.277344 349.136719 199.726562 C 349.917969 199.648438 350.9375 199.492188 351.878906 200.042969 C 356.8125 202.785156 352.582031 218.070312 352.347656 218.933594 C 350.9375 224.027344 348.902344 227.632812 346.238281 232.652344 C 343.730469 237.355469 341.300781 241.039062 339.5 243.625 C 340.363281 244.332031 341.300781 245.035156 342.164062 245.742188 C 344.75 240.722656 347.414062 236.804688 349.605469 233.984375 C 352.898438 229.59375 355.324219 227.164062 358.851562 225.832031 C 360.261719 225.28125 362.21875 224.578125 363.316406 225.4375 C 364.414062 226.300781 364.726562 228.730469 361.828125 237.273438 C 358.222656 247.699219 355.011719 253.1875 355.011719 253.1875 C 346.472656 267.609375 334.171875 281.796875 330.332031 286.265625 C 328.375 290.734375 324.457031 293.476562 319.679688 294.261719 C 319.835938 294.417969 319.914062 294.574219 319.914062 294.8125 C 320.070312 299.355469 316.546875 302.492188 312.472656 303.433594 C 312.472656 303.511719 312.550781 303.589844 312.472656 303.667969 C 311.53125 305 271.421875 285.089844 274.003906 272.550781 Z M 274.003906 272.550781 " fill-opacity="1" fill-rule="nonzero"/><path fill="#04383f" d="M 364.492188 225.203125 C 362.847656 222.929688 359.949219 223.242188 357.753906 224.421875 C 354.148438 226.300781 351.09375 230.0625 348.507812 233.121094 C 345.765625 236.414062 343.261719 240.019531 341.378906 243.859375 C 341.222656 243.625 340.988281 243.390625 340.753906 243.152344 C 345.609375 235.238281 351.015625 227.320312 354.386719 218.621094 C 356.5 213.210938 358.695312 203.726562 353.289062 199.335938 C 347.335938 194.476562 341.378906 201.453125 338.636719 206.234375 C 333.859375 214.386719 329.785156 222.851562 326.101562 231.554688 C 326.101562 231.554688 326.101562 231.632812 326.101562 231.632812 C 325.320312 231.238281 324.457031 230.847656 323.675781 230.535156 C 327.277344 221.441406 330.882812 212.269531 332.996094 202.707031 C 333.9375 198.550781 334.25 188.910156 327.90625 188.597656 C 322.1875 188.285156 317.171875 196.90625 315.214844 201.21875 C 311.6875 208.898438 310.121094 217.523438 308.007812 225.675781 C 307.222656 225.203125 306.28125 225.203125 305.734375 226.066406 C 305.5 218.460938 305.578125 210.78125 304.558594 203.253906 C 303.933594 198.632812 302.050781 192.832031 297.117188 191.183594 C 290.847656 189.066406 290.066406 197.769531 289.832031 201.84375 C 289.359375 209.449219 288.734375 217.050781 288.34375 224.734375 C 287.871094 223.164062 287.402344 221.597656 286.773438 220.03125 C 285.050781 215.484375 282.386719 210.546875 278.394531 207.566406 C 275.023438 204.980469 270.167969 204.273438 267.582031 208.273438 C 264.996094 212.191406 266.25 217.992188 266.71875 222.304688 C 267.425781 228.964844 268.601562 235.628906 270.167969 242.214844 C 271.5 247.9375 272.910156 254.441406 275.574219 259.851562 C 275.492188 261.808594 275.652344 263.613281 276.042969 265.414062 C 274.242188 269.023438 270.871094 271.6875 270.558594 275.214844 C 270.167969 275.136719 269.695312 275.292969 269.460938 275.761719 C 266.328125 280.78125 262.800781 285.40625 258.570312 289.558594 C 258.101562 290.03125 257.632812 290.5 257.082031 290.890625 C 256.691406 289.949219 256.222656 289.089844 256.066406 288.070312 C 255.828125 286.421875 256.066406 284.855469 256.535156 283.289062 C 256.847656 282.113281 255.046875 281.640625 254.734375 282.816406 C 253.871094 285.875 252.851562 290.03125 255.046875 292.773438 C 254.183594 293.558594 253.246094 294.339844 252.304688 295.046875 C 250.425781 296.613281 248.230469 297.867188 246.742188 299.828125 C 246.117188 300.691406 247.054688 302.023438 248.074219 301.707031 C 252.929688 300.21875 257.476562 294.734375 260.84375 291.125 C 264.605469 287.050781 267.894531 282.582031 270.792969 277.878906 C 271.027344 278.507812 271.34375 279.132812 271.8125 279.839844 C 275.730469 285.875 282.464844 290.5 288.5 294.183594 C 292.023438 296.300781 295.628906 298.261719 299.308594 300.21875 C 302.523438 301.867188 305.734375 303.589844 309.417969 303.824219 C 309.574219 303.824219 309.730469 303.824219 309.886719 303.824219 C 304.558594 312.527344 298.683594 320.757812 292.101562 328.59375 C 290.769531 330.164062 293.511719 331.964844 294.765625 330.320312 C 301.113281 322.089844 306.988281 313.386719 312.316406 304.375 C 312.472656 304.140625 312.472656 303.824219 312.472656 303.589844 C 316.546875 302.726562 320.070312 299.515625 319.914062 294.96875 C 319.914062 294.734375 319.835938 294.574219 319.679688 294.417969 C 321.636719 294.105469 323.125 293.476562 323.988281 293.085938 C 330.175781 290.109375 333.9375 283.210938 337.070312 279.605469 C 337.699219 278.820312 338.246094 278.269531 338.246094 278.269531 C 338.796875 277.644531 339.421875 277.09375 339.96875 276.46875 C 340.988281 275.371094 341.773438 274.429688 342.867188 273.019531 C 360.027344 251.226562 364.414062 236.414062 364.414062 236.414062 C 366.214844 230.140625 365.902344 227.164062 364.492188 225.203125 Z M 329.628906 232.652344 C 332.292969 226.222656 335.269531 219.875 338.558594 213.757812 C 340.046875 211.015625 341.457031 208.195312 343.261719 205.527344 C 345.6875 201.921875 351.09375 199.179688 352.816406 204.980469 C 354.621094 211.015625 351.25 218.460938 348.824219 223.949219 C 346.082031 230.0625 342.945312 236.097656 339.578125 241.820312 C 336.679688 238.609375 333.3125 235.707031 329.550781 233.511719 C 329.472656 233.433594 329.316406 233.433594 329.238281 233.355469 C 329.394531 233.121094 329.550781 232.964844 329.628906 232.652344 Z M 311.765625 227.164062 C 313.332031 220.8125 314.742188 214.386719 316.703125 208.195312 C 318.425781 202.785156 320.777344 197.140625 325.554688 193.769531 C 329.628906 190.792969 330.019531 197.0625 329.707031 199.886719 C 329.316406 203.175781 328.375 206.546875 327.511719 209.761719 C 325.789062 216.503906 323.988281 223.164062 321.480469 229.671875 C 320.933594 229.4375 320.382812 229.28125 319.835938 229.125 C 317.957031 228.496094 315.996094 228.027344 314.039062 227.710938 C 313.804688 227.632812 312.785156 227.632812 311.6875 227.476562 C 311.765625 227.398438 311.765625 227.242188 311.765625 227.164062 Z M 318.191406 294.734375 C 318.269531 304.6875 305.734375 299.671875 301.191406 297.164062 C 296.648438 294.652344 292.101562 292.144531 287.792969 289.246094 C 283.328125 286.265625 278.863281 282.816406 275.574219 278.507812 C 272.671875 274.742188 275.574219 272.472656 277.53125 269.570312 C 281.527344 278.113281 291.007812 283.992188 299.230469 288.382812 C 305.109375 291.519531 311.375 294.890625 318.191406 294.339844 C 318.191406 294.496094 318.191406 294.574219 318.191406 294.734375 Z M 361.90625 230.847656 C 361.671875 233.042969 361.199219 235.082031 360.496094 237.195312 C 357.988281 244.488281 355.480469 248.25 355.480469 248.25 C 353.367188 251.777344 344.984375 265.964844 336.757812 275.917969 C 336.132812 276.703125 334.25 278.898438 331.980469 282.113281 C 330.570312 284.148438 329.238281 286.1875 327.90625 288.304688 C 320.382812 296.769531 305.890625 288.773438 298.058594 284.308594 C 289.125 279.132812 279.097656 271.84375 279.097656 260.792969 C 279.410156 260.398438 279.566406 259.851562 279.488281 259.222656 C 279.410156 258.910156 279.332031 258.597656 279.253906 258.359375 C 279.253906 258.359375 279.253906 258.28125 279.253906 258.28125 C 279.332031 257.734375 279.175781 257.34375 278.941406 257.027344 C 277.765625 252.640625 276.042969 248.40625 274.945312 244.015625 C 273.613281 238.921875 272.515625 233.667969 271.734375 228.496094 C 270.949219 223.636719 269.695312 218.070312 270.324219 213.132812 C 270.636719 211.015625 270.636719 210.546875 272.988281 210.308594 C 275.257812 210.074219 275.964844 210.625 277.375 212.191406 C 279.019531 213.917969 280.273438 215.875 281.371094 217.992188 C 283.484375 222.066406 284.660156 226.613281 285.757812 231.082031 C 286.460938 234.0625 286.539062 238.53125 289.753906 240.019531 C 291.710938 240.960938 293.667969 241.117188 295.550781 242.371094 C 297.742188 243.78125 299.46875 245.898438 300.878906 248.09375 C 303.699219 252.640625 304.871094 257.890625 305.890625 263.0625 C 306.203125 264.476562 308.320312 264.003906 308.085938 262.515625 C 307.144531 256.480469 306.28125 250.128906 302.992188 244.878906 C 301.816406 242.917969 300.25 241.273438 298.527344 239.863281 C 296.488281 238.214844 293.511719 237.746094 291.710938 236.097656 C 290.691406 235.082031 290.144531 233.355469 289.832031 231.632812 C 290.691406 231.632812 291.554688 231.082031 291.632812 229.984375 C 292.179688 223.324219 292.179688 216.582031 292.574219 209.839844 C 292.730469 206.78125 292.808594 203.648438 293.042969 200.589844 C 293.121094 199.335938 293.042969 197.296875 293.667969 196.199219 C 295.238281 193.222656 296.960938 194.476562 298.449219 196.042969 C 301.894531 199.726562 301.816406 206.3125 302.207031 210.9375 C 302.679688 216.660156 303.382812 222.382812 304.011719 228.183594 C 304.089844 228.808594 304.792969 228.964844 305.265625 228.730469 C 305.578125 229.828125 306.597656 230.613281 308.085938 230.925781 C 312.394531 232.023438 316.703125 232.023438 321.011719 233.511719 C 329.785156 236.570312 337.855469 242.214844 343.261719 249.738281 C 343.964844 250.679688 345.53125 249.503906 344.90625 248.5625 C 344.433594 247.855469 343.964844 247.230469 343.417969 246.523438 C 343.652344 246.367188 343.808594 246.210938 343.964844 245.898438 C 347.648438 239.546875 351.722656 233.433594 357.519531 228.808594 C 358.851562 227.710938 359.007812 227.320312 360.652344 228.105469 C 362.296875 228.964844 362.0625 229.203125 361.90625 230.847656 Z M 361.90625 230.847656 " fill-opacity="1" fill-rule="nonzero"/><g clip-path="url(#3b275009e3)"><g clip-path="url(#b5fc2feb5e)"><path fill="url(#21f4dcf72c)" d="M 17.980469 10.738281 L 17.980469 365.042969 L 317.957031 365.042969 L 317.957031 10.738281 Z M 17.980469 10.738281 " fill-rule="nonzero"/></g></g><path fill="#04383f" d="M 277.921875 375 L 274.398438 335.726562 L 244 317.699219 L 277.0625 318.328125 L 290.925781 277.722656 L 295 319.972656 L 327.199219 329.535156 L 293.199219 337.375 Z M 261.628906 322.714844 L 278.785156 332.90625 L 280.820312 355.246094 L 289.675781 333.296875 L 308.632812 328.910156 L 290.535156 323.578125 L 288.265625 299.90625 L 280.351562 323.109375 Z M 30.988281 170.410156 L 36.628906 132.707031 L 9.285156 103.703125 L 43.757812 116.875 L 67.101562 84.109375 L 61.226562 124.789062 L 92.484375 146.113281 L 55.117188 140.859375 Z M 26.757812 115.464844 L 41.5625 131.140625 L 38.117188 154.265625 L 53.15625 135.921875 L 73.214844 138.742188 L 56.214844 127.0625 L 59.738281 102.527344 L 45.402344 122.519531 Z M 270.949219 114.289062 L 249.015625 72.195312 L 206.945312 66 L 244.078125 51.578125 L 240.867188 0 L 264.683594 45.152344 L 304.949219 40.996094 L 270.714844 65.296875 Z M 225.199219 63.964844 L 252.070312 67.882812 L 266.171875 94.925781 L 266.015625 62.867188 L 287.636719 47.503906 L 262.019531 50.167969 L 246.898438 21.554688 L 248.9375 54.714844 Z M 225.199219 63.964844 " fill-opacity="1" fill-rule="nonzero"/></svg>