<svg xmlns="http://www.w3.org/2000/svg" xmlns:xlink="http://www.w3.org/1999/xlink" width="500" zoomAndPan="magnify" viewBox="0 0 375 374.999991" height="500" preserveAspectRatio="xMidYMid meet" version="1.0"><defs><clipPath id="8bde9cc312"><path d="M 7.332031 34 L 22 34 L 22 48 L 7.332031 48 Z M 7.332031 34 " clip-rule="nonzero"/></clipPath></defs><path fill="#ffe35b" d="M 201.882812 27.96875 C 122.714844 30.664062 61.117188 95.289062 61.117188 171.160156 L 61.117188 176.949219 C 61.117188 221.394531 82.554688 278.289062 117.933594 315.515625 L 120.882812 339.972656 L 293.53125 339.972656 L 296.480469 315.515625 C 331.859375 278.296875 353.296875 221.402344 353.296875 176.957031 L 353.296875 167.8125 C 353.296875 88.832031 284.992188 25.140625 201.882812 27.96875 Z M 201.882812 27.96875 " fill-opacity="1" fill-rule="nonzero"/><path fill="#ffefa6" d="M 205.339844 27.914062 L 205.339844 74.359375 L 192.058594 74.359375 C 181.058594 74.359375 172.140625 83.277344 172.140625 94.277344 C 172.140625 105.28125 181.058594 114.199219 192.058594 114.199219 L 205.339844 114.199219 L 205.339844 200.523438 L 258.464844 200.523438 L 258.464844 193.882812 C 258.464844 182.882812 267.382812 173.964844 278.386719 173.964844 C 289.386719 173.964844 298.304688 182.882812 298.304688 193.882812 L 298.304688 200.523438 L 349.5625 200.523438 C 350.765625 192.417969 351.429688 184.5 351.429688 176.957031 L 351.429688 167.8125 C 351.429688 90.527344 286.023438 27.921875 205.339844 27.914062 Z M 205.339844 27.914062 " fill-opacity="1" fill-rule="nonzero"/><path fill="#ffefa6" d="M 218.621094 240.367188 L 205.339844 240.367188 L 205.339844 200.523438 L 158.859375 200.523438 L 158.859375 210.484375 C 158.859375 223.320312 148.453125 233.726562 135.617188 233.726562 C 122.78125 233.726562 112.375 223.320312 112.375 210.484375 L 112.375 200.523438 L 61.117188 200.523438 C 66.984375 240.167969 86.699219 284.613281 116.066406 315.515625 L 119.015625 339.972656 L 205.339844 339.972656 L 205.339844 280.207031 L 218.621094 280.207031 C 229.625 280.207031 238.542969 271.289062 238.542969 260.289062 C 238.542969 249.285156 229.625 240.367188 218.621094 240.367188 Z M 218.621094 240.367188 " fill-opacity="1" fill-rule="nonzero"/><path fill="#398ecc" d="M 137.484375 260.289062 L 164.042969 260.289062 C 173.214844 260.289062 180.644531 267.71875 180.644531 276.886719 C 180.644531 286.058594 173.214844 293.488281 164.042969 293.488281 L 160.722656 293.488281 L 160.722656 313.410156 L 140.804688 293.488281 L 137.484375 293.488281 C 128.3125 293.488281 120.882812 286.058594 120.882812 276.886719 C 120.882812 267.71875 128.3125 260.289062 137.484375 260.289062 Z M 137.484375 260.289062 " fill-opacity="1" fill-rule="nonzero"/><path fill="#ff6b6b" d="M 134.164062 107.558594 L 142 132.925781 L 167.363281 132.925781 L 146.847656 148.597656 L 154.683594 173.964844 L 134.164062 158.285156 L 113.644531 173.964844 L 121.480469 148.597656 L 100.960938 132.925781 L 126.328125 132.925781 Z M 134.164062 107.558594 " fill-opacity="1" fill-rule="nonzero"/><path fill="#ff6b6b" d="M 269.859375 92.851562 L 265.828125 97.046875 L 261.796875 92.851562 C 255.125 85.898438 244.300781 85.898438 237.625 92.851562 C 230.953125 99.804688 230.953125 111.070312 237.625 118.023438 L 265.828125 147.402344 L 294.023438 118.03125 C 300.695312 111.078125 300.695312 99.808594 294.023438 92.859375 C 287.355469 85.898438 276.53125 85.898438 269.859375 92.851562 Z M 269.859375 92.851562 " fill-opacity="1" fill-rule="nonzero"/><path fill="#c8cece" d="M 286.890625 339.972656 L 127.523438 339.972656 C 116.519531 339.972656 107.601562 348.890625 107.601562 359.894531 C 107.601562 370.894531 116.519531 379.8125 127.523438 379.8125 L 286.890625 379.8125 C 297.894531 379.8125 306.8125 370.894531 306.8125 359.894531 C 306.8125 348.890625 297.894531 339.972656 286.890625 339.972656 Z M 286.890625 339.972656 " fill-opacity="1" fill-rule="nonzero"/><path fill="#000000" d="M 201.65625 21.328125 C 120.496094 24.089844 54.480469 91.304688 54.480469 171.160156 L 54.480469 176.957031 C 54.480469 224.960938 77.367188 281.523438 111.605469 318.476562 L 113.863281 337.234375 C 106.167969 341.890625 100.960938 350.257812 100.960938 359.894531 C 100.960938 374.542969 112.875 386.453125 127.523438 386.453125 L 127.523438 393.09375 C 127.523438 407.742188 139.433594 419.65625 154.085938 419.65625 L 260.328125 419.65625 C 274.980469 419.65625 286.890625 407.742188 286.890625 393.09375 L 286.890625 386.453125 C 301.539062 386.453125 313.453125 374.542969 313.453125 359.894531 C 313.453125 350.257812 308.246094 341.890625 300.550781 337.230469 L 302.808594 318.46875 C 337.046875 281.515625 359.933594 224.960938 359.933594 176.957031 L 359.933594 167.8125 C 359.933594 128.855469 344.183594 92.179688 315.585938 64.535156 C 285.683594 35.632812 244.085938 19.898438 201.65625 21.328125 Z M 67.757812 171.160156 C 67.757812 98.894531 127.203125 38.046875 200.566406 34.734375 L 200.566406 67.71875 L 193.925781 67.71875 C 179.277344 67.71875 167.363281 79.628906 167.363281 94.277344 C 167.363281 108.925781 179.277344 120.839844 193.925781 120.839844 L 200.566406 120.839844 L 200.566406 193.882812 L 160.722656 193.882812 C 157.050781 193.882812 154.085938 196.859375 154.085938 200.523438 L 154.085938 210.484375 C 154.085938 219.636719 146.640625 227.085938 137.484375 227.085938 C 128.328125 227.085938 120.882812 219.636719 120.882812 210.484375 L 120.882812 200.523438 C 120.882812 196.859375 117.914062 193.882812 114.242188 193.882812 L 68.769531 193.882812 C 68.113281 188.125 67.757812 182.460938 67.757812 176.957031 Z M 124.527344 314.71875 C 124.355469 313.296875 123.730469 311.96875 122.742188 310.941406 C 97.367188 284.238281 78.050781 244.628906 70.855469 207.164062 L 107.601562 207.164062 L 107.601562 210.484375 C 107.601562 226.960938 121.007812 240.367188 137.484375 240.367188 C 153.957031 240.367188 167.363281 226.960938 167.363281 210.484375 L 167.363281 207.164062 L 200.566406 207.164062 L 200.566406 240.367188 C 200.566406 244.03125 203.535156 247.007812 207.207031 247.007812 L 220.488281 247.007812 C 227.8125 247.007812 233.769531 252.964844 233.769531 260.289062 C 233.769531 267.613281 227.8125 273.570312 220.488281 273.570312 L 207.207031 273.570312 C 203.535156 273.570312 200.566406 276.542969 200.566406 280.207031 L 200.566406 333.332031 L 127.523438 333.332031 C 127.269531 333.332031 127.03125 333.398438 126.777344 333.40625 Z M 273.609375 393.09375 C 273.609375 400.417969 267.65625 406.375 260.328125 406.375 L 154.085938 406.375 C 146.761719 406.375 140.804688 400.417969 140.804688 393.09375 L 140.804688 386.453125 L 273.609375 386.453125 Z M 286.890625 373.175781 L 127.523438 373.175781 C 120.199219 373.175781 114.242188 367.21875 114.242188 359.894531 C 114.242188 352.570312 120.199219 346.613281 127.523438 346.613281 L 286.890625 346.613281 C 294.214844 346.613281 300.171875 352.570312 300.171875 359.894531 C 300.171875 367.21875 294.214844 373.175781 286.890625 373.175781 Z M 291.671875 310.941406 C 290.691406 311.976562 290.066406 313.296875 289.886719 314.71875 L 287.636719 333.40625 C 287.382812 333.398438 287.144531 333.332031 286.890625 333.332031 L 213.847656 333.332031 L 213.847656 286.847656 L 220.488281 286.847656 C 235.136719 286.847656 247.050781 274.9375 247.050781 260.289062 C 247.050781 245.640625 235.136719 233.726562 220.488281 233.726562 L 213.847656 233.726562 L 213.847656 207.164062 L 260.328125 207.164062 C 264.003906 207.164062 266.96875 204.191406 266.96875 200.523438 L 266.96875 193.882812 C 266.96875 186.558594 272.925781 180.601562 280.25 180.601562 C 287.574219 180.601562 293.53125 186.558594 293.53125 193.882812 L 293.53125 200.523438 C 293.53125 204.191406 296.5 207.164062 300.171875 207.164062 L 343.554688 207.164062 C 336.363281 244.628906 317.046875 284.238281 291.671875 310.941406 Z M 346.65625 176.957031 C 346.65625 182.460938 346.304688 188.125 345.644531 193.882812 L 306.8125 193.882812 C 306.8125 179.234375 294.898438 167.324219 280.25 167.324219 C 265.601562 167.324219 253.691406 179.234375 253.691406 193.882812 L 213.847656 193.882812 L 213.847656 114.199219 C 213.847656 110.535156 210.878906 107.558594 207.207031 107.558594 L 193.925781 107.558594 C 186.601562 107.558594 180.644531 101.601562 180.644531 94.277344 C 180.644531 86.953125 186.601562 80.996094 193.925781 80.996094 L 207.207031 80.996094 C 210.878906 80.996094 213.847656 78.023438 213.847656 74.359375 L 213.847656 34.773438 C 248.875 36.316406 281.394531 49.960938 306.359375 74.078125 C 332.34375 99.199219 346.65625 132.480469 346.65625 167.808594 Z M 346.65625 176.957031 " fill-opacity="1" fill-rule="nonzero"/><path fill="#000000" d="M 281.949219 80.996094 C 281.945312 80.996094 281.945312 80.996094 281.949219 80.996094 C 275.910156 80.996094 270.222656 83.296875 265.828125 87.492188 C 256.785156 78.859375 241.589844 79.160156 232.839844 88.253906 C 223.742188 97.730469 223.742188 113.152344 232.839844 122.625 L 261.035156 151.996094 C 262.289062 153.304688 264.023438 154.042969 265.828125 154.042969 C 267.632812 154.042969 269.367188 153.304688 270.621094 151.996094 L 298.8125 122.625 C 307.921875 113.152344 307.921875 97.726562 298.816406 88.25 C 294.320312 83.574219 288.339844 80.996094 281.949219 80.996094 Z M 289.234375 113.429688 L 265.835938 137.8125 L 242.433594 113.429688 C 238.203125 109.019531 238.203125 101.855469 242.433594 97.445312 C 244.386719 95.402344 246.976562 94.277344 249.710938 94.277344 C 252.453125 94.277344 255.050781 95.402344 257.011719 97.453125 L 261.035156 101.648438 C 263.539062 104.265625 268.113281 104.265625 270.617188 101.648438 L 274.632812 97.460938 C 276.613281 95.40625 279.203125 94.277344 281.945312 94.277344 C 284.679688 94.277344 287.277344 95.40625 289.242188 97.453125 C 293.464844 101.855469 293.464844 109.027344 289.234375 113.429688 Z M 289.234375 113.429688 " fill-opacity="1" fill-rule="nonzero"/><path fill="#000000" d="M 138.054688 300.128906 L 156.03125 318.105469 C 157.296875 319.375 158.996094 320.050781 160.722656 320.050781 C 161.582031 320.050781 162.445312 319.886719 163.269531 319.546875 C 165.75 318.515625 167.363281 316.09375 167.363281 313.410156 L 167.363281 299.890625 C 178.613281 298.277344 187.285156 288.574219 187.285156 276.886719 C 187.285156 264.074219 176.859375 253.648438 164.042969 253.648438 L 137.484375 253.648438 C 124.667969 253.648438 114.242188 264.074219 114.242188 276.886719 C 114.242188 289.703125 124.667969 300.128906 137.484375 300.128906 Z M 127.523438 276.886719 C 127.523438 271.398438 131.992188 266.929688 137.484375 266.929688 L 164.042969 266.929688 C 169.535156 266.929688 174.003906 271.398438 174.003906 276.886719 C 174.003906 282.378906 169.535156 286.847656 164.042969 286.847656 L 160.722656 286.847656 C 157.050781 286.847656 154.085938 289.824219 154.085938 293.488281 L 154.085938 297.378906 L 145.5 288.792969 C 144.257812 287.546875 142.570312 286.847656 140.804688 286.847656 L 137.484375 286.847656 C 131.992188 286.847656 127.523438 282.378906 127.523438 276.886719 Z M 127.523438 276.886719 " fill-opacity="1" fill-rule="nonzero"/><path fill="#000000" d="M 113.769531 151.058594 L 107.304688 172.003906 C 106.445312 174.765625 107.476562 177.753906 109.847656 179.40625 C 112.214844 181.0625 115.382812 180.996094 117.683594 179.234375 L 134.164062 166.636719 L 150.644531 179.234375 C 151.832031 180.144531 153.261719 180.601562 154.683594 180.601562 C 156.011719 180.601562 157.332031 180.203125 158.480469 179.40625 C 160.84375 177.753906 161.878906 174.761719 161.023438 172.003906 L 154.554688 151.058594 L 171.394531 138.199219 C 173.660156 136.472656 174.570312 133.496094 173.652344 130.792969 C 172.738281 128.089844 170.214844 126.285156 167.363281 126.285156 L 146.898438 126.285156 L 140.503906 105.601562 C 139.648438 102.816406 137.070312 100.917969 134.164062 100.917969 C 131.253906 100.917969 128.679688 102.816406 127.820312 105.601562 L 121.425781 126.285156 L 100.960938 126.285156 C 98.113281 126.285156 95.582031 128.097656 94.671875 130.800781 C 93.761719 133.503906 94.667969 136.472656 96.929688 138.203125 Z M 126.320312 139.566406 C 129.230469 139.566406 131.804688 137.667969 132.664062 134.882812 L 134.164062 130.042969 L 135.664062 134.882812 C 136.519531 137.667969 139.097656 139.566406 142.003906 139.566406 L 147.734375 139.566406 L 142.816406 143.324219 C 140.605469 145.011719 139.679688 147.898438 140.503906 150.554688 L 142.203125 156.074219 L 138.195312 153.011719 C 137 152.101562 135.578125 151.644531 134.164062 151.644531 C 132.75 151.644531 131.320312 152.097656 130.132812 153.011719 L 126.121094 156.074219 L 127.820312 150.554688 C 128.644531 147.898438 127.722656 145.011719 125.511719 143.324219 L 120.589844 139.566406 Z M 126.320312 139.566406 " fill-opacity="1" fill-rule="nonzero"/><path fill="#000000" d="M 313.453125 240.367188 L 293.53125 240.367188 L 293.53125 220.445312 L 280.25 220.445312 L 280.25 240.367188 L 260.328125 240.367188 L 260.328125 253.648438 L 280.25 253.648438 L 280.25 273.570312 L 293.53125 273.570312 L 293.53125 253.648438 L 313.453125 253.648438 Z M 313.453125 240.367188 " fill-opacity="1" fill-rule="nonzero"/><path fill="#000000" d="M 21.277344 21.234375 L 34.558594 21.234375 L 34.558594 34.515625 L 21.277344 34.515625 Z M 21.277344 21.234375 " fill-opacity="1" fill-rule="nonzero"/><path fill="#000000" d="M 21.277344 47.796875 L 34.558594 47.796875 L 34.558594 61.078125 L 21.277344 61.078125 Z M 21.277344 47.796875 " fill-opacity="1" fill-rule="nonzero"/><path fill="#000000" d="M 34.558594 34.515625 L 47.839844 34.515625 L 47.839844 47.796875 L 34.558594 47.796875 Z M 34.558594 34.515625 " fill-opacity="1" fill-rule="nonzero"/><g clip-path="url(#8bde9cc312)"><path fill="#000000" d="M 7.996094 34.515625 L 21.277344 34.515625 L 21.277344 47.796875 L 7.996094 47.796875 Z M 7.996094 34.515625 " fill-opacity="1" fill-rule="nonzero"/></g><path fill="#000000" d="M 366.574219 34.515625 L 379.855469 34.515625 L 379.855469 47.796875 L 366.574219 47.796875 Z M 366.574219 34.515625 " fill-opacity="1" fill-rule="nonzero"/></svg>