<svg xmlns="http://www.w3.org/2000/svg" xmlns:xlink="http://www.w3.org/1999/xlink" width="500" zoomAndPan="magnify" viewBox="0 0 375 374.999991" height="500" preserveAspectRatio="xMidYMid meet" version="1.0"><defs><clipPath id="c4d2f43979"><path d="M 61 217.316406 L 314 217.316406 L 314 318.289062 L 61 318.289062 Z M 61 217.316406 " clip-rule="nonzero"/></clipPath><clipPath id="c6634d0e06"><path d="M 61 56.554688 L 314 56.554688 L 314 158 L 61 158 Z M 61 56.554688 " clip-rule="nonzero"/></clipPath><clipPath id="a3d02537cc"><path d="M 42.410156 149 L 332.660156 149 L 332.660156 226 L 42.410156 226 Z M 42.410156 149 " clip-rule="nonzero"/></clipPath></defs><path fill="#fbbccf" d="M 143.902344 153.417969 L 304.730469 153.417969 C 306.550781 153.417969 308.324219 153.621094 310.027344 154.007812 C 320.703125 156.414062 328.675781 165.949219 328.675781 177.34375 L 328.675781 197.507812 C 328.675781 208.898438 320.714844 218.425781 310.050781 220.84375 C 308.339844 221.230469 306.558594 221.433594 304.730469 221.433594 L 70.335938 221.433594 C 68.507812 221.433594 66.722656 221.230469 65.011719 220.84375 C 54.351562 218.421875 46.394531 208.894531 46.394531 197.507812 L 46.394531 177.34375 C 46.394531 165.949219 54.359375 156.417969 65.035156 154.007812 C 66.742188 153.621094 68.515625 153.417969 70.335938 153.417969 L 143.902344 153.417969 " fill-opacity="1" fill-rule="nonzero"/><path fill="#d4f3f6" d="M 284.445312 153.417969 L 143.902344 153.417969 C 143.765625 152.054688 143.625 150.453125 143.585938 149.132812 C 143.390625 142.742188 144.960938 135.699219 150.101562 131.890625 C 156.550781 127.101562 165.53125 129.265625 173.421875 130.757812 C 181.3125 132.257812 191.304688 131.90625 195.058594 124.804688 C 197.4375 120.292969 196.199219 114.707031 194.039062 110.078125 C 191.882812 105.453125 188.855469 101.175781 187.59375 96.230469 C 185.550781 88.246094 188.511719 79.644531 193.476562 73.070312 C 196.65625 68.863281 200.984375 65.035156 205.171875 61.757812 C 231.535156 65.421875 255.308594 77.167969 273.90625 94.417969 C 290.875 110.160156 303.527344 130.484375 309.898438 153.417969 C 309.898438 153.417969 309.960938 153.683594 310.027344 154.007812 C 308.324219 153.621094 306.550781 153.417969 304.730469 153.417969 L 284.445312 153.417969 " fill-opacity="1" fill-rule="nonzero"/><path fill="#a4d18f" d="M 310.050781 220.84375 C 309.96875 221.167969 309.898438 221.433594 309.898438 221.433594 C 304.476562 240.953125 294.503906 258.578125 281.195312 273.097656 C 280.734375 272.046875 280.132812 270.808594 279.679688 269.8125 C 276.277344 262.40625 272.09375 254.289062 274.597656 246.539062 C 276.035156 242.105469 279.460938 238.648438 282.777344 235.367188 C 288.269531 229.933594 294.449219 224.191406 301.515625 221.433594 L 304.730469 221.433594 C 306.558594 221.433594 308.339844 221.230469 310.050781 220.84375 " fill-opacity="1" fill-rule="nonzero"/><path fill="#d4f3f6" d="M 70.335938 221.433594 L 301.515625 221.433594 C 294.449219 224.191406 288.269531 229.933594 282.777344 235.367188 C 279.460938 238.648438 276.035156 242.105469 274.597656 246.539062 C 272.09375 254.289062 276.277344 262.40625 279.679688 269.8125 C 280.132812 270.808594 280.734375 272.046875 281.195312 273.097656 C 281.179688 273.113281 281.167969 273.132812 281.152344 273.148438 C 273.71875 281.25 265.25 288.378906 255.949219 294.335938 C 255.925781 294.351562 255.902344 294.363281 255.878906 294.378906 C 252.167969 292.789062 248.40625 290.398438 245.304688 287.988281 C 237.03125 281.574219 229.285156 273.492188 219.027344 271.398438 C 209.261719 269.402344 198.253906 273.148438 189.621094 268.171875 C 183.765625 264.796875 179.5625 257.671875 172.808594 257.5625 C 163.714844 257.410156 158.28125 270.277344 149.207031 269.738281 C 142.15625 269.3125 138.542969 261.265625 136.628906 254.472656 C 134.71875 247.683594 131.640625 239.578125 124.660156 238.496094 C 119.09375 237.632812 114.046875 242.003906 111 246.742188 C 107.953125 251.476562 105.890625 256.984375 101.71875 260.773438 C 98.273438 263.90625 93.324219 265.597656 88.941406 267.386719 C 78.089844 254.046875 69.898438 238.460938 65.171875 221.433594 C 65.171875 221.433594 65.113281 221.222656 65.011719 220.84375 C 66.722656 221.230469 68.507812 221.433594 70.335938 221.433594 " fill-opacity="1" fill-rule="nonzero"/><path fill="#a4d18f" d="M 245.304688 287.988281 C 248.40625 290.398438 252.167969 292.789062 255.878906 294.378906 C 236.148438 306.992188 212.695312 314.308594 187.535156 314.308594 C 147.777344 314.308594 112.28125 296.050781 89 267.464844 C 88.980469 267.4375 88.957031 267.414062 88.941406 267.386719 C 93.324219 265.597656 98.273438 263.90625 101.71875 260.773438 C 105.890625 256.984375 107.953125 251.476562 111 246.742188 C 114.046875 242.003906 119.09375 237.632812 124.660156 238.496094 C 131.640625 239.578125 134.71875 247.683594 136.628906 254.472656 C 138.542969 261.265625 142.15625 269.3125 149.207031 269.738281 C 158.28125 270.277344 163.714844 257.410156 172.808594 257.5625 C 179.5625 257.671875 183.765625 264.796875 189.621094 268.171875 C 198.253906 273.148438 209.261719 269.402344 219.027344 271.398438 C 229.285156 273.492188 237.03125 281.574219 245.304688 287.988281 " fill-opacity="1" fill-rule="nonzero"/><path fill="#a4d18f" d="M 205.132812 61.753906 C 205.144531 61.753906 205.160156 61.757812 205.171875 61.757812 C 200.984375 65.035156 196.65625 68.863281 193.476562 73.070312 C 188.511719 79.644531 185.550781 88.246094 187.59375 96.230469 C 188.855469 101.175781 191.882812 105.453125 194.039062 110.078125 C 196.199219 114.707031 197.4375 120.292969 195.058594 124.804688 C 191.304688 131.90625 181.3125 132.257812 173.421875 130.757812 C 165.53125 129.265625 156.550781 127.101562 150.101562 131.890625 C 144.960938 135.699219 143.390625 142.742188 143.585938 149.132812 C 143.625 150.453125 143.765625 152.054688 143.902344 153.417969 L 70.335938 153.417969 C 68.515625 153.417969 66.742188 153.621094 65.035156 154.007812 C 65.117188 153.644531 65.171875 153.417969 65.171875 153.417969 C 80.046875 99.855469 129.195312 60.542969 187.535156 60.542969 C 193.503906 60.542969 199.378906 60.957031 205.132812 61.753906 " fill-opacity="1" fill-rule="nonzero"/><path fill="#000000" d="M 143.882812 157.398438 C 141.859375 157.398438 140.128906 155.871094 139.921875 153.816406 C 139.746094 152.078125 139.648438 150.628906 139.605469 149.253906 C 139.441406 143.941406 140.28125 134.210938 147.726562 128.691406 C 155.15625 123.175781 164.832031 125.046875 172.605469 126.546875 C 173.128906 126.648438 173.648438 126.746094 174.160156 126.847656 C 177.425781 127.46875 188.324219 129.015625 191.535156 122.945312 C 193.433594 119.351562 191.65625 114.394531 190.429688 111.761719 C 189.761719 110.332031 189 108.929688 188.195312 107.441406 C 186.476562 104.273438 184.699219 100.996094 183.730469 97.214844 C 182.585938 92.734375 182.699219 87.96875 184.066406 83.054688 C 185.261719 78.765625 187.417969 74.484375 190.300781 70.671875 C 193.363281 66.613281 197.183594 62.898438 202.683594 58.628906 C 204.421875 57.28125 206.925781 57.597656 208.273438 59.332031 C 209.625 61.070312 209.308594 63.570312 207.570312 64.917969 C 202.648438 68.738281 199.285156 71.988281 196.660156 75.46875 C 191.855469 81.824219 189.910156 89.214844 191.453125 95.246094 C 192.171875 98.070312 193.644531 100.78125 195.199219 103.648438 C 196.027344 105.171875 196.882812 106.75 197.652344 108.398438 C 200.894531 115.351562 201.214844 121.667969 198.582031 126.664062 C 196.316406 130.945312 192.164062 133.796875 186.570312 134.910156 C 181.480469 135.925781 176.207031 135.339844 172.675781 134.667969 C 172.152344 134.570312 171.625 134.46875 171.089844 134.363281 C 164.210938 133.035156 157.089844 131.660156 152.476562 135.085938 C 147.769531 138.574219 147.476562 145.984375 147.566406 149.011719 C 147.605469 150.195312 147.695312 151.46875 147.851562 153.019531 C 148.070312 155.207031 146.472656 157.160156 144.285156 157.378906 C 144.148438 157.394531 144.015625 157.398438 143.882812 157.398438 " fill-opacity="1" fill-rule="nonzero"/><path fill="#000000" d="M 284.445312 157.398438 C 283.457031 157.398438 282.46875 157.035156 281.695312 156.300781 C 279.316406 154.03125 275.640625 152.917969 271.746094 151.734375 C 271.347656 151.613281 270.945312 151.492188 270.550781 151.367188 C 265.113281 149.691406 258.511719 146.949219 255.691406 140.605469 C 253.628906 135.96875 254.175781 130.078125 257.191406 124.445312 C 258.539062 121.929688 260.175781 119.710938 261.753906 117.566406 C 262.832031 116.101562 263.847656 114.722656 264.75 113.289062 C 268.207031 107.8125 270.042969 101.136719 269.917969 94.496094 C 269.878906 92.296875 271.628906 90.480469 273.828125 90.441406 C 276.035156 90.40625 277.84375 92.152344 277.886719 94.347656 C 278.039062 102.523438 275.769531 110.757812 271.492188 117.535156 C 270.4375 119.210938 269.285156 120.773438 268.171875 122.285156 C 266.691406 124.296875 265.292969 126.191406 264.214844 128.203125 C 263.339844 129.832031 261.46875 133.996094 262.976562 137.371094 C 264.492188 140.789062 269.074219 142.582031 272.898438 143.761719 C 273.285156 143.878906 273.671875 143.996094 274.0625 144.117188 C 278.460938 145.453125 283.449219 146.964844 287.195312 150.539062 C 288.789062 152.054688 288.847656 154.578125 287.328125 156.167969 C 286.546875 156.988281 285.496094 157.398438 284.445312 157.398438 " fill-opacity="1" fill-rule="nonzero"/><g clip-path="url(#c4d2f43979)"><path fill="#000000" d="M 187.535156 318.289062 C 177.472656 318.289062 167.449219 317.144531 157.734375 314.886719 C 148.292969 312.691406 139.078125 309.425781 130.347656 305.1875 C 121.777344 301.023438 113.636719 295.902344 106.152344 289.960938 C 98.714844 284.058594 91.90625 277.335938 85.910156 269.976562 C 74.4375 255.890625 66.167969 239.914062 61.332031 222.5 C 60.746094 220.378906 61.984375 218.1875 64.105469 217.597656 C 66.226562 217.011719 68.421875 218.25 69.011719 220.371094 C 73.550781 236.722656 81.316406 251.71875 92.089844 264.949219 C 115.578125 293.789062 150.367188 310.328125 187.535156 310.328125 C 211.121094 310.328125 234.035156 303.640625 253.800781 290.984375 C 262.78125 285.234375 270.996094 278.324219 278.214844 270.457031 C 291.289062 256.210938 300.914062 238.890625 306.058594 220.371094 C 306.644531 218.25 308.839844 217.011719 310.960938 217.597656 C 313.082031 218.1875 314.324219 220.378906 313.734375 222.5 C 308.257812 242.226562 298.003906 260.667969 284.089844 275.839844 C 276.402344 284.214844 267.65625 291.566406 258.097656 297.6875 C 237.046875 311.164062 212.648438 318.289062 187.535156 318.289062 " fill-opacity="1" fill-rule="nonzero"/></g><g clip-path="url(#c6634d0e06)"><path fill="#000000" d="M 65.171875 157.402344 C 64.820312 157.402344 64.460938 157.355469 64.105469 157.253906 C 61.984375 156.667969 60.746094 154.472656 61.332031 152.355469 C 65.121094 138.714844 71.085938 125.835938 79.066406 114.078125 C 86.921875 102.5 96.527344 92.292969 107.621094 83.742188 C 118.832031 75.101562 131.269531 68.378906 144.589844 63.761719 C 158.367188 58.984375 172.816406 56.5625 187.535156 56.5625 C 193.597656 56.5625 199.703125 56.980469 205.679688 57.808594 C 219.050781 59.664062 232 63.5625 244.160156 69.398438 C 256.019531 75.085938 266.9375 82.527344 276.617188 91.5 C 294.433594 108.03125 307.269531 129.074219 313.734375 152.355469 C 314.324219 154.472656 313.082031 156.667969 310.960938 157.253906 C 308.839844 157.84375 306.644531 156.601562 306.058594 154.484375 C 299.988281 132.625 287.933594 112.863281 271.195312 97.335938 C 252.617188 80.101562 229.582031 69.160156 204.585938 65.695312 C 198.96875 64.917969 193.234375 64.523438 187.535156 64.523438 C 132.457031 64.523438 83.71875 101.515625 69.011719 154.484375 C 68.519531 156.246094 66.917969 157.402344 65.171875 157.402344 " fill-opacity="1" fill-rule="nonzero"/></g><path fill="#000000" d="M 255.949219 298.316406 C 255.433594 298.316406 254.914062 298.21875 254.414062 298.007812 C 250.542969 296.394531 246.65625 294.082031 242.859375 291.132812 C 241.097656 289.769531 239.355469 288.324219 237.667969 286.929688 C 231.351562 281.699219 225.386719 276.757812 218.230469 275.296875 C 214.800781 274.597656 211.078125 274.699219 207.140625 274.808594 C 200.585938 274.992188 193.8125 275.179688 187.628906 271.617188 C 185.160156 270.199219 183.085938 268.332031 181.082031 266.53125 C 178.125 263.878906 175.574219 261.585938 172.738281 261.539062 C 172.710938 261.539062 172.683594 261.539062 172.65625 261.539062 C 169.710938 261.539062 166.804688 264.046875 163.730469 266.699219 C 159.722656 270.160156 155.175781 274.078125 148.96875 273.710938 C 145.910156 273.527344 141.476562 272.171875 137.722656 266.765625 C 135.75 263.925781 134.089844 260.152344 132.796875 255.554688 C 130.402344 247.046875 127.707031 243 124.050781 242.429688 C 120.335938 241.855469 116.605469 245.390625 114.355469 248.894531 C 113.464844 250.277344 112.65625 251.746094 111.800781 253.300781 C 109.804688 256.925781 107.742188 260.679688 104.402344 263.71875 C 100.808594 266.984375 96.519531 268.714844 92.375 270.386719 C 91.757812 270.636719 91.140625 270.886719 90.527344 271.140625 C 88.496094 271.984375 86.164062 271.019531 85.320312 268.988281 C 84.480469 266.957031 85.445312 264.628906 87.476562 263.785156 C 88.113281 263.523438 88.75 263.265625 89.390625 263.007812 C 93.046875 261.53125 96.5 260.132812 99.039062 257.828125 C 101.398438 255.683594 103.058594 252.664062 104.816406 249.464844 C 105.699219 247.859375 106.613281 246.199219 107.652344 244.585938 C 112.320312 237.324219 118.910156 233.574219 125.273438 234.5625 C 129.578125 235.230469 133.160156 237.8125 135.925781 242.234375 C 138.183594 245.851562 139.539062 250.097656 140.464844 253.398438 C 142.011719 258.882812 144.824219 265.484375 149.445312 265.761719 C 152.421875 265.941406 155.25 263.496094 158.523438 260.671875 C 162.433594 257.304688 166.867188 253.476562 172.871094 253.578125 C 178.683594 253.675781 182.785156 257.359375 186.40625 260.609375 C 188.183594 262.207031 189.863281 263.714844 191.609375 264.71875 C 195.839844 267.160156 201.222656 267.007812 206.917969 266.851562 C 211.136719 266.734375 215.496094 266.613281 219.824219 267.496094 C 228.9375 269.359375 235.957031 275.171875 242.75 280.796875 C 244.390625 282.15625 246.082031 283.558594 247.746094 284.84375 C 250.941406 287.324219 254.3125 289.335938 257.484375 290.664062 C 259.515625 291.511719 260.472656 293.84375 259.625 295.871094 C 258.988281 297.394531 257.503906 298.316406 255.949219 298.316406 " fill-opacity="1" fill-rule="nonzero"/><path fill="#000000" d="M 281.152344 277.128906 C 279.597656 277.128906 278.125 276.214844 277.480469 274.699219 C 277.050781 273.679688 276.582031 272.625 276.054688 271.460938 C 275.839844 270.992188 275.617188 270.511719 275.390625 270.03125 C 271.921875 262.535156 267.988281 254.046875 270.808594 245.316406 C 272.574219 239.859375 276.675781 235.800781 279.972656 232.539062 C 286.199219 226.378906 292.417969 220.613281 300.0625 217.710938 C 302.121094 216.933594 304.421875 217.964844 305.203125 220.023438 C 305.984375 222.078125 304.949219 224.375 302.890625 225.15625 C 296.695312 227.503906 291.382812 232.453125 285.578125 238.195312 C 282.757812 240.988281 279.558594 244.152344 278.390625 247.765625 C 276.527344 253.527344 279.625 260.214844 282.621094 266.683594 C 282.851562 267.175781 283.074219 267.664062 283.300781 268.148438 C 283.863281 269.386719 284.359375 270.511719 284.820312 271.59375 C 285.675781 273.617188 284.726562 275.953125 282.703125 276.8125 C 282.195312 277.023438 281.667969 277.128906 281.152344 277.128906 " fill-opacity="1" fill-rule="nonzero"/><path fill="#000000" d="M 197.519531 207.265625 C 195.777344 207.265625 194.238281 206.136719 193.71875 204.480469 L 187.535156 184.835938 L 181.351562 204.480469 C 180.828125 206.136719 179.289062 207.265625 177.550781 207.265625 C 175.808594 207.265625 174.273438 206.136719 173.75 204.480469 L 163.765625 172.761719 C 163.105469 170.664062 164.273438 168.429688 166.371094 167.769531 C 168.46875 167.109375 170.707031 168.277344 171.367188 170.371094 L 177.550781 190.019531 L 183.734375 170.371094 C 184.253906 168.714844 185.792969 167.585938 187.535156 167.585938 C 189.273438 167.585938 190.8125 168.714844 191.335938 170.371094 L 197.519531 190.019531 L 203.703125 170.371094 C 204.363281 168.277344 206.597656 167.109375 208.699219 167.769531 C 210.796875 168.429688 211.960938 170.664062 211.300781 172.761719 L 201.316406 204.480469 C 200.796875 206.136719 199.257812 207.265625 197.519531 207.265625 " fill-opacity="1" fill-rule="nonzero"/><path fill="#000000" d="M 139.902344 207.265625 C 138.164062 207.265625 136.625 206.136719 136.101562 204.480469 L 129.917969 184.835938 L 123.734375 204.480469 C 123.214844 206.136719 121.675781 207.265625 119.933594 207.265625 C 118.195312 207.265625 116.65625 206.136719 116.136719 204.480469 L 106.152344 172.761719 C 105.492188 170.664062 106.65625 168.429688 108.753906 167.769531 C 110.855469 167.109375 113.089844 168.277344 113.75 170.371094 L 119.933594 190.019531 L 126.117188 170.371094 C 126.640625 168.714844 128.179688 167.585938 129.917969 167.585938 C 131.660156 167.585938 133.199219 168.714844 133.71875 170.371094 L 139.902344 190.019531 L 146.085938 170.371094 C 146.746094 168.277344 148.984375 167.109375 151.082031 167.769531 C 153.179688 168.429688 154.347656 170.664062 153.6875 172.761719 L 143.703125 204.480469 C 143.179688 206.136719 141.644531 207.265625 139.902344 207.265625 " fill-opacity="1" fill-rule="nonzero"/><path fill="#000000" d="M 255.132812 207.265625 C 253.390625 207.265625 251.855469 206.136719 251.332031 204.480469 L 245.148438 184.835938 L 238.964844 204.480469 C 238.445312 206.136719 236.90625 207.265625 235.164062 207.265625 C 233.425781 207.265625 231.886719 206.136719 231.363281 204.480469 L 221.382812 172.761719 C 220.722656 170.664062 221.886719 168.429688 223.984375 167.769531 C 226.085938 167.109375 228.320312 168.277344 228.980469 170.371094 L 235.164062 190.019531 L 241.347656 170.371094 C 241.871094 168.714844 243.410156 167.585938 245.148438 167.585938 C 246.890625 167.585938 248.425781 168.714844 248.949219 170.371094 L 255.132812 190.019531 L 261.316406 170.371094 C 261.976562 168.277344 264.214844 167.109375 266.3125 167.769531 C 268.410156 168.429688 269.578125 170.664062 268.917969 172.761719 L 258.933594 204.480469 C 258.414062 206.136719 256.875 207.265625 255.132812 207.265625 " fill-opacity="1" fill-rule="nonzero"/><g clip-path="url(#a3d02537cc)"><path fill="#000000" d="M 70.335938 157.398438 C 59.328125 157.398438 50.375 166.347656 50.375 177.34375 L 50.375 197.511719 C 50.375 208.507812 59.328125 217.453125 70.335938 217.453125 L 304.730469 217.453125 C 315.738281 217.453125 324.691406 208.507812 324.691406 197.511719 L 324.691406 177.34375 C 324.691406 166.347656 315.738281 157.398438 304.730469 157.398438 Z M 304.730469 225.414062 L 70.335938 225.414062 C 54.9375 225.414062 42.410156 212.898438 42.410156 197.511719 L 42.410156 177.34375 C 42.410156 161.957031 54.9375 149.4375 70.335938 149.4375 L 304.730469 149.4375 C 320.132812 149.4375 332.660156 161.957031 332.660156 177.34375 L 332.660156 197.511719 C 332.660156 212.898438 320.132812 225.414062 304.730469 225.414062 " fill-opacity="1" fill-rule="nonzero"/></g></svg>