<svg xmlns="http://www.w3.org/2000/svg" xmlns:xlink="http://www.w3.org/1999/xlink" width="500" zoomAndPan="magnify" viewBox="0 0 375 374.999991" height="500" preserveAspectRatio="xMidYMid meet" version="1.0"><path fill="#626262" d="M 330.574219 208.835938 C 330.574219 208.835938 220.046875 42.492188 214.074219 33.609375 C 213.796875 32.277344 201.929688 15.542969 197 8.179688 C 194.679688 4.726562 185.585938 0.273438 180.066406 8.660156 C 135.96875 75.804688 87.535156 139.984375 43.71875 207.355469 C 40.105469 212.902344 46.078125 218.558594 54.980469 218.453125 C 78.976562 218.144531 102.972656 221.984375 126.890625 223.785156 L 126.890625 365.140625 C 126.847656 366.207031 127.070312 367.21875 127.5625 368.167969 C 128.050781 369.117188 128.742188 369.886719 129.636719 370.472656 C 129.847656 371.097656 130.148438 371.671875 130.546875 372.195312 C 130.941406 372.722656 131.410156 373.171875 131.953125 373.542969 C 132.496094 373.917969 133.082031 374.195312 133.714844 374.375 C 134.347656 374.558594 134.992188 374.636719 135.648438 374.609375 L 245.644531 374.609375 C 250.976562 374.609375 253.003906 369.433594 251.695312 365.539062 L 252.789062 219.664062 L 320.964844 217.652344 C 326.335938 221.105469 334.816406 215.183594 330.574219 208.835938 Z M 275.226562 150.347656 L 140.222656 306.851562 L 140.222656 281.515625 C 141.128906 281.550781 141.996094 281.375 142.820312 280.988281 C 143.644531 280.601562 144.332031 280.046875 144.886719 279.328125 L 265.960938 136.640625 Z M 258.320312 125.199219 C 258.015625 125.445312 257.734375 125.722656 257.480469 126.023438 L 140.167969 264.191406 L 140.167969 226.464844 C 140.71875 226.675781 141.289062 226.789062 141.882812 226.808594 C 142.472656 226.828125 143.046875 226.75 143.613281 226.578125 C 144.175781 226.40625 144.699219 226.144531 145.175781 225.800781 C 145.65625 225.453125 146.066406 225.039062 146.40625 224.558594 L 244.308594 104.488281 Z M 188.597656 19.542969 L 198.8125 34.757812 C 162.632812 82.183594 124.171875 127.675781 83.429688 171.246094 C 117.53125 120.054688 152.589844 69.503906 188.597656 19.59375 Z M 99.28125 208.34375 C 89.042969 207.597656 78.824219 206.839844 68.621094 206.074219 C 117.460938 155.789062 163.230469 102.847656 205.929688 47.253906 L 214.835938 60.496094 C 214.035156 60.695312 213.300781 61.035156 212.625 61.511719 C 211.953125 61.988281 211.386719 62.570312 210.929688 63.253906 C 176.753906 112.113281 140.136719 159.0625 101.066406 204.101562 C 99.964844 205.320312 99.390625 206.753906 99.347656 208.394531 Z M 132.847656 210.824219 L 113.933594 209.488281 C 152.1875 165.117188 188.121094 118.929688 221.726562 70.9375 L 236.550781 92.992188 L 138.035156 213.878906 C 137.46875 212.996094 136.734375 212.292969 135.832031 211.765625 C 134.933594 211.234375 133.960938 210.941406 132.914062 210.875 Z M 179.507812 361.140625 L 153.792969 361.140625 L 239.109375 263.953125 L 238.976562 297.582031 C 237.652344 297.882812 236.542969 298.550781 235.660156 299.582031 Z M 238.671875 315.800781 L 238.539062 332.722656 C 237.472656 332.722656 213.023438 356.726562 214.25 361.113281 L 197.652344 361.113281 Z M 230.3125 361.140625 L 238.40625 350.75 L 238.324219 361.140625 Z M 261.746094 203.78125 C 260.953125 204.386719 260.3125 205.121094 259.828125 205.996094 L 247.484375 206.355469 C 247.078125 206.359375 246.675781 206.402344 246.28125 206.480469 C 245.882812 206.558594 245.496094 206.671875 245.121094 206.824219 C 244.746094 206.976562 244.390625 207.160156 244.050781 207.378906 C 243.710938 207.597656 243.390625 207.847656 243.097656 208.125 C 242.804688 208.402344 242.539062 208.707031 242.304688 209.035156 C 242.066406 209.363281 241.863281 209.710938 241.691406 210.078125 C 241.519531 210.445312 241.382812 210.824219 241.285156 211.214844 C 241.183594 211.609375 241.121094 212.007812 241.097656 212.410156 C 240.558594 213.019531 240.148438 213.703125 239.875 214.46875 C 239.601562 215.234375 239.480469 216.023438 239.511719 216.835938 L 239.3125 243.628906 L 140.222656 356.433594 L 140.222656 326.878906 C 140.667969 326.554688 141.074219 326.179688 141.433594 325.761719 L 282.96875 161.84375 L 290.808594 173.511719 C 282.683594 185.074219 273.035156 195.179688 261.855469 203.824219 Z M 280.304688 205.4375 C 287.011719 199.226562 293.140625 192.484375 298.6875 185.21875 L 311.660156 204.515625 Z M 280.304688 205.4375 " fill-opacity="1" fill-rule="nonzero"/></svg>