<svg xmlns="http://www.w3.org/2000/svg" xmlns:xlink="http://www.w3.org/1999/xlink" width="500" zoomAndPan="magnify" viewBox="0 0 375 374.999991" height="500" preserveAspectRatio="xMidYMid meet" version="1.0"><defs><clipPath id="0a7380428c"><path d="M 55.019531 54.796875 L 319.769531 54.796875 L 319.769531 320.296875 L 55.019531 320.296875 Z M 55.019531 54.796875 " clip-rule="nonzero"/></clipPath></defs><g clip-path="url(#0a7380428c)"><path fill="#000000" d="M 220.613281 154.636719 C 199.960938 133.984375 190.339844 102.265625 190.339844 54.808594 L 185.132812 54.808594 C 185.132812 102.265625 175.511719 133.984375 154.859375 154.636719 C 134.207031 175.292969 102.484375 184.910156 55.03125 184.910156 L 55.03125 190.121094 C 102.484375 190.121094 134.207031 199.742188 154.859375 220.394531 C 175.511719 241.046875 185.132812 272.765625 185.132812 320.222656 L 190.339844 320.222656 C 190.339844 272.765625 199.960938 241.046875 220.613281 220.394531 C 241.269531 199.742188 272.988281 190.121094 320.445312 190.121094 L 320.445312 184.910156 C 272.988281 184.910156 241.269531 175.292969 220.613281 154.636719 Z M 220.613281 154.636719 " fill-opacity="1" fill-rule="nonzero"/></g></svg>