<svg xmlns="http://www.w3.org/2000/svg" xmlns:xlink="http://www.w3.org/1999/xlink" width="500" zoomAndPan="magnify" viewBox="0 0 375 374.999991" height="500" preserveAspectRatio="xMidYMid meet" version="1.0"><defs><clipPath id="8903ae1fed"><path d="M 11 68.523438 L 368.453125 68.523438 L 368.453125 306.273438 L 11 306.273438 Z M 11 68.523438 " clip-rule="nonzero"/></clipPath><clipPath id="66a44c0f11"><path d="M 6.203125 78 L 365 78 L 365 303 L 6.203125 303 Z M 6.203125 78 " clip-rule="nonzero"/></clipPath></defs><g clip-path="url(#8903ae1fed)"><path fill="#848282" d="M 187.257812 78.808594 C 187.914062 78.808594 188.648438 78.734375 189.308594 78.734375 C 210.621094 78.734375 227.90625 96.023438 227.90625 117.335938 L 223.804688 117.335938 C 223.875 96.753906 207.691406 79.90625 187.257812 78.808594 Z M 363.402344 121.953125 C 363.914062 123.050781 364.207031 124.222656 364.207031 125.542969 L 364.207031 294.234375 C 364.207031 298.699219 360.542969 302.363281 356.078125 302.363281 L 14.335938 302.363281 C 13.234375 302.363281 12.136719 302.144531 11.183594 301.703125 C 12.503906 304.414062 15.285156 306.246094 18.507812 306.246094 L 360.324219 306.246094 C 364.792969 306.246094 368.453125 302.582031 368.453125 298.113281 L 368.453125 129.496094 C 368.382812 126.128906 366.332031 123.199219 363.402344 121.953125 Z M 227.097656 88.992188 L 236.253906 88.992188 C 237.28125 88.992188 238.160156 88.183594 238.160156 87.085938 C 238.160156 86.0625 237.351562 85.183594 236.253906 85.183594 L 227.097656 85.183594 C 226.074219 85.183594 225.195312 85.988281 225.195312 87.085938 C 225.269531 88.183594 226.074219 88.992188 227.097656 88.992188 Z M 228.417969 80.933594 L 234.9375 74.414062 C 235.667969 73.683594 235.667969 72.511719 234.9375 71.777344 C 234.203125 71.042969 233.03125 71.042969 232.300781 71.777344 L 225.78125 78.296875 C 225.046875 79.027344 225.046875 80.199219 225.78125 80.933594 C 226.511719 81.664062 227.683594 81.664062 228.417969 80.933594 Z M 221.53125 79.613281 L 221.53125 70.457031 C 221.53125 69.433594 220.726562 68.554688 219.628906 68.554688 C 218.601562 68.554688 217.722656 69.359375 217.722656 70.457031 L 217.722656 79.613281 C 217.722656 80.640625 218.53125 81.519531 219.628906 81.519531 C 220.652344 81.519531 221.53125 80.640625 221.53125 79.613281 Z M 221.53125 79.613281 " fill-opacity="1" fill-rule="nonzero"/></g><g clip-path="url(#66a44c0f11)"><path fill="#fed5dc" d="M 356.148438 117.410156 L 223.875 117.410156 C 223.875 96.097656 206.59375 78.808594 185.277344 78.808594 C 163.964844 78.808594 146.679688 96.097656 146.679688 117.410156 L 14.335938 117.410156 C 9.867188 117.410156 6.203125 121.074219 6.203125 125.542969 L 6.203125 294.234375 C 6.203125 298.699219 9.867188 302.363281 14.335938 302.363281 L 356.148438 302.363281 C 360.617188 302.363281 364.28125 298.699219 364.28125 294.234375 L 364.28125 125.542969 C 364.28125 121.074219 360.617188 117.410156 356.148438 117.410156 Z M 356.148438 117.410156 " fill-opacity="1" fill-rule="nonzero"/></g></svg>