<svg xmlns="http://www.w3.org/2000/svg" xmlns:xlink="http://www.w3.org/1999/xlink" style="enable-background:new 0 0 64 64;" version="1.1" xml:space="preserve" viewBox="10.2 1 43.6 62"><style type="text/css">
	.st0{fill:none;stroke:#000000;stroke-width:2;stroke-linecap:round;stroke-linejoin:round;stroke-miterlimit:10;}
	.st1{fill:none;stroke:#000000;stroke-width:2;stroke-miterlimit:10;}
</style><g id="Layer_1"/><g id="Layer_2"><g><path class="st0" d="M20.5,48.2h-5.2c-2.2,0-4-1.8-4-4V22"/><path class="st0" d="M11.2,15.2V6c0-2.2,1.8-4,4-4h24.3c2.2,0,4,1.8,4,4v9.8"/><path class="st0" d="M52.8,53v5c0,2.2-1.8,4-4,4H24.5c-2.2,0-4-1.8-4-4V19.8c0-2.2,1.8-4,4-4h24.3c2.2,0,4,1.8,4,4v6.7V32v9.9"/><line class="st0" x1="52.8" x2="52.8" y1="50.2" y2="47"/></g></g></svg>