<svg xmlns="http://www.w3.org/2000/svg" xmlns:xlink="http://www.w3.org/1999/xlink" width="500" zoomAndPan="magnify"
    viewBox="0 0 375 374.999991" height="500" preserveAspectRatio="xMidYMid meet" version="1.0">
    <defs>
        <clipPath id="77800ae28e">
            <path d="M 19.6875 0 L 355.6875 0 L 355.6875 375 L 19.6875 375 Z M 19.6875 0 " clip-rule="nonzero" />
        </clipPath>
    </defs>
    <rect x="-37.5" width="450" fill="none" y="-37.499999" height="449.999989" fill-opacity="1" />
    <rect x="-37.5" width="450" fill="none" y="-37.499999" height="449.999989" fill-opacity="1" />
    <rect x="-37.5" width="450" fill="none" y="-37.499999" height="449.999989" fill-opacity="1" />
    <g clip-path="url(#77800ae28e)">
        <path fill="#0277bd"
            d="M 355.636719 0 L 19.738281 0 L 49.375 335.527344 L 187.6875 375 L 326 335.527344 Z M 355.636719 0 "
            fill-opacity="1" fill-rule="nonzero" />
    </g>
    <path fill="#039be5"
        d="M 187.6875 29.605469 L 187.6875 344.40625 L 298.335938 312.828125 L 323.035156 29.605469 Z M 187.6875 29.605469 "
        fill-opacity="1" fill-rule="nonzero" />
    <path fill="#ffffff"
        d="M 277.589844 78.949219 L 187.6875 78.949219 L 187.6875 118.421875 L 236.097656 118.421875 L 233.132812 157.894531 L 187.6875 157.894531 L 187.6875 197.367188 L 231.15625 197.367188 L 228.191406 241.777344 L 187.6875 255.59375 L 187.6875 297.039062 L 265.734375 271.382812 L 272.652344 157.894531 Z M 277.589844 78.949219 "
        fill-opacity="1" fill-rule="nonzero" />
    <path fill="#eeeeee"
        d="M 187.6875 78.949219 L 187.6875 118.421875 L 99.761719 118.421875 L 96.796875 78.949219 Z M 142.242188 157.894531 L 144.21875 197.367188 L 187.6875 197.367188 L 187.6875 157.894531 Z M 146.195312 217.105469 L 106.675781 217.105469 L 109.640625 271.382812 L 187.6875 297.039062 L 187.6875 255.59375 L 147.183594 241.777344 Z M 146.195312 217.105469 "
        fill-opacity="1" fill-rule="nonzero" />
</svg>