<svg xmlns="http://www.w3.org/2000/svg" xmlns:xlink="http://www.w3.org/1999/xlink" zoomAndPan="magnify"
    preserveAspectRatio="xMidYMid meet" version="1.0" viewBox="38 182.5 294.1 9.5">
    <defs>
        <clipPath id="0232c856ad">
            <path d="M 38 182.496094 L 49 182.496094 L 49 192 L 38 192 Z M 38 182.496094 " clip-rule="nonzero" />
        </clipPath>
        <clipPath id="3c9ab33473">
            <path d="M 241 182.496094 L 251 182.496094 L 251 192 L 241 192 Z M 241 182.496094 " clip-rule="nonzero" />
        </clipPath>
        <clipPath id="b5728b979f">
            <path d="M 303 182.496094 L 313 182.496094 L 313 192 L 303 192 Z M 303 182.496094 " clip-rule="nonzero" />
        </clipPath>
        <clipPath id="294b1e0005">
            <path d="M 59 182.496094 L 69 182.496094 L 69 192 L 59 192 Z M 59 182.496094 " clip-rule="nonzero" />
        </clipPath>
        <clipPath id="1af28e4fc0">
            <path d="M 80 182.496094 L 90 182.496094 L 90 192 L 80 192 Z M 80 182.496094 " clip-rule="nonzero" />
        </clipPath>
    </defs>
    <g clip-path="url(#0232c856ad)">
        <path fill="#fff"
            d="M 43.875 182.496094 C 45.898438 182.644531 47.59375 183.703125 48.222656 185.292969 C 48.90625 186.992188 48.480469 188.714844 46.824219 190.046875 C 45.882812 190.789062 44.839844 191.351562 43.691406 191.730469 C 43.359375 191.855469 43.015625 191.921875 42.660156 191.933594 C 42.304688 191.945312 41.953125 191.902344 41.613281 191.800781 C 41.273438 191.703125 40.957031 191.550781 40.667969 191.347656 C 40.378906 191.148438 40.132812 190.90625 39.925781 190.621094 C 39.242188 189.765625 38.429688 188.863281 38.175781 187.863281 C 37.632812 185.714844 39.023438 183.785156 41.441406 182.988281 C 42.222656 182.71875 43.0625 182.652344 43.875 182.496094 Z M 43.875 182.496094 "
            fill-opacity="1" fill-rule="nonzero" />
    </g>
    <g clip-path="url(#3c9ab33473)">
        <path fill="#fff"
            d="M 245.824219 182.992188 C 248.273438 182.976562 249.917969 183.921875 250.558594 185.582031 C 251.203125 187.238281 250.6875 189.105469 249.242188 190.417969 C 248.925781 190.714844 248.566406 190.949219 248.167969 191.121094 C 247.765625 191.296875 247.347656 191.394531 246.910156 191.425781 C 246.472656 191.453125 246.042969 191.40625 245.625 191.285156 C 245.203125 191.164062 244.816406 190.976562 244.464844 190.722656 C 244.195312 190.523438 243.914062 190.34375 243.621094 190.179688 C 241.949219 189.292969 241.191406 188.003906 241.417969 186.410156 C 241.671875 184.640625 242.863281 183.445312 244.734375 183.089844 C 245.097656 183.035156 245.457031 183.003906 245.824219 182.992188 Z M 245.824219 182.992188 "
            fill-opacity="1" fill-rule="nonzero" />
    </g>
    <g clip-path="url(#b5728b979f)">
        <path fill="#fff"
            d="M 308.375 182.835938 C 310.949219 182.820312 312.996094 184.671875 312.996094 187 C 312.996094 189.234375 310.574219 191.589844 308.199219 191.589844 C 305.511719 191.589844 304.140625 189.628906 304 186.9375 C 303.878906 184.601562 305.863281 182.847656 308.375 182.835938 Z M 308.375 182.835938 "
            fill-opacity="1" fill-rule="nonzero" />
    </g>
    <path fill="#fff"
        d="M 289.285156 183.003906 C 291.835938 183.003906 293.730469 184.738281 293.71875 187.066406 C 293.71875 189.347656 291.34375 191.414062 288.742188 191.421875 C 286.382812 191.421875 284.726562 189.597656 284.726562 186.992188 C 284.730469 184.738281 286.71875 183.007812 289.285156 183.003906 Z M 289.285156 183.003906 "
        fill-opacity="1" fill-rule="nonzero" />
    <g clip-path="url(#294b1e0005)">
        <path fill="#fff"
            d="M 59.722656 187.109375 C 59.695312 184.808594 61.710938 182.921875 64.210938 182.941406 C 66.710938 182.957031 68.554688 184.660156 68.5625 186.929688 C 68.5625 189.625 66.832031 191.472656 64.261719 191.488281 C 61.984375 191.507812 59.75 189.351562 59.722656 187.109375 Z M 59.722656 187.109375 "
            fill-opacity="1" fill-rule="nonzero" />
    </g>
    <path fill="#fff"
        d="M 228.652344 183.160156 C 229.207031 183.148438 229.742188 183.234375 230.265625 183.417969 C 230.789062 183.601562 231.257812 183.871094 231.675781 184.226562 C 232.09375 184.582031 232.433594 185 232.691406 185.476562 C 232.949219 185.953125 233.113281 186.460938 233.175781 187 C 233.386719 188.863281 231.886719 190.609375 229.652344 191.105469 C 226.886719 191.714844 224.558594 190.585938 224.015625 188.367188 C 223.398438 185.90625 225.828125 183.175781 228.652344 183.160156 Z M 228.652344 183.160156 "
        fill-opacity="1" fill-rule="nonzero" />
    <g clip-path="url(#1af28e4fc0)">
        <path fill="#fff"
            d="M 80.847656 187.273438 C 80.835938 184.933594 82.882812 182.960938 85.359375 182.941406 C 87.691406 182.910156 89.589844 184.640625 89.609375 186.808594 C 89.625 189.136719 87.429688 191.488281 85.222656 191.503906 C 82.917969 191.511719 80.859375 189.523438 80.847656 187.273438 Z M 80.847656 187.273438 "
            fill-opacity="1" fill-rule="nonzero" />
    </g>
    <path fill="#fff"
        d="M 184.378906 191.222656 C 181.511719 191.15625 179.867188 189.699219 179.945312 187.308594 C 180.027344 184.917969 182.125 183.128906 184.769531 183.203125 C 187.304688 183.277344 189.066406 184.929688 188.984375 187.164062 C 188.914062 189.222656 186.585938 191.277344 184.378906 191.222656 Z M 184.378906 191.222656 "
        fill-opacity="1" fill-rule="nonzero" />
    <path fill="#fff"
        d="M 123.207031 183.253906 C 125.269531 183.253906 126.714844 183.808594 127.464844 185.394531 C 128.167969 186.886719 127.949219 188.328125 126.839844 189.617188 C 125.679688 190.964844 124.25 191.535156 122.519531 190.933594 C 121.585938 190.609375 120.515625 190.289062 119.859375 189.636719 C 117.878906 187.675781 118.804688 184.5625 121.5625 183.605469 C 122.101562 183.441406 122.648438 183.324219 123.207031 183.253906 Z M 123.207031 183.253906 "
        fill-opacity="1" fill-rule="nonzero" />
    <path fill="#fff"
        d="M 268.847656 183.011719 C 271.179688 183.011719 273.011719 184.660156 273.039062 186.78125 C 273.066406 189.046875 270.652344 191.398438 268.289062 191.40625 C 266.015625 191.40625 264.671875 189.851562 264.648438 187.140625 C 264.628906 184.78125 266.417969 183.019531 268.847656 183.011719 Z M 268.847656 183.011719 "
        fill-opacity="1" fill-rule="nonzero" />
    <path fill="#fff"
        d="M 327.433594 183.324219 C 330.667969 183.359375 332.871094 185.980469 331.847656 188.640625 C 331.042969 190.722656 329.433594 191.28125 326.695312 191.054688 C 324.355469 190.859375 322.992188 189.300781 323.121094 187.289062 C 323.25 185.273438 325.390625 183.296875 327.433594 183.324219 Z M 327.433594 183.324219 "
        fill-opacity="1" fill-rule="nonzero" />
    <path fill="#fff"
        d="M 166.742188 183.042969 C 169.097656 183.042969 170.929688 184.769531 170.914062 186.957031 C 170.898438 189.070312 168.492188 191.390625 166.328125 191.390625 C 164.167969 191.390625 162.378906 189.394531 162.410156 186.941406 C 162.433594 184.710938 164.304688 183.03125 166.742188 183.042969 Z M 166.742188 183.042969 "
        fill-opacity="1" fill-rule="nonzero" />
    <path fill="#fff"
        d="M 104.867188 183.140625 C 107.199219 183.140625 109.1875 184.828125 109.050781 186.90625 C 108.898438 189.121094 107.621094 191.335938 104.261719 191.292969 C 102.0625 191.269531 100.609375 189.65625 100.621094 187.238281 C 100.632812 184.855469 102.417969 183.132812 104.867188 183.140625 Z M 104.867188 183.140625 "
        fill-opacity="1" fill-rule="nonzero" />
    <path fill="#fff"
        d="M 206.136719 183.074219 C 208.398438 183.074219 210.273438 184.820312 210.253906 186.921875 C 210.234375 189.269531 208.265625 191.351562 206.082031 191.351562 C 203.964844 191.351562 201.988281 189.207031 202.039062 186.953125 C 202.050781 186.433594 202.160156 185.933594 202.375 185.457031 C 202.589844 184.980469 202.886719 184.558594 203.269531 184.195312 C 203.65625 183.832031 204.09375 183.554688 204.589844 183.359375 C 205.085938 183.164062 205.601562 183.070312 206.136719 183.074219 Z M 206.136719 183.074219 "
        fill-opacity="1" fill-rule="nonzero" />
    <path fill="#fff"
        d="M 144.890625 183.382812 C 147.335938 183.40625 149.121094 185.046875 149.097656 187.25 C 149.082031 189.277344 147.214844 191.085938 145.167969 191.050781 C 142.550781 191.003906 140.589844 189.277344 140.636719 187.0625 C 140.671875 184.933594 142.5 183.351562 144.890625 183.382812 Z M 144.890625 183.382812 "
        fill-opacity="1" fill-rule="nonzero" />
</svg>