<svg xmlns="http://www.w3.org/2000/svg" xmlns:xlink="http://www.w3.org/1999/xlink" zoomAndPan="magnify" preserveAspectRatio="xMidYMid meet" version="1.0" viewBox="-4.05 103.26 379.12 51"><defs><clipPath id="eef739747f"><path d="M 0 103.261719 L 375 103.261719 L 375 154.261719 L 0 154.261719 Z M 0 103.261719 " clip-rule="nonzero"/></clipPath></defs><g clip-path="url(#eef739747f)"><path fill="#14130c" d="M -3.933594 153.941406 C -4.09375 153.621094 -4.09375 153.140625 -3.933594 152.824219 C -3.613281 152.503906 -3.292969 152.183594 -2.972656 151.863281 L -2.011719 151.0625 L -0.890625 150.425781 L 1.027344 148.984375 C 2.46875 147.867188 3.910156 146.746094 5.351562 145.628906 C 8.230469 143.550781 11.273438 141.472656 14.3125 139.554688 C 15.59375 138.59375 17.035156 137.632812 18.316406 136.675781 C 19.59375 135.714844 20.875 134.757812 22.15625 133.957031 C 23.4375 133.15625 24.875 132.199219 26.316406 131.398438 C 27.757812 130.601562 29.359375 129.800781 30.796875 129 C 32.238281 128.203125 33.519531 127.5625 34.960938 127.082031 C 36.398438 126.601562 38 125.804688 39.441406 125.324219 C 40.082031 125.164062 40.882812 124.84375 41.523438 124.683594 C 42.164062 124.523438 42.960938 124.363281 43.761719 124.203125 C 45.363281 123.886719 46.964844 123.726562 48.5625 123.566406 L 48.402344 123.566406 L 50.644531 123.566406 L 51.765625 123.726562 L 53.046875 123.886719 L 53.527344 124.046875 L 54.167969 124.203125 C 54.644531 124.363281 55.125 124.363281 55.605469 124.523438 C 56.246094 124.683594 56.886719 125.003906 57.527344 125.164062 C 58.167969 125.484375 58.648438 125.804688 59.128906 126.125 C 59.449219 126.441406 59.769531 126.761719 59.929688 127.082031 C 60.089844 127.242188 60.089844 127.5625 60.25 127.722656 C 60.25 127.882812 60.25 128.042969 60.40625 128.203125 C 60.40625 128.363281 60.40625 128.523438 60.40625 128.839844 C 60.40625 129.480469 60.40625 129.960938 60.25 130.601562 C 60.25 130.917969 60.089844 131.238281 60.089844 131.558594 C 59.769531 133.15625 59.289062 134.917969 58.96875 136.515625 C 58.96875 136.515625 58.96875 136.515625 58.96875 136.355469 C 58.96875 136.675781 58.808594 136.996094 58.808594 137.316406 C 58.808594 137.632812 58.808594 137.953125 58.648438 138.273438 L 58.648438 139.554688 C 58.648438 139.871094 58.648438 140.191406 58.648438 140.511719 C 58.648438 140.832031 58.808594 141.472656 58.808594 141.949219 C 58.808594 142.269531 58.96875 142.589844 59.128906 142.75 C 59.289062 143.070312 59.289062 143.390625 59.449219 143.710938 L 59.609375 144.03125 C 59.769531 144.347656 59.929688 144.507812 60.089844 144.828125 C 60.25 144.988281 60.40625 145.308594 60.566406 145.46875 C 60.886719 145.789062 61.207031 146.109375 61.527344 146.425781 L 62.648438 147.386719 C 62.96875 147.707031 63.449219 148.027344 63.769531 148.1875 L 64.730469 148.824219 C 65.050781 148.984375 65.53125 149.304688 65.851562 149.464844 C 66.171875 149.625 66.648438 149.945312 66.96875 150.105469 C 67.289062 150.265625 67.289062 150.265625 67.609375 150.425781 L 68.089844 150.742188 L 68.890625 151.0625 L 69.851562 151.382812 C 70.332031 151.542969 70.972656 151.703125 71.453125 151.863281 L 72.570312 152.023438 C 72.730469 152.023438 73.050781 152.023438 73.210938 152.023438 L 74.972656 152.023438 C 75.292969 152.023438 75.613281 152.023438 76.09375 152.023438 C 76.894531 152.023438 77.695312 152.023438 78.492188 152.023438 C 80.253906 152.023438 81.855469 151.863281 83.617188 151.863281 C 84.734375 151.863281 85.695312 151.703125 86.816406 151.542969 C 87.457031 151.542969 88.097656 151.382812 88.738281 151.222656 L 90.335938 150.902344 L 92.417969 150.425781 L 95.140625 149.945312 C 96.738281 149.464844 98.5 148.984375 100.101562 148.507812 L 102.339844 147.707031 C 102.980469 147.546875 103.621094 147.226562 104.421875 146.90625 C 105.222656 146.585938 105.703125 146.269531 106.34375 146.109375 L 108.261719 145.308594 L 110.023438 144.347656 L 112.105469 143.230469 L 114.1875 141.949219 L 116.105469 140.671875 C 116.585938 140.351562 117.226562 139.871094 117.707031 139.554688 C 118.1875 139.234375 118.828125 138.753906 119.308594 138.433594 C 119.789062 138.113281 120.265625 137.632812 120.746094 137.316406 L 122.027344 136.195312 C 123.46875 134.917969 124.910156 133.636719 126.347656 132.199219 C 127.789062 130.761719 129.070312 129.800781 130.511719 128.679688 L 132.75 126.761719 C 133.710938 126.125 134.511719 125.324219 135.472656 124.683594 C 135.792969 124.363281 136.113281 124.203125 136.59375 123.886719 C 137.074219 123.566406 137.074219 123.40625 137.394531 123.246094 L 138.832031 122.285156 C 139.3125 121.964844 139.792969 121.648438 140.273438 121.328125 L 142.515625 120.046875 L 143.957031 119.25 C 144.433594 118.929688 145.074219 118.769531 145.554688 118.449219 L 146.355469 117.96875 L 147.476562 117.488281 L 149.078125 116.851562 L 149.558594 116.53125 L 150.675781 116.210938 C 150.996094 116.050781 151.316406 116.050781 151.796875 115.890625 C 152.277344 115.730469 152.757812 115.570312 153.398438 115.570312 C 154.039062 115.570312 154.519531 115.410156 155.160156 115.253906 C 155.800781 115.09375 155.960938 115.09375 156.4375 115.09375 L 159.640625 115.09375 C 160.121094 115.09375 160.441406 115.09375 160.921875 115.253906 L 161.5625 115.253906 C 161.722656 115.253906 162.042969 115.253906 162.199219 115.410156 L 163.160156 115.570312 C 163.640625 115.570312 164.121094 115.730469 164.441406 115.890625 C 165.242188 116.050781 165.882812 116.210938 166.683594 116.53125 C 167.484375 116.851562 168.121094 117.171875 168.761719 117.488281 L 169.402344 117.96875 C 169.722656 118.289062 170.203125 118.609375 170.523438 118.929688 C 171.003906 119.410156 171.484375 119.886719 171.804688 120.527344 C 171.964844 120.847656 172.125 121.167969 172.285156 121.488281 C 172.445312 121.808594 172.605469 122.125 172.765625 122.605469 C 172.925781 123.085938 173.085938 123.726562 173.085938 124.203125 C 173.246094 125.164062 173.246094 126.125 173.085938 126.921875 C 173.085938 127.5625 172.925781 128.203125 172.925781 128.839844 C 172.765625 129.480469 172.765625 130.28125 172.605469 130.917969 C 172.445312 131.558594 172.445312 132.519531 172.285156 133.15625 C 172.125 133.796875 172.125 134.597656 172.125 135.234375 L 172.125 136.355469 C 172.125 136.515625 172.125 136.675781 172.125 136.675781 L 172.125 137.953125 C 172.125 138.433594 172.285156 138.914062 172.285156 139.394531 C 172.285156 139.871094 172.445312 140.191406 172.605469 140.511719 L 172.925781 141.3125 C 173.085938 141.792969 173.246094 142.109375 173.40625 142.589844 C 173.566406 142.75 173.726562 143.070312 173.726562 143.230469 C 173.886719 143.550781 174.046875 143.710938 174.363281 144.03125 C 174.523438 144.1875 174.683594 144.347656 174.84375 144.507812 L 175.804688 145.148438 L 175.644531 145.148438 C 175.964844 145.308594 176.285156 145.46875 176.605469 145.628906 C 177.085938 145.789062 177.566406 145.949219 178.046875 146.109375 C 179.007812 146.269531 179.808594 146.269531 180.765625 146.425781 L 183.167969 146.585938 L 190.851562 146.585938 L 196.292969 146.425781 C 198.050781 146.425781 199.8125 146.269531 201.574219 146.109375 C 202.535156 146.109375 203.496094 145.949219 204.453125 145.789062 C 204.933594 145.789062 205.574219 145.628906 206.054688 145.628906 L 207.816406 145.308594 L 209.417969 144.988281 L 210.695312 144.667969 L 211.976562 144.347656 L 213.738281 143.710938 L 215.820312 142.910156 C 216.136719 142.75 216.617188 142.589844 216.9375 142.429688 L 218.058594 141.949219 L 220.300781 140.832031 C 220.621094 140.671875 220.941406 140.511719 221.261719 140.351562 L 222.539062 139.710938 L 222.378906 139.710938 C 223.980469 138.914062 225.582031 137.953125 227.34375 137.15625 C 229.101562 136.355469 230.863281 135.078125 232.625 134.117188 C 234.382812 133.15625 235.984375 132.039062 237.746094 130.917969 C 239.507812 129.800781 240.945312 128.839844 242.546875 127.722656 L 247.507812 124.203125 C 249.109375 123.085938 250.710938 122.125 252.308594 121.007812 C 253.109375 120.527344 253.910156 120.046875 254.550781 119.570312 C 255.191406 119.089844 256.3125 118.449219 257.113281 117.96875 C 257.914062 117.488281 258.710938 117.011719 259.511719 116.53125 L 260.632812 115.890625 L 262.234375 115.09375 C 262.554688 114.933594 262.875 114.773438 263.195312 114.613281 C 263.515625 114.453125 263.992188 114.292969 264.3125 114.132812 L 265.914062 113.492188 C 266.234375 113.332031 266.714844 113.171875 267.035156 113.171875 L 268.316406 112.855469 L 270.074219 112.375 L 271.996094 112.054688 L 272.636719 111.894531 L 274.398438 111.574219 C 275.359375 111.414062 276.316406 111.414062 277.117188 111.414062 C 278.398438 111.414062 279.679688 111.414062 280.960938 111.574219 C 282.398438 111.734375 283.679688 112.054688 284.960938 112.535156 C 285.761719 112.855469 286.5625 113.171875 287.363281 113.492188 C 287.84375 113.8125 288.320312 113.972656 288.800781 114.292969 C 289.28125 114.613281 289.441406 114.613281 289.761719 114.933594 C 290.722656 115.570312 291.523438 116.371094 292.324219 117.171875 C 293.125 117.96875 293.765625 118.929688 294.402344 119.886719 C 294.5625 120.207031 294.722656 120.527344 294.882812 120.847656 C 295.042969 121.167969 295.203125 121.328125 295.203125 121.648438 L 295.683594 122.605469 C 295.84375 122.765625 295.84375 123.085938 296.003906 123.40625 C 296.324219 124.363281 296.644531 125.484375 296.964844 126.441406 C 297.285156 127.722656 297.605469 129 297.765625 130.121094 C 297.925781 130.761719 298.085938 131.238281 298.246094 131.878906 C 298.40625 132.199219 298.40625 132.519531 298.40625 132.839844 C 298.40625 133.15625 298.566406 133.476562 298.726562 133.796875 C 298.886719 134.117188 299.046875 134.757812 299.367188 135.234375 C 299.527344 135.554688 299.6875 135.875 299.847656 136.035156 C 300.003906 136.355469 300.164062 136.515625 300.484375 136.835938 L 300.324219 136.835938 C 300.484375 137.15625 300.804688 137.316406 300.964844 137.472656 L 301.285156 137.792969 C 301.605469 137.953125 301.765625 138.113281 302.085938 138.273438 L 302.566406 138.433594 C 302.886719 138.59375 303.207031 138.59375 303.527344 138.59375 L 303.367188 138.59375 L 304.328125 138.59375 C 305.289062 138.59375 306.246094 138.59375 307.367188 138.59375 C 308.488281 138.59375 309.128906 138.59375 310.089844 138.433594 L 312.648438 138.273438 C 313.609375 138.113281 314.570312 138.113281 315.53125 137.953125 L 317.453125 137.632812 L 318.570312 137.472656 L 321.773438 136.996094 L 324.011719 136.515625 L 324.972656 136.355469 L 325.933594 136.035156 C 326.734375 135.875 327.375 135.714844 328.175781 135.394531 L 330.734375 134.597656 L 333.296875 133.636719 L 333.457031 133.636719 L 334.257812 133.316406 L 335.539062 132.679688 L 337.777344 131.558594 L 338.257812 131.398438 L 339.21875 130.917969 L 340.339844 130.28125 L 341.78125 129.320312 C 342.097656 129.160156 342.417969 129 342.738281 128.679688 L 345.300781 127.082031 L 347.863281 125.324219 C 348.179688 125.003906 348.5 124.84375 348.980469 124.523438 L 350.582031 123.246094 C 350.902344 122.925781 351.382812 122.605469 351.703125 122.285156 L 353.144531 121.167969 C 353.625 120.847656 353.941406 120.527344 354.421875 120.046875 L 355.703125 119.089844 C 356.503906 118.289062 357.464844 117.648438 358.265625 116.851562 L 360.984375 114.292969 L 366.585938 109.015625 L 369.148438 106.457031 L 370.429688 105.339844 L 371.390625 104.539062 C 371.871094 104.21875 372.347656 103.902344 372.828125 103.582031 C 372.988281 103.421875 373.308594 103.261719 373.628906 103.261719 L 374.269531 103.261719 C 374.429688 103.261719 374.589844 103.261719 374.589844 103.421875 C 374.75 103.582031 374.910156 103.582031 374.910156 103.742188 C 375.070312 104.0625 375.070312 104.378906 375.070312 104.699219 C 375.070312 104.859375 375.070312 105.019531 375.070312 105.179688 C 375.070312 105.660156 374.75 105.980469 374.269531 105.980469 C 373.789062 105.980469 373.46875 105.660156 373.46875 105.179688 C 373.46875 105.179688 373.46875 105.019531 373.46875 105.019531 L 373.148438 105.179688 C 372.667969 105.5 372.027344 105.980469 371.550781 106.457031 L 370.589844 107.257812 C 367.546875 109.976562 364.667969 112.695312 361.785156 115.570312 C 361.144531 116.210938 360.34375 116.851562 359.707031 117.488281 C 359.066406 118.128906 358.105469 118.929688 357.304688 119.570312 C 355.863281 120.847656 354.421875 121.964844 352.984375 123.085938 C 352.34375 123.726562 351.542969 124.203125 350.742188 124.84375 L 348.339844 126.601562 L 346.742188 127.722656 L 346.101562 128.203125 L 344.660156 129.160156 L 343.378906 129.960938 L 341.78125 130.917969 L 340.820312 131.558594 C 339.859375 132.039062 339.058594 132.679688 338.097656 133.15625 C 337.136719 133.636719 336.496094 133.957031 335.699219 134.4375 L 333.9375 135.234375 C 333.457031 135.394531 332.976562 135.554688 332.65625 135.714844 L 331.214844 136.195312 C 330.894531 136.355469 330.414062 136.355469 330.09375 136.515625 L 328.496094 136.996094 L 327.375 137.316406 C 326.414062 137.472656 325.613281 137.792969 324.652344 137.953125 L 322.734375 138.433594 L 318.730469 139.234375 L 317.613281 139.394531 L 315.691406 139.710938 C 314.730469 139.871094 313.769531 139.871094 312.808594 140.03125 C 311.851562 140.191406 311.050781 140.191406 310.089844 140.191406 L 308.007812 140.191406 C 307.527344 140.191406 307.046875 140.191406 306.566406 140.191406 C 306.085938 140.191406 305.289062 140.191406 304.648438 140.191406 C 304.007812 140.191406 303.847656 140.191406 303.367188 140.03125 C 303.046875 140.03125 302.566406 139.871094 302.246094 139.710938 C 302.085938 139.710938 301.765625 139.554688 301.605469 139.394531 C 301.285156 139.234375 300.964844 139.074219 300.644531 138.914062 C 300.324219 138.59375 300.164062 138.433594 299.84375 138.113281 C 299.527344 137.792969 299.367188 137.472656 299.046875 137.316406 C 298.566406 136.675781 298.246094 136.035156 297.925781 135.394531 C 297.605469 134.757812 297.445312 134.117188 297.285156 133.476562 C 297.125 132.996094 296.964844 132.519531 296.804688 132.039062 C 296.644531 131.238281 296.324219 130.28125 296.164062 129.480469 C 296.003906 128.679688 295.683594 127.5625 295.523438 126.601562 C 295.363281 125.644531 295.042969 125.003906 294.882812 124.203125 L 294.5625 123.246094 C 294.5625 123.085938 294.402344 123.085938 294.402344 122.925781 L 294.082031 122.285156 C 293.921875 122.125 293.921875 121.808594 293.765625 121.648438 C 293.445312 121.167969 293.285156 120.6875 292.964844 120.207031 L 292.644531 119.726562 C 292.484375 119.410156 292.164062 119.089844 291.84375 118.769531 C 291.683594 118.609375 291.523438 118.449219 291.363281 118.289062 C 291.042969 117.96875 290.722656 117.648438 290.402344 117.332031 C 290.082031 117.011719 289.761719 116.691406 289.28125 116.371094 L 288.800781 116.050781 L 288.960938 116.050781 C 288.320312 115.730469 287.839844 115.410156 287.203125 114.933594 L 286.242188 114.453125 C 285.921875 114.292969 285.601562 114.132812 285.121094 114.132812 C 284.800781 113.972656 284.320312 113.8125 284 113.8125 C 283.679688 113.8125 283.199219 113.652344 282.71875 113.492188 C 282.238281 113.332031 281.917969 113.332031 281.441406 113.332031 C 280.960938 113.332031 280.320312 113.171875 279.839844 113.171875 L 276.957031 113.171875 C 276.316406 113.171875 275.519531 113.332031 274.878906 113.332031 L 273.277344 113.492188 C 272.957031 113.492188 272.636719 113.652344 272.316406 113.652344 L 271.195312 113.972656 L 271.355469 113.972656 L 269.277344 114.453125 C 268.957031 114.453125 268.636719 114.613281 268.476562 114.773438 L 267.355469 115.09375 L 265.914062 115.570312 L 264.632812 116.050781 L 263.195312 116.691406 L 261.59375 117.488281 L 258.710938 118.929688 C 257.753906 119.410156 256.953125 119.886719 255.992188 120.527344 C 254.070312 121.808594 252.148438 122.925781 250.230469 124.203125 L 250.390625 124.203125 C 248.789062 125.324219 247.1875 126.441406 245.589844 127.5625 C 243.988281 128.679688 242.386719 129.800781 240.785156 130.761719 C 239.1875 131.71875 237.265625 132.996094 235.503906 134.117188 C 233.746094 135.234375 232.144531 136.195312 230.382812 137.15625 L 227.980469 138.433594 L 225.421875 139.871094 C 223.660156 140.832031 221.902344 141.792969 220.140625 142.589844 L 218.539062 143.390625 C 218.21875 143.550781 217.738281 143.710938 217.417969 143.871094 C 217.097656 144.03125 216.617188 144.1875 216.136719 144.347656 L 214.21875 145.148438 C 213.417969 145.46875 212.617188 145.628906 211.816406 145.949219 C 211.65625 145.949219 211.335938 146.109375 211.175781 146.109375 L 210.214844 146.425781 C 209.738281 146.585938 209.097656 146.585938 208.617188 146.746094 C 206.695312 147.066406 204.933594 147.386719 203.015625 147.546875 C 202.054688 147.546875 201.253906 147.707031 200.292969 147.707031 L 196.933594 147.867188 C 194.851562 147.867188 192.769531 148.027344 190.851562 148.027344 C 189.089844 148.027344 187.328125 148.027344 185.410156 148.027344 L 182.207031 148.027344 C 181.246094 148.027344 180.285156 147.867188 179.328125 147.867188 C 178.847656 147.867188 178.367188 147.707031 177.886719 147.707031 C 177.246094 147.546875 176.605469 147.386719 175.964844 147.226562 C 175.644531 147.066406 175.164062 146.90625 174.84375 146.746094 L 174.203125 146.425781 C 174.042969 146.269531 173.726562 146.109375 173.566406 145.949219 C 173.40625 145.789062 173.246094 145.628906 172.925781 145.308594 C 172.605469 144.988281 172.445312 144.667969 172.125 144.347656 C 171.484375 143.390625 171.003906 142.269531 170.683594 140.992188 C 170.523438 140.671875 170.523438 140.191406 170.363281 139.871094 C 170.203125 139.394531 170.203125 139.074219 170.203125 138.59375 C 170.203125 138.113281 170.042969 137.632812 170.042969 136.996094 L 170.042969 136.195312 C 170.042969 136.035156 170.042969 135.714844 170.042969 135.394531 C 170.042969 135.078125 170.042969 134.597656 170.203125 134.117188 C 170.203125 133.15625 170.363281 132.199219 170.523438 131.238281 C 170.683594 129.640625 171.003906 128.042969 171.164062 126.601562 L 171.164062 125.484375 C 171.164062 125.164062 171.164062 124.84375 171.164062 124.523438 C 171.164062 124.203125 171.164062 123.886719 171.003906 123.566406 L 171.003906 123.726562 C 171.003906 123.40625 170.84375 123.085938 170.683594 122.765625 L 170.683594 122.925781 C 170.523438 122.605469 170.363281 122.285156 170.363281 121.964844 C 170.203125 121.648438 170.042969 121.328125 169.882812 121.007812 C 169.722656 120.6875 169.402344 120.367188 169.082031 120.046875 L 168.601562 119.570312 C 168.28125 119.25 167.964844 119.089844 167.644531 118.769531 C 167.324219 118.449219 166.84375 118.289062 166.523438 118.128906 C 165.882812 117.808594 165.402344 117.648438 164.761719 117.332031 C 164.121094 117.011719 163 116.851562 162.199219 116.691406 L 160.441406 116.371094 L 155.640625 116.371094 C 155.320312 116.371094 155 116.371094 154.679688 116.53125 C 154.199219 116.53125 153.558594 116.691406 153.078125 116.851562 C 152.597656 117.011719 151.476562 117.171875 150.835938 117.488281 L 149.398438 117.96875 C 149.078125 118.128906 148.597656 118.289062 148.277344 118.449219 L 147.15625 118.929688 L 145.714844 119.570312 C 145.074219 119.886719 144.433594 120.207031 143.796875 120.527344 L 142.515625 121.167969 L 141.554688 121.808594 C 140.914062 122.285156 140.113281 122.605469 139.472656 123.085938 C 138.832031 123.566406 138.191406 123.886719 137.714844 124.203125 L 136.753906 125.484375 C 136.273438 125.804688 135.953125 126.125 135.472656 126.441406 C 134.511719 127.082031 133.710938 127.882812 132.75 128.523438 C 130.832031 130.121094 129.070312 131.558594 127.308594 133.15625 L 122.988281 136.996094 C 122.347656 137.632812 121.546875 138.273438 120.90625 138.753906 L 119.949219 139.554688 L 118.507812 140.511719 C 117.707031 140.992188 117.066406 141.472656 116.265625 142.109375 C 115.945312 142.429688 115.464844 142.589844 115.144531 142.910156 L 113.546875 143.871094 C 113.066406 144.1875 112.746094 144.347656 112.265625 144.667969 L 111.144531 145.308594 L 110.183594 145.789062 C 109.703125 146.109375 109.222656 146.269531 108.742188 146.585938 L 107.304688 147.226562 L 106.183594 147.707031 C 105.703125 147.867188 105.382812 148.027344 104.902344 148.1875 L 102.980469 148.984375 C 102.179688 149.304688 101.382812 149.625 100.421875 149.785156 C 100.101562 149.945312 99.621094 150.105469 99.140625 150.105469 L 97.699219 150.585938 C 95.78125 151.0625 93.859375 151.703125 91.9375 152.023438 L 89.058594 152.664062 C 88.097656 152.824219 87.296875 152.980469 86.335938 153.140625 C 85.855469 153.140625 85.535156 153.300781 85.054688 153.300781 L 83.9375 153.460938 C 83.136719 153.460938 82.335938 153.621094 81.535156 153.621094 C 79.773438 153.621094 78.015625 153.78125 76.253906 153.78125 L 73.53125 153.78125 C 72.730469 153.78125 71.773438 153.621094 70.972656 153.460938 C 70.332031 153.300781 69.691406 153.140625 69.050781 152.980469 C 68.730469 152.824219 68.410156 152.824219 68.089844 152.664062 L 67.289062 152.34375 L 66.96875 152.183594 L 66.328125 151.542969 L 65.210938 150.902344 C 64.570312 150.585938 63.769531 150.105469 63.128906 149.625 C 62.488281 149.144531 61.847656 148.664062 61.207031 148.1875 L 60.886719 147.867188 L 60.40625 147.546875 C 60.089844 147.226562 59.769531 146.90625 59.449219 146.585938 C 59.128906 146.269531 58.96875 146.109375 58.808594 145.789062 C 58.328125 145.148438 58.007812 144.507812 57.847656 143.871094 C 57.527344 143.230469 57.367188 142.429688 57.207031 141.792969 C 57.046875 141.152344 57.046875 140.671875 57.046875 140.03125 L 57.046875 139.074219 C 57.046875 138.753906 57.046875 138.59375 57.046875 138.273438 C 57.046875 137.472656 57.207031 136.675781 57.367188 136.035156 C 57.6875 134.4375 58.167969 132.679688 58.488281 131.078125 L 58.648438 130.601562 C 58.648438 130.28125 58.808594 129.960938 58.808594 129.640625 L 58.808594 128.839844 L 58.648438 128.523438 L 58.488281 128.203125 L 58.328125 127.402344 L 58.167969 127.242188 C 58.007812 127.082031 57.847656 126.921875 57.6875 126.921875 L 57.367188 126.761719 C 56.886719 126.601562 56.566406 126.441406 56.085938 126.285156 L 54.964844 125.964844 L 53.847656 125.644531 C 53.367188 125.484375 52.886719 125.484375 52.566406 125.484375 C 52.246094 125.484375 51.605469 125.324219 51.125 125.324219 L 50.003906 125.324219 C 49.683594 125.324219 49.203125 125.324219 48.882812 125.324219 L 48.085938 125.324219 C 46.804688 125.484375 45.363281 125.644531 44.082031 125.804688 C 43.441406 125.964844 42.800781 126.125 42.164062 126.285156 C 41.523438 126.441406 40.882812 126.601562 40.242188 126.921875 C 38.800781 127.402344 37.359375 128.042969 35.921875 128.523438 C 34.480469 129 32.878906 129.800781 31.4375 130.601562 C 29.839844 131.398438 28.238281 132.359375 26.636719 133.15625 C 25.035156 133.957031 23.597656 134.917969 21.996094 136.035156 C 20.234375 137.15625 18.632812 138.433594 17.035156 139.554688 C 15.433594 140.671875 13.671875 141.792969 12.074219 142.910156 C 9.671875 144.507812 7.269531 146.269531 4.871094 148.027344 C 3.75 148.824219 2.628906 149.785156 1.507812 150.585938 C 0.386719 151.382812 -0.730469 152.183594 -2.011719 153.140625 C -2.332031 153.460938 -2.652344 153.621094 -2.972656 153.941406 C -3.132812 154.101562 -3.292969 154.101562 -3.453125 154.101562 C -3.613281 154.261719 -3.773438 154.101562 -3.933594 153.941406 Z M -3.933594 153.941406 " fill-opacity="1" fill-rule="nonzero"/></g></svg>