<svg xmlns="http://www.w3.org/2000/svg" xmlns:xlink="http://www.w3.org/1999/xlink" enable-background="new 0 0 32 32" version="1.1" xml:space="preserve" viewBox="1 5 30 22"><g id="Gmail"><path d="M27,27c-0.276,0-0.5-0.224-0.5-0.5v-13c0-0.276,0.224-0.5,0.5-0.5s0.5,0.224,0.5,0.5v13   C27.5,26.776,27.276,27,27,27z" fill="#263238"/><path d="M5,27c-0.276,0-0.5-0.224-0.5-0.5v-13C4.5,13.224,4.724,13,5,13s0.5,0.224,0.5,0.5v13   C5.5,26.776,5.276,27,5,27z" fill="#263238"/><g><path d="M16,14.432c-0.099,0-0.197-0.029-0.282-0.087L3.553,6.021c-0.228-0.156-0.286-0.467-0.13-0.695    c0.156-0.228,0.466-0.287,0.695-0.13L16,13.326l8.958-6.129c0.229-0.156,0.54-0.097,0.695,0.13    c0.156,0.228,0.098,0.539-0.13,0.695l-9.24,6.322C16.197,14.403,16.099,14.432,16,14.432z" fill="#263238"/></g><g><path d="M28.5,27h-25C2.122,27,1,25.878,1,24.5v-17C1,7.224,1.224,7,1.5,7S2,7.224,2,7.5v17    C2,25.327,2.673,26,3.5,26h25c0.827,0,1.5-0.673,1.5-1.5v-17C30,6.673,29.327,6,28.5,6C28.224,6,28,5.776,28,5.5S28.224,5,28.5,5    C29.878,5,31,6.122,31,7.5v17C31,25.878,29.878,27,28.5,27z" fill="#263238"/></g><g><path d="M16,19c-0.099,0-0.198-0.029-0.284-0.088L2.066,9.498C1.398,9.038,1,8.278,1,7.467    C1,6.107,2.107,5,3.467,5h25.065C29.893,5,31,6.107,31,7.467c0,0.811-0.398,1.57-1.066,2.031l-13.65,9.414    C16.198,18.971,16.099,19,16,19z M3.467,6C2.658,6,2,6.658,2,7.467C2,7.95,2.237,8.401,2.634,8.675L16,17.893l13.366-9.218    C29.763,8.401,30,7.95,30,7.467C30,6.658,29.342,6,28.533,6H3.467z" fill="#263238"/></g></g></svg>