<svg xmlns="http://www.w3.org/2000/svg" xmlns:xlink="http://www.w3.org/1999/xlink" width="500" zoomAndPan="magnify" viewBox="0 0 375 374.999991" height="500" preserveAspectRatio="xMidYMid meet" version="1.0"><defs><clipPath id="dd8c13b2f9"><path d="M 25.011719 226.03125 L 351.316406 226.03125 L 351.316406 356.222656 L 25.011719 356.222656 Z M 25.011719 226.03125 " clip-rule="nonzero"/></clipPath><clipPath id="f17c3d40d7"><path d="M 25 18.75 L 352 18.75 L 352 149 L 25 149 Z M 25 18.75 " clip-rule="nonzero"/></clipPath><clipPath id="26a9cb3a02"><path d="M 1.039062 138 L 375 138 L 375 237 L 1.039062 237 Z M 1.039062 138 " clip-rule="nonzero"/></clipPath></defs><path fill="#ff00ff" d="M 131.902344 143.648438 L 339.28125 143.648438 C 341.625 143.648438 343.910156 143.910156 346.105469 144.40625 C 359.875 147.507812 370.152344 159.804688 370.152344 174.496094 L 370.152344 200.496094 C 370.152344 215.175781 359.886719 227.464844 346.136719 230.578125 C 343.933594 231.078125 341.636719 231.34375 339.28125 231.34375 L 37.046875 231.34375 C 34.691406 231.34375 32.390625 231.078125 30.183594 230.578125 C 16.4375 227.460938 6.175781 215.175781 6.175781 200.496094 L 6.175781 174.496094 C 6.175781 159.804688 16.449219 147.511719 30.214844 144.40625 C 32.414062 143.910156 34.699219 143.648438 37.046875 143.648438 L 131.902344 143.648438 " fill-opacity="1" fill-rule="nonzero"/><path fill="#00ffff" d="M 313.121094 143.648438 L 131.902344 143.648438 C 131.730469 141.890625 131.550781 139.824219 131.496094 138.121094 C 131.246094 129.882812 133.269531 120.796875 139.898438 115.886719 C 148.210938 109.714844 159.792969 112.503906 169.964844 114.429688 C 180.144531 116.363281 193.023438 115.910156 197.863281 106.753906 C 200.933594 100.933594 199.335938 93.734375 196.550781 87.769531 C 193.769531 81.804688 189.867188 76.289062 188.238281 69.910156 C 185.605469 59.617188 189.421875 48.527344 195.828125 40.050781 C 199.925781 34.628906 205.503906 29.691406 210.90625 25.464844 C 244.898438 30.1875 275.554688 45.335938 299.53125 67.578125 C 321.410156 87.871094 337.726562 114.078125 345.9375 143.648438 C 345.9375 143.648438 346.023438 143.988281 346.105469 144.40625 C 343.910156 143.910156 341.625 143.648438 339.28125 143.648438 L 313.121094 143.648438 " fill-opacity="1" fill-rule="nonzero"/><path fill="#00ff00" d="M 346.136719 230.578125 C 346.03125 231 345.9375 231.34375 345.9375 231.34375 C 338.949219 256.507812 326.09375 279.234375 308.929688 297.957031 C 308.335938 296.597656 307.5625 295 306.972656 293.714844 C 302.589844 284.171875 297.195312 273.707031 300.425781 263.710938 C 302.277344 257.992188 306.695312 253.535156 310.96875 249.308594 C 318.054688 242.300781 326.023438 234.894531 335.132812 231.34375 L 339.28125 231.34375 C 341.636719 231.34375 343.933594 231.078125 346.136719 230.578125 " fill-opacity="1" fill-rule="nonzero"/><path fill="#00ffff" d="M 37.046875 231.34375 L 335.132812 231.34375 C 326.023438 234.894531 318.054688 242.300781 310.96875 249.308594 C 306.695312 253.535156 302.277344 257.992188 300.425781 263.710938 C 297.195312 273.707031 302.589844 284.171875 306.972656 293.714844 C 307.5625 295 308.335938 296.597656 308.929688 297.957031 C 308.914062 297.976562 308.894531 298 308.875 298.019531 C 299.292969 308.464844 288.371094 317.660156 276.378906 325.335938 C 276.351562 325.355469 276.316406 325.375 276.289062 325.394531 C 271.503906 323.339844 266.652344 320.261719 262.652344 317.15625 C 251.984375 308.882812 241.996094 298.464844 228.773438 295.761719 C 216.179688 293.191406 201.988281 298.019531 190.855469 291.601562 C 183.304688 287.253906 177.886719 278.066406 169.175781 277.921875 C 157.453125 277.730469 150.449219 294.316406 138.746094 293.621094 C 129.65625 293.074219 124.996094 282.699219 122.527344 273.941406 C 120.066406 265.1875 116.09375 254.738281 107.09375 253.339844 C 99.917969 252.230469 93.410156 257.863281 89.480469 263.972656 C 85.550781 270.078125 82.890625 277.179688 77.515625 282.0625 C 73.070312 286.101562 66.6875 288.28125 61.035156 290.59375 C 47.046875 273.390625 36.480469 253.292969 30.390625 231.34375 C 30.390625 231.34375 30.3125 231.066406 30.183594 230.578125 C 32.390625 231.078125 34.691406 231.34375 37.046875 231.34375 " fill-opacity="1" fill-rule="nonzero"/><path fill="#00ff00" d="M 262.652344 317.15625 C 266.652344 320.261719 271.503906 323.339844 276.289062 325.394531 C 250.847656 341.660156 220.609375 351.089844 188.164062 351.089844 C 136.898438 351.089844 91.132812 327.546875 61.113281 290.691406 C 61.085938 290.660156 61.058594 290.625 61.035156 290.59375 C 66.6875 288.28125 73.070312 286.101562 77.515625 282.0625 C 82.890625 277.179688 85.550781 270.078125 89.480469 263.972656 C 93.410156 257.863281 99.917969 252.230469 107.09375 253.339844 C 116.09375 254.738281 120.066406 265.1875 122.527344 273.941406 C 124.996094 282.699219 129.65625 293.074219 138.746094 293.621094 C 150.449219 294.316406 157.453125 277.730469 169.175781 277.921875 C 177.886719 278.066406 183.304688 287.253906 190.855469 291.601562 C 201.988281 298.019531 216.179688 293.191406 228.773438 295.761719 C 241.996094 298.464844 251.984375 308.882812 262.652344 317.15625 " fill-opacity="1" fill-rule="nonzero"/><path fill="#00ff00" d="M 210.855469 25.460938 C 210.871094 25.460938 210.890625 25.464844 210.90625 25.464844 C 205.503906 29.691406 199.925781 34.628906 195.828125 40.050781 C 189.421875 48.527344 185.605469 59.617188 188.238281 69.910156 C 189.867188 76.289062 193.769531 81.804688 196.550781 87.769531 C 199.335938 93.734375 200.933594 100.933594 197.863281 106.753906 C 193.023438 115.910156 180.144531 116.363281 169.964844 114.429688 C 159.792969 112.503906 148.210938 109.714844 139.898438 115.886719 C 133.269531 120.796875 131.246094 129.882812 131.496094 138.121094 C 131.550781 139.824219 131.730469 141.890625 131.902344 143.648438 L 37.046875 143.648438 C 34.699219 143.648438 32.414062 143.910156 30.214844 144.40625 C 30.320312 143.941406 30.390625 143.648438 30.390625 143.648438 C 49.570312 74.585938 112.941406 23.898438 188.164062 23.898438 C 195.859375 23.898438 203.4375 24.433594 210.855469 25.460938 " fill-opacity="1" fill-rule="nonzero"/><path fill="#000000" d="M 131.878906 148.78125 C 129.273438 148.78125 127.039062 146.808594 126.773438 144.160156 C 126.546875 141.917969 126.417969 140.050781 126.363281 138.277344 C 126.152344 131.429688 127.238281 118.882812 136.839844 111.769531 C 146.417969 104.65625 158.890625 107.066406 168.914062 109 C 169.589844 109.128906 170.257812 109.257812 170.921875 109.386719 C 175.132812 110.1875 189.183594 112.183594 193.324219 104.355469 C 195.769531 99.71875 193.480469 93.332031 191.894531 89.9375 C 191.039062 88.09375 190.054688 86.285156 189.015625 84.367188 C 186.800781 80.28125 184.507812 76.054688 183.261719 71.179688 C 181.78125 65.402344 181.929688 59.261719 183.695312 52.921875 C 185.234375 47.394531 188.011719 41.875 191.730469 36.957031 C 195.683594 31.722656 200.605469 26.933594 207.699219 21.429688 C 209.9375 19.691406 213.167969 20.097656 214.90625 22.339844 C 216.644531 24.578125 216.238281 27.800781 214 29.539062 C 207.652344 34.464844 203.3125 38.65625 199.929688 43.144531 C 193.734375 51.335938 191.226562 60.867188 193.214844 68.640625 C 194.144531 72.28125 196.039062 75.777344 198.046875 79.476562 C 199.113281 81.441406 200.21875 83.476562 201.207031 85.601562 C 205.390625 94.566406 205.804688 102.710938 202.40625 109.148438 C 199.488281 114.671875 194.132812 118.347656 186.921875 119.785156 C 180.355469 121.089844 173.554688 120.335938 169.007812 119.472656 C 168.332031 119.34375 167.648438 119.210938 166.960938 119.078125 C 158.089844 117.367188 148.910156 115.59375 142.960938 120.007812 C 136.890625 124.507812 136.511719 134.0625 136.628906 137.964844 C 136.679688 139.488281 136.792969 141.132812 136.996094 143.136719 C 137.277344 145.957031 135.21875 148.472656 132.398438 148.753906 C 132.222656 148.773438 132.050781 148.78125 131.878906 148.78125 " fill-opacity="1" fill-rule="nonzero"/><path fill="#000000" d="M 313.121094 148.78125 C 311.847656 148.78125 310.570312 148.308594 309.574219 147.359375 C 306.511719 144.4375 301.769531 143 296.746094 141.476562 C 296.230469 141.316406 295.714844 141.160156 295.203125 141.003906 C 288.195312 138.839844 279.683594 135.308594 276.046875 127.125 C 273.386719 121.148438 274.089844 113.554688 277.980469 106.289062 C 279.71875 103.046875 281.828125 100.1875 283.863281 97.421875 C 285.253906 95.53125 286.566406 93.753906 287.730469 91.910156 C 292.1875 84.84375 294.550781 76.238281 294.390625 67.675781 C 294.339844 64.84375 296.597656 62.5 299.433594 62.449219 C 302.277344 62.402344 304.613281 64.652344 304.664062 67.484375 C 304.859375 78.027344 301.933594 88.644531 296.421875 97.382812 C 295.058594 99.539062 293.574219 101.554688 292.136719 103.507812 C 290.230469 106.097656 288.425781 108.542969 287.035156 111.136719 C 285.910156 113.238281 283.496094 118.605469 285.4375 122.957031 C 287.394531 127.363281 293.304688 129.671875 298.234375 131.195312 C 298.730469 131.347656 299.230469 131.5 299.734375 131.652344 C 305.40625 133.375 311.835938 135.328125 316.667969 139.933594 C 318.71875 141.890625 318.796875 145.140625 316.835938 147.191406 C 315.828125 148.246094 314.476562 148.78125 313.121094 148.78125 " fill-opacity="1" fill-rule="nonzero"/><g clip-path="url(#dd8c13b2f9)"><path fill="#000000" d="M 188.164062 356.222656 C 175.191406 356.222656 162.265625 354.746094 149.742188 351.835938 C 137.5625 349.003906 125.683594 344.792969 114.425781 339.328125 C 103.375 333.960938 92.878906 327.355469 83.226562 319.695312 C 73.640625 312.089844 64.859375 303.417969 57.132812 293.929688 C 42.335938 275.765625 31.675781 255.171875 25.4375 232.714844 C 24.679688 229.984375 26.28125 227.15625 29.015625 226.398438 C 31.75 225.636719 34.578125 227.238281 35.339844 229.96875 C 41.191406 251.050781 51.207031 270.390625 65.097656 287.449219 C 95.386719 324.632812 140.238281 345.957031 188.164062 345.957031 C 218.578125 345.957031 248.121094 337.332031 273.605469 321.015625 C 285.1875 313.601562 295.777344 304.695312 305.089844 294.550781 C 321.945312 276.179688 334.359375 253.851562 340.988281 229.96875 C 341.746094 227.238281 344.578125 225.640625 347.3125 226.398438 C 350.046875 227.15625 351.648438 229.984375 350.890625 232.714844 C 343.824219 258.148438 330.605469 281.929688 312.660156 301.488281 C 302.75 312.285156 291.476562 321.765625 279.148438 329.660156 C 252.007812 347.039062 220.542969 356.222656 188.164062 356.222656 " fill-opacity="1" fill-rule="nonzero"/></g><g clip-path="url(#f17c3d40d7)"><path fill="#000000" d="M 30.390625 148.78125 C 29.9375 148.78125 29.472656 148.722656 29.015625 148.59375 C 26.28125 147.835938 24.679688 145.007812 25.4375 142.273438 C 30.324219 124.6875 38.015625 108.082031 48.300781 92.921875 C 58.433594 77.996094 70.820312 64.835938 85.121094 53.8125 C 99.578125 42.671875 115.617188 34.003906 132.789062 28.050781 C 150.558594 21.890625 169.1875 18.765625 188.164062 18.765625 C 195.984375 18.765625 203.855469 19.308594 211.558594 20.375 C 228.804688 22.765625 245.496094 27.792969 261.175781 35.3125 C 276.46875 42.652344 290.550781 52.242188 303.027344 63.816406 C 326 85.128906 342.554688 112.257812 350.890625 142.273438 C 351.648438 145.007812 350.046875 147.835938 347.3125 148.59375 C 344.578125 149.351562 341.746094 147.753906 340.988281 145.019531 C 333.164062 116.835938 317.617188 91.355469 296.035156 71.339844 C 272.082031 49.117188 242.378906 35.007812 210.148438 30.542969 C 202.910156 29.539062 195.511719 29.03125 188.164062 29.03125 C 117.148438 29.03125 54.304688 76.726562 35.339844 145.019531 C 34.707031 147.292969 32.640625 148.78125 30.390625 148.78125 " fill-opacity="1" fill-rule="nonzero"/></g><path fill="#000000" d="M 276.375 330.472656 C 275.714844 330.472656 275.046875 330.339844 274.398438 330.074219 C 269.410156 327.988281 264.398438 325.007812 259.5 321.210938 C 257.230469 319.449219 254.980469 317.589844 252.804688 315.785156 C 244.664062 309.042969 236.972656 302.675781 227.742188 300.789062 C 223.320312 299.886719 218.523438 300.023438 213.445312 300.160156 C 204.992188 300.398438 196.257812 300.640625 188.289062 296.046875 C 185.105469 294.214844 182.429688 291.8125 179.84375 289.488281 C 176.03125 286.066406 172.742188 283.113281 169.085938 283.050781 C 169.050781 283.050781 169.015625 283.050781 168.980469 283.050781 C 165.183594 283.050781 161.4375 286.285156 157.472656 289.707031 C 152.300781 294.167969 146.441406 299.21875 138.441406 298.742188 C 134.496094 298.507812 128.777344 296.757812 123.933594 289.789062 C 121.390625 286.128906 119.253906 281.265625 117.582031 275.332031 C 114.5 264.363281 111.023438 259.144531 106.304688 258.414062 C 101.515625 257.671875 96.707031 262.230469 93.804688 266.746094 C 92.65625 268.527344 91.617188 270.421875 90.511719 272.429688 C 87.941406 277.105469 85.28125 281.941406 80.972656 285.859375 C 76.339844 290.070312 70.808594 292.304688 65.464844 294.460938 C 64.667969 294.78125 63.875 295.105469 63.082031 295.433594 C 60.460938 296.515625 57.457031 295.273438 56.371094 292.65625 C 55.285156 290.039062 56.527344 287.035156 59.148438 285.949219 C 59.96875 285.609375 60.792969 285.277344 61.617188 284.945312 C 66.332031 283.039062 70.785156 281.242188 74.058594 278.265625 C 77.101562 275.5 79.242188 271.609375 81.507812 267.484375 C 82.648438 265.414062 83.824219 263.273438 85.164062 261.195312 C 91.183594 251.832031 99.679688 246.996094 107.882812 248.269531 C 113.433594 249.132812 118.054688 252.460938 121.621094 258.164062 C 124.53125 262.824219 126.277344 268.300781 127.472656 272.554688 C 129.464844 279.628906 133.09375 288.140625 139.054688 288.496094 C 142.890625 288.726562 146.535156 285.578125 150.757812 281.933594 C 155.796875 277.589844 161.515625 272.65625 169.257812 272.789062 C 176.753906 272.914062 182.042969 277.664062 186.710938 281.851562 C 189.003906 283.914062 191.167969 285.859375 193.421875 287.152344 C 198.871094 290.296875 205.8125 290.105469 213.160156 289.898438 C 218.597656 289.75 224.21875 289.59375 229.796875 290.730469 C 241.546875 293.132812 250.601562 300.628906 259.359375 307.882812 C 261.472656 309.632812 263.65625 311.441406 265.800781 313.101562 C 269.921875 316.296875 274.265625 318.890625 278.359375 320.601562 C 280.976562 321.695312 282.210938 324.699219 281.117188 327.316406 C 280.296875 329.285156 278.386719 330.472656 276.375 330.472656 " fill-opacity="1" fill-rule="nonzero"/><path fill="#000000" d="M 308.875 303.148438 C 306.871094 303.148438 304.972656 301.976562 304.140625 300.015625 C 303.585938 298.707031 302.984375 297.34375 302.304688 295.84375 C 302.023438 295.242188 301.738281 294.621094 301.449219 294 C 296.972656 284.339844 291.898438 273.390625 295.539062 262.132812 C 297.8125 255.101562 303.105469 249.867188 307.355469 245.660156 C 315.382812 237.71875 323.402344 230.28125 333.261719 226.542969 C 335.914062 225.539062 338.878906 226.871094 339.886719 229.523438 C 340.890625 232.171875 339.558594 235.136719 336.90625 236.140625 C 328.917969 239.171875 322.070312 245.546875 314.585938 252.953125 C 310.945312 256.554688 306.820312 260.636719 305.3125 265.289062 C 302.910156 272.722656 306.910156 281.347656 310.769531 289.683594 C 311.066406 290.320312 311.355469 290.949219 311.644531 291.574219 C 312.371094 293.171875 313.011719 294.621094 313.605469 296.015625 C 314.710938 298.625 313.484375 301.636719 310.875 302.742188 C 310.21875 303.019531 309.542969 303.148438 308.875 303.148438 " fill-opacity="1" fill-rule="nonzero"/><path fill="#000000" d="M 201.039062 213.078125 C 198.792969 213.078125 196.808594 211.621094 196.136719 209.484375 L 188.164062 184.152344 L 180.191406 209.484375 C 179.515625 211.621094 177.535156 213.078125 175.289062 213.078125 C 173.046875 213.078125 171.0625 211.621094 170.390625 209.484375 L 157.515625 168.585938 C 156.664062 165.882812 158.167969 163 160.875 162.152344 C 163.582031 161.300781 166.464844 162.804688 167.316406 165.507812 L 175.289062 190.835938 L 183.265625 165.507812 C 183.9375 163.367188 185.921875 161.914062 188.164062 161.914062 C 190.40625 161.914062 192.390625 163.367188 193.0625 165.507812 L 201.039062 190.835938 L 209.011719 165.507812 C 209.859375 162.804688 212.746094 161.300781 215.453125 162.152344 C 218.15625 163 219.660156 165.882812 218.808594 168.585938 L 205.9375 209.484375 C 205.265625 211.621094 203.28125 213.078125 201.039062 213.078125 " fill-opacity="1" fill-rule="nonzero"/><path fill="#000000" d="M 126.75 213.078125 C 124.503906 213.078125 122.519531 211.621094 121.847656 209.484375 L 113.875 184.152344 L 105.902344 209.484375 C 105.226562 211.621094 103.246094 213.078125 101 213.078125 C 98.757812 213.078125 96.773438 211.621094 96.101562 209.484375 L 83.226562 168.585938 C 82.375 165.882812 83.878906 163 86.585938 162.152344 C 89.292969 161.300781 92.175781 162.804688 93.027344 165.507812 L 101 190.835938 L 108.976562 165.507812 C 109.648438 163.367188 111.632812 161.914062 113.875 161.914062 C 116.117188 161.914062 118.101562 163.367188 118.773438 165.507812 L 126.75 190.835938 L 134.722656 165.507812 C 135.570312 162.804688 138.457031 161.300781 141.164062 162.152344 C 143.867188 163 145.371094 165.882812 144.519531 168.585938 L 131.648438 209.484375 C 130.976562 211.621094 128.992188 213.078125 126.75 213.078125 " fill-opacity="1" fill-rule="nonzero"/><path fill="#000000" d="M 275.324219 213.078125 C 273.082031 213.078125 271.097656 211.621094 270.425781 209.484375 L 262.453125 184.152344 L 254.480469 209.484375 C 253.804688 211.621094 251.824219 213.078125 249.578125 213.078125 C 247.335938 213.078125 245.351562 211.621094 244.679688 209.484375 L 231.804688 168.585938 C 230.953125 165.882812 232.457031 163 235.164062 162.152344 C 237.871094 161.300781 240.753906 162.804688 241.605469 165.507812 L 249.578125 190.835938 L 257.550781 165.507812 C 258.226562 163.367188 260.210938 161.914062 262.453125 161.914062 C 264.695312 161.914062 266.679688 163.367188 267.351562 165.507812 L 275.324219 190.835938 L 283.300781 165.507812 C 284.148438 162.804688 287.035156 161.300781 289.738281 162.152344 C 292.445312 163 293.953125 165.882812 293.101562 168.585938 L 280.226562 209.484375 C 279.554688 211.621094 277.570312 213.078125 275.324219 213.078125 " fill-opacity="1" fill-rule="nonzero"/><g clip-path="url(#26a9cb3a02)"><path fill="#000000" d="M 37.046875 148.78125 C 22.855469 148.78125 11.3125 160.316406 11.3125 174.492188 L 11.3125 200.496094 C 11.3125 214.675781 22.855469 226.210938 37.046875 226.210938 L 339.28125 226.210938 C 353.46875 226.210938 365.015625 214.675781 365.015625 200.496094 L 365.015625 174.492188 C 365.015625 160.316406 353.46875 148.78125 339.28125 148.78125 Z M 339.28125 236.476562 L 37.046875 236.476562 C 17.191406 236.476562 1.039062 220.335938 1.039062 200.496094 L 1.039062 174.492188 C 1.039062 154.65625 17.191406 138.515625 37.046875 138.515625 L 339.28125 138.515625 C 359.136719 138.515625 375.289062 154.65625 375.289062 174.492188 L 375.289062 200.496094 C 375.289062 220.335938 359.136719 236.476562 339.28125 236.476562 " fill-opacity="1" fill-rule="nonzero"/></g></svg>