<svg xmlns:inkscape="http://www.inkscape.org/namespaces/inkscape" xmlns:sodipodi="http://sodipodi.sourceforge.net/DTD/sodipodi-0.dtd" xmlns="http://www.w3.org/2000/svg" xmlns:svg="http://www.w3.org/2000/svg" version="1.1" id="svg8341" sodipodi:docname="girl.svg" inkscape:version="1.2.2 (b0a8486, 2022-12-01)" viewBox="7.65 41.85 200 204.38">
  <sodipodi:namedview id="namedview8343" pagecolor="#ffffff" bordercolor="#000000" borderopacity="0.25" inkscape:showpageshadow="2" inkscape:pageopacity="0.0" inkscape:pagecheckerboard="0" inkscape:deskcolor="#d1d1d1" inkscape:document-units="mm" showgrid="false" inkscape:zoom="0.71420027" inkscape:cx="392.0469" inkscape:cy="462.05527" inkscape:window-width="1440" inkscape:window-height="872" inkscape:window-x="0" inkscape:window-y="28" inkscape:window-maximized="0" inkscape:current-layer="layer1"/>
  <defs id="defs8338"/>
  <g inkscape:label="Layer 1" inkscape:groupmode="layer" id="layer1">
    <path fill="#2e1144" d="m 149.36995,167.07568 c -4.4208,5.18647 -10.28698,8.96988 -16.40806,11.94598 -17.59821,8.50242 -37.619394,10.50023 -57.173114,10.50023 -11.264566,0 -22.699393,-0.68002 -33.326226,-4.37848 -7.566461,-2.63589 -14.707774,-6.97207 -19.978887,-12.88126 2.253067,-7.31225 5.526007,-14.15637 10.584527,-20.10819 -5.441034,4.76133 -9.861827,10.62786 -12.922534,17.17476 -1.190146,-1.6153 -2.210393,-3.31593 -3.10302,-5.14383 -4.930906,-10.11775 -3.99564,-23.42414 3.910694,-31.45912 5.653593,-5.78156 13.900106,-8.20454 20.446326,-12.8809 5.313774,-3.78376 9.35206,-9.18282 11.817347,-15.21927 2.12542,-5.229136 3.315593,-11.393549 2.46562,-17.004849 -0.38286,-2.593247 -1.147847,-4.03864 0,-6.54692 1.190167,-2.550941 3.23064,-4.931607 5.100833,-7.014721 7.694087,-8.41714 18.95864,-13.603607 30.393134,-13.348727 15.72801,0.340194 30.77599,10.968061 36.30198,25.719861 2.59289,6.84446 3.31559,14.496576 7.43885,20.533366 3.40056,4.93126 8.67165,8.16224 12.83721,12.4561 6.07878,6.24937 9.73456,14.79412 10.03209,23.50911 0.29754,8.75732 -2.76316,17.51497 -8.41677,24.14686 z m 0,0" fill-opacity="1" fill-rule="nonzero" id="path660" style="fill:#f5bb68;fill-opacity:1;stroke-width:0.0880587"/>
    <path fill="#ff93e2" d="m 134.32233,109.17435 0.0423,18.96036 c 0.12763,3.69844 -1.27511,6.88678 -3.40056,9.39504 -3.61312,4.33618 -6.71614,6.07912 -12.11486,6.41931 l -13.04981,0.21259 -2.08278,0.0427 0.33985,7.43954 0.38251,8.11992 -10.754447,11.90332 -28.905427,-14.79447 -2.5929,-45.36026 -2.253046,-13.731226 h 0.1276 c -0.08495,-1.02058 -0.1276,-2.083127 -0.1276,-3.146013 0,-20.660981 16.748233,-37.410615 37.40716,-37.410615 20.65891,0 33.62375,13.136154 36.76944,33.541901 0.33985,2.295707 0.16991,6.972074 0.085,10.203053 z m 0,0" fill-opacity="1" fill-rule="nonzero" id="path662" style="fill:#ffe5f3;fill-opacity:1;stroke-width:0.0880587"/>
    <path fill="#b179ff" d="m 100.01818,123.24577 c 0,0.23356 -0.005,0.46746 -0.0172,0.70068 -0.01133,0.23356 -0.02853,0.46678 -0.0516,0.6993 -0.02273,0.23254 -0.05127,0.46472 -0.08564,0.69587 -0.0344,0.23115 -0.07431,0.46162 -0.120053,0.69071 -0.0454,0.22943 -0.09665,0.45748 -0.153414,0.68417 -0.05673,0.22668 -0.119013,0.45199 -0.18712,0.67557 -0.06776,0.22393 -0.14104,0.44579 -0.219806,0.66594 -0.07876,0.2198 -0.1627,0.43788 -0.252134,0.6539 -0.08943,0.21601 -0.184366,0.42962 -0.284126,0.64118 -0.100107,0.2112 -0.205014,0.41999 -0.315427,0.62603 -0.110067,0.20638 -0.225307,0.40967 -0.345353,0.61021 -0.120054,0.2002 -0.245254,0.39764 -0.374934,0.59234 -0.130026,0.19434 -0.26452,0.38524 -0.403826,0.57306 -0.139314,0.1878 -0.2831,0.37184 -0.431347,0.55276 -0.148253,0.18059 -0.30098,0.35774 -0.45784,0.53077 -0.156847,0.17336 -0.318173,0.34261 -0.48328,0.5077 -0.16546,0.16546 -0.334693,0.32644 -0.50772,0.48363 -0.17336,0.15686 -0.35016,0.3096 -0.530753,0.45784 -0.180934,0.14826 -0.364954,0.29204 -0.552774,0.43136 -0.187813,0.13931 -0.378713,0.2738 -0.573066,0.40381 -0.19434,0.12969 -0.391787,0.2549 -0.59232,0.37495 -0.200547,0.12005 -0.403834,0.23528 -0.609874,0.34568 -0.206393,0.11008 -0.415186,0.215 -0.626386,0.3151 -0.211194,0.10009 -0.424807,0.19469 -0.640827,0.28411 -0.21602,0.0894 -0.4341,0.17372 -0.6539,0.2525 -0.220147,0.0788 -0.442013,0.15202 -0.66594,0.2198 -0.223587,0.0678 -0.448893,0.13 -0.675573,0.18713 -0.22668,0.0567 -0.45474,0.108 -0.683827,0.1534 -0.229433,0.0457 -0.459553,0.0857 -0.690707,0.12005 -0.231153,0.0341 -0.463333,0.0626 -0.69586,0.0857 -0.232526,0.0231 -0.465753,0.0403 -0.698966,0.0516 -0.23356,0.0113 -0.46712,0.0172 -0.701027,0.0172 -0.23356,0 -0.467113,-0.006 -0.70068,-0.0172 -0.23356,-0.0113 -0.466433,-0.0285 -0.699307,-0.0516 -0.232526,-0.0231 -0.464366,-0.0516 -0.69552,-0.0857 -0.231493,-0.0344 -0.461613,-0.0743 -0.690706,-0.12005 -0.229427,-0.0454 -0.457494,-0.0966 -0.684167,-0.1534 -0.22668,-0.0571 -0.451987,-0.11938 -0.675573,-0.18713 -0.22358,-0.0678 -0.445454,-0.14138 -0.6656,-0.2198 -0.220147,-0.0788 -0.43822,-0.16305 -0.654247,-0.2525 -0.216013,-0.0894 -0.429627,-0.18402 -0.64082,-0.28411 -0.2112,-0.10011 -0.419993,-0.20501 -0.62604,-0.3151 -0.206387,-0.11041 -0.409673,-0.22563 -0.61022,-0.34568 -0.200193,-0.12006 -0.397633,-0.24526 -0.59198,-0.37495 -0.194353,-0.13001 -0.385593,-0.2645 -0.573407,-0.40381 -0.18748,-0.13932 -0.37184,-0.2831 -0.552433,-0.43136 -0.180933,-0.14824 -0.357733,-0.30098 -0.530753,-0.45784 -0.173367,-0.15719 -0.342607,-0.31817 -0.50772,-0.48363 -0.165447,-0.16509 -0.326427,-0.33434 -0.48362,-0.5077 -0.15686,-0.17303 -0.309587,-0.35018 -0.45784,-0.53077 -0.148254,-0.18092 -0.29204,-0.36496 -0.431347,-0.55276 -0.139307,-0.18782 -0.273807,-0.37872 -0.40348,-0.57306 -0.130027,-0.1947 -0.254893,-0.39214 -0.37528,-0.59234 -0.12004,-0.20054 -0.23528,-0.40383 -0.345353,-0.61021 -0.110067,-0.20604 -0.215334,-0.41483 -0.31508,-0.62603 -0.100107,-0.21156 -0.1947,-0.42517 -0.284134,-0.64118 -0.08943,-0.21602 -0.173706,-0.4341 -0.25248,-0.6539 -0.07876,-0.22015 -0.15204,-0.44201 -0.2198,-0.66594 -0.06776,-0.22358 -0.13036,-0.44889 -0.18712,-0.67557 -0.05673,-0.22669 -0.108013,-0.45474 -0.15342,-0.68417 -0.04573,-0.22909 -0.08565,-0.45956 -0.120053,-0.69071 -0.03407,-0.23115 -0.0626,-0.46333 -0.08565,-0.69587 -0.02307,-0.23252 -0.04027,-0.46574 -0.0516,-0.6993 -0.01133,-0.23322 -0.0172,-0.46712 -0.0172,-0.70068 0,-0.23391 0.006,-0.46747 0.0172,-0.70102 0.01133,-0.23357 0.02853,-0.46644 0.0516,-0.69896 0.02307,-0.23288 0.0516,-0.46472 0.08565,-0.69588 0.0344,-0.23149 0.07431,-0.46162 0.120053,-0.69104 0.0454,-0.2291 0.09667,-0.45716 0.15342,-0.68384 0.05673,-0.22667 0.11936,-0.45198 0.18712,-0.67591 0.06776,-0.22358 0.141034,-0.44545 0.2198,-0.66559 0.07877,-0.22015 0.163054,-0.43823 0.25248,-0.65425 0.08943,-0.21567 0.184027,-0.42963 0.284134,-0.64083 0.09975,-0.2112 0.205006,-0.41999 0.31508,-0.62604 0.110066,-0.20638 0.225306,-0.40967 0.345353,-0.61021 0.120387,-0.20054 0.245253,-0.39798 0.37528,-0.59233 0.12968,-0.19435 0.264173,-0.38525 0.40348,-0.57306 0.139307,-0.18782 0.283093,-0.37219 0.431347,-0.55278 0.148253,-0.18058 0.30098,-0.35773 0.45784,-0.53075 0.157193,-0.17337 0.318173,-0.34261 0.48362,-0.50806 0.165113,-0.16511 0.334353,-0.32643 0.50772,-0.48329 0.17302,-0.15685 0.34982,-0.30958 0.530753,-0.45783 0.180593,-0.14825 0.364953,-0.29203 0.552433,-0.43135 0.187814,-0.13931 0.379054,-0.2738 0.573407,-0.40382 0.194347,-0.12968 0.391787,-0.25489 0.59198,-0.37494 0.200547,-0.12038 0.403833,-0.23562 0.61022,-0.3457 0.206047,-0.11006 0.41484,-0.21533 0.62604,-0.31508 0.211193,-0.1001 0.424807,-0.19469 0.64082,-0.28412 0.216027,-0.0894 0.4341,-0.17372 0.654247,-0.25248 0.220146,-0.0788 0.44202,-0.15204 0.6656,-0.2198 0.223586,-0.0678 0.448893,-0.13036 0.675573,-0.18713 0.226673,-0.0567 0.45474,-0.10801 0.684167,-0.15341 0.229093,-0.0457 0.459213,-0.0857 0.690706,-0.12004 0.231154,-0.0344 0.462994,-0.0629 0.69552,-0.0857 0.232874,-0.0231 0.465747,-0.0403 0.699307,-0.0516 0.23322,-0.0117 0.46712,-0.0172 0.70068,-0.0172 0.233907,0 0.467467,0.005 0.701027,0.0172 0.233213,0.0113 0.46644,0.0285 0.698966,0.0516 0.232527,0.0227 0.464707,0.0513 0.69586,0.0857 0.231154,0.0344 0.461274,0.0743 0.690707,0.12004 0.229087,0.0454 0.457147,0.0966 0.683827,0.15341 0.22668,0.0567 0.451986,0.11936 0.675573,0.18713 0.223927,0.0678 0.445793,0.14102 0.66594,0.2198 0.2198,0.0788 0.43788,0.16304 0.6539,0.25248 0.21602,0.0894 0.429633,0.18402 0.640827,0.28412 0.2112,0.0998 0.419993,0.20501 0.626386,0.31508 0.20604,0.11007 0.409327,0.22531 0.609874,0.3457 0.200533,0.12006 0.39798,0.24526 0.59232,0.37494 0.194353,0.13002 0.385253,0.26451 0.573066,0.40382 0.18782,0.13932 0.37184,0.2831 0.552774,0.43135 0.180593,0.14825 0.357393,0.30098 0.530753,0.45783 0.173027,0.15686 0.34226,0.31818 0.50772,0.48329 0.165107,0.16545 0.326433,0.33469 0.48328,0.50806 0.15686,0.17302 0.309587,0.35017 0.45784,0.53075 0.148247,0.18059 0.292033,0.36496 0.431347,0.55278 0.139306,0.18781 0.273806,0.37871 0.403826,0.57306 0.12968,0.19435 0.254887,0.39179 0.374934,0.59233 0.120053,0.20054 0.23528,0.40383 0.345353,0.61021 0.110413,0.20605 0.215327,0.41484 0.315427,0.62604 0.09976,0.2112 0.194693,0.42516 0.284126,0.64083 0.08944,0.21602 0.173367,0.4341 0.252134,0.65425 0.07876,0.22014 0.152046,0.44201 0.219806,0.66559 0.06811,0.22393 0.130374,0.44924 0.18712,0.67591 0.05673,0.22668 0.108,0.45474 0.153414,0.68418 0.04573,0.22908 0.08565,0.45921 0.120053,0.6907 0.0344,0.23116 0.06293,0.463 0.08564,0.69588 0.02307,0.23252 0.04027,0.46539 0.0516,0.69896 0.0116,0.23355 0.0172,0.46711 0.0172,0.70102 z m 0,0" fill-opacity="0.4392" fill-rule="nonzero" id="path664" style="fill:#ffbdfa;fill-opacity:0.449;stroke-width:0.0880587"/>
    <path fill="#b179ff" d="m 134.40729,128.13471 c 0.12761,3.69844 -1.27546,6.88678 -3.40056,9.39504 -7.6091,-0.34018 -13.64523,-6.5892 -13.64523,-14.28398 0,-7.90735 6.41861,-14.32665 14.32528,-14.32665 0.93527,0 1.8279,0.085 2.67785,0.25523 z m 0,0" fill-opacity="0.4588" fill-rule="nonzero" id="path666" style="fill:#ffbdfa;fill-opacity:0.449;stroke-width:0.0880587"/>
    <path fill="#2e1144" d="m 95.427456,110.49213 c 0,0.12796 -0.006,0.25592 -0.01893,0.38319 -0.0124,0.12761 -0.03133,0.25419 -0.0564,0.37975 -0.0248,0.12554 -0.05607,0.24973 -0.09321,0.37252 -0.03713,0.12246 -0.08016,0.24286 -0.129347,0.36118 -0.04887,0.11832 -0.103533,0.23391 -0.164067,0.34708 -0.0602,0.11281 -0.125906,0.22255 -0.197106,0.32918 -0.0712,0.10662 -0.147567,0.20914 -0.228747,0.3082 -0.08117,0.0991 -0.167173,0.19401 -0.25764,0.28447 -0.09045,0.0905 -0.1854,0.17647 -0.28446,0.25764 -0.09907,0.0812 -0.20158,0.15755 -0.308207,0.22875 -0.10664,0.0712 -0.216366,0.1369 -0.329186,0.19744 -0.112827,0.0602 -0.228407,0.11489 -0.347074,0.16408 -0.118333,0.0489 -0.238726,0.0918 -0.36118,0.12933 -0.122453,0.0371 -0.246633,0.0681 -0.37218,0.0932 -0.12556,0.0248 -0.252133,0.0437 -0.379746,0.0561 -0.12728,0.0128 -0.25524,0.0189 -0.383194,0.0189 -0.128293,0 -0.255926,-0.006 -0.38354,-0.0189 -0.127266,-0.0124 -0.253853,-0.0313 -0.379406,-0.0561 -0.125547,-0.0251 -0.249727,-0.0561 -0.37252,-0.0932 -0.122467,-0.0375 -0.24286,-0.0805 -0.36118,-0.12933 -0.118334,-0.0492 -0.233914,-0.10388 -0.347074,-0.16408 -0.112826,-0.0605 -0.22256,-0.12624 -0.329186,-0.19744 -0.106294,-0.0712 -0.20914,-0.14757 -0.308207,-0.22875 -0.09907,-0.0812 -0.19366,-0.16717 -0.284473,-0.25764 -0.09045,-0.0905 -0.17646,-0.1854 -0.257634,-0.28447 -0.08117,-0.0991 -0.15754,-0.20191 -0.2284,-0.3082 -0.0712,-0.10663 -0.136906,-0.21636 -0.197446,-0.32918 -0.06053,-0.11316 -0.115227,-0.22875 -0.16408,-0.34708 -0.0492,-0.11833 -0.09219,-0.23872 -0.12932,-0.36118 -0.03713,-0.1228 -0.06811,-0.24697 -0.09323,-0.37252 -0.02513,-0.12556 -0.04367,-0.25214 -0.0564,-0.37975 -0.0124,-0.12728 -0.0186,-0.25523 -0.0186,-0.38319 0,-0.12796 0.006,-0.25592 0.0186,-0.38354 0.01267,-0.12728 0.03133,-0.25385 0.0564,-0.3794 0.02513,-0.12591 0.05607,-0.24973 0.09323,-0.37253 0.03713,-0.12245 0.08015,-0.24285 0.12932,-0.36118 0.04887,-0.11832 0.103546,-0.23424 0.16408,-0.34707 0.06053,-0.11281 0.12624,-0.22255 0.197446,-0.32919 0.07087,-0.10662 0.14722,-0.20913 0.228407,-0.3082 0.08117,-0.0991 0.167167,-0.194 0.257973,-0.28446 0.09047,-0.0905 0.18506,-0.17646 0.284127,-0.25764 0.09907,-0.0815 0.20192,-0.15754 0.3082,-0.22875 0.10664,-0.0712 0.21636,-0.1369 0.329193,-0.19744 0.11316,-0.0602 0.22874,-0.11489 0.347067,-0.16408 0.118333,-0.0489 0.23872,-0.0922 0.361187,-0.12933 0.1228,-0.0371 0.246966,-0.0681 0.37252,-0.0932 0.125546,-0.0247 0.252133,-0.0437 0.379406,-0.0564 0.127614,-0.0124 0.255234,-0.0186 0.383534,-0.0186 0.12796,0 0.25592,0.006 0.383193,0.0186 0.127613,0.0128 0.2542,0.0317 0.379753,0.0564 0.125547,0.0251 0.249727,0.0561 0.37218,0.0932 0.122454,0.0371 0.242847,0.0805 0.36118,0.12933 0.118667,0.0492 0.23424,0.10388 0.347067,0.16408 0.112827,0.0605 0.222553,0.12624 0.329193,0.19744 0.106627,0.0712 0.209134,0.14722 0.3082,0.22875 0.09907,0.0812 0.194,0.16717 0.284467,0.25764 0.09047,0.0905 0.17646,0.1854 0.25764,0.28446 0.08117,0.0991 0.15754,0.20158 0.228747,0.3082 0.0712,0.10664 0.136906,0.21637 0.1971,0.32919 0.06053,0.11283 0.115226,0.22875 0.164073,0.34707 0.0492,0.11833 0.09219,0.23873 0.129347,0.36118 0.03713,0.1228 0.06845,0.24663 0.09321,0.37253 0.02513,0.12554 0.044,0.25213 0.0564,0.3794 0.0128,0.12762 0.01893,0.25558 0.01893,0.38354 z m 0,0" fill-opacity="1" fill-rule="nonzero" id="path668" style="fill:#000000;stroke-width:0.0880587"/>
    <path fill="#2e1144" d="m 125.63657,106.70356 c 0.12451,0.0296 0.2473,0.065 0.36873,0.10664 0.12108,0.0413 0.23975,0.0888 0.35636,0.14207 0.11663,0.053 0.23013,0.1118 0.34088,0.17611 0.11078,0.0643 0.21808,0.13416 0.32197,0.20914 0.10388,0.0746 0.20398,0.15445 0.29994,0.23941 0.096,0.0846 0.18783,0.17405 0.27518,0.26761 0.087,0.0936 0.16959,0.1916 0.24733,0.29342 0.0777,0.10181 0.15032,0.20707 0.21739,0.31611 0.0674,0.10904 0.12933,0.22118 0.18575,0.33607 0.0561,0.11489 0.10664,0.23253 0.15169,0.35257 0.0447,0.12006 0.0836,0.24182 0.11628,0.36565 0.0327,0.12384 0.0595,0.24904 0.0798,0.37562 0.0207,0.12624 0.0347,0.25351 0.043,0.38113 0.008,0.12796 0.01,0.25592 0.005,0.38388 -0.005,0.12796 -0.0155,0.25558 -0.0323,0.3825 -0.0172,0.12693 -0.0406,0.25282 -0.0698,0.37734 -0.0296,0.12487 -0.065,0.24767 -0.10663,0.36874 -0.0413,0.12143 -0.0887,0.2401 -0.14207,0.35671 -0.053,0.1166 -0.11179,0.23012 -0.17613,0.34088 -0.0643,0.11076 -0.13414,0.21809 -0.20877,0.32197 -0.075,0.10388 -0.15479,0.20397 -0.23941,0.29994 -0.085,0.096 -0.17406,0.18782 -0.26797,0.27518 -0.0936,0.0874 -0.19124,0.16958 -0.29306,0.24732 -0.10183,0.0777 -0.20743,0.15032 -0.31645,0.21774 -0.10872,0.0674 -0.22084,0.129 -0.33572,0.1854 -0.11524,0.0564 -0.23255,0.10699 -0.35259,0.1517 -0.12005,0.0447 -0.24181,0.0836 -0.36566,0.11626 -0.12381,0.033 -0.24902,0.0595 -0.37562,0.0801 -0.12621,0.0207 -0.25349,0.0347 -0.38111,0.0427 -0.12798,0.008 -0.25593,0.01 -0.3839,0.005 -0.12793,-0.005 -0.25557,-0.0151 -0.38248,-0.0323 -0.12694,-0.0172 -0.2525,-0.0403 -0.37736,-0.0698 -0.12451,-0.0293 -0.24765,-0.065 -0.36873,-0.10629 -0.12108,-0.0416 -0.2401,-0.0891 -0.35636,-0.14207 -0.1166,-0.0533 -0.23014,-0.11213 -0.34088,-0.17646 -0.11077,-0.0643 -0.21809,-0.1338 -0.32196,-0.20879 -0.10389,-0.075 -0.20399,-0.15479 -0.29995,-0.23941 -0.0963,-0.085 -0.18782,-0.17405 -0.27518,-0.26761 -0.0874,-0.0939 -0.1696,-0.19159 -0.24733,-0.29341 -0.0777,-0.10183 -0.15031,-0.20742 -0.21773,-0.31646 -0.0671,-0.1087 -0.129,-0.22084 -0.18542,-0.33572 -0.0564,-0.11523 -0.10696,-0.23288 -0.15168,-0.35258 -0.0447,-0.12006 -0.0836,-0.24216 -0.11627,-0.36599 -0.0327,-0.12383 -0.0595,-0.2487 -0.0801,-0.37528 -0.0203,-0.12659 -0.0347,-0.25351 -0.0427,-0.38147 -0.008,-0.12796 -0.01,-0.25592 -0.005,-0.38388 0.005,-0.12796 0.0155,-0.25523 0.0323,-0.3825 0.0172,-0.12692 0.0406,-0.25248 0.0698,-0.37735 0.0295,-0.12452 0.065,-0.24766 0.10629,-0.36874 0.0416,-0.12108 0.0891,-0.24009 0.14205,-0.35636 0.0533,-0.1166 0.11215,-0.23046 0.17647,-0.34122 0.0643,-0.11042 0.1338,-0.21808 0.20878,-0.32196 0.075,-0.1039 0.15479,-0.20364 0.2394,-0.29996 0.085,-0.096 0.17406,-0.18746 0.26764,-0.27483 0.0939,-0.0874 0.19158,-0.16993 0.2934,-0.24767 0.10182,-0.0777 0.20743,-0.14997 0.31612,-0.21739 0.10904,-0.0674 0.22117,-0.12933 0.33608,-0.1854 0.11522,-0.0564 0.23252,-0.10697 0.35256,-0.15169 0.12004,-0.0451 0.24182,-0.0836 0.36566,-0.11662 0.12381,-0.0327 0.24902,-0.0595 0.37527,-0.0798 0.12659,-0.0207 0.25384,-0.0347 0.38148,-0.043 0.12793,-0.008 0.25591,-0.01 0.38387,-0.005 0.12794,0.005 0.25558,0.0155 0.38249,0.0323 0.12693,0.0172 0.25249,0.0406 0.37735,0.0698 z m 0,0" fill-opacity="1" fill-rule="nonzero" id="path670" style="fill:#000000;stroke-width:0.0880587"/>
    <path stroke-linecap="round" fill="none" stroke-linejoin="round" d="m 104.94909,115.67861 c 0,0 1.1052,7.26962 4.93091,7.142 3.86837,-0.12761 4.3785,-7.5245 4.3785,-7.5245" stroke="#2e1144" stroke-width="1.07763" stroke-opacity="1" stroke-miterlimit="10" id="path672" style="stroke:#000000;stroke-opacity:1"/>
    <path fill="#2e1144" d="m 84.332823,104.24276 c 0,0 1.402733,-5.653956 5.653607,-5.653956 4.250866,0 5.48334,2.040476 5.48334,2.040476 z m 0,0" fill-opacity="1" fill-rule="nonzero" id="path674" style="fill:#f5bb68;fill-opacity:1;stroke-width:0.0880587"/>
    <path fill="#2e1144" d="m 131.8144,103.0949 c 0,0 -2.21042,-5.399063 -6.41896,-4.803636 -4.20822,0.59508 -5.14349,2.805816 -5.14349,2.805816 z m 0,0" fill-opacity="1" fill-rule="nonzero" id="path676" style="fill:#f5bb68;fill-opacity:1;stroke-width:0.0880587"/>
    <path fill="#2e1144" d="m 103.75893,144.67176 0.38251,7.01438 c -3.14534,1.53071 -7.013704,2.38067 -11.306884,1.27548 C 81.18715,149.98586 76.93663,143.35399 76.93663,143.35399 l 26.90727,0.93527 z m 0,0" fill-opacity="0.4392" fill-rule="nonzero" id="path678" style="stroke-width:0.0880587"/>
    <path fill="#2e1144" d="m 61.54847,114.23322 c 0,0 11.902286,-3.57117 22.614433,-20.576016 10.711787,-17.004854 11.64706,-37.070421 11.64706,-37.070421 0,0 -38.80992,0.765353 -40.382567,13.816527 -1.57266,13.051187 2.678194,43.7023 2.678194,43.7023" fill-opacity="1" fill-rule="nonzero" id="path680" style="fill:#f5bb68;fill-opacity:1;stroke-width:0.0880587"/>
    <path fill="#00dbda" d="m 56.15009,86.898051 c 0,0 -16.238127,-26.315288 -13.517607,-32.479348 2.720513,-6.164412 31.923473,3.613473 31.923473,3.613473 0,0 -17.683166,13.008888 -18.405866,28.865875 z m 0,0" fill-opacity="1" fill-rule="nonzero" id="path682" style="fill:#ff00ff;fill-opacity:1;stroke-width:0.0880587"/>
    <path fill="#ffe7de" d="m 58.955576,76.610037 c 0,0 -10.712146,-16.409761 -8.20386,-19.215587 2.507927,-2.848134 19.55338,2.508266 19.55338,2.508266 z m 0,0" fill-opacity="1" fill-rule="nonzero" id="path684" style="fill:#00ffff;fill-opacity:1;stroke-width:0.0880587"/>
    <path fill="#00dbda" d="m 130.75151,77.757897 c 0,0 5.78122,-30.39622 1.06289,-35.157553 -4.71868,-4.761333 -28.56558,14.751792 -28.56558,14.751792 0,0 21.16904,5.823887 27.50269,20.405761 z m 0,0" fill-opacity="1" fill-rule="nonzero" id="path686" style="fill:#ff00ff;fill-opacity:1;stroke-width:0.0880587"/>
    <path fill="#ffe7de" d="m 128.75369,71.50851 c 0,0 4.16589,-19.13028 0.80765,-20.873553 -3.35825,-1.742933 -17.38562,9.310419 -17.38562,9.310419 z m 0,0" fill-opacity="1" fill-rule="nonzero" id="path688" style="fill:#00ffff;fill-opacity:1;stroke-width:0.0880587"/>
    <path fill="#00dbda" d="m 54.619723,100.16181 c -0.08495,-0.850313 -2.338007,-21.001173 8.714327,-34.987627 5.61096,-7.05704 13.60258,-11.223293 23.761946,-12.370806 0.680034,-0.1276 19.043604,-2.84846 24.824474,5.738906 l -3.27293,2.21076 c -3.6558,-5.399067 -16.408064,-4.76134 -21.041437,-4.038633 -9.18178,1.020233 -16.280773,4.718673 -21.211693,10.9254 -10.031754,12.668674 -7.906307,31.884267 -7.864,32.054194 z m 0,0" fill-opacity="1" fill-rule="nonzero" id="path690" style="fill:#ff00ff;fill-opacity:1;stroke-width:0.0880587"/>
    <path fill="#2e1144" d="m 119.40198,88.895871 c -1.06291,-4.761327 -2.42299,-9.522661 -5.31342,-13.391381 1.61532,4.25122 2.33767,8.842627 2.21039,13.391381 H 106.01198 C 103.16385,67.427216 84.80029,57.777296 84.80029,57.777296 c 0,0 16.74825,-5.654306 34.43177,2.12542 17.68317,7.779734 20.27607,28.993155 20.27607,28.993155 0,0 -20.10615,0 -20.10615,0 z m 0,0" fill-opacity="1" fill-rule="nonzero" id="path692" style="fill:#f5bb68;fill-opacity:1;stroke-width:0.0880587"/>
    <path fill="#ff93e2" d="m 72.217943,108.96177 c 0,0 -14.62246,-11.095659 -20.27608,-4.03863 -5.6536,7.05703 -4.293513,19.85298 12.284807,22.10603 z m 0,0" fill-opacity="1" fill-rule="nonzero" id="path694" style="stroke-width:0.0880587"/>
    <path fill="#2e1144" d="m 77.361436,101.86209 -6.843773,15.89965 -8.374113,-14.3693 z m 0,0" fill-opacity="1" fill-rule="nonzero" id="path696" style="fill:#f5bb68;fill-opacity:1;stroke-width:0.0880587"/>
    <path fill="#b179ff" d="m 64.566516,152.87665 c 0,0 18.066027,10.03277 26.355187,9.26777 8.28882,-0.76534 13.814817,-9.77789 13.559927,-9.01289 -0.25489,0.76536 42.1255,6.0368 48.4165,27.08029 6.29134,21.0435 10.28697,62.96054 10.28697,62.96054 H 7.6486228 c 0,0 0.765007,-52.41764 13.0498132,-65.00102 12.284787,-12.58372 43.86808,-25.29469 43.86808,-25.29469 z m 0,0" fill-opacity="1" fill-rule="nonzero" id="path698" style="fill:#080008;fill-opacity:1;stroke-width:0.0880587"/>
    <path fill="#ffe7de" d="m 52.664563,119.58964 c 0,9.8202 -7.90664,14.53921 -0.382847,16.66467 0.467814,0.12758 0.892627,0.25521 1.360427,0.34018 0.510133,0.085 0.97758,0.16992 1.487707,0.16992 0.3402,0.0427 0.637733,0.0427 0.977586,0.0427 0.637727,0 1.232807,-0.0427 1.827894,-0.12759 2.04048,-0.2549 3.910673,-0.97759 5.568646,-2.08313 5.143494,-3.35825 8.28916,-10.24536 8.28916,-18.32264 0,-8.58738 -3.570833,-16.06957 -9.266746,-19.300545 -1.445394,-0.80766 -3.060714,-1.360427 -4.760994,-1.572667 -0.552753,-0.08531 -0.637726,9.649932 -1.2328,9.649932 -0.55244,0 -3.528186,-1.61531 -4.0806,-1.57266 -0.42516,0.0423 1.105207,-7.992312 0.68004,-7.907345 -0.340186,0.08496 -0.68004,0.169926 -0.97758,0.254886 -7.439193,2.25339 0.510107,13.986449 0.510107,23.764349 z m 0,0" fill-opacity="1" fill-rule="nonzero" id="path700" style="fill:#00ffff;fill-opacity:1;stroke-width:0.0880587"/>
    <path fill="#00dbda" d="m 39.14695,116.10377 c 0,9.82021 5.610973,18.0674 13.134766,20.19318 0.467814,0.12761 0.892627,0.25489 1.360427,0.34019 0.29754,0.0423 0.595093,0.085 0.892633,0.12727 0.212574,0.0427 0.425147,0.0427 0.637734,0.0427 0.04233,0 0.08497,0 0.127253,0 0.29756,0.0427 0.552793,0.0427 0.850327,0.0427 0.637733,0 1.232813,-0.0427 1.8279,-0.12763 5.185786,-4.20889 8.288813,-11.69075 8.288813,-20.36343 0,-8.75731 -3.18798,-16.579699 -8.458747,-20.873226 -0.55276,-0.08496 -1.105546,-0.127613 -1.657966,-0.127613 -0.552767,0 -1.105207,0.04267 -1.65796,0.08497 -0.29754,0.04267 -0.552447,0.08496 -0.807674,0.127614 -0.127253,0 -0.29754,0.04233 -0.424813,0.08496 -0.08495,0 -0.17026,0.04267 -0.255233,0.04267 -0.25488,0.04233 -0.467454,0.12728 -0.722694,0.169927 C 44.715263,98.078724 39.14695,106.28361 39.14695,116.10381 Z m 0,0" fill-opacity="1" fill-rule="nonzero" id="path702" style="fill:#ff00ff;fill-opacity:1;stroke-width:0.0880587"/>
    <path stroke-linecap="butt" fill="none" stroke-linejoin="miter" d="m 52.749536,116.10377 c 0,0.2143 -0.002,0.42825 -0.006,0.64255 -0.004,0.21395 -0.01033,0.42756 -0.0186,0.64083 -0.0083,0.21326 -0.0186,0.42584 -0.03093,0.63774 -0.0124,0.21188 -0.0268,0.42308 -0.04333,0.63326 -0.0162,0.21016 -0.03473,0.4193 -0.055,0.62706 -0.02073,0.20776 -0.043,0.41415 -0.06743,0.61951 -0.02447,0.20501 -0.05087,0.4083 -0.07911,0.61021 -0.0286,0.20157 -0.0588,0.40142 -0.09114,0.59956 -0.032,0.19778 -0.06607,0.39385 -0.102174,0.58751 -0.03613,0.19366 -0.07397,0.38491 -0.11352,0.57409 -0.03953,0.18885 -0.08118,0.37528 -0.124506,0.55896 -0.043,0.18404 -0.08807,0.36497 -0.134854,0.54315 -0.0468,0.17818 -0.09528,0.35326 -0.145486,0.52525 -0.05027,0.17234 -0.101827,0.34122 -0.155147,0.50668 -0.05367,0.1658 -0.108347,0.32816 -0.1651,0.48673 -0.0564,0.15891 -0.114553,0.31405 -0.17406,0.4654 -0.05953,0.15169 -0.120393,0.29926 -0.18266,0.44339 -0.0626,0.14378 -0.126227,0.28378 -0.19124,0.41964 -0.065,0.13588 -0.131393,0.26762 -0.199167,0.39524 -0.06742,0.12761 -0.1362,0.2511 -0.206386,0.37012 -0.06982,0.11901 -0.141034,0.23356 -0.21326,0.34398 -0.07223,0.11006 -0.145514,0.21566 -0.219454,0.3168 -0.0743,0.10078 -0.149646,0.1971 -0.22566,0.28894 -0.07601,0.0915 -0.15306,0.17818 -0.2308,0.26038 -0.07774,0.0819 -0.15616,0.15892 -0.235633,0.23116 -0.07912,0.0722 -0.15892,0.13931 -0.23976,0.20157 -0.08047,0.0623 -0.161647,0.11937 -0.243173,0.17165 -0.08153,0.0519 -0.163734,0.0987 -0.246294,0.14068 -0.08255,0.0419 -0.16546,0.0784 -0.248706,0.10972 -0.08323,0.0316 -0.16682,0.0578 -0.250747,0.0788 -0.08359,0.021 -0.167527,0.0368 -0.251787,0.0475 -0.08393,0.0104 -0.168206,0.0155 -0.252146,0.0155 -0.08427,0 -0.16854,-0.005 -0.252467,-0.0155 -0.08393,-0.0107 -0.167873,-0.0265 -0.251807,-0.0475 -0.08357,-0.021 -0.16716,-0.0471 -0.250406,-0.0788 -0.08325,-0.0313 -0.166147,-0.0678 -0.2487,-0.10972 -0.08256,-0.0419 -0.164754,-0.0888 -0.24628,-0.14069 -0.08187,-0.0523 -0.16304,-0.10939 -0.243534,-0.17165 -0.08049,-0.0623 -0.160293,-0.12933 -0.239753,-0.20156 -0.07912,-0.0722 -0.15754,-0.14929 -0.23528,-0.23116 -0.0781,-0.0822 -0.1548,-0.16889 -0.23082,-0.26039 -0.07635,-0.0918 -0.15134,-0.18815 -0.225647,-0.28894 -0.0743,-0.10113 -0.14756,-0.20673 -0.219806,-0.3168 -0.07188,-0.11042 -0.14308,-0.22497 -0.213254,-0.34398 -0.06982,-0.11902 -0.138626,-0.2425 -0.206393,-0.37012 -0.06742,-0.12761 -0.133813,-0.25935 -0.198826,-0.39523 -0.065,-0.13586 -0.128987,-0.27586 -0.19124,-0.41964 -0.06227,-0.14413 -0.123153,-0.2917 -0.183007,-0.44339 -0.05953,-0.15135 -0.117286,-0.30649 -0.174046,-0.4654 -0.0564,-0.15892 -0.111454,-0.32093 -0.16476,-0.48673 -0.05333,-0.16546 -0.105274,-0.33434 -0.15548,-0.50668 -0.04987,-0.17199 -0.09838,-0.34707 -0.145167,-0.52525 -0.0468,-0.17818 -0.09183,-0.35911 -0.13518,-0.54315 -0.04333,-0.18368 -0.08461,-0.37011 -0.12452,-0.55896 -0.0396,-0.18918 -0.07739,-0.38043 -0.11316,-0.57409 -0.03613,-0.19366 -0.07018,-0.38973 -0.102507,-0.58751 -0.03233,-0.19814 -0.0626,-0.39799 -0.09081,-0.59956 -0.0282,-0.20191 -0.05473,-0.4052 -0.07913,-0.61021 -0.02447,-0.20536 -0.04713,-0.41175 -0.06741,-0.61951 -0.02033,-0.20776 -0.03887,-0.4169 -0.0554,-0.62706 -0.01653,-0.21018 -0.0306,-0.42138 -0.043,-0.63326 -0.0124,-0.2119 -0.02273,-0.42448 -0.03093,-0.63774 -0.0083,-0.21327 -0.01447,-0.42688 -0.0186,-0.64083 -0.004,-0.2143 -0.006,-0.42825 -0.006,-0.64255 0,-0.2143 0.002,-0.4286 0.006,-0.64255 0.004,-0.21395 0.01033,-0.42756 0.0186,-0.64083 0.0083,-0.21326 0.0186,-0.42584 0.03093,-0.63807 0.0124,-0.2119 0.02647,-0.4231 0.043,-0.63293 0.01653,-0.21051 0.03507,-0.4193 0.0554,-0.62706 0.02033,-0.20811 0.043,-0.4145 0.06741,-0.6195 0.02447,-0.20502 0.05093,-0.40866 0.07913,-0.61022 0.0282,-0.20192 0.05847,-0.40177 0.09081,-0.59956 0.03233,-0.19812 0.0664,-0.39385 0.102506,-0.58751 0.0358,-0.194 0.07361,-0.38525 0.11316,-0.57409 0.03993,-0.18919 0.08118,-0.37563 0.12452,-0.55931 0.04333,-0.18369 0.0884,-0.36462 0.13518,-0.5428 0.0468,-0.17818 0.09528,-0.3536 0.145167,-0.52559 0.0502,-0.17199 0.10216,-0.34088 0.15548,-0.50668 0.05333,-0.16545 0.10836,-0.32781 0.16476,-0.48673 0.05673,-0.15857 0.11454,-0.3137 0.174047,-0.4654 0.05987,-0.15135 0.12074,-0.29926 0.183006,-0.44304 0.06227,-0.14378 0.12624,-0.28378 0.19124,-0.41965 0.065,-0.13622 0.131407,-0.26796 0.19882,-0.39558 0.06777,-0.12761 0.136574,-0.2511 0.206394,-0.37011 0.07017,-0.11903 0.141373,-0.23357 0.213253,-0.34364 0.07225,-0.11042 0.145507,-0.21602 0.219807,-0.3168 0.07431,-0.10114 0.149293,-0.19745 0.225646,-0.28894 0.07602,-0.0918 0.15272,-0.17853 0.23082,-0.26039 0.07774,-0.0822 0.15616,-0.15927 0.23528,-0.2315 0.07946,-0.0722 0.15926,-0.13931 0.239753,-0.20157 0.08049,-0.0623 0.161667,-0.11935 0.243534,-0.1713 0.08153,-0.0523 0.16372,-0.0991 0.24628,-0.14069 0.08255,-0.0419 0.165453,-0.0784 0.2487,-0.11007 0.08325,-0.0313 0.16684,-0.0578 0.250406,-0.0788 0.08393,-0.021 0.167874,-0.0365 0.251807,-0.0471 0.08393,-0.0107 0.168193,-0.0158 0.252467,-0.0158 0.08394,0 0.168213,0.005 0.252146,0.0158 0.08426,0.0107 0.168194,0.0261 0.251787,0.0471 0.08393,0.021 0.16752,0.0475 0.250747,0.0788 0.08325,0.0316 0.166153,0.0681 0.248706,0.11007 0.08256,0.0416 0.164767,0.0884 0.246294,0.14069 0.08153,0.0519 0.1627,0.10904 0.243173,0.1713 0.08084,0.0623 0.16064,0.12933 0.23976,0.20157 0.07947,0.0722 0.157893,0.14929 0.235633,0.2315 0.07774,0.0819 0.154787,0.16855 0.2308,0.26039 0.07601,0.0915 0.15136,0.18781 0.22566,0.28894 0.07394,0.10113 0.147227,0.20638 0.219454,0.3168 0.07223,0.11007 0.14344,0.22462 0.21326,0.34364 0.07019,0.11901 0.138966,0.2425 0.206386,0.37011 0.06777,0.12763 0.134147,0.25936 0.199167,0.39558 0.065,0.13587 0.128653,0.27587 0.19124,0.41965 0.06227,0.14378 0.123153,0.29169 0.18266,0.44304 0.05953,0.1517 0.117633,0.30683 0.17406,0.4654 0.0564,0.15892 0.11144,0.32128 0.1651,0.48673 0.05333,0.1658 0.104907,0.33469 0.155147,0.50668 0.0502,0.17199 0.09871,0.34741 0.145486,0.52559 0.0468,0.17818 0.09185,0.35911 0.134854,0.5428 0.04333,0.18368 0.08495,0.37012 0.124506,0.55931 0.0396,0.18884 0.07739,0.38009 0.11352,0.57409 0.03613,0.19366 0.07016,0.38939 0.102174,0.58751 0.03233,0.19779 0.0626,0.39764 0.09114,0.59956 0.0282,0.20156 0.05467,0.4052 0.07911,0.61022 0.02447,0.205 0.0468,0.41139 0.06743,0.6195 0.02033,0.20776 0.03887,0.41655 0.055,0.62706 0.01653,0.20983 0.03093,0.42103 0.04333,0.63293 0.0124,0.21223 0.02273,0.42481 0.03093,0.63807 0.0083,0.21327 0.01447,0.42688 0.0186,0.64083 0.004,0.21395 0.006,0.42825 0.006,0.64255 z m 0,0" stroke="#2e1144" stroke-width="0.635943" stroke-opacity="1" stroke-miterlimit="10" id="path704"/>
    <path fill="#2e1144" d="m 61.335896,118.61205 c -0.12728,6.16407 -2.592913,12.45575 -6.843766,18.11004 0.212553,0.0423 0.425153,0.0423 0.63772,0.0423 0.04267,0 0.08497,0 0.127626,0 4.16556,-5.65395 6.588527,-11.98828 6.7588,-18.15235 0.169927,-7.39723 -2.63556,-15.17696 -8.374133,-23.04165 -0.1276,0 -0.29754,0.04267 -0.42514,0.08496 -0.08497,0 -0.169933,0.04267 -0.254893,0.04267 5.73856,7.86469 8.54404,15.55946 8.373786,22.91404 z m 0,0" fill-opacity="1" fill-rule="nonzero" id="path706" style="stroke-width:0.0880587"/>
    <path fill="#2e1144" d="m 59.80587,242.87482 35.66424,-74.48137 h 112.17851 l -27.41773,73.4608 c 0,0 -120.42502,0.68039 -120.42502,1.02057 z m 0,0" fill-opacity="1" fill-rule="nonzero" id="path708" style="fill:#aeaeae;fill-opacity:1;stroke-width:0.0880587"/>
    <path fill="#ffe7de" d="m 146.97794,195.12083 c 0.098,0.0265 0.19504,0.0575 0.29031,0.0929 0.0956,0.0354 0.18988,0.0757 0.28241,0.12006 0.0929,0.0444 0.18403,0.0932 0.27379,0.14654 0.0898,0.0529 0.17784,0.11076 0.26418,0.17267 0.0864,0.0619 0.1713,0.12832 0.2542,0.19881 0.0832,0.0705 0.16442,0.14517 0.24388,0.22394 0.0791,0.0791 0.15686,0.16201 0.23218,0.24903 0.0757,0.0874 0.1493,0.17853 0.22084,0.27347 0.0716,0.0953 0.14102,0.194 0.20846,0.2972 0.0674,0.10284 0.13241,0.20947 0.19537,0.3199 0.0633,0.1104 0.12383,0.22428 0.1823,0.3419 0.0588,0.11766 0.11488,0.23874 0.16891,0.36325 0.0537,0.12485 0.10525,0.25282 0.15444,0.38387 0.0492,0.13142 0.0956,0.2659 0.13999,0.40348 0.0444,0.1376 0.086,0.27829 0.12521,0.42172 0.0392,0.14379 0.076,0.29034 0.11007,0.4396 0.0341,0.1493 0.0657,0.30134 0.0946,0.45578 0.0293,0.1548 0.0554,0.31199 0.0791,0.4716 0.0238,0.1596 0.0447,0.32128 0.0633,0.48535 0.0186,0.16407 0.0341,0.33056 0.0475,0.49877 0.0131,0.16819 0.0235,0.33848 0.0309,0.51046 0.008,0.17197 0.0128,0.3457 0.0151,0.52113 0.003,0.17541 0.002,0.35223 -6.7e-4,0.5304 -0.003,0.17853 -0.009,0.35809 -0.0173,0.53868 -0.009,0.18092 -0.0197,0.36253 -0.0334,0.54553 -0.0141,0.18266 -0.0306,0.36635 -0.0495,0.55107 -0.0193,0.18436 -0.0409,0.36941 -0.0653,0.55483 -0.0248,0.18576 -0.0516,0.37182 -0.0815,0.55826 -0.0295,0.18611 -0.0619,0.37254 -0.0967,0.55931 -0.0347,0.18645 -0.0722,0.37321 -0.11213,0.55965 -0.0399,0.18644 -0.0822,0.37252 -0.12728,0.55828 -0.0447,0.18575 -0.0922,0.37116 -0.14207,0.55586 -0.0499,0.18473 -0.10181,0.36876 -0.1565,0.5521 -0.0543,0.183 -0.11112,0.36531 -0.17028,0.54656 -0.0591,0.18128 -0.12073,0.36118 -0.18436,0.54006 -0.0637,0.17888 -0.12934,0.35637 -0.19745,0.53249 -0.0678,0.17611 -0.13794,0.35049 -0.20982,0.52319 -0.0722,0.17266 -0.1462,0.34361 -0.22255,0.51285 -0.076,0.16925 -0.1541,0.33607 -0.23391,0.50119 -0.0798,0.1651 -0.16166,0.3278 -0.24525,0.48845 -0.0832,0.16064 -0.16856,0.31887 -0.25557,0.47433 -0.087,0.15582 -0.17543,0.30888 -0.26556,0.45922 -0.0901,0.15065 -0.18163,0.29822 -0.27483,0.44304 -0.0932,0.1448 -0.18748,0.28686 -0.28344,0.42582 -0.096,0.13896 -0.19297,0.27451 -0.29134,0.40728 -0.0984,0.1328 -0.19815,0.26212 -0.29894,0.38802 -0.10045,0.12586 -0.20224,0.24868 -0.30509,0.3677 -0.10251,0.11907 -0.20639,0.2346 -0.31096,0.34672 -0.10456,0.11174 -0.20983,0.22015 -0.31578,0.32438 -0.10629,0.10453 -0.21291,0.20536 -0.32024,0.30202 -0.10732,0.0967 -0.21532,0.18952 -0.32368,0.27828 -0.10833,0.0891 -0.21739,0.1737 -0.32643,0.25419 -0.10938,0.0808 -0.21876,0.1572 -0.3285,0.22979 -0.10974,0.0723 -0.21946,0.14032 -0.32954,0.20397 -0.10972,0.0636 -0.2198,0.12307 -0.32987,0.17817 -0.10975,0.0555 -0.21945,0.10587 -0.32919,0.15206 -0.10972,0.0464 -0.21911,0.0884 -0.32814,0.1256 -0.10904,0.0375 -0.21774,0.0701 -0.3261,0.0987 -0.10833,0.0281 -0.21602,0.0519 -0.32334,0.0712 -0.10732,0.0193 -0.21395,0.0341 -0.31955,0.0441 -0.10593,0.0107 -0.21119,0.0159 -0.31543,0.0165 -0.10422,6.7e-4 -0.20776,-0.003 -0.31026,-0.0107 -0.1025,-0.008 -0.20398,-0.0211 -0.30407,-0.0381 -0.10044,-0.0176 -0.19985,-0.0392 -0.29789,-0.0657 -0.098,-0.0265 -0.19471,-0.0575 -0.29033,-0.0929 -0.0956,-0.0355 -0.18951,-0.0753 -0.2824,-0.11973 -0.0925,-0.0447 -0.18402,-0.0936 -0.27346,-0.14652 -0.0898,-0.0533 -0.17783,-0.11107 -0.26453,-0.17303 -0.0863,-0.0619 -0.17093,-0.128 -0.25418,-0.19848 -0.0829,-0.0705 -0.16408,-0.14549 -0.24354,-0.22428 -0.0795,-0.0791 -0.15685,-0.16198 -0.23253,-0.24902 -0.0756,-0.0871 -0.14929,-0.17818 -0.22083,-0.27346 -0.0716,-0.0949 -0.14102,-0.19401 -0.20812,-0.29688 -0.0674,-0.1028 -0.13276,-0.20946 -0.19571,-0.31989 -0.0629,-0.1104 -0.12384,-0.2246 -0.18231,-0.34224 -0.0585,-0.1176 -0.11488,-0.23873 -0.16854,-0.36324 -0.054,-0.12453 -0.1056,-0.25249 -0.1548,-0.38388 -0.0489,-0.13147 -0.0956,-0.26591 -0.14,-0.40349 -0.044,-0.13759 -0.086,-0.27828 -0.12519,-0.42172 -0.0392,-0.14379 -0.0757,-0.29031 -0.11009,-0.4396 -0.0341,-0.14928 -0.0657,-0.30132 -0.0946,-0.45576 -0.0289,-0.1548 -0.0554,-0.31164 -0.0791,-0.47127 -0.0238,-0.1596 -0.0447,-0.3216 -0.0633,-0.48567 -0.0183,-0.16409 -0.0341,-0.33024 -0.0471,-0.49844 -0.0132,-0.16854 -0.0238,-0.33846 -0.0313,-0.51081 -0.008,-0.17197 -0.0128,-0.34567 -0.0151,-0.52112 -0.003,-0.17543 -0.002,-0.35223 6.7e-4,-0.5304 0.003,-0.17819 0.009,-0.35775 0.0176,-0.53868 0.008,-0.18057 0.0193,-0.36255 0.0333,-0.54555 0.0138,-0.18265 0.0303,-0.36633 0.0495,-0.55069 0.0189,-0.18472 0.0409,-0.36979 0.0653,-0.5552 0.0245,-0.18573 0.0516,-0.37148 0.0812,-0.55793 0.0296,-0.18642 0.0619,-0.37286 0.0967,-0.55966 0.0351,-0.18641 0.0722,-0.37285 0.11214,-0.55929 0.0403,-0.18644 0.0826,-0.37287 0.12726,-0.55863 0.0451,-0.18574 0.0925,-0.37113 0.14206,-0.55585 0.0499,-0.18472 0.10216,-0.36876 0.1565,-0.55176 0.0547,-0.18332 0.11147,-0.36563 0.17063,-0.54689 0.0591,-0.18128 0.12039,-0.36119 0.18403,-0.54006 0.0636,-0.17886 0.12932,-0.35636 0.19744,-0.53249 0.0681,-0.17577 0.13793,-0.35016 0.21016,-0.52317 0.0719,-0.1727 0.1462,-0.34363 0.2222,-0.51288 0.076,-0.16888 0.1541,-0.33607 0.2339,-0.50118 0.0802,-0.16509 0.16168,-0.3278 0.24526,-0.48844 0.0836,-0.1603 0.16892,-0.31852 0.25558,-0.47436 0.087,-0.15548 0.17544,-0.30888 0.26556,-0.4592 0.0901,-0.15031 0.18196,-0.29823 0.27483,-0.44304 0.0932,-0.14481 0.18782,-0.28654 0.28378,-0.4255 0.0956,-0.13896 0.19299,-0.27483 0.29136,-0.40762 0.0984,-0.13242 0.19779,-0.26176 0.29857,-0.38799 0.1008,-0.12591 0.20226,-0.24837 0.3051,-0.36772 0.10286,-0.11901 0.20638,-0.23459 0.31096,-0.34639 0.10456,-0.11213 0.20982,-0.22014 0.31611,-0.3247 0.10595,-0.10456 0.21259,-0.20501 0.3199,-0.30202 0.10767,-0.0967 0.21533,-0.18954 0.32403,-0.27828 0.10836,-0.0888 0.21704,-0.17371 0.32644,-0.2542 0.10903,-0.0808 0.21842,-0.1572 0.32814,-0.22942 0.10975,-0.0722 0.21946,-0.14034 0.32955,-0.20434 0.11007,-0.0637 0.2198,-0.12314 0.32986,-0.17817 0.10973,-0.055 0.21979,-0.10595 0.32919,-0.15205 0.10972,-0.0464 0.21912,-0.088 0.32815,-0.12552 0.10939,-0.0371 0.21808,-0.0702 0.32643,-0.0984 0.10803,-0.0285 0.21602,-0.0523 0.32301,-0.0716 0.10732,-0.0193 0.21394,-0.0337 0.31989,-0.044 0.10595,-0.01 0.21085,-0.0155 0.31508,-0.0165 0.10458,-6.7e-4 0.20778,0.003 0.31028,0.0107 0.1025,0.008 0.20396,0.021 0.3044,0.0385 0.10044,0.0173 0.1995,0.0392 0.29756,0.0653 z m 0,0" fill-opacity="1" fill-rule="nonzero" id="path710" style="fill:#ffffff;fill-opacity:1;stroke-width:0.0880587"/>
    <path fill="#2e1144" d="m 180.31586,241.76928 -172.6672372,1.3181 4.3358272,3.1457 h 165.56824 z m 0,0" fill-opacity="1" fill-rule="nonzero" id="path712" style="stroke-width:0.0880587"/>
    <path fill="#ff93e2" d="m 150.51781,131.11045 10.4569,-10.16038 -5.10084,-6.80181 -5.44102,4.67637 -5.35606,-5.01656 -5.18616,7.142 10.58452,10.11773 c 0,0.0427 0,0.0853 0,0.0853 z m 0,0" fill-opacity="1" fill-rule="nonzero" id="path714" style="fill:#ff0735;fill-opacity:1;stroke-width:0.0880587"/>
    <path fill="#ff93e2" d="m 40.12453,99.226537 10.49956,-10.160393 -5.10118,-6.802153 -5.441034,4.676373 -5.35572,-5.01622 -5.186146,7.142 10.58452,10.11774 c 0,0.04267 0,0.08496 0,0.08496 v -0.04233 c 0,0.04233 0,0 0,0 z m 0,0" fill-opacity="1" fill-rule="nonzero" id="path716" style="fill:#ff0735;fill-opacity:1;stroke-width:0.0880587"/>
    <path fill="#ffe7de" d="m 43.56775,200.70253 c 2.167753,-0.1272 4.335826,-0.29753 6.50358,-0.68005 -2.167754,-0.3402 -4.335827,-0.55276 -6.50358,-0.68004 -1.1052,-0.0853 -2.168094,-0.1276 -3.273287,-0.1276 -0.595087,0 -1.147513,-0.25522 -1.53002,-0.68038 l -0.04267,-0.0423 c -0.425133,-0.4252 -0.637733,-0.97796 -0.680033,-1.57304 -0.04267,-1.44539 -0.08495,-2.8908 -0.17026,-4.33619 -0.127287,-2.16807 -0.29754,-4.33616 -0.680047,-6.50425 -0.339853,2.16809 -0.55244,4.33618 -0.68004,6.50425 -0.08497,1.36044 -0.127633,2.72087 -0.169933,4.08095 0,0.59544 -0.25524,1.14786 -0.680394,1.57302 l -0.25488,0.25522 c -0.425166,0.42516 -0.97758,0.63774 -1.530346,0.68005 -1.1052,0.0427 -2.38032,0.29753 -3.485527,0.34019 -2.168093,0.12762 -4.12326,0.25522 -6.3763,0.46747 2.38032,0.2979 4.165894,0.34021 6.333647,0.46779 1.14786,0.0849 2.46564,0.3402 3.613127,0.3402 0.595093,0 1.147859,0.25488 1.530366,0.68004 l 0.212567,0.2126 c 0.425166,0.42515 0.63774,0.93528 0.63774,1.53035 0.04227,0.80767 0.08496,1.61567 0.127273,2.38067 0.12762,2.16809 0.297534,4.33652 0.68038,6.50461 0.382514,-2.16844 0.552427,-4.33652 0.680054,-6.50461 0.04233,-0.89262 0.08496,-1.74294 0.12762,-2.63555 0,-0.59541 0.25488,-1.10555 0.637386,-1.53036 0.425134,-0.42515 0.977934,-0.63773 1.53034,-0.6804 1.190167,0.0427 2.29536,0 3.44322,-0.0427 z m 0,0" fill-opacity="1" fill-rule="nonzero" id="path718" style="fill:#ffffff;fill-opacity:1;stroke-width:0.0880587"/>
    <path fill="#ffe7de" d="m 146.30959,156.44747 c 2.16775,-0.12726 4.33582,-0.29754 6.50358,-0.68005 -2.16776,-0.3402 -4.33583,-0.55275 -6.50358,-0.68003 -1.10521,-0.0853 -2.1681,-0.12762 -3.27328,-0.12762 -0.5951,0 -1.14786,-0.25524 -1.53037,-0.68038 l -0.0423,-0.0423 c -0.42514,-0.42516 -0.63774,-0.97792 -0.68038,-1.57301 -0.0423,-1.44538 -0.085,-2.89077 -0.16992,-4.33618 -0.12764,-2.16807 -0.29754,-4.33617 -0.68004,-6.50426 -0.3402,2.16809 -0.55278,4.33619 -0.68004,6.50426 -0.0853,1.36043 -0.12764,2.72087 -0.17028,4.08095 0,0.59542 -0.25489,1.14786 -0.68004,1.57302 l -0.25489,0.25522 c -0.42517,0.42514 -0.97793,0.63774 -1.53034,0.68005 -1.10521,0.0427 -2.38067,0.29755 -3.48587,0.34019 -2.16776,0.12761 -4.12326,0.25523 -6.37596,0.46746 2.38032,0.29788 4.16555,0.34019 6.33365,0.46781 1.14751,0.085 2.46529,0.34019 3.61313,0.34019 0.59508,0 1.14786,0.25488 1.53036,0.68005 l 0.21256,0.21257 c 0.42482,0.42516 0.6374,0.93528 0.6374,1.53036 0.0427,0.80765 0.085,1.61566 0.12762,2.38067 0.12762,2.16807 0.29754,4.33651 0.68004,6.50461 0.38251,-2.16844 0.55277,-4.33654 0.68039,-6.50461 0.0423,-0.89263 0.085,-1.74293 0.12728,-2.63555 0,-0.59544 0.25523,-1.10554 0.63773,-1.53036 0.42514,-0.42516 0.97759,-0.63774 1.53035,-0.6804 1.23281,0.0427 2.33801,0 3.44322,-0.0427 z m 0,0" fill-opacity="1" fill-rule="nonzero" id="path720" style="fill:#ffffff;fill-opacity:1;stroke-width:0.0880587"/>
    <path style="fill:#2d173e;fill-opacity:1;stroke-width:0.0660436" d="m 76.69307,92.269744 26.38914,-3.59852" id="path1466"/>
  </g>
</svg>