<svg xmlns="http://www.w3.org/2000/svg" xmlns:xlink="http://www.w3.org/1999/xlink" zoomAndPan="magnify"
    preserveAspectRatio="xMidYMid meet" version="1.0" viewBox="2.35 167.16 370.49 82.44">
    <path fill="#F5BBD5"
        d="M 356.113281 215.453125 C 344.824219 211.589844 332.707031 211.007812 320.921875 209.707031 C 284.804688 206.296875 248.527344 211.6875 213.429688 220.140625 C 169.128906 230.675781 109.730469 252.605469 67.121094 228.066406 C 81.664062 216.75 99.519531 202.433594 105.953125 184.667969 C 110.324219 172.070312 99.925781 162.734375 88.179688 169.339844 C 79.953125 174.082031 75.824219 183.105469 72.359375 191.609375 C 69.296875 182.699219 57.203125 171.296875 48.742188 180.679688 C 39.132812 195.152344 47.847656 217.800781 60.320312 227.992188 C 49.441406 235.453125 37.457031 241.707031 24.441406 244.269531 C 19.214844 245.347656 13.886719 245.730469 8.5625 245.582031 C 6.785156 245.714844 4.679688 244.832031 3.097656 245.820312 C 0.128906 249.898438 6.792969 249.511719 9.207031 249.566406 C 29 250.222656 47.738281 241.726562 63.660156 230.53125 C 109.558594 258.71875 173.757812 232.820312 221.921875 222.261719 C 256.230469 214.339844 291.742188 210.164062 326.863281 214.273438 C 335.542969 215.335938 344.390625 215.988281 352.800781 218.496094 C 357.519531 220.152344 362.199219 221.875 366.773438 223.882812 C 368.402344 224.402344 371.222656 227.003906 372.628906 224.589844 C 374.839844 220.847656 359.332031 217.082031 356.121094 215.453125 Z M 48.890625 198.042969 C 48.578125 192.550781 48.449219 185.472656 53.324219 181.878906 C 61.972656 178.484375 68.382812 190.558594 70.152344 197.519531 C 62.554688 216.371094 78.410156 216.972656 74.269531 197.703125 C 77.816406 188.570312 81.367188 178.066406 90.179688 172.765625 C 97.375 168.695312 104.5625 172.660156 102.679688 181.328125 C 98.246094 198.757812 77.539062 214.996094 63.734375 225.65625 C 55.207031 219.070312 49.96875 208.726562 48.882812 198.042969 Z M 48.890625 198.042969 "
        fill-opacity="1" fill-rule="nonzero" />
</svg>