<svg xmlns="http://www.w3.org/2000/svg" xmlns:xlink="http://www.w3.org/1999/xlink" zoomAndPan="magnify" preserveAspectRatio="xMidYMid meet" version="1.0" viewBox="0 187.5 375 34.5"><defs><clipPath id="bc3fbf6ac0"><path d="M 0 187.5 L 375 187.5 L 375 222 L 0 222 Z M 0 187.5 " clip-rule="nonzero"/></clipPath></defs><g clip-path="url(#bc3fbf6ac0)"><path fill="#000000" d="M 373.441406 189.121094 C 371.476562 193.082031 368.632812 196.546875 365.125 199.246094 C 363.867188 200.210938 362.65625 201.242188 361.367188 202.160156 C 355.894531 206.136719 350.550781 210.269531 344.511719 213.421875 C 340.785156 215.371094 336.933594 216.789062 332.71875 217.101562 C 323.207031 217.820312 314.070312 216.292969 305.546875 212.003906 C 301.441406 209.929688 297.261719 208.601562 292.683594 208.445312 C 291.648438 208.414062 290.609375 208.351562 289.570312 208.289062 C 279.050781 207.777344 268.800781 209.039062 259.191406 213.5 C 253.800781 215.996094 248.1875 217.601562 242.398438 218.726562 C 239.617188 219.269531 236.753906 219.488281 234.019531 220.175781 C 231.441406 220.832031 229.992188 219.644531 228.765625 218.023438 C 230.765625 214.464844 232.683594 211.066406 234.585938 207.667969 C 235.449219 206.136719 236.015625 204.484375 235.84375 202.753906 C 235.734375 201.535156 235.386719 200.351562 234.804688 199.277344 C 234.050781 197.902344 233.074219 197.824219 231.929688 198.871094 C 231.171875 199.570312 230.527344 200.367188 229.992188 201.257812 C 229.113281 202.691406 228.375 204.203125 227.492188 205.855469 C 226.519531 204.484375 225.765625 203.378906 224.945312 202.285156 C 224.410156 201.566406 223.671875 201.273438 222.761719 201.460938 C 219.898438 202.035156 217.871094 206.449219 219.539062 208.820312 C 220.589844 210.332031 221.992188 211.597656 223.234375 212.984375 C 224.507812 214.421875 225.765625 215.855469 227.164062 217.429688 C 224.757812 219.816406 222.289062 221.03125 219.144531 220.878906 C 214.539062 220.675781 210.085938 219.738281 205.730469 218.351562 C 199.191406 216.277344 192.933594 213.515625 186.738281 210.628906 C 183.71875 209.226562 180.667969 207.902344 177.335938 207.511719 C 169.078125 206.574219 160.824219 205.964844 152.492188 206.542969 C 143.054688 207.199219 133.859375 209.085938 124.691406 211.222656 C 116.308594 213.171875 108.039062 213.109375 99.675781 210.753906 C 89.863281 208.007812 80.398438 204.421875 71.121094 200.242188 C 67.03125 198.402344 62.878906 196.625 58.617188 195.265625 C 49.546875 192.367188 40.160156 192.070312 30.695312 192.382812 C 20.425781 192.695312 11.101562 195.703125 2.671875 201.476562 C 1.808594 202.066406 1.039062 202.785156 0.21875 203.457031 L 0.425781 203.84375 C 0.707031 203.8125 1.085938 203.90625 1.257812 203.75 C 7.109375 199.027344 13.773438 195.984375 21.132812 194.441406 C 29.277344 192.742188 37.5 192.988281 45.726562 193.660156 C 54.183594 194.347656 62.078125 196.9375 69.703125 200.539062 C 78.964844 204.90625 88.449219 208.695312 98.367188 211.378906 C 105.050781 213.1875 111.734375 214.390625 118.652344 213.265625 C 122.269531 212.671875 125.886719 212.019531 129.441406 211.175781 C 144.378906 207.605469 159.457031 206.324219 174.753906 208.148438 C 178.074219 208.539062 181.265625 209.273438 184.347656 210.628906 C 189.976562 213.109375 195.605469 215.574219 201.328125 217.851562 C 207.003906 220.113281 212.886719 221.59375 219.050781 221.875 C 221.675781 222 223.957031 221.265625 226.015625 219.707031 C 226.597656 219.269531 227.195312 218.847656 227.777344 218.445312 C 228.59375 219.191406 229.253906 219.800781 229.914062 220.394531 C 230.84375 221.234375 231.847656 221.53125 233.15625 221.265625 C 235.464844 220.816406 237.824219 220.675781 240.121094 220.207031 C 246.628906 218.878906 253.109375 217.492188 259.175781 214.589844 C 264.429688 212.082031 270.042969 210.535156 275.859375 209.773438 C 281.238281 209.054688 286.617188 209.085938 292.023438 209.335938 C 296.804688 209.554688 301.316406 210.597656 305.484375 213.015625 C 306.898438 213.84375 308.472656 214.464844 310.027344 215.011719 C 315.265625 216.820312 320.71875 217.898438 326.253906 218.226562 C 332.609375 218.601562 338.628906 217.617188 344.320312 214.621094 C 351.949219 210.613281 358.710938 205.390625 365.421875 200.085938 C 369.339844 197 372.375 193.222656 374.402344 188.667969 C 374.542969 188.296875 374.667969 187.90625 374.78125 187.5 C 374.054688 187.953125 373.726562 188.53125 373.441406 189.121094 Z M 220.921875 209.304688 C 218.972656 207.105469 219.316406 204.703125 221.707031 202.957031 C 222.902344 202.082031 223.925781 202.082031 224.757812 203.300781 C 225.890625 204.9375 227.429688 206.511719 226.894531 208.820312 C 226.847656 208.992188 226.992188 209.210938 227.054688 209.398438 C 227.070312 209.445312 227.179688 209.460938 227.507812 209.585938 C 227.746094 209.023438 228.25 208.398438 228.167969 207.886719 C 227.964844 206.527344 228.53125 205.453125 229.175781 204.40625 C 230.136719 202.832031 231.109375 201.242188 232.273438 199.820312 C 233.105469 198.792969 233.878906 198.996094 234.539062 200.164062 C 235.261719 201.445312 235.402344 202.972656 234.929688 204.359375 C 233.40625 208.929688 230.96875 213.03125 228.027344 216.960938 C 225.480469 214.234375 223.152344 211.816406 220.921875 209.304688 Z M 220.921875 209.304688 " fill-opacity="1" fill-rule="nonzero"/></g></svg>