<svg xmlns="http://www.w3.org/2000/svg" xmlns:xlink="http://www.w3.org/1999/xlink" width="500" zoomAndPan="magnify"
    viewBox="0 0 375 374.999991" height="500" preserveAspectRatio="xMidYMid meet" version="1.0">
    <defs>
        <clipPath id="4ab3212067">
            <path d="M 23.183594 1 L 351.683594 1 L 351.683594 374 L 23.183594 374 Z M 23.183594 1 "
                clip-rule="nonzero" />
        </clipPath>
    </defs>
    <rect x="-37.5" width="450" fill="none" y="-37.499999" height="449.999989" fill-opacity="1" />
    <rect x="-37.5" width="450" fill="none" y="-37.499999" height="449.999989" fill-opacity="1" />
    <rect x="-37.5" width="450" fill="none" y="-37.499999" height="449.999989" fill-opacity="1" />
    <g clip-path="url(#4ab3212067)">
        <path fill="#e44d26"
            d="M 53.003906 336.6875 L 23.089844 1.054688 L 351.773438 1.054688 L 321.835938 336.640625 L 187.222656 373.957031 Z M 53.003906 336.6875 "
            fill-opacity="1" fill-rule="nonzero" />
    </g>
    <path fill="#f16529"
        d="M 296.199219 315.269531 L 321.789062 28.5 L 187.433594 28.5 L 187.433594 345.441406 Z M 296.199219 315.269531 "
        fill-opacity="1" fill-rule="nonzero" />
    <path fill="#ebebeb"
        d="M 187.292969 69.660156 L 84.246094 69.660156 L 95.347656 194.140625 L 187.433594 194.140625 L 187.433594 152.980469 L 132.984375 152.980469 L 129.222656 110.832031 L 187.433594 110.832031 L 187.433594 69.660156 Z M 187.433594 259.75 L 187.257812 259.796875 L 141.429688 247.421875 L 138.519531 214.59375 L 97.1875 214.59375 L 102.953125 279.226562 L 187.246094 302.53125 L 187.433594 302.472656 Z M 187.433594 259.75 "
        fill-opacity="1" fill-rule="nonzero" />
    <path fill="#ffffff"
        d="M 187.292969 194.140625 L 237.964844 194.140625 L 233.304688 247.515625 L 187.410156 259.902344 L 187.410156 302.730469 L 271.769531 279.339844 L 283.070312 152.957031 L 187.433594 152.957031 Z M 289.382812 80.707031 L 290.363281 69.660156 L 187.269531 69.660156 L 187.269531 110.820312 L 286.65625 110.820312 L 287.472656 101.566406 Z M 289.382812 80.707031 "
        fill-opacity="1" fill-rule="nonzero" />
</svg>