<svg xmlns="http://www.w3.org/2000/svg" xmlns:xlink="http://www.w3.org/1999/xlink" width="500" zoomAndPan="magnify" viewBox="0 0 375 374.999991" height="500" preserveAspectRatio="xMidYMid meet" version="1.0"><rect x="-37.5" width="450" fill="#ffffff" y="-37.499999" height="449.999989" fill-opacity="1"/><rect x="-37.5" width="450" fill="#ffffff" y="-37.499999" height="449.999989" fill-opacity="1"/><rect x="-37.5" width="450" fill="#ffffff" y="-37.499999" height="449.999989" fill-opacity="1"/><rect x="-37.5" width="450" fill="#f7df1e" y="-37.499999" height="449.999989" fill-opacity="1"/><path fill="#000000" d="M 98.601562 313.375 L 127.300781 296.015625 C 132.835938 305.828125 137.871094 314.136719 149.957031 314.136719 C 161.527344 314.136719 168.835938 309.59375 168.835938 291.988281 L 168.835938 172.164062 L 204.066406 172.164062 L 204.066406 292.484375 C 204.066406 328.972656 182.679688 345.601562 151.464844 345.601562 C 123.269531 345.601562 106.90625 330.996094 98.601562 313.375 " fill-opacity="1" fill-rule="nonzero"/><path fill="#000000" d="M 223.210938 309.59375 L 251.910156 292.984375 C 259.46875 305.316406 269.28125 314.382812 286.640625 314.382812 C 301.246094 314.382812 310.5625 307.089844 310.5625 297.011719 C 310.5625 284.925781 300.996094 280.648438 284.882812 273.601562 L 276.078125 269.824219 C 250.648438 259 233.789062 245.417969 233.789062 216.710938 C 233.789062 190.285156 253.917969 170.140625 285.394531 170.140625 C 307.792969 170.140625 323.90625 177.949219 335.476562 198.339844 L 308.042969 215.960938 C 302.007812 205.136719 295.457031 200.859375 285.394531 200.859375 C 275.066406 200.859375 268.519531 207.40625 268.519531 215.960938 C 268.519531 226.539062 275.066406 230.816406 290.171875 237.363281 L 298.972656 241.128906 C 328.929688 253.976562 345.804688 267.054688 345.804688 296.515625 C 345.804688 328.226562 320.886719 345.601562 287.402344 345.601562 C 254.675781 345.601562 233.539062 329.984375 223.210938 309.59375 " fill-opacity="1" fill-rule="nonzero"/></svg>