<svg xmlns="http://www.w3.org/2000/svg" xmlns:xlink="http://www.w3.org/1999/xlink" enable-background="new 0 0 32 32" version="1.1" xml:space="preserve" viewBox="1 1.67 30 27.33"><g id="LinkedIn"><path d="M4.983,8.875H4.94C2.657,8.875,1,7.361,1,5.275c0-2.089,1.692-3.606,4.023-3.606   c2.292,0,3.928,1.476,3.977,3.589C9,7.359,7.311,8.875,4.983,8.875z M5.023,2.669C3.243,2.669,2,3.741,2,5.275   c0,1.531,1.209,2.601,2.94,2.601h0.043C6.76,7.875,8,6.804,8,5.27C7.963,3.694,6.795,2.669,5.023,2.669z" fill="#263238"/><path d="M7.5,29h-5C2.224,29,2,28.776,2,28.5v-18C2,10.224,2.224,10,2.5,10h5C7.776,10,8,10.224,8,10.5v18   C8,28.776,7.776,29,7.5,29z M3,28h4V11H3V28z" fill="#263238"/><path d="M30.5,29h-6c-0.276,0-0.5-0.224-0.5-0.5V19c0-1.654-1.346-3-3-3s-3,1.346-3,3v9.5   c0,0.276-0.224,0.5-0.5,0.5h-6c-0.276,0-0.5-0.224-0.5-0.5v-18c0-0.276,0.224-0.5,0.5-0.5h6c0.276,0,0.5,0.224,0.5,0.5v3.014   c0,0.276-0.224,0.5-0.5,0.5s-0.5-0.224-0.5-0.5V11h-5v17h5v-9c0-2.206,1.794-4,4-4s4,1.794,4,4v9h5V17.5c0-3.584-2.916-6.5-6.5-6.5   c-1.384,0-2.722,0.406-3.871,1.173c-0.229,0.152-0.54,0.092-0.693-0.138s-0.092-0.54,0.139-0.693C20.388,10.464,21.918,10,23.5,10   c4.136,0,7.5,3.364,7.5,7.5v11C31,28.776,30.776,29,30.5,29z" fill="#263238"/></g></svg>