<svg xmlns="http://www.w3.org/2000/svg" xmlns:xlink="http://www.w3.org/1999/xlink" width="500" zoomAndPan="magnify" viewBox="0 0 375 374.999991" height="500" preserveAspectRatio="xMidYMid meet" version="1.0"><path fill="#fbbccf" d="M 353.058594 303.582031 C 350.804688 306.339844 346.265625 302.71875 348.171875 299.8125 C 349.578125 297.667969 350.898438 295.464844 352.132812 293.214844 C 351.914062 292.890625 351.734375 292.527344 351.683594 292.0625 C 348.617188 261.964844 328.476562 230.757812 299.394531 220.058594 C 299.617188 222.46875 299.890625 224.886719 300.210938 227.304688 C 302.277344 228.59375 303.875 231.085938 305.019531 233.023438 C 306.285156 235.167969 307.289062 237.535156 307.933594 239.945312 C 309.242188 244.839844 309.128906 250.097656 307.738281 254.960938 C 306.253906 260.160156 303.410156 264.855469 299.640625 268.71875 C 298.414062 269.964844 297.074219 271.105469 295.6875 272.183594 C 295.429688 272.878906 294.933594 273.53125 294.132812 274.035156 C 280.941406 282.316406 266.78125 288.835938 252.046875 293.835938 C 252.15625 297.402344 250.464844 301.527344 249.261719 304.53125 C 248.394531 306.6875 247.398438 308.773438 246.273438 310.785156 C 247.6875 312.691406 249.039062 314.644531 250.296875 316.671875 C 252.453125 320.15625 256.296875 325.210938 255.601562 329.507812 C 254.832031 334.261719 249.761719 334.648438 245.949219 335.378906 C 241.027344 336.320312 236.113281 337.257812 231.191406 338.199219 C 217.953125 340.726562 202.921875 344.296875 189.265625 341.652344 C 188.675781 341.613281 188.082031 341.53125 187.492188 341.472656 C 187.285156 342.5 186.539062 343.410156 185.355469 343.300781 C 176.496094 342.457031 168.335938 339.1875 161.632812 333.613281 C 161.210938 333.421875 160.777344 333.226562 160.355469 333.035156 C 157.9375 331.910156 155.550781 330.742188 153.164062 329.558594 C 150.867188 328.421875 148.679688 326.921875 147.929688 324.304688 C 147.191406 321.714844 148.269531 318.816406 149.019531 316.332031 C 147.238281 311.917969 146.210938 307.222656 146.214844 302.457031 C 127.363281 299.042969 109.167969 291.980469 96.574219 276.878906 C 95.902344 276.074219 95.886719 275.144531 96.214844 274.375 C 95.820312 274.195312 95.453125 273.929688 95.171875 273.449219 C 89.871094 264.308594 91.09375 252.625 97.433594 244.417969 C 96.722656 242.789062 96.398438 241 95.949219 239.285156 C 95.429688 237.328125 94.882812 235.367188 94.292969 233.429688 C 94.277344 233.386719 94.261719 233.339844 94.246094 233.296875 C 83.214844 246.925781 75.574219 263.050781 71.539062 280.113281 C 69.628906 288.164062 68.574219 296.410156 68.664062 304.691406 C 68.730469 311.214844 68.5 321.738281 75.097656 325.308594 C 78.292969 327.039062 75.925781 331.320312 72.792969 330.78125 C 69.488281 330.210938 67.199219 328.289062 65.582031 325.738281 C 65.167969 326.234375 64.589844 326.617188 63.820312 326.773438 C 51.621094 329.242188 43.136719 319.132812 39.484375 308.679688 C 32.515625 288.691406 32.5625 265.640625 37.253906 245.179688 C 41.472656 226.796875 49.59375 205.582031 67.910156 197.253906 C 68.730469 196.878906 69.503906 197.011719 70.132812 197.363281 C 71.632812 196.027344 73.183594 194.753906 74.824219 193.625 C 75.683594 192.800781 76.5625 191.996094 77.449219 191.207031 C 70.746094 191.605469 63.886719 192.382812 57.238281 191.621094 C 53.816406 192.113281 50.414062 192.609375 47.113281 193.121094 C 45.605469 193.351562 44.355469 193.003906 43.425781 192.328125 C 42.789062 195.359375 38.03125 195.035156 37.710938 191.621094 C 36.328125 176.761719 41.105469 161.753906 49.175781 149.359375 C 54.621094 140.996094 61.894531 133.140625 70.480469 127.617188 C 70.503906 127.53125 70.480469 127.449219 70.511719 127.359375 C 71.398438 124.703125 72.378906 122.160156 73.445312 119.652344 C 73.074219 119.640625 72.703125 119.558594 72.34375 119.285156 C 62.683594 111.84375 58.722656 99.738281 59.875 87.78125 C 61.863281 67.136719 77.382812 49.375 98.0625 46.285156 C 114.28125 43.859375 136.371094 48.160156 141.65625 66.308594 C 141.664062 66.332031 141.664062 66.351562 141.671875 66.382812 C 144.503906 65.8125 147.347656 65.339844 150.222656 65.023438 C 153.953125 64.609375 157.730469 64.621094 161.457031 64.171875 C 165.683594 63.667969 169.058594 61.96875 172.792969 60.074219 C 187.09375 52.8125 203.441406 52.082031 218.921875 55.496094 C 222.722656 56.332031 226.453125 57.457031 230.121094 58.75 C 231.382812 52.324219 235.988281 46.476562 240.925781 42.34375 C 243.554688 40.136719 246.289062 38.222656 249.527344 37.03125 C 254.816406 35.09375 260.722656 35.214844 266.25 35.820312 C 276.605469 36.953125 286.898438 39.976562 295.6875 45.699219 C 304.445312 51.40625 311.207031 59.511719 314.589844 69.457031 C 317.296875 77.414062 317.902344 87.605469 314.257812 95.546875 C 322.519531 100.8125 329.949219 107.636719 334.796875 115.726562 C 339.023438 122.773438 341.417969 130.828125 342.761719 138.886719 C 343.441406 142.941406 343.894531 147.027344 344.183594 151.125 C 344.457031 155.050781 345.203125 159.761719 343.996094 163.570312 C 343.628906 164.738281 342.734375 165.359375 341.773438 165.515625 C 341.484375 167.410156 341.0625 169.242188 340.480469 170.964844 C 339.621094 173.496094 336.238281 174.78125 333.953125 173.855469 C 333.398438 174.152344 332.785156 174.351562 332.121094 174.40625 C 324.433594 175.046875 316.910156 175.105469 309.367188 174.699219 C 310.339844 175.203125 311.308594 175.78125 312.269531 176.347656 C 322.386719 179.375 331.515625 184.019531 339.800781 190.730469 C 355.746094 203.65625 366.507812 222.402344 369.214844 242.789062 C 372.035156 264.074219 366.746094 286.839844 353.058594 303.582031 Z M 322.425781 39.902344 C 324.015625 41.386719 325.550781 42.941406 327.023438 44.546875 C 327.050781 44.582031 327.082031 44.613281 327.109375 44.648438 C 326.894531 44.910156 326.652344 45.136719 326.445312 45.402344 C 324.96875 47.273438 323.121094 49.332031 322.394531 51.644531 C 321.558594 54.292969 325.101562 56.230469 326.976562 54.3125 C 328.484375 52.785156 329.46875 50.640625 330.710938 48.894531 C 330.730469 48.855469 330.761719 48.835938 330.785156 48.796875 C 332.285156 50.542969 333.730469 52.332031 335.085938 54.1875 C 337.265625 57.199219 339.132812 60.347656 340.871094 63.566406 C 339.679688 64.335938 338.492188 65.097656 337.300781 65.863281 C 335.957031 66.730469 335.402344 68.496094 336.238281 69.925781 C 336.992188 71.210938 338.980469 71.921875 340.292969 70.988281 C 341.375 70.21875 342.453125 69.457031 343.523438 68.691406 C 344.863281 71.367188 346.164062 74.074219 347.523438 76.765625 C 349.257812 80.203125 354.394531 77.753906 353.554688 74.222656 C 352.726562 70.753906 351.417969 67.417969 349.804688 64.214844 C 352.894531 62.003906 355.96875 59.777344 359.082031 57.605469 C 360.160156 56.84375 360.667969 55.460938 359.960938 54.253906 C 359.316406 53.160156 357.722656 52.644531 356.613281 53.375 C 353.480469 55.445312 350.324219 57.488281 347.167969 59.527344 C 345.128906 56.207031 342.84375 53.042969 340.472656 50.046875 C 338.734375 47.851562 336.894531 45.75 334.9375 43.761719 C 337.480469 40.980469 340.148438 38.46875 343.273438 36.316406 C 344.277344 35.628906 344.730469 34.332031 344.085938 33.226562 C 343.496094 32.21875 342.015625 31.738281 340.996094 32.410156 C 339.148438 33.640625 337.425781 35.007812 335.675781 36.351562 C 334.109375 37.558594 332.585938 38.835938 331.160156 40.210938 C 327.804688 37.351562 324.117188 34.179688 320.199219 32.160156 C 318.003906 31.027344 315.515625 33.875 317.464844 35.710938 C 319.039062 37.179688 320.835938 38.414062 322.425781 39.902344 Z M 36.09375 138.597656 C 36.09375 136.875 34.894531 135.324219 33.128906 135.066406 C 29.359375 134.511719 25.570312 134.023438 21.851562 133.1875 C 22.242188 129.058594 22.917969 124.941406 24.121094 120.808594 C 25.042969 117.664062 26.234375 114.617188 27.636719 111.667969 C 27.742188 111.71875 27.832031 111.777344 27.933594 111.824219 C 30.699219 113.152344 33.601562 114.234375 36.542969 115.121094 C 39.832031 116.113281 43.078125 117.015625 46.535156 116.828125 C 49.507812 116.675781 50.320312 111.839844 47.402344 110.914062 C 44.503906 109.996094 41.523438 109.640625 38.570312 108.953125 C 35.796875 108.3125 33.113281 107.410156 30.460938 106.386719 C 33.476562 101.359375 37.1875 96.746094 41.539062 92.765625 C 43.757812 90.742188 40.992188 86.976562 38.6875 89.003906 C 33.558594 93.5 29.019531 98.511719 25.28125 104.066406 C 21.703125 102.269531 18.320312 100.148438 15.15625 97.640625 C 12.761719 95.746094 10.027344 99.332031 12.257812 101.328125 C 15.378906 104.125 18.792969 106.59375 22.382812 108.761719 C 20.78125 111.636719 19.375 114.640625 18.230469 117.796875 C 16.722656 121.984375 15.535156 126.480469 14.742188 131.078125 C 14.699219 131.0625 14.652344 131.050781 14.609375 131.035156 C 12.753906 130.339844 10.714844 129.496094 8.691406 129.339844 C 8.394531 129.207031 8.097656 129.074219 7.804688 128.941406 C 5.371094 127.824219 3.042969 131.515625 5.355469 133.046875 C 6.308594 133.675781 7.019531 134.554688 7.945312 135.21875 C 9.03125 135.996094 10.234375 136.691406 11.445312 137.246094 C 12.246094 137.609375 13.058594 137.941406 13.871094 138.265625 C 13.492188 143.28125 13.613281 148.292969 14.394531 153.046875 C 14.992188 156.65625 21.15625 157.226562 21.222656 153.152344 C 21.296875 148.953125 21.28125 144.8125 21.410156 140.699219 C 25.214844 141.644531 29.050781 142.222656 33.027344 142.054688 C 34.753906 141.972656 36.09375 140.226562 36.09375 138.597656 Z M 36.09375 138.597656 " fill-opacity="1" fill-rule="nonzero"/><path fill="#e69223" d="M 130.992188 62.804688 C 131.753906 63.757812 132.5 64.761719 133.222656 65.796875 C 133.667969 66.546875 134.089844 67.3125 134.503906 68.089844 C 133.039062 68.511719 131.578125 68.949219 130.136719 69.445312 C 117.285156 73.835938 105.371094 80.839844 95.28125 89.933594 C 89.636719 95.023438 84.609375 100.789062 80.265625 107.023438 C 78.3125 109.820312 76.703125 112.703125 75.253906 115.660156 C 75.234375 115.640625 75.226562 115.601562 75.195312 115.578125 C 60.71875 102.445312 64.324219 78.398438 76.519531 65.074219 C 86.644531 54.019531 102.785156 50.527344 117.105469 54.160156 C 120.816406 55.097656 124.4375 56.597656 127.488281 58.949219 C 127.792969 59.179688 128.035156 59.453125 128.316406 59.699219 C 129.144531 60.601562 129.949219 61.539062 130.726562 62.484375 C 130.800781 62.574219 130.882812 62.648438 130.957031 62.738281 C 130.96875 62.757812 130.976562 62.789062 130.992188 62.804688 Z M 70.148438 197.359375 C 71.648438 196.019531 73.199219 194.746094 74.839844 193.617188 C 75.699219 192.796875 76.578125 191.988281 77.464844 191.199219 C 70.761719 191.597656 63.902344 192.375 57.25 191.613281 C 53.828125 192.109375 50.429688 192.601562 47.128906 193.113281 C 45.621094 193.34375 44.371094 192.996094 43.4375 192.320312 C 43.492188 192.09375 43.570312 191.886719 43.566406 191.613281 C 43.367188 177.867188 46.640625 164.363281 53.875 152.613281 C 61.28125 140.582031 71.988281 132.359375 84.390625 125.992188 C 86.6875 124.816406 85.097656 121.015625 82.621094 121.804688 C 81.101562 122.292969 79.601562 122.878906 78.136719 123.515625 C 89.15625 103 107.351562 86.105469 129.1875 77.925781 C 135.144531 75.691406 141.355469 74.035156 147.65625 73.121094 C 154.648438 72.097656 162.105469 72.875 168.851562 70.546875 C 172.320312 69.355469 175.421875 67.410156 178.742188 65.894531 C 182.320312 64.261719 186.148438 63.144531 190.003906 62.398438 C 197.378906 60.96875 205.175781 61.125 212.566406 62.390625 C 218.820312 63.460938 224.929688 65.273438 230.84375 67.582031 C 231.347656 68.3125 232.121094 68.550781 232.882812 68.429688 C 234.25 68.992188 235.617188 69.554688 236.960938 70.160156 C 245.210938 73.933594 252.835938 78.9375 261.105469 82.597656 C 265.347656 84.476562 268.34375 79.234375 264.707031 76.4375 C 257.886719 71.203125 249.882812 67.210938 242.085938 63.617188 C 239.835938 62.582031 237.5625 61.613281 235.261719 60.679688 C 236.535156 55.59375 240.664062 51.171875 244.507812 47.886719 C 250.472656 42.808594 257.085938 41.847656 264.800781 42.609375 C 281.609375 44.265625 299.574219 52.40625 306.617188 68.71875 C 308.40625 72.851562 309.417969 77.371094 309.460938 81.882812 C 309.5 85.417969 308.761719 88.589844 307.726562 91.785156 C 305.019531 90.386719 302.269531 89.144531 299.535156 88.085938 C 291.945312 85.144531 284.210938 83.878906 276.140625 85.179688 C 273.359375 85.625 274.578125 89.734375 277.292969 89.371094 C 285.390625 88.285156 294.355469 91.953125 301.445312 95.488281 C 303.179688 96.351562 304.871094 97.308594 306.550781 98.289062 C 306.617188 98.402344 306.714844 98.492188 306.792969 98.59375 C 306.75 98.625 306.714844 98.660156 306.667969 98.683594 C 306.78125 98.734375 306.898438 98.808594 307.007812 98.859375 C 307.496094 99.339844 308.148438 99.660156 308.855469 99.820312 C 309.085938 99.945312 309.308594 100.050781 309.535156 100.175781 C 314.441406 103.332031 319.054688 106.964844 323.097656 111.171875 C 324.09375 112.207031 325.003906 113.292969 325.867188 114.402344 C 323.828125 114.359375 321.863281 114.957031 319.792969 115.417969 C 317.066406 116.015625 314.332031 116.554688 311.589844 117.074219 C 306.484375 118.027344 301.355469 118.804688 296.195312 119.445312 C 289.265625 120.304688 282.28125 120.792969 275.289062 120.984375 C 274.75 117.894531 273.957031 114.863281 272.71875 111.949219 C 270.980469 107.882812 268.277344 104.539062 265.074219 101.515625 C 262.59375 99.171875 259.253906 102.660156 261.378906 105.210938 C 264.996094 109.539062 266.878906 115.34375 267.664062 121.074219 C 266.414062 121.066406 265.164062 121.082031 263.914062 121.058594 C 260.050781 120.96875 260.207031 126.597656 263.914062 126.96875 C 265.304688 127.109375 266.703125 127.195312 268.089844 127.308594 C 268.144531 131.078125 267.898438 134.863281 267.46875 138.613281 C 266.996094 142.808594 266.007812 146.941406 265.941406 151.164062 C 265.867188 155.792969 272.355469 156.367188 273.753906 152.21875 C 275.207031 147.886719 275.539062 143.15625 275.910156 138.613281 C 276.207031 135.019531 276.292969 131.410156 276.078125 127.808594 C 283.175781 128.128906 290.277344 128.144531 297.386719 127.730469 C 302.953125 127.410156 308.515625 126.753906 314.03125 125.945312 C 319.011719 125.214844 325.890625 125 329.785156 121.585938 C 329.957031 121.4375 330.058594 121.265625 330.191406 121.097656 C 332.460938 125.378906 334.109375 129.992188 335.238281 134.84375 C 336.339844 139.554688 337 144.34375 337.382812 149.167969 C 337.753906 153.75 337.058594 159.230469 338.550781 163.59375 C 339.066406 165.101562 340.496094 165.753906 341.789062 165.539062 C 341.5 167.429688 341.078125 169.265625 340.496094 170.988281 C 339.636719 173.515625 336.253906 174.804688 333.96875 173.878906 C 333.414062 174.175781 332.800781 174.375 332.136719 174.425781 C 324.449219 175.070312 316.925781 175.128906 309.378906 174.722656 C 310.355469 175.226562 311.324219 175.800781 312.285156 176.371094 C 311.523438 176.140625 310.769531 175.90625 309.996094 175.691406 C 307.058594 174.898438 305.886719 179.292969 308.746094 180.21875 C 318.804688 183.46875 328.242188 189.046875 336.289062 196.136719 C 337.738281 197.570312 339.15625 198.992188 340.507812 200.34375 C 341.351562 201.1875 342.253906 202.054688 343.167969 202.941406 C 346.175781 206.289062 348.90625 209.863281 351.277344 213.613281 C 361.652344 229.976562 365.140625 249.984375 361.277344 268.960938 C 360.0625 274.914062 358.128906 280.660156 355.660156 286.175781 C 350.757812 255.015625 330.199219 224.851562 299.617188 214.550781 C 299.390625 214.476562 299.175781 214.433594 298.96875 214.417969 C 298.191406 200.625 299.34375 186.976562 304.046875 173.613281 C 304.414062 172.554688 304.015625 171.734375 303.328125 171.269531 C 303.230469 170.160156 302.773438 169.117188 301.945312 168.304688 C 301.257812 167.625 300.148438 166.855469 299.195312 166.640625 C 298.503906 166.476562 297.761719 166.457031 297.046875 166.375 C 296.699219 166.335938 296.351562 166.292969 296.003906 166.253906 C 295.53125 166.183594 295.058594 166.113281 294.59375 166.019531 C 293.558594 165.804688 292.523438 165.648438 291.472656 165.507812 C 291.917969 165.566406 292.359375 165.628906 292.796875 165.6875 C 292.632812 165.664062 292.464844 165.640625 292.300781 165.613281 C 292.191406 165.597656 292.078125 165.574219 291.976562 165.558594 C 291.511719 165.414062 291.050781 165.390625 290.585938 165.425781 C 287.335938 165.101562 284.046875 165.019531 280.816406 164.585938 C 277.941406 164.199219 274.859375 163.261719 271.882812 162.722656 C 266.191406 161.6875 260.804688 162.3125 255.558594 164.117188 C 254.964844 163.816406 254.285156 163.601562 253.496094 163.527344 C 249.171875 163.136719 244.988281 163.5625 240.664062 163.691406 C 236.652344 163.808594 232.660156 163.625 228.65625 163.328125 C 227.207031 163.222656 225.730469 162.949219 224.257812 162.632812 C 226.765625 160.164062 229.867188 158.269531 233.105469 157.375 C 236.214844 156.507812 239.503906 156.554688 242.617188 157.398438 C 244.277344 157.847656 245.816406 158.492188 247.292969 159.371094 C 249.015625 160.398438 250.433594 161.78125 252.335938 162.484375 C 255.691406 163.726562 257.730469 159.667969 256.523438 157.027344 C 255.519531 154.824219 252.910156 153.277344 250.847656 152.183594 C 248.921875 151.164062 246.828125 150.335938 244.699219 149.824219 C 240.183594 148.730469 235.292969 148.753906 230.84375 150.179688 C 226.734375 151.503906 222.957031 154.03125 220.089844 157.257812 C 219.035156 158.445312 218.191406 159.71875 217.445312 161.027344 C 217.320312 160.996094 217.195312 160.96875 217.074219 160.9375 C 215.464844 160.597656 213.59375 161.226562 212.132812 160.414062 C 211.851562 160.257812 211.578125 159.933594 211.414062 159.808594 C 211.378906 159.710938 211.355469 159.660156 211.324219 159.59375 C 212.210938 158.304688 213.03125 156.96875 213.839844 155.644531 C 215.746094 152.492188 217.402344 149.234375 218.773438 145.808594 C 221.332031 139.441406 222.195312 132.46875 220.742188 125.726562 C 219.386719 119.460938 215.53125 113.703125 209.90625 110.523438 C 204.164062 107.269531 197.03125 106.78125 190.699219 108.363281 C 186.960938 109.300781 183.324219 110.996094 180.183594 113.226562 C 178.097656 114.707031 176.035156 116.289062 174.394531 118.191406 C 171.136719 113.027344 166.066406 108.316406 159.644531 108.753906 C 152.21875 109.257812 147.523438 116.941406 145.484375 123.351562 C 141.945312 134.496094 144.976562 147.132812 150.523438 157.476562 C 149.03125 157.0625 147.488281 156.804688 145.914062 156.730469 C 141.605469 156.53125 137.074219 157.816406 133.476562 160.175781 C 131.730469 161.324219 130.078125 162.683594 128.714844 164.273438 C 127.253906 165.980469 125.480469 168.257812 125.09375 170.539062 C 124.8125 172.222656 125.28125 173.902344 126.832031 174.8125 C 128.15625 175.585938 130.410156 175.527344 131.421875 174.21875 C 132.410156 172.933594 133.253906 171.195312 134.15625 170.050781 C 135.117188 168.84375 136.269531 167.777344 137.460938 166.996094 C 140 165.316406 142.742188 164.371094 145.667969 164.398438 C 148.890625 164.429688 152.113281 165.789062 154.839844 167.851562 C 153.734375 168.585938 152.625 169.324219 151.480469 169.984375 C 145.515625 173.4375 139.210938 176.402344 132.707031 178.679688 C 126.277344 180.933594 119.53125 182.042969 112.820312 183.078125 C 109.207031 183.632812 105.628906 184.351562 102.164062 185.511719 C 98.800781 186.644531 95.628906 188.34375 92.199219 189.28125 C 91.882812 189.371094 91.617188 189.519531 91.394531 189.703125 C 90.265625 189.792969 89.125 189.917969 88.023438 190.125 C 86.539062 190.398438 85.453125 190.992188 84.183594 191.761719 C 83.007812 192.46875 82.824219 193.785156 83.296875 194.820312 C 81.5 192.476562 77.8125 194.605469 79.230469 197.34375 C 83.234375 205.078125 87.050781 212.9375 90.125 221.09375 C 90.964844 223.328125 91.765625 225.589844 92.527344 227.859375 C 92.464844 227.90625 92.40625 227.921875 92.355469 227.980469 C 71.234375 249.003906 59.238281 282.125 61.832031 311.859375 C 62.046875 314.277344 62.410156 317.078125 63.128906 319.777344 C 63.054688 319.777344 62.980469 319.761719 62.898438 319.769531 C 53.363281 320.40625 48.324219 311.621094 45.9375 303.671875 C 43.285156 294.835938 41.863281 285.628906 41.488281 276.421875 C 40.75 258.046875 43.992188 238.953125 52.085938 222.335938 C 52.449219 221.597656 52.839844 220.859375 53.222656 220.117188 C 53.355469 220.058594 53.488281 219.984375 53.628906 219.941406 C 54.738281 217.714844 55.949219 215.527344 57.238281 213.390625 C 60.660156 208.421875 64.894531 204.042969 70.308594 201.351562 C 72.226562 200.375 71.609375 198.1875 70.148438 197.359375 Z M 281.902344 142.125 C 281.925781 142.125 281.941406 142.125 281.960938 142.125 C 281.957031 142.121094 281.941406 142.121094 281.925781 142.113281 C 281.925781 142.113281 281.910156 142.121094 281.902344 142.125 Z M 233.089844 115.988281 C 233.238281 116.339844 233.394531 116.695312 233.542969 117.050781 C 233.941406 117.722656 234.472656 118.257812 235.136719 118.648438 C 235.507812 118.804688 235.882812 118.964844 236.253906 119.121094 C 236.4375 119.203125 236.621094 119.277344 236.816406 119.359375 C 237.339844 119.582031 237.855469 119.859375 238.402344 120.015625 C 238.796875 120.128906 239.203125 120.207031 239.601562 120.296875 C 240.042969 120.402344 240.53125 120.496094 240.96875 120.496094 C 241.449219 120.496094 241.914062 120.394531 242.378906 120.289062 C 242.550781 120.253906 242.710938 120.214844 242.882812 120.1875 C 244.242188 119.898438 245.351562 118.65625 245.714844 117.355469 C 245.90625 116.636719 245.90625 115.917969 245.714844 115.203125 C 245.519531 114.515625 245.171875 113.921875 244.671875 113.414062 C 244.550781 113.273438 244.425781 113.132812 244.308594 113 C 244.109375 112.769531 243.984375 112.6875 243.703125 112.464844 C 243.398438 112.230469 243.304688 112.132812 243.015625 112.007812 C 242.660156 111.851562 242.304688 111.699219 241.953125 111.535156 C 241.382812 111.285156 240.9375 111.082031 240.378906 110.941406 C 240.175781 110.890625 239.976562 110.847656 239.785156 110.796875 C 239.386719 110.699219 238.996094 110.59375 238.597656 110.5 C 238.003906 110.316406 237.414062 110.285156 236.816406 110.417969 C 236.222656 110.449219 235.667969 110.617188 235.160156 110.949219 C 234.855469 111.179688 234.5625 111.417969 234.257812 111.644531 C 233.820312 112.050781 233.519531 112.527344 233.335938 113.082031 C 233.132812 113.429688 233.03125 113.804688 233.03125 114.203125 C 232.882812 114.796875 232.90625 115.386719 233.089844 115.988281 Z M 148.597656 93.105469 C 148.597656 93.128906 148.605469 93.144531 148.605469 93.167969 C 148.605469 93.152344 148.609375 93.144531 148.609375 93.128906 C 148.605469 93.121094 148.597656 93.113281 148.597656 93.105469 Z M 54.636719 180.675781 C 54.589844 180.609375 54.5625 180.542969 54.523438 180.46875 C 54.488281 180.5625 54.449219 180.660156 54.414062 180.757812 C 54.488281 180.726562 54.5625 180.699219 54.636719 180.675781 Z M 90.441406 147.371094 C 89.761719 151.910156 89.539062 156.523438 89.910156 161.058594 C 90.414062 167.335938 91.574219 178.628906 99.332031 180.1875 C 101.964844 180.71875 103.566406 177.289062 101.1875 175.789062 C 98.128906 173.863281 97.875 170.285156 97.601562 166.949219 C 97.316406 163.460938 97.261719 160 97.457031 156.507812 C 97.640625 153.195312 98.113281 149.882812 98.828125 146.628906 C 106.382812 145.558594 113.707031 143.347656 120.261719 139.628906 C 123.890625 137.570312 121.464844 131.699219 117.417969 132.867188 C 112.148438 134.382812 106.921875 136.027344 101.601562 137.289062 C 101.667969 137.097656 101.726562 136.90625 101.792969 136.714844 C 106.839844 123.410156 116.234375 113.96875 126.890625 104.992188 C 130.210938 102.195312 125.972656 97.9375 122.605469 99.4375 C 107.808594 106.011719 97.550781 122.132812 92.8125 137.074219 C 92.613281 137.703125 92.4375 138.347656 92.253906 138.984375 C 84.160156 139.96875 75.699219 140.035156 67.65625 138.777344 C 63.675781 138.15625 61.847656 144.042969 65.949219 144.964844 C 73.738281 146.710938 82.121094 147.652344 90.441406 147.371094 Z M 90.441406 147.371094 " fill-opacity="1" fill-rule="nonzero"/><path fill="#ffe9f3" d="M 180.265625 265.078125 C 180.285156 265.085938 180.308594 265.09375 180.332031 265.109375 C 180.324219 265.109375 180.324219 265.117188 180.316406 265.117188 C 180.285156 265.101562 180.269531 265.09375 180.242188 265.078125 C 180.25 265.078125 180.265625 265.078125 180.265625 265.078125 Z M 237.804688 254.527344 C 237.84375 254.535156 237.878906 254.554688 237.917969 254.5625 C 237.878906 254.429688 237.855469 254.296875 237.8125 254.164062 C 237.761719 254.371094 237.738281 254.519531 237.804688 254.527344 Z M 193.160156 281.472656 C 193.175781 281.472656 193.191406 281.480469 193.203125 281.480469 C 193.21875 281.480469 193.234375 281.480469 193.25 281.480469 C 193.183594 281.472656 193.109375 281.457031 193.042969 281.449219 C 193.042969 281.457031 193.101562 281.464844 193.160156 281.472656 Z M 230.1875 275.078125 C 230.421875 274.800781 230.679688 274.558594 230.910156 274.277344 C 230.859375 274.285156 230.800781 274.300781 230.746094 274.308594 C 230.570312 274.574219 230.371094 274.816406 230.1875 275.078125 Z M 180.085938 265.085938 C 179.992188 265.085938 179.894531 265.09375 179.796875 265.09375 C 179.894531 265.167969 180.117188 265.152344 180.257812 265.121094 C 180.210938 265.109375 180.175781 265.09375 180.136719 265.078125 C 180.117188 265.085938 180.109375 265.085938 180.085938 265.085938 Z M 223.113281 247.507812 C 222.765625 247.597656 222.417969 247.695312 222.070312 247.796875 C 222.234375 247.8125 222.394531 247.78125 222.558594 247.804688 C 222.742188 247.6875 222.9375 247.613281 223.113281 247.507812 Z M 301.945312 168.28125 C 302.773438 169.101562 303.230469 170.144531 303.328125 171.246094 C 302.191406 170.476562 300.261719 170.671875 299.632812 172.371094 C 293.085938 190.125 289.878906 210.226562 294.007812 228.925781 C 293.78125 229.53125 293.714844 230.207031 293.789062 230.914062 C 292.574219 230.664062 291.3125 230.574219 290.0625 230.558594 C 287.21875 230.515625 284.394531 230.789062 281.578125 231.1875 C 276.078125 231.972656 270.765625 233.695312 265.785156 236.152344 C 262.363281 237.828125 259.15625 241.066406 258.691406 244.722656 C 257.308594 245.832031 256.28125 247.242188 256.304688 249.230469 C 256.363281 255.027344 264.203125 256.167969 268.570312 256.648438 C 277.75 257.65625 287.484375 254.148438 294.265625 247.976562 C 296.179688 246.238281 298.296875 243.8125 299.402344 241.222656 C 299.464844 241.402344 299.515625 241.585938 299.566406 241.769531 C 299.847656 243.574219 300.078125 245.378906 300.230469 247.207031 C 300.285156 247.226562 300.320312 247.265625 300.371094 247.292969 C 300.386719 249.277344 300.136719 251.28125 299.574219 253.230469 C 298.472656 257.09375 296.292969 260.765625 293.527344 263.808594 C 291.933594 265.566406 290.160156 267.148438 288.238281 268.539062 C 287.925781 268.761719 287.617188 268.976562 287.3125 269.199219 C 264.574219 281.761719 240.066406 290.804688 214.414062 295.191406 C 212.863281 295.457031 211.296875 295.679688 209.730469 295.90625 C 209.390625 295.953125 209.050781 296.003906 208.703125 296.046875 C 208.703125 296.054688 208.710938 296.054688 208.710938 296.0625 C 189.9375 298.796875 170.265625 299.332031 151.351562 296.566406 C 150.613281 296.078125 149.699219 295.953125 148.824219 296.179688 C 145.042969 295.566406 141.292969 294.789062 137.585938 293.902344 C 136.816406 293.667969 136.046875 293.445312 135.285156 293.199219 C 135.101562 293.199219 134.9375 293.214844 134.761719 293.222656 C 124.199219 290.433594 113.800781 285.933594 105.414062 278.878906 C 105.324219 278.648438 105.199219 278.449219 105.125 278.21875 C 102.953125 276.628906 101.011719 274.765625 99.496094 272.519531 C 99.570312 272.066406 99.523438 271.578125 99.25 271.066406 C 96.855469 266.535156 96.027344 261.160156 96.789062 256.042969 C 96.789062 256.011719 96.796875 255.984375 96.804688 255.960938 C 97.269531 252.890625 98.3125 249.917969 99.9375 247.285156 C 101.917969 248.046875 104.269531 246.679688 104.542969 244.171875 C 104.792969 241.828125 103.929688 239.492188 103.265625 237.273438 C 102.597656 235.046875 101.890625 232.835938 101.136719 230.648438 C 99.714844 226.523438 98.105469 222.46875 96.355469 218.46875 C 92.753906 210.238281 88.519531 202.289062 83.375 194.917969 C 83.347656 194.878906 83.308594 194.867188 83.28125 194.828125 C 82.816406 193.792969 82.992188 192.476562 84.167969 191.765625 C 85.4375 191 86.523438 190.40625 88.011719 190.132812 C 89.117188 189.925781 90.25 189.800781 91.378906 189.710938 C 91.601562 189.527344 91.867188 189.378906 92.1875 189.289062 C 95.613281 188.351562 98.777344 186.648438 102.148438 185.519531 C 105.621094 184.351562 109.199219 183.640625 112.804688 183.085938 C 119.515625 182.050781 126.261719 180.941406 132.691406 178.6875 C 139.195312 176.402344 145.507812 173.441406 151.464844 169.988281 C 152.609375 169.324219 153.71875 168.59375 154.828125 167.859375 C 157.027344 169.523438 158.921875 171.644531 160.164062 173.976562 C 161.5 176.476562 164.980469 174.671875 164.507812 172.140625 C 163.886719 168.84375 162.386719 165.929688 160.289062 163.550781 C 160.820312 162.660156 160.917969 161.507812 160.199219 160.273438 C 154.820312 151.015625 149.734375 139.921875 151.375 128.917969 C 151.472656 128.269531 151.617188 127.558594 151.78125 126.828125 C 152.507812 127.242188 153.394531 127.359375 154.257812 126.855469 C 154.574219 126.671875 154.90625 126.496094 155.226562 126.316406 C 155.3125 126.273438 155.335938 126.265625 155.375 126.242188 C 155.519531 126.191406 155.675781 126.140625 155.832031 126.09375 C 156.527344 125.875 157.207031 125.613281 157.902344 125.40625 C 159.222656 125.007812 160.582031 124.667969 161.949219 124.429688 C 162.304688 124.371094 162.691406 124.269531 163.042969 124.253906 C 163.191406 124.246094 163.339844 124.238281 163.40625 124.230469 C 164.050781 124.179688 164.699219 124.148438 165.34375 124.136719 C 167.019531 124.089844 168.972656 124.585938 170.582031 124.003906 C 171.070312 123.824219 171.5 123.574219 171.882812 123.277344 C 172.105469 124.699219 173.523438 125.664062 175.140625 124.90625 C 177.550781 123.773438 179.621094 122.117188 181.800781 120.59375 C 181.90625 122.042969 183.152344 123.449219 184.824219 122.863281 C 185.679688 122.566406 186.589844 122.648438 187.542969 122.484375 C 188.386719 122.339844 189.199219 122.175781 189.738281 122.125 C 191.617188 121.953125 193.476562 121.804688 195.371094 121.871094 C 195.828125 121.886719 196.285156 121.917969 196.738281 121.953125 C 196.996094 121.976562 197.261719 122.003906 197.519531 122.027344 C 197.957031 122.078125 198.039062 122.085938 197.773438 122.058594 C 197.503906 122.027344 197.585938 122.042969 198.015625 122.101562 C 198.273438 122.144531 198.527344 122.191406 198.785156 122.242188 C 199.226562 122.332031 199.671875 122.425781 200.113281 122.539062 C 201.960938 122.996094 203.667969 123.832031 205.496094 124.320312 C 207.421875 124.835938 209.417969 123.898438 210.3125 122.167969 C 212.011719 125 212.789062 128.21875 212.886719 131.484375 C 212.871094 131.65625 212.871094 131.820312 212.855469 131.988281 C 212.878906 132.292969 212.886719 132.601562 212.90625 132.90625 C 212.832031 135.132812 212.472656 137.351562 211.863281 139.457031 C 210.808594 143.109375 209.136719 146.488281 207.222656 149.757812 C 205.214844 153.1875 202.273438 156.488281 201.3125 160.414062 C 200.609375 163.296875 203.941406 166.484375 206.699219 164.554688 C 208.582031 163.238281 210.03125 161.472656 211.332031 159.578125 C 211.363281 159.644531 211.386719 159.695312 211.421875 159.792969 C 211.585938 159.925781 211.859375 160.242188 212.136719 160.398438 C 213.601562 161.210938 215.472656 160.578125 217.082031 160.925781 C 217.199219 160.953125 217.328125 160.984375 217.453125 161.011719 C 216.085938 163.417969 215.144531 166.003906 214.597656 168.84375 C 214 171.980469 218.398438 173.25 219.410156 170.167969 C 220.335938 167.351562 222.078125 164.753906 224.257812 162.601562 C 225.730469 162.921875 227.207031 163.195312 228.65625 163.296875 C 232.652344 163.585938 236.652344 163.769531 240.664062 163.660156 C 244.988281 163.535156 249.179688 163.105469 253.496094 163.496094 C 254.285156 163.570312 254.964844 163.785156 255.558594 164.089844 C 260.796875 162.285156 266.191406 161.664062 271.882812 162.691406 C 274.859375 163.230469 277.941406 164.164062 280.816406 164.554688 C 284.046875 164.992188 287.34375 165.074219 290.585938 165.398438 C 291.050781 165.359375 291.511719 165.390625 291.976562 165.53125 C 292.085938 165.546875 292.199219 165.566406 292.300781 165.582031 C 292.464844 165.605469 292.632812 165.632812 292.796875 165.65625 C 292.351562 165.597656 291.910156 165.539062 291.472656 165.480469 C 292.523438 165.621094 293.558594 165.773438 294.59375 165.988281 C 295.058594 166.085938 295.53125 166.152344 296.003906 166.226562 C 296.351562 166.261719 296.699219 166.308594 297.046875 166.34375 C 297.753906 166.425781 298.503906 166.449219 299.195312 166.609375 C 300.15625 166.832031 301.257812 167.601562 301.945312 168.28125 Z M 143.628906 259.082031 C 142.195312 257.773438 140.320312 257.09375 138.558594 256.332031 C 136.558594 255.457031 134.546875 254.609375 132.5 253.839844 C 125.042969 251.015625 116.839844 249.285156 108.941406 251.234375 C 105.230469 252.152344 100.90625 254.171875 100.707031 258.5625 C 100.542969 262.015625 103.277344 265.5 105.636719 267.777344 C 110.078125 272.089844 116.210938 274.449219 122.367188 274.609375 C 123.21875 274.632812 124.121094 274.589844 125.035156 274.515625 C 127.84375 274.734375 130.644531 274.640625 133.460938 274.179688 C 137.023438 273.597656 141.167969 272.53125 143.636719 269.699219 C 146.230469 266.75 146.710938 261.90625 143.628906 259.082031 Z M 168.773438 235.042969 C 170.835938 237.164062 173.648438 234.480469 172.59375 232.089844 C 168.011719 221.671875 155.625 215.089844 144.769531 213.757812 C 134.191406 212.457031 123.402344 215.984375 115.265625 222.730469 C 114.023438 221.183594 112.761719 219.644531 111.429688 218.160156 C 108.613281 215.007812 103.066406 219.179688 105.511719 222.730469 C 107.566406 225.710938 109.773438 228.535156 112.023438 231.375 C 113.335938 233.039062 116.300781 232.792969 117.652344 231.375 C 124.570312 224.089844 134.265625 220.296875 144.296875 221.117188 C 154.613281 221.96875 161.871094 227.941406 168.773438 235.042969 Z M 244.042969 257.980469 C 244.242188 251.414062 240.273438 244.75 234.089844 242.429688 C 225.34375 239.144531 217.179688 243.996094 208.863281 246.207031 C 199.226562 248.773438 189.300781 249.910156 179.519531 251.730469 C 171.707031 253.179688 162.976562 254.683594 160.761719 263.605469 C 158.765625 271.652344 163.472656 279.683594 168.578125 285.5625 C 172.132812 289.652344 177.988281 292.1875 183.011719 293.820312 C 191.082031 296.445312 199.679688 296.574219 207.570312 293.601562 C 208.132812 293.933594 208.828125 294.082031 209.632812 293.882812 C 222.542969 290.722656 233.902344 282.316406 240.15625 270.492188 C 242.179688 266.683594 243.917969 262.34375 244.042969 257.980469 Z M 279.035156 208.214844 C 277.75 209.863281 276.53125 211.539062 275.324219 213.234375 C 266.636719 206.992188 255.710938 204.300781 245.046875 206.285156 C 234.125 208.316406 222.46875 216.117188 218.605469 226.855469 C 217.792969 229.101562 221.125 231.054688 222.675781 229.230469 C 229.128906 221.605469 235.890625 215.347656 246.113281 213.582031 C 255.867188 211.902344 266.101562 215.140625 273.34375 221.820312 C 275.332031 223.652344 278.113281 223.171875 279.597656 221.011719 C 281.460938 218.308594 283.277344 215.609375 284.957031 212.78125 C 287.070312 209.21875 281.726562 204.753906 279.035156 208.214844 Z M 279.035156 208.214844 " fill-opacity="1" fill-rule="nonzero"/><path fill="#fbbccf" d="M 206.175781 304.046875 C 205.640625 304.691406 205.117188 305.34375 204.527344 305.925781 C 203.632812 306.8125 203.234375 307.09375 202.125 307.730469 C 200.285156 308.789062 198.414062 309.261719 196.183594 309.144531 C 195.355469 309.097656 194.453125 308.878906 193.335938 308.515625 C 192.40625 308.210938 191.628906 307.835938 190.664062 307.214844 C 189.902344 306.71875 189.125 306.066406 188.414062 305.34375 C 194.34375 305.152344 200.269531 304.714844 206.175781 304.046875 Z M 237.804688 254.527344 C 237.84375 254.535156 237.878906 254.554688 237.917969 254.5625 C 238.226562 255.671875 238.425781 256.765625 238.425781 257.632812 C 238.425781 260.699219 237.183594 263.875 235.855469 266.585938 C 234.488281 269.367188 232.824219 271.941406 230.917969 274.277344 C 230.867188 274.285156 230.808594 274.300781 230.753906 274.308594 C 230.578125 274.566406 230.378906 274.816406 230.191406 275.078125 C 224.496094 281.679688 216.792969 286.347656 208.15625 288.460938 C 207.230469 288.691406 206.664062 289.230469 206.375 289.894531 C 195.339844 292.070312 182.894531 290.707031 173.96875 283.328125 C 170.027344 280.074219 166.246094 273.695312 165.839844 268.589844 C 165.601562 265.625 166.464844 262.378906 168.90625 260.507812 C 171.789062 258.28125 176.414062 257.964844 179.871094 257.308594 C 187.773438 255.804688 195.761719 254.808594 203.640625 253.179688 C 207.59375 252.367188 211.511719 251.398438 215.347656 250.148438 C 217.613281 249.410156 219.808594 248.46875 222.070312 247.789062 C 222.234375 247.804688 222.394531 247.773438 222.558594 247.796875 C 222.738281 247.679688 222.929688 247.613281 223.105469 247.5 C 224.347656 247.183594 225.609375 246.953125 226.933594 246.917969 C 230.148438 246.828125 233.734375 247.628906 235.847656 250.257812 C 236.710938 251.339844 237.371094 252.75 237.804688 254.15625 C 237.761719 254.371094 237.738281 254.519531 237.804688 254.527344 Z M 180.257812 265.128906 C 180.210938 265.117188 180.175781 265.101562 180.136719 265.085938 C 180.117188 265.085938 180.117188 265.085938 180.09375 265.085938 C 179.996094 265.085938 179.902344 265.09375 179.804688 265.09375 C 179.894531 265.167969 180.125 265.160156 180.257812 265.128906 Z M 180.339844 265.109375 C 180.316406 265.101562 180.292969 265.09375 180.269531 265.078125 C 180.265625 265.078125 180.257812 265.078125 180.25 265.078125 C 180.277344 265.09375 180.292969 265.101562 180.324219 265.117188 C 180.332031 265.117188 180.332031 265.109375 180.339844 265.109375 Z M 193.25 281.480469 C 193.183594 281.472656 193.109375 281.457031 193.042969 281.449219 C 193.042969 281.457031 193.101562 281.464844 193.160156 281.472656 C 193.175781 281.472656 193.191406 281.480469 193.203125 281.480469 C 193.21875 281.480469 193.242188 281.480469 193.25 281.480469 Z M 143.628906 259.082031 C 146.71875 261.90625 146.230469 266.75 143.644531 269.707031 C 141.167969 272.539062 137.03125 273.613281 133.46875 274.1875 C 130.644531 274.648438 127.84375 274.734375 125.042969 274.523438 C 124.128906 274.601562 123.226562 274.640625 122.375 274.617188 C 116.21875 274.457031 110.085938 272.097656 105.644531 267.785156 C 103.285156 265.5 100.558594 262.015625 100.714844 258.570312 C 100.921875 254.179688 105.238281 252.160156 108.945312 251.242188 C 116.847656 249.289062 125.050781 251.019531 132.507812 253.847656 C 134.546875 254.621094 136.566406 255.464844 138.566406 256.339844 C 140.3125 257.101562 142.1875 257.773438 143.628906 259.082031 Z M 122.671875 252.003906 C 120.742188 254.230469 119.144531 256.679688 118.007812 259.398438 C 117.496094 260.613281 117.0625 261.855469 116.742188 263.132812 C 116.582031 263.785156 116.425781 264.449219 116.332031 265.117188 C 116.167969 266.152344 116.308594 267.089844 116.457031 268.117188 C 116.597656 269.09375 117.800781 269.898438 118.738281 269.855469 C 119.804688 269.8125 120.707031 269.152344 121.023438 268.117188 C 121.253906 267.347656 121.488281 266.632812 121.585938 265.824219 C 121.59375 265.738281 121.679688 265.101562 121.664062 265.167969 C 121.703125 264.914062 121.746094 264.65625 121.792969 264.40625 C 122.011719 263.191406 122.316406 261.988281 122.691406 260.820312 C 123.070312 259.660156 123.476562 258.550781 123.875 257.699219 C 124.40625 256.546875 125.027344 255.429688 125.722656 254.355469 C 126.890625 252.523438 124.128906 250.324219 122.671875 252.003906 Z M 136.238281 256.699219 C 135.558594 256.175781 134.4375 256.152344 133.832031 256.839844 C 133.238281 257.515625 132.617188 258.171875 132.058594 258.882812 C 131.40625 259.703125 130.84375 260.589844 130.34375 261.507812 C 129.832031 262.4375 129.394531 263.40625 129.085938 264.421875 C 128.894531 265.042969 128.695312 265.714844 128.738281 266.371094 C 128.796875 267.121094 128.878906 267.976562 129.351562 268.589844 C 129.796875 269.175781 130.238281 269.558594 130.984375 269.65625 C 131.730469 269.757812 132.285156 269.507812 132.863281 269.042969 C 133.285156 268.703125 133.542969 268.214844 133.769531 267.734375 C 134.066406 267.121094 134.179688 266.585938 134.296875 265.945312 C 134.457031 265.101562 134.621094 264.242188 134.84375 263.40625 C 134.945312 263.007812 135.066406 262.609375 135.207031 262.21875 C 135.273438 262.023438 135.351562 261.832031 135.425781 261.640625 C 135.53125 261.382812 135.433594 261.617188 135.382812 261.734375 C 135.480469 261.515625 135.566406 261.292969 135.664062 261.0625 C 135.699219 260.972656 135.730469 260.886719 135.765625 260.796875 C 135.832031 260.597656 135.945312 260.398438 136.039062 260.207031 C 136.230469 259.800781 136.46875 259.4375 136.726562 259.066406 C 137.238281 258.328125 136.914062 257.21875 136.238281 256.699219 Z M 264.839844 240.765625 C 264.863281 240.773438 264.882812 240.785156 264.914062 240.800781 C 264.898438 240.792969 264.890625 240.785156 264.875 240.773438 C 264.863281 240.773438 264.855469 240.773438 264.839844 240.765625 Z M 290.0625 230.558594 C 291.3125 230.582031 292.574219 230.664062 293.789062 230.914062 C 293.800781 231.039062 293.78125 231.152344 293.800781 231.277344 C 294.273438 233.695312 296.394531 235.324219 297.617188 237.355469 C 298.472656 238.796875 298.960938 239.855469 299.402344 241.222656 C 298.300781 243.820312 296.183594 246.238281 294.265625 247.976562 C 287.484375 254.148438 277.757812 257.648438 268.570312 256.648438 C 264.203125 256.167969 256.363281 255.027344 256.304688 249.230469 C 256.28125 247.242188 257.308594 245.832031 258.691406 244.722656 C 259.15625 241.0625 262.363281 237.828125 265.785156 236.152344 C 270.765625 233.703125 276.078125 231.972656 281.578125 231.1875 C 284.402344 230.789062 287.21875 230.523438 290.0625 230.558594 Z M 272.613281 247.546875 C 272.289062 247.007812 271.949219 246.472656 271.484375 246.042969 C 271.1875 245.769531 270.882812 245.488281 270.582031 245.222656 C 269.9375 244.65625 269.289062 244.09375 268.636719 243.523438 C 267.90625 242.886719 267.167969 242.097656 266.308594 241.636719 C 265.960938 241.453125 265.644531 241.230469 265.3125 241.023438 C 265.269531 240.992188 265.089844 240.898438 264.921875 240.808594 C 264.875 240.773438 264.832031 240.726562 264.789062 240.691406 C 264.699219 240.609375 264.609375 240.527344 264.527344 240.445312 C 263.804688 239.765625 262.546875 239.671875 261.839844 240.445312 C 261.105469 241.246094 261.136719 242.339844 261.839844 243.136719 C 261.90625 243.210938 261.964844 243.277344 262.03125 243.351562 C 262.046875 243.367188 262.28125 243.65625 262.171875 243.5 C 262.171875 243.484375 262.15625 243.457031 262.125 243.390625 C 262.058594 242.953125 262.261719 243.707031 262.355469 243.886719 C 262.546875 244.226562 262.769531 244.558594 262.945312 244.90625 C 263.40625 245.792969 264.179688 246.570312 264.816406 247.339844 C 265.347656 247.980469 265.882812 248.632812 266.421875 249.277344 C 266.679688 249.585938 266.953125 249.890625 267.21875 250.199219 C 267.648438 250.695312 268.203125 251.050781 268.75 251.40625 C 269.753906 252.0625 271.363281 251.847656 272.179688 250.960938 C 273.011719 250.058594 273.292969 248.648438 272.613281 247.546875 Z M 286.664062 243.507812 C 286.25 243.070312 285.851562 242.671875 285.347656 242.332031 C 284.984375 242.089844 284.617188 241.859375 284.261719 241.609375 C 283.566406 241.121094 282.878906 240.625 282.191406 240.128906 C 281.527344 239.65625 280.867188 239.136719 280.128906 238.789062 C 279.9375 238.703125 279.738281 238.628906 279.546875 238.554688 C 279.546875 238.554688 279.554688 238.554688 279.5625 238.554688 C 279.449219 238.582031 279.058594 238.289062 278.953125 238.222656 C 278.59375 237.976562 278.253906 237.6875 277.90625 237.429688 C 277.566406 237.171875 276.886719 237.121094 276.5 237.246094 C 276.117188 237.371094 275.800781 237.578125 275.554688 237.902344 C 275.039062 238.574219 275.007812 239.707031 275.695312 240.300781 C 276.007812 240.566406 276.332031 240.832031 276.632812 241.105469 C 276.796875 241.246094 276.921875 241.414062 277.0625 241.570312 C 277.105469 241.652344 277.167969 241.734375 277.21875 241.808594 C 277.785156 242.613281 278.539062 243.265625 279.265625 243.929688 C 279.878906 244.484375 280.492188 245.03125 281.097656 245.59375 C 281.421875 245.890625 281.726562 246.199219 282.042969 246.503906 C 282.496094 246.9375 283.011719 247.25 283.542969 247.566406 C 284.652344 248.242188 286.109375 247.902344 286.878906 246.902344 C 287.652344 245.875 287.558594 244.449219 286.664062 243.507812 Z M 165.609375 117.441406 C 163.644531 116.082031 161.261719 114.75 158.863281 115.765625 C 155.003906 117.382812 152.78125 122.574219 151.804688 126.8125 C 152.527344 127.226562 153.414062 127.34375 154.28125 126.839844 C 154.597656 126.65625 154.929688 126.480469 155.246094 126.300781 C 155.335938 126.257812 155.359375 126.25 155.394531 126.226562 C 155.542969 126.175781 155.699219 126.125 155.855469 126.082031 C 156.546875 125.859375 157.226562 125.597656 157.921875 125.390625 C 159.246094 124.992188 160.605469 124.652344 161.972656 124.417969 C 162.328125 124.355469 162.710938 124.253906 163.066406 124.238281 C 163.214844 124.230469 163.363281 124.222656 163.429688 124.214844 C 164.070312 124.164062 164.722656 124.136719 165.363281 124.121094 C 167.042969 124.074219 168.992188 124.570312 170.605469 123.988281 C 171.09375 123.808594 171.519531 123.558594 171.90625 123.261719 C 171.890625 123.152344 171.859375 123.046875 171.859375 122.929688 C 169.910156 120.992188 167.839844 118.996094 165.609375 117.441406 Z M 193.796875 115.386719 C 190.46875 115.890625 187.328125 117.242188 184.425781 118.890625 C 183.523438 119.410156 182.660156 119.980469 181.816406 120.570312 C 181.917969 122.019531 183.167969 123.425781 184.839844 122.839844 C 185.695312 122.546875 186.605469 122.625 187.558594 122.464844 C 188.402344 122.316406 189.214844 122.152344 189.753906 122.101562 C 191.628906 121.933594 193.492188 121.785156 195.382812 121.851562 C 195.84375 121.863281 196.300781 121.894531 196.75 121.933594 C 197.011719 121.953125 197.277344 121.984375 197.535156 122.003906 C 197.972656 122.058594 198.050781 122.066406 197.785156 122.035156 C 197.519531 122.003906 197.601562 122.019531 198.03125 122.078125 C 198.289062 122.125 198.539062 122.167969 198.800781 122.21875 C 199.242188 122.308594 199.6875 122.40625 200.128906 122.515625 C 201.976562 122.972656 203.683594 123.808594 205.507812 124.296875 C 207.4375 124.816406 209.433594 123.875 210.328125 122.144531 C 210.261719 122.035156 210.210938 121.910156 210.136719 121.796875 C 206.75 116.46875 199.804688 114.476562 193.796875 115.386719 Z M 193.796875 115.386719 " fill-opacity="1" fill-rule="nonzero"/><path fill="#2a4c09" d="M 161.625 333.613281 C 161.203125 333.421875 160.769531 333.226562 160.347656 333.035156 C 157.929688 331.910156 155.542969 330.742188 153.15625 329.5625 C 150.859375 328.421875 148.671875 326.921875 147.925781 324.304688 C 147.183594 321.714844 148.265625 318.816406 149.011719 316.332031 C 150.917969 321.058594 153.6875 325.464844 157.066406 329.273438 C 158.492188 330.863281 160.03125 332.28125 161.625 333.613281 Z M 242.84375 316.078125 C 244.117188 314.386719 245.246094 312.621094 246.273438 310.792969 C 247.6875 312.699219 249.039062 314.652344 250.296875 316.679688 C 252.453125 320.160156 256.296875 325.21875 255.601562 329.515625 C 254.832031 334.269531 249.761719 334.65625 245.949219 335.386719 C 241.027344 336.328125 236.113281 337.265625 231.191406 338.203125 C 217.953125 340.734375 202.921875 344.304688 189.265625 341.660156 C 188.675781 341.621094 188.082031 341.539062 187.492188 341.480469 C 187.726562 340.335938 187.285156 339.046875 185.953125 338.863281 C 168.527344 336.453125 155.394531 320.480469 153.054688 303.53125 C 157.316406 304.117188 161.589844 304.558594 165.808594 304.871094 C 171.34375 305.285156 176.902344 305.417969 182.464844 305.394531 C 183.433594 307.945312 184.816406 310.148438 187.019531 311.929688 C 189.65625 314.070312 192.621094 315.3125 196.003906 315.660156 C 202.265625 316.308594 210.269531 312.574219 212.332031 306.289062 C 212.707031 305.152344 212.34375 304.101562 211.644531 303.347656 C 211.644531 303.347656 211.644531 303.347656 211.644531 303.339844 C 222.597656 301.832031 233.414062 299.484375 243.984375 296.351562 C 243.960938 296.460938 243.9375 296.574219 243.917969 296.683594 C 243.511719 298.503906 242.992188 300.292969 242.371094 302.042969 C 241.085938 305.699219 239.3125 309.195312 237.230469 312.457031 C 235.410156 315.289062 233.3125 317.898438 230.984375 320.273438 C 230.976562 320.257812 230.960938 320.242188 230.953125 320.226562 C 230.488281 320.695312 230 321.136719 229.519531 321.589844 C 229.558594 321.597656 229.578125 321.625 229.617188 321.632812 C 226.851562 324.230469 223.785156 326.492188 220.4375 328.339844 C 217.808594 329.789062 220.121094 333.480469 222.75 332.296875 C 230.703125 328.710938 237.597656 323.074219 242.84375 316.078125 Z M 242.941406 320.863281 C 243.082031 320.820312 243.230469 320.769531 243.371094 320.730469 C 243.324219 320.664062 243.289062 320.589844 243.253906 320.523438 C 243.15625 320.640625 243.050781 320.753906 242.941406 320.863281 Z M 120.261719 139.628906 C 123.890625 137.570312 121.464844 131.699219 117.417969 132.867188 C 112.148438 134.382812 106.921875 136.027344 101.601562 137.289062 C 100.476562 140.328125 99.53125 143.449219 98.835938 146.628906 C 106.390625 145.558594 113.707031 143.347656 120.261719 139.628906 Z M 90.441406 147.371094 C 90.871094 144.53125 91.476562 141.726562 92.261719 138.984375 C 84.167969 139.96875 75.707031 140.035156 67.664062 138.777344 C 63.679688 138.15625 61.855469 144.042969 65.957031 144.964844 C 73.738281 146.710938 82.121094 147.652344 90.441406 147.371094 Z M 233.542969 117.050781 C 233.941406 117.722656 234.472656 118.257812 235.136719 118.648438 C 235.507812 118.804688 235.882812 118.964844 236.253906 119.121094 C 236.4375 119.203125 236.621094 119.277344 236.816406 119.359375 C 237.339844 119.582031 237.855469 119.859375 238.402344 120.015625 C 238.796875 120.128906 239.203125 120.207031 239.601562 120.296875 C 240.042969 120.402344 240.53125 120.496094 240.96875 120.496094 C 241.449219 120.496094 241.914062 120.394531 242.378906 120.289062 C 242.550781 120.253906 242.710938 120.214844 242.882812 120.1875 C 244.242188 119.898438 245.351562 118.65625 245.714844 117.355469 C 245.90625 116.636719 245.90625 115.917969 245.714844 115.203125 C 245.519531 114.515625 245.171875 113.921875 244.671875 113.414062 C 244.550781 113.273438 244.425781 113.132812 244.308594 113 C 244.109375 112.769531 243.984375 112.6875 243.703125 112.464844 C 243.398438 112.230469 243.304688 112.132812 243.015625 112.007812 C 242.660156 111.851562 242.304688 111.699219 241.953125 111.535156 C 241.382812 111.285156 240.9375 111.082031 240.378906 110.941406 C 240.175781 110.890625 239.976562 110.847656 239.785156 110.796875 C 239.386719 110.699219 238.996094 110.59375 238.597656 110.5 C 238.003906 110.316406 237.414062 110.285156 236.816406 110.417969 C 236.222656 110.449219 235.667969 110.617188 235.160156 110.949219 C 234.855469 111.179688 234.5625 111.417969 234.257812 111.644531 C 233.820312 112.050781 233.519531 112.527344 233.335938 113.082031 C 233.132812 113.429688 233.03125 113.804688 233.03125 114.203125 C 232.898438 114.796875 232.925781 115.386719 233.113281 115.988281 C 233.246094 116.339844 233.394531 116.695312 233.542969 117.050781 Z M 319.785156 115.402344 C 317.058594 116 314.324219 116.539062 311.582031 117.058594 C 306.476562 118.011719 301.347656 118.789062 296.1875 119.433594 C 289.257812 120.289062 282.273438 120.777344 275.28125 120.96875 C 275.503906 122.257812 275.695312 123.558594 275.84375 124.867188 C 275.945312 125.835938 276.019531 126.8125 276.074219 127.789062 C 283.167969 128.105469 290.269531 128.121094 297.378906 127.707031 C 302.945312 127.390625 308.507812 126.730469 314.023438 125.925781 C 319.003906 125.191406 325.882812 124.976562 329.777344 121.5625 C 329.949219 121.414062 330.050781 121.242188 330.183594 121.074219 C 328.941406 118.738281 327.515625 116.503906 325.859375 114.394531 C 323.820312 114.351562 321.855469 114.945312 319.785156 115.402344 Z M 267.664062 121.042969 C 266.414062 121.035156 265.164062 121.050781 263.914062 121.03125 C 260.050781 120.941406 260.207031 126.566406 263.914062 126.9375 C 265.304688 127.078125 266.703125 127.167969 268.089844 127.277344 C 268.089844 127.0625 268.105469 126.847656 268.105469 126.632812 C 268.0625 124.816406 267.921875 122.929688 267.664062 121.042969 Z M 267.664062 121.042969 " fill-opacity="1" fill-rule="nonzero"/><path fill="#020201" d="M 234.09375 242.429688 C 225.351562 239.144531 217.1875 243.996094 208.871094 246.207031 C 199.234375 248.773438 189.308594 249.910156 179.523438 251.730469 C 171.714844 253.179688 162.984375 254.683594 160.769531 263.605469 C 158.773438 271.652344 163.480469 279.683594 168.585938 285.5625 C 172.140625 289.652344 177.996094 292.1875 183.019531 293.820312 C 191.089844 296.445312 199.6875 296.574219 207.578125 293.601562 C 208.140625 293.933594 208.835938 294.082031 209.640625 293.882812 C 222.550781 290.722656 233.910156 282.316406 240.164062 270.492188 C 242.171875 266.683594 243.910156 262.34375 244.042969 257.980469 C 244.242188 251.414062 240.273438 244.75 234.09375 242.429688 Z M 238.425781 257.632812 C 238.425781 260.699219 237.183594 263.875 235.855469 266.585938 C 234.488281 269.367188 232.824219 271.941406 230.917969 274.277344 C 230.6875 274.558594 230.429688 274.800781 230.191406 275.078125 C 224.496094 281.679688 216.792969 286.347656 208.15625 288.460938 C 207.230469 288.691406 206.664062 289.230469 206.375 289.894531 C 195.339844 292.070312 182.894531 290.707031 173.96875 283.328125 C 170.027344 280.074219 166.246094 273.695312 165.839844 268.589844 C 165.601562 265.625 166.464844 262.378906 168.90625 260.507812 C 171.789062 258.28125 176.414062 257.964844 179.871094 257.308594 C 187.773438 255.804688 195.761719 254.808594 203.640625 253.179688 C 207.59375 252.367188 211.511719 251.398438 215.347656 250.148438 C 217.613281 249.410156 219.808594 248.46875 222.070312 247.789062 C 222.417969 247.6875 222.765625 247.597656 223.113281 247.5 C 224.355469 247.183594 225.617188 246.953125 226.941406 246.917969 C 230.15625 246.828125 233.742188 247.628906 235.855469 250.257812 C 236.71875 251.339844 237.375 252.75 237.8125 254.15625 C 237.855469 254.289062 237.878906 254.421875 237.917969 254.554688 C 238.226562 255.671875 238.425781 256.765625 238.425781 257.632812 Z M 125.714844 254.347656 C 125.019531 255.421875 124.40625 256.53125 123.867188 257.691406 C 123.476562 258.542969 123.0625 259.652344 122.6875 260.8125 C 122.308594 261.988281 122.011719 263.1875 121.785156 264.398438 C 121.738281 264.648438 121.695312 264.910156 121.660156 265.160156 C 121.671875 265.09375 121.585938 265.738281 121.578125 265.816406 C 121.480469 266.625 121.246094 267.339844 121.015625 268.109375 C 120.707031 269.144531 119.796875 269.804688 118.730469 269.847656 C 117.792969 269.894531 116.589844 269.085938 116.449219 268.109375 C 116.300781 267.082031 116.167969 266.144531 116.324219 265.109375 C 116.425781 264.441406 116.574219 263.777344 116.738281 263.125 C 117.0625 261.847656 117.492188 260.605469 118 259.390625 C 119.136719 256.671875 120.734375 254.222656 122.664062 251.996094 C 124.128906 250.324219 126.890625 252.523438 125.714844 254.347656 Z M 136.238281 256.699219 C 136.914062 257.21875 137.238281 258.320312 136.710938 259.074219 C 136.453125 259.445312 136.226562 259.804688 136.027344 260.214844 C 135.9375 260.40625 135.824219 260.605469 135.753906 260.804688 C 135.714844 260.894531 135.683594 260.980469 135.648438 261.070312 C 135.558594 261.292969 135.472656 261.523438 135.367188 261.742188 C 135.417969 261.617188 135.515625 261.382812 135.410156 261.648438 C 135.339844 261.839844 135.265625 262.03125 135.191406 262.222656 C 135.050781 262.617188 134.933594 263.015625 134.828125 263.414062 C 134.613281 264.25 134.445312 265.101562 134.28125 265.949219 C 134.15625 266.59375 134.042969 267.132812 133.757812 267.742188 C 133.527344 268.222656 133.269531 268.710938 132.847656 269.050781 C 132.277344 269.515625 131.71875 269.765625 130.96875 269.664062 C 130.222656 269.558594 129.78125 269.175781 129.335938 268.597656 C 128.863281 267.984375 128.78125 267.125 128.722656 266.378906 C 128.671875 265.730469 128.878906 265.054688 129.070312 264.429688 C 129.382812 263.414062 129.808594 262.445312 130.328125 261.515625 C 130.828125 260.597656 131.390625 259.710938 132.042969 258.890625 C 132.597656 258.179688 133.21875 257.527344 133.816406 256.847656 C 134.4375 256.152344 135.558594 256.175781 136.238281 256.699219 Z M 271.492188 246.042969 C 271.195312 245.769531 270.890625 245.488281 270.589844 245.222656 C 269.945312 244.65625 269.296875 244.09375 268.644531 243.523438 C 267.914062 242.886719 267.175781 242.097656 266.316406 241.636719 C 265.96875 241.453125 265.652344 241.230469 265.320312 241.023438 C 265.273438 240.992188 265.097656 240.898438 264.929688 240.808594 C 264.882812 240.773438 264.839844 240.726562 264.792969 240.691406 C 264.707031 240.609375 264.617188 240.527344 264.535156 240.445312 C 263.8125 239.765625 262.554688 239.671875 261.847656 240.445312 C 261.113281 241.246094 261.144531 242.339844 261.847656 243.136719 C 261.914062 243.210938 261.972656 243.277344 262.039062 243.351562 C 262.054688 243.367188 262.289062 243.65625 262.179688 243.5 C 262.179688 243.484375 262.164062 243.457031 262.132812 243.390625 C 262.066406 242.953125 262.265625 243.707031 262.363281 243.886719 C 262.554688 244.226562 262.777344 244.558594 262.953125 244.90625 C 263.414062 245.792969 264.1875 246.570312 264.824219 247.339844 C 265.355469 247.980469 265.886719 248.632812 266.429688 249.277344 C 266.6875 249.585938 266.960938 249.890625 267.226562 250.199219 C 267.65625 250.695312 268.210938 251.050781 268.757812 251.40625 C 269.761719 252.0625 271.371094 251.847656 272.183594 250.960938 C 273.027344 250.046875 273.300781 248.632812 272.628906 247.53125 C 272.289062 247.007812 271.957031 246.464844 271.492188 246.042969 Z M 264.839844 240.765625 C 264.863281 240.773438 264.863281 240.773438 264.875 240.773438 C 264.890625 240.78125 264.898438 240.785156 264.914062 240.800781 C 264.882812 240.785156 264.863281 240.773438 264.839844 240.765625 Z M 286.664062 243.507812 C 287.558594 244.453125 287.660156 245.875 286.863281 246.902344 C 286.09375 247.902344 284.628906 248.242188 283.53125 247.566406 C 282.996094 247.25 282.480469 246.9375 282.027344 246.503906 C 281.71875 246.199219 281.410156 245.890625 281.082031 245.59375 C 280.476562 245.039062 279.863281 244.484375 279.25 243.929688 C 278.527344 243.273438 277.773438 242.621094 277.203125 241.808594 C 277.152344 241.734375 277.085938 241.652344 277.046875 241.570312 C 276.90625 241.40625 276.78125 241.246094 276.621094 241.105469 C 276.316406 240.832031 275.992188 240.566406 275.679688 240.300781 C 274.984375 239.707031 275.015625 238.570312 275.539062 237.902344 C 275.792969 237.578125 276.101562 237.371094 276.488281 237.246094 C 276.878906 237.121094 277.558594 237.171875 277.890625 237.429688 C 278.238281 237.695312 278.578125 237.976562 278.941406 238.222656 C 279.042969 238.296875 279.433594 238.582031 279.546875 238.554688 C 279.546875 238.554688 279.539062 238.554688 279.53125 238.554688 C 279.730469 238.628906 279.921875 238.703125 280.113281 238.789062 C 280.855469 239.136719 281.519531 239.65625 282.175781 240.128906 C 282.863281 240.625 283.550781 241.121094 284.246094 241.609375 C 284.601562 241.859375 284.976562 242.089844 285.332031 242.332031 C 285.851562 242.671875 286.242188 243.066406 286.664062 243.507812 Z M 168.773438 235.042969 C 161.871094 227.933594 154.605469 221.960938 144.300781 221.109375 C 134.273438 220.28125 124.578125 224.082031 117.660156 231.367188 C 116.308594 232.785156 113.34375 233.03125 112.027344 231.367188 C 109.78125 228.527344 107.566406 225.703125 105.519531 222.722656 C 103.070312 219.171875 108.621094 214.996094 111.4375 218.152344 C 112.769531 219.636719 114.03125 221.175781 115.273438 222.722656 C 123.410156 215.976562 134.199219 212.449219 144.777344 213.75 C 155.640625 215.089844 168.027344 221.664062 172.601562 232.082031 C 173.648438 234.480469 170.835938 237.164062 168.773438 235.042969 Z M 53.867188 152.613281 C 61.273438 140.582031 71.980469 132.359375 84.382812 125.992188 C 86.679688 124.816406 85.089844 121.015625 82.617188 121.804688 C 81.09375 122.292969 79.59375 122.878906 78.128906 123.515625 C 89.148438 103 107.34375 86.105469 129.183594 77.925781 C 135.136719 75.691406 141.347656 74.035156 147.652344 73.121094 C 154.640625 72.097656 162.097656 72.875 168.847656 70.546875 C 172.3125 69.355469 175.417969 67.410156 178.734375 65.894531 C 182.3125 64.261719 186.140625 63.144531 189.996094 62.398438 C 197.371094 60.96875 205.167969 61.125 212.558594 62.390625 C 218.8125 63.460938 224.925781 65.273438 230.835938 67.582031 C 231.339844 68.3125 232.113281 68.550781 232.875 68.429688 C 234.242188 68.992188 235.609375 69.554688 236.957031 70.160156 C 245.203125 73.933594 252.828125 78.9375 261.101562 82.597656 C 265.339844 84.476562 268.335938 79.234375 264.699219 76.4375 C 257.878906 71.203125 249.875 67.210938 242.078125 63.617188 C 239.832031 62.582031 237.554688 61.613281 235.253906 60.679688 C 236.527344 55.59375 240.65625 51.171875 244.5 47.886719 C 250.464844 42.808594 257.078125 41.847656 264.792969 42.609375 C 281.601562 44.265625 299.566406 52.40625 306.609375 68.71875 C 308.398438 72.851562 309.410156 77.371094 309.453125 81.882812 C 309.492188 85.417969 308.753906 88.589844 307.71875 91.785156 C 305.011719 90.386719 302.265625 89.144531 299.53125 88.085938 C 291.941406 85.144531 284.203125 83.878906 276.132812 85.179688 C 273.351562 85.625 274.574219 89.734375 277.285156 89.371094 C 285.382812 88.285156 294.347656 91.953125 301.4375 95.488281 C 303.171875 96.351562 304.867188 97.308594 306.542969 98.289062 C 306.609375 98.402344 306.707031 98.492188 306.785156 98.59375 C 306.859375 98.683594 306.917969 98.777344 307 98.859375 C 307.488281 99.339844 308.140625 99.660156 308.847656 99.820312 C 308.929688 99.84375 309.011719 99.875 309.101562 99.886719 C 309.246094 99.984375 309.386719 100.085938 309.527344 100.175781 C 314.4375 103.332031 319.046875 106.964844 323.089844 111.171875 C 324.085938 112.207031 324.996094 113.292969 325.859375 114.402344 C 327.515625 116.511719 328.949219 118.746094 330.183594 121.082031 C 332.453125 125.363281 334.101562 129.976562 335.230469 134.828125 C 336.332031 139.539062 336.992188 144.332031 337.375 149.152344 C 337.746094 153.738281 337.050781 159.214844 338.542969 163.578125 C 339.058594 165.085938 340.488281 165.738281 341.78125 165.523438 C 342.75 165.367188 343.636719 164.746094 344.003906 163.578125 C 345.210938 159.769531 344.460938 155.058594 344.1875 151.132812 C 343.902344 147.035156 343.441406 142.949219 342.769531 138.894531 C 341.425781 130.835938 339.03125 122.773438 334.804688 115.734375 C 329.949219 107.644531 322.527344 100.820312 314.265625 95.554688 C 317.910156 87.621094 317.304688 77.421875 314.597656 69.464844 C 311.214844 59.519531 304.453125 51.414062 295.695312 45.707031 C 286.90625 39.984375 276.621094 36.960938 266.257812 35.828125 C 260.738281 35.222656 254.832031 35.101562 249.535156 37.039062 C 246.296875 38.222656 243.5625 40.144531 240.929688 42.351562 C 235.996094 46.484375 231.390625 52.332031 230.125 58.757812 C 226.460938 57.464844 222.730469 56.339844 218.929688 55.503906 C 203.449219 52.089844 187.101562 52.820312 172.800781 60.082031 C 169.066406 61.976562 165.691406 63.675781 161.464844 64.179688 C 157.730469 64.621094 153.960938 64.609375 150.230469 65.03125 C 147.355469 65.347656 144.507812 65.820312 141.679688 66.390625 C 141.671875 66.367188 141.671875 66.34375 141.664062 66.316406 C 136.378906 48.167969 114.289062 43.867188 98.070312 46.292969 C 77.390625 49.382812 61.871094 67.144531 59.882812 87.789062 C 58.730469 99.738281 62.691406 111.851562 72.351562 119.292969 C 72.710938 119.566406 73.082031 119.652344 73.453125 119.660156 C 72.394531 122.167969 71.402344 124.71875 70.515625 127.367188 C 70.488281 127.457031 70.511719 127.535156 70.488281 127.625 C 61.898438 133.148438 54.628906 141.003906 49.179688 149.367188 C 41.109375 161.757812 36.335938 176.769531 37.71875 191.625 C 38.035156 195.042969 42.796875 195.367188 43.433594 192.335938 C 43.484375 192.109375 43.566406 191.902344 43.558594 191.625 C 43.367188 177.859375 46.640625 164.363281 53.867188 152.613281 Z M 133.222656 65.796875 C 133.667969 66.546875 134.089844 67.3125 134.503906 68.089844 C 133.039062 68.511719 131.578125 68.949219 130.136719 69.445312 C 117.285156 73.835938 105.371094 80.839844 95.28125 89.933594 C 89.636719 95.023438 84.609375 100.789062 80.265625 107.023438 C 78.3125 109.820312 76.703125 112.703125 75.253906 115.660156 C 75.234375 115.640625 75.226562 115.601562 75.195312 115.578125 C 60.71875 102.445312 64.324219 78.398438 76.519531 65.074219 C 86.644531 54.019531 102.785156 50.527344 117.105469 54.160156 C 120.816406 55.097656 124.4375 56.597656 127.488281 58.949219 C 127.792969 59.179688 128.035156 59.453125 128.316406 59.699219 C 130.34375 61.464844 131.894531 63.535156 133.222656 65.796875 Z M 284.957031 212.78125 C 283.277344 215.609375 281.460938 218.308594 279.597656 221.011719 C 278.113281 223.171875 275.332031 223.652344 273.34375 221.820312 C 266.101562 215.148438 255.867188 211.902344 246.113281 213.582031 C 235.890625 215.339844 229.136719 221.605469 222.675781 229.230469 C 221.125 231.0625 217.800781 229.109375 218.605469 226.855469 C 222.46875 216.117188 234.125 208.316406 245.046875 206.285156 C 255.710938 204.300781 266.636719 206.992188 275.324219 213.234375 C 276.523438 211.539062 277.75 209.863281 279.035156 208.214844 C 281.726562 204.753906 287.070312 209.21875 284.957031 212.78125 Z M 217.453125 161.011719 C 218.199219 159.703125 219.042969 158.433594 220.097656 157.242188 C 222.964844 154.015625 226.742188 151.488281 230.851562 150.164062 C 235.292969 148.738281 240.183594 148.714844 244.707031 149.808594 C 246.828125 150.328125 248.921875 151.15625 250.855469 152.167969 C 252.925781 153.253906 255.527344 154.808594 256.53125 157.011719 C 257.738281 159.652344 255.699219 163.703125 252.34375 162.46875 C 250.441406 161.765625 249.023438 160.382812 247.300781 159.355469 C 245.824219 158.476562 244.285156 157.824219 242.625 157.382812 C 239.511719 156.539062 236.222656 156.488281 233.113281 157.359375 C 229.875 158.261719 226.777344 160.148438 224.265625 162.617188 C 222.078125 164.769531 220.34375 167.359375 219.417969 170.183594 C 218.40625 173.257812 214.007812 171.992188 214.605469 168.859375 C 215.148438 166.003906 216.085938 163.417969 217.453125 161.011719 Z M 339.800781 190.730469 C 331.523438 184.019531 322.386719 179.382812 312.269531 176.347656 C 311.507812 176.121094 310.753906 175.882812 309.980469 175.667969 C 307.046875 174.878906 305.871094 179.269531 308.730469 180.195312 C 318.789062 183.449219 328.226562 189.023438 336.273438 196.117188 C 338.699219 198.253906 341.003906 200.523438 343.15625 202.917969 C 346.164062 206.269531 348.890625 209.839844 351.261719 213.589844 C 361.636719 229.953125 365.125 249.964844 361.261719 268.9375 C 360.050781 274.890625 358.113281 280.636719 355.644531 286.152344 C 350.746094 254.992188 330.183594 224.828125 299.601562 214.527344 C 299.375 214.453125 299.160156 214.410156 298.953125 214.394531 C 298.175781 200.605469 299.328125 186.953125 304.03125 173.589844 C 304.398438 172.535156 304 171.714844 303.3125 171.246094 C 302.175781 170.476562 300.246094 170.671875 299.617188 172.371094 C 293.070312 190.125 289.863281 210.226562 293.992188 228.925781 C 293.765625 229.53125 293.699219 230.207031 293.773438 230.914062 C 293.789062 231.039062 293.765625 231.152344 293.789062 231.277344 C 294.261719 233.695312 296.382812 235.324219 297.601562 237.355469 C 298.457031 238.796875 298.945312 239.855469 299.390625 241.222656 C 299.449219 241.402344 299.5 241.585938 299.550781 241.769531 C 299.597656 241.925781 299.640625 242.050781 299.683594 242.214844 C 300.136719 243.863281 300.34375 245.5625 300.355469 247.285156 C 300.371094 249.269531 300.121094 251.273438 299.558594 253.226562 C 298.457031 257.085938 296.277344 260.761719 293.515625 263.800781 C 291.917969 265.558594 290.144531 267.140625 288.222656 268.53125 C 287.910156 268.753906 287.601562 268.96875 287.296875 269.191406 C 264.558594 281.753906 240.050781 290.796875 214.398438 295.183594 C 212.847656 295.449219 211.28125 295.671875 209.714844 295.898438 C 209.375 295.953125 209.035156 296.011719 208.695312 296.054688 C 189.921875 298.792969 170.25 299.324219 151.339844 296.558594 C 150.597656 296.070312 149.683594 295.945312 148.8125 296.171875 C 145.027344 295.558594 141.28125 294.78125 137.570312 293.894531 C 136.816406 293.710938 136.046875 293.5625 135.292969 293.371094 C 135.109375 293.328125 134.925781 293.261719 134.738281 293.214844 C 124.179688 290.429688 113.78125 285.925781 105.390625 278.871094 C 103.441406 277.226562 101.570312 275.496094 99.863281 273.574219 C 99.679688 273.367188 99.488281 273.257812 99.289062 273.140625 C 99.382812 272.945312 99.4375 272.730469 99.472656 272.519531 C 99.546875 272.066406 99.503906 271.578125 99.230469 271.070312 C 96.835938 266.535156 96.007812 261.160156 96.769531 256.042969 C 96.773438 256.011719 96.773438 255.984375 96.78125 255.960938 C 97.25 252.890625 98.289062 249.917969 99.917969 247.285156 C 101.898438 248.046875 104.246094 246.679688 104.519531 244.171875 C 104.773438 241.828125 103.90625 239.492188 103.242188 237.273438 C 102.578125 235.046875 101.867188 232.835938 101.113281 230.648438 C 99.695312 226.523438 98.082031 222.46875 96.332031 218.46875 C 92.734375 210.238281 88.5 202.289062 83.355469 194.917969 C 83.324219 194.878906 83.289062 194.867188 83.257812 194.828125 C 81.460938 192.484375 77.773438 194.613281 79.195312 197.351562 C 83.199219 205.085938 87.011719 212.945312 90.085938 221.101562 C 90.929688 223.335938 91.726562 225.597656 92.488281 227.867188 C 92.429688 227.914062 92.371094 227.925781 92.320312 227.988281 C 71.199219 249.011719 59.203125 282.132812 61.796875 311.863281 C 62.011719 314.28125 62.375 317.085938 63.089844 319.785156 C 63.015625 319.785156 62.941406 319.769531 62.859375 319.777344 C 53.328125 320.414062 48.289062 311.628906 45.898438 303.679688 C 43.246094 294.84375 41.828125 285.636719 41.453125 276.429688 C 40.710938 258.054688 43.957031 238.960938 52.050781 222.34375 C 52.410156 221.605469 52.804688 220.867188 53.1875 220.125 C 54.390625 217.828125 55.714844 215.554688 57.199219 213.398438 C 60.621094 208.429688 64.855469 204.050781 70.273438 201.359375 C 72.195312 200.40625 71.574219 198.214844 70.117188 197.386719 C 69.488281 197.03125 68.714844 196.898438 67.894531 197.277344 C 49.582031 205.601562 41.453125 226.820312 37.238281 245.203125 C 32.546875 265.65625 32.5 288.710938 39.46875 308.699219 C 43.113281 319.15625 51.605469 329.273438 63.808594 326.796875 C 64.574219 326.640625 65.152344 326.261719 65.566406 325.757812 C 67.183594 328.304688 69.476562 330.234375 72.777344 330.804688 C 75.914062 331.34375 78.277344 327.0625 75.085938 325.332031 C 68.484375 321.757812 68.714844 311.238281 68.648438 304.714844 C 68.558594 296.433594 69.617188 288.1875 71.523438 280.132812 C 75.558594 263.082031 83.191406 246.945312 94.234375 233.320312 C 94.246094 233.363281 94.261719 233.40625 94.277344 233.453125 C 94.859375 235.394531 95.414062 237.347656 95.933594 239.308594 C 96.382812 241.015625 96.707031 242.8125 97.417969 244.441406 C 91.078125 252.648438 89.859375 264.332031 95.15625 273.472656 C 95.4375 273.953125 95.808594 274.21875 96.199219 274.394531 C 95.875 275.164062 95.886719 276.097656 96.5625 276.902344 C 109.152344 291.996094 127.347656 299.066406 146.203125 302.480469 C 146.195312 307.25 147.230469 311.9375 149.003906 316.355469 C 150.910156 321.078125 153.679688 325.484375 157.058594 329.292969 C 158.476562 330.890625 160.015625 332.3125 161.609375 333.640625 C 168.3125 339.21875 176.472656 342.488281 185.332031 343.328125 C 186.515625 343.441406 187.261719 342.53125 187.46875 341.503906 C 187.707031 340.355469 187.261719 339.070312 185.933594 338.886719 C 168.507812 336.476562 155.375 320.503906 153.03125 303.554688 C 157.292969 304.136719 161.566406 304.582031 165.785156 304.890625 C 171.320312 305.304688 176.878906 305.4375 182.445312 305.417969 C 183.414062 307.96875 184.792969 310.171875 186.996094 311.953125 C 189.636719 314.089844 192.597656 315.332031 195.984375 315.679688 C 202.242188 316.332031 210.246094 312.597656 212.308594 306.3125 C 212.683594 305.171875 212.324219 304.121094 211.621094 303.367188 C 222.574219 301.859375 233.394531 299.515625 243.960938 296.378906 C 243.9375 296.492188 243.917969 296.601562 243.894531 296.714844 C 243.488281 298.53125 242.972656 300.320312 242.351562 302.074219 C 241.0625 305.726562 239.289062 309.226562 237.207031 312.484375 C 235.386719 315.320312 233.289062 317.929688 230.960938 320.300781 C 230.511719 320.761719 230.058594 321.226562 229.585938 321.664062 C 226.824219 324.257812 223.757812 326.519531 220.410156 328.371094 C 217.777344 329.820312 220.089844 333.507812 222.722656 332.328125 C 230.703125 328.71875 237.589844 323.082031 242.839844 316.09375 C 244.109375 314.402344 245.238281 312.632812 246.265625 310.808594 C 247.390625 308.796875 248.386719 306.710938 249.253906 304.550781 C 250.457031 301.550781 252.15625 297.421875 252.039062 293.859375 C 266.777344 288.851562 280.933594 282.339844 294.128906 274.054688 C 294.925781 273.554688 295.421875 272.910156 295.679688 272.207031 C 297.070312 271.128906 298.414062 269.996094 299.632812 268.738281 C 303.402344 264.878906 306.246094 260.183594 307.734375 254.984375 C 309.121094 250.121094 309.234375 244.863281 307.925781 239.964844 C 307.28125 237.554688 306.277344 235.1875 305.011719 233.042969 C 303.867188 231.105469 302.277344 228.617188 300.203125 227.328125 C 299.882812 224.910156 299.609375 222.492188 299.390625 220.082031 C 328.476562 230.78125 348.617188 261.988281 351.675781 292.085938 C 351.71875 292.550781 351.898438 292.917969 352.125 293.238281 C 350.886719 295.476562 349.570312 297.683594 348.164062 299.832031 C 346.257812 302.738281 350.796875 306.363281 353.050781 303.605469 C 366.738281 286.863281 372.027344 264.09375 369.207031 242.8125 C 366.507812 222.402344 355.746094 203.65625 339.800781 190.730469 Z M 206.175781 304.046875 C 205.640625 304.691406 205.117188 305.34375 204.527344 305.925781 C 203.632812 306.8125 203.234375 307.09375 202.125 307.730469 C 200.285156 308.789062 198.414062 309.261719 196.183594 309.144531 C 195.355469 309.097656 194.453125 308.878906 193.335938 308.515625 C 192.40625 308.210938 191.628906 307.835938 190.664062 307.214844 C 189.902344 306.71875 189.125 306.066406 188.414062 305.34375 C 194.34375 305.152344 200.269531 304.714844 206.175781 304.046875 Z M 359.082031 57.589844 C 355.96875 59.773438 352.894531 61.988281 349.804688 64.199219 C 351.417969 67.402344 352.726562 70.738281 353.554688 74.207031 C 354.394531 77.742188 349.25 80.1875 347.523438 76.75 C 346.164062 74.058594 344.863281 71.351562 343.523438 68.675781 C 342.453125 69.445312 341.375 70.207031 340.292969 70.976562 C 338.988281 71.914062 336.992188 71.195312 336.238281 69.910156 C 335.402344 68.484375 335.957031 66.722656 337.300781 65.851562 C 338.492188 65.082031 339.679688 64.320312 340.871094 63.550781 C 339.132812 60.328125 337.265625 57.175781 335.085938 54.175781 C 333.730469 52.316406 332.277344 50.527344 330.785156 48.78125 C 330.761719 48.820312 330.730469 48.84375 330.710938 48.878906 C 329.460938 50.632812 328.484375 52.769531 326.976562 54.300781 C 325.09375 56.214844 321.558594 54.269531 322.394531 51.628906 C 323.121094 49.324219 324.96875 47.261719 326.445312 45.390625 C 326.652344 45.121094 326.902344 44.894531 327.109375 44.632812 C 327.082031 44.597656 327.050781 44.566406 327.023438 44.53125 C 325.550781 42.925781 324.015625 41.375 322.425781 39.886719 C 320.835938 38.402344 319.039062 37.167969 317.464844 35.671875 C 315.523438 33.839844 318.003906 30.992188 320.199219 32.121094 C 324.117188 34.140625 327.804688 37.320312 331.160156 40.175781 C 332.585938 38.800781 334.109375 37.527344 335.675781 36.316406 C 337.425781 34.960938 339.148438 33.601562 340.996094 32.375 C 342.015625 31.695312 343.496094 32.175781 344.085938 33.1875 C 344.734375 34.296875 344.277344 35.589844 343.273438 36.277344 C 340.148438 38.429688 337.480469 40.945312 334.9375 43.726562 C 336.894531 45.714844 338.742188 47.8125 340.472656 50.011719 C 342.835938 53.003906 345.128906 56.179688 347.167969 59.492188 C 350.324219 57.457031 353.472656 55.410156 356.613281 53.339844 C 357.722656 52.605469 359.324219 53.125 359.960938 54.21875 C 360.667969 55.445312 360.167969 56.828125 359.082031 57.589844 Z M 90.441406 147.371094 C 90.871094 144.53125 91.476562 141.726562 92.261719 138.984375 C 92.445312 138.347656 92.621094 137.703125 92.820312 137.074219 C 97.558594 122.132812 107.816406 106.011719 122.613281 99.4375 C 125.980469 97.941406 130.210938 102.195312 126.898438 104.992188 C 116.242188 113.976562 106.847656 123.410156 101.800781 136.714844 C 101.726562 136.90625 101.675781 137.097656 101.609375 137.289062 C 100.484375 140.328125 99.539062 143.449219 98.84375 146.628906 C 98.128906 149.890625 97.648438 153.195312 97.46875 156.507812 C 97.277344 160.007812 97.328125 163.46875 97.617188 166.949219 C 97.890625 170.285156 98.140625 173.863281 101.203125 175.789062 C 103.582031 177.28125 101.984375 180.71875 99.347656 180.1875 C 91.585938 178.621094 90.425781 167.335938 89.925781 161.058594 C 89.539062 156.523438 89.761719 151.910156 90.441406 147.371094 Z M 275.84375 124.859375 C 275.945312 125.828125 276.019531 126.804688 276.074219 127.78125 C 276.285156 131.382812 276.191406 134.992188 275.902344 138.585938 C 275.53125 143.125 275.199219 147.859375 273.746094 152.191406 C 272.347656 156.339844 265.859375 155.761719 265.933594 151.132812 C 266 146.910156 266.988281 142.777344 267.460938 138.585938 C 267.890625 134.835938 268.136719 131.050781 268.082031 127.277344 C 268.082031 127.0625 268.097656 126.847656 268.097656 126.632812 C 268.054688 124.816406 267.914062 122.9375 267.65625 121.042969 C 266.871094 115.320312 264.988281 109.507812 261.375 105.183594 C 259.246094 102.632812 262.585938 99.140625 265.066406 101.484375 C 268.269531 104.507812 270.964844 107.851562 272.710938 111.917969 C 273.957031 114.832031 274.75 117.863281 275.28125 120.957031 C 275.503906 122.25 275.695312 123.550781 275.84375 124.859375 Z M 154.832031 167.839844 C 152.105469 165.773438 148.882812 164.421875 145.664062 164.386719 C 142.734375 164.355469 139.992188 165.300781 137.453125 166.980469 C 136.261719 167.765625 135.109375 168.828125 134.148438 170.035156 C 133.246094 171.171875 132.402344 172.917969 131.414062 174.203125 C 130.402344 175.515625 128.148438 175.574219 126.824219 174.796875 C 125.273438 173.886719 124.808594 172.199219 125.085938 170.523438 C 125.464844 168.238281 127.238281 165.96875 128.710938 164.257812 C 130.070312 162.667969 131.722656 161.308594 133.46875 160.164062 C 137.066406 157.804688 141.597656 156.515625 145.90625 156.714844 C 147.480469 156.789062 149.023438 157.050781 150.519531 157.464844 C 144.96875 147.117188 141.9375 134.480469 145.476562 123.335938 C 147.515625 116.925781 152.210938 109.25 159.636719 108.738281 C 166.066406 108.304688 171.128906 113.011719 174.390625 118.175781 C 176.03125 116.265625 178.089844 114.691406 180.175781 113.214844 C 183.316406 110.980469 186.953125 109.28125 190.691406 108.347656 C 197.023438 106.765625 204.15625 107.253906 209.898438 110.507812 C 215.523438 113.6875 219.382812 119.445312 220.734375 125.710938 C 222.191406 132.445312 221.324219 139.425781 218.769531 145.792969 C 217.394531 149.210938 215.738281 152.480469 213.832031 155.628906 C 213.03125 156.953125 212.207031 158.285156 211.316406 159.578125 C 210.019531 161.464844 208.570312 163.230469 206.683594 164.554688 C 203.929688 166.484375 200.59375 163.289062 201.296875 160.414062 C 202.257812 156.496094 205.191406 153.1875 207.210938 149.757812 C 209.128906 146.488281 210.800781 143.109375 211.851562 139.457031 C 212.457031 137.351562 212.824219 135.125 212.890625 132.90625 C 212.90625 132.433594 212.890625 131.957031 212.878906 131.484375 C 212.789062 128.21875 212.003906 125 210.304688 122.167969 C 210.238281 122.058594 210.1875 121.933594 210.113281 121.820312 C 206.730469 116.472656 199.78125 114.476562 193.773438 115.394531 C 190.449219 115.898438 187.308594 117.25 184.402344 118.898438 C 183.5 119.417969 182.636719 119.988281 181.792969 120.578125 C 179.613281 122.109375 177.542969 123.757812 175.136719 124.890625 C 173.523438 125.644531 172.097656 124.675781 171.875 123.261719 C 171.859375 123.152344 171.832031 123.046875 171.832031 122.929688 C 169.886719 121 167.820312 118.996094 165.585938 117.449219 C 163.621094 116.089844 161.242188 114.757812 158.839844 115.773438 C 154.980469 117.390625 152.757812 122.582031 151.78125 126.820312 C 151.613281 127.550781 151.472656 128.261719 151.375 128.914062 C 149.742188 139.914062 154.820312 151.007812 160.199219 160.265625 C 160.917969 161.492188 160.820312 162.648438 160.289062 163.542969 C 162.386719 165.921875 163.886719 168.835938 164.507812 172.132812 C 164.980469 174.65625 161.507812 176.46875 160.164062 173.96875 C 158.929688 171.625 157.042969 169.5 154.832031 167.839844 Z M 24.121094 120.808594 C 22.910156 124.933594 22.234375 129.054688 21.851562 133.1875 C 25.570312 134.03125 29.359375 134.511719 33.128906 135.066406 C 34.894531 135.324219 36.09375 136.875 36.09375 138.597656 C 36.09375 140.226562 34.753906 141.972656 33.027344 142.046875 C 29.050781 142.214844 25.207031 141.644531 21.410156 140.691406 C 21.28125 144.804688 21.296875 148.945312 21.222656 153.144531 C 21.148438 157.21875 14.992188 156.65625 14.394531 153.042969 C 13.605469 148.285156 13.492188 143.273438 13.871094 138.257812 C 13.058594 137.933594 12.246094 137.601562 11.445312 137.238281 C 10.234375 136.683594 9.03125 135.988281 7.945312 135.210938 C 7.019531 134.546875 6.308594 133.667969 5.355469 133.039062 C 3.035156 131.507812 5.371094 127.816406 7.804688 128.933594 C 8.097656 129.066406 8.394531 129.199219 8.691406 129.332031 C 10.707031 129.488281 12.753906 130.339844 14.609375 131.027344 C 14.652344 131.042969 14.699219 131.058594 14.742188 131.070312 C 15.535156 126.472656 16.722656 121.976562 18.230469 117.789062 C 19.367188 114.625 20.78125 111.628906 22.382812 108.753906 C 18.792969 106.585938 15.378906 104.117188 12.257812 101.316406 C 10.027344 99.3125 12.769531 95.726562 15.15625 97.625 C 18.320312 100.132812 21.703125 102.253906 25.28125 104.050781 C 29.019531 98.496094 33.558594 93.484375 38.6875 88.988281 C 40.992188 86.96875 43.757812 90.734375 41.539062 92.753906 C 37.1875 96.730469 33.476562 101.335938 30.460938 106.375 C 33.113281 107.402344 35.796875 108.304688 38.570312 108.9375 C 41.523438 109.625 44.503906 109.972656 47.402344 110.898438 C 50.328125 111.824219 49.507812 116.660156 46.535156 116.816406 C 43.078125 117 39.832031 116.097656 36.542969 115.105469 C 33.601562 114.21875 30.707031 113.148438 27.933594 111.808594 C 27.832031 111.757812 27.734375 111.703125 27.636719 111.652344 C 26.242188 114.609375 25.042969 117.65625 24.121094 120.808594 Z M 24.121094 120.808594 " fill-opacity="1" fill-rule="nonzero"/></svg>