<svg xmlns="http://www.w3.org/2000/svg" xmlns:xlink="http://www.w3.org/1999/xlink" width="500" zoomAndPan="magnify" viewBox="0 0 375 374.999991" height="500" preserveAspectRatio="xMidYMid meet" version="1.0"><defs><clipPath id="527640dc81"><path d="M 142.089844 0 L 258.339844 0 L 258.339844 375 L 142.089844 375 Z M 142.089844 0 " clip-rule="nonzero"/></clipPath></defs><g clip-path="url(#527640dc81)"><path fill="#59595b" d="M 217.566406 374.945312 C 216.230469 374.945312 214.898438 374.875 213.570312 374.746094 C 212.242188 374.613281 210.921875 374.414062 209.613281 374.152344 C 208.304688 373.890625 207.007812 373.566406 205.730469 373.179688 C 204.453125 372.789062 203.199219 372.339844 201.964844 371.828125 C 200.734375 371.316406 199.527344 370.746094 198.351562 370.117188 C 197.171875 369.484375 196.027344 368.800781 194.917969 368.058594 C 193.808594 367.316406 192.738281 366.519531 191.707031 365.675781 C 190.675781 364.828125 189.6875 363.929688 188.742188 362.988281 C 187.796875 362.042969 186.902344 361.054688 186.054688 360.023438 C 185.207031 358.992188 184.414062 357.917969 183.671875 356.808594 C 182.929688 355.699219 182.242188 354.554688 181.613281 353.378906 C 180.984375 352.203125 180.410156 350.996094 179.898438 349.761719 C 179.386719 348.53125 178.9375 347.273438 178.550781 345.996094 C 178.160156 344.71875 177.835938 343.425781 177.574219 342.117188 C 177.3125 340.808594 177.117188 339.488281 176.984375 338.160156 C 176.851562 336.832031 176.785156 335.5 176.785156 334.164062 L 176.785156 152.714844 C 176.785156 152.332031 176.820312 151.953125 176.894531 151.578125 C 176.96875 151.207031 177.082031 150.84375 177.226562 150.488281 C 177.371094 150.136719 177.550781 149.800781 177.761719 149.484375 C 177.976562 149.167969 178.214844 148.875 178.484375 148.605469 C 178.757812 148.332031 179.050781 148.09375 179.367188 147.878906 C 179.683594 147.667969 180.019531 147.488281 180.371094 147.34375 C 180.722656 147.199219 181.089844 147.085938 181.460938 147.011719 C 181.835938 146.9375 182.214844 146.902344 182.597656 146.902344 C 182.976562 146.902344 183.355469 146.9375 183.730469 147.011719 C 184.105469 147.085938 184.46875 147.199219 184.820312 147.34375 C 185.171875 147.488281 185.507812 147.667969 185.824219 147.878906 C 186.144531 148.09375 186.4375 148.332031 186.707031 148.605469 C 186.976562 148.875 187.21875 149.167969 187.429688 149.484375 C 187.640625 149.800781 187.820312 150.136719 187.964844 150.488281 C 188.113281 150.84375 188.222656 151.207031 188.296875 151.578125 C 188.371094 151.953125 188.410156 152.332031 188.410156 152.714844 L 188.410156 334.164062 C 188.410156 335.117188 188.457031 336.070312 188.550781 337.023438 C 188.644531 337.972656 188.78125 338.914062 188.96875 339.851562 C 189.15625 340.789062 189.386719 341.714844 189.664062 342.628906 C 189.941406 343.542969 190.261719 344.4375 190.628906 345.320312 C 190.992188 346.203125 191.402344 347.066406 191.851562 347.90625 C 192.300781 348.75 192.792969 349.566406 193.324219 350.363281 C 193.851562 351.15625 194.421875 351.921875 195.027344 352.660156 C 195.632812 353.398438 196.273438 354.105469 196.949219 354.78125 C 197.625 355.457031 198.332031 356.097656 199.070312 356.703125 C 199.808594 357.308594 200.574219 357.875 201.367188 358.40625 C 202.160156 358.9375 202.980469 359.425781 203.820312 359.878906 C 204.664062 360.328125 205.523438 360.734375 206.40625 361.101562 C 207.289062 361.464844 208.1875 361.789062 209.101562 362.066406 C 210.015625 362.34375 210.941406 362.574219 211.878906 362.761719 C 212.8125 362.945312 213.757812 363.085938 214.707031 363.179688 C 215.65625 363.273438 216.609375 363.320312 217.566406 363.320312 C 218.519531 363.320312 219.472656 363.273438 220.421875 363.179688 C 221.375 363.085938 222.316406 362.945312 223.253906 362.761719 C 224.191406 362.574219 225.113281 362.34375 226.027344 362.066406 C 226.941406 361.789062 227.839844 361.464844 228.722656 361.101562 C 229.605469 360.734375 230.46875 360.328125 231.308594 359.878906 C 232.152344 359.425781 232.96875 358.9375 233.765625 358.40625 C 234.558594 357.875 235.324219 357.308594 236.0625 356.703125 C 236.800781 356.097656 237.507812 355.457031 238.183594 354.78125 C 238.855469 354.105469 239.496094 353.398438 240.105469 352.660156 C 240.710938 351.921875 241.277344 351.15625 241.808594 350.363281 C 242.339844 349.566406 242.828125 348.75 243.277344 347.90625 C 243.730469 347.066406 244.136719 346.203125 244.503906 345.320312 C 244.867188 344.4375 245.1875 343.542969 245.464844 342.628906 C 245.742188 341.714844 245.976562 340.789062 246.160156 339.851562 C 246.347656 338.914062 246.488281 337.972656 246.582031 337.023438 C 246.675781 336.070312 246.722656 335.117188 246.722656 334.164062 L 246.722656 57.800781 C 246.722656 56.277344 246.644531 54.757812 246.496094 53.246094 C 246.347656 51.730469 246.121094 50.222656 245.824219 48.730469 C 245.527344 47.238281 245.15625 45.761719 244.714844 44.304688 C 244.273438 42.847656 243.761719 41.417969 243.175781 40.011719 C 242.59375 38.605469 241.945312 37.230469 241.226562 35.886719 C 240.507812 34.542969 239.726562 33.238281 238.878906 31.972656 C 238.03125 30.707031 237.125 29.484375 236.160156 28.308594 C 235.195312 27.132812 234.171875 26.003906 233.097656 24.929688 C 232.019531 23.851562 230.890625 22.832031 229.714844 21.867188 C 228.539062 20.898438 227.316406 19.992188 226.050781 19.148438 C 224.785156 18.300781 223.480469 17.519531 222.136719 16.804688 C 220.792969 16.085938 219.417969 15.433594 218.011719 14.851562 C 216.605469 14.269531 215.171875 13.757812 213.714844 13.316406 C 212.257812 12.875 210.78125 12.503906 209.289062 12.207031 C 207.796875 11.910156 206.292969 11.6875 204.777344 11.539062 C 203.261719 11.390625 201.742188 11.3125 200.21875 11.3125 C 198.695312 11.3125 197.175781 11.390625 195.660156 11.539062 C 194.144531 11.6875 192.640625 11.910156 191.148438 12.207031 C 189.65625 12.503906 188.179688 12.875 186.722656 13.316406 C 185.265625 13.757812 183.832031 14.269531 182.425781 14.851562 C 181.019531 15.433594 179.644531 16.085938 178.300781 16.804688 C 176.957031 17.519531 175.652344 18.300781 174.386719 19.148438 C 173.121094 19.992188 171.898438 20.898438 170.722656 21.867188 C 169.546875 22.832031 168.417969 23.851562 167.34375 24.929688 C 166.265625 26.003906 165.242188 27.132812 164.277344 28.308594 C 163.3125 29.484375 162.40625 30.707031 161.558594 31.972656 C 160.710938 33.238281 159.929688 34.542969 159.210938 35.886719 C 158.492188 37.230469 157.84375 38.605469 157.261719 40.011719 C 156.675781 41.417969 156.164062 42.847656 155.722656 44.304688 C 155.28125 45.761719 154.910156 47.238281 154.613281 48.730469 C 154.316406 50.222656 154.089844 51.730469 153.941406 53.246094 C 153.792969 54.757812 153.714844 56.277344 153.714844 57.800781 L 153.714844 87.03125 C 153.714844 87.410156 153.679688 87.789062 153.605469 88.164062 C 153.53125 88.539062 153.417969 88.902344 153.273438 89.253906 C 153.128906 89.605469 152.949219 89.941406 152.734375 90.257812 C 152.523438 90.574219 152.28125 90.871094 152.011719 91.140625 C 151.742188 91.410156 151.449219 91.652344 151.132812 91.863281 C 150.816406 92.074219 150.480469 92.253906 150.128906 92.398438 C 149.773438 92.546875 149.410156 92.65625 149.039062 92.730469 C 148.664062 92.804688 148.285156 92.84375 147.902344 92.84375 C 147.523438 92.84375 147.144531 92.804688 146.769531 92.730469 C 146.394531 92.65625 146.03125 92.546875 145.679688 92.398438 C 145.328125 92.253906 144.992188 92.074219 144.675781 91.863281 C 144.355469 91.652344 144.0625 91.410156 143.792969 91.140625 C 143.523438 90.871094 143.28125 90.574219 143.070312 90.257812 C 142.859375 89.941406 142.679688 89.605469 142.53125 89.253906 C 142.386719 88.902344 142.277344 88.539062 142.203125 88.164062 C 142.128906 87.789062 142.089844 87.410156 142.089844 87.03125 L 142.089844 57.800781 C 142.089844 55.898438 142.183594 54 142.371094 52.105469 C 142.558594 50.210938 142.835938 48.328125 143.207031 46.460938 C 143.578125 44.59375 144.042969 42.75 144.59375 40.925781 C 145.144531 39.105469 145.785156 37.316406 146.515625 35.554688 C 147.242188 33.796875 148.058594 32.078125 148.953125 30.398438 C 149.851562 28.722656 150.828125 27.089844 151.886719 25.507812 C 152.945312 23.925781 154.078125 22.398438 155.285156 20.925781 C 156.492188 19.453125 157.769531 18.042969 159.117188 16.699219 C 160.460938 15.351562 161.871094 14.074219 163.34375 12.867188 C 164.8125 11.660156 166.339844 10.527344 167.925781 9.46875 C 169.507812 8.410156 171.136719 7.433594 172.816406 6.535156 C 174.496094 5.640625 176.214844 4.828125 177.972656 4.097656 C 179.734375 3.371094 181.523438 2.730469 183.34375 2.175781 C 185.167969 1.625 187.011719 1.160156 188.878906 0.789062 C 190.746094 0.417969 192.625 0.140625 194.519531 -0.046875 C 196.414062 -0.234375 198.316406 -0.328125 200.21875 -0.328125 C 202.121094 -0.328125 204.023438 -0.234375 205.917969 -0.046875 C 207.8125 0.140625 209.691406 0.417969 211.558594 0.789062 C 213.425781 1.160156 215.269531 1.625 217.09375 2.175781 C 218.914062 2.730469 220.703125 3.371094 222.464844 4.097656 C 224.222656 4.828125 225.941406 5.640625 227.621094 6.535156 C 229.300781 7.433594 230.929688 8.410156 232.511719 9.46875 C 234.097656 10.527344 235.625 11.660156 237.09375 12.867188 C 238.566406 14.074219 239.976562 15.351562 241.320312 16.699219 C 242.667969 18.042969 243.945312 19.453125 245.152344 20.925781 C 246.359375 22.398438 247.492188 23.925781 248.550781 25.507812 C 249.609375 27.089844 250.585938 28.722656 251.484375 30.398438 C 252.378906 32.078125 253.195312 33.796875 253.921875 35.554688 C 254.652344 37.316406 255.292969 39.105469 255.84375 40.925781 C 256.394531 42.75 256.859375 44.59375 257.230469 46.460938 C 257.601562 48.328125 257.878906 50.210938 258.066406 52.105469 C 258.253906 54 258.347656 55.898438 258.347656 57.800781 L 258.347656 334.164062 C 258.34375 335.5 258.277344 336.832031 258.144531 338.160156 C 258.015625 339.488281 257.816406 340.808594 257.554688 342.117188 C 257.292969 343.425781 256.96875 344.71875 256.582031 345.996094 C 256.191406 347.273438 255.742188 348.53125 255.230469 349.761719 C 254.71875 350.996094 254.148438 352.203125 253.519531 353.378906 C 252.886719 354.554688 252.203125 355.699219 251.460938 356.808594 C 250.71875 357.917969 249.921875 358.992188 249.074219 360.023438 C 248.226562 361.054688 247.332031 362.042969 246.386719 362.988281 C 245.445312 363.929688 244.457031 364.828125 243.425781 365.675781 C 242.390625 366.519531 241.320312 367.316406 240.210938 368.058594 C 239.101562 368.800781 237.957031 369.484375 236.78125 370.117188 C 235.601562 370.746094 234.398438 371.316406 233.164062 371.828125 C 231.929688 372.339844 230.675781 372.789062 229.398438 373.179688 C 228.121094 373.566406 226.828125 373.890625 225.519531 374.152344 C 224.207031 374.414062 222.890625 374.613281 221.5625 374.746094 C 220.230469 374.875 218.902344 374.945312 217.566406 374.945312 Z M 217.566406 374.945312 " fill-opacity="1" fill-rule="nonzero"/></g></svg>