<svg xmlns="http://www.w3.org/2000/svg" xmlns:xlink="http://www.w3.org/1999/xlink" width="500" zoomAndPan="magnify"
    viewBox="0 0 375 374.999991" height="500" preserveAspectRatio="xMidYMid meet" version="1.0">
    <defs>
        <clipPath id="9fb7e10c23">
            <path d="M 0.117188 0 L 374.851562 0 L 374.851562 369 L 0.117188 369 Z M 0.117188 0 " clip-rule="nonzero" />
        </clipPath>
    </defs>
    <g clip-path="url(#9fb7e10c23)">
        <path fill="#a8de96"
            d="M 1.972656 340.347656 C 32.078125 344.335938 62.40625 345.144531 92.730469 344.777344 C 122.542969 344.335938 153.382812 344.703125 182.972656 341.085938 C 211.378906 337.617188 239.125 331.710938 267.824219 331.046875 C 299.628906 330.308594 331.355469 333.039062 363.085938 329.273438 C 365.519531 328.980469 365.59375 325.066406 363.085938 325.363281 C 332.019531 328.980469 300.882812 326.46875 269.746094 327.058594 C 240.378906 327.574219 212.046875 333.554688 182.972656 337.101562 C 153.972656 340.644531 123.796875 340.273438 94.648438 340.789062 C 63.660156 341.308594 32.742188 340.492188 1.972656 336.433594 C -0.535156 336.140625 -0.460938 340.050781 1.972656 340.347656 Z M 362.199219 355.183594 C 332.832031 356.953125 303.171875 356.515625 273.730469 357.472656 C 243.921875 358.507812 214.109375 359.683594 184.300781 360.421875 C 124.015625 361.976562 63.660156 361.53125 3.667969 354.816406 C 1.164062 354.519531 1.164062 358.429688 3.667969 358.726562 C 63.660156 365.445312 124.015625 365.886719 184.300781 364.335938 C 214.109375 363.597656 243.921875 362.417969 273.730469 361.382812 C 303.171875 360.351562 332.757812 360.792969 362.199219 359.097656 C 364.707031 358.875 364.707031 354.960938 362.199219 355.183594 Z M 5.070312 366.773438 C 64.839844 372.234375 124.753906 366.625 184.445312 362.417969 C 214.035156 360.351562 243.625 357.988281 272.992188 354.003906 C 302.726562 349.941406 331.949219 345.957031 362.050781 347.726562 C 364.5625 347.875 364.5625 343.964844 362.050781 343.816406 C 333.128906 342.121094 304.792969 345.589844 276.238281 349.648438 C 245.765625 353.929688 215.144531 356.363281 184.445312 358.507812 C 124.753906 362.714844 64.914062 368.324219 5.070312 362.859375 C 2.636719 362.636719 2.636719 366.550781 5.070312 366.773438 Z M 362.417969 336.140625 C 302.652344 342.636719 242.667969 350.386719 182.601562 352.378906 C 122.613281 354.371094 62.628906 350.386719 2.636719 349.71875 C 0.128906 349.71875 0.128906 353.632812 2.636719 353.632812 C 62.628906 354.300781 122.613281 358.285156 182.601562 356.292969 C 242.738281 354.300781 302.652344 346.546875 362.417969 340.050781 C 364.855469 339.753906 364.929688 335.84375 362.417969 336.140625 Z M 1.898438 343.445312 C 30.234375 348.835938 58.863281 352.527344 87.714844 353.265625 C 117.300781 354.003906 146.375 350.828125 175.59375 346.695312 C 237.648438 337.839844 299.703125 325.804688 362.714844 329.789062 C 365.222656 329.941406 365.222656 326.027344 362.714844 325.878906 C 303.242188 322.113281 244.4375 332.597656 185.777344 341.308594 C 155.007812 345.882812 124.3125 349.941406 93.171875 349.5 C 62.847656 349.132812 32.742188 345.367188 2.933594 339.683594 C 0.496094 339.167969 -0.535156 342.929688 1.898438 343.445312 Z M 363.234375 320.121094 C 243.253906 320.636719 123.277344 324.476562 3.375 330.160156 C 0.867188 330.308594 0.867188 334.21875 3.375 334.074219 C 123.203125 328.390625 243.183594 324.550781 363.234375 324.035156 C 365.738281 324.035156 365.816406 320.121094 363.234375 320.121094 Z M 2.855469 334.808594 C 33.921875 334.515625 64.617188 341.011719 95.609375 340.863281 C 123.941406 340.714844 151.613281 334 179.355469 328.757812 C 209.757812 323 240.304688 319.085938 271.292969 318.128906 C 301.769531 317.242188 332.316406 318.277344 362.789062 317.761719 C 365.300781 317.6875 365.300781 313.847656 362.789062 313.847656 C 332.90625 314.289062 303.023438 313.332031 273.136719 314.140625 C 243.625 314.957031 214.550781 318.347656 185.554688 323.589844 C 156.335938 328.832031 127.335938 336.507812 97.527344 336.878906 C 65.949219 337.320312 34.660156 330.527344 3.007812 330.824219 C 0.347656 330.898438 0.347656 334.808594 2.855469 334.808594 Z M 364.117188 308.164062 C 244.359375 318.644531 124.089844 322.558594 3.890625 324.625 C 1.382812 324.699219 1.382812 328.609375 3.890625 328.535156 C 124.089844 326.46875 244.359375 322.558594 364.117188 312.074219 C 366.628906 311.855469 366.628906 307.941406 364.117188 308.164062 Z M 4.261719 319.976562 C 34.4375 320.492188 64.617188 321.523438 94.871094 320.859375 C 124.53125 320.195312 153.902344 316.726562 183.414062 314.070312 C 243.773438 308.605469 304.351562 304.914062 364.929688 304.105469 C 367.4375 304.105469 367.4375 300.191406 364.929688 300.191406 C 304.277344 300.929688 243.773438 304.695312 183.414062 310.15625 C 153.902344 312.8125 124.53125 316.285156 94.871094 316.949219 C 64.691406 317.609375 34.511719 316.578125 4.261719 316.0625 C 1.75 315.988281 1.75 319.902344 4.261719 319.976562 Z M 365.519531 290.375 C 304.648438 293.328125 243.773438 296.574219 183.046875 300.785156 C 152.277344 302.921875 121.507812 305.285156 90.738281 308.015625 C 76.277344 309.273438 61.738281 311.191406 47.203125 311.632812 C 32.667969 312.074219 18.132812 310.96875 3.59375 310.820312 C 1.085938 310.820312 1.085938 314.734375 3.59375 314.734375 C 17.542969 314.878906 31.488281 315.914062 45.433594 315.617188 C 60.558594 315.324219 75.6875 313.332031 90.738281 312.003906 C 121.507812 309.34375 152.277344 306.90625 183.046875 304.769531 C 243.84375 300.5625 304.71875 297.238281 365.519531 294.359375 C 368.027344 294.210938 368.027344 290.300781 365.519531 290.375 Z M 4.554688 295.910156 C 32.742188 302.480469 61.59375 303.367188 90.367188 301.445312 C 120.917969 299.378906 151.316406 296.796875 181.863281 295.246094 C 243.40625 292.074219 305.015625 290.152344 366.554688 286.976562 C 369.0625 286.832031 369.0625 282.917969 366.554688 283.066406 C 306.269531 286.167969 245.988281 288.085938 185.699219 291.113281 C 156.335938 292.589844 127.039062 294.582031 97.746094 296.941406 C 66.832031 299.453125 35.84375 299.15625 5.515625 292.144531 C 3.078125 291.558594 2.046875 295.320312 4.554688 295.910156 Z M 367.070312 272.804688 C 306.34375 275.09375 245.691406 280.117188 185.039062 284.175781 C 125.050781 288.160156 64.765625 291.777344 4.921875 283.65625 C 2.488281 283.289062 1.382812 287.054688 3.890625 287.421875 C 62.773438 295.464844 122.097656 292.21875 181.203125 288.382812 C 243.109375 284.324219 305.015625 279.082031 366.996094 276.792969 C 369.578125 276.644531 369.578125 272.734375 367.070312 272.804688 Z M 6.546875 283.140625 C 67.125 286.316406 128.222656 291.40625 188.726562 283.730469 C 202.15625 282.03125 215.511719 279.746094 228.71875 276.644531 C 245.46875 272.734375 261.480469 267.046875 278.671875 264.984375 C 293.28125 263.285156 308.039062 263.355469 322.574219 265.054688 C 329.734375 265.867188 336.746094 267.566406 343.902344 267.9375 C 351.574219 268.304688 359.320312 268.082031 366.996094 268.523438 C 369.503906 268.675781 369.503906 264.761719 366.996094 264.613281 C 352.019531 263.800781 337.480469 262.839844 322.574219 261.144531 C 307.96875 259.519531 293.210938 259.371094 278.671875 261.070312 C 264.210938 262.769531 250.632812 266.976562 236.613281 270.667969 C 220.898438 274.796875 204.886719 277.824219 188.800781 279.820312 C 128.371094 287.496094 67.203125 282.402344 6.621094 279.226562 C 4.039062 279.082031 4.039062 282.992188 6.546875 283.140625 Z M 367.585938 253.6875 C 246.058594 258.414062 124.753906 283.214844 3.078125 268.597656 C 0.570312 268.304688 0.644531 272.214844 3.078125 272.511719 C 124.828125 287.128906 246.132812 262.324219 367.585938 257.601562 C 370.09375 257.453125 370.09375 253.613281 367.585938 253.6875 Z M 3.300781 259.449219 C 125.492188 266.976562 247.679688 257.082031 369.28125 245.9375 C 371.792969 245.714844 371.792969 241.804688 369.28125 242.027344 C 247.679688 253.171875 125.492188 263.0625 3.300781 255.535156 C 0.792969 255.386719 0.867188 259.296875 3.300781 259.449219 Z M 368.988281 239.738281 C 248.570312 250 127.707031 240.695312 7.066406 245.640625 C 4.554688 245.714844 4.554688 249.628906 7.066406 249.554688 C 127.632812 244.609375 248.496094 253.910156 368.988281 243.648438 C 371.496094 243.425781 371.496094 239.515625 368.988281 239.738281 Z M 5.882812 247.855469 C 67.054688 250.589844 128.222656 246.824219 189.242188 242.101562 C 249.308594 237.523438 309.589844 230.808594 369.949219 234.421875 C 372.457031 234.570312 372.457031 230.660156 369.949219 230.507812 C 309.664062 226.894531 249.378906 233.613281 189.242188 238.1875 C 128.222656 242.839844 67.054688 246.601562 5.882812 243.945312 C 3.375 243.871094 3.375 247.785156 5.882812 247.855469 Z M 369.136719 227.855469 C 339.105469 231.398438 309.222656 227.558594 279.191406 226.746094 C 249.011719 225.933594 218.6875 230.507812 188.582031 232.722656 C 128 237.152344 67.273438 239.074219 6.621094 235.457031 C 4.113281 235.308594 4.113281 239.21875 6.621094 239.367188 C 67.273438 242.984375 128 241.066406 188.582031 236.636719 C 218.6875 234.421875 249.011719 229.847656 279.191406 230.660156 C 309.222656 231.46875 339.105469 235.308594 369.136719 231.765625 C 371.570312 231.46875 371.644531 227.558594 369.136719 227.855469 Z M 3.523438 231.027344 C 31.707031 222.390625 62.996094 234.273438 91.773438 233.242188 C 122.980469 232.136719 154.269531 228.371094 185.480469 226.523438 C 247.3125 222.757812 309.292969 220.695312 371.273438 219.734375 C 373.785156 219.660156 373.785156 215.820312 371.273438 215.820312 C 308.039062 216.78125 244.804688 218.996094 181.644531 222.835938 C 150.652344 224.753906 119.292969 229.183594 88.230469 229.402344 C 60.191406 229.625 29.9375 218.847656 2.488281 227.261719 C 0.128906 228 1.164062 231.765625 3.523438 231.027344 Z M 370.980469 205.117188 C 249.601562 211.171875 127.558594 205.710938 6.695312 220.472656 C 4.261719 220.765625 4.1875 224.679688 6.695312 224.386719 C 127.558594 209.621094 249.601562 215.007812 370.980469 209.03125 C 373.488281 208.882812 373.488281 204.972656 370.980469 205.117188 Z M 6.769531 221.726562 C 66.90625 225.417969 128 229.402344 187.621094 218.628906 C 248.640625 207.628906 308.554688 186.886719 371.425781 195.667969 C 373.855469 196.039062 374.964844 192.277344 372.457031 191.90625 C 312.613281 183.566406 255.503906 201.207031 197.433594 212.792969 C 134.492188 225.34375 70.445312 221.652344 6.769531 217.8125 C 4.261719 217.667969 4.261719 221.578125 6.769531 221.726562 Z M 371.644531 190.28125 C 249.601562 197.589844 127.632812 205.414062 5.441406 209.769531 C 2.933594 209.839844 2.933594 213.753906 5.441406 213.683594 C 127.632812 209.324219 249.601562 201.503906 371.644531 194.195312 C 374.152344 194.046875 374.152344 190.132812 371.644531 190.28125 Z M 5.660156 204.378906 C 21.304688 201.207031 36.949219 202.242188 52.738281 203.421875 C 67.71875 204.527344 82.621094 204.75 97.675781 204.378906 C 128.886719 203.496094 159.949219 200.46875 190.941406 197 C 250.484375 190.28125 311.875 179.875 371.863281 183.933594 C 374.375 184.082031 374.375 180.167969 371.863281 180.023438 C 341.242188 177.953125 310.398438 180.757812 279.929688 183.417969 C 248.9375 186.148438 218.09375 190.0625 187.175781 193.53125 C 156.1875 197 125.050781 199.953125 93.835938 200.613281 C 64.320312 201.28125 33.699219 194.785156 4.628906 200.691406 C 2.195312 201.132812 3.226562 204.898438 5.660156 204.378906 Z M 371.792969 173.304688 C 357.550781 174.707031 343.972656 178.027344 329.511719 178.101562 C 314.609375 178.175781 299.703125 178.324219 284.796875 178.621094 C 254.175781 179.285156 223.554688 180.464844 192.933594 182.160156 C 131.320312 185.703125 69.636719 194.046875 7.804688 190.28125 C 5.292969 190.132812 5.292969 194.046875 7.804688 194.195312 C 69.636719 197.960938 131.25 189.617188 192.933594 186.074219 C 222.890625 184.375 252.921875 183.195312 282.878906 182.53125 C 297.785156 182.234375 312.6875 182.015625 327.667969 181.941406 C 342.867188 181.867188 356.738281 178.621094 371.792969 177.144531 C 374.300781 176.921875 374.300781 173.007812 371.792969 173.304688 Z M 2.488281 178.691406 C 32.742188 181.574219 62.996094 180.167969 93.320312 180.023438 C 124.3125 179.800781 155.230469 179.945312 186.21875 178.46875 C 248.496094 175.59375 310.621094 170.203125 372.972656 169.980469 C 375.480469 169.980469 375.480469 166.070312 372.972656 166.070312 C 310.621094 166.367188 248.496094 171.679688 186.21875 174.558594 C 155.816406 175.960938 125.492188 176.035156 95.09375 176.035156 C 64.175781 176.035156 33.257812 177.660156 2.417969 174.707031 C -0.0195312 174.558594 -0.0195312 178.46875 2.488281 178.691406 Z M 372.160156 156.179688 C 311.65625 163.339844 250.632812 168.503906 189.6875 169.539062 C 158.917969 170.054688 128.074219 169.320312 97.308594 167.398438 C 66.757812 165.480469 36.359375 163.117188 5.738281 165.996094 C 3.226562 166.21875 3.226562 170.132812 5.738281 169.910156 C 36.359375 167.105469 66.683594 169.464844 97.308594 171.3125 C 128.074219 173.230469 158.84375 173.96875 189.6875 173.453125 C 250.632812 172.492188 311.65625 167.25 372.160156 160.089844 C 374.59375 159.796875 374.59375 155.882812 372.160156 156.179688 Z M 3.667969 158.761719 C 35.027344 160.683594 66.386719 162.160156 97.746094 163.042969 C 113.832031 163.558594 129.917969 163.855469 146.007812 164.078125 C 159.730469 164.296875 175.222656 166.289062 188.726562 163.488281 C 249.085938 150.863281 310.84375 150.644531 372.308594 150.496094 C 374.816406 150.496094 374.816406 146.582031 372.308594 146.582031 C 313.058594 146.730469 253.214844 146.582031 194.851562 158.246094 C 178.765625 161.421875 162.386719 160.386719 146.007812 160.167969 C 130.582031 159.945312 115.164062 159.648438 99.738281 159.132812 C 67.71875 158.171875 35.695312 156.695312 3.746094 154.777344 C 1.164062 154.703125 1.234375 158.613281 3.667969 158.761719 Z M 371.941406 136.324219 C 309.960938 143.1875 247.679688 149.019531 185.332031 150.421875 C 124.902344 151.75 64.617188 146.359375 4.1875 147.394531 C 1.679688 147.46875 1.679688 151.378906 4.1875 151.308594 C 64.617188 150.273438 124.902344 155.664062 185.332031 154.332031 C 247.757812 152.933594 309.960938 147.175781 371.941406 140.238281 C 374.375 140.015625 374.449219 136.101562 371.941406 136.324219 Z M 4.332031 148.503906 C 66.535156 143.558594 128.738281 153.152344 191.015625 149.683594 C 221.636719 147.988281 250.78125 139.867188 281.035156 136.175781 C 295.496094 134.402344 310.253906 134.847656 324.863281 134.625 C 340.652344 134.402344 356.371094 134.625 372.011719 136.394531 C 374.523438 136.691406 374.523438 132.78125 372.011719 132.484375 C 356.960938 130.859375 341.835938 130.492188 326.632812 130.710938 C 311.507812 130.933594 296.085938 130.417969 281.035156 132.265625 C 250.78125 136.027344 221.5625 144.074219 191.015625 145.773438 C 128.738281 149.242188 66.609375 139.644531 4.332031 144.589844 C 1.898438 144.8125 1.824219 148.726562 4.332031 148.503906 Z M 371.347656 122.667969 C 309.960938 119.9375 249.011719 127.613281 187.914062 131.96875 C 127.117188 136.324219 66.464844 133.003906 5.589844 134.773438 C 3.078125 134.847656 3.078125 138.761719 5.589844 138.683594 C 66.464844 136.988281 127.117188 140.238281 187.914062 135.878906 C 249.011719 131.527344 310.03125 123.847656 371.347656 126.582031 C 373.855469 126.726562 373.855469 122.816406 371.347656 122.667969 Z M 9.941406 135.585938 C 71.40625 138.90625 133.09375 142.597656 194.484375 135.808594 C 223.183594 132.632812 251.59375 127.320312 280.074219 122.445312 C 294.757812 119.9375 309.515625 117.425781 324.273438 115.359375 C 340.066406 113.144531 355.339844 113.734375 371.128906 112.773438 C 373.636719 112.628906 373.636719 108.714844 371.128906 108.867188 C 357.035156 109.75 343.386719 108.867188 329.367188 110.78125 C 315.566406 112.628906 301.84375 114.84375 288.117188 117.132812 C 256.980469 122.371094 225.914062 128.425781 194.484375 131.894531 C 133.164062 138.683594 71.40625 135.070312 9.941406 131.671875 C 7.433594 131.527344 7.433594 135.4375 9.941406 135.585938 Z M 370.6875 108.199219 C 308.554688 115.949219 245.910156 117.132812 183.414062 118.460938 C 152.867188 119.050781 122.394531 119.714844 91.917969 121.265625 C 77.085938 122.003906 62.109375 123.847656 47.203125 123.035156 C 32.667969 122.222656 18.503906 120.96875 4.1875 124.511719 C 1.75 125.105469 2.785156 128.867188 5.21875 128.277344 C 20.417969 124.585938 35.324219 126.503906 50.671875 127.167969 C 65.578125 127.761719 80.703125 125.769531 95.609375 125.03125 C 126.082031 123.554688 156.628906 122.960938 187.175781 122.371094 C 248.417969 121.117188 309.738281 119.789062 370.609375 112.257812 C 373.117188 111.816406 373.195312 107.90625 370.6875 108.199219 Z M 12.15625 124.214844 C 70.59375 123.40625 129.253906 124.882812 187.25 116.023438 C 248.273438 106.722656 309.441406 105.761719 371.128906 105.542969 C 373.636719 105.542969 373.636719 101.703125 371.128906 101.703125 C 311.875 101.851562 252.476562 102.148438 193.816406 111.152344 C 133.460938 120.378906 73.027344 119.492188 12.15625 120.378906 C 9.648438 120.453125 9.648438 124.292969 12.15625 124.214844 Z M 369.726562 92.921875 C 249.011719 105.617188 127.484375 103.917969 6.253906 107.757812 C 3.746094 107.832031 3.746094 111.742188 6.253906 111.667969 C 127.484375 107.832031 249.011719 109.527344 369.796875 96.832031 C 372.234375 96.535156 372.234375 92.625 369.726562 92.921875 Z M 9.648438 104.65625 C 17.027344 100.816406 23.8125 101.703125 31.636719 101.851562 C 38.570312 101.925781 45.582031 101.410156 52.515625 101.554688 C 67.347656 101.777344 82.179688 103.03125 97.011719 103.769531 C 127.039062 105.246094 157.222656 102.515625 187.175781 100.300781 C 248.199219 95.871094 309.144531 90.261719 370.390625 90.042969 C 372.898438 90.042969 372.898438 86.128906 370.390625 86.128906 C 306.640625 86.421875 243.109375 92.476562 179.578125 96.980469 C 148.292969 99.195312 117.300781 101.113281 85.941406 99.269531 C 71.183594 98.382812 56.425781 97.347656 41.671875 97.71875 C 30.308594 98.011719 18.28125 95.949219 7.804688 101.332031 C 5.441406 102.441406 7.433594 105.835938 9.648438 104.65625 Z M 370.316406 79.117188 C 341.023438 81.554688 311.65625 82.21875 282.289062 83.25 C 251.960938 84.355469 221.710938 86.570312 191.382812 87.605469 C 130.214844 89.597656 69.046875 89.304688 7.949219 91.960938 C 5.441406 92.035156 5.441406 95.949219 7.949219 95.871094 C 69.046875 93.214844 130.289062 93.511719 191.382812 91.519531 C 221.710938 90.558594 251.960938 88.269531 282.289062 87.160156 C 311.65625 86.128906 341.023438 85.539062 370.316406 83.03125 C 372.75 82.808594 372.824219 78.894531 370.316406 79.117188 Z M 7.875 82.585938 C 69.269531 82.585938 130.511719 91.445312 191.902344 87.898438 C 206.4375 87.089844 220.972656 85.539062 235.359375 83.03125 C 242.886719 81.699219 250.265625 80.003906 257.792969 78.378906 C 264.800781 76.902344 271.8125 77.125 278.671875 75.574219 C 308.707031 69.078125 339.328125 68.636719 369.875 68.191406 C 372.382812 68.117188 372.382812 64.28125 369.875 64.28125 C 341.464844 64.722656 312.984375 65.015625 284.945312 70.332031 C 278.007812 71.660156 271.144531 71.808594 264.210938 72.695312 C 256.757812 73.582031 249.230469 76.457031 241.777344 77.933594 C 225.328125 81.183594 208.648438 83.03125 191.902344 83.988281 C 130.511719 87.53125 69.269531 78.75 7.875 78.671875 C 5.367188 78.671875 5.367188 82.585938 7.875 82.585938 Z M 369.359375 56.898438 C 339.988281 64.722656 309.074219 62.730469 278.96875 62.804688 C 249.15625 62.878906 219.347656 63.246094 189.539062 63.761719 C 129.035156 64.871094 68.601562 67.011719 8.242188 70.40625 C 5.738281 70.554688 5.738281 74.464844 8.242188 74.320312 C 69.929688 70.851562 131.617188 68.707031 193.375 67.601562 C 223.851562 67.085938 254.25 66.789062 284.726562 66.714844 C 313.351562 66.640625 342.496094 68.117188 370.464844 60.664062 C 372.824219 60.074219 371.792969 56.308594 369.359375 56.898438 Z M 9.132812 64.355469 C 70.960938 59.851562 132.871094 64.722656 194.707031 62.582031 C 209.832031 62.066406 224.734375 60.8125 239.714844 59.039062 C 254.25 57.34375 268.195312 53.058594 282.878906 51.730469 C 311.65625 49.222656 340.582031 52.691406 369.429688 52.46875 C 371.941406 52.46875 371.941406 48.554688 369.429688 48.554688 C 340.582031 48.777344 311.730469 45.308594 282.878906 47.816406 C 268.195312 49.074219 254.324219 53.355469 239.714844 55.128906 C 224.734375 56.898438 209.757812 58.152344 194.707031 58.671875 C 132.871094 60.8125 70.960938 55.9375 9.132812 60.441406 C 6.621094 60.664062 6.621094 64.578125 9.132812 64.355469 Z M 368.765625 36.15625 C 310.398438 47.449219 249.453125 48.777344 190.203125 49.445312 C 129.917969 50.183594 69.707031 48.261719 9.425781 46.933594 C 6.914062 46.859375 6.914062 50.769531 9.425781 50.84375 C 70.960938 52.246094 132.503906 54.167969 194.039062 53.355469 C 252.40625 52.542969 312.320312 51.066406 369.796875 39.921875 C 372.234375 39.40625 371.203125 35.640625 368.765625 36.15625 Z M 10.386719 43.09375 C 70.078125 45.457031 129.773438 48.410156 189.539062 47.078125 C 219.644531 46.417969 249.675781 44.644531 279.558594 41.25 C 309.222656 37.929688 338.808594 30.914062 368.839844 32.761719 C 371.347656 32.90625 371.347656 28.996094 368.839844 28.847656 C 338.808594 27.003906 309.222656 33.941406 279.558594 37.335938 C 249.675781 40.734375 219.570312 42.503906 189.539062 43.171875 C 129.773438 44.496094 70.078125 41.542969 10.386719 39.183594 C 7.875 39.109375 7.875 43.019531 10.386719 43.09375 Z M 368.691406 24.640625 C 339.105469 27.148438 309.882812 32.171875 280.371094 35.34375 C 249.527344 38.667969 218.464844 38.371094 187.472656 37.191406 C 156.703125 36.007812 125.640625 34.679688 95.019531 31.359375 C 66.464844 28.257812 38.277344 26.117188 10.164062 33.722656 C 7.726562 34.382812 8.761719 38.148438 11.195312 37.484375 C 41.152344 29.363281 70.375 33.128906 100.699219 35.789062 C 130.804688 38.445312 161.132812 40.21875 191.308594 41.25 C 220.972656 42.28125 250.78125 42.433594 280.371094 39.257812 C 309.882812 36.082031 339.105469 31.0625 368.691406 28.554688 C 371.128906 28.332031 371.203125 24.417969 368.691406 24.640625 Z M 10.902344 24.789062 C 37.019531 14.230469 66.980469 24.9375 93.835938 27.445312 C 108.445312 28.847656 123.132812 30.914062 137.738281 31.578125 C 153.308594 32.246094 169.171875 31.210938 184.742188 30.695312 C 245.988281 28.554688 307.078125 23.386719 368.398438 21.394531 C 370.90625 21.320312 370.90625 17.40625 368.398438 17.480469 C 305.902344 19.472656 243.550781 24.863281 180.980469 26.929688 C 165.410156 27.445312 149.546875 28.40625 133.976562 27.300781 C 119.367188 26.265625 104.757812 24.566406 90.148438 23.164062 C 63.734375 20.65625 35.621094 10.542969 9.792969 20.949219 C 7.582031 21.910156 8.539062 25.75 10.902344 24.789062 Z M 368.839844 10.691406 C 249.894531 17.777344 130.804688 16.003906 11.785156 11.796875 C 9.277344 11.722656 9.277344 15.636719 11.785156 15.707031 C 130.730469 19.917969 249.894531 21.6875 368.839844 14.601562 C 371.347656 14.382812 371.347656 10.46875 368.839844 10.691406 Z M 12.300781 9.289062 C 71.554688 -0.601562 131.394531 5.226562 190.867188 9.214844 C 250.117188 13.199219 309.960938 10.324219 369.0625 6.039062 C 371.570312 5.894531 371.570312 1.980469 369.0625 2.128906 C 308.628906 6.480469 247.609375 9.214844 187.105469 5.082031 C 128.515625 1.09375 69.636719 -4.222656 11.269531 5.523438 C 8.835938 5.964844 9.871094 9.730469 12.300781 9.289062 "
            fill-opacity="1" fill-rule="nonzero" />
    </g>
</svg>