<svg xmlns="http://www.w3.org/2000/svg" xmlns:xlink="http://www.w3.org/1999/xlink" zoomAndPan="magnify" preserveAspectRatio="xMidYMid meet" version="1.0" viewBox="23.41 19.23 335.59 348.77">
    <defs>
        <clipPath id="93b385a019">
            <path d="M 23.410156 19.230469 L 359 19.230469 L 359 368 L 23.410156 368 Z M 23.410156 19.230469 " clip-rule="nonzero"/>
        </clipPath>
    </defs>
    <rect x="-37.5" width="450" fill="none" y="-37.499999" height="449.999989" fill-opacity="1"/>
    <rect x="-37.5" width="450" fill="none" y="-37.499999" height="449.999989" fill-opacity="1"/>
    <rect x="-37.5" width="450" fill="none" y="-37.499999" height="449.999989" fill-opacity="1"/>
    <path fill="#aef496" d="M 357.574219 358.832031 C 356.394531 365.1875 318.910156 366.089844 303.324219 366.089844 C 255.109375 366.089844 229.832031 362.117188 183.539062 362.117188 C 162.371094 362.117188 133.289062 363.351562 117.511719 364.378906 C 84.960938 366.5 36.1875 368.589844 28.734375 362.203125 C 23.636719 357.835938 26.695312 342.191406 26.695312 335.421875 C 26.695312 280.207031 23.414062 237.976562 25.042969 189.261719 C 25.359375 179.726562 23.605469 170.191406 25.980469 164.527344 C 28.253906 159.109375 46.253906 148.066406 51.179688 143.351562 C 78.71875 116.964844 104.484375 100.046875 130.648438 72.296875 C 149.964844 51.808594 181.609375 20.085938 192.386719 20.085938 C 204.976562 20.085938 228.660156 52.34375 248.730469 70.152344 C 291.382812 107.996094 351.5625 153.464844 355.050781 165.6875 C 357.476562 174.191406 359.402344 348.957031 357.574219 358.832031 Z M 357.574219 358.832031 " fill-opacity="1" fill-rule="nonzero"/>
    <path fill="#fffbeb" d="M 81.023438 195.527344 C 77.457031 193.664062 73.851562 191.851562 70.238281 190.054688 C 70.359375 153.335938 70.375 117.777344 68.890625 98.429688 C 68.171875 89.011719 67.449219 79.59375 66.609375 72.199219 C 92.835938 75.867188 119.480469 74.019531 145.898438 72.167969 C 179.816406 69.789062 213.738281 67.410156 247.65625 65.035156 C 265.972656 63.75 287.535156 63.847656 298.617188 78.492188 C 305.242188 87.25 306.09375 98.9375 306.695312 109.902344 C 307.5625 125.859375 309.457031 158.199219 311.363281 190.707031 C 308.523438 192.128906 305.695312 193.5625 302.890625 195.035156 C 273.140625 210.65625 246.003906 230.597656 218.226562 249.523438 L 218.222656 249.53125 C 212.785156 244.382812 207.28125 239.285156 201.667969 234.265625 C 199.632812 232.449219 197.324219 230.527344 194.351562 230.261719 C 190.363281 229.902344 187.039062 232.609375 184.371094 235.09375 L 167.355469 250.929688 C 139.03125 231.6875 111.359375 211.414062 81.023438 195.527344 Z M 81.023438 195.527344 " fill-opacity="1" fill-rule="nonzero"/>
    <path fill="#fbbccf" d="M 120.902344 282.269531 C 117.527344 279.792969 112.421875 277.316406 108.253906 276.890625 C 104.089844 276.464844 99.332031 278.871094 98.613281 282.996094 C 97.921875 286.992188 101.066406 291.625 104.257812 294.117188 C 110.4375 298.941406 117.660156 303.050781 122.539062 307.589844 C 125.476562 304.335938 129.105469 301.082031 132.042969 297.828125 C 135.777344 293.691406 139.703125 289.128906 140.164062 283.574219 C 140.367188 281.128906 138.148438 277.117188 134.179688 276.351562 C 130.613281 275.660156 124.433594 278 120.902344 282.269531 " fill-opacity="1" fill-rule="nonzero"/>
    <g clip-path="url(#93b385a019)">
        <path fill="#000000" d="M 358.601562 261.738281 C 358.097656 220.246094 357.042969 170.144531 355.714844 165.5 C 353.667969 158.324219 333.429688 140.691406 307.910156 119.332031 C 307.710938 115.75 307.53125 112.5625 307.386719 109.863281 C 307.066406 104.015625 306.691406 97.332031 305.0625 90.949219 C 305.0625 90.941406 305.066406 90.929688 305.0625 90.921875 C 305.050781 90.871094 305.03125 90.816406 305.015625 90.765625 C 303.847656 86.246094 302.046875 81.878906 299.167969 78.074219 C 288.183594 63.558594 266.941406 62.988281 247.609375 64.339844 L 243.800781 64.609375 C 238.589844 59.546875 233.222656 53.820312 227.988281 48.230469 C 214.097656 33.402344 200.976562 19.394531 192.386719 19.394531 C 181.796875 19.394531 152.695312 47.902344 130.148438 71.820312 C 129.90625 72.074219 129.667969 72.320312 129.429688 72.574219 C 108.628906 73.839844 87.476562 74.414062 66.707031 71.511719 C 66.496094 71.480469 66.28125 71.550781 66.128906 71.699219 C 65.972656 71.851562 65.898438 72.0625 65.921875 72.273438 C 66.757812 79.65625 67.492188 89.226562 68.203125 98.480469 C 68.75 105.640625 69.09375 115.105469 69.300781 126.03125 C 63.179688 131.304688 56.972656 136.84375 50.699219 142.851562 C 48.992188 144.488281 45.542969 146.996094 41.894531 149.652344 C 34.859375 154.777344 26.886719 160.582031 25.34375 164.257812 C 23.722656 168.125 23.941406 173.457031 24.195312 179.636719 C 24.324219 182.761719 24.457031 185.996094 24.351562 189.238281 C 23.402344 217.660156 24.121094 243.925781 24.886719 271.734375 C 25.433594 291.730469 26.003906 312.410156 26.003906 335.421875 C 26.003906 337.039062 25.816406 339.246094 25.625 341.585938 C 24.96875 349.429688 24.15625 359.191406 28.28125 362.726562 C 31.773438 365.71875 43.449219 367.175781 63.972656 367.175781 C 78.089844 367.175781 96.117188 366.464844 117.554688 365.070312 C 134.414062 363.976562 163.269531 362.808594 183.539062 362.808594 C 206.429688 362.808594 224.574219 363.804688 242.117188 364.765625 C 260.226562 365.757812 278.953125 366.785156 303.324219 366.785156 C 308.902344 366.785156 323.242188 366.664062 335.914062 365.535156 C 355.164062 363.820312 357.882812 360.960938 358.253906 358.960938 C 359.234375 353.660156 359.121094 304.847656 358.601562 261.738281 Z M 354.195312 165.355469 C 342.539062 174.410156 328.992188 181.15625 315.882812 187.675781 C 314.597656 188.316406 313.296875 188.964844 311.992188 189.617188 C 310.511719 164.320312 309.003906 138.59375 308.019531 121.226562 C 331.609375 141 351.464844 158.3125 354.195312 165.355469 Z M 298.066406 78.910156 C 299.296875 80.539062 300.324219 82.285156 301.1875 84.105469 C 299.882812 82.710938 298.351562 81.566406 296.671875 80.976562 C 292.480469 79.503906 287.894531 79.960938 284.808594 80.429688 C 280.667969 81.058594 276.589844 82.132812 272.675781 83.625 C 269.890625 75.035156 262.175781 67.972656 253.320312 65.390625 C 271.285156 64.5625 288.503906 66.273438 298.066406 78.910156 Z M 192.386719 20.777344 C 200.375 20.777344 213.296875 34.574219 226.976562 49.175781 C 231.929688 54.464844 236.996094 59.875 241.949219 64.738281 L 145.851562 71.476562 C 141.078125 71.808594 136.277344 72.144531 131.457031 72.449219 C 162.902344 39.128906 184.535156 20.777344 192.386719 20.777344 Z M 67.398438 73.003906 C 93.523438 76.535156 120.167969 74.667969 145.945312 72.859375 L 247.273438 65.753906 C 257.976562 66.289062 268.644531 74.617188 271.566406 84.730469 C 271.621094 84.917969 271.75 85.074219 271.925781 85.160156 C 272.101562 85.246094 272.304688 85.253906 272.484375 85.183594 C 276.515625 83.589844 280.734375 82.453125 285.015625 81.800781 C 287.957031 81.351562 292.316406 80.914062 296.214844 82.285156 C 299.671875 83.496094 302.667969 87.640625 303.652344 91.046875 C 305.304688 97.386719 305.683594 104.085938 306.003906 109.941406 C 306.867188 125.820312 308.78125 158.457031 310.644531 190.292969 C 307.945312 191.648438 305.234375 193.023438 302.570312 194.421875 C 278.488281 207.066406 255.757812 222.785156 233.769531 237.988281 C 228.714844 241.484375 223.492188 245.09375 218.324219 248.621094 C 213 243.617188 207.609375 238.648438 202.128906 233.75 C 199.933594 231.789062 197.53125 229.851562 194.414062 229.570312 C 190.304688 229.199219 186.929688 231.761719 183.898438 234.585938 C 178.386719 239.714844 172.847656 244.875 167.289062 250.046875 C 162.003906 246.453125 156.664062 242.773438 151.492188 239.207031 C 129.074219 223.75 105.894531 207.769531 81.347656 194.914062 C 77.949219 193.136719 74.507812 191.394531 70.929688 189.59375 C 71.050781 153.507812 71.0625 117.644531 69.582031 98.375 C 68.898438 89.472656 68.195312 80.28125 67.398438 73.003906 Z M 42.710938 150.773438 C 46.558594 147.972656 49.878906 145.554688 51.65625 143.851562 C 57.609375 138.148438 63.507812 132.863281 69.335938 127.828125 C 69.648438 145.699219 69.621094 167.234375 69.546875 188.898438 C 69.296875 188.773438 69.050781 188.648438 68.796875 188.519531 C 54.242188 181.203125 39.203125 173.636719 26.949219 164.164062 C 28.992188 160.761719 36.558594 155.253906 42.710938 150.773438 Z M 29.183594 361.675781 C 25.59375 358.597656 26.40625 348.832031 27 341.699219 C 27.207031 339.230469 27.386719 337.097656 27.386719 335.421875 C 27.386719 312.390625 26.816406 291.703125 26.269531 271.695312 C 25.503906 243.910156 24.785156 217.664062 25.734375 189.285156 C 25.84375 185.988281 25.710938 182.730469 25.578125 179.578125 C 25.355469 174.164062 25.144531 169.035156 26.367188 165.464844 C 38.679688 174.921875 53.664062 182.464844 68.171875 189.757812 C 72.53125 191.949219 76.644531 194.019531 80.703125 196.144531 C 105.179688 208.960938 128.324219 224.914062 150.707031 240.347656 C 155.792969 243.855469 161.046875 247.476562 166.25 251.015625 C 156.84375 259.769531 147.382812 268.578125 137.898438 277.40625 C 136.921875 276.578125 135.722656 275.941406 134.3125 275.667969 C 133.859375 275.582031 133.363281 275.535156 132.835938 275.535156 C 129.371094 275.535156 124.21875 277.527344 120.792969 281.339844 C 117.476562 279.027344 112.496094 276.625 108.324219 276.199219 C 107.988281 276.164062 107.640625 276.148438 107.296875 276.148438 C 103.324219 276.148438 98.695312 278.507812 97.933594 282.878906 C 97.179688 287.21875 100.464844 292.03125 103.832031 294.664062 C 106.402344 296.667969 109.15625 298.558594 111.820312 300.382812 C 112.089844 300.566406 112.355469 300.75 112.621094 300.929688 C 112.320312 301.210938 112.019531 301.492188 111.71875 301.773438 C 88.902344 323.007812 66.101562 344.230469 43.710938 365.074219 C 34.414062 364.265625 30.605469 362.894531 29.183594 361.675781 Z M 139.476562 283.515625 C 139.050781 288.652344 135.625 292.828125 131.53125 297.363281 C 130.074219 298.976562 128.410156 300.625 126.800781 302.21875 C 125.351562 303.65625 123.855469 305.136719 122.496094 306.609375 C 119.683594 304.089844 116.238281 301.730469 112.605469 299.238281 C 109.957031 297.425781 107.21875 295.550781 104.683594 293.570312 C 101.53125 291.109375 98.667969 286.726562 99.296875 283.117188 C 99.925781 279.492188 103.886719 277.535156 107.292969 277.535156 C 107.59375 277.535156 107.894531 277.550781 108.183594 277.578125 C 112.320312 278 117.347656 280.519531 120.496094 282.828125 C 120.789062 283.046875 121.203125 282.996094 121.4375 282.710938 C 124.542969 278.949219 129.628906 276.921875 132.835938 276.921875 C 133.273438 276.921875 133.679688 276.957031 134.046875 277.027344 C 137.632812 277.722656 139.65625 281.332031 139.476562 283.515625 Z M 303.324219 365.398438 C 278.992188 365.398438 260.285156 364.371094 242.195312 363.378906 C 224.628906 362.417969 206.46875 361.421875 183.539062 361.421875 C 163.238281 361.421875 134.34375 362.589844 117.464844 363.6875 C 96.054688 365.082031 78.058594 365.785156 63.972656 365.785156 C 56.339844 365.785156 50.324219 365.574219 45.582031 365.226562 C 67.675781 344.65625 90.160156 323.726562 112.664062 302.785156 C 113.039062 302.433594 113.414062 302.085938 113.789062 301.734375 C 116.867188 303.859375 119.734375 305.925781 122.070312 308.097656 C 122.195312 308.214844 122.367188 308.28125 122.539062 308.28125 C 122.550781 308.28125 122.558594 308.28125 122.570312 308.28125 C 122.757812 308.273438 122.929688 308.191406 123.054688 308.050781 C 124.511719 306.441406 126.171875 304.792969 127.777344 303.203125 C 129.398438 301.59375 131.074219 299.933594 132.558594 298.292969 C 135.847656 294.644531 140.355469 289.652344 140.855469 283.628906 C 140.984375 282.085938 140.289062 280.035156 138.878906 278.382812 C 148.558594 269.375 158.210938 260.390625 167.808594 251.457031 C 167.8125 251.449219 167.820312 251.445312 167.824219 251.441406 C 173.519531 246.140625 179.195312 240.855469 184.84375 235.597656 C 187.640625 232.992188 190.71875 230.628906 194.289062 230.949219 C 196.988281 231.191406 199.101562 232.898438 201.207031 234.78125 C 206.769531 239.753906 212.238281 244.796875 217.636719 249.875 C 217.644531 249.886719 217.648438 249.902344 217.652344 249.914062 C 217.726562 250.019531 217.824219 250.09375 217.929688 250.144531 C 235.011719 266.230469 251.332031 282.71875 267.234375 298.796875 C 288.738281 320.527344 310.964844 342.984375 334.871094 364.234375 C 325.601562 365.019531 314.410156 365.398438 303.324219 365.398438 Z M 356.890625 358.703125 C 356.425781 361.222656 348.285156 362.984375 336.761719 364.066406 C 312.519531 342.59375 290 319.832031 268.21875 297.820312 C 252.453125 281.886719 236.285156 265.546875 219.359375 249.589844 C 224.449219 246.117188 229.585938 242.566406 234.558594 239.128906 C 256.511719 223.949219 279.207031 208.253906 303.210938 195.648438 C 307.597656 193.347656 312.125 191.09375 316.5 188.917969 C 329.636719 182.382812 343.210938 175.625 354.957031 166.519531 L 354.855469 170.046875 C 356.859375 197.972656 358.683594 349.035156 356.890625 358.703125 Z M 126.746094 124.605469 C 133.027344 123.707031 139.5 124.226562 145.691406 122.710938 C 146.992188 122.390625 147.542969 124.398438 146.246094 124.714844 C 143.378906 125.414062 140.464844 125.679688 137.539062 125.851562 C 137.605469 133.441406 138.421875 141.058594 137.535156 148.628906 C 137.378906 149.941406 135.300781 149.953125 135.457031 148.628906 C 136.34375 141.09375 135.539062 133.519531 135.464844 125.964844 C 132.734375 126.101562 130 126.222656 127.296875 126.609375 C 125.988281 126.796875 125.425781 124.792969 126.746094 124.605469 Z M 147.019531 127.773438 C 147.058594 130.957031 147.058594 134.136719 147.050781 137.320312 C 147.671875 136.265625 148.488281 135.34375 149.59375 134.804688 C 151.390625 133.9375 153.300781 134.34375 154.425781 136.019531 C 155.527344 137.664062 155.75 139.882812 155.890625 141.804688 C 156.023438 143.625 155.976562 145.449219 155.949219 147.273438 C 155.933594 148.613281 153.855469 148.613281 153.875 147.273438 C 153.898438 145.511719 153.941406 143.75 153.824219 141.988281 C 153.722656 140.425781 153.578125 138.605469 152.738281 137.242188 C 152.460938 136.789062 152.144531 136.484375 151.71875 136.417969 C 151.148438 136.332031 150.441406 136.636719 149.96875 137.007812 C 148.535156 138.128906 147.921875 140.171875 147.53125 141.863281 C 147.246094 143.097656 147.070312 144.367188 147.019531 145.636719 C 147.019531 146.0625 147.019531 146.492188 147.019531 146.917969 C 147.019531 148.261719 144.984375 148.253906 144.941406 146.917969 C 144.941406 140.539062 145.023438 134.15625 144.941406 127.773438 C 144.921875 126.433594 147 126.4375 147.019531 127.773438 Z M 164.867188 145.675781 C 166.003906 144.839844 166.800781 143.667969 167.398438 142.398438 C 167.464844 143.617188 167.53125 144.835938 167.609375 146.054688 C 167.65625 146.777344 167.644531 148.046875 168.730469 147.960938 C 169.292969 147.914062 169.769531 147.515625 169.769531 146.921875 C 169.769531 146.847656 169.757812 146.773438 169.742188 146.699219 C 169.734375 146.652344 169.726562 146.605469 169.722656 146.5625 C 169.703125 146.316406 169.6875 146.066406 169.671875 145.820312 C 169.621094 145.011719 169.578125 144.203125 169.53125 143.394531 C 169.433594 141.566406 169.339844 139.738281 169.203125 137.914062 C 169.15625 137.296875 169.140625 136.632812 168.996094 136.027344 C 168.988281 136.007812 168.976562 135.996094 168.96875 135.976562 C 168.855469 135.59375 168.539062 135.28125 168.019531 135.285156 C 168.003906 135.285156 167.984375 135.285156 167.96875 135.285156 C 167.964844 135.285156 167.960938 135.285156 167.957031 135.285156 C 165.121094 135.300781 162.164062 135.792969 160.089844 137.894531 C 158.398438 139.613281 157.058594 142.5625 158.480469 144.851562 C 159.808594 146.988281 162.972656 147.066406 164.867188 145.675781 Z M 169.464844 146.1875 C 169.464844 146.191406 169.46875 146.195312 169.472656 146.199219 C 169.46875 146.195312 169.460938 146.1875 169.457031 146.183594 C 169.460938 146.183594 169.460938 146.1875 169.464844 146.1875 Z M 159.984375 142.460938 C 160.003906 142.113281 160.113281 141.621094 160.269531 141.230469 C 160.433594 140.824219 160.75 140.324219 161.046875 139.941406 C 162.457031 138.125 164.570312 137.546875 166.773438 137.402344 C 166.695312 137.816406 166.609375 138.230469 166.507812 138.640625 C 166.308594 139.4375 166.0625 140.21875 165.761719 140.984375 C 165.75 141.015625 165.738281 141.050781 165.722656 141.082031 C 165.710938 141.105469 165.699219 141.140625 165.691406 141.152344 C 165.652344 141.242188 165.609375 141.332031 165.570312 141.425781 C 165.46875 141.636719 165.367188 141.84375 165.253906 142.046875 C 165.054688 142.410156 164.835938 142.761719 164.585938 143.089844 C 164.5625 143.117188 164.507812 143.183594 164.488281 143.207031 C 164.425781 143.277344 164.363281 143.351562 164.296875 143.421875 C 164.148438 143.578125 163.988281 143.726562 163.824219 143.867188 C 163.796875 143.894531 163.792969 143.898438 163.785156 143.90625 C 163.777344 143.910156 163.773438 143.914062 163.742188 143.933594 C 163.65625 143.992188 163.566406 144.050781 163.476562 144.105469 C 163.398438 144.152344 163.320312 144.199219 163.238281 144.242188 C 163.199219 144.261719 163.078125 144.3125 163.054688 144.324219 C 162.316406 144.597656 161.449219 144.660156 160.746094 144.25 C 160.445312 144.070312 160.257812 143.832031 160.140625 143.566406 C 160.121094 143.519531 160.03125 143.203125 160.003906 143.046875 C 160 143.039062 160 143.035156 160 143.027344 C 159.996094 143.019531 159.996094 143.015625 159.996094 143.007812 C 159.992188 142.953125 159.988281 142.898438 159.984375 142.84375 C 159.980469 142.714844 159.980469 142.585938 159.984375 142.460938 Z M 173.277344 146.167969 C 173.277344 143.464844 173.273438 140.765625 173.214844 138.066406 C 173.1875 136.726562 175.265625 136.730469 175.289062 138.066406 C 175.296875 138.394531 175.296875 138.722656 175.304688 139.050781 C 176.136719 137.625 177.433594 136.324219 179.085938 136.011719 C 180.59375 135.722656 181.800781 136.601562 182.410156 137.9375 C 183.085938 139.417969 183.265625 141.085938 183.363281 142.6875 C 183.445312 144.035156 183.429688 145.382812 183.410156 146.734375 C 183.394531 148.070312 181.316406 148.070312 181.332031 146.734375 C 181.351562 145.351562 181.371094 143.96875 181.28125 142.589844 C 181.257812 142.222656 181.226562 141.855469 181.183594 141.488281 C 181.175781 141.414062 181.167969 141.339844 181.15625 141.265625 C 181.152344 141.242188 181.132812 141.089844 181.128906 141.078125 C 181.105469 140.917969 181.078125 140.757812 181.050781 140.597656 C 180.988281 140.265625 180.914062 139.9375 180.820312 139.609375 C 180.78125 139.472656 180.738281 139.335938 180.691406 139.199219 C 180.664062 139.117188 180.636719 139.039062 180.605469 138.964844 C 180.605469 138.960938 180.605469 138.960938 180.605469 138.960938 C 180.601562 138.957031 180.601562 138.957031 180.601562 138.953125 C 180.535156 138.816406 180.46875 138.679688 180.390625 138.546875 C 180.34375 138.46875 180.089844 138.171875 180.292969 138.382812 C 180.21875 138.308594 180.140625 138.234375 180.074219 138.15625 C 180.035156 138.136719 179.988281 138.113281 179.972656 138.085938 C 179.957031 138.078125 179.9375 138.070312 179.925781 138.0625 C 179.890625 138.058594 179.835938 138.039062 179.820312 138.03125 C 179.816406 138.03125 179.8125 138.03125 179.8125 138.027344 C 179.824219 138.027344 179.832031 138.027344 179.847656 138.027344 C 179.832031 138.027344 179.820312 138.027344 179.804688 138.027344 C 179.75 138.007812 179.675781 138.015625 179.695312 138.023438 C 179.691406 138.023438 179.683594 138.023438 179.679688 138.023438 C 179.667969 138.023438 179.652344 138.023438 179.640625 138.023438 C 179.636719 138.023438 179.636719 138.023438 179.632812 138.023438 C 179.632812 138.023438 179.632812 138.023438 179.636719 138.023438 C 179.59375 138.027344 179.550781 138.027344 179.507812 138.03125 C 179.578125 138.027344 179.613281 138.027344 179.632812 138.023438 C 179.601562 138.027344 179.527344 138.035156 179.492188 138.046875 C 179.351562 138.089844 179.210938 138.128906 179.074219 138.183594 C 179.042969 138.199219 178.90625 138.261719 178.890625 138.273438 C 178.792969 138.324219 178.695312 138.378906 178.601562 138.4375 C 178.429688 138.546875 178.355469 138.601562 178.28125 138.664062 C 178.011719 138.890625 177.695312 139.21875 177.519531 139.449219 C 177.089844 140.011719 176.683594 140.835938 176.441406 141.484375 C 175.847656 143.074219 175.550781 144.761719 175.316406 146.441406 C 175.246094 146.960938 174.632812 147.242188 174.175781 147.1875 C 173.671875 147.128906 173.277344 146.679688 173.277344 146.167969 Z M 179.804688 138.027344 C 179.808594 138.027344 179.808594 138.027344 179.8125 138.027344 C 179.738281 138.03125 179.703125 138.027344 179.695312 138.023438 C 179.730469 138.019531 179.769531 138.023438 179.804688 138.027344 Z M 188.589844 139.464844 C 188.53125 134.75 188.109375 130.050781 188.042969 125.335938 C 188.023438 123.996094 190.101562 124 190.121094 125.335938 C 190.183594 129.851562 190.566406 134.351562 190.648438 138.871094 C 192.960938 136.867188 194.738281 134.152344 196.304688 131.582031 C 197 130.441406 198.796875 131.488281 198.097656 132.632812 C 196.445312 135.347656 194.570312 138.085938 192.191406 140.238281 C 193.386719 140.84375 194.515625 141.585938 195.578125 142.394531 C 197.128906 143.578125 198.585938 144.886719 199.722656 146.476562 C 200.5 147.570312 198.699219 148.605469 197.929688 147.527344 C 196.972656 146.183594 195.65625 145.039062 194.347656 144.050781 C 193.230469 143.210938 192.019531 142.40625 190.730469 141.828125 C 190.78125 143.460938 190.847656 145.097656 190.933594 146.730469 C 191 148.070312 188.921875 148.0625 188.855469 146.730469 C 188.730469 144.3125 188.617188 141.886719 188.589844 139.464844 Z M 211.660156 156.191406 C 210.957031 155.050781 212.757812 154.007812 213.453125 155.144531 C 214.457031 156.78125 216.769531 156.992188 218.488281 156.65625 C 220.714844 156.222656 222.183594 154.675781 222.859375 152.539062 C 223.972656 149.03125 223.699219 145.480469 223.28125 141.925781 C 222.679688 143.730469 221.613281 145.679688 219.597656 146.082031 C 217.738281 146.449219 216.203125 145.554688 215.5 143.820312 C 214.816406 142.128906 214.839844 140.167969 214.96875 138.378906 C 215.082031 136.816406 215.3125 135.261719 215.613281 133.726562 C 215.875 132.414062 217.875 132.972656 217.621094 134.28125 C 217.335938 135.714844 217.121094 137.164062 217.03125 138.625 C 216.941406 140.066406 216.863281 141.71875 217.429688 143.082031 C 217.617188 143.535156 217.871094 143.882812 218.230469 144.027344 C 218.632812 144.1875 219.3125 144.105469 219.769531 143.800781 C 221.09375 142.917969 221.496094 140.851562 221.800781 139.410156 C 222.15625 137.734375 222.289062 136.019531 222.660156 134.347656 C 222.917969 133.175781 224.6875 133.480469 224.699219 134.625 C 224.730469 137.941406 225.398438 141.199219 225.65625 144.496094 C 226 148.855469 225.691406 154.914062 221.65625 157.617188 C 218.734375 159.574219 213.632812 159.414062 211.660156 156.191406 Z M 234.671875 146.816406 C 237.3125 146.042969 238.710938 143.332031 238.96875 140.757812 C 239.105469 139.359375 238.867188 137.84375 238.144531 136.625 C 237.335938 135.261719 236.023438 134.515625 234.480469 134.316406 C 231.894531 134.035156 229.386719 135.242188 228.152344 137.566406 C 227.066406 139.609375 226.945312 142.238281 228.101562 144.28125 C 229.371094 146.523438 232.222656 147.53125 234.671875 146.816406 Z M 234.46875 136.394531 C 234.472656 136.394531 234.476562 136.394531 234.480469 136.398438 C 234.460938 136.394531 234.449219 136.390625 234.441406 136.390625 C 234.449219 136.394531 234.460938 136.394531 234.46875 136.394531 Z M 229.386719 140.480469 C 229.390625 140.414062 229.394531 140.382812 229.394531 140.367188 C 229.394531 140.355469 229.402344 140.335938 229.40625 140.296875 C 229.488281 139.851562 229.601562 139.417969 229.765625 138.996094 C 229.789062 138.945312 229.851562 138.800781 229.871094 138.765625 C 229.925781 138.652344 229.984375 138.539062 230.050781 138.425781 C 230.113281 138.316406 230.183594 138.207031 230.253906 138.101562 C 230.277344 138.070312 230.375 137.9375 230.40625 137.894531 C 230.558594 137.714844 230.714844 137.539062 230.890625 137.375 C 230.941406 137.328125 231.179688 137.128906 231.117188 137.179688 C 231.058594 137.226562 231.300781 137.050781 231.363281 137.011719 C 231.488281 136.929688 231.613281 136.855469 231.746094 136.789062 C 231.78125 136.769531 231.925781 136.703125 231.957031 136.683594 C 232.210938 136.582031 232.476562 136.5 232.746094 136.441406 C 232.800781 136.429688 233.011719 136.394531 233.046875 136.386719 C 233.179688 136.371094 233.316406 136.359375 233.453125 136.355469 C 233.785156 136.339844 234.109375 136.359375 234.4375 136.390625 C 234.390625 136.390625 234.640625 136.433594 234.695312 136.445312 C 234.816406 136.476562 234.9375 136.515625 235.058594 136.554688 C 235.074219 136.558594 235.113281 136.574219 235.132812 136.582031 C 235.167969 136.59375 235.199219 136.609375 235.230469 136.625 C 235.347656 136.6875 235.464844 136.75 235.574219 136.824219 C 235.613281 136.847656 235.695312 136.914062 235.71875 136.929688 C 235.792969 136.996094 235.863281 137.058594 235.933594 137.128906 C 236 137.195312 236.058594 137.265625 236.117188 137.335938 C 236.125 137.347656 236.257812 137.527344 236.28125 137.5625 C 236.34375 137.660156 236.402344 137.761719 236.457031 137.867188 C 236.472656 137.898438 236.546875 138.054688 236.574219 138.105469 C 236.589844 138.152344 236.640625 138.285156 236.652344 138.316406 C 236.699219 138.460938 236.742188 138.609375 236.78125 138.757812 C 236.808594 138.878906 236.835938 139 236.859375 139.121094 C 236.867188 139.171875 236.875 139.222656 236.882812 139.269531 C 236.914062 139.539062 236.925781 139.808594 236.925781 140.078125 C 236.925781 140.335938 236.90625 140.597656 236.878906 140.855469 C 236.878906 140.859375 236.878906 140.867188 236.878906 140.871094 C 236.871094 140.921875 236.851562 141.035156 236.878906 140.871094 C 236.867188 140.9375 236.859375 141 236.847656 141.0625 C 236.820312 141.191406 236.796875 141.320312 236.769531 141.449219 C 236.628906 142.039062 236.507812 142.378906 236.292969 142.796875 C 236.019531 143.335938 235.839844 143.589844 235.511719 143.929688 C 235.4375 144.007812 235.363281 144.082031 235.28125 144.152344 C 235.238281 144.195312 235.191406 144.234375 235.144531 144.273438 C 235.132812 144.285156 235.136719 144.28125 235.132812 144.285156 C 234.925781 144.4375 234.707031 144.566406 234.476562 144.683594 C 234.464844 144.6875 234.441406 144.699219 234.421875 144.707031 C 234.378906 144.722656 234.339844 144.742188 234.300781 144.753906 C 234.179688 144.792969 234.0625 144.828125 233.9375 144.859375 C 233.894531 144.871094 233.753906 144.898438 233.703125 144.910156 C 233.664062 144.914062 233.609375 144.917969 233.59375 144.921875 C 233.503906 144.925781 233.414062 144.933594 233.324219 144.9375 C 233.042969 144.945312 232.761719 144.9375 232.484375 144.914062 C 232.46875 144.914062 232.441406 144.910156 232.417969 144.90625 C 232.371094 144.898438 232.320312 144.890625 232.273438 144.878906 C 232.136719 144.851562 232 144.820312 231.863281 144.785156 C 231.746094 144.75 231.636719 144.710938 231.519531 144.671875 C 231.484375 144.660156 231.464844 144.65625 231.449219 144.648438 C 231.445312 144.644531 231.433594 144.640625 231.40625 144.625 C 231.191406 144.515625 230.988281 144.394531 230.785156 144.265625 C 230.753906 144.242188 230.738281 144.234375 230.726562 144.226562 C 230.714844 144.214844 230.703125 144.203125 230.675781 144.175781 C 230.59375 144.097656 230.511719 144.03125 230.4375 143.953125 C 230.359375 143.875 230.292969 143.792969 230.21875 143.714844 C 230.191406 143.683594 230.175781 143.671875 230.167969 143.664062 C 230.160156 143.648438 230.144531 143.625 230.113281 143.574219 C 229.996094 143.394531 229.882812 143.210938 229.785156 143.019531 C 229.773438 142.992188 229.714844 142.867188 229.699219 142.832031 C 229.691406 142.8125 229.683594 142.792969 229.679688 142.785156 C 229.660156 142.71875 229.632812 142.65625 229.613281 142.59375 C 229.542969 142.382812 229.488281 142.171875 229.445312 141.957031 C 229.425781 141.878906 229.414062 141.792969 229.402344 141.714844 C 229.402344 141.691406 229.378906 141.503906 229.375 141.449219 C 229.363281 141.242188 229.359375 141.03125 229.367188 140.820312 C 229.371094 140.707031 229.378906 140.59375 229.386719 140.480469 Z M 236.878906 140.871094 Z M 240.917969 140.25 C 240.855469 138.703125 241.023438 137.171875 241.023438 135.628906 C 241.023438 134.289062 243.101562 134.292969 243.097656 135.625 C 243.101562 137.203125 242.925781 138.769531 242.996094 140.351562 C 243.015625 140.773438 243.046875 141.199219 243.101562 141.625 C 243.109375 141.675781 243.125 141.78125 243.128906 141.789062 C 243.144531 141.886719 243.160156 141.984375 243.179688 142.082031 C 243.214844 142.273438 243.257812 142.460938 243.308594 142.648438 C 243.355469 142.832031 243.40625 143.011719 243.46875 143.1875 C 243.492188 143.253906 243.515625 143.316406 243.542969 143.382812 C 243.558594 143.425781 243.59375 143.507812 243.605469 143.523438 C 243.683594 143.675781 243.761719 143.828125 243.855469 143.972656 C 243.886719 144.019531 243.917969 144.066406 243.953125 144.117188 C 243.976562 144.144531 244.027344 144.210938 244.042969 144.226562 C 244.121094 144.304688 244.195312 144.382812 244.277344 144.457031 C 244.289062 144.472656 244.296875 144.476562 244.308594 144.488281 C 244.3125 144.492188 244.3125 144.492188 244.320312 144.496094 C 244.445312 144.578125 244.570312 144.652344 244.703125 144.714844 C 244.746094 144.730469 244.800781 144.753906 244.820312 144.757812 C 244.90625 144.78125 244.992188 144.808594 245.078125 144.828125 C 245.074219 144.828125 245.152344 144.839844 245.207031 144.851562 C 245.265625 144.855469 245.367188 144.867188 245.363281 144.867188 C 245.585938 144.875 245.808594 144.871094 246.03125 144.847656 C 246.070312 144.839844 246.1875 144.816406 246.203125 144.8125 C 246.292969 144.789062 246.382812 144.765625 246.472656 144.734375 C 246.496094 144.726562 246.507812 144.726562 246.519531 144.71875 C 246.53125 144.714844 246.539062 144.710938 246.558594 144.699219 C 246.640625 144.660156 246.71875 144.617188 246.796875 144.570312 C 246.851562 144.535156 246.910156 144.496094 246.964844 144.457031 C 246.992188 144.429688 247.074219 144.363281 247.085938 144.347656 C 247.558594 143.871094 247.90625 143.269531 248.132812 142.632812 C 248.289062 142.179688 248.410156 141.71875 248.507812 141.25 C 248.605469 140.78125 248.65625 140.441406 248.695312 140.070312 C 248.785156 139.203125 248.816406 138.332031 248.796875 137.460938 C 248.785156 137.058594 248.765625 136.660156 248.730469 136.257812 C 248.714844 136.101562 248.699219 135.949219 248.679688 135.792969 C 248.679688 135.789062 248.679688 135.785156 248.679688 135.777344 C 248.667969 135.714844 248.660156 135.648438 248.648438 135.585938 C 248.554688 135.03125 248.785156 134.46875 249.371094 134.308594 C 249.875 134.171875 250.558594 134.480469 250.652344 135.035156 C 251.003906 137.113281 250.953125 139.285156 250.59375 141.359375 C 250.269531 143.242188 249.523438 145.40625 247.765625 146.410156 C 246.101562 147.363281 243.714844 147.078125 242.46875 145.574219 C 241.253906 144.105469 240.988281 142.09375 240.917969 140.25 Z M 253.792969 123.988281 C 253.570312 122.679688 255.574219 122.121094 255.796875 123.4375 C 256.652344 128.5 256.898438 133.746094 256.90625 138.878906 C 256.90625 140.21875 254.828125 140.214844 254.828125 138.878906 C 254.820312 133.9375 254.617188 128.867188 253.792969 123.988281 Z M 255.59375 144.792969 C 254.257812 144.792969 254.257812 142.714844 255.59375 142.714844 C 256.933594 142.714844 256.929688 144.792969 255.59375 144.792969 Z M 255.59375 144.792969 " fill-opacity="1" fill-rule="nonzero"/>
    </g>
</svg>