<svg xmlns="http://www.w3.org/2000/svg" xmlns:xlink="http://www.w3.org/1999/xlink" zoomAndPan="magnify" preserveAspectRatio="xMidYMid meet" version="1.0" viewBox="604.5 316.5 229.74 177"><defs><clipPath id="b877a394f7"><path d="M 604.5 330 L 626 330 L 626 402 L 604.5 402 Z M 604.5 330 " clip-rule="nonzero"/></clipPath><clipPath id="67919141a2"><path d="M 630 316.5 L 819 316.5 L 819 493.5 L 630 493.5 Z M 630 316.5 " clip-rule="nonzero"/></clipPath></defs><path fill="#040606" d="M 641.890625 320.71875 C 642.203125 320.839844 643.003906 320.46875 642.96875 320.933594 C 643.550781 322.03125 642.234375 322.957031 641.675781 323.511719 C 639.746094 325.40625 637.160156 327.269531 635.414062 329.519531 C 634.773438 330.347656 634.355469 331.601562 633.6875 332.523438 C 633.023438 333.4375 632.3125 334.207031 631.746094 335.097656 C 630.554688 336.972656 629.644531 338.964844 628.507812 340.898438 C 626.226562 344.761719 623.964844 348.542969 622.246094 352.703125 C 619.601562 359.101562 617.757812 366.390625 616.851562 374.378906 C 616.589844 376.703125 617.101562 380.316406 614.910156 381.03125 C 614.132812 380.546875 614.296875 379.914062 614.261719 379.316406 C 614.160156 377.65625 614.90625 375.320312 615.125 373.304688 C 615.976562 365.417969 618.09375 358.160156 620.738281 351.625 C 622.433594 347.433594 624.710938 343.542969 626.996094 339.609375 C 628.683594 336.699219 630.230469 333.910156 632.175781 331.238281 C 633.90625 328.855469 635.410156 326.914062 637.570312 324.796875 C 639.03125 323.371094 640.316406 321.972656 641.890625 320.71875 " fill-opacity="1" fill-rule="evenodd"/><g clip-path="url(#b877a394f7)"><path fill="#040606" d="M 625.269531 330.59375 C 625.460938 331.964844 623.957031 332.472656 623.324219 333.382812 C 622.023438 335.269531 621.074219 337.78125 619.871094 340.035156 C 617.542969 344.410156 615.910156 347.933594 614.261719 353.558594 C 613.597656 355.832031 612.894531 358.097656 612.101562 360.429688 C 610.566406 364.960938 608.625 369.875 607.785156 374.378906 C 607.476562 376.039062 607.574219 377.925781 607.355469 379.742188 C 606.824219 384.121094 606.246094 390.257812 606.707031 395.84375 C 606.847656 397.554688 608.109375 400.855469 605.628906 401.421875 C 604.496094 400.296875 604.980469 398.488281 604.980469 397.128906 C 604.980469 389.667969 604.878906 381.40625 605.84375 374.808594 C 606.40625 370.972656 607.96875 366.945312 609.296875 363.003906 C 611.941406 355.140625 613.53125 347.519531 617.28125 340.464844 C 618.175781 338.789062 619.117188 337.101562 620.085938 335.53125 C 621.15625 333.800781 621.945312 331.941406 623.109375 330.808594 C 623.324219 330.25 624.796875 330.234375 625.269531 330.59375 " fill-opacity="1" fill-rule="evenodd"/></g><path fill="#040606" d="M 644.476562 332.308594 C 645.386719 334.167969 643.5 336.128906 641.890625 336.816406 C 641.03125 338.289062 640.023438 339.667969 639.082031 341.109375 C 638.152344 342.535156 636.902344 343.742188 636.0625 345.1875 C 635.574219 346.03125 635.265625 347.148438 634.765625 348.191406 C 632.628906 352.683594 629.738281 357.980469 628.722656 363.859375 C 628.550781 364.859375 629.375 366.210938 627.859375 366.867188 C 625.839844 366.339844 626.980469 363.898438 627.210938 362.789062 C 628.179688 358.140625 629.707031 354.25 631.53125 350.339844 C 634.042969 344.941406 637.484375 340.03125 640.378906 335.746094 C 642.066406 335.207031 642.578125 333.5 643.617188 332.308594 C 643.90625 332.308594 644.191406 332.308594 644.476562 332.308594 " fill-opacity="1" fill-rule="evenodd"/><path fill="#040606" d="M 783.914062 338.75 C 785.082031 339 785.152344 340.421875 785.640625 341.324219 C 786.085938 342.148438 786.851562 342.832031 787.367188 343.683594 C 788.410156 345.414062 788.90625 347.683594 789.742188 349.695312 C 790.550781 351.65625 791.277344 353.714844 791.898438 355.921875 C 792.925781 359.566406 793.917969 362.066406 794.273438 366.652344 C 794.410156 368.410156 794.234375 370.453125 794.273438 372.234375 C 794.304688 373.742188 794.945312 375.886719 793.410156 376.523438 C 791.601562 375.964844 792.328125 373.410156 792.328125 372.019531 C 792.328125 368.65625 792.421875 365.015625 791.898438 362.144531 C 791.527344 360.125 790.53125 358.171875 789.957031 356.136719 C 789.363281 354.023438 788.78125 352.023438 788.015625 350.125 C 787.242188 348.21875 786.679688 346.238281 785.640625 344.546875 C 784.625 342.898438 782.960938 341.460938 783.046875 339.394531 C 783.457031 339.371094 783.195312 338.683594 783.699219 338.75 C 783.769531 338.75 783.839844 338.75 783.914062 338.75 " fill-opacity="1" fill-rule="evenodd"/><path fill="#040606" d="M 797.511719 353.988281 C 799.402344 354.453125 798.464844 357.277344 798.589844 359.140625 C 798.652344 360.007812 798.957031 361.050781 799.023438 361.929688 C 799.179688 363.957031 799.53125 366.546875 798.160156 367.296875 C 796.628906 366.75 797.402344 364.6875 797.296875 363.214844 C 797.074219 360.171875 796.078125 356.140625 797.511719 353.988281 " fill-opacity="1" fill-rule="evenodd"/><path fill="#040606" d="M 829.453125 413.65625 C 831.761719 413.5 829.789062 416.382812 829.453125 417.304688 C 828.769531 419.203125 828.789062 420.371094 828.375 421.597656 C 827.640625 423.800781 826.40625 425.964844 825.570312 428.25 C 825.128906 429.457031 824.972656 430.730469 824.492188 431.898438 C 822.3125 437.183594 819.566406 442.609375 816.289062 447.351562 C 814.96875 449.261719 813.980469 451.363281 812.621094 453.148438 C 811.277344 454.910156 809.53125 456.417969 808.085938 458.085938 C 806.605469 459.800781 804.949219 461.230469 803.339844 462.808594 C 801.902344 464.210938 800.820312 466.925781 798.375 466.671875 C 797.695312 465.351562 798.976562 464.308594 799.886719 463.878906 C 810.777344 454.160156 818.632812 442.300781 824.277344 427.175781 C 824.667969 426.128906 824.949219 425.03125 825.355469 423.957031 C 826.4375 421.125 827.480469 417.410156 828.808594 414.296875 C 828.925781 413.988281 829.144531 413.777344 829.453125 413.65625 " fill-opacity="1" fill-rule="evenodd"/><path fill="#040606" d="M 833.34375 432.113281 C 835.5 433.5 833.152344 436.519531 832.476562 437.910156 C 829.804688 443.40625 825.789062 448.234375 822.117188 452.71875 C 819.640625 455.742188 817.113281 458.980469 814.347656 461.734375 C 812.976562 463.097656 811.425781 464.425781 810.027344 465.808594 C 808.800781 467.035156 807.605469 469.320312 805.496094 469.03125 C 804.695312 467.949219 806.003906 467.265625 806.578125 466.671875 C 810.914062 462.15625 815.636719 457.886719 819.746094 452.71875 C 823.070312 448.535156 826.796875 444.390625 829.675781 439.414062 C 830.917969 437.253906 831.828125 435.265625 832.695312 432.757812 C 832.65625 432.292969 832.871094 432.078125 833.34375 432.113281 " fill-opacity="1" fill-rule="evenodd"/><path fill="#040606" d="M 823.414062 461.519531 C 822.964844 463.503906 821.480469 465.207031 820.175781 466.882812 C 817.96875 469.71875 815.820312 472.597656 812.621094 474.613281 C 811.429688 475.359375 809.621094 476.757812 808.089844 475.902344 C 808.578125 473.8125 810.75 473.691406 812.1875 472.679688 C 814.734375 470.890625 817.144531 467.679688 819.308594 464.953125 C 820.308594 463.699219 820.988281 462.90625 821.6875 461.304688 C 821.761719 461.023438 822.066406 460.964844 822.117188 460.664062 C 822.332031 460.664062 822.546875 460.664062 822.769531 460.664062 C 822.980469 460.945312 823.121094 461.308594 823.414062 461.519531 " fill-opacity="1" fill-rule="evenodd"/><path fill="#040606" d="M 700.816406 436.835938 C 700.960938 436.414062 701.390625 436.261719 701.894531 436.191406 C 702.902344 436.347656 702.902344 435.824219 701.894531 435.976562 C 700.285156 436.285156 698.753906 435.386719 697.578125 435.976562 C 698.878906 436.042969 699.707031 436.574219 700.816406 436.835938 Z M 705.128906 435.550781 C 705.5 435.5625 705.683594 435.382812 705.777344 435.121094 C 705.441406 435.140625 705.03125 435.089844 705.128906 435.550781 Z M 695.417969 434.691406 C 695.789062 433.804688 694.441406 433.539062 694.125 434.046875 C 694.578125 434.238281 694.761719 434.699219 695.417969 434.691406 Z M 701.464844 432.972656 C 700.773438 431.375 698.515625 432.292969 696.929688 432.113281 C 694.898438 431.886719 692.800781 430.820312 691.320312 431.253906 C 694.261719 432.261719 698.226562 432.257812 701.464844 432.972656 Z M 689.589844 428.679688 C 691.675781 429.101562 694.46875 429.902344 696.929688 430.183594 C 697.886719 430.289062 699.261719 430.402344 699.949219 429.96875 C 699.640625 429.703125 699.542969 429.230469 699.519531 428.679688 C 696.308594 429.921875 692.363281 427.46875 689.15625 428.039062 C 689.464844 428.09375 689.402344 428.503906 689.589844 428.679688 Z M 688.082031 425.460938 C 691.3125 426.324219 695.71875 427.164062 699.085938 427.175781 C 698.734375 426.042969 697.378906 426.335938 696.496094 426.105469 C 693.628906 425.359375 690.628906 424.429688 688.082031 423.527344 C 688.066406 423.398438 688.046875 423.273438 687.863281 423.316406 C 687.734375 424.226562 688.019531 424.734375 688.082031 425.460938 Z M 687.214844 420.953125 C 690.300781 422.75 694.394531 423.542969 698.226562 424.605469 C 698.160156 423.59375 697.863281 422.816406 697.578125 422.027344 C 697.453125 422.546875 696.761719 422.503906 696.28125 422.671875 C 694.695312 422.277344 692.8125 421.929688 691.101562 421.382812 C 689.714844 420.941406 687.324219 420.546875 687.429688 418.59375 C 690.816406 418.527344 693.667969 420.828125 697.578125 420.953125 C 697.570312 419.8125 696.167969 419.914062 695.417969 419.664062 C 692.632812 418.75 689.222656 417.96875 687 416.875 C 686.960938 418.347656 686.988281 419.75 687.214844 420.953125 Z M 687 414.730469 C 690.039062 416.289062 693.503906 417.417969 697.359375 418.164062 C 697.292969 417.65625 697.019531 417.355469 697.144531 416.660156 C 693.273438 416.21875 690.628906 414.558594 687 413.871094 C 687 414.15625 687 414.445312 687 414.730469 Z M 687 411.9375 C 690.492188 412.621094 693.960938 414.453125 697.144531 414.730469 C 697.507812 413.378906 695.972656 413.320312 695.203125 413.011719 C 692.402344 411.894531 689.335938 411.386719 687.214844 410.007812 C 687.203125 409.875 687.183594 409.753906 687 409.792969 C 686.714844 410.421875 687.136719 410.902344 687 411.9375 Z M 687 408.078125 C 690.207031 409.25 693.15625 410.679688 696.710938 411.511719 C 696.710938 410.9375 696.710938 410.363281 696.710938 409.792969 C 693.246094 408.800781 690.328125 407.269531 687 406.144531 C 687 406.789062 687 407.433594 687 408.078125 Z M 687 404.210938 C 690.425781 405.238281 693.265625 406.855469 696.710938 407.859375 C 696.710938 407.433594 696.710938 407.003906 696.710938 406.574219 C 693.597656 405.019531 690.5 403.449219 687.214844 402.066406 C 687.257812 402.894531 687.222656 403.644531 687 404.210938 Z M 692.179688 401.851562 C 690.570312 401.113281 689.289062 399.976562 687.648438 399.488281 C 687.601562 399.230469 687.410156 399.355469 687.214844 399.488281 C 687.214844 399.703125 687.214844 399.917969 687.214844 400.132812 C 689.675781 401.015625 692.375 402.296875 694.558594 403.355469 C 695.136719 403.636719 696.085938 404.796875 696.710938 403.996094 C 695.566406 402.765625 693.667969 402.53125 692.179688 401.851562 Z M 687.863281 397.773438 C 690.765625 398.394531 693.546875 400.988281 697.144531 401.636719 C 697.050781 400.898438 697.230469 400.433594 697.359375 399.917969 C 693.960938 398.722656 691.152344 396.9375 687.863281 395.628906 C 688.023438 396.378906 687.207031 397.246094 687.863281 397.773438 Z M 687.863281 393.480469 C 691.070312 394.941406 694.058594 396.617188 697.359375 397.988281 C 698.207031 396.566406 696.835938 396.339844 696.0625 395.84375 C 693.59375 394.246094 690.683594 393.089844 688.511719 391.765625 C 688.5 391.632812 688.476562 391.511719 688.296875 391.546875 C 688.082031 392.125 687.851562 392.679688 687.863281 393.480469 Z M 688.511719 389.617188 C 691.785156 391.230469 694.671875 393.222656 698.011719 394.765625 C 697.847656 394.113281 698.378906 394.136719 698.226562 393.480469 C 695.246094 391.507812 692.105469 389.695312 688.941406 387.898438 C 688.828125 388.503906 688.625 389.015625 688.511719 389.617188 Z M 698.226562 389.832031 C 696.160156 387.59375 693.394531 386.054688 690.886719 384.25 C 690.667969 384.25 690.453125 384.25 690.238281 384.25 C 689.96875 384.84375 689.609375 385.34375 689.589844 386.183594 C 692.859375 387.796875 695.613281 389.925781 698.871094 391.546875 C 699.160156 391.050781 699.226562 390.328125 699.519531 389.832031 C 699.085938 389.832031 698.65625 389.832031 698.226562 389.832031 Z M 702.539062 382.105469 C 701.496094 381.921875 700.4375 380.625 699.734375 380.816406 C 700.65625 381.097656 701.808594 383.023438 702.539062 382.105469 Z M 691.101562 382.535156 C 693.476562 382.90625 695.316406 384.6875 696.929688 385.753906 C 697.328125 386.019531 697.632812 386.367188 698.011719 386.613281 C 698.566406 386.980469 699.964844 387.941406 700.167969 387.257812 C 700.582031 386.265625 699.214844 385.957031 698.65625 385.539062 C 696.5 383.925781 694.332031 382.277344 692.609375 380.601562 C 692.335938 380.589844 692.3125 380.328125 691.964844 380.390625 C 691.742188 381.167969 691.285156 381.714844 691.101562 382.535156 Z M 693.257812 378.242188 C 693.242188 377.945312 692.710938 378.015625 692.828125 378.457031 C 692.601562 378.464844 692.65625 378.730469 693.042969 378.671875 C 695.035156 380.257812 697.105469 382.179688 699.085938 383.605469 C 699.753906 384.089844 700.589844 384.960938 701.464844 384.679688 C 699 382.261719 696.253906 380.128906 693.257812 378.242188 Z M 707.9375 378.457031 C 706.992188 380.011719 706.121094 382.15625 705.128906 384.25 C 704.222656 386.171875 703.394531 388.351562 702.757812 390.476562 C 701.410156 394.953125 700.175781 399.832031 699.949219 404.855469 C 699.78125 408.660156 700.0625 412.609375 700.382812 416.445312 C 700.875 422.347656 701.957031 428.78125 705.128906 431.683594 C 706.71875 431.757812 708.328125 431.460938 709.230469 431.472656 C 711.503906 427.753906 710.714844 423.226562 711.175781 417.949219 C 711.3125 416.34375 711.851562 414.734375 712.039062 413.011719 C 712.242188 411.140625 712.039062 409.121094 712.253906 407.214844 C 712.359375 406.269531 712.816406 405.386719 712.898438 404.425781 C 712.988281 403.46875 712.789062 402.40625 712.898438 401.421875 C 713.1875 398.921875 714.03125 396.363281 714.195312 393.910156 C 714.34375 391.742188 713.863281 389.582031 714.195312 387.683594 C 714.359375 386.757812 715.121094 385.894531 715.273438 384.894531 C 715.796875 381.554688 715.308594 378.207031 714.195312 375.453125 C 710.960938 374.679688 709.183594 376.402344 707.9375 378.457031 Z M 701.679688 378.457031 C 700.128906 377.394531 698.726562 376.128906 697.144531 375.238281 C 696.433594 374.835938 695.363281 374.269531 694.558594 374.378906 C 694.546875 374.675781 694.65625 374.847656 694.773438 375.023438 C 697.085938 376.210938 699.214844 378.222656 701.246094 379.527344 C 701.867188 379.929688 702.867188 380.554688 703.621094 380.390625 C 703.667969 380.222656 703.628906 379.964844 703.835938 379.960938 C 703.5 379.085938 702.398438 378.949219 701.679688 378.457031 Z M 698.441406 373.734375 C 697.757812 373.410156 697.386719 372.777344 696.496094 372.660156 C 696.679688 373.347656 698.136719 373.882812 698.441406 373.734375 Z M 707.507812 373.304688 C 706.800781 373.070312 705.984375 371.824219 705.347656 372.234375 C 706.113281 372.402344 706.957031 373.628906 707.507812 373.304688 Z M 699.949219 372.234375 C 699.507812 372.027344 699.769531 371.125 699.085938 371.160156 C 698.714844 371.148438 698.535156 371.324219 698.441406 371.589844 C 700.847656 373.125 702.984375 374.9375 705.5625 376.308594 C 703.984375 374.660156 702.648438 372.769531 699.949219 372.234375 Z M 701.464844 367.082031 C 703.5625 366.792969 709.640625 366.566406 712.039062 367.726562 C 714.648438 368.984375 718.128906 374.230469 718.730469 378.242188 C 718.929688 379.574219 718.929688 382.585938 718.730469 384.679688 C 718.589844 386.144531 717.820312 387.476562 717.652344 388.757812 C 717.449219 390.265625 717.773438 391.894531 717.652344 393.480469 C 717.191406 399.28125 715.742188 405.480469 715.273438 411.9375 C 715.125 414.011719 714.742188 416.113281 714.628906 418.164062 C 714.519531 420.035156 714.777344 421.839844 714.628906 423.746094 C 714.351562 427.148438 713.351562 430.832031 711.820312 433.402344 C 709.886719 436.652344 706.582031 439.585938 704.054688 440.054688 C 700.507812 440.714844 695.765625 439.039062 693.476562 437.691406 C 689.371094 435.292969 685.328125 429.246094 684.195312 423.101562 C 682.792969 415.503906 683.609375 403.824219 684.410156 395.84375 C 684.929688 390.660156 685.492188 386.65625 687.214844 382.75 C 687.746094 381.550781 688.476562 380.457031 688.941406 379.316406 C 690.089844 376.515625 690.902344 373.644531 692.179688 372.019531 C 693.675781 370.113281 698.054688 367.546875 701.464844 367.082031 " fill-opacity="1" fill-rule="evenodd"/><g clip-path="url(#67919141a2)"><path fill="#040606" d="M 777.222656 467.53125 C 777.714844 467.589844 778.035156 467.480469 778.085938 467.097656 C 777.59375 467.039062 777.273438 467.152344 777.222656 467.53125 Z M 687 464.3125 C 684.695312 464.453125 681.820312 464.023438 679.875 464.523438 C 681.71875 465.222656 685.066406 464.828125 687 464.3125 Z M 779.816406 464.953125 C 781.898438 463.738281 785.273438 463.800781 787.152344 462.375 C 785.152344 463.539062 780.296875 463 779.816406 464.953125 Z M 677.503906 463.238281 C 677.613281 462.917969 677.820312 462.695312 677.9375 462.375 C 677.417969 462.507812 676.367188 462.109375 676.207031 462.59375 C 676.664062 462.785156 676.84375 463.246094 677.503906 463.238281 Z M 674.265625 461.089844 C 674.773438 461.15625 674.664062 461.835938 675.34375 461.734375 C 675.273438 461.234375 675.378906 460.910156 675.558594 460.664062 C 674.988281 460.664062 674.285156 460.542969 674.265625 461.089844 Z M 682.25 458.945312 C 681.695312 458.769531 680.160156 458.460938 679.660156 458.945312 C 680.578125 458.757812 681.574219 459.601562 682.25 458.945312 Z M 672.753906 459.160156 C 673.371094 458.628906 675.113281 459.214844 675.777344 458.726562 C 676.136719 458.726562 676.496094 458.726562 676.855469 458.726562 C 677.222656 458.777344 677.390625 458.488281 676.855469 458.515625 C 675.035156 458.679688 673.882812 458.183594 672.105469 458.300781 C 672.070312 458.835938 672.4375 458.972656 672.753906 459.160156 Z M 784.992188 458.085938 C 784.757812 458.851562 784.074219 459.175781 783.914062 460.015625 C 786.5 459.226562 789.453125 458.800781 791.46875 457.441406 C 791.511719 457.171875 791.804688 457.003906 791.25 457.011719 C 789.492188 457.695312 787.414062 458.058594 784.992188 458.085938 Z M 670.378906 456.796875 C 671.746094 456.367188 673.855469 456.675781 675.558594 456.582031 C 676.578125 456.890625 677.339844 456.953125 677.9375 456.796875 C 678.183594 456.734375 676.84375 456.421875 675.777344 456.582031 C 673.984375 456.21875 671.125 455.777344 669.515625 455.9375 C 669.898438 456.132812 670.183594 456.417969 670.378906 456.796875 Z M 790.171875 455.511719 C 791.613281 454.9375 793.488281 454.800781 794.488281 453.792969 C 793.054688 454.226562 790.71875 454.910156 790.171875 455.511719 Z M 788.445312 454.007812 C 789.953125 453.503906 791.402344 452.941406 792.761719 452.289062 C 791.171875 452.710938 788.746094 452.304688 788.445312 454.007812 Z M 667.574219 453.578125 C 670.828125 453.988281 673.902344 454.582031 677.503906 454.652344 C 677.058594 452.96875 675.789062 453.0625 673.832031 452.933594 C 671.527344 452.785156 668.140625 452.121094 666.710938 452.289062 C 666.675781 453.042969 667.441406 452.996094 667.574219 453.578125 Z M 796.433594 451.21875 C 796.804688 451.226562 796.984375 451.050781 797.082031 450.789062 C 796.710938 450.777344 796.523438 450.953125 796.433594 451.21875 Z M 791.035156 450.789062 C 792.023438 450.265625 793.683594 450.414062 794.488281 449.714844 C 793.503906 450.09375 790.398438 449.507812 791.035156 450.789062 Z M 665.414062 450.574219 C 668.28125 449.988281 671.199219 451.082031 674.265625 451 C 673.886719 449.851562 672.058594 449.527344 670.8125 449.285156 C 668.328125 448.804688 665.144531 448.796875 663.253906 448 C 663.808594 449.023438 664.464844 449.949219 665.414062 450.574219 Z M 725.417969 448 C 725.429688 447.628906 725.253906 447.449219 724.988281 447.351562 C 724.976562 447.722656 725.152344 447.902344 725.417969 448 Z M 726.066406 445.421875 C 726.207031 446.214844 727.214844 447.179688 727.796875 446.28125 C 727.140625 446.105469 726.863281 444.785156 726.066406 445.421875 Z M 792.761719 446.496094 C 792.492188 447.015625 792.230469 447.535156 792.113281 448.210938 C 795.144531 447.898438 797.601562 446.445312 800.097656 445.636719 C 800.53125 445.496094 801.121094 446.105469 801.179688 445.207031 C 801.398438 445.207031 801.453125 444.832031 801.179688 444.777344 C 798.699219 445.675781 795.5625 445.917969 792.761719 446.496094 Z M 661.960938 446.496094 C 664.574219 445.589844 668.269531 447.957031 671.246094 447.351562 C 668.1875 445.882812 664.089844 445.453125 661.101562 443.917969 C 660.964844 443.933594 660.84375 443.953125 660.882812 444.132812 C 661.269531 444.894531 661.710938 445.597656 661.960938 446.496094 Z M 729.304688 444.992188 C 729.738281 444.394531 728.019531 443.195312 727.578125 443.488281 C 728.3125 443.835938 728.378906 444.84375 729.304688 444.992188 Z M 730.816406 443.277344 C 730.40625 442.53125 729.136719 441.519531 728.65625 441.558594 C 729.394531 442.113281 730.082031 442.722656 730.816406 443.277344 Z M 803.121094 441.128906 C 800.679688 441.855469 797.527344 442.242188 795.566406 443.0625 C 794.910156 443.335938 793.632812 443.433594 793.628906 444.351562 C 796.519531 444.289062 800.207031 443.167969 803.121094 442.417969 C 803.152344 442.015625 803.265625 441.699219 803.554688 441.558594 C 803.53125 441.292969 803.492188 441.050781 803.121094 441.128906 Z M 660.234375 442.203125 C 660.269531 441.734375 660.78125 441.742188 661.316406 441.773438 C 663.601562 443.363281 667.757812 444.234375 670.378906 444.777344 C 667.703125 441.433594 662.753906 440.339844 658.726562 438.339844 C 658.589844 438.351562 658.46875 438.371094 658.507812 438.554688 C 659.347656 439.507812 659.363281 441.28125 660.234375 442.203125 Z M 729.304688 439.414062 C 730.300781 440.136719 730.96875 441.195312 732.328125 441.558594 C 733.257812 440.054688 730.621094 439.167969 729.734375 438.125 C 729.792969 438.753906 729.25 438.785156 729.304688 439.414062 Z M 796.867188 439.628906 C 796.148438 439.933594 794.800781 439.949219 794.921875 441.128906 C 797.925781 440.59375 801.175781 439.230469 804.417969 439.628906 C 804.378906 438.789062 805.574219 438.074219 805.066406 437.480469 C 802.484375 438.316406 799.085938 438.675781 796.867188 439.628906 Z M 732.328125 437.910156 C 733.058594 438.183594 733.144531 439.097656 734.054688 439.195312 C 734.019531 438.664062 734.390625 438.535156 734.484375 438.125 C 733.898438 437.992188 733.949219 437.226562 733.1875 437.265625 C 733.285156 437.859375 732.386719 437.46875 732.328125 437.910156 Z M 797.082031 435.761719 C 797.050781 436.59375 796.347656 436.753906 796.433594 437.695312 C 798.703125 436.675781 802.007812 436.769531 804.417969 435.976562 C 805.480469 435.628906 806.894531 434.824219 807.226562 433.832031 C 803.660156 434.296875 800.53125 435.191406 797.082031 435.761719 Z M 730.601562 435.121094 C 731.007812 435.167969 731.078125 434.878906 731.464844 434.90625 C 731.371094 434.355469 731.15625 433.917969 730.816406 433.617188 C 730.988281 434.363281 730.492188 434.441406 730.601562 435.121094 Z M 657.214844 435.332031 C 658.460938 435.171875 658.515625 436.1875 659.15625 436.621094 C 662.328125 437.832031 665.449219 439.089844 668.222656 440.699219 C 667.503906 438.242188 664.910156 437.46875 662.824219 436.410156 C 660.640625 435.292969 658.433594 434.085938 656.566406 432.761719 C 656.433594 432.769531 656.308594 432.789062 656.347656 432.972656 C 656.691406 433.710938 656.996094 434.480469 657.214844 435.332031 Z M 799.019531 431.6875 C 798.886719 432.480469 798.414062 432.941406 798.160156 433.617188 C 801.53125 433.484375 805.089844 431.421875 808.085938 432.328125 C 808.222656 431.53125 808.601562 430.980469 808.734375 430.183594 C 805.570312 430.550781 802.039062 432.574219 799.019531 431.6875 Z M 655.273438 429.539062 C 658.566406 432.273438 662.632812 434.238281 666.710938 436.191406 C 666.613281 435.5 666.296875 435.03125 666.277344 434.257812 C 662.308594 432.484375 659.148438 429.902344 655.054688 428.25 C 655.050781 428.757812 655.425781 428.882812 655.273438 429.539062 Z M 750.238281 424.816406 C 750.820312 424.695312 751.59375 425.453125 751.96875 424.816406 C 751.796875 424.769531 751.71875 424.640625 751.753906 424.386719 C 751.367188 424.648438 750.496094 424.425781 750.238281 424.816406 Z M 802.472656 424.386719 C 801.625 426.191406 799.855469 428.21875 800.097656 430.398438 C 803.308594 428.871094 808.847656 429.652344 810.460938 426.535156 C 807.679688 426.917969 805.199219 427.597656 802.472656 428.039062 C 802.28125 427.652344 801.871094 427.492188 802.042969 426.75 C 803.773438 425.546875 807.171875 425.265625 809.164062 424.816406 C 809.886719 424.65625 811.230469 424.933594 811.324219 423.957031 C 808.703125 423.574219 805.273438 424.238281 802.472656 424.386719 Z M 747.867188 423.746094 C 748.015625 423.746094 748.152344 423.746094 748.300781 423.746094 C 748.300781 423.601562 748.300781 423.457031 748.300781 423.316406 C 748.152344 423.316406 748.015625 423.316406 747.867188 423.316406 C 747.867188 423.457031 747.867188 423.601562 747.867188 423.746094 Z M 749.589844 421.382812 C 750.902344 421.347656 751.335938 421.445312 751.539062 421.382812 C 751.105469 421.511719 746.792969 420.839844 745.707031 421.167969 C 745.578125 421.179688 745.453125 421.199219 745.492188 421.382812 C 746.292969 422.183594 748.300781 421.421875 749.589844 421.382812 Z M 803.773438 421.167969 C 803.828125 421.796875 803.28125 421.828125 803.339844 422.457031 C 806.34375 422.226562 809.582031 422.222656 812.1875 421.597656 C 812.1875 421.097656 812.1875 420.597656 812.1875 420.09375 C 808.996094 419.988281 805.832031 420.847656 803.773438 421.167969 Z M 745.0625 419.238281 C 747.722656 419.09375 750.960938 419.519531 753.261719 419.019531 C 751.082031 418.328125 746.90625 418.476562 744.414062 418.808594 C 744.753906 418.828125 744.582031 419.355469 745.0625 419.238281 Z M 654.40625 425.890625 C 657.699219 427.386719 661.46875 429.347656 664.335938 431.042969 C 664.605469 431.199219 665.085938 432.246094 665.414062 431.472656 C 665.378906 430.289062 664.949219 429.503906 664.769531 428.464844 C 661.847656 426.574219 658.304688 425.023438 655.703125 423.101562 C 654.816406 422.445312 653.382812 421.6875 653.542969 420.3125 C 655.691406 419.746094 656.992188 421.984375 658.507812 422.886719 C 660.261719 423.929688 662.125 424.703125 663.90625 425.675781 C 663.890625 424.617188 663.269531 424.160156 663.253906 423.101562 C 659.886719 421.089844 656.234375 419.351562 652.679688 417.519531 C 652.984375 420.578125 653.753906 423.175781 654.40625 425.890625 Z M 747.222656 415.375 C 746.003906 415.375 744.195312 415.558594 743.769531 416.230469 C 745.277344 417.023438 749.039062 416.710938 750.890625 416.449219 C 750.234375 415.625 748.765625 415.371094 747.222656 415.375 Z M 805.710938 414.730469 C 805.320312 416.0625 804.445312 418.039062 804.632812 419.238281 C 805.6875 418.847656 807.390625 418.507812 809.164062 418.378906 C 810.785156 418.261719 813.304688 419.09375 813.269531 417.089844 C 810.652344 416.28125 806.648438 418.988281 806.140625 416.230469 C 806.980469 415.359375 809.28125 415.347656 811.109375 415.160156 C 812.289062 415.039062 814.125 415.660156 814.132812 414.085938 C 811.078125 414.058594 808.394531 414.390625 805.710938 414.730469 Z M 653.761719 416.015625 C 656.214844 417.554688 659.296875 418.671875 661.316406 419.664062 C 658.421875 417.535156 655.140625 415.789062 652.035156 413.871094 C 651.707031 415.167969 652.996094 415.539062 653.761719 416.015625 Z M 745.921875 412.582031 C 744.839844 412.601562 742.761719 412.632812 742.902344 413.65625 C 744.019531 414.324219 747.160156 413.519531 748.945312 413.441406 C 748.679688 412.4375 747.265625 412.558594 745.921875 412.582031 Z M 806.355469 412.796875 C 808.796875 412.359375 811.539062 412.230469 814.347656 412.15625 C 814.476562 411.640625 814.660156 411.175781 814.5625 410.4375 C 811.699219 411.097656 807.121094 410.050781 806.355469 412.796875 Z M 651.601562 411.082031 C 654.21875 413.078125 657.949219 415.457031 660.667969 417.089844 C 660.753906 417.144531 661.660156 417.953125 661.746094 417.304688 C 661.675781 416.800781 661.40625 416.5 661.53125 415.800781 C 658.683594 413.628906 655.285156 411.996094 652.035156 410.222656 C 651.777344 410.253906 651.421875 410.1875 651.386719 410.4375 C 651.636719 410.472656 651.617188 410.777344 651.601562 411.082031 Z M 744.84375 410.222656 C 743.746094 410.289062 742.425781 410.160156 742.253906 410.652344 C 742.414062 411.601562 743.738281 410.90625 744.628906 410.867188 C 745.597656 410.820312 747.160156 411.242188 747.4375 410.4375 C 747.050781 409.523438 745.753906 410.164062 744.84375 410.222656 Z M 742.039062 408.933594 C 742.761719 407.9375 745.308594 408.75 746.136719 407.859375 C 744.78125 407.496094 743.234375 407.3125 741.390625 407.433594 C 741.558594 407.980469 741.605469 408.648438 742.039062 408.933594 Z M 654.839844 409.578125 C 656.292969 410.304688 657.566406 411.300781 658.726562 411.511719 C 656.175781 410.039062 653.859375 408.335938 651.171875 407.003906 C 651.335938 408.671875 653.566406 408.941406 654.839844 409.578125 Z M 807.441406 409.363281 C 809.859375 408.90625 812.636719 408.808594 815.210938 408.503906 C 815.210938 407.933594 815.210938 407.359375 815.210938 406.789062 C 812.933594 406.957031 811.273438 407.738281 808.949219 407.859375 C 808.03125 407.558594 809.257812 406.089844 808.085938 406.359375 C 808.101562 407.589844 807.46875 408.179688 807.441406 409.363281 Z M 740.746094 405.5 C 742.496094 405.550781 744.550781 405.292969 745.707031 405.929688 C 745.714844 405.421875 745.335938 405.296875 745.492188 404.640625 C 744.183594 404.152344 741.792969 403.601562 740.308594 404 C 740.632812 404.324219 740.660156 404.941406 740.746094 405.5 Z M 808.734375 404.210938 C 809.4375 404.039062 810.332031 404.101562 811.109375 404 C 812.753906 403.773438 814.703125 403.703125 815.425781 402.710938 C 813.074219 403.09375 810.066406 402.816406 808.734375 404.210938 Z M 650.738281 404.855469 C 652.300781 405.398438 654.210938 406.359375 655.917969 407.433594 C 657.664062 408.527344 659.167969 410.15625 660.882812 410.4375 C 659.679688 409.628906 658.09375 408.425781 655.917969 407.003906 C 654.082031 405.804688 649.414062 404.210938 651.601562 402.496094 C 653.171875 403.238281 654.851562 404.128906 656.347656 405.074219 C 657.859375 406.015625 659.085938 407.433594 660.667969 407.648438 C 658.039062 404.75 654.273438 402.984375 650.738281 400.992188 C 650.738281 402.28125 650.738281 403.566406 650.738281 404.855469 Z M 740.097656 401.640625 C 741.453125 402.144531 743.328125 402.144531 744.84375 402.496094 C 744.496094 400.335938 741.757812 400.554688 739.664062 400.132812 C 739.644531 400.800781 739.929688 401.160156 740.097656 401.640625 Z M 808.949219 400.5625 C 809.109375 399.71875 810.375 399.976562 810.679688 399.277344 C 809.816406 399.34375 809.589844 398.777344 808.734375 398.847656 C 808.863281 399.359375 808.464844 400.40625 808.949219 400.5625 Z M 739.234375 398.203125 C 740.949219 398.144531 742.816406 399.070312 743.984375 398.847656 C 742.949219 397.585938 740.582031 397.652344 739.015625 396.917969 C 738.863281 397.574219 739.238281 397.695312 739.234375 398.203125 Z M 660.019531 401.207031 C 660.007812 399.714844 658.125 399.039062 656.996094 398.417969 C 655.722656 397.714844 654.183594 396.914062 653.113281 396.703125 C 655.53125 398.089844 657.667969 399.757812 660.019531 401.207031 Z M 650.953125 398.417969 C 651.804688 399.703125 653.046875 400.238281 654.40625 400.992188 C 655.796875 401.761719 657.230469 402.566406 658.507812 403.355469 C 659.15625 403.753906 660.03125 404.949219 660.234375 404.210938 C 659.929688 403.347656 658.996094 402.785156 658.292969 402.28125 C 657.566406 401.761719 656.671875 401.304688 655.917969 400.777344 C 654.433594 399.742188 652.488281 398.972656 651.601562 397.34375 C 651.472656 396.429688 652.511719 396.675781 652.894531 396.273438 C 652.289062 396.089844 652.011719 395.578125 651.171875 395.628906 C 651.335938 396.792969 650.902344 397.367188 650.953125 398.417969 Z M 738.585938 394.765625 C 740.175781 395.191406 741.496094 395.875 743.117188 396.273438 C 743.0625 395.183594 742.75 394.347656 742.46875 393.480469 C 741.125 393.03125 739.726562 392.628906 738.15625 392.40625 C 738.164062 393.324219 738.445312 393.980469 738.585938 394.765625 Z M 651.386719 393.695312 C 654.605469 394.785156 657.039062 396.660156 660.019531 397.988281 C 659.867188 397.191406 660.390625 397.066406 660.234375 396.273438 C 657.726562 395.476562 655.953125 393.949219 653.542969 393.050781 C 653.234375 392.214844 652.75 391.554688 651.601562 391.546875 C 651.671875 392.40625 651.21875 392.742188 651.386719 393.695312 Z M 737.722656 390.476562 C 738.648438 390.492188 739.304688 390.761719 740.097656 390.90625 C 740.835938 390.667969 741.839844 391.980469 742.039062 390.90625 C 741.207031 389.875 739.214844 389.992188 738.15625 389.1875 C 737.941406 389.1875 737.722656 389.1875 737.507812 389.1875 C 737.503906 389.695312 737.878906 389.820312 737.722656 390.476562 Z M 652.035156 389.617188 C 654.074219 390.539062 656.625 391.808594 658.507812 392.835938 C 658.992188 393.101562 659.738281 394.273438 660.234375 393.480469 C 660.453125 392.421875 659.089844 392.398438 658.507812 391.980469 C 656.648438 390.652344 654.316406 389.015625 652.25 388.113281 C 651.949219 388.390625 652.035156 389.046875 652.035156 389.617188 Z M 737.078125 386.613281 C 737.328125 386.648438 737.308594 386.949219 737.292969 387.257812 C 738.980469 387.433594 740.183594 388.101562 741.605469 388.546875 C 741.703125 387.808594 741.523438 387.34375 741.390625 386.828125 C 740.027344 386.859375 738.019531 385.605469 737.078125 386.613281 Z M 652.464844 386.183594 C 655.53125 387.355469 657.59375 389.527344 660.667969 390.691406 C 660.667969 389.902344 660.667969 389.113281 660.667969 388.332031 C 659.308594 387.667969 657.878906 386.992188 656.566406 386.183594 C 655.371094 385.449219 653.683594 384.765625 653.113281 383.394531 C 654.441406 381.933594 655.921875 383.617188 656.996094 384.25 C 658.382812 385.066406 659.796875 385.910156 661.101562 386.398438 C 660.605469 384.835938 658.859375 384.167969 657.644531 383.394531 C 656.292969 382.53125 654.90625 381.511719 653.328125 381.03125 C 653.316406 380.902344 653.296875 380.777344 653.113281 380.816406 C 653.023438 382.730469 652.621094 384.335938 652.464844 386.183594 Z M 736.855469 384.464844 C 738.671875 384.3125 739.871094 384.765625 741.390625 384.894531 C 740.554688 383.078125 736.761719 384.207031 736.855469 381.460938 C 738.40625 380.765625 739.632812 382.097656 740.960938 382.320312 C 741.253906 379.457031 737.351562 380.753906 735.996094 379.527344 C 736.203125 381.253906 736.5 382.894531 736.855469 384.464844 Z M 653.542969 379.101562 C 656.664062 380.148438 658.84375 382.128906 661.53125 383.605469 C 662.082031 381.644531 659.5625 380.96875 658.292969 380.171875 C 656.796875 379.234375 655.378906 378.035156 653.972656 377.382812 C 653.964844 377.25 653.945312 377.128906 653.761719 377.167969 C 653.398438 377.527344 653.585938 378.429688 653.542969 379.101562 Z M 735.996094 378.242188 C 737.351562 377.542969 739.539062 379.007812 740.53125 378.671875 C 738.96875 378.078125 737.5625 377.324219 735.78125 376.957031 C 735.90625 377.332031 735.519531 378.214844 735.996094 378.242188 Z M 738.15625 375.882812 C 738.160156 375.90625 740.414062 376.699219 740.097656 376.09375 C 739.535156 375.816406 738.058594 375.449219 738.15625 375.882812 Z M 735.78125 375.667969 C 735.800781 375.328125 736.332031 375.5 736.210938 375.023438 C 735.835938 375.039062 735.539062 374.972656 735.347656 374.808594 C 735.378906 375.207031 735.488281 375.523438 735.78125 375.667969 Z M 653.972656 375.238281 C 656.945312 376.71875 659.1875 378.925781 662.179688 380.390625 C 662.417969 379.769531 662.566406 379.054688 662.609375 378.242188 C 662.179688 378.242188 661.746094 378.242188 661.316406 378.242188 C 659.101562 376.578125 656.867188 374.9375 654.40625 373.523438 C 654.355469 374.179688 654.1875 374.730469 653.972656 375.238281 Z M 735.347656 373.730469 C 736.394531 372.625 738.21875 374.066406 739.664062 373.949219 C 739.664062 373.523438 739.664062 373.089844 739.664062 372.664062 C 738.300781 371.867188 736.019531 371.996094 734.917969 370.945312 C 735.042969 371.894531 735.007812 373 735.347656 373.730469 Z M 655.054688 371.589844 C 657.652344 373.371094 660.222656 375.175781 662.824219 376.957031 C 663.003906 376.417969 663.109375 375.804688 663.039062 375.023438 C 662.609375 375.023438 662.179688 375.023438 661.746094 375.023438 C 659.753906 373.355469 657.316406 372.128906 655.488281 370.300781 C 655.1875 370.574219 655.355469 371.3125 655.054688 371.589844 Z M 735.132812 370.300781 C 736.203125 369.164062 738.207031 370.433594 739.449219 370.515625 C 739.382812 370.011719 739.105469 369.707031 739.234375 369.011719 C 737.777344 368.386719 736.429688 367.648438 734.917969 367.082031 C 735.058594 368.085938 734.636719 369.652344 735.132812 370.300781 Z M 656.132812 368.800781 C 658.691406 370.480469 661.230469 372.171875 663.472656 374.164062 C 663.605469 373.652344 663.78125 373.183594 663.6875 372.449219 C 661.019531 370.953125 658.90625 368.902344 656.566406 367.082031 C 656.355469 367.585938 656.1875 368.136719 656.132812 368.800781 Z M 663.6875 368.585938 C 661.90625 367.003906 659.648438 365.910156 658.078125 364.507812 C 657.757812 364.257812 657.53125 364.257812 657.214844 364.507812 C 657.214844 364.71875 657.214844 364.933594 657.214844 365.148438 C 658.394531 365.976562 659.445312 367.167969 660.667969 368.152344 C 661.832031 369.09375 663.199219 370.460938 664.769531 370.300781 C 665.070312 369.5625 664.152344 368.992188 663.6875 368.585938 Z M 734.917969 365.148438 C 736.585938 365.492188 737.640625 366.453125 739.234375 366.867188 C 738.851562 364.816406 736.265625 364.953125 734.917969 363.859375 C 734.917969 364.289062 734.917969 364.71875 734.917969 365.148438 Z M 734.917969 361.929688 C 736.480469 362.445312 737.734375 363.28125 739.234375 363.859375 C 738.890625 361.980469 736.703125 361.945312 735.5625 360.855469 C 735.347656 360.855469 735.132812 360.855469 734.917969 360.855469 C 734.917969 361.214844 734.917969 361.574219 734.917969 361.929688 Z M 657.863281 362.144531 C 660.648438 363.960938 663.023438 366.160156 665.847656 367.726562 C 665.847656 366.867188 666.277344 366.4375 666.277344 365.578125 C 663.320312 364.226562 660.984375 362.257812 658.292969 360.644531 C 658.136719 361.128906 658.101562 361.738281 657.863281 362.144531 Z M 734.917969 358.925781 C 735.753906 358.996094 736.535156 359.441406 737.292969 359.78125 C 738.027344 360.113281 738.941406 361.105469 739.234375 360.429688 C 737.875 359.417969 736.515625 358.410156 734.917969 357.636719 C 734.917969 358.066406 734.917969 358.496094 734.917969 358.925781 Z M 666.0625 361.929688 C 664.207031 360.25 661.984375 358.902344 660.234375 357.421875 C 660.019531 357.421875 659.800781 357.421875 659.585938 357.421875 C 659.640625 358.050781 659.101562 358.082031 659.15625 358.710938 C 660.125 359.84375 661.695312 360.648438 663.039062 361.5 C 664.378906 362.347656 665.644531 363.703125 667.140625 363.648438 C 667.726562 362.730469 666.535156 362.355469 666.0625 361.929688 Z M 660.882812 355.921875 C 663.652344 357.386719 665.753906 359.519531 668.222656 361.285156 C 668.429688 360.847656 668.664062 360.4375 668.867188 359.996094 C 666.316406 358.316406 664.417969 355.980469 661.316406 354.847656 C 661.476562 355.507812 660.722656 355.261719 660.882812 355.921875 Z M 662.824219 353.34375 C 665.464844 354.800781 667.546875 356.804688 669.945312 358.496094 C 670.289062 357.828125 670.828125 357.371094 671.246094 356.777344 C 670.199219 356.132812 668.800781 355.125 667.574219 354.203125 C 666.511719 353.402344 664.144531 352.453125 665.414062 350.769531 C 668.464844 351.675781 669.714844 354.363281 672.753906 355.277344 C 672.875 354.964844 673.09375 354.75 673.398438 354.632812 C 671.570312 352.375 668.679688 351.171875 666.277344 349.480469 C 665.289062 350.929688 663.636719 351.71875 662.824219 353.34375 Z M 668.007812 348.40625 C 669.074219 349.195312 670.554688 349.832031 671.890625 350.769531 C 672.953125 351.511719 674.363281 353.699219 675.558594 352.273438 C 673 350.886719 671.21875 348.71875 668.4375 347.550781 C 668.433594 347.976562 667.847656 347.820312 668.007812 348.40625 Z M 679.445312 349.265625 C 678.753906 348.089844 676.488281 347.347656 675.558594 347.121094 C 677 347.695312 677.726562 348.972656 679.445312 349.265625 Z M 673.398438 348.621094 C 674.5625 349.492188 675.832031 350.484375 677.285156 350.984375 C 677.636719 350.203125 676.425781 350.015625 675.992188 349.695312 C 674.222656 348.382812 672.046875 347.199219 670.597656 345.832031 C 670.378906 345.832031 670.164062 345.832031 669.945312 345.832031 C 670.945312 346.914062 672.226562 347.746094 673.398438 348.621094 Z M 685.488281 343.902344 C 684.9375 344.066406 684.496094 343.058594 684.195312 343.683594 C 684.425781 343.839844 685.1875 344.523438 685.488281 343.902344 Z M 672.96875 344.117188 C 673.265625 344.125 673.445312 344.011719 673.617188 343.902344 C 675.277344 344.609375 676.792969 345.464844 678.367188 346.261719 C 677.71875 345.542969 675.488281 344.546875 674.265625 343.683594 C 673.964844 343.554688 674.230469 342.859375 673.832031 342.828125 C 673.464844 343.664062 671.554688 343.914062 672.105469 344.972656 C 672.886719 345.179688 672.289062 344.007812 672.96875 344.117188 Z M 675.128906 342.183594 C 675.425781 342.175781 675.601562 342.285156 675.777344 342.398438 C 675.777344 342.183594 675.777344 341.96875 675.777344 341.753906 C 675.632812 341.753906 675.488281 341.753906 675.34375 341.753906 C 675.34375 341.96875 675.167969 342.011719 675.128906 342.183594 Z M 677.71875 340.683594 C 678.238281 340.8125 678.703125 340.988281 679.445312 340.898438 C 679.648438 339.46875 677.894531 339.738281 677.71875 340.683594 Z M 689.589844 341.539062 C 688.542969 341.203125 686.535156 339.113281 686.351562 339.394531 C 687.4375 339.960938 688.234375 341.953125 689.589844 341.539062 Z M 698.871094 337.675781 C 697.8125 337.363281 696.535156 336.140625 695.632812 336.386719 C 696.667969 336.722656 697.625 338.265625 698.871094 337.675781 Z M 688.296875 337.03125 C 688.785156 337.070312 689.554688 336.304688 689.15625 336.175781 C 689.070312 336.660156 687.894531 336.058594 688.296875 337.03125 Z M 690.667969 336.601562 C 690.886719 335.886719 690.371094 335.902344 689.804688 335.960938 C 689.738281 336.527344 690.253906 336.511719 690.667969 336.601562 Z M 722.398438 359.570312 C 722.175781 359.710938 721.488281 359.820312 721.105469 359.996094 C 718.851562 361.054688 718.777344 359.554688 717.867188 358.28125 C 717.265625 357.449219 716.644531 356.757812 715.707031 356.351562 C 713.6875 355.476562 709.570312 355.007812 707.289062 354.847656 C 701.058594 354.402344 697.628906 355.542969 693.476562 357.421875 C 692.359375 357.925781 691.28125 358.769531 690.238281 359.355469 C 688.957031 360.070312 687.589844 360.476562 686.78125 361.070312 C 685.25 362.207031 683.71875 364.289062 682.25 366.222656 C 680.894531 368.007812 679.089844 369.785156 677.9375 371.589844 C 674.796875 376.472656 672.414062 383.699219 671.460938 390.90625 C 670.398438 398.910156 669.730469 407.816406 670.378906 415.800781 C 670.644531 419.054688 671.648438 423.015625 672.753906 426.75 C 673.769531 430.191406 675 433.9375 676.421875 436.621094 C 677.875 439.363281 679.9375 441.414062 682.035156 443.703125 C 683.578125 445.386719 685.515625 447.226562 687 448.210938 C 690.917969 450.808594 698.113281 451.996094 704.054688 452.289062 C 707.246094 452.449219 708.929688 451.910156 711.605469 451.21875 C 716.984375 449.828125 719.363281 448.917969 722.398438 445.207031 C 724.582031 442.535156 726.871094 438.132812 727.363281 434.476562 C 727.8125 431.152344 726.300781 426.484375 729.949219 426.75 C 731.609375 426.867188 731.914062 428.871094 732.757812 430.398438 C 735.046875 434.539062 736.339844 435.621094 740.308594 438.125 C 742.25 439.347656 744.308594 440.40625 745.707031 440.699219 C 756.554688 442.984375 761.464844 436.238281 767.078125 431.253906 C 773.875 425.222656 777.21875 417.355469 778.730469 406.789062 C 779.269531 403.03125 780.195312 399.273438 780.460938 395.84375 C 780.738281 392.179688 780.460938 388.058594 780.460938 384.039062 C 780.457031 379.960938 780.835938 375.640625 780.460938 372.019531 C 780.28125 370.289062 779.644531 368.269531 779.164062 366.4375 C 777.65625 360.683594 774.992188 356.261719 772.472656 351.839844 C 770.804688 348.90625 768.632812 346.609375 766.210938 344.117188 C 763.78125 341.609375 761.597656 338.679688 759.304688 336.816406 C 757.761719 335.5625 755.617188 334.335938 753.695312 333.167969 C 751.753906 331.988281 749.8125 330.621094 747.867188 329.523438 C 743.757812 327.195312 739.183594 325.554688 734.484375 323.941406 C 729.9375 322.378906 724.761719 320.941406 719.160156 320.503906 C 716.246094 320.277344 713.230469 320.363281 710.09375 320.078125 C 707.070312 319.800781 703.757812 319.601562 700.816406 319.863281 C 689.914062 320.820312 681.375 323.628906 673.832031 327.804688 C 672.601562 328.484375 671.398438 329.285156 670.164062 329.949219 C 668.871094 330.640625 667.273438 330.96875 666.0625 331.664062 C 664.738281 332.429688 663.402344 333.96875 661.960938 335.101562 C 660.484375 336.261719 658.84375 337.152344 657.644531 338.320312 C 656.398438 339.535156 655.300781 341.007812 653.972656 342.183594 C 652.507812 343.480469 650.890625 344.484375 649.875 345.832031 C 647.613281 348.84375 645.132812 353.75 643.617188 357.210938 C 643.234375 358.078125 643.085938 359.050781 642.753906 359.996094 C 640.296875 366.945312 638.457031 374.84375 636.492188 382.535156 C 635.273438 387.308594 634.933594 392.953125 634.550781 398.417969 C 634.324219 401.667969 633.867188 404.914062 633.902344 408.292969 C 634 417.355469 637.226562 425.648438 639.300781 433.832031 C 641.355469 441.945312 644.039062 450.140625 648.367188 455.9375 C 651.886719 460.667969 655.085938 464.648438 659.371094 468.171875 C 662.320312 470.597656 665.304688 472.398438 668.4375 474.613281 C 670.003906 475.71875 671.480469 476.804688 673.183594 477.617188 C 674.933594 478.445312 676.917969 478.925781 678.796875 479.761719 C 681.488281 480.960938 683.492188 482.367188 686.351562 483.199219 C 688.933594 483.949219 691.109375 484.746094 693.476562 485.773438 C 694.867188 486.378906 696.535156 487.25 698.007812 487.492188 C 699.042969 487.660156 700.1875 487.347656 701.246094 487.492188 C 702.183594 487.617188 702.925781 488.054688 703.835938 488.132812 C 705.757812 488.304688 707.773438 487.925781 709.878906 488.132812 C 713.730469 488.511719 716.089844 489.566406 720.023438 489.851562 C 724.402344 490.167969 728.898438 489.835938 732.757812 489.207031 C 736.792969 488.550781 740.691406 487.78125 743.984375 486.632812 C 747.230469 485.496094 750.164062 483.699219 753.046875 481.910156 C 758.789062 478.351562 764.703125 475.042969 769.234375 470.535156 C 773.824219 465.96875 778.714844 461.6875 782.402344 456.15625 C 783.316406 454.773438 784.394531 453.53125 785.421875 452.289062 C 787.523438 449.753906 788.535156 447.941406 789.742188 444.777344 C 791.121094 441.160156 792.6875 437.828125 794.273438 434.476562 C 795.332031 432.238281 796.089844 429.738281 797.082031 427.394531 C 798.082031 425.015625 799.722656 423.003906 800.53125 420.738281 C 801.167969 418.96875 801.53125 417.113281 802.042969 415.375 C 803.660156 409.847656 806.0625 405.160156 805.28125 398.203125 C 804.121094 397.304688 802.574219 396.929688 801.179688 396.273438 C 799.652344 395.550781 798.382812 394.898438 796.652344 395.84375 C 795.347656 396.550781 795.308594 398 794.488281 400.132812 C 793.082031 403.804688 792.5 406.484375 791.46875 410.007812 C 790.445312 413.5 789.253906 416.628906 788.015625 419.664062 C 786.703125 422.886719 785.277344 425.46875 783.699219 428.25 C 782.871094 429.703125 782.0625 431.140625 781.324219 432.542969 C 780.507812 434.078125 780.113281 435.667969 779.378906 437.050781 C 778.675781 438.382812 777.570312 439.429688 776.570312 440.699219 C 775.597656 441.941406 774.886719 443.242188 773.984375 444.566406 C 773.109375 445.839844 771.980469 446.980469 770.964844 448.210938 C 768.101562 451.679688 764.53125 455.011719 761.464844 458.085938 C 760.328125 459.222656 759.351562 460.566406 758.226562 461.519531 C 756.023438 463.390625 753.148438 464.632812 750.460938 466.242188 C 747.851562 467.796875 745.101562 469.179688 742.46875 470.746094 C 738.40625 473.175781 733.957031 474.699219 728.65625 475.683594 C 726.910156 476.011719 725.144531 476.625 723.476562 476.757812 C 717.535156 477.246094 712.0625 476.511719 707.507812 475.683594 C 705.851562 475.386719 704.160156 475.351562 702.324219 475.042969 C 700.019531 474.652344 697.628906 473.839844 695.203125 473.324219 C 692.722656 472.800781 690.410156 472.324219 688.296875 471.394531 C 686.289062 470.511719 684.265625 469.4375 682.25 468.601562 C 680.066406 467.695312 677.808594 467.359375 675.777344 466.242188 C 671.664062 463.980469 669.007812 460.101562 665.632812 456.367188 C 663.085938 453.550781 660.488281 450.617188 658.941406 447.785156 C 657.410156 444.980469 656.257812 441.367188 654.839844 437.910156 C 653.441406 434.515625 652.222656 430.984375 651.386719 427.394531 C 649.566406 419.613281 647.695312 411.195312 647.5 403.140625 C 647.300781 394.9375 649.023438 386.269531 650.308594 378.027344 C 650.894531 374.253906 651.878906 370.460938 653.113281 366.867188 C 654.441406 362.996094 655.101562 359.183594 656.566406 356.132812 C 657.6875 353.800781 660.039062 351.007812 662.179688 348.839844 C 665.570312 345.390625 668.917969 342.390625 672.753906 339.609375 C 678.296875 335.582031 686.246094 332.949219 694.554688 331.882812 C 696.660156 331.609375 698.832031 331.171875 700.816406 331.023438 C 706.679688 330.578125 712.621094 331.390625 718.296875 332.09375 C 723.652344 332.761719 728.808594 334.058594 733.402344 335.53125 C 737.929688 336.976562 742.496094 338.472656 746.785156 340.683594 C 749.988281 342.324219 753.195312 343.554688 755.855469 345.40625 C 758.878906 347.511719 759.960938 349.074219 762.328125 352.273438 C 763.554688 353.929688 764.761719 355.90625 765.566406 357.636719 C 767.339844 361.464844 769.09375 366.152344 770.101562 370.515625 C 771.847656 378.082031 772.296875 389.730469 771.609375 398.203125 C 771.113281 404.277344 769.277344 411.191406 766.429688 416.230469 C 764.109375 420.347656 759.679688 426.914062 754.773438 428.039062 C 750.125 429.101562 744.949219 426.574219 742.902344 423.527344 C 740.960938 420.640625 740.042969 415.765625 739.015625 411.511719 C 737.945312 407.046875 736.886719 402.714844 735.996094 398.417969 C 734.109375 389.3125 732.027344 378.417969 731.464844 370.730469 C 731.085938 365.589844 731.742188 360.414062 731.464844 355.277344 C 729.84375 354.816406 728.410156 354.160156 726.710938 353.773438 C 724.710938 355.351562 724.492188 358.238281 722.398438 359.570312 Z M 737.292969 440.054688 C 733.800781 445.050781 730.675781 449.492188 725.203125 451.859375 C 723.761719 452.488281 721.117188 453.105469 718.945312 453.578125 C 717.0625 453.988281 715.15625 453.953125 713.113281 454.222656 C 711.351562 454.453125 709.617188 455.335938 707.9375 455.511719 C 704.554688 455.859375 700.519531 455.449219 696.929688 454.867188 C 688.316406 453.464844 683.835938 450.53125 679.011719 445.207031 C 676.886719 442.859375 674.789062 440.53125 673.398438 437.910156 C 672.660156 436.507812 672.148438 434.6875 671.460938 432.972656 C 669.714844 428.628906 667.667969 422.410156 667.140625 416.878906 C 666.5625 410.761719 666.917969 404.003906 667.359375 397.988281 C 668.191406 386.535156 670.664062 376.558594 675.992188 368.800781 C 677.191406 367.050781 678.691406 365.183594 680.089844 363.433594 C 681.550781 361.609375 683.46875 359.230469 685.058594 358.28125 C 686.917969 357.167969 689.605469 355.582031 692.179688 354.417969 C 697.152344 352.167969 700.53125 351.132812 707.9375 351.625 C 709.292969 351.714844 710.800781 352.058594 712.253906 352.273438 C 716.238281 352.859375 719.035156 353.644531 720.890625 356.5625 C 722.652344 354.109375 723.1875 351.058594 726.066406 350.554688 C 727.371094 350.328125 728.152344 350.894531 729.734375 351.414062 C 730.996094 351.820312 732.515625 351.816406 733.402344 352.273438 C 734.085938 352.617188 734.648438 353.542969 735.5625 354.203125 C 736.679688 355.011719 737.980469 355.449219 739.234375 356.351562 C 740.003906 356.902344 742.054688 357.9375 742.46875 358.925781 C 743.226562 360.710938 742.609375 365.058594 742.6875 368.152344 C 742.765625 371.449219 743.214844 374.300781 743.546875 376.523438 C 744.433594 382.300781 744.550781 387.820312 745.707031 392.835938 C 747.28125 399.652344 749.222656 407.980469 752.832031 413.65625 C 754.113281 415.671875 755.921875 417.65625 758.011719 417.734375 C 760.472656 417.828125 760.511719 416.253906 762.113281 415.375 C 762.519531 415.148438 762.964844 415.390625 763.40625 414.730469 C 768.414062 406.105469 769.761719 390.035156 767.726562 376.523438 C 766.777344 370.242188 765.089844 364.699219 762.757812 359.570312 C 761.058594 355.824219 758.421875 353.058594 756.714844 349.910156 C 753.578125 347.453125 749.542969 345.882812 746.355469 343.472656 C 743.144531 343.070312 740.375 342.058594 737.722656 341.324219 C 736.25 340.917969 734.867188 340.492188 733.402344 340.039062 C 728.851562 338.628906 722.984375 337.945312 716.566406 338.320312 C 712.441406 338.5625 707.738281 338.625 704.265625 339.394531 C 701.617188 339.980469 698.363281 341.414062 695.417969 342.613281 C 688.765625 345.316406 683.84375 349.296875 678.796875 353.773438 C 674.890625 357.242188 671.691406 360.609375 669.945312 365.148438 C 669.308594 366.8125 668.898438 368.765625 668.222656 370.515625 C 667.503906 372.367188 666.613281 374.179688 666.277344 375.667969 C 665.941406 377.167969 665.957031 378.851562 665.632812 380.390625 C 664.769531 384.433594 663.878906 389.207031 663.6875 393.910156 C 663.550781 397.324219 663.171875 400.488281 663.472656 403.785156 C 663.753906 406.851562 664.226562 409.828125 664.550781 413.011719 C 665.136719 418.726562 667.054688 424.398438 668.4375 429.96875 C 670.8125 439.539062 673.886719 446.277344 679.875 452.074219 C 682.015625 454.148438 683.96875 456.390625 685.921875 457.871094 C 688.085938 459.515625 690.761719 460.765625 693.257812 462.164062 C 700.449219 466.183594 708.570312 470.105469 719.804688 470.105469 C 723.921875 470.105469 727.675781 470.5625 731.25 470.320312 C 734.382812 470.109375 737.433594 468.816406 740.097656 467.746094 C 745.335938 465.632812 750.382812 463.03125 754.992188 459.804688 C 757.222656 458.242188 759.558594 455.597656 761.894531 453.148438 C 764.070312 450.871094 766.628906 448.542969 768.589844 446.28125 C 770.722656 443.816406 772.1875 440.832031 774.199219 438.339844 C 775.3125 436.953125 776.285156 435.78125 777.007812 434.257812 C 779.152344 429.730469 781.550781 425.609375 783.914062 420.953125 C 785.398438 418.023438 786.300781 414.601562 787.582031 411.082031 C 788.132812 409.558594 788.847656 407.8125 789.308594 405.929688 C 790.371094 401.609375 791.996094 393.425781 795.566406 391.980469 C 796.765625 391.492188 798.921875 391.621094 800.75 391.121094 C 802.480469 390.644531 804.171875 390.015625 805.496094 390.042969 C 808.59375 390.121094 813.921875 392.855469 815.425781 394.980469 C 816.253906 396.148438 816.3125 397.800781 816.9375 399.277344 C 820.066406 401.464844 818.480469 407.90625 817.800781 411.9375 C 816.671875 418.589844 814.882812 424.921875 812.1875 430.828125 C 808.890625 438.058594 805.8125 445.699219 800.964844 451.648438 C 800.1875 452.597656 799.210938 453.484375 798.375 454.4375 C 797.554688 455.371094 797.011719 456.472656 796.214844 457.441406 C 795.460938 458.359375 794.234375 459.082031 793.414062 460.015625 C 792.53125 461.011719 791.863281 462.085938 791.035156 463.023438 C 789.238281 465.046875 787.609375 466.996094 785.855469 468.386719 C 783.839844 469.988281 781.632812 471.332031 779.59375 472.894531 C 778.566406 473.6875 777.59375 474.582031 776.570312 475.253906 C 771.300781 478.746094 764.882812 481.125 758.660156 483.839844 C 753.816406 485.953125 749.089844 488.660156 743.769531 490.28125 C 738.097656 492.003906 732.089844 492.359375 725.851562 493.5 C 722.523438 492.636719 719.304688 493.285156 716.136719 492.855469 C 713.613281 492.515625 711.285156 491.566406 709.015625 491.355469 C 704.75 490.953125 700.222656 491.457031 695.847656 490.28125 C 693.550781 489.660156 691.394531 488.191406 688.941406 487.277344 C 687.058594 486.570312 684.941406 486.457031 683.113281 485.773438 C 681.347656 485.113281 679.710938 483.832031 677.9375 482.984375 C 676.082031 482.101562 674.042969 481.621094 672.324219 480.835938 C 667.910156 478.820312 663.734375 475.550781 659.800781 472.679688 C 656.03125 469.925781 652.453125 466.582031 649.441406 462.808594 C 647.355469 460.191406 645.121094 457.617188 643.617188 455.082031 C 640.589844 449.992188 638.070312 442.625 636.277344 435.121094 C 634.542969 427.859375 631.878906 420.503906 630.878906 413.226562 C 629.984375 406.683594 631.015625 399.59375 631.53125 393.695312 C 631.707031 391.648438 631.714844 389.605469 631.960938 387.472656 C 632.433594 383.398438 633.953125 379.394531 634.984375 375.453125 C 637.082031 367.40625 638.675781 359.996094 642.105469 352.917969 C 644.894531 347.148438 647.222656 343.515625 651.601562 339.609375 C 653 338.359375 654.1875 336.9375 655.488281 335.746094 C 656.796875 334.542969 658.558594 333.464844 660.019531 332.308594 C 662.925781 330.015625 664.96875 328.765625 668.4375 326.945312 C 674.824219 323.589844 681.613281 319.914062 689.804688 318.144531 C 695.777344 316.855469 702.761719 316.507812 710.3125 316.855469 C 713.699219 317.011719 717.078125 317.023438 720.238281 317.285156 C 727.75 317.90625 735.4375 320.511719 741.824219 323.082031 C 742.902344 323.515625 744.027344 323.910156 745.0625 324.371094 C 748.863281 326.054688 751.710938 328.25 755.207031 330.378906 C 757.722656 331.910156 760.332031 333.355469 762.113281 334.886719 C 763.910156 336.433594 765.503906 338.824219 767.511719 340.898438 C 769.375 342.824219 771.664062 344.539062 773.117188 346.476562 C 774.347656 348.109375 775.257812 350.140625 776.355469 352.054688 C 778.5 355.789062 780.585938 359.476562 781.96875 364.078125 C 782.316406 365.222656 782.5 366.496094 782.832031 367.726562 C 783.929688 371.800781 783.699219 378.011719 783.699219 383.824219 C 783.699219 388.101562 783.953125 392.449219 783.699219 396.273438 C 783.347656 401.429688 782.234375 406.601562 781.324219 411.292969 C 779.449219 420.960938 775.613281 428.046875 769.234375 433.832031 C 764.746094 437.90625 760.757812 442.8125 754.128906 444.132812 C 751.304688 444.695312 746.621094 444.488281 743.984375 443.703125 C 741.449219 442.953125 740.074219 441.605469 737.292969 440.054688 " fill-opacity="1" fill-rule="evenodd"/></g></svg>