<svg xmlns="http://www.w3.org/2000/svg" xmlns:xlink="http://www.w3.org/1999/xlink" width="500" zoomAndPan="magnify" viewBox="0 0 375 374.999991" height="500" preserveAspectRatio="xMidYMid meet" version="1.0"><defs><clipPath id="4405956ee5"><path d="M 310 60 L 370.5 60 L 370.5 122 L 310 122 Z M 310 60 " clip-rule="nonzero"/></clipPath></defs><path fill="#fe5f55" d="M 340.304688 66.746094 L 347.769531 82.640625 L 364.460938 85.195312 L 352.382812 97.574219 L 355.234375 115.046875 L 340.304688 106.792969 L 325.375 115.046875 L 328.226562 97.574219 L 316.148438 85.195312 L 332.839844 82.640625 Z M 340.304688 66.746094 " fill-opacity="1" fill-rule="nonzero"/><path fill="#fe5f55" d="M 32.300781 90.894531 L 39.765625 106.792969 L 56.457031 109.347656 L 44.378906 121.726562 L 47.230469 139.199219 L 32.300781 130.945312 L 17.371094 139.199219 L 20.222656 121.726562 L 8.144531 109.347656 L 24.835938 106.792969 Z M 32.300781 90.894531 " fill-opacity="1" fill-rule="nonzero"/><path fill="#fe5f55" d="M 249.714844 6.367188 L 257.179688 22.265625 L 273.871094 24.820312 L 261.792969 37.195312 L 264.644531 54.667969 L 249.714844 46.414062 L 234.785156 54.667969 L 237.636719 37.195312 L 225.558594 24.820312 L 242.25 22.265625 Z M 249.714844 6.367188 " fill-opacity="1" fill-rule="nonzero"/><path fill="#ffdc73" d="M 285.949219 193.539062 L 80.613281 193.539062 C 80.613281 230.621094 100.328125 263.050781 129.816406 281.074219 C 136.859375 285.378906 141.007812 293.171875 141.007812 301.425781 L 141.007812 320.332031 L 225.558594 320.332031 L 225.558594 301.425781 C 225.558594 293.171875 229.707031 285.378906 236.75 281.074219 C 266.238281 263.050781 285.949219 230.621094 285.949219 193.539062 Z M 285.949219 193.539062 " fill-opacity="1" fill-rule="nonzero"/><path fill="#fbbccf" d="M 260.402344 165.945312 C 261.1875 163.167969 261.792969 160.332031 261.792969 157.3125 C 261.792969 141.914062 250.199219 129.355469 235.28125 127.484375 C 230.691406 116.617188 219.941406 109.007812 207.4375 109.007812 C 199.226562 109.007812 191.738281 112.328125 186.300781 117.703125 C 180.867188 112.328125 173.378906 109.007812 165.164062 109.007812 C 152.664062 109.007812 141.972656 116.554688 137.382812 127.363281 C 136.597656 127.304688 135.8125 127.121094 134.96875 127.121094 C 118.300781 127.121094 104.773438 140.648438 104.773438 157.3125 C 104.773438 160.332031 105.375 163.167969 106.160156 165.945312 C 98.1875 169.871094 92.691406 178.019531 92.691406 187.5 C 92.691406 189.613281 92.933594 191.605469 93.476562 193.539062 L 273.085938 193.539062 C 273.628906 191.605469 273.871094 189.613281 273.871094 187.5 C 273.871094 178.019531 268.375 169.871094 260.402344 165.945312 Z M 260.402344 165.945312 " fill-opacity="1" fill-rule="nonzero"/><path fill="#34342f" d="M 231.597656 320.332031 L 231.597656 301.425781 C 231.597656 295.175781 234.773438 289.351562 239.902344 286.222656 C 272.511719 266.296875 291.988281 231.648438 291.988281 193.539062 C 291.988281 190.199219 289.289062 187.5 285.949219 187.5 L 279.910156 187.5 C 279.910156 177.628906 275.183594 168.636719 267.292969 163.042969 C 267.609375 161.289062 267.832031 159.363281 267.832031 157.3125 C 267.832031 140.304688 255.820312 125.710938 239.382812 122.070312 C 233.101562 110.367188 220.902344 102.972656 207.4375 102.972656 C 199.757812 102.972656 192.417969 105.363281 186.300781 109.804688 C 180.183594 105.363281 172.847656 102.972656 165.164062 102.972656 C 152.066406 102.972656 140.160156 109.964844 133.765625 121.101562 C 114.339844 121.738281 98.730469 137.738281 98.730469 157.3125 C 98.730469 159.363281 98.957031 161.289062 99.269531 163.042969 C 91.382812 168.636719 86.652344 177.628906 86.652344 187.5 L 80.613281 187.5 C 77.273438 187.5 74.574219 190.199219 74.574219 193.539062 C 74.574219 231.648438 94.050781 266.296875 126.664062 286.230469 C 131.792969 289.351562 134.96875 295.175781 134.96875 301.425781 L 134.96875 320.332031 C 134.96875 323.667969 137.667969 326.367188 141.007812 326.367188 L 225.558594 326.367188 C 228.898438 326.367188 231.597656 323.667969 231.597656 320.332031 Z M 108.835938 171.359375 C 109.753906 170.910156 110.441406 170.195312 111.011719 169.40625 C 117.574219 169.511719 122.890625 174.875 122.890625 181.460938 L 134.96875 181.460938 C 134.96875 168.144531 124.132812 157.3125 110.8125 157.3125 C 110.8125 145.851562 118.847656 136.28125 129.574219 133.820312 C 132.726562 150.601562 147.476562 163.347656 165.164062 163.347656 L 165.164062 151.273438 C 153.410156 151.273438 143.621094 142.839844 141.472656 131.707031 C 142.078125 131.144531 142.613281 130.507812 142.953125 129.726562 C 146.726562 120.808594 155.453125 115.046875 165.164062 115.046875 C 171.523438 115.046875 177.519531 117.515625 182.054688 121.996094 C 184.40625 124.320312 188.203125 124.320312 190.546875 121.996094 C 195.082031 117.515625 201.082031 115.046875 207.4375 115.046875 C 214.636719 115.046875 221.28125 118.230469 225.792969 123.511719 C 215.019531 128.128906 207.4375 138.828125 207.4375 151.273438 L 219.519531 151.273438 C 219.519531 142.351562 226.023438 134.953125 234.53125 133.472656 C 246.632812 134.996094 255.753906 145.242188 255.753906 157.3125 C 255.753906 159.316406 255.390625 161.464844 254.59375 164.289062 C 253.796875 167.097656 255.121094 170.070312 257.734375 171.359375 C 263.960938 174.429688 267.832031 180.609375 267.832031 187.5 L 219.519531 187.5 C 219.519531 174.179688 208.683594 163.347656 195.359375 163.347656 L 195.359375 175.425781 C 202.023438 175.425781 207.4375 180.839844 207.4375 187.5 L 98.730469 187.5 C 98.730469 180.609375 102.605469 174.429688 108.835938 171.359375 Z M 219.519531 314.292969 L 189.320312 314.292969 L 189.320312 278.066406 C 189.320312 276.230469 188.488281 274.496094 187.058594 273.351562 L 160.882812 252.417969 C 159.765625 251.523438 159.125 250.195312 159.125 248.769531 L 159.125 246.496094 C 159.125 243.929688 161.214844 241.839844 163.78125 241.839844 L 165.472656 241.839844 C 167.035156 241.839844 168.484375 242.617188 169.355469 243.917969 C 172.472656 248.578125 177.671875 251.367188 183.28125 251.367188 C 188.894531 251.367188 194.09375 248.578125 197.207031 243.917969 C 198.074219 242.617188 199.523438 241.839844 201.085938 241.839844 L 202.777344 241.839844 C 205.351562 241.839844 207.4375 243.929688 207.4375 246.496094 L 207.4375 249.484375 C 207.4375 250.726562 206.957031 251.890625 206.074219 252.773438 L 191.089844 267.753906 L 199.628906 276.292969 L 214.613281 261.3125 C 217.777344 258.152344 219.519531 253.957031 219.519531 249.488281 L 219.519531 246.5 C 219.519531 237.269531 212.011719 229.765625 202.78125 229.765625 L 201.09375 229.765625 C 195.480469 229.765625 190.277344 232.546875 187.160156 237.214844 C 185.910156 239.085938 184.03125 239.292969 183.28125 239.292969 C 182.535156 239.292969 180.65625 239.085938 179.40625 237.214844 C 176.292969 232.546875 171.082031 229.765625 165.480469 229.765625 L 163.789062 229.765625 C 154.554688 229.765625 147.046875 237.269531 147.046875 246.496094 L 147.046875 248.769531 C 147.046875 253.871094 149.335938 258.636719 153.328125 261.84375 L 177.242188 280.964844 L 177.242188 314.292969 L 147.046875 314.292969 L 147.046875 301.425781 C 147.046875 291 141.648438 281.222656 132.964844 275.917969 C 105.695312 259.265625 88.769531 231.039062 86.835938 199.574219 L 279.730469 199.574219 C 277.804688 231.039062 260.867188 259.265625 233.601562 275.921875 C 224.917969 281.222656 219.519531 291.003906 219.519531 301.425781 Z M 219.519531 314.292969 " fill-opacity="1" fill-rule="nonzero"/><path fill="#34342f" d="M 141.007812 338.445312 L 225.558594 338.445312 L 225.558594 350.519531 L 141.007812 350.519531 Z M 141.007812 338.445312 " fill-opacity="1" fill-rule="nonzero"/><path fill="#34342f" d="M 153.085938 362.59375 L 213.480469 362.59375 L 213.480469 374.671875 L 153.085938 374.671875 Z M 153.085938 362.59375 " fill-opacity="1" fill-rule="nonzero"/><g clip-path="url(#4405956ee5)"><path fill="#34342f" d="M 365.371094 79.226562 L 351.867188 77.160156 L 345.769531 64.179688 C 344.773438 62.058594 342.648438 60.707031 340.304688 60.707031 C 337.960938 60.707031 335.835938 62.058594 334.839844 64.179688 L 328.738281 77.160156 L 315.234375 79.226562 C 313 79.570312 311.140625 81.128906 310.421875 83.277344 C 309.703125 85.425781 310.246094 87.785156 311.824219 89.410156 L 321.769531 99.601562 L 319.40625 114.070312 C 319.035156 116.351562 320.003906 118.644531 321.890625 119.980469 C 323.773438 121.3125 326.273438 121.453125 328.292969 120.328125 L 340.304688 113.695312 L 352.308594 120.328125 C 353.222656 120.835938 354.230469 121.085938 355.234375 121.085938 C 356.453125 121.085938 357.671875 120.710938 358.710938 119.980469 C 360.59375 118.644531 361.566406 116.351562 361.195312 114.070312 L 358.832031 99.601562 L 368.777344 89.410156 C 370.359375 87.785156 370.90625 85.425781 370.179688 83.277344 C 369.457031 81.128906 367.605469 79.570312 365.371094 79.226562 Z M 348.058594 93.351562 C 346.71875 94.722656 346.113281 96.648438 346.421875 98.539062 L 347.273438 103.746094 L 343.226562 101.511719 C 342.320312 101.007812 341.316406 100.753906 340.308594 100.753906 C 339.300781 100.753906 338.296875 101.007812 337.394531 101.511719 L 333.347656 103.746094 L 334.199219 98.539062 C 334.507812 96.648438 333.894531 94.71875 332.5625 93.351562 L 328.691406 89.386719 L 333.761719 88.613281 C 335.75 88.3125 337.460938 87.03125 338.316406 85.214844 L 340.304688 80.957031 L 342.300781 85.214844 C 343.160156 87.039062 344.871094 88.316406 346.855469 88.613281 L 351.929688 89.386719 Z M 348.058594 93.351562 " fill-opacity="1" fill-rule="nonzero"/></g><path fill="#34342f" d="M 2.417969 107.425781 C 1.699219 109.570312 2.242188 111.9375 3.820312 113.5625 L 13.765625 123.753906 L 11.40625 138.21875 C 11.03125 140.503906 12.003906 142.796875 13.886719 144.132812 C 15.769531 145.464844 18.277344 145.605469 20.289062 144.480469 L 32.300781 137.84375 L 44.304688 144.480469 C 45.21875 144.988281 46.226562 145.234375 47.230469 145.234375 C 48.449219 145.234375 49.667969 144.863281 50.707031 144.128906 C 52.59375 142.796875 53.566406 140.503906 53.191406 138.21875 L 50.828125 123.753906 L 60.777344 113.5625 C 62.359375 111.9375 62.902344 109.578125 62.175781 107.425781 C 61.453125 105.277344 59.597656 103.71875 57.363281 103.375 L 43.859375 101.3125 L 37.761719 88.328125 C 36.769531 86.210938 34.644531 84.859375 32.300781 84.859375 C 29.957031 84.859375 27.832031 86.210938 26.835938 88.328125 L 20.734375 101.3125 L 7.230469 103.375 C 4.996094 103.71875 3.136719 105.285156 2.417969 107.425781 Z M 25.746094 112.765625 C 27.734375 112.460938 29.445312 111.183594 30.300781 109.367188 L 32.300781 105.109375 L 34.300781 109.367188 C 35.15625 111.1875 36.867188 112.46875 38.851562 112.765625 L 43.925781 113.539062 L 40.054688 117.503906 C 38.714844 118.875 38.109375 120.800781 38.417969 122.691406 L 39.269531 127.894531 L 35.222656 125.660156 C 34.3125 125.167969 33.308594 124.914062 32.300781 124.914062 C 31.292969 124.914062 30.289062 125.167969 29.382812 125.667969 L 25.335938 127.902344 L 26.1875 122.695312 C 26.496094 120.808594 25.886719 118.875 24.550781 117.511719 L 20.675781 113.539062 Z M 25.746094 112.765625 " fill-opacity="1" fill-rule="nonzero"/><path fill="#34342f" d="M 279.597656 22.898438 C 278.878906 20.753906 277.019531 19.191406 274.785156 18.847656 L 261.28125 16.78125 L 255.179688 3.800781 C 254.183594 1.683594 252.058594 0.328125 249.714844 0.328125 C 247.371094 0.328125 245.246094 1.683594 244.25 3.800781 L 238.148438 16.78125 L 224.644531 18.847656 C 222.410156 19.191406 220.550781 20.75 219.832031 22.898438 C 219.113281 25.046875 219.65625 27.410156 221.234375 29.035156 L 231.179688 39.226562 L 228.820312 53.691406 C 228.445312 55.972656 229.417969 58.269531 231.300781 59.601562 C 233.183594 60.929688 235.691406 61.074219 237.703125 59.953125 L 249.714844 53.316406 L 261.71875 59.953125 C 262.632812 60.460938 263.640625 60.707031 264.644531 60.707031 C 265.863281 60.707031 267.082031 60.332031 268.121094 59.601562 C 270.007812 58.269531 270.980469 55.972656 270.605469 53.691406 L 268.242188 39.226562 L 278.191406 29.035156 C 279.777344 27.410156 280.316406 25.046875 279.597656 22.898438 Z M 257.46875 32.976562 C 256.128906 34.347656 255.523438 36.273438 255.832031 38.164062 L 256.683594 43.367188 L 252.636719 41.132812 C 251.726562 40.636719 250.722656 40.382812 249.714844 40.382812 C 248.707031 40.382812 247.703125 40.636719 246.796875 41.140625 L 242.75 43.371094 L 243.601562 38.167969 C 243.910156 36.277344 243.300781 34.347656 241.964844 32.980469 L 238.089844 29.007812 L 243.160156 28.238281 C 245.148438 27.933594 246.859375 26.65625 247.714844 24.835938 L 249.714844 20.582031 L 251.714844 24.835938 C 252.570312 26.660156 254.28125 27.941406 256.265625 28.238281 L 261.339844 29.007812 Z M 257.46875 32.976562 " fill-opacity="1" fill-rule="nonzero"/><path fill="#34342f" d="M 310.105469 109.007812 L 310.105469 96.933594 C 290.125 96.933594 273.871094 113.179688 273.871094 133.160156 L 285.949219 133.160156 C 285.949219 119.839844 296.785156 109.007812 310.105469 109.007812 Z M 310.105469 109.007812 " fill-opacity="1" fill-rule="nonzero"/><path fill="#34342f" d="M 59.144531 79.835938 L 65.84375 89.882812 C 74.0625 84.40625 83.917969 82.527344 93.582031 84.609375 C 103.25 86.695312 111.449219 92.453125 116.691406 100.835938 L 123.808594 112.214844 L 134.042969 105.808594 L 126.929688 94.429688 C 119.949219 83.257812 109.003906 75.578125 96.117188 72.808594 C 83.246094 70.003906 70.113281 72.527344 59.144531 79.835938 Z M 59.144531 79.835938 " fill-opacity="1" fill-rule="nonzero"/><path fill="#34342f" d="M 195.359375 84.859375 C 195.359375 67.851562 203.488281 51.597656 217.109375 41.386719 L 209.855469 31.726562 C 193.21875 44.207031 183.28125 64.070312 183.28125 84.859375 L 183.28125 96.933594 L 195.359375 96.933594 Z M 195.359375 84.859375 " fill-opacity="1" fill-rule="nonzero"/><path fill="#34342f" d="M 116.851562 12.40625 C 113.515625 12.40625 110.8125 15.109375 110.8125 18.441406 C 110.8125 21.777344 113.515625 24.480469 116.851562 24.480469 C 120.183594 24.480469 122.890625 21.777344 122.890625 18.441406 C 122.890625 15.109375 120.183594 12.40625 116.851562 12.40625 Z M 116.851562 12.40625 " fill-opacity="1" fill-rule="nonzero"/><path fill="#34342f" d="M 14.183594 60.707031 C 17.515625 60.707031 20.222656 58.003906 20.222656 54.667969 C 20.222656 51.335938 17.515625 48.632812 14.183594 48.632812 C 10.847656 48.632812 8.144531 51.335938 8.144531 54.667969 C 8.144531 58.003906 10.847656 60.707031 14.183594 60.707031 Z M 14.183594 60.707031 " fill-opacity="1" fill-rule="nonzero"/><path fill="#34342f" d="M 322.1875 163.347656 C 318.851562 163.347656 316.148438 166.054688 316.148438 169.386719 C 316.148438 172.71875 318.851562 175.425781 322.1875 175.425781 C 325.519531 175.425781 328.226562 172.71875 328.226562 169.386719 C 328.226562 166.054688 325.519531 163.347656 322.1875 163.347656 Z M 322.1875 163.347656 " fill-opacity="1" fill-rule="nonzero"/><path fill="#34342f" d="M 32.300781 187.5 C 28.964844 187.5 26.261719 190.203125 26.261719 193.539062 C 26.261719 196.871094 28.964844 199.574219 32.300781 199.574219 C 35.632812 199.574219 38.339844 196.871094 38.339844 193.539062 C 38.339844 190.203125 35.632812 187.5 32.300781 187.5 Z M 32.300781 187.5 " fill-opacity="1" fill-rule="nonzero"/><path fill="#34342f" d="M 346.34375 18.441406 C 343.007812 18.441406 340.304688 21.148438 340.304688 24.480469 C 340.304688 27.8125 343.007812 30.519531 346.34375 30.519531 C 349.675781 30.519531 352.382812 27.8125 352.382812 24.480469 C 352.382812 21.148438 349.675781 18.441406 346.34375 18.441406 Z M 346.34375 18.441406 " fill-opacity="1" fill-rule="nonzero"/></svg>