<svg xmlns="http://www.w3.org/2000/svg" xmlns:xlink="http://www.w3.org/1999/xlink" width="500" zoomAndPan="magnify" viewBox="0 0 375 374.999991" height="500" preserveAspectRatio="xMidYMid meet" version="1.0"><defs><clipPath id="bcfca02c3d"><path d="M 93 16.453125 L 216 16.453125 L 216 145 L 93 145 Z M 93 16.453125 " clip-rule="nonzero"/></clipPath></defs><g clip-path="url(#bcfca02c3d)"><path fill="#626262" d="M 214.578125 65.886719 C 214.648438 65.839844 214.71875 65.796875 214.789062 65.75 C 215.996094 64.953125 215.585938 62.921875 214.027344 62.9375 C 208.988281 62.992188 203.894531 62.847656 198.871094 63.246094 C 197.636719 63.34375 196.40625 63.421875 195.171875 63.488281 C 190.867188 63.609375 186.558594 63.691406 182.253906 63.902344 C 179.523438 64.035156 176.800781 64.222656 174.074219 64.390625 C 173.03125 64.457031 172.554688 65.371094 172.636719 66.175781 C 172.617188 66.945312 173.09375 67.6875 174.078125 67.601562 C 179.101562 67.171875 184.078125 66.910156 189.117188 66.777344 C 191.332031 66.714844 193.542969 66.597656 195.753906 66.472656 C 198.953125 66.375 202.148438 66.25 205.347656 66.082031 C 205.9375 66.050781 206.527344 66.039062 207.113281 66.03125 C 207.320312 66.03125 207.527344 66.027344 207.730469 66.023438 C 208.078125 66.023438 208.421875 66.03125 208.769531 66.035156 C 207.574219 66.777344 206.371094 67.5 205.136719 68.195312 C 203.917969 68.882812 202.738281 69.507812 201.464844 70.078125 C 200.085938 70.699219 198.601562 71.226562 197.296875 72 C 195.6875 72.949219 194.144531 74.015625 192.515625 74.933594 C 191.148438 75.703125 189.667969 76.320312 188.253906 77.003906 C 187.914062 77.167969 187.566406 77.328125 187.230469 77.5 C 187.199219 77.515625 187.1875 77.519531 187.167969 77.53125 C 186.308594 77.816406 185.46875 78.175781 184.625 78.496094 C 183.316406 78.988281 182.019531 79.5 180.6875 79.925781 C 178.96875 80.472656 177.027344 80.847656 175.417969 81.683594 C 173.714844 82.566406 172.058594 83.554688 170.378906 84.492188 C 169.757812 84.839844 169.570312 85.539062 169.6875 86.195312 C 170.011719 87.992188 170.335938 89.789062 170.660156 91.585938 C 170.8125 92.4375 171.054688 93.273438 171.316406 94.101562 C 171.136719 94.261719 170.957031 94.421875 170.773438 94.578125 C 170.378906 94.917969 170.246094 95.558594 170.386719 96.046875 C 171.078125 98.453125 171.722656 100.863281 172.578125 103.214844 C 173.027344 104.460938 173.570312 105.703125 173.9375 106.976562 C 174.375 108.5 174.652344 110.089844 175.007812 111.632812 C 175.523438 113.886719 176.496094 116.035156 177.289062 118.207031 C 178.21875 120.753906 179.167969 123.195312 179.707031 125.851562 C 180.035156 127.492188 180.328125 129.128906 180.601562 130.769531 C 179.183594 129.59375 177.769531 128.410156 176.367188 127.21875 C 174.605469 125.5625 172.847656 123.910156 171.078125 122.265625 C 169.25 120.5625 167.804688 118.515625 166.105469 116.695312 C 164.148438 114.59375 162.082031 112.644531 160.222656 110.457031 C 158.433594 108.359375 156.566406 106.378906 154.65625 104.402344 C 154.335938 103.992188 154.015625 103.585938 153.691406 103.171875 C 153.21875 102.570312 152.035156 102.601562 151.558594 103.171875 C 149.453125 105.707031 147.34375 108.222656 145.164062 110.6875 C 144.15625 111.824219 143.246094 112.914062 142.398438 114.171875 C 141.546875 115.433594 140.730469 116.730469 139.828125 117.953125 C 137.503906 120.523438 135.320312 123.191406 133.152344 125.890625 C 131.355469 128.128906 129.804688 130.546875 128.074219 132.835938 C 127.328125 133.828125 126.578125 134.820312 125.828125 135.8125 C 125.554688 136.171875 125.28125 136.53125 125.011719 136.894531 C 124.992188 136.910156 124.972656 136.929688 124.9375 136.964844 C 124.871094 137.03125 124.808594 137.105469 124.742188 137.175781 C 125.039062 135.832031 125.328125 134.480469 125.585938 133.125 C 125.859375 131.675781 126.121094 130.289062 126.550781 128.886719 C 127.046875 127.273438 127.574219 125.664062 128.027344 124.035156 C 129.789062 117.714844 131.121094 111.289062 133.175781 105.046875 C 134.417969 101.285156 135.726562 97.582031 137.117188 93.875 C 137.34375 93.273438 136.972656 92.464844 136.425781 92.171875 C 133.945312 90.835938 131.472656 89.496094 128.964844 88.214844 C 127.636719 87.539062 126.324219 86.765625 124.945312 86.207031 C 123.296875 85.539062 121.636719 84.898438 119.980469 84.246094 C 119.761719 84.15625 119.539062 84.066406 119.316406 83.980469 C 119.296875 83.972656 119.285156 83.964844 119.257812 83.949219 C 118.515625 83.546875 117.738281 83.191406 116.984375 82.816406 C 115.800781 82.226562 114.632812 81.597656 113.425781 81.0625 C 110.59375 79.808594 107.761719 78.574219 104.957031 77.25 C 103.621094 76.621094 102.316406 75.957031 100.917969 75.472656 C 100.839844 75.445312 100.761719 75.417969 100.683594 75.390625 C 100.699219 75.390625 100.710938 75.386719 100.722656 75.382812 C 100.988281 75.324219 101.347656 75.304688 101.59375 75.1875 C 101.597656 75.183594 101.597656 75.183594 101.601562 75.183594 C 101.621094 75.179688 101.640625 75.179688 101.660156 75.175781 C 102.660156 75.054688 103.664062 74.929688 104.664062 74.804688 C 107.5625 74.449219 110.480469 74.03125 113.394531 73.863281 C 116.847656 73.667969 120.296875 73.542969 123.75 73.300781 C 125.199219 73.203125 126.617188 73 128.054688 72.796875 C 129.039062 72.660156 130.019531 72.523438 131.003906 72.386719 C 131.035156 72.382812 131.0625 72.378906 131.09375 72.378906 C 131.085938 72.375 131.085938 72.375 131.082031 72.375 C 131.085938 72.375 131.09375 72.375 131.097656 72.375 C 131.230469 72.367188 131.324219 72.375 131.359375 72.382812 C 131.59375 72.371094 131.84375 72.320312 132.054688 72.308594 C 135.769531 72.046875 139.421875 71.941406 143.144531 71.914062 C 143.761719 71.910156 144.480469 71.453125 144.601562 70.808594 C 145.265625 67.234375 145.878906 63.714844 146.292969 60.109375 C 146.652344 57.007812 147.125 53.816406 147.066406 50.695312 C 147.046875 49.539062 147.027344 48.382812 147.003906 47.226562 C 146.996094 46.722656 146.984375 46.21875 146.976562 45.714844 C 146.972656 45.550781 146.984375 45.378906 146.96875 45.214844 C 147.234375 44.53125 147.332031 43.695312 147.507812 43 C 147.785156 41.902344 148.0625 40.800781 148.339844 39.703125 C 148.761719 38.027344 148.679688 36.191406 148.78125 34.476562 C 148.8125 34 148.839844 33.519531 148.867188 33.042969 C 148.875 32.941406 148.878906 32.835938 148.886719 32.734375 C 149.179688 32.078125 149.21875 31.125 149.363281 30.441406 C 149.746094 28.660156 150.039062 26.835938 150.578125 25.089844 C 150.753906 24.511719 150.933594 23.933594 151.113281 23.355469 C 151.625 25.019531 152.128906 26.6875 152.613281 28.363281 C 153.027344 29.796875 153.449219 31.097656 154.078125 32.449219 C 154.558594 33.488281 155.039062 34.523438 155.519531 35.558594 C 155.671875 35.882812 155.8125 36.210938 155.972656 36.53125 C 155.980469 36.5625 155.984375 36.589844 155.996094 36.640625 C 156.121094 37.097656 156.261719 37.546875 156.394531 37.996094 C 156.703125 39.429688 157.089844 40.875 157.503906 42.25 C 157.964844 43.78125 158.71875 45.273438 159.324219 46.753906 C 160 48.414062 160.652344 50.105469 161.238281 51.808594 C 161.410156 52.332031 161.582031 52.855469 161.757812 53.375 C 161.910156 53.859375 162.066406 54.339844 162.203125 54.824219 C 162.707031 56.582031 163.089844 58.433594 163.75 60.140625 C 164.183594 61.269531 164.664062 62.382812 165.144531 63.496094 C 165.378906 64.246094 165.625 64.984375 165.855469 65.738281 C 166.121094 66.597656 166.890625 66.882812 167.582031 66.757812 C 167.695312 66.753906 167.808594 66.738281 167.925781 66.707031 C 168.636719 66.523438 169.296875 65.601562 168.980469 64.851562 C 168.675781 64.128906 168.371094 63.40625 168.066406 62.683594 C 167.316406 60.273438 166.539062 57.878906 165.6875 55.492188 C 164.683594 52.691406 163.882812 49.808594 162.828125 47.027344 C 162.144531 45.226562 161.367188 43.457031 160.707031 41.644531 C 160.246094 40.375 159.878906 39.0625 159.492188 37.765625 C 159.433594 37.503906 159.378906 37.242188 159.316406 36.988281 C 158.960938 35.546875 158.421875 34.273438 157.835938 32.90625 C 157.410156 31.90625 156.988281 30.910156 156.5625 29.910156 C 156.542969 29.871094 156.527344 29.832031 156.511719 29.792969 C 156.511719 29.792969 156.515625 29.796875 156.515625 29.792969 C 156.488281 29.523438 156.347656 29.226562 156.273438 28.96875 C 155.761719 27.207031 155.335938 25.382812 154.703125 23.660156 C 154.160156 22.179688 153.566406 20.714844 152.980469 19.25 C 152.859375 18.859375 152.738281 18.464844 152.613281 18.074219 C 152.375 17.3125 151.765625 16.980469 151.15625 17.007812 C 150.511719 16.929688 149.847656 17.242188 149.59375 18.054688 C 149.4375 18.5625 149.28125 19.066406 149.125 19.574219 C 148.664062 20.757812 148.207031 21.941406 147.746094 23.125 C 147.238281 24.4375 147.105469 25.886719 146.851562 27.265625 C 146.585938 28.710938 146.3125 29.949219 145.808594 31.320312 C 145.277344 32.75 144.707031 34.171875 144.226562 35.617188 C 143.628906 37.40625 142.992188 39.207031 142.488281 41.027344 C 142.066406 42.554688 141.828125 44.15625 141.507812 45.710938 C 140.945312 48.4375 140.316406 51.160156 139.609375 53.851562 C 139.160156 55.570312 138.808594 57.355469 138.222656 59.035156 C 137.683594 60.578125 137.078125 62.105469 136.488281 63.632812 C 134.109375 64.25 131.746094 64.894531 129.324219 65.320312 C 126.226562 65.863281 123.191406 66.492188 120.128906 67.191406 C 117.699219 67.742188 115.238281 68.144531 112.792969 68.609375 C 111.074219 68.933594 109.359375 69.261719 107.640625 69.589844 C 106.484375 69.808594 105.429688 70.277344 104.328125 70.699219 C 101.90625 71.621094 99.472656 72.386719 97.003906 73.121094 C 96.265625 73.292969 95.527344 73.460938 94.785156 73.628906 C 93.242188 73.976562 93.46875 76.082031 94.785156 76.535156 C 94.929688 76.585938 95.074219 76.636719 95.21875 76.6875 C 99.304688 78.683594 103.378906 80.75 107.605469 82.421875 C 108.980469 82.96875 110.34375 83.535156 111.726562 84.058594 C 111.886719 84.183594 112.128906 84.261719 112.308594 84.355469 C 113.007812 84.710938 113.707031 85.070312 114.40625 85.429688 C 116.707031 86.609375 118.933594 87.871094 121.175781 89.167969 C 123.109375 90.285156 125.148438 91.199219 127.175781 92.136719 C 126.976562 93.582031 126.78125 95.023438 126.585938 96.46875 C 126.371094 98.027344 125.914062 99.558594 125.550781 101.085938 C 124.839844 104.066406 124.34375 107.078125 123.871094 110.105469 C 123.28125 113.882812 122.769531 117.640625 122.359375 121.445312 C 122.039062 124.410156 121.882812 127.394531 121.519531 130.355469 C 121.285156 132.269531 120.953125 134.195312 120.828125 136.117188 C 120.707031 137.957031 120.667969 139.804688 120.605469 141.652344 C 120.566406 141.824219 120.527344 141.996094 120.488281 142.167969 C 120.210938 143.324219 121.578125 144.707031 122.703125 143.871094 C 124.144531 142.800781 125.585938 141.734375 127.03125 140.664062 C 127.542969 140.285156 128.039062 139.953125 128.421875 139.433594 C 128.976562 138.679688 129.519531 137.910156 130.066406 137.148438 C 131.886719 134.621094 133.921875 132.179688 135.625 129.574219 C 136.648438 128 137.535156 126.316406 138.488281 124.695312 C 139.265625 123.367188 140.355469 122.183594 141.292969 120.96875 C 141.605469 120.5625 141.902344 120.15625 142.199219 119.746094 C 142.78125 119.019531 143.347656 118.28125 143.902344 117.515625 C 144.539062 116.644531 145.171875 115.769531 145.808594 114.894531 C 145.917969 114.742188 146.421875 114.101562 145.902344 114.742188 C 146.0625 114.546875 146.214844 114.347656 146.371094 114.152344 C 148.402344 111.589844 150.480469 109.136719 152.640625 106.703125 C 153.894531 108.324219 155.148438 109.941406 156.546875 111.445312 C 158.671875 113.730469 160.828125 115.898438 163.082031 118.058594 C 164.894531 119.789062 166.183594 121.96875 167.914062 123.769531 C 169.890625 125.820312 172.121094 127.683594 174.324219 129.484375 C 174.503906 129.632812 174.679688 129.78125 174.859375 129.929688 C 177.097656 132.027344 179.445312 133.941406 181.832031 135.878906 C 182.699219 136.589844 184.585938 136.257812 184.40625 134.8125 C 184.167969 132.949219 183.933594 131.085938 183.699219 129.21875 C 183.503906 127.695312 183.097656 126.234375 182.726562 124.742188 C 181.96875 121.714844 181.503906 118.589844 180.675781 115.585938 C 180.152344 113.679688 179.441406 111.820312 178.890625 109.921875 C 178.445312 108.382812 178.183594 106.769531 177.84375 105.203125 C 177.21875 102.324219 176.167969 99.566406 175.304688 96.753906 C 175.140625 96.214844 174.960938 95.675781 174.78125 95.132812 C 175.570312 94.476562 176.351562 93.8125 177.09375 93.109375 C 177.101562 93.105469 177.101562 93.105469 177.109375 93.097656 C 177.511719 92.832031 177.898438 92.546875 178.289062 92.269531 C 179.25 91.59375 180.210938 90.917969 181.175781 90.238281 C 183.847656 88.359375 186.382812 86.25 188.945312 84.21875 C 189.628906 83.679688 190.324219 83.152344 190.992188 82.601562 C 190.996094 82.601562 190.996094 82.601562 190.996094 82.601562 C 191.105469 82.558594 191.222656 82.457031 191.324219 82.394531 C 191.757812 82.121094 192.1875 81.847656 192.617188 81.578125 C 194.074219 80.660156 195.554688 79.800781 196.890625 78.714844 C 198.222656 77.632812 199.539062 76.53125 200.886719 75.46875 C 202.292969 74.359375 203.683594 73.140625 205.167969 72.128906 C 205.101562 72.195312 205.679688 71.863281 205.835938 71.773438 C 206.382812 71.460938 206.929688 71.148438 207.476562 70.832031 C 208.371094 70.320312 209.320312 69.851562 210.179688 69.285156 C 211.683594 68.292969 213.066406 67.070312 214.492188 65.972656 C 214.527344 65.945312 214.546875 65.914062 214.578125 65.886719 Z M 146.96875 45.207031 C 146.96875 45.203125 146.96875 45.203125 146.96875 45.199219 C 146.941406 44.945312 147.035156 44.960938 146.96875 45.207031 Z M 131.429688 68 C 132.765625 67.765625 134.078125 67.363281 135.394531 67.027344 C 136.214844 66.816406 137.058594 66.640625 137.867188 66.390625 C 138.703125 66.132812 138.976562 65.527344 139.257812 64.785156 C 139.898438 63.09375 140.613281 61.417969 141.183594 59.703125 C 141.664062 58.246094 141.976562 56.714844 142.367188 55.234375 C 142.960938 52.972656 143.515625 50.695312 144.007812 48.410156 C 144.011719 48.503906 144.015625 48.601562 144.015625 48.699219 C 144.074219 51.882812 143.859375 55.046875 143.496094 58.210938 C 143.347656 59.496094 143.203125 60.785156 143.054688 62.070312 C 142.992188 62.589844 142.933594 63.113281 142.875 63.632812 C 142.867188 63.679688 142.867188 63.699219 142.863281 63.734375 C 142.859375 63.753906 142.855469 63.765625 142.847656 63.800781 C 142.484375 65.492188 142.191406 67.203125 141.886719 68.910156 C 139.082031 68.9375 136.300781 68.992188 133.496094 69.191406 C 132.046875 69.289062 130.632812 69.417969 129.195312 69.617188 C 128.09375 69.769531 126.988281 69.925781 125.886719 70.078125 C 125.585938 70.121094 125.28125 70.164062 124.980469 70.207031 C 124.941406 70.207031 124.886719 70.207031 124.78125 70.214844 C 122.671875 70.320312 120.5625 70.433594 118.457031 70.558594 C 122.773438 69.679688 127.082031 68.761719 131.429688 68 Z M 125.875 116.820312 C 125.875 116.808594 125.875 116.804688 125.875 116.796875 C 125.945312 116.394531 126 115.992188 126.0625 115.59375 C 126.246094 114.402344 126.425781 113.214844 126.609375 112.027344 C 127.054688 109.125 127.4375 106.175781 128.121094 103.320312 C 128.5625 101.460938 129.128906 99.59375 129.433594 97.707031 C 129.726562 95.902344 129.941406 94.074219 130.179688 92.257812 C 131.386719 92.894531 132.589844 93.539062 133.792969 94.183594 C 131.679688 99.828125 129.578125 105.546875 128.132812 111.394531 C 127.25 114.980469 126.359375 118.554688 125.414062 122.125 C 125.355469 122.34375 125.292969 122.566406 125.230469 122.785156 C 125.433594 120.796875 125.6875 118.8125 125.875 116.820312 Z M 188.296875 80.914062 C 186.960938 81.96875 185.632812 83.039062 184.285156 84.085938 C 183.421875 84.753906 182.558594 85.421875 181.691406 86.09375 C 181.28125 86.414062 180.867188 86.730469 180.453125 87.050781 C 180.316406 87.160156 180.175781 87.265625 180.039062 87.375 C 179.78125 87.574219 179.933594 87.378906 180.164062 87.273438 C 179.273438 87.679688 178.417969 88.503906 177.613281 89.070312 C 176.824219 89.625 176.003906 90.15625 175.242188 90.75 C 174.757812 91.125 174.285156 91.519531 173.816406 91.917969 C 173.765625 91.710938 173.703125 91.507812 173.660156 91.300781 C 173.332031 89.742188 173.074219 88.167969 172.804688 86.59375 C 174.035156 85.910156 175.265625 85.222656 176.496094 84.535156 C 176.601562 84.476562 176.722656 84.417969 176.839844 84.359375 C 176.726562 84.398438 176.742188 84.328125 176.890625 84.300781 C 176.917969 84.296875 176.945312 84.285156 176.972656 84.277344 C 177.015625 84.25 177.0625 84.230469 177.101562 84.199219 C 177.054688 84.238281 177.027344 84.25 176.988281 84.273438 C 177.128906 84.234375 177.269531 84.179688 177.402344 84.136719 C 178.375 83.828125 179.351562 83.515625 180.324219 83.207031 C 183.140625 82.304688 186.03125 81.375 188.710938 80.125 C 189.445312 79.78125 190.179688 79.4375 190.914062 79.089844 C 190.019531 79.660156 189.136719 80.25 188.296875 80.914062 Z M 188.296875 80.914062 " fill-opacity="1" fill-rule="nonzero"/></g><path fill="#626262" d="M 373.511719 205.042969 C 371.539062 204.613281 369.535156 204.257812 367.582031 203.753906 C 366.441406 203.464844 365.316406 203.011719 364.203125 202.558594 C 364.03125 202.246094 363.75 201.980469 363.320312 201.851562 C 360.691406 201.070312 358.082031 200.207031 355.410156 199.589844 C 352.15625 198.832031 348.984375 197.996094 345.78125 197.050781 C 343.242188 196.304688 340.574219 196.214844 338.019531 195.554688 C 336.25 195.097656 334.507812 194.449219 332.765625 193.902344 C 331.617188 193.539062 330.457031 193.53125 329.261719 193.472656 C 325.988281 192.714844 322.671875 192.070312 319.398438 191.324219 C 318.316406 191.078125 317.59375 191.929688 317.523438 192.78125 C 317.25 193.535156 317.492188 194.464844 318.492188 194.707031 C 321.304688 195.386719 324.039062 196.207031 326.933594 196.367188 C 327.488281 196.394531 328.042969 196.425781 328.601562 196.457031 C 329.003906 196.546875 329.410156 196.640625 329.816406 196.726562 C 333.191406 197.453125 336.5 198.625 339.832031 199.535156 C 343.121094 200.433594 346.453125 201.105469 349.761719 201.914062 C 351.519531 202.34375 353.269531 202.808594 355.039062 203.195312 C 355.820312 203.367188 356.613281 203.511719 357.40625 203.664062 C 357.128906 203.765625 356.851562 203.863281 356.578125 203.960938 C 354.777344 204.621094 353.035156 205.472656 351.277344 206.238281 C 350.964844 206.375 350.652344 206.507812 350.339844 206.644531 C 350.222656 206.660156 350.101562 206.726562 349.988281 206.761719 C 348.808594 207.121094 347.640625 207.53125 346.46875 207.914062 C 344.816406 208.457031 343.207031 209.046875 341.582031 209.671875 C 339.953125 210.292969 338.332031 210.917969 336.722656 211.582031 C 335.039062 212.269531 333.386719 213.101562 331.613281 213.507812 C 329.8125 213.921875 327.863281 214.171875 326.128906 214.804688 C 324.210938 215.507812 322.382812 216.460938 320.460938 217.160156 C 318.480469 217.886719 316.40625 218.347656 314.421875 219.070312 C 313.074219 219.5625 311.75 220.128906 310.429688 220.695312 C 309.765625 220.90625 309.105469 221.117188 308.449219 221.304688 C 307.789062 221.496094 307.371094 222.089844 307.34375 222.761719 C 307.292969 223.980469 307.238281 225.203125 307.1875 226.421875 C 307.140625 227.484375 306.96875 228.621094 307.125 229.675781 C 307.324219 231.015625 307.558594 232.347656 307.773438 233.679688 C 307.875 234.304688 307.976562 234.925781 308.078125 235.546875 C 308.101562 235.703125 308.117188 235.871094 308.15625 236.027344 C 308.128906 235.921875 308.117188 235.847656 308.109375 235.792969 C 308.109375 235.835938 308.113281 235.886719 308.109375 235.960938 C 307.9375 240.550781 308.414062 245.132812 308.570312 249.710938 C 308.652344 252.089844 308.703125 254.464844 308.902344 256.835938 C 309.101562 259.203125 309.292969 261.511719 309.285156 263.886719 C 309.265625 268.65625 309.578125 273.402344 309.773438 278.167969 C 309.796875 278.707031 309.839844 279.238281 309.871094 279.773438 C 307.511719 276.308594 305.0625 272.917969 302.566406 269.542969 C 299.820312 265.828125 297.375 261.90625 294.800781 258.070312 C 293.570312 256.234375 292.035156 254.46875 291.066406 252.480469 C 289.976562 250.242188 288.96875 247.992188 287.632812 245.890625 C 286.875 244.695312 286.015625 243.523438 285.339844 242.277344 C 284.792969 241.273438 284.40625 240.148438 283.953125 239.101562 C 282.9375 236.753906 281.859375 234.449219 280.769531 232.140625 C 280.707031 232.007812 280.644531 231.878906 280.585938 231.75 C 280.464844 231.484375 280.34375 231.214844 280.226562 230.949219 C 279.902344 230.207031 278.796875 230.027344 278.164062 230.40625 C 274.140625 232.820312 269.871094 235.03125 266.105469 237.824219 C 263.972656 239.40625 261.894531 240.996094 259.859375 242.695312 C 259.257812 243.199219 258.65625 243.699219 258.054688 244.203125 C 257.953125 244.289062 257.847656 244.375 257.742188 244.460938 C 257.726562 244.472656 257.714844 244.476562 257.691406 244.492188 C 256.386719 245.273438 255.144531 246.171875 253.875 247.007812 C 251.789062 248.386719 249.925781 250.078125 248.023438 251.699219 C 248 251.71875 247.953125 251.757812 247.902344 251.800781 C 247.824219 251.863281 247.6875 251.972656 247.644531 252.007812 C 247.050781 252.449219 246.460938 252.894531 245.871094 253.335938 C 244.828125 254.117188 243.777344 254.886719 242.75 255.6875 C 241.691406 256.511719 240.644531 257.347656 239.589844 258.179688 C 239.085938 258.578125 238.574219 258.96875 238.074219 259.371094 C 237.917969 259.488281 237.765625 259.609375 237.609375 259.726562 C 235.609375 261.238281 233.613281 262.753906 231.597656 264.238281 C 230.828125 264.804688 230.070312 265.410156 229.292969 265.976562 C 229.328125 265.90625 229.359375 265.832031 229.394531 265.757812 C 230.382812 263.683594 231.515625 261.632812 232.28125 259.460938 C 232.792969 258.011719 233.308594 256.558594 233.820312 255.109375 C 233.890625 254.910156 234.160156 254.203125 234.054688 254.433594 C 234.214844 254.0625 234.378906 253.691406 234.539062 253.320312 C 236.394531 249.046875 238.21875 244.761719 239.824219 240.382812 C 240.398438 238.824219 240.960938 237.265625 241.527344 235.703125 C 242.625 234.390625 243.8125 233.121094 244.597656 231.636719 C 245.75 229.449219 246.820312 227.238281 248.210938 225.195312 C 249.660156 223.066406 251.113281 220.941406 252.570312 218.820312 C 254.054688 216.664062 255.316406 214.460938 256.597656 212.175781 C 256.804688 211.808594 257.007812 211.441406 257.214844 211.074219 C 257.621094 210.351562 257.378906 209.441406 256.675781 209.007812 C 253.832031 207.265625 251.046875 205.53125 248.328125 203.597656 C 245.863281 201.84375 243.34375 200.171875 240.816406 198.503906 C 237.835938 196.542969 234.863281 194.582031 231.917969 192.574219 C 230.753906 191.78125 229.636719 190.953125 228.515625 190.105469 C 227.898438 189.636719 227.28125 189.167969 226.664062 188.703125 C 228.546875 188.921875 230.484375 188.867188 232.367188 189.015625 C 234.378906 189.175781 236.386719 189.472656 238.394531 189.707031 C 242.414062 190.171875 246.429688 190.636719 250.457031 191.046875 C 254.472656 191.457031 258.503906 191.699219 262.519531 192.121094 C 264.683594 192.347656 266.902344 192.160156 269.074219 192.191406 C 271.179688 192.21875 273.289062 192.328125 275.394531 192.398438 C 275.929688 192.414062 276.425781 192.09375 276.699219 191.648438 C 277.886719 189.71875 279.210938 187.824219 280.253906 185.8125 C 281.410156 183.582031 282.53125 181.335938 283.683594 179.101562 C 284.910156 176.734375 286.132812 174.414062 287.507812 172.132812 C 288.160156 171.050781 288.949219 169.972656 289.445312 168.808594 C 290.011719 167.472656 290.566406 166.128906 291.125 164.789062 C 291.351562 164.25 291.582031 163.707031 291.804688 163.167969 C 291.8125 163.160156 291.816406 163.160156 291.824219 163.144531 C 291.953125 162.960938 292.039062 162.722656 292.140625 162.523438 C 292.902344 161.035156 293.660156 159.546875 294.421875 158.058594 C 295.484375 155.972656 296.695312 153.953125 297.695312 151.84375 C 298.253906 150.660156 298.703125 149.410156 299.199219 148.203125 C 299.507812 147.457031 299.816406 146.710938 300.125 145.964844 C 300.144531 145.914062 300.167969 145.859375 300.1875 145.804688 C 300.214844 145.773438 300.269531 145.6875 300.34375 145.570312 C 301.433594 143.878906 302.464844 142.136719 303.445312 140.375 C 303.726562 143.449219 304.121094 146.492188 304.632812 149.570312 C 304.632812 149.585938 304.636719 149.589844 304.636719 149.609375 C 304.636719 149.632812 304.636719 149.648438 304.636719 149.691406 C 304.632812 150.292969 304.6875 150.90625 304.714844 151.507812 C 304.773438 152.84375 304.828125 154.179688 304.894531 155.511719 C 304.992188 157.59375 305.164062 159.671875 305.304688 161.75 C 305.585938 165.894531 305.949219 170.023438 306.34375 174.160156 C 306.5625 176.414062 306.589844 178.6875 306.75 180.949219 C 306.902344 183.128906 307.234375 185.308594 307.480469 187.476562 C 307.574219 188.292969 308.109375 188.976562 308.988281 188.988281 C 309.734375 188.996094 310.589844 188.289062 310.496094 187.476562 C 310.257812 185.378906 309.957031 183.28125 309.777344 181.175781 C 309.597656 179.070312 309.585938 176.949219 309.425781 174.839844 C 309.105469 170.636719 308.65625 166.445312 308.355469 162.242188 C 308.058594 158.058594 307.929688 153.871094 307.652344 149.691406 C 307.507812 147.523438 307.011719 145.332031 306.660156 143.191406 C 306.652344 143.148438 306.644531 143.101562 306.640625 143.054688 C 306.640625 143.050781 306.640625 143.046875 306.640625 143.042969 C 306.648438 142.484375 306.558594 141.902344 306.515625 141.347656 C 306.417969 139.984375 306.316406 138.621094 306.21875 137.257812 C 306.175781 136.625 306.140625 135.992188 306.101562 135.359375 C 306.679688 134.183594 307.234375 132.992188 307.75 131.765625 C 308.082031 130.964844 308.417969 130.167969 308.753906 129.371094 C 308.847656 129.148438 308.9375 128.929688 309.03125 128.707031 C 309.03125 128.707031 309.03125 128.714844 309.035156 128.707031 C 309.152344 128.535156 309.253906 128.339844 309.359375 128.152344 C 309.378906 128.515625 309.402344 128.878906 309.40625 129.238281 C 309.425781 130.875 309.445312 132.507812 309.464844 134.144531 C 309.476562 135.128906 309.707031 136.089844 309.882812 137.058594 C 310.121094 138.375 310.226562 139.828125 310.605469 141.117188 C 310.605469 141.121094 310.605469 141.121094 310.605469 141.121094 C 310.609375 141.425781 310.636719 141.738281 310.652344 142.042969 C 310.691406 142.882812 310.734375 143.722656 310.773438 144.5625 C 310.898438 147.144531 311.121094 149.707031 311.347656 152.28125 C 311.558594 154.671875 311.285156 157.085938 311.222656 159.484375 C 311.164062 161.660156 311.179688 163.863281 311.257812 166.039062 C 311.433594 170.898438 312.191406 175.710938 312.320312 180.5625 C 312.386719 183.195312 312.355469 185.683594 312.15625 188.3125 C 311.960938 190.878906 311.964844 193.394531 311.980469 195.972656 C 311.984375 196.414062 311.984375 196.855469 311.988281 197.292969 C 312 199.234375 315.015625 199.238281 315.003906 197.292969 C 314.992188 195.074219 314.828125 192.808594 314.996094 190.59375 C 315.1875 188.113281 315.46875 185.644531 315.402344 183.15625 C 315.335938 180.5625 315.234375 178.039062 314.972656 175.460938 C 314.710938 172.859375 314.527344 170.273438 314.371094 167.664062 C 314.222656 165.195312 314.25 162.726562 314.230469 160.253906 C 314.214844 157.980469 314.523438 155.699219 314.464844 153.429688 C 314.402344 151.214844 314.011719 149.007812 313.898438 146.792969 C 313.765625 144.25 313.777344 141.699219 313.320312 139.191406 C 313.046875 137.667969 312.796875 136.140625 312.496094 134.625 C 312.492188 134.636719 312.492188 134.652344 312.488281 134.667969 C 312.492188 134.648438 312.488281 134.625 312.492188 134.605469 C 312.488281 134.589844 312.484375 134.574219 312.484375 134.558594 C 312.417969 134.238281 312.480469 134.347656 312.496094 134.503906 C 312.496094 134.378906 312.484375 134.246094 312.480469 134.144531 C 312.472656 133.351562 312.460938 132.558594 312.453125 131.765625 C 312.421875 129.136719 312.230469 126.617188 311.960938 124 C 311.914062 123.539062 311.863281 123.078125 311.816406 122.621094 C 311.679688 121.289062 309.726562 120.371094 309.007812 121.859375 C 307.976562 123.992188 306.878906 126.101562 305.964844 128.285156 C 305.890625 128.457031 305.820312 128.625 305.75 128.796875 C 305.667969 127.136719 305.589844 125.472656 305.496094 123.8125 C 305.421875 122.460938 303.347656 121.582031 302.6875 123.050781 C 300.910156 127.003906 299.015625 130.882812 297.175781 134.800781 C 296.207031 136.855469 295.289062 138.9375 294.269531 140.964844 C 293.203125 143.078125 292.097656 145.144531 291.25 147.355469 C 290.734375 148.710938 290.191406 150.058594 289.695312 151.421875 C 289.710938 151.390625 289.726562 151.363281 289.746094 151.328125 C 289.710938 151.390625 289.683594 151.460938 289.652344 151.53125 C 289.664062 151.507812 289.671875 151.484375 289.679688 151.464844 C 289.683594 151.449219 289.691406 151.4375 289.695312 151.421875 C 289.492188 151.8125 289.578125 151.691406 289.648438 151.539062 C 289.621094 151.597656 289.59375 151.65625 289.566406 151.714844 C 289.269531 152.351562 288.984375 152.988281 288.691406 153.628906 C 287.683594 155.824219 286.640625 157.96875 285.527344 160.113281 C 283.410156 164.210938 281.492188 168.402344 279.566406 172.589844 C 279.160156 173.476562 278.742188 174.359375 278.324219 175.238281 C 277.9375 176.054688 277.550781 176.867188 277.164062 177.679688 C 276.988281 178.046875 276.667969 178.511719 276.546875 178.925781 C 276.632812 178.738281 276.765625 178.730469 276.519531 179.035156 C 276.515625 179.039062 276.515625 179.042969 276.511719 179.046875 C 276.511719 179.050781 276.507812 179.054688 276.507812 179.058594 C 276.507812 179.054688 276.511719 179.050781 276.511719 179.046875 C 276.320312 179.28125 276.132812 179.519531 275.941406 179.757812 C 275.410156 180.417969 274.882812 181.082031 274.351562 181.746094 C 273.660156 182.609375 272.96875 183.472656 272.277344 184.339844 C 270.417969 184.460938 268.5625 184.585938 266.703125 184.695312 C 264.867188 184.804688 262.984375 184.585938 261.148438 184.511719 C 259.371094 184.4375 257.625 184.152344 255.863281 183.921875 C 255.320312 183.847656 254.777344 183.777344 254.234375 183.707031 C 254.148438 183.695312 254.0625 183.683594 253.976562 183.671875 C 253.972656 183.667969 253.972656 183.667969 253.964844 183.664062 C 253.042969 183.3125 251.890625 183.25 250.925781 183.054688 C 247.382812 182.34375 243.753906 181.660156 240.144531 181.484375 C 238.273438 181.394531 236.382812 181.375 234.519531 181.199219 C 233.363281 181.089844 232.207031 180.945312 231.054688 180.816406 C 230.464844 180.753906 229.878906 180.6875 229.289062 180.625 C 229.125 180.605469 228.957031 180.585938 228.789062 180.570312 C 228.796875 180.574219 228.804688 180.578125 228.808594 180.582031 C 228.804688 180.574219 228.789062 180.574219 228.78125 180.570312 C 228.761719 180.566406 228.746094 180.566406 228.726562 180.5625 C 228.367188 180.527344 228.480469 180.472656 228.644531 180.507812 C 228.367188 180.417969 227.941406 180.398438 227.722656 180.351562 C 227.011719 180.203125 226.304688 180.050781 225.59375 179.902344 C 224.589844 179.691406 223.585938 179.433594 222.574219 179.265625 C 220.402344 178.90625 218.105469 178.957031 215.90625 178.816406 C 214.597656 178.734375 213.921875 180.523438 214.839844 181.390625 C 215.847656 182.347656 216.84375 183.308594 217.835938 184.269531 C 216.539062 184.175781 215.238281 184.117188 213.960938 184.015625 C 212.304688 183.882812 212.136719 186.03125 213.199219 186.828125 C 214.484375 187.785156 215.769531 188.742188 217.054688 189.699219 C 217.375 189.9375 217.695312 190.179688 218.015625 190.417969 C 218.085938 190.46875 218.148438 190.527344 218.199219 190.582031 C 218.179688 190.554688 218.164062 190.535156 218.140625 190.5 C 218.476562 190.960938 219.0625 191.351562 219.476562 191.734375 C 220.667969 192.828125 221.816406 194.019531 223.089844 195.015625 C 224.367188 196.011719 225.660156 196.992188 226.945312 197.980469 C 227.828125 198.660156 228.707031 199.25 229.648438 199.84375 C 230.53125 200.402344 231.417969 200.957031 232.300781 201.515625 C 232.585938 201.695312 232.867188 201.878906 233.152344 202.050781 C 233.296875 202.136719 233.351562 202.171875 233.378906 202.1875 C 235.628906 204 237.917969 205.742188 240.097656 207.640625 C 242.394531 209.644531 244.625 211.707031 246.847656 213.789062 C 246.453125 215.53125 246.113281 217.320312 245.539062 218.992188 C 245.09375 220.277344 244.492188 221.523438 243.972656 222.777344 C 243.753906 223.304688 243.535156 223.832031 243.320312 224.355469 C 243.320312 224.355469 243.320312 224.351562 243.324219 224.351562 C 243.320312 224.355469 243.320312 224.359375 243.316406 224.363281 C 243.308594 224.378906 243.304688 224.394531 243.296875 224.410156 C 243.257812 224.511719 243.21875 224.566406 243.1875 224.597656 C 243.167969 224.640625 243.152344 224.683594 243.132812 224.71875 C 242.046875 226.714844 240.832031 228.761719 240.0625 230.90625 C 239.652344 232.039062 239.242188 233.171875 238.835938 234.304688 C 237.355469 236.246094 236.441406 238.492188 235.292969 240.644531 C 234.273438 242.554688 232.734375 244.183594 231.585938 246.015625 C 229.039062 250.082031 226.941406 254.429688 224.460938 258.539062 C 223.769531 259.679688 222.980469 260.804688 222.375 261.992188 C 221.785156 263.140625 221.359375 264.40625 220.863281 265.597656 C 220.570312 266.296875 220.277344 266.996094 219.984375 267.695312 C 219.949219 267.777344 219.855469 267.925781 219.828125 267.972656 C 219.808594 268.003906 219.789062 268.03125 219.78125 268.046875 C 218.964844 269.40625 218.199219 270.800781 217.410156 272.179688 C 217.210938 272.527344 217.011719 272.875 216.8125 273.222656 C 216.042969 274.566406 217.558594 275.988281 218.875 275.289062 C 220.113281 274.625 221.382812 273.980469 222.65625 273.324219 C 222.246094 274.222656 221.835938 275.117188 221.414062 276.011719 C 220.75 277.433594 222.082031 278.691406 223.476562 278.074219 C 227.679688 276.214844 231.933594 274.398438 235.597656 271.574219 C 239.59375 268.492188 243.789062 265.726562 247.785156 262.644531 C 249.710938 261.160156 251.566406 259.582031 253.414062 258.003906 C 253.449219 257.972656 253.496094 257.9375 253.542969 257.90625 C 253.503906 257.929688 253.460938 257.957031 253.40625 257.992188 C 253.539062 257.910156 253.667969 257.804688 253.796875 257.710938 C 254.402344 257.28125 255.007812 256.851562 255.613281 256.421875 C 256.617188 255.710938 257.730469 255.054688 258.660156 254.238281 C 260.328125 252.769531 261.730469 251.003906 263.386719 249.515625 C 265.183594 247.910156 266.984375 246.3125 268.742188 244.664062 C 270.589844 242.929688 272.414062 241.183594 274.203125 239.386719 C 275.746094 237.839844 277.140625 236.226562 278.535156 234.570312 C 278.734375 235.019531 278.929688 235.472656 279.128906 235.921875 C 279.398438 236.539062 279.667969 237.160156 279.9375 237.777344 C 279.992188 237.902344 280.046875 238.027344 280.101562 238.152344 C 280.105469 238.175781 280.113281 238.199219 280.125 238.238281 C 280.808594 240.4375 281.527344 242.742188 282.511719 244.828125 C 284.453125 248.953125 286.691406 252.972656 288.5 257.15625 C 290.390625 261.519531 292.363281 265.792969 294.886719 269.832031 C 295.539062 270.875 296.289062 271.90625 296.863281 272.996094 C 297.375 273.972656 297.75 275.058594 298.183594 276.070312 C 298.589844 277.023438 298.933594 278.054688 299.433594 278.964844 C 300.054688 280.097656 300.894531 281.148438 301.613281 282.222656 C 303.109375 284.460938 304.578125 286.71875 306.050781 288.976562 C 307.40625 291.058594 309.253906 292.847656 310.882812 294.714844 C 311.761719 295.722656 313.460938 294.898438 313.457031 293.648438 C 313.453125 292.257812 313.484375 290.859375 313.476562 289.460938 C 313.507812 289.496094 313.539062 289.535156 313.570312 289.570312 C 313.609375 289.617188 313.648438 289.667969 313.6875 289.71875 C 313.691406 289.714844 313.738281 289.757812 313.84375 289.898438 C 313.851562 289.90625 313.855469 289.914062 313.863281 289.917969 C 313.867188 289.921875 313.871094 289.929688 313.875 289.933594 C 313.871094 289.929688 313.867188 289.925781 313.867188 289.925781 C 314.804688 291.160156 315.746094 292.394531 316.6875 293.628906 C 316.9375 293.953125 317.183594 294.277344 317.429688 294.601562 C 318.261719 295.691406 320.292969 295.488281 320.242188 293.839844 C 320.171875 291.589844 320.257812 289.28125 319.957031 287.050781 C 319.757812 285.574219 319.554688 284.101562 319.355469 282.628906 C 319.320312 282.347656 319.28125 282.0625 319.242188 281.78125 C 319.21875 281.609375 319.242188 281.453125 319.257812 281.480469 C 319.246094 281.089844 319.183594 280.683594 319.160156 280.304688 C 319.011719 277.726562 318.816406 275.285156 318.363281 272.742188 C 317.921875 270.300781 317.53125 267.859375 317.15625 265.40625 C 316.796875 263.050781 316.332031 260.710938 315.890625 258.367188 C 315.867188 258.253906 315.855469 258.109375 315.824219 257.976562 C 315.847656 258.128906 315.84375 258.296875 315.816406 257.976562 C 315.8125 257.953125 315.808594 257.929688 315.808594 257.910156 C 315.800781 257.890625 315.800781 257.863281 315.792969 257.847656 C 315.796875 257.855469 315.800781 257.871094 315.804688 257.886719 C 315.746094 257.210938 315.667969 256.539062 315.597656 255.867188 C 315.472656 254.664062 315.355469 253.457031 315.222656 252.257812 C 314.980469 250.046875 314.851562 247.761719 314.398438 245.589844 C 313.921875 243.296875 313.351562 241.023438 312.851562 238.738281 C 312.230469 235.910156 311.660156 233.097656 311.152344 230.246094 C 311.0625 229.734375 311.027344 229.125 310.886719 228.605469 C 310.902344 228.707031 310.875 228.675781 310.859375 228.507812 C 310.84375 228.464844 310.835938 228.414062 310.820312 228.371094 C 310.839844 228.425781 310.847656 228.457031 310.855469 228.496094 C 310.855469 228.464844 310.847656 228.445312 310.847656 228.398438 C 310.839844 228.046875 310.808594 227.699219 310.789062 227.347656 C 310.722656 226.191406 310.65625 225.03125 310.59375 223.875 C 310.792969 223.789062 310.996094 223.703125 311.195312 223.621094 C 312.515625 223.203125 313.839844 222.785156 315.175781 222.523438 C 317.21875 222.121094 319.324219 221.96875 321.382812 221.664062 C 325.695312 221.023438 329.980469 220.335938 334.167969 219.085938 C 336.300781 218.445312 338.417969 217.796875 340.582031 217.269531 C 341.332031 217.085938 342.078125 216.902344 342.828125 216.71875 C 343.28125 216.609375 344.035156 216.566406 344.449219 216.324219 C 344.449219 216.324219 344.449219 216.320312 344.449219 216.320312 C 344.570312 216.308594 344.691406 216.292969 344.8125 216.28125 C 345.554688 216.199219 346.296875 216.113281 347.039062 216.03125 C 348.195312 215.902344 349.425781 215.882812 350.5625 215.628906 C 351.625 215.386719 352.691406 214.90625 353.726562 214.558594 C 355.855469 213.835938 357.949219 213.296875 360.140625 212.777344 C 361.097656 212.550781 362.023438 212.367188 362.921875 211.96875 C 364.382812 211.320312 365.839844 210.664062 367.296875 210.015625 C 367.46875 209.9375 367.636719 209.863281 367.804688 209.789062 C 367.816406 209.785156 367.820312 209.785156 367.835938 209.78125 C 368.464844 209.648438 369.09375 209.378906 369.703125 209.179688 C 370.972656 208.769531 372.242188 208.359375 373.511719 207.953125 C 374.84375 207.519531 375.042969 205.375 373.511719 205.042969 Z M 221.195312 182.167969 C 221.410156 182.183594 221.628906 182.199219 221.84375 182.210938 C 221.824219 182.199219 221.804688 182.191406 221.78125 182.179688 C 221.804688 182.191406 221.835938 182.199219 221.863281 182.210938 C 222.1875 182.226562 222.136719 182.289062 221.984375 182.257812 C 222.261719 182.34375 222.636719 182.359375 222.867188 182.40625 C 223.578125 182.558594 224.289062 182.707031 225 182.855469 C 226.003906 183.066406 227.007812 183.320312 228.015625 183.492188 C 232.308594 184.21875 236.636719 184.195312 240.957031 184.542969 C 243.035156 184.707031 245.117188 185.085938 247.1875 185.363281 C 247.480469 185.402344 247.328125 185.402344 247.167969 185.375 C 247.246094 185.390625 247.332031 185.402344 247.40625 185.421875 C 248.003906 185.546875 248.601562 185.660156 249.199219 185.78125 C 250.476562 186.035156 251.75 186.3125 253.03125 186.546875 C 257.210938 187.320312 261.40625 187.539062 265.640625 187.710938 C 267.726562 187.796875 269.855469 187.511719 271.9375 187.378906 C 272.855469 187.316406 273.667969 187.339844 274.316406 186.589844 C 275.160156 185.609375 275.9375 184.558594 276.75 183.546875 C 277.441406 182.679688 278.140625 181.820312 278.828125 180.945312 C 279.398438 180.226562 279.71875 179.304688 280.109375 178.480469 C 281.007812 176.59375 281.898438 174.710938 282.769531 172.8125 C 284.523438 168.988281 286.296875 165.183594 288.230469 161.449219 C 290.195312 157.652344 292 153.796875 293.53125 149.804688 C 293.921875 148.785156 294.359375 147.769531 294.703125 146.734375 C 294.429688 147.5625 294.902344 146.394531 295.007812 146.191406 C 295.332031 145.542969 295.660156 144.894531 295.988281 144.242188 C 296.941406 142.347656 297.859375 140.445312 298.753906 138.519531 C 300.082031 135.675781 301.472656 132.863281 302.808594 130.027344 C 302.886719 131.601562 302.976562 133.179688 303.0625 134.753906 C 302.992188 134.894531 302.917969 135.03125 302.847656 135.167969 C 301.578125 137.542969 300.277344 139.847656 298.886719 142.148438 C 298.328125 143.074219 297.710938 143.96875 297.296875 144.96875 C 296.675781 146.46875 296.058594 147.96875 295.4375 149.46875 C 295.320312 149.753906 295.203125 150.042969 295.085938 150.328125 C 295.085938 150.324219 295.085938 150.324219 295.089844 150.320312 C 295.085938 150.320312 295.085938 150.324219 295.082031 150.328125 C 295.082031 150.332031 295.082031 150.332031 295.082031 150.332031 C 294.972656 150.597656 294.902344 150.628906 294.953125 150.519531 C 294.742188 150.859375 294.582031 151.28125 294.402344 151.621094 C 293.660156 153.023438 292.910156 154.425781 292.175781 155.835938 C 291.097656 157.902344 289.90625 159.96875 289 162.117188 C 288.441406 163.453125 287.882812 164.789062 287.324219 166.121094 C 287.097656 166.664062 286.871094 167.203125 286.644531 167.746094 C 286.636719 167.75 286.632812 167.75 286.621094 167.761719 C 286.453125 167.921875 286.339844 168.230469 286.21875 168.429688 C 284.871094 170.667969 283.511719 172.875 282.3125 175.195312 C 281.085938 177.566406 279.867188 179.941406 278.652344 182.324219 C 277.46875 184.648438 276.121094 186.828125 274.753906 189.054688 C 274.691406 189.152344 274.632812 189.25 274.570312 189.347656 C 272.796875 189.285156 271.023438 189.207031 269.246094 189.175781 C 267.207031 189.136719 265.152344 189.265625 263.113281 189.160156 C 261.089844 189.058594 259.066406 188.714844 257.042969 188.527344 C 255.027344 188.34375 253.003906 188.25 250.984375 188.078125 C 242.914062 187.390625 234.914062 185.984375 226.808594 185.6875 C 226.773438 185.683594 226.738281 185.679688 226.699219 185.675781 C 226.785156 185.664062 226.722656 185.628906 226.453125 185.65625 C 226.476562 185.660156 226.492188 185.660156 226.511719 185.664062 C 226.46875 185.664062 226.421875 185.65625 226.382812 185.660156 C 226.410156 185.660156 226.429688 185.65625 226.453125 185.65625 C 225.796875 185.519531 225.136719 185.40625 224.480469 185.285156 C 223.910156 185.175781 223.339844 185.0625 222.769531 184.953125 C 221.820312 183.988281 220.859375 183.03125 219.890625 182.085938 C 220.328125 182.113281 220.761719 182.140625 221.195312 182.167969 Z M 235.882812 200.34375 C 233.839844 198.734375 231.457031 197.621094 229.378906 196.074219 C 227.929688 194.996094 226.511719 193.871094 225.078125 192.769531 C 225.015625 192.722656 224.957031 192.671875 224.890625 192.625 C 224.839844 192.570312 224.652344 192.402344 224.570312 192.324219 C 223.882812 191.695312 223.199219 191.0625 222.511719 190.429688 C 221.363281 189.371094 220.171875 188.386719 218.957031 187.433594 C 219.3125 187.464844 219.832031 187.59375 220.203125 187.542969 C 220.335938 187.566406 220.472656 187.589844 220.605469 187.617188 C 220.839844 187.660156 221.078125 187.707031 221.3125 187.75 C 221.566406 188.011719 221.828125 188.261719 222.082031 188.523438 C 224.214844 190.753906 226.6875 192.609375 229.21875 194.375 C 234.546875 198.09375 240.125 201.453125 245.417969 205.214844 C 248.207031 207.199219 251.019531 209.039062 253.910156 210.839844 C 253.089844 212.371094 252.285156 213.925781 251.308594 215.347656 C 250.40625 216.660156 249.503906 217.976562 248.601562 219.292969 C 249.199219 217.476562 249.511719 215.519531 249.964844 213.679688 C 250.09375 213.164062 249.976562 212.582031 249.578125 212.210938 C 245.148438 208.058594 240.648438 204.101562 235.882812 200.34375 Z M 222.125 270.125 C 222.375 269.648438 222.609375 269.164062 222.816406 268.675781 C 223.414062 267.25 224.007812 265.828125 224.605469 264.40625 C 224.722656 264.125 224.839844 263.84375 224.957031 263.5625 C 224.992188 263.480469 225.082031 263.332031 225.125 263.261719 C 225.144531 263.234375 225.164062 263.207031 225.171875 263.191406 C 225.363281 262.894531 225.539062 262.585938 225.722656 262.285156 C 228.0625 258.410156 230.269531 254.464844 232.496094 250.527344 C 231.683594 252.429688 230.90625 254.320312 230.214844 256.28125 C 229.949219 257.027344 229.6875 257.769531 229.425781 258.515625 C 229.351562 258.722656 229.273438 258.929688 229.207031 259.136719 C 229.1875 259.191406 229.171875 259.222656 229.160156 259.261719 C 229.179688 259.21875 229.199219 259.179688 229.234375 259.109375 C 229.207031 259.164062 229.179688 259.222656 229.152344 259.277344 C 229.113281 259.378906 229.09375 259.40625 229.113281 259.355469 C 228.582031 260.375 228.125 261.441406 227.628906 262.476562 C 226.652344 264.523438 225.710938 266.589844 224.773438 268.65625 C 223.894531 269.15625 223.011719 269.640625 222.125 270.125 Z M 256.640625 252.007812 C 256.617188 252.023438 256.597656 252.039062 256.574219 252.054688 C 256.671875 251.964844 256.945312 251.804688 256.640625 252.007812 Z M 268.542969 240.714844 C 264.902344 244.132812 261.164062 247.421875 257.652344 250.972656 C 257.328125 251.296875 256.8125 251.664062 256.566406 252.0625 C 256.359375 252.203125 256.15625 252.351562 255.949219 252.496094 C 254.695312 253.390625 253.433594 254.277344 252.179688 255.175781 C 251.355469 255.769531 250.59375 256.449219 249.8125 257.101562 C 249.171875 257.644531 248.527344 258.183594 247.886719 258.722656 C 247.664062 258.90625 247.445312 259.089844 247.226562 259.277344 C 247.015625 259.453125 246.875 259.578125 247.097656 259.398438 C 245.449219 260.738281 243.757812 262.09375 241.996094 263.289062 C 240.011719 264.632812 238.003906 265.941406 236.105469 267.40625 C 234.984375 268.269531 233.890625 269.214844 232.722656 270.011719 C 231.820312 270.632812 230.804688 271.121094 229.851562 271.664062 C 228.496094 272.4375 227.132812 273.113281 225.746094 273.761719 C 226.160156 272.835938 226.578125 271.910156 226.996094 270.980469 C 228.390625 270.175781 229.753906 269.324219 231.03125 268.382812 C 235.222656 265.296875 239.371094 262.164062 243.457031 258.945312 C 243.878906 258.613281 244.308594 258.285156 244.722656 257.945312 C 244.730469 257.941406 244.730469 257.941406 244.738281 257.933594 C 244.957031 257.773438 245.171875 257.609375 245.386719 257.445312 C 246.648438 256.5 247.90625 255.558594 249.164062 254.613281 C 249.980469 254 250.75 253.332031 251.53125 252.675781 C 252.191406 252.121094 252.851562 251.566406 253.507812 251.011719 C 253.742188 250.816406 253.976562 250.621094 254.210938 250.425781 C 254.25 250.390625 254.285156 250.363281 254.320312 250.335938 C 254.296875 250.347656 254.277344 250.359375 254.246094 250.375 C 254.28125 250.355469 254.316406 250.332031 254.351562 250.316406 C 254.453125 250.246094 254.515625 250.214844 254.507812 250.226562 C 255.550781 249.671875 256.539062 248.859375 257.511719 248.21875 C 258.355469 247.664062 259.21875 247.136719 259.996094 246.496094 C 261.226562 245.476562 262.445312 244.449219 263.671875 243.425781 C 263.871094 243.261719 264.070312 243.101562 264.265625 242.929688 C 264.28125 242.917969 264.289062 242.910156 264.300781 242.898438 C 264.71875 242.609375 265.121094 242.289062 265.527344 241.988281 C 267.425781 240.578125 269.28125 239.28125 271.277344 238.058594 C 270.378906 238.953125 269.472656 239.847656 268.542969 240.714844 Z M 311.539062 246.546875 C 311.542969 246.585938 311.546875 246.621094 311.550781 246.660156 C 311.527344 246.582031 311.488281 246.109375 311.539062 246.546875 Z M 311.4375 246.160156 C 311.464844 246.28125 311.476562 246.558594 311.550781 246.667969 C 311.714844 248.140625 311.898438 249.609375 312.070312 251.078125 C 312.339844 253.375 312.542969 255.679688 312.800781 257.976562 C 313.042969 260.167969 313.617188 262.324219 313.988281 264.5 C 314.351562 266.644531 314.605469 268.808594 314.988281 270.953125 C 315.265625 272.496094 315.542969 274.039062 315.820312 275.585938 C 315.847656 275.734375 315.867188 275.898438 315.898438 276.050781 C 315.871094 276.628906 315.96875 277.242188 316.003906 277.820312 C 316.175781 280.800781 316.484375 283.6875 316.882812 286.644531 C 316.933594 287.011719 316.984375 287.375 317.03125 287.742188 C 317.035156 287.761719 317.035156 287.777344 317.039062 287.796875 C 317.039062 287.792969 317.039062 287.792969 317.039062 287.789062 C 317.039062 287.792969 317.039062 287.796875 317.039062 287.796875 C 317.058594 288.019531 317.019531 288.128906 317.003906 288.09375 C 316.984375 288.4375 317.035156 288.824219 317.066406 289.171875 C 316.660156 288.648438 316.265625 288.117188 315.84375 287.605469 C 314.972656 286.550781 314.089844 285.511719 313.210938 284.46875 C 313.078125 283.089844 312.9375 281.707031 312.878906 280.324219 C 312.6875 275.671875 312.273438 270.992188 312.292969 266.339844 C 312.300781 263.972656 312.324219 261.652344 312.125 259.296875 C 311.925781 256.902344 311.75 254.535156 311.667969 252.132812 C 311.597656 250.09375 311.5 248.058594 311.40625 246.027344 C 311.417969 246.070312 311.429688 246.113281 311.4375 246.160156 Z M 309.222656 288.242188 C 309.160156 288.167969 309.09375 288.09375 309.027344 288.019531 C 309.09375 288.105469 309.082031 288.109375 309.003906 287.988281 C 308.964844 287.945312 308.929688 287.898438 308.886719 287.855469 C 308.933594 287.90625 308.96875 287.945312 308.996094 287.980469 C 308.980469 287.957031 308.972656 287.945312 308.953125 287.910156 C 307.804688 285.957031 306.480469 284.082031 305.21875 282.195312 C 303.949219 280.300781 302.472656 278.472656 301.570312 276.371094 C 300.644531 274.21875 299.832031 272.058594 298.589844 270.070312 C 297.28125 267.972656 296.046875 265.851562 294.898438 263.6875 C 296.261719 265.761719 297.628906 267.832031 299.066406 269.851562 C 301.835938 273.742188 304.792969 277.488281 307.421875 281.476562 C 308.171875 282.617188 308.886719 283.796875 309.679688 284.910156 C 309.875 285.179688 310.078125 285.445312 310.289062 285.707031 C 310.3125 285.96875 310.332031 286.226562 310.351562 286.488281 C 310.441406 287.539062 310.460938 288.601562 310.464844 289.660156 C 310.050781 289.1875 309.636719 288.714844 309.222656 288.242188 Z M 328.289062 217.386719 C 329.0625 217.1875 329.84375 217.007812 330.652344 216.824219 C 330.820312 216.785156 330.996094 216.75 331.167969 216.714844 C 330.210938 216.953125 329.25 217.179688 328.289062 217.386719 Z M 366.5 207.085938 C 365.359375 207.578125 364.234375 208.097656 363.101562 208.601562 C 362.535156 208.855469 361.964844 209.109375 361.398438 209.363281 C 361.371094 209.375 361.34375 209.386719 361.316406 209.402344 C 361.238281 209.417969 361.121094 209.449219 361.058594 209.460938 C 358.996094 209.816406 356.828125 210.328125 354.839844 211 C 353.457031 211.46875 352.074219 211.933594 350.691406 212.402344 C 350.527344 212.460938 349.738281 212.6875 349.839844 212.707031 C 349.507812 212.75 349.171875 212.777344 348.839844 212.8125 C 346.539062 213.070312 344.273438 213.261719 342.027344 213.8125 C 339.828125 214.347656 337.65625 214.890625 335.492188 215.539062 C 335.015625 215.683594 334.535156 215.804688 334.058594 215.941406 C 334.578125 215.730469 335.09375 215.488281 335.605469 215.277344 C 337.261719 214.597656 338.914062 213.910156 340.585938 213.269531 C 342.269531 212.625 343.9375 211.917969 345.652344 211.355469 C 347.617188 210.710938 349.675781 210.191406 351.574219 209.375 C 352.632812 208.921875 353.6875 208.457031 354.742188 207.996094 C 355.371094 207.722656 356 207.449219 356.625 207.175781 C 356.765625 207.113281 356.910156 207.050781 357.050781 206.988281 C 358.898438 206.511719 360.71875 205.738281 362.523438 205.058594 C 363.867188 205.589844 365.183594 206.207031 366.558594 206.617188 C 366.785156 206.683594 367.015625 206.738281 367.246094 206.796875 C 366.996094 206.894531 366.742188 206.980469 366.5 207.085938 Z M 366.5 207.085938 " fill-opacity="1" fill-rule="nonzero"/><path fill="#626262" d="M 190.28125 210.109375 C 186.085938 209.855469 181.9375 209.503906 177.757812 209.09375 C 173.660156 208.691406 169.519531 208.257812 165.402344 208.109375 C 163.359375 208.035156 161.273438 208.332031 159.234375 208.433594 C 157.1875 208.535156 155.128906 208.507812 153.082031 208.539062 C 148.992188 208.601562 144.917969 208.585938 140.828125 208.726562 C 136.703125 208.871094 132.578125 209.046875 128.453125 209.226562 C 127.46875 207.496094 126.492188 205.757812 125.484375 204.035156 C 124.164062 201.773438 122.992188 199.46875 121.257812 197.5 C 120.25 196.355469 119.296875 195.058594 118.183594 194.011719 C 118.082031 193.839844 117.953125 193.675781 117.84375 193.515625 C 117.355469 192.800781 116.867188 192.085938 116.378906 191.367188 C 114.839844 189.113281 113.175781 187.097656 111.394531 185.019531 C 108.277344 181.378906 105.3125 177.585938 102.132812 174 C 100.589844 172.261719 98.929688 170.636719 97.390625 168.898438 C 95.679688 166.96875 94.003906 165.023438 92.191406 163.195312 C 90.691406 161.675781 89.21875 160.148438 87.765625 158.59375 C 85.816406 156.304688 83.871094 154.015625 82.003906 151.65625 C 81.945312 151.585938 81.890625 151.511719 81.835938 151.4375 C 81.582031 151.097656 81.328125 150.757812 81.074219 150.421875 C 80.972656 150.285156 80.847656 150.167969 80.707031 150.070312 C 80.386719 149.753906 79.976562 149.664062 79.574219 149.75 C 78.855469 149.785156 78.207031 150.246094 78.265625 151.183594 C 78.265625 151.183594 78.265625 151.1875 78.265625 151.191406 C 78.265625 151.210938 78.253906 151.226562 78.253906 151.246094 C 78.25 153.660156 78.125 156.101562 78.328125 158.511719 C 78.421875 159.597656 78.542969 160.691406 78.632812 161.78125 C 78.652344 164.007812 78.636719 166.238281 78.5625 168.480469 C 78.554688 168.84375 78.542969 169.207031 78.539062 169.570312 C 78.460938 172.429688 78.457031 175.289062 78.433594 178.148438 C 78.265625 179.523438 78.03125 180.898438 77.984375 182.277344 C 77.90625 184.660156 77.984375 187.058594 77.984375 189.445312 C 77.863281 191.03125 77.726562 192.613281 77.582031 194.203125 C 77.363281 196.59375 76.730469 199.050781 76.84375 201.453125 C 76.925781 203.230469 77.101562 205.035156 77.089844 206.816406 C 77.089844 207.335938 77.035156 207.863281 76.96875 208.390625 C 76.761719 209.824219 76.492188 211.257812 76.433594 212.691406 C 76.234375 214.878906 76.132812 217.070312 76 219.269531 C 75.910156 220.730469 75.804688 222.191406 75.707031 223.652344 C 75.675781 224.136719 75.574219 224.6875 75.574219 225.191406 C 75.585938 225.144531 75.609375 225.253906 75.582031 225.464844 C 75.585938 225.476562 75.582031 225.488281 75.585938 225.5 C 75.582031 225.488281 75.582031 225.484375 75.582031 225.472656 C 75.582031 225.492188 75.578125 225.503906 75.578125 225.523438 C 75.515625 225.9375 75.457031 226.347656 75.394531 226.761719 C 75.21875 227.949219 75.082031 229.125 74.941406 230.304688 C 70.578125 231.609375 66.21875 232.941406 61.804688 234.050781 C 59.105469 234.726562 56.535156 235.445312 53.910156 236.363281 C 52.921875 236.710938 51.933594 237.140625 50.914062 237.378906 C 49.363281 237.738281 47.789062 238.011719 46.230469 238.332031 C 43.761719 238.832031 41.4375 239.835938 39.066406 240.671875 C 36.921875 241.425781 34.714844 242.003906 32.542969 242.675781 C 30.25 243.386719 27.972656 244.1875 25.652344 244.808594 C 23.085938 245.5 20.574219 246.089844 18.152344 247.179688 C 16.769531 247.800781 15.320312 248.351562 13.980469 249.058594 C 13.773438 249.140625 13.566406 249.226562 13.359375 249.3125 C 12.53125 249.652344 11.703125 249.992188 10.875 250.332031 C 8.363281 251.367188 5.894531 252.480469 3.421875 253.609375 C 3.007812 253.800781 2.59375 253.988281 2.179688 254.179688 C 1.191406 254.628906 1.191406 256.332031 2.179688 256.785156 C 3.957031 257.597656 5.726562 258.457031 7.527344 259.230469 C 5.800781 259.945312 4.085938 260.679688 2.390625 261.476562 C 1.953125 261.679688 1.519531 261.886719 1.082031 262.09375 C 0.0195312 262.589844 0.179688 264.15625 1.082031 264.695312 C 2.074219 265.292969 3.066406 265.890625 4.058594 266.488281 C 4.929688 267.011719 5.796875 267.664062 6.75 268.027344 C 8.742188 268.785156 10.773438 269.472656 12.796875 270.152344 C 16.972656 271.546875 21.152344 272.726562 25.402344 273.875 C 27.566406 274.457031 29.703125 275.078125 31.90625 275.484375 C 34.207031 275.910156 36.460938 276.339844 38.722656 276.929688 C 43.113281 278.078125 47.390625 279.535156 51.8125 280.546875 C 56.320312 281.582031 60.808594 282.71875 65.300781 283.8125 C 66.109375 284.566406 67.152344 284.144531 67.597656 283.390625 C 67.601562 283.382812 67.605469 283.378906 67.609375 283.371094 C 67.628906 283.335938 67.652344 283.300781 67.671875 283.261719 C 68.105469 282.484375 67.941406 281.363281 66.839844 281.085938 C 66.175781 280.40625 65.507812 279.730469 64.839844 279.054688 C 64.164062 278.367188 63.480469 277.421875 62.628906 276.941406 C 61.425781 276.257812 60.035156 275.789062 58.765625 275.226562 C 57.933594 274.859375 57.101562 274.46875 56.25 274.136719 C 54.164062 273.328125 52.046875 272.601562 49.984375 271.730469 C 47.898438 270.855469 45.84375 269.824219 43.65625 269.226562 C 41.429688 268.617188 39.207031 268.082031 37.058594 267.238281 C 34.902344 266.394531 32.75 265.546875 30.589844 264.714844 C 28.378906 263.859375 26.265625 263.101562 23.980469 262.492188 C 23.269531 262.300781 22.554688 262.109375 21.84375 261.917969 C 21.5625 261.84375 21.28125 261.757812 21 261.695312 C 20.882812 261.667969 20.625 261.582031 20.601562 261.582031 C 19.585938 261.152344 18.585938 260.667969 17.578125 260.214844 C 16.875 259.894531 16.160156 259.597656 15.449219 259.292969 C 15.839844 259.132812 16.234375 258.984375 16.625 258.824219 C 19.09375 257.820312 21.5625 256.828125 24.039062 255.84375 C 26.074219 255.035156 28.199219 254.109375 30.324219 253.585938 C 31.871094 253.203125 33.445312 252.910156 35.003906 252.574219 C 36.03125 252.351562 36.917969 251.960938 37.882812 251.550781 C 39.109375 251.023438 40.332031 250.425781 41.582031 249.957031 C 41.585938 249.960938 41.667969 249.945312 41.839844 249.90625 C 42.175781 249.828125 42.507812 249.722656 42.84375 249.632812 C 43.738281 249.390625 44.636719 249.144531 45.535156 248.902344 C 50.144531 247.648438 54.546875 245.601562 59.222656 244.574219 C 60.824219 244.21875 62.429688 243.867188 64.035156 243.511719 C 65.011719 243.296875 65.910156 242.863281 66.835938 242.488281 C 67.984375 242.023438 69.128906 241.484375 70.308594 241.09375 C 71.769531 240.609375 73.28125 240.25 74.765625 239.828125 C 75.226562 239.695312 75.6875 239.566406 76.148438 239.433594 C 76.824219 239.242188 77.210938 238.652344 77.257812 237.980469 C 77.367188 236.414062 77.472656 234.847656 77.582031 233.28125 C 77.609375 232.921875 77.632812 232.5625 77.65625 232.199219 C 77.78125 231.976562 77.871094 231.722656 77.90625 231.441406 C 78.089844 230.027344 78.273438 228.609375 78.457031 227.195312 C 78.535156 226.582031 78.628906 225.964844 78.695312 225.351562 C 78.734375 225.070312 78.769531 224.792969 78.808594 224.511719 C 79.03125 222.90625 79.253906 221.296875 79.476562 219.691406 C 79.640625 218.480469 79.515625 217.226562 79.492188 216.011719 C 79.46875 214.894531 79.359375 213.746094 79.464844 212.636719 C 79.617188 210.960938 79.875 209.292969 80.078125 207.625 C 80.363281 205.296875 80.320312 202.933594 80.472656 200.59375 C 80.636719 198.097656 80.957031 195.621094 80.976562 193.121094 C 80.988281 192.097656 80.984375 191.074219 80.988281 190.050781 C 81.042969 189.339844 81.105469 188.625 81.144531 187.914062 C 81.304688 184.695312 81.371094 181.484375 81.414062 178.273438 C 81.480469 177.621094 81.542969 176.96875 81.601562 176.308594 C 81.75 174.609375 81.574219 172.890625 81.511719 171.175781 C 81.519531 170.769531 81.523438 170.367188 81.53125 169.960938 C 81.582031 167.378906 81.757812 164.804688 81.726562 162.222656 C 81.707031 160.183594 81.636719 158.160156 81.546875 156.136719 C 81.964844 156.671875 82.386719 157.199219 82.835938 157.703125 C 83.949219 158.957031 85.085938 160.191406 86.238281 161.410156 C 87.015625 162.3125 87.789062 163.222656 88.542969 164.15625 C 89.066406 164.804688 89.589844 165.453125 90.117188 166.101562 C 90.148438 166.140625 90.230469 166.25 90.289062 166.328125 C 90.34375 166.414062 90.40625 166.503906 90.429688 166.539062 C 91.367188 167.90625 92.300781 169.269531 93.238281 170.636719 C 94.515625 172.5 95.972656 174.238281 97.28125 176.078125 C 98.773438 178.167969 100.15625 180.328125 101.710938 182.367188 C 103.417969 184.605469 105.003906 186.824219 106.535156 189.183594 C 107.984375 191.40625 109.28125 193.714844 110.695312 195.960938 C 111.875 197.824219 113.566406 199.449219 114.546875 201.425781 C 115.277344 202.90625 115.972656 204.410156 116.6875 205.898438 C 117.164062 206.894531 117.886719 207.691406 118.570312 208.554688 C 119.144531 209.273438 119.71875 209.996094 120.289062 210.71875 C 120.484375 210.960938 120.675781 211.203125 120.867188 211.445312 C 121.191406 211.847656 120.863281 211.566406 120.851562 211.429688 C 120.898438 211.933594 121.457031 212.648438 121.683594 213.101562 C 122.09375 213.925781 122.503906 214.753906 122.910156 215.578125 C 123.035156 215.832031 123.164062 216.082031 123.289062 216.335938 C 123.355469 216.714844 123.550781 217.0625 123.867188 217.289062 C 124.234375 217.632812 124.710938 217.6875 125.152344 217.546875 C 127.113281 217.550781 129.074219 217.550781 131.035156 217.5625 C 133.125 217.570312 135.253906 217.726562 137.339844 217.597656 C 139.464844 217.46875 141.601562 217.027344 143.714844 216.738281 C 143.714844 216.742188 143.707031 216.742188 143.707031 216.746094 C 143.785156 216.800781 144.050781 216.769531 144.140625 216.777344 C 144.796875 216.824219 145.449219 216.871094 146.105469 216.921875 C 147.355469 217.015625 148.609375 217.136719 149.863281 217.199219 C 153.996094 217.402344 158.15625 217.179688 162.292969 217.125 C 164.332031 217.101562 166.40625 217.375 168.441406 217.511719 C 168.578125 217.523438 168.796875 217.582031 168.933594 217.546875 C 169.355469 217.605469 169.773438 217.660156 170.195312 217.71875 C 171.570312 217.90625 172.945312 218.097656 174.320312 218.285156 C 176.285156 218.554688 178.292969 218.378906 180.28125 218.34375 C 180.058594 218.53125 179.832031 218.71875 179.613281 218.910156 C 176.539062 221.613281 173.707031 224.671875 170.824219 227.574219 C 169.394531 229.011719 168.0625 230.558594 166.695312 232.054688 C 165.335938 233.539062 163.824219 234.890625 162.375 236.285156 C 159.496094 239.058594 156.6875 241.902344 153.890625 244.757812 C 151.4375 247.261719 149.148438 249.902344 146.9375 252.613281 C 146.089844 253.570312 145.269531 254.570312 144.457031 255.519531 C 143.703125 256.398438 143.917969 257.207031 144.183594 258.15625 C 144.332031 258.835938 144.535156 259.519531 144.664062 260.148438 C 144.851562 261.0625 144.96875 262.027344 145.234375 262.921875 C 145.460938 263.6875 145.796875 264.441406 146.125 265.1875 C 146.496094 266.347656 146.890625 267.503906 147.261719 268.660156 C 147.921875 270.730469 149.128906 272.636719 150.121094 274.5625 C 150.246094 274.800781 150.359375 275.058594 150.492188 275.300781 C 150.445312 275.183594 150.480469 275.171875 150.542969 275.378906 C 150.546875 275.386719 150.550781 275.398438 150.550781 275.40625 C 150.574219 275.441406 150.589844 275.484375 150.613281 275.515625 C 150.589844 275.480469 150.578125 275.453125 150.558594 275.421875 C 150.625 275.636719 150.707031 275.847656 150.78125 276.058594 C 151.25 277.40625 151.71875 278.757812 152.191406 280.105469 C 152.902344 282.152344 153.84375 284.109375 154.722656 286.089844 C 155.546875 287.945312 156.339844 289.8125 157.140625 291.675781 C 157.363281 292.195312 157.585938 292.714844 157.808594 293.234375 C 157.816406 293.253906 157.828125 293.285156 157.839844 293.316406 C 157.871094 293.402344 157.902344 293.496094 157.917969 293.53125 C 158.378906 294.804688 158.867188 296.070312 159.34375 297.34375 C 160.335938 300 161.433594 302.617188 162.59375 305.207031 C 161.554688 304.351562 160.503906 303.507812 159.4375 302.691406 C 157.476562 301.191406 155.546875 299.722656 153.484375 298.371094 C 152.816406 297.929688 152.148438 297.488281 151.480469 297.050781 C 151.261719 296.90625 151.046875 296.753906 150.824219 296.621094 C 150.808594 296.609375 150.800781 296.605469 150.785156 296.597656 C 149.820312 295.675781 148.683594 294.878906 147.65625 294.03125 C 144.027344 291.050781 139.78125 288.929688 135.878906 286.332031 C 134.125 285.167969 132.472656 283.84375 130.730469 282.664062 C 128.792969 281.355469 126.839844 280.078125 124.914062 278.757812 C 122.511719 277.113281 120.128906 275.578125 117.617188 274.109375 C 117.105469 273.8125 116.535156 273.34375 115.972656 273.148438 C 116.265625 273.25 116.316406 273.421875 115.980469 273.152344 C 115.707031 272.933594 115.429688 272.71875 115.15625 272.5 C 113.996094 271.578125 112.835938 270.65625 111.675781 269.734375 C 110.929688 269.144531 109.835938 269.121094 109.304688 270.039062 C 106.4375 275.015625 103.40625 279.882812 100.410156 284.78125 C 99.160156 286.824219 98.457031 289.167969 97.25 291.230469 C 96.367188 292.742188 95.40625 294.210938 94.488281 295.699219 C 93.859375 296.714844 93.460938 297.871094 92.988281 298.964844 C 91.828125 301.660156 90.585938 304.308594 89.273438 306.933594 C 88.199219 309.085938 86.699219 311.011719 85.636719 313.175781 C 84.28125 315.941406 82.90625 318.664062 81.4375 321.367188 C 80.898438 322.351562 80.382812 323.316406 79.921875 324.339844 C 79.519531 325.234375 79.113281 326.128906 78.710938 327.019531 C 78.546875 327.382812 77.886719 328.335938 77.933594 328.742188 C 77.914062 328.570312 78.242188 328.332031 77.933594 328.742188 C 77.917969 328.761719 77.910156 328.773438 77.898438 328.792969 C 77.652344 329.105469 77.410156 329.417969 77.167969 329.730469 C 76.554688 330.515625 75.945312 331.300781 75.332031 332.085938 C 74.953125 332.570312 74.46875 333.0625 74.160156 333.59375 C 73.863281 334.101562 73.699219 334.75 73.488281 335.289062 C 73.128906 336.214844 72.769531 337.136719 72.410156 338.0625 C 72.332031 338.265625 72.25 338.46875 72.171875 338.671875 C 71.773438 339.3125 71.375 339.953125 70.976562 340.59375 C 70.957031 340.300781 70.9375 340.011719 70.917969 339.71875 C 70.808594 338.207031 70.90625 336.699219 70.949219 335.183594 C 71.007812 333.210938 70.902344 331.257812 70.808594 329.304688 C 70.933594 328.109375 71.070312 326.894531 71.019531 325.722656 C 70.976562 324.703125 70.855469 323.6875 70.726562 322.667969 C 70.75 321.683594 70.777344 320.695312 70.769531 319.710938 C 70.761719 318.546875 70.636719 317.371094 70.515625 316.203125 C 70.554688 315.691406 70.597656 315.183594 70.621094 314.683594 C 70.730469 312.589844 70.378906 310.539062 70.117188 308.476562 C 70.109375 307.554688 70.105469 306.632812 70.105469 305.714844 C 70.105469 303.804688 70.242188 301.847656 70.082031 299.945312 C 69.96875 298.570312 69.804688 297.195312 69.640625 295.820312 C 69.628906 295.132812 69.613281 294.441406 69.601562 293.75 C 69.589844 292.863281 68.949219 292.382812 68.261719 292.308594 C 68.144531 292.28125 68.023438 292.257812 67.890625 292.257812 C 67.144531 292.25 66.292969 292.957031 66.382812 293.765625 C 66.460938 294.492188 66.542969 295.21875 66.625 295.945312 C 66.667969 298.675781 66.71875 301.410156 66.804688 304.140625 C 66.847656 305.464844 66.929688 306.734375 67.078125 308.035156 C 67.078125 309.808594 67.101562 311.585938 67.234375 313.34375 C 67.304688 314.304688 67.40625 315.269531 67.503906 316.230469 C 67.425781 317.269531 67.351562 318.308594 67.363281 319.34375 C 67.378906 320.605469 67.554688 321.890625 67.71875 323.164062 C 67.703125 323.632812 67.691406 324.105469 67.683594 324.574219 C 67.664062 325.953125 67.746094 327.332031 67.832031 328.710938 C 67.699219 330.308594 67.519531 331.90625 67.582031 333.511719 C 67.738281 337.492188 67.980469 341.453125 68.257812 345.425781 C 68.363281 346.917969 70.230469 347.480469 71.070312 346.1875 C 72.277344 344.320312 73.609375 342.515625 74.589844 340.53125 C 76.167969 338.011719 77.734375 335.484375 79.25 332.929688 C 81.851562 328.546875 84.734375 324.285156 87.714844 320.152344 C 89.195312 318.101562 90.820312 316.167969 92.121094 313.996094 C 93.605469 311.515625 95.117188 309.136719 96.765625 306.765625 C 98.28125 304.59375 99.816406 302.367188 101.097656 300.046875 C 101.121094 300 101.136719 299.972656 101.148438 299.949219 C 101.25 299.816406 101.355469 299.6875 101.460938 299.554688 C 102.003906 298.871094 102.546875 298.191406 103.089844 297.507812 C 103.804688 296.609375 104.664062 295.726562 105.210938 294.710938 C 106.519531 292.28125 107.625 289.855469 109.167969 287.5625 C 110.722656 285.25 112.082031 282.929688 113.429688 280.496094 C 114.714844 281.539062 116 282.589844 117.347656 283.535156 C 119.289062 284.886719 121.265625 286.191406 123.253906 287.472656 C 125.382812 288.847656 127.507812 290.222656 129.601562 291.648438 C 130.289062 292.117188 130.976562 292.585938 131.664062 293.050781 C 131.886719 293.203125 132.101562 293.367188 132.332031 293.507812 C 132.355469 293.523438 132.367188 293.527344 132.382812 293.539062 C 133.449219 294.421875 134.5625 295.257812 135.648438 296.117188 C 137.636719 297.691406 139.648438 299.234375 141.660156 300.78125 C 142.386719 301.34375 143.1875 301.78125 143.976562 302.25 C 144.714844 302.691406 145.457031 303.132812 146.195312 303.574219 C 146.5 303.757812 146.867188 304.054688 147.21875 304.222656 C 147.117188 304.15625 147.179688 304.132812 147.386719 304.292969 C 147.398438 304.296875 147.410156 304.304688 147.421875 304.308594 C 147.40625 304.300781 147.402344 304.296875 147.386719 304.292969 C 147.402344 304.304688 147.40625 304.304688 147.421875 304.316406 C 147.667969 304.519531 147.917969 304.71875 148.167969 304.921875 C 148.835938 305.460938 149.5 306 150.167969 306.539062 C 150.953125 307.179688 151.726562 307.835938 152.550781 308.425781 C 153.828125 309.339844 155.101562 310.25 156.375 311.160156 C 156.585938 311.3125 156.789062 311.464844 157 311.609375 C 157.050781 311.644531 157.085938 311.667969 157.109375 311.683594 C 157.515625 311.992188 157.917969 312.308594 158.320312 312.621094 C 160.363281 314.199219 162.351562 315.789062 164.308594 317.46875 C 166.257812 319.136719 168.035156 320.910156 169.84375 322.738281 C 170.140625 323.035156 170.4375 323.332031 170.734375 323.632812 C 171.714844 324.625 173.859375 323.617188 173.253906 322.164062 C 172.105469 319.414062 171.007812 316.617188 169.84375 313.859375 C 170.199219 313.523438 170.375 313.03125 170.144531 312.464844 C 168.578125 308.574219 167 304.707031 165.234375 300.894531 C 165.234375 300.890625 165.234375 300.890625 165.230469 300.886719 C 165.21875 300.851562 165.207031 300.8125 165.183594 300.746094 C 164.988281 300.1875 164.777344 299.632812 164.570312 299.074219 C 164.140625 297.898438 163.722656 296.714844 163.277344 295.546875 C 162.539062 293.597656 161.59375 291.714844 160.746094 289.8125 C 159.9375 288 158.960938 286.257812 158.0625 284.488281 C 157.167969 282.726562 156.410156 280.886719 155.59375 279.082031 C 153.964844 275.472656 152.414062 271.859375 150.683594 268.296875 C 150.578125 268.074219 150.09375 266.96875 150.398438 267.757812 C 150.238281 267.34375 150.070312 266.9375 149.90625 266.527344 C 149.664062 265.917969 149.414062 265.304688 149.164062 264.695312 C 149.015625 264.238281 148.863281 263.785156 148.71875 263.328125 C 148.15625 261.574219 147.707031 259.785156 147.253906 258 C 147.207031 257.722656 147.160156 257.445312 147.113281 257.171875 C 147.558594 256.617188 148.003906 256.0625 148.449219 255.511719 C 149.132812 254.726562 149.828125 253.945312 150.546875 253.191406 C 151.855469 251.820312 153.488281 250.679688 154.9375 249.460938 C 157.699219 247.144531 160.296875 244.710938 162.726562 242.054688 C 163.953125 240.714844 165.113281 239.539062 166.492188 238.375 C 167.890625 237.199219 169.304688 236.050781 170.625 234.789062 C 173.417969 232.105469 176.214844 229.433594 179.210938 226.972656 C 180.863281 225.621094 182.644531 224.414062 184.269531 223.03125 C 185.910156 221.628906 187.453125 220.082031 189.035156 218.617188 C 190.089844 217.640625 189.171875 216.175781 187.96875 216.039062 C 187.886719 216.03125 187.800781 216.019531 187.71875 216.007812 C 188.9375 214.910156 190.136719 213.789062 191.347656 212.683594 C 192.375 211.75 191.511719 210.183594 190.28125 210.109375 Z M 20.574219 264.703125 C 22.777344 265.292969 25.015625 265.78125 27.144531 266.605469 C 31.445312 268.261719 35.703125 270.179688 40.152344 271.398438 C 41.386719 271.734375 42.664062 272.007812 43.875 272.414062 C 44.792969 272.722656 45.679688 273.167969 46.570312 273.542969 C 48.722656 274.449219 50.878906 275.308594 53.0625 276.140625 C 53.824219 276.429688 54.585938 276.726562 55.351562 277.011719 C 55.476562 277.054688 55.601562 277.117188 55.726562 277.152344 C 55.695312 277.144531 55.675781 277.140625 55.648438 277.132812 C 55.6875 277.144531 55.726562 277.160156 55.757812 277.171875 C 57.28125 277.855469 58.808594 278.527344 60.335938 279.203125 C 60.523438 279.289062 60.804688 279.476562 61.023438 279.519531 C 61.058594 279.570312 61.089844 279.625 61.132812 279.675781 C 58.949219 279.132812 56.761719 278.597656 54.570312 278.085938 C 52.460938 277.597656 50.292969 277.226562 48.226562 276.574219 C 46.117188 275.910156 44.023438 275.199219 41.886719 274.640625 C 39.714844 274.070312 37.574219 273.472656 35.371094 273.066406 C 33.136719 272.652344 30.953125 272.246094 28.761719 271.65625 C 24.386719 270.476562 20.003906 269.363281 15.703125 267.9375 C 13.214844 267.113281 10.742188 266.242188 8.269531 265.371094 C 8.085938 265.304688 7.898438 265.226562 7.710938 265.167969 C 7.707031 265.167969 7.707031 265.167969 7.703125 265.164062 C 7.257812 264.746094 6.546875 264.464844 6.027344 264.152344 C 5.695312 263.953125 5.363281 263.753906 5.03125 263.554688 C 5.492188 263.339844 5.953125 263.121094 6.410156 262.90625 C 6.882812 262.683594 7.371094 262.484375 7.832031 262.238281 C 7.691406 262.300781 7.589844 262.328125 7.832031 262.238281 C 7.871094 262.21875 7.90625 262.203125 7.941406 262.183594 C 7.90625 262.203125 7.871094 262.222656 7.832031 262.238281 C 7.851562 262.230469 7.863281 262.226562 7.882812 262.21875 C 8.199219 262.105469 8.507812 261.984375 8.820312 261.867188 C 9.707031 261.53125 10.589844 261.191406 11.472656 260.851562 C 11.691406 260.941406 11.90625 261.027344 12.121094 261.117188 C 12.652344 261.332031 13.179688 261.550781 13.707031 261.761719 C 13.6875 261.75 13.667969 261.742188 13.648438 261.730469 C 13.683594 261.75 13.726562 261.765625 13.761719 261.785156 C 13.773438 261.789062 13.785156 261.792969 13.800781 261.796875 C 14.015625 261.886719 13.972656 261.875 13.867188 261.832031 C 13.953125 261.867188 14.039062 261.910156 14.125 261.945312 C 16.226562 262.894531 18.339844 264.105469 20.574219 264.703125 Z M 74.355469 236.335938 C 74.34375 236.492188 74.332031 236.648438 74.324219 236.804688 C 72.355469 237.335938 70.359375 237.828125 68.472656 238.59375 C 66.992188 239.191406 65.523438 239.871094 64.015625 240.398438 C 62.953125 240.773438 61.78125 240.925781 60.683594 241.164062 C 58.003906 241.753906 55.433594 242.539062 52.808594 243.34375 C 50.664062 244.003906 48.585938 244.878906 46.4375 245.527344 C 43.925781 246.289062 41.390625 246.792969 38.972656 247.828125 C 37.675781 248.382812 36.386719 248.96875 35.074219 249.496094 C 35.050781 249.496094 35.011719 249.496094 34.945312 249.503906 C 34.644531 249.539062 34.335938 249.636719 34.042969 249.699219 C 33.160156 249.890625 32.277344 250.082031 31.394531 250.273438 C 26.679688 251.289062 22.164062 253.335938 17.703125 255.148438 C 15.632812 255.988281 13.554688 256.800781 11.480469 257.625 C 10.976562 257.417969 10.472656 257.207031 9.96875 257.003906 C 9.71875 256.902344 9.472656 256.800781 9.222656 256.699219 C 9.21875 256.699219 9.21875 256.699219 9.214844 256.699219 C 9.234375 256.707031 9.242188 256.710938 9.261719 256.722656 C 9.238281 256.707031 9.214844 256.699219 9.191406 256.6875 C 9.039062 256.625 8.972656 256.585938 9 256.597656 C 8.519531 256.367188 8.03125 256.15625 7.550781 255.9375 C 7.214844 255.785156 6.882812 255.632812 6.550781 255.480469 C 6.8125 255.363281 7.074219 255.242188 7.335938 255.121094 C 7.976562 254.828125 8.621094 254.546875 9.253906 254.242188 C 9.289062 254.226562 9.308594 254.21875 9.328125 254.207031 C 9.457031 254.15625 9.585938 254.101562 9.714844 254.050781 C 12.171875 253.039062 14.636719 252.054688 17.0625 250.960938 C 18.390625 250.363281 19.753906 249.804688 21.0625 249.160156 C 21.074219 249.160156 21.078125 249.160156 21.09375 249.160156 C 21.34375 249.132812 21.613281 249.019531 21.859375 248.953125 C 22.667969 248.734375 23.480469 248.519531 24.289062 248.300781 C 26.898438 247.601562 29.460938 246.808594 32.039062 245.996094 C 34.445312 245.238281 36.871094 244.535156 39.277344 243.777344 C 41.421875 243.101562 43.484375 242.109375 45.648438 241.519531 C 47.90625 240.90625 50.324219 240.808594 52.539062 240.035156 C 55.007812 239.171875 57.4375 238.257812 59.972656 237.621094 C 64.886719 236.386719 69.746094 234.988281 74.601562 233.546875 C 74.519531 234.476562 74.421875 235.394531 74.355469 236.335938 Z M 165.753906 312.082031 C 166.128906 312.9375 166.5 313.792969 166.863281 314.65625 C 167.109375 315.238281 167.355469 315.820312 167.601562 316.398438 C 165.964844 314.898438 164.285156 313.449219 162.507812 312.074219 C 160.429688 310.46875 158.351562 308.882812 156.214844 307.351562 C 155.570312 306.894531 154.929688 306.433594 154.285156 305.972656 C 154.132812 305.863281 153.980469 305.738281 153.820312 305.640625 C 152.660156 304.675781 151.476562 303.738281 150.300781 302.789062 C 148.351562 301.210938 146.144531 300.058594 144.003906 298.753906 C 143.175781 298.25 142.4375 297.601562 141.671875 297.011719 C 141.007812 296.5 140.34375 295.988281 139.679688 295.476562 C 139.46875 295.3125 139.253906 295.148438 139.042969 294.984375 C 138.816406 294.808594 138.859375 294.839844 138.957031 294.914062 C 135.234375 291.839844 131.308594 289.082031 127.253906 286.464844 C 125.09375 285.074219 122.949219 283.667969 120.816406 282.234375 C 120.21875 281.835938 119.628906 281.425781 119.03125 281.035156 C 119.015625 281.027344 118.996094 281.011719 118.96875 280.996094 C 118.902344 280.949219 118.746094 280.84375 118.695312 280.804688 C 117.457031 279.828125 116.21875 278.851562 114.980469 277.878906 C 114.667969 277.632812 114.351562 277.382812 114.039062 277.136719 C 113.308594 276.5625 112.183594 276.511719 111.671875 277.441406 C 110.5 279.570312 109.425781 281.785156 108.066406 283.804688 C 107.152344 285.164062 106.183594 286.503906 105.316406 287.894531 C 104.710938 288.867188 104.246094 289.957031 103.726562 290.980469 C 103.355469 291.714844 102.953125 292.441406 102.605469 293.191406 C 102.554688 293.300781 102.507812 293.402344 102.484375 293.453125 C 102.429688 293.523438 102.375 293.59375 102.320312 293.660156 C 101.269531 294.984375 100.214844 296.308594 99.160156 297.632812 C 97.683594 299.484375 96.621094 301.644531 95.304688 303.609375 C 93.871094 305.746094 92.320312 307.789062 90.996094 310 C 90.53125 310.777344 90.078125 311.570312 89.613281 312.355469 C 90.191406 311.347656 90.777344 310.34375 91.382812 309.335938 C 92.597656 307.316406 93.597656 305.09375 94.539062 302.9375 C 95.242188 301.324219 95.933594 299.703125 96.628906 298.085938 C 97.113281 296.972656 97.875 295.957031 98.511719 294.925781 C 99.128906 293.929688 99.792969 292.960938 100.289062 291.898438 C 101.023438 290.328125 101.714844 288.730469 102.5 287.1875 C 103.597656 285.019531 105.035156 282.980469 106.320312 280.917969 C 107.929688 278.328125 109.5 275.734375 111.027344 273.09375 C 112.269531 274.144531 113.53125 275.214844 114.910156 276.019531 C 116.972656 277.226562 119.050781 278.390625 121.023438 279.742188 C 125.101562 282.535156 129.21875 285.265625 133.238281 288.140625 C 135.164062 289.519531 137.21875 290.707031 139.226562 291.960938 C 140.019531 292.457031 140.804688 292.960938 141.59375 293.460938 C 142.269531 293.890625 142.945312 294.320312 143.621094 294.75 C 143.839844 294.886719 144.054688 295.039062 144.28125 295.167969 C 144.304688 295.179688 144.3125 295.183594 144.332031 295.195312 C 147.738281 298.472656 151.921875 300.710938 155.648438 303.5625 C 156.40625 304.140625 157.160156 304.71875 157.914062 305.296875 C 158.148438 305.472656 158.378906 305.652344 158.613281 305.832031 C 158.617188 305.832031 158.613281 305.832031 158.617188 305.835938 C 159.707031 306.929688 161.058594 307.851562 162.25 308.835938 C 163.476562 309.847656 164.621094 310.960938 165.753906 312.082031 Z M 182.136719 220.894531 C 181.652344 221.308594 181.152344 221.703125 180.644531 222.09375 C 180.847656 221.898438 181.050781 221.703125 181.253906 221.507812 C 182.292969 220.496094 183.433594 219.59375 184.570312 218.683594 C 183.773438 219.441406 182.96875 220.1875 182.136719 220.894531 Z M 184.453125 214.894531 C 184.214844 215.105469 183.972656 215.304688 183.726562 215.511719 C 183.019531 215.429688 182.3125 215.359375 181.609375 215.324219 C 180.660156 215.273438 179.691406 215.34375 178.738281 215.355469 C 178.003906 215.363281 177.269531 215.371094 176.53125 215.378906 C 176.257812 215.382812 175.503906 215.242188 175.285156 215.394531 C 175.28125 215.394531 175.289062 215.394531 175.289062 215.398438 C 175.144531 215.378906 175 215.359375 174.855469 215.339844 C 174.179688 215.246094 173.5 215.152344 172.824219 215.058594 C 171.683594 214.902344 170.546875 214.746094 169.40625 214.589844 C 167.238281 214.296875 164.976562 214.1875 162.792969 214.113281 C 160.714844 214.039062 158.617188 214.203125 156.539062 214.230469 C 154.480469 214.261719 152.417969 214.222656 150.363281 214.195312 C 148.3125 214.167969 146.246094 213.914062 144.203125 213.761719 C 143.457031 213.707031 142.738281 213.851562 142 213.953125 C 140.589844 214.144531 139.179688 214.335938 137.769531 214.527344 C 137.609375 214.550781 137.449219 214.570312 137.289062 214.59375 C 137.277344 214.589844 137.277344 214.585938 137.265625 214.582031 C 136.824219 214.425781 136.003906 214.574219 135.542969 214.570312 C 134.117188 214.5625 132.691406 214.550781 131.261719 214.546875 C 129.429688 214.535156 127.59375 214.535156 125.761719 214.53125 C 124.820312 212.550781 123.941406 210.496094 122.582031 208.785156 C 121.582031 207.527344 120.589844 206.261719 119.582031 205.007812 C 119.589844 205.011719 119.597656 205.015625 119.597656 205.011719 C 119.605469 204.835938 119.332031 204.457031 119.261719 204.3125 C 118.882812 203.515625 118.5 202.722656 118.121094 201.929688 C 117.664062 200.980469 117.28125 199.96875 116.660156 199.113281 C 115.6875 197.769531 114.714844 196.425781 113.742188 195.082031 C 112.421875 193.253906 111.410156 191.199219 110.207031 189.296875 C 109.222656 187.742188 108.234375 186.195312 107.183594 184.691406 C 107.515625 185.089844 107.847656 185.496094 108.1875 185.894531 C 109.03125 186.894531 109.890625 187.882812 110.742188 188.878906 C 111.214844 189.429688 111.679688 189.992188 112.164062 190.539062 C 112.175781 190.550781 112.175781 190.554688 112.1875 190.566406 C 112.164062 190.53125 112.136719 190.496094 112.113281 190.453125 C 112.136719 190.496094 112.171875 190.539062 112.199219 190.582031 C 112.3125 190.714844 112.292969 190.707031 112.226562 190.621094 C 112.296875 190.722656 112.367188 190.824219 112.433594 190.925781 C 113.929688 193.117188 115.335938 195.335938 117.089844 197.324219 C 118.039062 198.402344 118.941406 199.675781 120.007812 200.644531 C 120.097656 200.882812 120.285156 201.117188 120.410156 201.332031 C 120.839844 202.066406 121.269531 202.800781 121.699219 203.539062 C 123.039062 205.832031 124.355469 208.136719 125.671875 210.441406 C 125.886719 210.816406 126.097656 211.1875 126.3125 211.5625 C 126.65625 212.164062 127.207031 212.351562 127.734375 212.277344 C 135.996094 211.914062 144.242188 211.601562 152.511719 211.5625 C 156.644531 211.546875 160.734375 211.277344 164.859375 211.128906 C 166.890625 211.058594 168.980469 211.367188 171.007812 211.503906 C 173.050781 211.640625 175.089844 211.867188 177.132812 212.050781 C 180.324219 212.34375 183.5 212.636719 186.6875 212.878906 C 185.949219 213.558594 185.207031 214.234375 184.453125 214.894531 Z M 184.453125 214.894531 " fill-opacity="1" fill-rule="nonzero"/></svg>