<svg xmlns="http://www.w3.org/2000/svg" xmlns:xlink="http://www.w3.org/1999/xlink" width="500" zoomAndPan="magnify" viewBox="0 0 375 374.999991" height="500" preserveAspectRatio="xMidYMid meet" version="1.0"><defs><clipPath id="f1f2efba1d"><path d="M 0 120.160156 L 375 120.160156 L 375 209.410156 L 0 209.410156 Z M 0 120.160156 " clip-rule="nonzero"/></clipPath><clipPath id="8c63617858"><path d="M 1 120.160156 L 375 120.160156 L 375 209.410156 L 1 209.410156 Z M 1 120.160156 " clip-rule="nonzero"/></clipPath></defs><g clip-path="url(#f1f2efba1d)"><path fill="#d4f3f6" d="M 252.914062 120.167969 L 368.894531 120.167969 C 370.183594 120.167969 371.023438 121.523438 370.453125 122.683594 C 368.734375 126.128906 366.996094 129.554688 365.277344 133 C 364.992188 133.554688 365.046875 134.214844 365.386719 134.730469 C 367.230469 137.496094 369.074219 140.246094 370.917969 143.011719 C 371.382812 143.707031 371.292969 144.617188 370.703125 145.207031 L 362.484375 153.398438 C 361.859375 154.023438 361.804688 155.023438 362.359375 155.703125 C 366.425781 160.753906 370.46875 165.804688 374.515625 170.855469 C 374.910156 171.335938 375 171.996094 374.765625 172.585938 C 372.671875 177.796875 370.578125 183.007812 368.5 188.222656 C 368.339844 188.597656 368.339844 189.023438 368.464844 189.417969 C 370.433594 195.324219 372.402344 201.214844 374.390625 207.121094 C 374.765625 208.246094 373.925781 209.40625 372.742188 209.40625 L 6.554688 209.40625 C 5.15625 209.40625 4.332031 207.855469 5.101562 206.710938 L 9.667969 199.894531 C 9.992188 199.410156 10.042969 198.785156 9.8125 198.25 C 6.625 190.792969 3.417969 183.347656 0.214844 175.90625 C 0 175.386719 0.0351562 174.800781 0.324219 174.335938 C 3.457031 169.140625 6.570312 163.949219 9.703125 158.753906 C 10.007812 158.253906 10.027344 157.613281 9.777344 157.09375 L 3.761719 145.117188 C 3.472656 144.566406 3.527344 143.90625 3.867188 143.386719 L 9.632812 134.765625 C 9.972656 134.25 10.027344 133.589844 9.738281 133.035156 L 4.566406 122.683594 C 3.992188 121.523438 4.835938 120.167969 6.125 120.167969 L 244.460938 120.167969 M 244.460938 120.167969 L 252.914062 120.167969 " fill-opacity="1" fill-rule="nonzero"/></g><g clip-path="url(#8c63617858)"><path fill="#ffe9f3" d="M 363.113281 209.40625 L 366.550781 209.40625 L 366.550781 192.238281 L 369.414062 192.238281 C 369.089844 191.289062 368.789062 190.34375 368.464844 189.398438 C 368.394531 189.203125 368.375 189.007812 368.375 188.792969 L 366.53125 188.792969 L 366.53125 171.621094 L 374.855469 171.621094 C 374.804688 171.335938 374.695312 171.070312 374.515625 170.835938 C 373.816406 169.960938 373.101562 169.070312 372.402344 168.195312 L 366.550781 168.195312 L 366.550781 160.894531 C 365.402344 159.46875 364.257812 158.039062 363.113281 156.613281 L 363.113281 168.195312 L 349.34375 168.195312 L 349.34375 154.472656 L 362 154.472656 C 362.039062 154.058594 362.199219 153.6875 362.503906 153.363281 L 366.566406 149.3125 L 366.566406 136.460938 C 366.171875 135.890625 365.796875 135.300781 365.402344 134.730469 C 365.0625 134.214844 365.007812 133.554688 365.296875 133 C 365.726562 132.160156 366.136719 131.304688 366.566406 130.464844 L 366.566406 120.167969 L 363.128906 120.167969 L 363.128906 132.179688 L 349.363281 132.179688 L 349.363281 120.167969 L 345.921875 120.167969 L 345.921875 132.179688 L 332.15625 132.179688 L 332.15625 120.167969 L 328.71875 120.167969 L 328.71875 132.179688 L 314.949219 132.179688 L 314.949219 120.167969 L 311.511719 120.167969 L 311.511719 132.179688 L 297.742188 132.179688 L 297.742188 120.167969 L 294.304688 120.167969 L 294.304688 132.179688 L 280.539062 132.179688 L 280.539062 120.167969 L 277.101562 120.167969 L 277.101562 132.179688 L 263.261719 132.179688 L 263.261719 120.167969 L 259.824219 120.167969 L 259.824219 132.179688 L 246.054688 132.179688 L 246.054688 120.167969 L 242.617188 120.167969 L 242.617188 132.179688 L 228.847656 132.179688 L 228.847656 120.167969 L 225.410156 120.167969 L 225.410156 132.179688 L 211.644531 132.179688 L 211.644531 120.167969 L 208.207031 120.167969 L 208.207031 132.179688 L 194.4375 132.179688 L 194.4375 120.167969 L 191 120.167969 L 191 132.179688 L 177.230469 132.179688 L 177.230469 120.167969 L 173.742188 120.167969 L 173.742188 132.179688 L 159.972656 132.179688 L 159.972656 120.167969 L 156.535156 120.167969 L 156.535156 132.179688 L 142.765625 132.179688 L 142.765625 120.167969 L 139.328125 120.167969 L 139.328125 132.179688 L 125.5625 132.179688 L 125.5625 120.167969 L 122.125 120.167969 L 122.125 132.179688 L 108.355469 132.179688 L 108.355469 120.167969 L 104.917969 120.167969 L 104.917969 132.179688 L 91.148438 132.179688 L 91.148438 120.167969 L 87.710938 120.167969 L 87.710938 132.179688 L 73.945312 132.179688 L 73.945312 120.167969 L 70.507812 120.167969 L 70.507812 132.179688 L 56.738281 132.179688 L 56.738281 120.167969 L 53.300781 120.167969 L 53.300781 132.179688 L 39.460938 132.179688 L 39.460938 120.167969 L 36.023438 120.167969 L 36.023438 132.179688 L 22.253906 132.179688 L 22.253906 120.167969 L 18.816406 120.167969 L 18.816406 132.179688 L 9.328125 132.179688 L 9.738281 133 C 10.027344 133.554688 9.972656 134.214844 9.632812 134.730469 L 9.042969 135.605469 L 18.800781 135.605469 L 18.800781 151.042969 L 6.75 151.042969 L 8.46875 154.472656 L 18.800781 154.472656 L 18.800781 168.195312 L 3.992188 168.195312 C 3.3125 169.339844 2.613281 170.480469 1.933594 171.621094 L 18.800781 171.621094 L 18.800781 188.792969 L 5.765625 188.792969 C 6.25 189.933594 6.75 191.078125 7.234375 192.21875 L 18.800781 192.21875 L 18.800781 209.40625 L 22.238281 209.40625 L 22.238281 192.238281 L 36.003906 192.238281 L 36.003906 209.40625 L 39.460938 209.40625 L 39.460938 192.238281 L 53.230469 192.238281 L 53.230469 209.40625 L 56.667969 209.40625 L 56.667969 192.238281 L 70.433594 192.238281 L 70.433594 209.40625 L 73.871094 209.40625 L 73.871094 192.238281 L 87.640625 192.238281 L 87.640625 209.40625 L 91.078125 209.40625 L 91.078125 192.238281 L 104.847656 192.238281 L 104.847656 209.40625 L 108.285156 209.40625 L 108.285156 192.238281 L 122.050781 192.238281 L 122.050781 209.40625 L 125.488281 209.40625 L 125.488281 192.238281 L 139.257812 192.238281 L 139.257812 209.40625 L 142.695312 209.40625 L 142.695312 192.238281 L 156.464844 192.238281 L 156.464844 209.40625 L 159.902344 209.40625 L 159.902344 192.238281 L 173.742188 192.238281 L 173.742188 209.40625 L 177.179688 209.40625 L 177.179688 192.238281 L 190.945312 192.238281 L 190.945312 209.40625 L 194.382812 209.40625 L 194.382812 192.238281 L 208.152344 192.238281 L 208.152344 209.40625 L 211.589844 209.40625 L 211.589844 192.238281 L 225.359375 192.238281 L 225.359375 209.40625 L 228.796875 209.40625 L 228.796875 192.238281 L 242.5625 192.238281 L 242.5625 209.40625 L 246 209.40625 L 246 192.238281 L 259.769531 192.238281 L 259.769531 209.40625 L 263.207031 209.40625 L 263.207031 192.238281 L 276.976562 192.238281 L 276.976562 209.40625 L 280.414062 209.40625 L 280.414062 192.238281 L 294.179688 192.238281 L 294.179688 209.40625 L 297.617188 209.40625 L 297.617188 192.238281 L 311.386719 192.238281 L 311.386719 209.40625 L 314.824219 209.40625 L 314.824219 192.238281 L 328.59375 192.238281 L 328.59375 209.40625 L 332.03125 209.40625 L 332.03125 192.238281 L 345.796875 192.238281 L 345.796875 209.40625 L 349.234375 209.40625 L 349.234375 192.238281 L 363.003906 192.238281 L 363.003906 209.40625 Z M 345.886719 168.214844 L 332.121094 168.214844 L 332.121094 154.488281 L 345.886719 154.488281 Z M 56.667969 154.488281 L 70.433594 154.488281 L 70.433594 168.214844 L 56.667969 168.214844 Z M 53.230469 168.214844 L 39.460938 168.214844 L 39.460938 154.488281 L 53.230469 154.488281 Z M 73.890625 154.488281 L 87.65625 154.488281 L 87.65625 168.214844 L 73.890625 168.214844 Z M 91.097656 154.488281 L 104.863281 154.488281 L 104.863281 168.214844 L 91.097656 168.214844 Z M 108.320312 154.488281 L 122.085938 154.488281 L 122.085938 168.214844 L 108.320312 168.214844 Z M 125.542969 154.488281 L 139.3125 154.488281 L 139.3125 168.214844 L 125.542969 168.214844 Z M 142.75 154.488281 L 156.515625 154.488281 L 156.515625 168.214844 L 142.75 168.214844 Z M 159.972656 154.488281 L 173.742188 154.488281 L 173.742188 168.214844 L 159.972656 168.214844 Z M 177.179688 154.488281 L 190.945312 154.488281 L 190.945312 168.214844 L 177.179688 168.214844 Z M 194.402344 154.488281 L 208.171875 154.488281 L 208.171875 168.214844 L 194.402344 168.214844 Z M 211.609375 154.488281 L 225.375 154.488281 L 225.375 168.214844 L 211.609375 168.214844 Z M 228.832031 154.488281 L 242.601562 154.488281 L 242.601562 168.214844 L 228.832031 168.214844 Z M 246.039062 154.488281 L 259.804688 154.488281 L 259.804688 168.214844 L 246.039062 168.214844 Z M 263.261719 154.488281 L 277.027344 154.488281 L 277.027344 168.214844 L 263.261719 168.214844 Z M 280.464844 154.488281 L 294.234375 154.488281 L 294.234375 168.214844 L 280.464844 168.214844 Z M 297.691406 154.488281 L 311.457031 154.488281 L 311.457031 168.214844 L 297.691406 168.214844 Z M 314.894531 154.488281 L 328.664062 154.488281 L 328.664062 168.214844 L 314.894531 168.214844 Z M 363.113281 135.605469 L 363.113281 151.042969 L 349.34375 151.042969 L 349.34375 135.605469 Z M 345.886719 135.605469 L 345.886719 151.042969 L 332.121094 151.042969 L 332.121094 135.605469 Z M 328.683594 135.605469 L 328.683594 151.042969 L 314.914062 151.042969 L 314.914062 135.605469 Z M 311.457031 135.605469 L 311.457031 151.042969 L 297.691406 151.042969 L 297.691406 135.605469 Z M 294.253906 135.605469 L 294.253906 151.042969 L 280.484375 151.042969 L 280.484375 135.605469 Z M 277.027344 135.605469 L 277.027344 151.042969 L 263.261719 151.042969 L 263.261719 135.605469 Z M 259.824219 135.605469 L 259.824219 151.042969 L 246.054688 151.042969 L 246.054688 135.605469 Z M 242.601562 135.605469 L 242.601562 151.042969 L 228.832031 151.042969 L 228.832031 135.605469 Z M 225.375 135.605469 L 225.375 151.042969 L 211.609375 151.042969 L 211.609375 135.605469 Z M 208.171875 135.605469 L 208.171875 151.042969 L 194.402344 151.042969 L 194.402344 135.605469 Z M 190.945312 135.605469 L 190.945312 151.042969 L 177.179688 151.042969 L 177.179688 135.605469 Z M 173.742188 135.605469 L 173.742188 151.042969 L 159.972656 151.042969 L 159.972656 135.605469 Z M 156.515625 135.605469 L 156.515625 151.042969 L 142.75 151.042969 L 142.75 135.605469 Z M 139.3125 135.605469 L 139.3125 151.042969 L 125.542969 151.042969 L 125.542969 135.605469 Z M 122.085938 135.605469 L 122.085938 151.042969 L 108.320312 151.042969 L 108.320312 135.605469 Z M 104.882812 135.605469 L 104.882812 151.042969 L 91.113281 151.042969 L 91.113281 135.605469 Z M 87.65625 135.605469 L 87.65625 151.042969 L 73.890625 151.042969 L 73.890625 135.605469 Z M 70.453125 135.605469 L 70.453125 151.042969 L 56.683594 151.042969 L 56.683594 135.605469 Z M 53.230469 135.605469 L 53.230469 151.042969 L 39.460938 151.042969 L 39.460938 135.605469 Z M 22.238281 135.605469 L 36.003906 135.605469 L 36.003906 151.042969 L 22.238281 151.042969 C 22.238281 151.042969 22.238281 135.605469 22.238281 135.605469 Z M 22.238281 154.488281 L 36.003906 154.488281 L 36.003906 168.214844 L 22.238281 168.214844 C 22.238281 168.214844 22.238281 154.488281 22.238281 154.488281 Z M 22.238281 188.808594 L 22.238281 171.640625 L 36.003906 171.640625 L 36.003906 188.808594 Z M 39.460938 188.808594 L 39.460938 171.640625 L 53.230469 171.640625 L 53.230469 188.808594 Z M 56.667969 188.808594 L 56.667969 171.640625 L 70.433594 171.640625 L 70.433594 188.808594 Z M 73.890625 188.808594 L 73.890625 171.640625 L 87.65625 171.640625 L 87.65625 188.808594 Z M 91.097656 188.808594 L 91.097656 171.640625 L 104.863281 171.640625 L 104.863281 188.808594 Z M 108.320312 188.808594 L 108.320312 171.640625 L 122.085938 171.640625 L 122.085938 188.808594 Z M 125.542969 188.808594 L 125.542969 171.640625 L 139.3125 171.640625 L 139.3125 188.808594 Z M 142.75 188.808594 L 142.75 171.640625 L 156.515625 171.640625 L 156.515625 188.808594 Z M 159.972656 188.808594 L 159.972656 171.640625 L 173.742188 171.640625 L 173.742188 188.808594 Z M 177.179688 188.808594 L 177.179688 171.640625 L 190.945312 171.640625 L 190.945312 188.808594 Z M 194.402344 188.808594 L 194.402344 171.640625 L 208.171875 171.640625 L 208.171875 188.808594 Z M 211.609375 188.808594 L 211.609375 171.640625 L 225.375 171.640625 L 225.375 188.808594 Z M 228.832031 188.808594 L 228.832031 171.640625 L 242.601562 171.640625 L 242.601562 188.808594 Z M 246.039062 188.808594 L 246.039062 171.640625 L 259.804688 171.640625 L 259.804688 188.808594 Z M 263.261719 188.808594 L 263.261719 171.640625 L 277.027344 171.640625 L 277.027344 188.808594 Z M 280.464844 188.808594 L 280.464844 171.640625 L 294.234375 171.640625 L 294.234375 188.808594 Z M 297.691406 188.808594 L 297.691406 171.640625 L 311.457031 171.640625 L 311.457031 188.808594 Z M 314.894531 188.808594 L 314.894531 171.640625 L 328.664062 171.640625 L 328.664062 188.808594 Z M 332.121094 188.808594 L 332.121094 171.640625 L 345.886719 171.640625 L 345.886719 188.808594 Z M 349.34375 188.808594 L 349.34375 171.640625 L 363.113281 171.640625 L 363.113281 188.808594 Z M 349.34375 188.808594 " fill-opacity="1" fill-rule="nonzero"/></g></svg>