<svg xmlns="http://www.w3.org/2000/svg" xmlns:xlink="http://www.w3.org/1999/xlink" zoomAndPan="magnify" preserveAspectRatio="xMidYMid meet" version="1.0" viewBox="0 143.18 375 94.82"><defs><clipPath id="4f03167938"><path d="M 0 143.175781 L 375 143.175781 L 375 238 L 0 238 Z M 0 143.175781 " clip-rule="nonzero"/></clipPath></defs><g clip-path="url(#4f03167938)"><path fill="#e5645e" d="M 270.449219 143.855469 C 303.261719 144.117188 336.089844 144.8125 368.902344 145.898438 C 372.503906 146.011719 374.175781 150.214844 371.773438 152.855469 C 368.941406 155.96875 366.109375 159.082031 363.273438 162.195312 C 366.671875 165.402344 370.046875 168.609375 373.441406 171.8125 C 374.71875 173.015625 375 175.246094 374.082031 176.746094 C 370.890625 181.921875 367.683594 187.097656 364.496094 192.273438 C 367.140625 194.859375 369.804688 197.464844 372.449219 200.054688 C 374.082031 201.648438 373.910156 204.199219 372.449219 205.808594 C 369.898438 208.640625 367.328125 211.453125 364.777344 214.285156 C 367.328125 217.378906 369.878906 220.453125 372.429688 223.546875 C 374.679688 226.285156 373.253906 230.28125 369.558594 230.503906 C 248.347656 237.292969 126.914062 239.132812 5.570312 236 C 1.839844 235.90625 0.488281 231.722656 2.703125 229.042969 C 5.308594 225.894531 7.917969 222.742188 10.523438 219.574219 C 7.953125 216.3125 5.382812 213.046875 2.8125 209.785156 C 1.371094 207.964844 1.238281 205.828125 2.8125 204.027344 C 5.289062 201.214844 7.746094 198.421875 10.222656 195.609375 C 7.148438 191.183594 4.089844 186.722656 1.050781 182.257812 C 0 180.738281 0.542969 178.582031 1.6875 177.328125 C 5.308594 173.332031 8.949219 169.339844 12.570312 165.328125 C 9.867188 162.703125 7.167969 160.09375 4.464844 157.46875 C 1.800781 154.902344 3.957031 150.71875 7.335938 150.511719 C 93.652344 145.449219 180.082031 143.21875 266.507812 143.835938 M 266.507812 143.835938 C 267.824219 143.855469 269.136719 143.855469 270.449219 143.875 " fill-opacity="1" fill-rule="nonzero"/></g><path fill="#ffffff" d="M 331.851562 175.078125 C 332.75 181.753906 329.167969 189.722656 326.46875 195.683594 C 323.652344 201.871094 319.375 209.183594 312.867188 212.035156 C 296.75 219.085938 294.667969 193.867188 296.300781 184.058594 C 297.199219 178.601562 299.453125 171.8125 305.832031 170.953125 C 310.144531 170.371094 312.507812 172.714844 314.234375 175.753906 C 316.375 172.320312 318.980469 169.375 322.171875 168.214844 C 327.421875 166.300781 331.175781 170.03125 331.851562 175.078125 Z M 151.265625 169.640625 C 148.902344 171.476562 146.96875 173.800781 145.375 176.371094 C 142.878906 173.144531 139.183594 170.558594 135.207031 172.789062 C 130.554688 175.394531 130.234375 182.597656 130.402344 187.191406 C 130.777344 197.242188 138.84375 216.085938 151.300781 205.808594 C 156.441406 201.574219 159.6875 194.242188 161.808594 188.070312 C 163.402344 183.402344 166.066406 173.988281 163.308594 169.359375 C 160.570312 164.726562 154.679688 166.996094 151.265625 169.640625 Z M 76.671875 169.84375 C 73.671875 171.0625 71.382812 173.707031 69.582031 176.726562 C 66.675781 174.046875 62.847656 172.546875 59 175.152344 C 54.421875 178.246094 53.597656 185.144531 53.503906 190.191406 C 53.316406 199.886719 58.90625 218.898438 71.945312 210.140625 C 81.15625 203.953125 90.085938 186.101562 86.878906 174.925781 C 85.585938 170.40625 81.121094 168.027344 76.671875 169.84375 Z M 239.417969 168.046875 C 236.960938 169.65625 234.953125 172.058594 233.285156 174.757812 C 231.539062 172.675781 229.195312 171.308594 226.003906 171.8125 C 220.191406 172.75 218.613281 179.652344 218.011719 184.546875 C 217.167969 191.316406 218.894531 220.511719 232.757812 212.109375 C 238.6875 208.511719 242.007812 199.621094 244.859375 193.734375 C 247.765625 187.753906 252.644531 178.847656 251.21875 171.964844 C 250 166.132812 243.808594 165.140625 239.417969 168.046875 Z M 34.949219 160.789062 C 34.238281 160.074219 32.753906 159.925781 32.082031 160.789062 C 30.972656 162.15625 29.886719 163.507812 28.777344 164.875 C 28.085938 165.738281 27.953125 166.902344 28.777344 167.746094 C 29.492188 168.457031 30.972656 168.609375 31.648438 167.746094 C 32.753906 166.375 33.84375 165.027344 34.949219 163.65625 C 35.644531 162.796875 35.777344 161.632812 34.949219 160.789062 Z M 48.101562 156.4375 C 47.089844 155.820312 45.960938 156.289062 45.324219 157.167969 C 44.105469 158.855469 42.90625 160.527344 41.683594 162.214844 C 41.027344 163.113281 41.535156 164.464844 42.417969 164.988281 C 43.429688 165.609375 44.554688 165.140625 45.195312 164.257812 C 46.414062 162.570312 47.613281 160.902344 48.832031 159.214844 C 49.488281 158.3125 48.984375 156.964844 48.101562 156.4375 Z M 35.589844 171.703125 C 34.574219 172.976562 33.5625 174.253906 32.550781 175.546875 C 31.855469 176.410156 31.722656 177.570312 32.550781 178.414062 C 33.242188 179.128906 34.742188 179.277344 35.417969 178.414062 C 36.433594 177.140625 37.445312 175.863281 38.457031 174.570312 C 39.152344 173.707031 39.285156 172.546875 38.457031 171.703125 C 37.765625 170.988281 36.28125 170.839844 35.589844 171.703125 Z M 190.546875 201.480469 C 189.6875 202.734375 188.824219 204.011719 187.960938 205.265625 C 186.476562 207.441406 190.003906 209.464844 191.46875 207.328125 C 192.332031 206.074219 193.195312 204.796875 194.058594 203.542969 C 195.539062 201.367188 192.011719 199.324219 190.546875 201.480469 Z M 205.085938 198.496094 C 203.457031 200.464844 201.953125 202.527344 200.605469 204.703125 C 199.214844 206.933594 202.742188 208.980469 204.113281 206.765625 C 205.273438 204.890625 206.550781 203.089844 207.957031 201.386719 C 209.628906 199.359375 206.757812 196.472656 205.085938 198.496094 Z M 194.300781 212.878906 C 193.53125 213.984375 192.761719 215.09375 191.992188 216.179688 C 190.492188 218.335938 194.019531 220.378906 195.5 218.242188 C 196.269531 217.136719 197.039062 216.03125 197.808594 214.941406 C 199.308594 212.785156 195.78125 210.742188 194.300781 212.878906 Z M 346.277344 163.902344 C 347.984375 161.933594 345.113281 159.042969 343.40625 161.03125 C 342.300781 162.308594 341.195312 163.582031 340.085938 164.839844 C 338.378906 166.808594 341.25 169.695312 342.957031 167.707031 C 344.0625 166.453125 345.171875 165.175781 346.277344 163.902344 Z M 355.039062 159.644531 C 354.363281 160.65625 353.667969 161.671875 352.992188 162.683594 C 351.53125 164.859375 355.058594 166.902344 356.503906 164.746094 C 357.175781 163.734375 357.871094 162.71875 358.546875 161.707031 C 360.027344 159.53125 356.503906 157.488281 355.039062 159.644531 Z M 345.695312 172.488281 C 344.4375 173.707031 343.332031 175.039062 342.261719 176.425781 C 341.585938 177.308594 342.132812 178.695312 342.996094 179.203125 C 344.027344 179.820312 345.113281 179.351562 345.769531 178.472656 C 346.617188 177.363281 347.554688 176.332031 348.566406 175.359375 C 350.460938 173.539062 347.574219 170.671875 345.695312 172.488281 Z M 345.695312 172.488281 " fill-opacity="1" fill-rule="nonzero"/></svg>