<?xml version="1.0" encoding="UTF-8" standalone="no"?>
<svg
   width="6912"
   zoomAndPan="magnify"
   viewBox="0 0 5184 2592.000001"
   height="3456"
   preserveAspectRatio="xMidYMid meet"
   version="1.0"
   id="svg722"
   sodipodi:docname="Yellow Neo Brutalism Summer Sale Banner Landscape.svg"
   inkscape:version="1.2.2 (b0a8486, 2022-12-01)"
   xmlns:inkscape="http://www.inkscape.org/namespaces/inkscape"
   xmlns:sodipodi="http://sodipodi.sourceforge.net/DTD/sodipodi-0.dtd"
   xmlns:xlink="http://www.w3.org/1999/xlink"
   xmlns="http://www.w3.org/2000/svg"
   xmlns:svg="http://www.w3.org/2000/svg">
  <sodipodi:namedview
     id="namedview724"
     pagecolor="#ffffff"
     bordercolor="#000000"
     borderopacity="0.25"
     inkscape:showpageshadow="2"
     inkscape:pageopacity="0.0"
     inkscape:pagecheckerboard="0"
     inkscape:deskcolor="#d1d1d1"
     showgrid="false"
     inkscape:zoom="0.12206464"
     inkscape:cx="3772.5914"
     inkscape:cy="2490.4838"
     inkscape:window-width="1440"
     inkscape:window-height="900"
     inkscape:window-x="0"
     inkscape:window-y="0"
     inkscape:window-maximized="0"
     inkscape:current-layer="svg722" />
  <defs
     id="defs646">
    <clipPath
       id="2cd3408248">
      <path
         d="M 1 0 L 5183 0 L 5183 2591 L 1 2591 Z M 1 0 "
         clip-rule="nonzero"
         id="path640" />
    </clipPath>
    <clipPath
       id="5d9b87c93d">
      <path
         d="M 1379 59.597656 L 3802 59.597656 L 3802 2531.394531 L 1379 2531.394531 Z M 1379 59.597656 "
         clip-rule="nonzero"
         id="path643" />
    </clipPath>
    <filter
       inkscape:label="Fill Background"
       inkscape:menu="Fill and Transparency"
       inkscape:menu-tooltip="Adds a colorizable opaque background"
       style="color-interpolation-filters:sRGB;"
       id="filter3842"
       x="0"
       y="0"
       width="1"
       height="1">
      <feFlood
         result="result1"
         flood-color="rgb(200,55,55)"
         flood-opacity="1"
         id="feFlood3830" />
      <feImage
         xlink:href=""
         result="result2"
         id="feImage3832" />
      <feBlend
         result="result4"
         in2="result1"
         mode="multiply"
         id="feBlend3834" />
      <feMerge
         result="result3"
         id="feMerge3840">
        <feMergeNode
           in="result1"
           id="feMergeNode3836" />
        <feMergeNode
           in="SourceGraphic"
           id="feMergeNode3838" />
      </feMerge>
    </filter>
  </defs>
  <path
     fill="#2e1144"
     d="M 3072.917969 1553.296875 C 3022.714844 1612.195312 2956.097656 1655.160156 2886.585938 1688.957031 C 2686.738281 1785.511719 2459.375 1808.199219 2237.320312 1808.199219 C 2109.398438 1808.199219 1979.542969 1800.476562 1858.863281 1758.476562 C 1772.9375 1728.542969 1691.839844 1679.300781 1631.980469 1612.195312 C 1657.566406 1529.15625 1694.734375 1451.433594 1752.179688 1383.84375 C 1690.390625 1437.914062 1640.1875 1504.535156 1605.429688 1578.882812 C 1591.914062 1560.539062 1580.328125 1541.226562 1570.191406 1520.46875 C 1514.195312 1405.570312 1524.816406 1254.460938 1614.601562 1163.214844 C 1678.804688 1097.558594 1772.453125 1070.042969 1846.792969 1016.9375 C 1907.136719 973.96875 1952.996094 912.65625 1980.992188 844.105469 C 2005.128906 784.722656 2018.644531 714.71875 2008.992188 650.996094 C 2004.644531 621.546875 1995.957031 605.132812 2008.992188 576.648438 C 2022.507812 547.679688 2045.679688 520.644531 2066.917969 496.988281 C 2154.292969 401.402344 2282.214844 342.503906 2412.066406 345.398438 C 2590.675781 349.261719 2761.5625 469.953125 2824.316406 637.476562 C 2853.761719 715.203125 2861.96875 802.101562 2908.792969 870.65625 C 2947.410156 926.65625 3007.269531 963.347656 3054.574219 1012.109375 C 3123.605469 1083.078125 3165.121094 1180.113281 3168.5 1279.082031 C 3171.878906 1378.53125 3137.121094 1477.984375 3072.917969 1553.296875 Z M 3072.917969 1553.296875 "
     fill-opacity="1"
     fill-rule="nonzero"
     id="path660"
     style="fill:#f5bb68;fill-opacity:1" />
  <path
     fill="#ff93e2"
     d="M 2902.035156 895.761719 L 2902.515625 1111.078125 C 2903.964844 1153.078125 2888.035156 1189.285156 2863.898438 1217.769531 C 2822.867188 1267.011719 2787.628906 1286.804688 2726.320312 1290.667969 L 2578.125 1293.082031 L 2554.472656 1293.566406 L 2558.332031 1378.050781 L 2562.675781 1470.261719 L 2440.546875 1605.4375 L 2112.292969 1437.429688 L 2082.847656 922.3125 L 2057.261719 766.378906 L 2058.710938 766.378906 C 2057.746094 754.789062 2057.261719 742.722656 2057.261719 730.652344 C 2057.261719 496.023438 2247.457031 305.8125 2482.0625 305.8125 C 2716.667969 305.8125 2863.898438 454.988281 2899.621094 686.71875 C 2903.480469 712.789062 2901.550781 765.894531 2900.585938 802.585938 Z M 2902.035156 895.761719 "
     fill-opacity="1"
     fill-rule="nonzero"
     id="path662"
     style="fill:#ffe5f3;fill-opacity:1" />
  <path
     fill="#b179ff"
     d="M 2512.472656 1055.558594 C 2512.472656 1058.210938 2512.410156 1060.867188 2512.277344 1063.515625 C 2512.148438 1066.167969 2511.953125 1068.816406 2511.691406 1071.457031 C 2511.433594 1074.097656 2511.109375 1076.734375 2510.71875 1079.359375 C 2510.328125 1081.984375 2509.875 1084.601562 2509.355469 1087.203125 C 2508.839844 1089.808594 2508.257812 1092.398438 2507.613281 1094.972656 C 2506.96875 1097.546875 2506.261719 1100.105469 2505.488281 1102.644531 C 2504.71875 1105.1875 2503.886719 1107.707031 2502.992188 1110.207031 C 2502.097656 1112.703125 2501.144531 1115.179688 2500.128906 1117.632812 C 2499.113281 1120.085938 2498.035156 1122.511719 2496.902344 1124.914062 C 2495.765625 1127.3125 2494.574219 1129.683594 2493.320312 1132.023438 C 2492.070312 1134.367188 2490.761719 1136.675781 2489.398438 1138.953125 C 2488.035156 1141.226562 2486.613281 1143.46875 2485.140625 1145.679688 C 2483.664062 1147.886719 2482.136719 1150.054688 2480.554688 1152.1875 C 2478.972656 1154.320312 2477.339844 1156.410156 2475.65625 1158.464844 C 2473.972656 1160.515625 2472.238281 1162.527344 2470.457031 1164.492188 C 2468.675781 1166.460938 2466.84375 1168.382812 2464.96875 1170.257812 C 2463.089844 1172.136719 2461.167969 1173.964844 2459.203125 1175.75 C 2457.234375 1177.53125 2455.226562 1179.265625 2453.175781 1180.949219 C 2451.121094 1182.632812 2449.03125 1184.265625 2446.898438 1185.847656 C 2444.765625 1187.429688 2442.597656 1188.957031 2440.390625 1190.433594 C 2438.183594 1191.90625 2435.941406 1193.328125 2433.664062 1194.691406 C 2431.386719 1196.054688 2429.078125 1197.363281 2426.738281 1198.617188 C 2424.394531 1199.867188 2422.023438 1201.058594 2419.625 1202.195312 C 2417.226562 1203.332031 2414.800781 1204.40625 2412.347656 1205.421875 C 2409.894531 1206.4375 2407.417969 1207.394531 2404.921875 1208.289062 C 2402.421875 1209.183594 2399.902344 1210.015625 2397.359375 1210.785156 C 2394.820312 1211.554688 2392.261719 1212.261719 2389.6875 1212.910156 C 2387.113281 1213.554688 2384.523438 1214.136719 2381.921875 1214.652344 C 2379.316406 1215.171875 2376.703125 1215.625 2374.078125 1216.015625 C 2371.453125 1216.402344 2368.816406 1216.726562 2366.175781 1216.988281 C 2363.535156 1217.25 2360.886719 1217.445312 2358.238281 1217.574219 C 2355.585938 1217.703125 2352.933594 1217.769531 2350.277344 1217.769531 C 2347.625 1217.769531 2344.972656 1217.703125 2342.320312 1217.574219 C 2339.667969 1217.445312 2337.023438 1217.25 2334.378906 1216.988281 C 2331.738281 1216.726562 2329.105469 1216.402344 2326.480469 1216.015625 C 2323.851562 1215.625 2321.238281 1215.171875 2318.636719 1214.652344 C 2316.03125 1214.136719 2313.441406 1213.554688 2310.867188 1212.910156 C 2308.292969 1212.261719 2305.734375 1211.554688 2303.195312 1210.785156 C 2300.65625 1210.015625 2298.136719 1209.179688 2295.636719 1208.289062 C 2293.136719 1207.394531 2290.660156 1206.4375 2288.207031 1205.421875 C 2285.753906 1204.40625 2283.328125 1203.332031 2280.929688 1202.195312 C 2278.53125 1201.058594 2276.160156 1199.867188 2273.820312 1198.617188 C 2271.476562 1197.363281 2269.167969 1196.054688 2266.890625 1194.691406 C 2264.617188 1193.328125 2262.375 1191.90625 2260.167969 1190.433594 C 2257.960938 1188.957031 2255.789062 1187.429688 2253.65625 1185.847656 C 2251.527344 1184.265625 2249.433594 1182.632812 2247.382812 1180.949219 C 2245.328125 1179.265625 2243.320312 1177.53125 2241.355469 1175.75 C 2239.386719 1173.964844 2237.464844 1172.136719 2235.589844 1170.257812 C 2233.710938 1168.382812 2231.882812 1166.460938 2230.097656 1164.492188 C 2228.316406 1162.527344 2226.582031 1160.515625 2224.898438 1158.464844 C 2223.214844 1156.410156 2221.582031 1154.320312 2220 1152.1875 C 2218.417969 1150.054688 2216.890625 1147.886719 2215.417969 1145.679688 C 2213.941406 1143.46875 2212.523438 1141.226562 2211.15625 1138.953125 C 2209.792969 1136.675781 2208.484375 1134.367188 2207.234375 1132.023438 C 2205.984375 1129.683594 2204.789062 1127.3125 2203.65625 1124.914062 C 2202.519531 1122.511719 2201.445312 1120.085938 2200.429688 1117.632812 C 2199.414062 1115.179688 2198.457031 1112.703125 2197.5625 1110.207031 C 2196.667969 1107.707031 2195.835938 1105.1875 2195.066406 1102.644531 C 2194.296875 1100.105469 2193.585938 1097.546875 2192.941406 1094.972656 C 2192.296875 1092.398438 2191.714844 1089.808594 2191.199219 1087.203125 C 2190.679688 1084.601562 2190.226562 1081.984375 2189.835938 1079.359375 C 2189.449219 1076.734375 2189.125 1074.097656 2188.863281 1071.457031 C 2188.601562 1068.816406 2188.40625 1066.167969 2188.277344 1063.515625 C 2188.148438 1060.867188 2188.082031 1058.210938 2188.082031 1055.558594 C 2188.082031 1052.902344 2188.148438 1050.25 2188.277344 1047.597656 C 2188.40625 1044.945312 2188.601562 1042.300781 2188.863281 1039.660156 C 2189.125 1037.015625 2189.449219 1034.382812 2189.835938 1031.757812 C 2190.226562 1029.128906 2190.679688 1026.515625 2191.199219 1023.910156 C 2191.714844 1021.308594 2192.296875 1018.71875 2192.941406 1016.144531 C 2193.585938 1013.570312 2194.296875 1011.011719 2195.066406 1008.46875 C 2195.835938 1005.929688 2196.667969 1003.410156 2197.5625 1000.910156 C 2198.457031 998.410156 2199.414062 995.933594 2200.429688 993.480469 C 2201.445312 991.03125 2202.519531 988.601562 2203.65625 986.203125 C 2204.789062 983.804688 2205.984375 981.433594 2207.234375 979.09375 C 2208.484375 976.75 2209.792969 974.441406 2211.15625 972.164062 C 2212.523438 969.886719 2213.941406 967.644531 2215.417969 965.4375 C 2216.890625 963.230469 2218.417969 961.0625 2220 958.929688 C 2221.582031 956.796875 2223.214844 954.703125 2224.898438 952.652344 C 2226.582031 950.601562 2228.316406 948.589844 2230.097656 946.625 C 2231.882812 944.65625 2233.710938 942.734375 2235.589844 940.855469 C 2237.464844 938.980469 2239.386719 937.148438 2241.355469 935.367188 C 2243.320312 933.585938 2245.328125 931.851562 2247.382812 930.167969 C 2249.433594 928.484375 2251.527344 926.851562 2253.65625 925.269531 C 2255.789062 923.6875 2257.960938 922.160156 2260.167969 920.683594 C 2262.375 919.210938 2264.617188 917.789062 2266.890625 916.425781 C 2269.167969 915.058594 2271.476562 913.75 2273.820312 912.5 C 2276.160156 911.25 2278.53125 910.054688 2280.929688 908.921875 C 2283.328125 907.785156 2285.753906 906.710938 2288.207031 905.695312 C 2290.660156 904.679688 2293.136719 903.722656 2295.636719 902.828125 C 2298.136719 901.933594 2300.65625 901.101562 2303.195312 900.332031 C 2305.734375 899.5625 2308.292969 898.851562 2310.867188 898.207031 C 2313.441406 897.5625 2316.03125 896.980469 2318.636719 896.464844 C 2321.238281 895.945312 2323.851562 895.492188 2326.480469 895.101562 C 2329.105469 894.710938 2331.738281 894.386719 2334.378906 894.128906 C 2337.023438 893.867188 2339.667969 893.671875 2342.320312 893.542969 C 2344.96875 893.410156 2347.625 893.347656 2350.277344 893.347656 C 2352.933594 893.347656 2355.585938 893.410156 2358.238281 893.542969 C 2360.886719 893.671875 2363.535156 893.867188 2366.175781 894.128906 C 2368.816406 894.386719 2371.453125 894.710938 2374.078125 895.101562 C 2376.703125 895.492188 2379.316406 895.945312 2381.921875 896.464844 C 2384.523438 896.980469 2387.113281 897.5625 2389.6875 898.207031 C 2392.261719 898.851562 2394.820312 899.5625 2397.359375 900.332031 C 2399.902344 901.101562 2402.421875 901.933594 2404.921875 902.828125 C 2407.417969 903.722656 2409.894531 904.679688 2412.347656 905.695312 C 2414.800781 906.710938 2417.226562 907.785156 2419.625 908.921875 C 2422.023438 910.054688 2424.394531 911.25 2426.738281 912.5 C 2429.078125 913.75 2431.386719 915.058594 2433.664062 916.425781 C 2435.941406 917.789062 2438.183594 919.210938 2440.390625 920.683594 C 2442.597656 922.160156 2444.765625 923.6875 2446.898438 925.269531 C 2449.03125 926.851562 2451.121094 928.484375 2453.175781 930.167969 C 2455.226562 931.851562 2457.234375 933.585938 2459.203125 935.367188 C 2461.167969 937.148438 2463.089844 938.980469 2464.96875 940.855469 C 2466.84375 942.734375 2468.675781 944.65625 2470.457031 946.625 C 2472.238281 948.589844 2473.972656 950.601562 2475.65625 952.652344 C 2477.339844 954.703125 2478.972656 956.796875 2480.554688 958.929688 C 2482.136719 961.0625 2483.664062 963.230469 2485.140625 965.4375 C 2486.613281 967.644531 2488.035156 969.886719 2489.398438 972.164062 C 2490.761719 974.441406 2492.070312 976.75 2493.320312 979.09375 C 2494.574219 981.433594 2495.765625 983.804688 2496.902344 986.203125 C 2498.035156 988.601562 2499.113281 991.03125 2500.128906 993.480469 C 2501.144531 995.933594 2502.097656 998.410156 2502.992188 1000.910156 C 2503.886719 1003.410156 2504.71875 1005.929688 2505.488281 1008.46875 C 2506.261719 1011.011719 2506.96875 1013.570312 2507.613281 1016.144531 C 2508.257812 1018.71875 2508.839844 1021.308594 2509.355469 1023.914062 C 2509.875 1026.515625 2510.328125 1029.128906 2510.71875 1031.757812 C 2511.109375 1034.382812 2511.433594 1037.015625 2511.691406 1039.660156 C 2511.953125 1042.300781 2512.148438 1044.945312 2512.277344 1047.597656 C 2512.410156 1050.25 2512.472656 1052.902344 2512.472656 1055.558594 Z M 2512.472656 1055.558594 "
     fill-opacity="0.4392"
     fill-rule="nonzero"
     id="path664"
     style="fill:#ffbdfa;fill-opacity:0.449" />
  <path
     fill="#b179ff"
     d="M 2903 1111.078125 C 2904.449219 1153.078125 2888.515625 1189.285156 2864.382812 1217.769531 C 2777.972656 1213.90625 2709.425781 1142.941406 2709.425781 1055.558594 C 2709.425781 965.761719 2782.316406 892.863281 2872.105469 892.863281 C 2882.726562 892.863281 2892.863281 893.828125 2902.515625 895.761719 Z M 2903 1111.078125 "
     fill-opacity="0.4588"
     fill-rule="nonzero"
     id="path666"
     style="fill:#ffbdfa;fill-opacity:0.449" />
  <path
     fill="#2e1144"
     d="M 2460.339844 910.726562 C 2460.339844 912.179688 2460.269531 913.632812 2460.125 915.078125 C 2459.984375 916.527344 2459.769531 917.964844 2459.484375 919.390625 C 2459.203125 920.816406 2458.847656 922.226562 2458.425781 923.621094 C 2458.003906 925.011719 2457.515625 926.378906 2456.957031 927.722656 C 2456.402344 929.066406 2455.78125 930.378906 2455.09375 931.664062 C 2454.410156 932.945312 2453.664062 934.191406 2452.855469 935.402344 C 2452.046875 936.613281 2451.179688 937.777344 2450.257812 938.902344 C 2449.335938 940.027344 2448.359375 941.105469 2447.332031 942.132812 C 2446.304688 943.160156 2445.226562 944.136719 2444.101562 945.058594 C 2442.976562 945.980469 2441.8125 946.847656 2440.601562 947.65625 C 2439.390625 948.464844 2438.144531 949.210938 2436.863281 949.898438 C 2435.582031 950.582031 2434.269531 951.203125 2432.921875 951.761719 C 2431.578125 952.316406 2430.210938 952.804688 2428.820312 953.230469 C 2427.429688 953.652344 2426.019531 954.003906 2424.59375 954.289062 C 2423.167969 954.570312 2421.730469 954.785156 2420.28125 954.925781 C 2418.835938 955.070312 2417.382812 955.140625 2415.929688 955.140625 C 2414.472656 955.140625 2413.023438 955.070312 2411.574219 954.925781 C 2410.128906 954.785156 2408.691406 954.570312 2407.265625 954.289062 C 2405.839844 954.003906 2404.429688 953.652344 2403.035156 953.230469 C 2401.644531 952.804688 2400.277344 952.316406 2398.933594 951.761719 C 2397.589844 951.203125 2396.277344 950.582031 2394.992188 949.898438 C 2393.710938 949.210938 2392.464844 948.464844 2391.253906 947.65625 C 2390.046875 946.847656 2388.878906 945.980469 2387.753906 945.058594 C 2386.628906 944.136719 2385.554688 943.160156 2384.523438 942.132812 C 2383.496094 941.105469 2382.519531 940.027344 2381.597656 938.902344 C 2380.675781 937.777344 2379.808594 936.609375 2379.003906 935.402344 C 2378.195312 934.191406 2377.449219 932.945312 2376.761719 931.664062 C 2376.074219 930.378906 2375.453125 929.066406 2374.898438 927.722656 C 2374.339844 926.378906 2373.851562 925.011719 2373.429688 923.621094 C 2373.007812 922.226562 2372.65625 920.816406 2372.371094 919.390625 C 2372.085938 917.964844 2371.875 916.527344 2371.730469 915.078125 C 2371.589844 913.632812 2371.519531 912.179688 2371.519531 910.726562 C 2371.519531 909.273438 2371.589844 907.820312 2371.730469 906.371094 C 2371.875 904.925781 2372.085938 903.488281 2372.371094 902.0625 C 2372.65625 900.632812 2373.007812 899.226562 2373.429688 897.832031 C 2373.851562 896.441406 2374.339844 895.074219 2374.898438 893.730469 C 2375.453125 892.386719 2376.074219 891.070312 2376.761719 889.789062 C 2377.449219 888.507812 2378.195312 887.261719 2379.003906 886.050781 C 2379.808594 884.839844 2380.675781 883.675781 2381.597656 882.550781 C 2382.519531 881.425781 2383.496094 880.347656 2384.527344 879.320312 C 2385.554688 878.292969 2386.628906 877.316406 2387.753906 876.394531 C 2388.878906 875.46875 2390.046875 874.605469 2391.253906 873.796875 C 2392.464844 872.988281 2393.710938 872.242188 2394.992188 871.554688 C 2396.277344 870.871094 2397.589844 870.25 2398.933594 869.691406 C 2400.277344 869.136719 2401.644531 868.644531 2403.035156 868.222656 C 2404.429688 867.800781 2405.839844 867.449219 2407.265625 867.164062 C 2408.691406 866.882812 2410.128906 866.667969 2411.574219 866.523438 C 2413.023438 866.382812 2414.472656 866.3125 2415.929688 866.3125 C 2417.382812 866.3125 2418.835938 866.382812 2420.28125 866.523438 C 2421.730469 866.667969 2423.167969 866.882812 2424.59375 867.164062 C 2426.019531 867.449219 2427.429688 867.800781 2428.820312 868.222656 C 2430.210938 868.644531 2431.578125 869.136719 2432.921875 869.691406 C 2434.269531 870.25 2435.582031 870.871094 2436.863281 871.554688 C 2438.144531 872.242188 2439.390625 872.988281 2440.601562 873.796875 C 2441.8125 874.605469 2442.976562 875.46875 2444.101562 876.394531 C 2445.226562 877.316406 2446.304688 878.292969 2447.332031 879.320312 C 2448.359375 880.347656 2449.335938 881.425781 2450.257812 882.550781 C 2451.179688 883.675781 2452.046875 884.839844 2452.855469 886.050781 C 2453.664062 887.261719 2454.410156 888.507812 2455.09375 889.789062 C 2455.78125 891.070312 2456.402344 892.386719 2456.957031 893.730469 C 2457.515625 895.074219 2458.003906 896.441406 2458.425781 897.832031 C 2458.847656 899.226562 2459.203125 900.632812 2459.484375 902.0625 C 2459.769531 903.488281 2459.984375 904.925781 2460.125 906.371094 C 2460.269531 907.820312 2460.339844 909.273438 2460.339844 910.726562 Z M 2460.339844 910.726562 "
     fill-opacity="1"
     fill-rule="nonzero"
     id="path668"
     style="fill:#000000" />
  <path
     fill="#2e1144"
     d="M 2803.398438 867.703125 C 2804.8125 868.039062 2806.207031 868.441406 2807.585938 868.914062 C 2808.960938 869.382812 2810.308594 869.921875 2811.632812 870.527344 C 2812.957031 871.128906 2814.246094 871.796875 2815.503906 872.527344 C 2816.761719 873.257812 2817.980469 874.050781 2819.160156 874.902344 C 2820.339844 875.75 2821.476562 876.65625 2822.566406 877.621094 C 2823.65625 878.582031 2824.699219 879.597656 2825.691406 880.660156 C 2826.679688 881.722656 2827.617188 882.835938 2828.5 883.992188 C 2829.382812 885.148438 2830.207031 886.34375 2830.96875 887.582031 C 2831.734375 888.820312 2832.4375 890.09375 2833.078125 891.398438 C 2833.714844 892.703125 2834.289062 894.039062 2834.800781 895.402344 C 2835.308594 896.765625 2835.75 898.148438 2836.121094 899.554688 C 2836.492188 900.960938 2836.796875 902.382812 2837.027344 903.820312 C 2837.261719 905.253906 2837.421875 906.699219 2837.515625 908.148438 C 2837.605469 909.601562 2837.625 911.054688 2837.574219 912.507812 C 2837.523438 913.960938 2837.398438 915.410156 2837.207031 916.851562 C 2837.011719 918.292969 2836.746094 919.722656 2836.414062 921.136719 C 2836.078125 922.554688 2835.675781 923.949219 2835.203125 925.324219 C 2834.734375 926.703125 2834.195312 928.050781 2833.589844 929.375 C 2832.988281 930.699219 2832.320312 931.988281 2831.589844 933.246094 C 2830.859375 934.503906 2830.066406 935.722656 2829.21875 936.902344 C 2828.367188 938.082031 2827.460938 939.21875 2826.5 940.308594 C 2825.535156 941.398438 2824.523438 942.441406 2823.457031 943.433594 C 2822.394531 944.425781 2821.285156 945.359375 2820.128906 946.242188 C 2818.972656 947.125 2817.773438 947.949219 2816.535156 948.714844 C 2815.300781 949.480469 2814.027344 950.179688 2812.722656 950.820312 C 2811.414062 951.460938 2810.082031 952.035156 2808.71875 952.542969 C 2807.355469 953.050781 2805.972656 953.492188 2804.566406 953.863281 C 2803.160156 954.238281 2801.738281 954.539062 2800.300781 954.773438 C 2798.867188 955.007812 2797.421875 955.167969 2795.972656 955.257812 C 2794.519531 955.351562 2793.066406 955.371094 2791.613281 955.316406 C 2790.160156 955.265625 2788.710938 955.144531 2787.269531 954.949219 C 2785.828125 954.753906 2784.402344 954.492188 2782.984375 954.15625 C 2781.570312 953.824219 2780.171875 953.417969 2778.796875 952.949219 C 2777.421875 952.476562 2776.070312 951.9375 2774.75 951.335938 C 2773.425781 950.730469 2772.136719 950.0625 2770.878906 949.332031 C 2769.621094 948.601562 2768.402344 947.8125 2767.222656 946.960938 C 2766.042969 946.109375 2764.90625 945.203125 2763.816406 944.242188 C 2762.722656 943.277344 2761.683594 942.265625 2760.691406 941.203125 C 2759.699219 940.136719 2758.765625 939.027344 2757.882812 937.871094 C 2757 936.714844 2756.175781 935.515625 2755.410156 934.277344 C 2754.648438 933.042969 2753.945312 931.769531 2753.304688 930.464844 C 2752.664062 929.15625 2752.089844 927.820312 2751.582031 926.460938 C 2751.074219 925.097656 2750.632812 923.710938 2750.261719 922.304688 C 2749.890625 920.898438 2749.585938 919.480469 2749.351562 918.042969 C 2749.121094 916.605469 2748.957031 915.164062 2748.867188 913.710938 C 2748.777344 912.257812 2748.757812 910.804688 2748.808594 909.351562 C 2748.859375 907.898438 2748.984375 906.453125 2749.175781 905.007812 C 2749.371094 903.566406 2749.636719 902.140625 2749.96875 900.722656 C 2750.304688 899.308594 2750.707031 897.910156 2751.175781 896.535156 C 2751.648438 895.160156 2752.1875 893.808594 2752.789062 892.488281 C 2753.394531 891.164062 2754.0625 889.871094 2754.792969 888.613281 C 2755.523438 887.359375 2756.3125 886.136719 2757.164062 884.957031 C 2758.015625 883.777344 2758.921875 882.644531 2759.882812 881.550781 C 2760.847656 880.460938 2761.859375 879.421875 2762.921875 878.429688 C 2763.988281 877.4375 2765.097656 876.5 2766.253906 875.617188 C 2767.410156 874.734375 2768.609375 873.914062 2769.84375 873.148438 C 2771.082031 872.382812 2772.355469 871.679688 2773.660156 871.042969 C 2774.96875 870.402344 2776.300781 869.828125 2777.664062 869.320312 C 2779.027344 868.808594 2780.410156 868.371094 2781.816406 867.996094 C 2783.222656 867.625 2784.644531 867.320312 2786.078125 867.089844 C 2787.515625 866.855469 2788.960938 866.695312 2790.410156 866.601562 C 2791.863281 866.511719 2793.316406 866.492188 2794.769531 866.542969 C 2796.222656 866.59375 2797.671875 866.71875 2799.113281 866.910156 C 2800.554688 867.105469 2801.980469 867.371094 2803.398438 867.703125 Z M 2803.398438 867.703125 "
     fill-opacity="1"
     fill-rule="nonzero"
     id="path670"
     style="fill:#000000" />
  <path
     stroke-linecap="round"
     transform="matrix(4.827261, 0, 0, 4.827727, 1354.413959, 59.597945)"
     fill="none"
     stroke-linejoin="round"
     d="M 251.49971 188.500103 C 251.49971 188.500103 254.09969 205.600218 263.099682 205.300031 C 272.200016 204.999845 273.400069 187.600353 273.400069 187.600353 "
     stroke="#2e1144"
     stroke-width="2.535"
     stroke-opacity="1"
     stroke-miterlimit="10"
     id="path672"
     style="stroke:#000000;stroke-opacity:1" />
  <path
     fill="#2e1144"
     d="M 2334.347656 839.757812 C 2334.347656 839.757812 2350.277344 775.550781 2398.550781 775.550781 C 2446.824219 775.550781 2460.820312 798.722656 2460.820312 798.722656 Z M 2334.347656 839.757812 "
     fill-opacity="1"
     fill-rule="nonzero"
     id="path674"
     style="fill:#f5bb68;fill-opacity:1" />
  <path
     fill="#2e1144"
     d="M 2873.554688 826.722656 C 2873.554688 826.722656 2848.453125 765.410156 2800.660156 772.171875 C 2752.871094 778.929688 2742.25 804.035156 2742.25 804.035156 Z M 2873.554688 826.722656 "
     fill-opacity="1"
     fill-rule="nonzero"
     id="path676"
     style="fill:#f5bb68;fill-opacity:1" />
  <path
     fill="#2e1144"
     d="M 2554.953125 1298.875 L 2559.296875 1378.53125 C 2523.578125 1395.914062 2479.648438 1405.566406 2430.894531 1393.015625 C 2298.625 1359.222656 2250.355469 1283.910156 2250.355469 1283.910156 L 2555.917969 1294.53125 Z M 2554.953125 1298.875 "
     fill-opacity="0.4392"
     fill-rule="nonzero"
     id="path678" />
  <path
     fill="#2e1144"
     d="M 2075.605469 953.210938 C 2075.605469 953.210938 2210.769531 912.65625 2332.417969 719.546875 C 2454.0625 526.4375 2464.683594 298.570312 2464.683594 298.570312 C 2464.683594 298.570312 2023.953125 307.261719 2006.09375 455.472656 C 1988.234375 603.683594 2036.507812 951.761719 2036.507812 951.761719 "
     fill-opacity="1"
     fill-rule="nonzero"
     id="path680"
     style="fill:#f5bb68;fill-opacity:1" />
  <path
     fill="#00dbda"
     d="M 2014.300781 642.789062 C 2014.300781 642.789062 1829.898438 343.949219 1860.792969 273.949219 C 1891.6875 203.945312 2223.320312 314.984375 2223.320312 314.984375 C 2223.320312 314.984375 2022.507812 462.714844 2014.300781 642.789062 Z M 2014.300781 642.789062 "
     fill-opacity="1"
     fill-rule="nonzero"
     id="path682"
     style="fill:#ff00ff;fill-opacity:1" />
  <path
     fill="#ffe7de"
     d="M 2046.160156 525.957031 C 2046.160156 525.957031 1924.511719 339.605469 1952.996094 307.742188 C 1981.476562 275.398438 2175.046875 336.226562 2175.046875 336.226562 Z M 2046.160156 525.957031 "
     fill-opacity="1"
     fill-rule="nonzero"
     id="path684"
     style="fill:#00ffff;fill-opacity:1" />
  <path
     fill="#00dbda"
     d="M 2861.484375 538.992188 C 2861.484375 538.992188 2927.136719 193.808594 2873.554688 139.738281 C 2819.96875 85.667969 2549.160156 307.261719 2549.160156 307.261719 C 2549.160156 307.261719 2789.558594 373.398438 2861.484375 538.992188 Z M 2861.484375 538.992188 "
     fill-opacity="1"
     fill-rule="nonzero"
     id="path686"
     style="fill:#ff00ff;fill-opacity:1" />
  <path
     fill="#ffe7de"
     d="M 2838.796875 468.023438 C 2838.796875 468.023438 2886.105469 250.777344 2847.96875 230.980469 C 2809.832031 211.1875 2650.535156 336.710938 2650.535156 336.710938 Z M 2838.796875 468.023438 "
     fill-opacity="1"
     fill-rule="nonzero"
     id="path688"
     style="fill:#00ffff;fill-opacity:1" />
  <path
     fill="#00dbda"
     d="M 1996.921875 793.414062 C 1995.957031 783.757812 1970.371094 554.921875 2095.882812 396.089844 C 2159.601562 315.949219 2250.355469 268.636719 2365.726562 255.605469 C 2373.449219 254.15625 2581.988281 223.257812 2647.636719 320.777344 L 2610.46875 345.882812 C 2568.953125 284.570312 2424.136719 291.8125 2371.519531 300.019531 C 2267.25 311.605469 2186.632812 353.605469 2130.636719 424.089844 C 2016.714844 567.957031 2040.851562 786.171875 2041.332031 788.101562 Z M 1996.921875 793.414062 "
     fill-opacity="1"
     fill-rule="nonzero"
     id="path690"
     style="fill:#ff00ff;fill-opacity:1" />
  <path
     fill="#2e1144"
     d="M 2732.597656 665.476562 C 2720.527344 611.40625 2705.082031 557.335938 2672.257812 513.402344 C 2690.601562 561.679688 2698.804688 613.820312 2697.359375 665.476562 L 2580.539062 665.476562 C 2548.195312 421.675781 2339.65625 312.089844 2339.65625 312.089844 C 2339.65625 312.089844 2529.851562 247.878906 2730.667969 336.226562 C 2931.480469 424.574219 2960.925781 665.476562 2960.925781 665.476562 C 2960.925781 665.476562 2732.597656 665.476562 2732.597656 665.476562 Z M 2732.597656 665.476562 "
     fill-opacity="1"
     fill-rule="nonzero"
     id="path692"
     style="fill:#f5bb68;fill-opacity:1" />
  <path
     fill="#ff93e2"
     d="M 2196.769531 893.347656 C 2196.769531 893.347656 2030.714844 767.34375 1966.511719 847.484375 C 1902.308594 927.625 1917.753906 1072.9375 2106.019531 1098.523438 Z M 2196.769531 893.347656 "
     fill-opacity="1"
     fill-rule="nonzero"
     id="path694" />
  <path
     fill="#2e1144"
     d="M 2255.179688 812.722656 L 2177.460938 993.28125 L 2082.363281 830.101562 Z M 2255.179688 812.722656 "
     fill-opacity="1"
     fill-rule="nonzero"
     id="path696"
     style="fill:#f5bb68;fill-opacity:1" />
  <path
     fill="#b179ff"
     d="M 2109.878906 1392.050781 C 2109.878906 1392.050781 2315.039062 1505.984375 2409.171875 1497.296875 C 2503.300781 1488.605469 2566.054688 1386.257812 2563.160156 1394.945312 C 2560.265625 1403.636719 3041.542969 1463.5 3112.984375 1702.472656 C 3184.429688 1941.445312 3229.804688 2417.460938 3229.804688 2417.460938 L 1463.511719 2417.460938 C 1463.511719 2417.460938 1472.199219 1822.199219 1611.707031 1679.300781 C 1751.214844 1536.398438 2109.878906 1392.050781 2109.878906 1392.050781 Z M 2109.878906 1392.050781 "
     fill-opacity="1"
     fill-rule="nonzero"
     id="path698"
     style="fill:#080008;fill-opacity:1" />
  <path
     fill="#ffe7de"
     d="M 1974.71875 1014.039062 C 1974.71875 1125.558594 1884.929688 1179.148438 1970.371094 1203.285156 C 1975.683594 1204.734375 1980.507812 1206.183594 1985.820312 1207.148438 C 1991.613281 1208.113281 1996.921875 1209.078125 2002.714844 1209.078125 C 2006.578125 1209.5625 2009.957031 1209.5625 2013.816406 1209.5625 C 2021.058594 1209.5625 2027.816406 1209.078125 2034.574219 1208.113281 C 2057.746094 1205.21875 2078.984375 1197.011719 2097.8125 1184.457031 C 2156.222656 1146.320312 2191.945312 1068.109375 2191.945312 976.382812 C 2191.945312 878.863281 2151.394531 793.894531 2086.710938 757.203125 C 2070.296875 748.03125 2051.953125 741.753906 2032.644531 739.34375 C 2026.367188 738.375 2025.402344 848.929688 2018.644531 848.929688 C 2012.371094 848.929688 1978.578125 830.585938 1972.304688 831.070312 C 1967.476562 831.550781 1984.855469 740.308594 1980.027344 741.273438 C 1976.164062 742.238281 1972.304688 743.203125 1968.925781 744.167969 C 1884.445312 769.757812 1974.71875 903 1974.71875 1014.039062 Z M 1974.71875 1014.039062 "
     fill-opacity="1"
     fill-rule="nonzero"
     id="path700"
     style="fill:#00ffff;fill-opacity:1" />
  <path
     fill="#00dbda"
     d="M 1821.210938 974.453125 C 1821.210938 1085.972656 1884.929688 1179.628906 1970.371094 1203.769531 C 1975.683594 1205.21875 1980.507812 1206.664062 1985.820312 1207.632812 C 1989.199219 1208.113281 1992.578125 1208.597656 1995.957031 1209.078125 C 1998.371094 1209.5625 2000.785156 1209.5625 2003.199219 1209.5625 C 2003.679688 1209.5625 2004.164062 1209.5625 2004.644531 1209.5625 C 2008.023438 1210.046875 2010.921875 1210.046875 2014.300781 1210.046875 C 2021.542969 1210.046875 2028.300781 1209.5625 2035.058594 1208.597656 C 2093.949219 1160.800781 2129.1875 1075.835938 2129.1875 977.347656 C 2129.1875 877.898438 2092.984375 789.066406 2033.128906 740.308594 C 2026.851562 739.34375 2020.574219 738.859375 2014.300781 738.859375 C 2008.023438 738.859375 2001.75 739.34375 1995.472656 739.824219 C 1992.09375 740.308594 1989.199219 740.789062 1986.300781 741.273438 C 1984.855469 741.273438 1982.921875 741.753906 1981.476562 742.238281 C 1980.511719 742.238281 1979.542969 742.722656 1978.578125 742.722656 C 1975.683594 743.203125 1973.269531 744.167969 1970.371094 744.652344 C 1884.445312 769.757812 1821.210938 862.933594 1821.210938 974.453125 Z M 1821.210938 974.453125 "
     fill-opacity="1"
     fill-rule="nonzero"
     id="path702"
     style="fill:#ff00ff;fill-opacity:1" />
  <path
     stroke-linecap="butt"
     transform="matrix(4.827261, 0, 0, 4.827727, 1354.413959, 59.597945)"
     fill="none"
     stroke-linejoin="miter"
     d="M 128.700232 189.500186 C 128.700232 190.004272 128.695377 190.50755 128.685666 191.011637 C 128.675956 191.514915 128.66139 192.017383 128.641969 192.519043 C 128.622548 193.020702 128.598272 193.520743 128.569141 194.019166 C 128.540009 194.517589 128.506022 195.014394 128.467181 195.508771 C 128.429148 196.003149 128.385451 196.495099 128.337708 196.983812 C 128.289155 197.472525 128.236557 197.958002 128.179103 198.441052 C 128.121649 198.923292 128.059341 199.401487 127.992986 199.876445 C 127.925822 200.350594 127.854611 200.820698 127.778546 201.286756 C 127.70329 201.752004 127.623178 202.213207 127.538212 202.668747 C 127.453245 203.124286 127.364232 203.574161 127.271174 204.019181 C 127.178115 204.463393 127.080201 204.90194 126.978241 205.334015 C 126.87709 205.766898 126.771084 206.1925 126.661032 206.611628 C 126.55098 207.030757 126.436882 207.442603 126.318738 207.847167 C 126.200594 208.25254 126.079213 208.649822 125.953786 209.039013 C 125.82755 209.429012 125.698886 209.810921 125.565367 210.183929 C 125.432657 210.557746 125.295901 210.922663 125.155908 211.278679 C 125.015916 211.635505 124.872686 211.982621 124.72622 212.321646 C 124.578944 212.659861 124.429241 212.989176 124.276301 213.308782 C 124.123361 213.628388 123.967184 213.938284 123.807771 214.23847 C 123.649166 214.538657 123.487325 214.829134 123.322247 215.109092 C 123.157978 215.389051 122.990473 215.65849 122.820539 215.91822 C 122.650606 216.177141 122.478245 216.425544 122.304266 216.663427 C 122.129477 216.900502 121.952261 217.127058 121.773426 217.343095 C 121.594592 217.558323 121.41333 217.762224 121.230449 217.955605 C 121.047568 218.148178 120.863069 218.329422 120.676143 218.499339 C 120.490025 218.669256 120.302289 218.827036 120.112126 218.973488 C 119.922772 219.119941 119.731799 219.254256 119.540017 219.377243 C 119.348235 219.499422 119.154835 219.609463 118.960625 219.708177 C 118.766416 219.80689 118.571397 219.892658 118.375569 219.966289 C 118.179741 220.040728 117.983104 220.102222 117.785658 220.151579 C 117.589021 220.200936 117.391574 220.238156 117.193319 220.263239 C 116.995873 220.287513 116.797617 220.299649 116.600171 220.299649 C 116.401915 220.299649 116.20366 220.287513 116.006213 220.263239 C 115.808767 220.238156 115.611321 220.200936 115.413874 220.151579 C 115.217237 220.102222 115.0206 220.040728 114.824772 219.966289 C 114.628944 219.892658 114.433925 219.80689 114.239716 219.708177 C 114.045506 219.609463 113.852106 219.499422 113.660324 219.377243 C 113.467733 219.254256 113.276761 219.119941 113.087406 218.973488 C 112.898052 218.827036 112.710316 218.669256 112.523389 218.499339 C 112.337272 218.329422 112.152773 218.148178 111.969892 217.955605 C 111.786203 217.762224 111.60575 217.558323 111.426915 217.343095 C 111.247271 217.127058 111.070864 216.900502 110.896076 216.663427 C 110.721287 216.425544 110.548926 216.177141 110.378993 215.91822 C 110.209869 215.65849 110.042363 215.389051 109.877285 215.109092 C 109.713016 214.829134 109.551175 214.538657 109.391761 214.23847 C 109.233157 213.938284 109.07698 213.628388 108.92404 213.308782 C 108.7711 212.989176 108.620588 212.659861 108.474121 212.321646 C 108.327655 211.982621 108.184425 211.635505 108.043624 211.278679 C 107.903631 210.922663 107.767684 210.557746 107.634165 210.183929 C 107.501455 209.810112 107.371982 209.429012 107.246555 209.039013 C 107.121128 208.649822 106.998938 208.25254 106.880794 207.847167 C 106.763459 207.442603 106.649361 207.030757 106.539309 206.611628 C 106.429257 206.1925 106.323251 205.766898 106.221291 205.334015 C 106.119331 204.90194 106.022226 204.463393 105.928358 204.019181 C 105.8353 203.574161 105.746287 203.124286 105.66213 202.668747 C 105.577163 202.213207 105.497051 201.752004 105.420986 201.286756 C 105.344921 200.820698 105.273711 200.350594 105.207356 199.876445 C 105.141001 199.401487 105.078692 198.923292 105.021238 198.441052 C 104.963785 197.958002 104.910377 197.472525 104.862634 196.983812 C 104.814891 196.495099 104.771193 196.003149 104.732352 195.508771 C 104.69351 195.014394 104.660332 194.517589 104.631201 194.019166 C 104.602069 193.520743 104.577793 193.020702 104.558372 192.519043 C 104.538951 192.017383 104.524386 191.514915 104.514675 191.011637 C 104.504965 190.50755 104.500109 190.004272 104.500109 189.500186 C 104.500109 188.996099 104.504965 188.492012 104.514675 187.988734 C 104.524386 187.485456 104.538951 186.982988 104.558372 186.481328 C 104.577793 185.979669 104.602069 185.479628 104.631201 184.980396 C 104.660332 184.481973 104.69351 183.985168 104.732352 183.4916 C 104.771193 182.996413 104.814891 182.505273 104.862634 182.016559 C 104.910377 181.527037 104.963785 181.04156 105.021238 180.559319 C 105.078692 180.077079 105.141001 179.598075 105.207356 179.123926 C 105.273711 178.648968 105.344921 178.178864 105.420986 177.713615 C 105.497051 177.247558 105.577163 176.787164 105.66213 176.331625 C 105.746287 175.875276 105.8353 175.425401 105.928358 174.98119 C 106.022226 174.536169 106.119331 174.097622 106.221291 173.665547 C 106.323251 173.233473 106.429257 172.807871 106.539309 172.388743 C 106.649361 171.969615 106.763459 171.556959 106.880794 171.152395 C 106.998938 170.747831 107.121128 170.350549 107.246555 169.960549 C 107.371982 169.571359 107.501455 169.18945 107.634165 168.815633 C 107.767684 168.442625 107.903631 168.077708 108.043624 167.720883 C 108.184425 167.364866 108.327655 167.016941 108.474121 166.678725 C 108.620588 166.34051 108.7711 166.011195 108.92404 165.691589 C 109.07698 165.371174 109.233157 165.061278 109.391761 164.761092 C 109.551175 164.460905 109.713016 164.170428 109.877285 163.89047 C 110.042363 163.610511 110.209869 163.341072 110.378993 163.082151 C 110.548926 162.822421 110.721287 162.574018 110.896076 162.336944 C 111.070864 162.09906 111.247271 161.872504 111.426915 161.657276 C 111.60575 161.441239 111.786203 161.237338 111.969892 161.044766 C 112.152773 160.851384 112.337272 160.67014 112.523389 160.500223 C 112.710316 160.330306 112.898052 160.172526 113.087406 160.026074 C 113.276761 159.879621 113.467733 159.745306 113.660324 159.623128 C 113.852106 159.50014 114.045506 159.390099 114.239716 159.292194 C 114.433925 159.193481 114.628944 159.107713 114.824772 159.033273 C 115.0206 158.959643 115.217237 158.89734 115.413874 158.847983 C 115.611321 158.798626 115.808767 158.762215 116.006213 158.737132 C 116.20366 158.712049 116.401915 158.699913 116.600171 158.699913 C 116.797617 158.699913 116.995873 158.712049 117.193319 158.737132 C 117.391574 158.762215 117.589021 158.798626 117.785658 158.847983 C 117.983104 158.89734 118.179741 158.959643 118.375569 159.033273 C 118.571397 159.107713 118.766416 159.193481 118.960625 159.292194 C 119.154835 159.390099 119.348235 159.50014 119.540017 159.623128 C 119.731799 159.745306 119.922772 159.879621 120.112126 160.026074 C 120.302289 160.172526 120.490025 160.330306 120.676143 160.500223 C 120.863069 160.67014 121.047568 160.851384 121.230449 161.044766 C 121.41333 161.237338 121.594592 161.441239 121.773426 161.657276 C 121.952261 161.872504 122.129477 162.09906 122.304266 162.336944 C 122.478245 162.574827 122.650606 162.822421 122.820539 163.082151 C 122.990473 163.341072 123.157978 163.610511 123.322247 163.89047 C 123.487325 164.170428 123.649166 164.460905 123.807771 164.761092 C 123.967184 165.061278 124.123361 165.371174 124.276301 165.691589 C 124.429241 166.011195 124.578944 166.34051 124.72622 166.678725 C 124.872686 167.016941 125.015916 167.364866 125.155908 167.720883 C 125.295901 168.077708 125.432657 168.442625 125.565367 168.815633 C 125.698077 169.18945 125.82755 169.571359 125.953786 169.960549 C 126.079213 170.350549 126.200594 170.747831 126.318738 171.152395 C 126.436882 171.556959 126.55098 171.969615 126.661032 172.388743 C 126.771084 172.807871 126.87709 173.233473 126.978241 173.665547 C 127.080201 174.097622 127.178115 174.536169 127.271174 174.98119 C 127.364232 175.425401 127.453245 175.875276 127.538212 176.331625 C 127.623178 176.787164 127.70329 177.247558 127.778546 177.713615 C 127.854611 178.178864 127.925822 178.648968 127.992986 179.123926 C 128.059341 179.598075 128.121649 180.077079 128.179103 180.559319 C 128.236557 181.04156 128.289155 181.527037 128.337708 182.016559 C 128.385451 182.505273 128.429148 182.996413 128.467181 183.4916 C 128.506022 183.985168 128.540009 184.481973 128.569141 184.980396 C 128.598272 185.479628 128.622548 185.979669 128.641969 186.481328 C 128.66139 186.982988 128.675956 187.485456 128.685666 187.988734 C 128.695377 188.492012 128.700232 188.996099 128.700232 189.500186 Z M 128.700232 189.500186 "
     stroke="#2e1144"
     stroke-width="1.496"
     stroke-opacity="1"
     stroke-miterlimit="10"
     id="path704" />
  <path
     fill="#2e1144"
     d="M 2073.191406 1002.9375 C 2071.746094 1072.9375 2043.746094 1144.386719 1995.472656 1208.597656 C 1997.886719 1209.078125 2000.300781 1209.078125 2002.714844 1209.078125 C 2003.199219 1209.078125 2003.679688 1209.078125 2004.164062 1209.078125 C 2051.46875 1144.871094 2078.984375 1072.9375 2080.917969 1002.9375 C 2082.847656 918.933594 2050.988281 830.585938 1985.820312 741.273438 C 1984.371094 741.273438 1982.441406 741.757812 1980.992188 742.238281 C 1980.027344 742.238281 1979.0625 742.722656 1978.097656 742.722656 C 2043.265625 832.035156 2075.125 919.417969 2073.191406 1002.9375 Z M 2073.191406 1002.9375 "
     fill-opacity="1"
     fill-rule="nonzero"
     id="path706" />
  <path
     fill="#2e1144"
     d="M 2055.816406 2414.082031 L 2460.824219 1568.261719 L 3734.738281 1568.261719 L 3423.378906 2402.492188 C 3423.378906 2402.492188 2055.816406 2410.21875 2055.816406 2414.082031 Z M 2055.816406 2414.082031 "
     fill-opacity="1"
     fill-rule="nonzero"
     id="path708"
     style="fill:#aeaeae;fill-opacity:1" />
  <path
     fill="#ffe7de"
     d="M 3045.753906 1871.78125 C 3046.867188 1872.082031 3047.96875 1872.433594 3049.050781 1872.835938 C 3050.136719 1873.238281 3051.207031 1873.695312 3052.257812 1874.199219 C 3053.3125 1874.703125 3054.347656 1875.257812 3055.367188 1875.863281 C 3056.386719 1876.464844 3057.386719 1877.121094 3058.367188 1877.824219 C 3059.347656 1878.527344 3060.3125 1879.28125 3061.253906 1880.082031 C 3062.199219 1880.882812 3063.121094 1881.730469 3064.023438 1882.625 C 3064.921875 1883.523438 3065.804688 1884.464844 3066.660156 1885.453125 C 3067.519531 1886.445312 3068.355469 1887.480469 3069.167969 1888.558594 C 3069.980469 1889.640625 3070.769531 1890.761719 3071.535156 1891.933594 C 3072.300781 1893.101562 3073.039062 1894.3125 3073.753906 1895.566406 C 3074.472656 1896.820312 3075.160156 1898.113281 3075.824219 1899.449219 C 3076.492188 1900.785156 3077.128906 1902.160156 3077.742188 1903.574219 C 3078.351562 1904.992188 3078.9375 1906.445312 3079.496094 1907.933594 C 3080.054688 1909.425781 3080.582031 1910.953125 3081.085938 1912.515625 C 3081.589844 1914.078125 3082.0625 1915.675781 3082.507812 1917.304688 C 3082.953125 1918.9375 3083.371094 1920.601562 3083.757812 1922.296875 C 3084.144531 1923.992188 3084.503906 1925.71875 3084.832031 1927.472656 C 3085.164062 1929.230469 3085.460938 1931.015625 3085.730469 1932.828125 C 3086 1934.640625 3086.238281 1936.476562 3086.449219 1938.339844 C 3086.660156 1940.203125 3086.835938 1942.09375 3086.988281 1944.003906 C 3087.136719 1945.914062 3087.253906 1947.847656 3087.339844 1949.800781 C 3087.429688 1951.753906 3087.484375 1953.726562 3087.511719 1955.71875 C 3087.539062 1957.710938 3087.535156 1959.71875 3087.5 1961.742188 C 3087.464844 1963.769531 3087.398438 1965.808594 3087.304688 1967.859375 C 3087.207031 1969.914062 3087.082031 1971.976562 3086.925781 1974.054688 C 3086.765625 1976.128906 3086.578125 1978.214844 3086.363281 1980.3125 C 3086.144531 1982.40625 3085.898438 1984.507812 3085.621094 1986.613281 C 3085.339844 1988.722656 3085.035156 1990.835938 3084.695312 1992.953125 C 3084.359375 1995.066406 3083.992188 1997.183594 3083.597656 1999.304688 C 3083.203125 2001.421875 3082.777344 2003.542969 3082.324219 2005.660156 C 3081.871094 2007.777344 3081.390625 2009.890625 3080.878906 2012 C 3080.371094 2014.109375 3079.832031 2016.214844 3079.265625 2018.3125 C 3078.699219 2020.410156 3078.109375 2022.5 3077.488281 2024.582031 C 3076.871094 2026.660156 3076.226562 2028.730469 3075.554688 2030.789062 C 3074.882812 2032.847656 3074.183594 2034.890625 3073.460938 2036.921875 C 3072.738281 2038.953125 3071.992188 2040.96875 3071.21875 2042.96875 C 3070.449219 2044.96875 3069.652344 2046.949219 3068.835938 2048.910156 C 3068.015625 2050.871094 3067.175781 2052.8125 3066.308594 2054.734375 C 3065.445312 2056.65625 3064.558594 2058.550781 3063.652344 2060.425781 C 3062.746094 2062.300781 3061.816406 2064.148438 3060.867188 2065.972656 C 3059.921875 2067.796875 3058.953125 2069.59375 3057.964844 2071.359375 C 3056.976562 2073.128906 3055.972656 2074.867188 3054.949219 2076.574219 C 3053.925781 2078.285156 3052.886719 2079.960938 3051.828125 2081.605469 C 3050.769531 2083.25 3049.699219 2084.863281 3048.609375 2086.441406 C 3047.519531 2088.019531 3046.417969 2089.558594 3045.300781 2091.066406 C 3044.183594 2092.574219 3043.050781 2094.042969 3041.90625 2095.472656 C 3040.765625 2096.902344 3039.609375 2098.296875 3038.441406 2099.648438 C 3037.277344 2101 3036.097656 2102.3125 3034.910156 2103.585938 C 3033.722656 2104.855469 3032.527344 2106.085938 3031.324219 2107.269531 C 3030.117188 2108.457031 3028.90625 2109.601562 3027.6875 2110.699219 C 3026.46875 2111.796875 3025.242188 2112.851562 3024.011719 2113.859375 C 3022.78125 2114.871094 3021.542969 2115.832031 3020.304688 2116.746094 C 3019.0625 2117.664062 3017.820312 2118.53125 3016.574219 2119.355469 C 3015.328125 2120.175781 3014.082031 2120.949219 3012.832031 2121.671875 C 3011.585938 2122.394531 3010.335938 2123.070312 3009.085938 2123.695312 C 3007.839844 2124.324219 3006.59375 2124.898438 3005.347656 2125.421875 C 3004.101562 2125.949219 3002.859375 2126.425781 3001.621094 2126.847656 C 3000.382812 2127.273438 2999.148438 2127.644531 2997.917969 2127.96875 C 2996.6875 2128.289062 2995.464844 2128.558594 2994.246094 2128.777344 C 2993.027344 2128.996094 2991.816406 2129.164062 2990.617188 2129.277344 C 2989.414062 2129.394531 2988.21875 2129.457031 2987.035156 2129.464844 C 2985.851562 2129.476562 2984.675781 2129.4375 2983.511719 2129.34375 C 2982.347656 2129.25 2981.195312 2129.105469 2980.058594 2128.910156 C 2978.917969 2128.710938 2977.789062 2128.464844 2976.675781 2128.164062 C 2975.5625 2127.863281 2974.464844 2127.511719 2973.378906 2127.109375 C 2972.292969 2126.707031 2971.226562 2126.253906 2970.171875 2125.75 C 2969.121094 2125.242188 2968.082031 2124.6875 2967.066406 2124.085938 C 2966.046875 2123.480469 2965.046875 2122.824219 2964.0625 2122.121094 C 2963.082031 2121.417969 2962.121094 2120.667969 2961.175781 2119.867188 C 2960.234375 2119.066406 2959.3125 2118.214844 2958.410156 2117.320312 C 2957.507812 2116.421875 2956.628906 2115.480469 2955.769531 2114.492188 C 2954.910156 2113.503906 2954.074219 2112.46875 2953.261719 2111.386719 C 2952.449219 2110.308594 2951.660156 2109.183594 2950.898438 2108.015625 C 2950.132812 2106.847656 2949.390625 2105.636719 2948.675781 2104.382812 C 2947.960938 2103.128906 2947.269531 2101.832031 2946.605469 2100.496094 C 2945.941406 2099.160156 2945.300781 2097.785156 2944.691406 2096.371094 C 2944.078125 2094.957031 2943.492188 2093.503906 2942.933594 2092.011719 C 2942.378906 2090.519531 2941.847656 2088.992188 2941.34375 2087.429688 C 2940.84375 2085.867188 2940.367188 2084.269531 2939.921875 2082.640625 C 2939.476562 2081.007812 2939.0625 2079.34375 2938.671875 2077.648438 C 2938.285156 2075.953125 2937.925781 2074.226562 2937.597656 2072.472656 C 2937.269531 2070.714844 2936.96875 2068.933594 2936.699219 2067.121094 C 2936.429688 2065.308594 2936.191406 2063.46875 2935.980469 2061.605469 C 2935.773438 2059.742188 2935.59375 2057.855469 2935.445312 2055.945312 C 2935.296875 2054.03125 2935.175781 2052.101562 2935.089844 2050.144531 C 2935 2048.191406 2934.945312 2046.21875 2934.917969 2044.226562 C 2934.890625 2042.234375 2934.894531 2040.226562 2934.929688 2038.203125 C 2934.964844 2036.179688 2935.03125 2034.140625 2935.128906 2032.085938 C 2935.222656 2030.035156 2935.347656 2027.96875 2935.507812 2025.890625 C 2935.664062 2023.816406 2935.851562 2021.730469 2936.070312 2019.636719 C 2936.285156 2017.539062 2936.535156 2015.4375 2936.8125 2013.332031 C 2937.089844 2011.222656 2937.398438 2009.113281 2937.734375 2006.996094 C 2938.070312 2004.878906 2938.4375 2002.761719 2938.832031 2000.640625 C 2939.230469 1998.523438 2939.652344 1996.40625 2940.105469 1994.289062 C 2940.5625 1992.171875 2941.042969 1990.054688 2941.550781 1987.945312 C 2942.0625 1985.835938 2942.601562 1983.730469 2943.164062 1981.632812 C 2943.730469 1979.535156 2944.324219 1977.445312 2944.941406 1975.367188 C 2945.5625 1973.285156 2946.207031 1971.214844 2946.878906 1969.15625 C 2947.550781 1967.097656 2948.246094 1965.054688 2948.96875 1963.023438 C 2949.691406 1960.992188 2950.4375 1958.976562 2951.210938 1956.976562 C 2951.984375 1954.980469 2952.777344 1953 2953.597656 1951.035156 C 2954.414062 1949.074219 2955.257812 1947.132812 2956.121094 1945.210938 C 2956.984375 1943.292969 2957.871094 1941.394531 2958.777344 1939.519531 C 2959.6875 1937.644531 2960.613281 1935.796875 2961.5625 1933.972656 C 2962.511719 1932.152344 2963.480469 1930.355469 2964.464844 1928.585938 C 2965.453125 1926.820312 2966.457031 1925.078125 2967.480469 1923.371094 C 2968.503906 1921.664062 2969.546875 1919.984375 2970.601562 1918.339844 C 2971.660156 1916.695312 2972.734375 1915.085938 2973.824219 1913.507812 C 2974.910156 1911.929688 2976.015625 1910.386719 2977.132812 1908.878906 C 2978.25 1907.375 2979.378906 1905.90625 2980.523438 1904.472656 C 2981.667969 1903.042969 2982.820312 1901.652344 2983.988281 1900.296875 C 2985.15625 1898.945312 2986.332031 1897.632812 2987.519531 1896.363281 C 2988.707031 1895.089844 2989.902344 1893.863281 2991.109375 1892.675781 C 2992.3125 1891.488281 2993.523438 1890.347656 2994.742188 1889.246094 C 2995.964844 1888.148438 2997.1875 1887.09375 2998.421875 1886.085938 C 2999.652344 1885.078125 3000.886719 1884.113281 3002.128906 1883.199219 C 3003.367188 1882.28125 3004.609375 1881.414062 3005.855469 1880.59375 C 3007.101562 1879.773438 3008.347656 1879 3009.597656 1878.273438 C 3010.847656 1877.550781 3012.09375 1876.875 3013.34375 1876.25 C 3014.589844 1875.625 3015.839844 1875.046875 3017.082031 1874.523438 C 3018.328125 1873.996094 3019.570312 1873.523438 3020.808594 1873.097656 C 3022.050781 1872.675781 3023.285156 1872.300781 3024.515625 1871.980469 C 3025.742188 1871.65625 3026.96875 1871.386719 3028.183594 1871.167969 C 3029.402344 1870.949219 3030.613281 1870.785156 3031.816406 1870.667969 C 3033.019531 1870.554688 3034.210938 1870.492188 3035.394531 1870.480469 C 3036.582031 1870.46875 3037.753906 1870.511719 3038.917969 1870.601562 C 3040.082031 1870.695312 3041.234375 1870.839844 3042.375 1871.039062 C 3043.515625 1871.234375 3044.640625 1871.484375 3045.753906 1871.78125 Z M 3045.753906 1871.78125 "
     fill-opacity="1"
     fill-rule="nonzero"
     id="path710"
     style="fill:#ffffff;fill-opacity:1" />
  <path
     fill="#2e1144"
     d="M 3424.34375 2401.527344 L 1463.511719 2416.496094 L 1512.75 2452.21875 L 3392.964844 2452.21875 Z M 3424.34375 2401.527344 "
     fill-opacity="1"
     fill-rule="nonzero"
     id="path712" />
  <path
     fill="#ff93e2"
     d="M 3085.953125 1144.871094 L 3204.703125 1029.488281 L 3146.777344 952.246094 L 3084.988281 1005.351562 L 3024.164062 948.382812 L 2965.269531 1029.488281 L 3085.46875 1144.386719 C 3085.46875 1144.871094 3085.46875 1145.355469 3085.46875 1145.355469 Z M 3085.953125 1144.871094 "
     fill-opacity="1"
     fill-rule="nonzero"
     id="path714"
     style="fill:#ff0735;fill-opacity:1" />
  <path
     fill="#ff93e2"
     d="M 1832.3125 782.792969 L 1951.546875 667.410156 L 1893.617188 590.164062 L 1831.828125 643.269531 L 1771.007812 586.304688 L 1712.113281 667.410156 L 1832.3125 782.308594 C 1832.3125 782.792969 1832.3125 783.273438 1832.3125 783.273438 L 1832.3125 782.792969 C 1832.3125 783.273438 1832.3125 782.792969 1832.3125 782.792969 Z M 1832.3125 782.792969 "
     fill-opacity="1"
     fill-rule="nonzero"
     id="path716"
     style="fill:#ff0735;fill-opacity:1" />
  <path
     fill="#ffe7de"
     d="M 1871.414062 1935.167969 C 1896.03125 1933.722656 1920.652344 1931.789062 1945.269531 1927.445312 C 1920.652344 1923.582031 1896.03125 1921.167969 1871.414062 1919.722656 C 1858.863281 1918.753906 1846.792969 1918.273438 1834.242188 1918.273438 C 1827.484375 1918.273438 1821.210938 1915.375 1816.867188 1910.546875 L 1816.382812 1910.066406 C 1811.554688 1905.238281 1809.140625 1898.960938 1808.660156 1892.203125 C 1808.175781 1875.789062 1807.695312 1859.375 1806.726562 1842.960938 C 1805.28125 1818.339844 1803.347656 1793.71875 1799.003906 1769.097656 C 1795.144531 1793.71875 1792.730469 1818.339844 1791.28125 1842.960938 C 1790.316406 1858.410156 1789.832031 1873.859375 1789.351562 1889.304688 C 1789.351562 1896.066406 1786.453125 1902.339844 1781.625 1907.167969 L 1778.730469 1910.066406 C 1773.902344 1914.894531 1767.628906 1917.308594 1761.351562 1917.789062 C 1748.800781 1918.273438 1734.320312 1921.167969 1721.769531 1921.652344 C 1697.148438 1923.101562 1674.945312 1924.550781 1649.359375 1926.960938 C 1676.390625 1930.34375 1696.667969 1930.824219 1721.285156 1932.273438 C 1734.320312 1933.238281 1749.285156 1936.136719 1762.316406 1936.136719 C 1769.074219 1936.136719 1775.351562 1939.03125 1779.695312 1943.859375 L 1782.109375 1946.273438 C 1786.9375 1951.101562 1789.351562 1956.894531 1789.351562 1963.652344 C 1789.832031 1972.824219 1790.316406 1982 1790.796875 1990.6875 C 1792.246094 2015.308594 1794.175781 2039.933594 1798.523438 2064.554688 C 1802.867188 2039.929688 1804.796875 2015.308594 1806.246094 1990.6875 C 1806.726562 1980.550781 1807.210938 1970.894531 1807.695312 1960.757812 C 1807.695312 1953.996094 1810.589844 1948.203125 1814.933594 1943.378906 C 1819.761719 1938.550781 1826.039062 1936.136719 1832.3125 1935.652344 C 1845.828125 1936.136719 1858.378906 1935.652344 1871.414062 1935.167969 Z M 1871.414062 1935.167969 "
     fill-opacity="1"
     fill-rule="nonzero"
     id="path718"
     style="fill:#ffffff;fill-opacity:1" />
  <path
     fill="#ffe7de"
     d="M 3038.164062 1432.601562 C 3062.78125 1431.15625 3087.402344 1429.222656 3112.019531 1424.878906 C 3087.402344 1421.015625 3062.78125 1418.601562 3038.164062 1417.15625 C 3025.613281 1416.1875 3013.542969 1415.707031 3000.992188 1415.707031 C 2994.234375 1415.707031 2987.957031 1412.808594 2983.613281 1407.980469 L 2983.132812 1407.5 C 2978.304688 1402.671875 2975.890625 1396.394531 2975.40625 1389.636719 C 2974.925781 1373.222656 2974.441406 1356.808594 2973.476562 1340.394531 C 2972.027344 1315.773438 2970.097656 1291.152344 2965.753906 1266.53125 C 2961.890625 1291.152344 2959.476562 1315.773438 2958.03125 1340.394531 C 2957.0625 1355.84375 2956.582031 1371.292969 2956.097656 1386.738281 C 2956.097656 1393.5 2953.203125 1399.773438 2948.375 1404.601562 L 2945.480469 1407.5 C 2940.652344 1412.328125 2934.375 1414.742188 2928.101562 1415.222656 C 2915.550781 1415.707031 2901.066406 1418.601562 2888.515625 1419.085938 C 2863.898438 1420.535156 2841.691406 1421.984375 2816.109375 1424.394531 C 2843.140625 1427.777344 2863.414062 1428.257812 2888.035156 1429.707031 C 2901.066406 1430.671875 2916.03125 1433.570312 2929.066406 1433.570312 C 2935.824219 1433.570312 2942.101562 1436.464844 2946.445312 1441.292969 L 2948.859375 1443.707031 C 2953.683594 1448.535156 2956.097656 1454.328125 2956.097656 1461.085938 C 2956.582031 1470.257812 2957.0625 1479.433594 2957.546875 1488.121094 C 2958.996094 1512.742188 2960.925781 1537.367188 2965.269531 1561.988281 C 2969.613281 1537.363281 2971.546875 1512.742188 2972.996094 1488.121094 C 2973.476562 1477.984375 2973.960938 1468.328125 2974.441406 1458.191406 C 2974.441406 1451.429688 2977.339844 1445.636719 2981.683594 1440.8125 C 2986.511719 1435.984375 2992.785156 1433.570312 2999.0625 1433.085938 C 3013.0625 1433.570312 3025.613281 1433.085938 3038.164062 1432.601562 Z M 3038.164062 1432.601562 "
     fill-opacity="1"
     fill-rule="nonzero"
     id="path720"
     style="fill:#ffffff;fill-opacity:1" />
  <path
     style="fill:#2d173e;fill-opacity:1;stroke-width:0.75"
     d="m 2247.5896,703.79068 299.6786,-40.86526"
     id="path1466" />
</svg>
