<svg xmlns="http://www.w3.org/2000/svg" xmlns:xlink="http://www.w3.org/1999/xlink" width="500" zoomAndPan="magnify" viewBox="0 0 375 374.999991" height="500" preserveAspectRatio="xMidYMid meet" version="1.0"><path fill="#fff7fa" d="M 336.574219 292.109375 L 175.667969 292.109375 C 173.582031 292.109375 172.078125 290.113281 172.648438 288.105469 L 204.296875 176.578125 C 204.917969 174.386719 206.917969 172.875 209.195312 172.875 L 369.765625 172.875 C 372.171875 172.875 373.914062 175.179688 373.257812 177.5 L 341.871094 288.101562 C 341.195312 290.46875 339.035156 292.105469 336.578125 292.105469 Z M 336.574219 292.109375 " fill-opacity="1" fill-rule="nonzero"/><path fill="#fff7fa" d="M 318.007812 338.644531 L 273.628906 338.644531 L 253.230469 247.703125 L 297.605469 247.703125 Z M 318.007812 338.644531 " fill-opacity="1" fill-rule="nonzero"/><path fill="#e5645e" d="M 153.710938 67.046875 C 164.785156 64.0625 180.195312 64.621094 185.429688 76.566406 C 187.988281 82.785156 186.585938 91.183594 192.015625 95.148438 C 194.222656 96.757812 197.074219 97.144531 199.5625 98.273438 C 206.820312 101.558594 209.808594 111.09375 207.34375 118.675781 C 204.878906 126.257812 198.136719 131.820312 190.765625 134.839844 C 185.488281 136.933594 183.144531 138.386719 184.136719 144.273438 C 184.46875 149.789062 180.730469 155.296875 175.480469 157.019531 C 169.664062 158.933594 163.441406 156.445312 157.390625 155.519531 C 143.058594 153.335938 135.847656 165.722656 148.960938 174.007812 C 153.054688 176.441406 157.820312 177.703125 161.597656 180.601562 C 169.125 186.375 170.5625 198.585938 164.582031 205.949219 C 162.605469 208.386719 159.777344 210.917969 160.40625 213.996094 C 160.664062 215.257812 161.492188 216.3125 162.1875 217.394531 C 166.050781 223.410156 166.089844 231.664062 162.289062 237.714844 C 158.488281 243.769531 151.042969 247.316406 143.953125 246.441406 C 136.390625 245.507812 130.195312 240.210938 123.308594 236.945312 C 114.324219 232.683594 103.734375 231.917969 94.226562 234.84375 C 85.039062 237.675781 77.058594 243.722656 67.773438 246.207031 C 58.484375 248.691406 46.339844 245.761719 43.621094 236.535156 C 43.25 235.28125 43.0625 233.9375 42.316406 232.863281 C 40.242188 229.882812 35.625 230.828125 32.269531 229.453125 C 28.59375 227.953125 26.753906 223.605469 26.945312 219.640625 C 27.136719 215.675781 28.929688 211.984375 30.683594 208.425781 C 23.617188 207.285156 19.371094 198.976562 20.726562 191.9375 C 21.390625 188.5 23.050781 185.40625 25.289062 182.714844 C 28.421875 178.949219 28.324219 173.433594 25.058594 169.785156 C 17.863281 162.140625 18.074219 149.3125 25.195312 141.691406 C 30.304688 136.109375 37.945312 133.738281 44.320312 129.65625 C 45.613281 128.828125 46.898438 127.886719 47.660156 126.554688 C 49.777344 122.855469 47.097656 118.417969 45.695312 114.398438 C 42.546875 105.371094 46.988281 94.351562 55.511719 90.03125 C 60.226562 87.640625 67.746094 87.875 69.472656 82.871094 C 90.316406 22.378906 151.960938 43.808594 153.714844 67.035156 Z M 153.710938 67.046875 " fill-opacity="1" fill-rule="nonzero"/><path fill="#1f1411" d="M 156.304688 341.511719 L 165.363281 330.023438 L 196.757812 342.625 Z M 156.304688 341.511719 " fill-opacity="1" fill-rule="nonzero"/><path fill="#ffeadb" d="M 183.066406 324.253906 C 195.035156 320.039062 199.992188 316.957031 207.871094 312.25 C 209.175781 311.46875 210.765625 312.660156 210.398438 314.140625 C 209.175781 319.070312 202.621094 324.96875 190.132812 328.53125 C 188.539062 328.984375 183.066406 324.253906 183.066406 324.253906 Z M 183.066406 324.253906 " fill-opacity="1" fill-rule="nonzero"/><path fill="#ffeadb" d="M 197.390625 337.449219 C 200.765625 338.628906 204.445312 339.105469 207.882812 338.132812 C 209.117188 337.789062 210.519531 336.921875 210.449219 335.574219 C 210.386719 334.300781 209.074219 333.589844 207.964844 333.097656 C 202.125 330.507812 196.785156 326.808594 191.644531 322.886719 C 189.925781 321.367188 188.199219 321.042969 186.03125 321.769531 C 183.703125 322.390625 181.398438 323.097656 179.121094 323.890625 C 179.121094 323.890625 194.015625 336.265625 197.390625 337.449219 Z M 197.390625 337.449219 " fill-opacity="1" fill-rule="nonzero"/><path fill="#ffeadb" d="M 188.351562 337.449219 C 191.722656 338.628906 195.40625 339.105469 198.839844 338.132812 C 200.074219 337.789062 201.480469 336.921875 201.410156 335.574219 C 201.34375 334.300781 200.035156 333.589844 198.925781 333.097656 C 193.085938 330.507812 187.746094 326.808594 182.601562 322.886719 C 180.886719 321.367188 179.160156 321.042969 176.988281 321.769531 C 174.664062 322.390625 172.359375 323.097656 170.082031 323.890625 C 170.082031 323.890625 184.976562 336.265625 188.351562 337.449219 Z M 188.351562 337.449219 " fill-opacity="1" fill-rule="nonzero"/><path fill="#626262" d="M 75.714844 186.652344 C 53.957031 196.644531 37.886719 214.699219 29.242188 234.808594 C 15.824219 261.382812 7.390625 290.601562 7.160156 320.507812 C 7.089844 324.886719 7.4375 329.855469 10.808594 332.644531 C 11.171875 332.945312 11.605469 333.222656 12.070312 333.179688 C 22.695312 324.988281 31.597656 314.054688 43.625 307.777344 C 46.941406 305.96875 50.6875 304.21875 52.277344 300.785156 C 53.21875 298.753906 53.3125 296.433594 53.300781 294.1875 C 52.960938 237.796875 79.238281 213.503906 75.710938 186.648438 Z M 75.714844 186.652344 " fill-opacity="1" fill-rule="nonzero"/><path fill="#fff7fa" d="M 41.59375 295.800781 C 46.148438 294.269531 50.894531 293.367188 55.6875 293.488281 C 56.125 293.5 56.554688 293.609375 56.925781 293.832031 C 60.964844 296.242188 55.332031 299.210938 59.617188 301.375 C 60.292969 301.71875 60.867188 302.253906 61.265625 302.902344 C 62.363281 304.679688 61.226562 305.511719 60.59375 306.566406 C 59.863281 307.78125 65.6875 310.933594 58.847656 313.519531 C 42.15625 319.246094 33.355469 329.378906 26.742188 345.359375 C 25.347656 348.632812 21.910156 351.09375 18.300781 350.796875 C 13.707031 349.960938 13.566406 345.550781 11.660156 345.679688 C 10.691406 345.746094 9.75 346.386719 8.796875 346.191406 C -0.00390625 344.425781 3.058594 332.4375 3.058594 332.4375 C 9.144531 315.003906 24.648438 301.785156 41.59375 295.804688 Z M 41.59375 295.800781 " fill-opacity="1" fill-rule="nonzero"/><path fill="#626262" d="M 161.171875 318.488281 C 160.503906 316.4375 157.175781 315.941406 157.007812 313.785156 C 156.941406 312.859375 157.527344 312.039062 157.910156 311.195312 C 158.289062 310.351562 158.445312 309.085938 157.621094 308.660156 C 156.066406 307.863281 154.539062 307.566406 152.109375 307.863281 C 151.507812 283.847656 152.453125 259.125 145.433594 235.949219 C 138.976562 215.074219 123.546875 191.257812 105.652344 178.355469 C 102.472656 178.9375 76.101562 183.816406 68.402344 191.023438 C 63.808594 194.710938 60.824219 199.953125 58.148438 205.15625 C 42.652344 235.277344 33.832031 268.699219 32.488281 302.425781 C 31.285156 316.335938 36.117188 326.496094 48.601562 333.367188 C 55.328125 337.066406 62.914062 338.945312 70.453125 340.507812 C 82.828125 343.070312 95.457031 344.886719 108.09375 344.316406 C 120.730469 343.746094 149.792969 335.300781 160.46875 321.269531 C 161.070312 320.472656 161.488281 319.4375 161.179688 318.488281 Z M 161.171875 318.488281 " fill-opacity="1" fill-rule="nonzero"/><path fill="#fff7fa" d="M 157.007812 313.785156 C 156.941406 312.859375 157.527344 312.039062 157.910156 311.195312 C 158.289062 310.351562 158.445312 309.085938 157.621094 308.660156 C 156.066406 307.863281 154.539062 307.566406 152.109375 307.863281 C 152.109375 307.804688 152.109375 307.75 152.109375 307.691406 C 139.03125 310.359375 132.375 319.691406 132.375 319.691406 L 132.617188 338.734375 C 143.605469 334.777344 154.707031 328.835938 160.460938 321.269531 C 161.0625 320.472656 161.480469 319.4375 161.171875 318.488281 C 160.503906 316.433594 157.175781 315.9375 157.007812 313.78125 Z M 157.007812 313.785156 " fill-opacity="1" fill-rule="nonzero"/><path fill="#ffeadb" d="M 52.414062 313.457031 C 61.273438 311.492188 70.4375 315.511719 79.367188 317.132812 C 98.457031 320.597656 117.546875 324.0625 136.640625 327.527344 C 138.824219 327.921875 141.042969 328.320312 143.253906 328.097656 C 145.21875 327.894531 147.097656 327.207031 148.96875 326.5625 C 154.402344 324.691406 159.945312 323.136719 165.5625 321.914062 C 168.800781 321.007812 171.144531 321.625 173.875 323.523438 C 178.644531 326.523438 187.1875 332.019531 191.484375 334.792969 C 192.816406 335.652344 192.539062 337.660156 191.03125 338.140625 C 183.425781 340.8125 176.117188 333.644531 168.46875 332.8125 C 162.222656 332.1875 168.808594 349.804688 133.105469 349.804688 L 18.714844 349.804688 C 18.714844 349.804688 32.195312 317.949219 52.417969 313.453125 Z M 52.414062 313.457031 " fill-opacity="1" fill-rule="nonzero"/><path fill="#fff7fa" d="M 41.59375 295.800781 C 46.148438 294.269531 50.894531 293.367188 55.6875 293.488281 C 56.125 293.5 56.554688 293.609375 56.925781 293.832031 C 60.964844 296.242188 55.332031 299.210938 59.617188 301.375 C 60.292969 301.71875 60.867188 302.253906 61.265625 302.902344 C 62.363281 304.679688 61.226562 305.511719 60.59375 306.566406 C 59.863281 307.78125 65.6875 310.933594 58.847656 313.519531 C 42.15625 319.246094 33.355469 329.378906 26.742188 345.359375 C 25.347656 348.632812 21.910156 351.09375 18.300781 350.796875 C 13.707031 349.960938 13.566406 345.550781 11.660156 345.679688 C 10.691406 345.746094 9.75 346.386719 8.796875 346.191406 C -0.00390625 344.425781 3.058594 332.4375 3.058594 332.4375 C 9.144531 315.003906 24.648438 301.785156 41.59375 295.804688 Z M 41.59375 295.800781 " fill-opacity="1" fill-rule="nonzero"/><path fill="#ffeadb" d="M 123.3125 173.640625 C 119.765625 182.3125 118.023438 199.664062 117.375 207.796875 C 117.160156 210.519531 114.753906 212.53125 112.039062 212.261719 C 104 211.695312 93.28125 205.625 92 196.132812 C 91.292969 191.617188 92.648438 187.066406 93.894531 182.667969 C 96.917969 171.988281 99.359375 161.152344 101.207031 150.207031 L 123.308594 173.640625 Z M 123.3125 173.640625 " fill-opacity="1" fill-rule="nonzero"/><path fill="#ffeadb" d="M 104.371094 137.53125 C 103.359375 134.839844 102.304688 132.085938 100.410156 129.925781 C 96.429688 125.390625 90.347656 125.824219 87.75 131.4375 C 86.761719 133.53125 86.445312 135.875 86.234375 138.175781 C 85.960938 141.171875 85.847656 144.238281 86.613281 147.148438 C 87.378906 150.058594 89.132812 152.824219 91.808594 154.207031 C 94.476562 155.585938 98.105469 155.261719 100.09375 153.003906 C 103.351562 167.785156 114.355469 180.984375 128.816406 185.410156 C 141.082031 189.765625 150.71875 182.144531 157.292969 171.949219 C 167.972656 155.878906 173.5 136.433594 172.871094 117.140625 C 164.90625 117.15625 148.488281 110.4375 151.390625 91.402344 C 145.410156 91.394531 129.472656 90.484375 125.101562 108.949219 C 124.066406 113.320312 124.964844 117.933594 124.304688 122.371094 C 121.390625 142 104.371094 137.523438 104.371094 137.523438 Z M 104.371094 137.53125 " fill-opacity="1" fill-rule="nonzero"/><path fill="#1f1411" d="M 148.289062 338.644531 L 256.527344 338.644531 C 258.0625 338.644531 259.308594 339.890625 259.3125 341.425781 L 259.324219 347.015625 C 259.324219 348.554688 258.078125 349.808594 256.539062 349.808594 L 140.339844 349.808594 Z M 148.289062 338.644531 " fill-opacity="1" fill-rule="nonzero"/><path fill="#1f1411" d="M 273.628906 338.644531 L 279.757812 338.644531 L 259.355469 247.703125 L 253.230469 247.703125 Z M 273.628906 338.644531 " fill-opacity="1" fill-rule="nonzero"/><path fill="#1f1411" d="M 240.660156 338.910156 L 345.804688 338.910156 C 346.148438 338.910156 346.480469 338.976562 346.796875 339.109375 C 347.117188 339.242188 347.394531 339.429688 347.640625 339.671875 C 347.882812 339.914062 348.070312 340.195312 348.199219 340.515625 C 348.332031 340.832031 348.398438 341.164062 348.398438 341.507812 L 348.398438 347.210938 C 348.398438 347.558594 348.332031 347.886719 348.199219 348.207031 C 348.070312 348.523438 347.882812 348.804688 347.640625 349.046875 C 347.394531 349.292969 347.117188 349.480469 346.796875 349.609375 C 346.480469 349.742188 346.148438 349.808594 345.804688 349.808594 L 240.660156 349.808594 C 240.316406 349.808594 239.984375 349.742188 239.667969 349.609375 C 239.351562 349.480469 239.070312 349.292969 238.828125 349.046875 C 238.585938 348.804688 238.398438 348.523438 238.265625 348.207031 C 238.132812 347.886719 238.066406 347.558594 238.066406 347.210938 L 238.066406 341.507812 C 238.066406 341.164062 238.132812 340.832031 238.265625 340.515625 C 238.398438 340.195312 238.585938 339.914062 238.828125 339.671875 C 239.070312 339.429688 239.351562 339.242188 239.667969 339.109375 C 239.984375 338.976562 240.316406 338.910156 240.660156 338.910156 Z M 240.660156 338.910156 " fill-opacity="1" fill-rule="nonzero"/><path fill="#1f1411" d="M 263.503906 338.910156 L 240.660156 338.910156 C 239.230469 338.910156 238.066406 340.074219 238.066406 341.507812 L 238.066406 347.210938 C 238.066406 348.644531 239.230469 349.808594 240.660156 349.808594 L 263.503906 349.808594 Z M 263.503906 338.910156 " fill-opacity="1" fill-rule="nonzero"/><path fill="#1f1411" d="M 181.714844 288.109375 L 213.363281 176.582031 C 213.984375 174.390625 215.988281 172.878906 218.265625 172.878906 L 209.191406 172.878906 C 206.914062 172.878906 204.914062 174.390625 204.292969 176.582031 L 172.644531 288.109375 C 172.074219 290.113281 173.578125 292.113281 175.664062 292.113281 L 184.734375 292.113281 C 182.648438 292.113281 181.144531 290.117188 181.714844 288.109375 Z M 181.714844 288.109375 " fill-opacity="1" fill-rule="nonzero"/><path fill="#1f1411" d="M 99.734375 136.558594 C 99.1875 134.683594 98.320312 132.519531 96.566406 131.449219 C 94.402344 130.128906 91.453125 131.589844 90.835938 133.976562 C 90.773438 134.21875 90.734375 134.476562 90.738281 134.730469 C 90.75 135.644531 92.113281 135.640625 92.148438 134.730469 C 92.3125 133.582031 93.355469 132.648438 94.460938 132.425781 C 94.800781 132.398438 95.175781 132.457031 95.496094 132.5625 C 98.117188 134.117188 98.601562 137.996094 99.085938 140.757812 C 97.898438 139.339844 95.785156 139.96875 94.855469 141.324219 C 93.832031 142.796875 93.871094 144.980469 94.183594 146.671875 C 94.761719 150.960938 99.253906 151.917969 100.714844 147.585938 C 101.535156 143.957031 100.542969 140.121094 99.742188 136.5625 Z M 93.246094 132.96875 C 93.285156 132.9375 93.292969 132.933594 93.246094 132.96875 Z M 93.246094 132.96875 " fill-opacity="1" fill-rule="nonzero"/><path fill="#1f1411" d="M 141.894531 110.175781 C 136.976562 109.285156 131.554688 111.140625 128.433594 115.09375 C 127.9375 115.757812 129.003906 116.535156 129.5625 115.964844 C 133.355469 111.601562 139.96875 110.089844 145.136719 112.839844 C 146.613281 113.550781 147.867188 114.613281 149.003906 115.789062 C 149.578125 116.339844 150.683594 115.582031 150.15625 114.894531 C 148.226562 112.378906 144.96875 110.722656 141.894531 110.171875 Z M 141.894531 110.175781 " fill-opacity="1" fill-rule="nonzero"/><path fill="#1f1411" d="M 369.714844 172.128906 C 315.992188 172.222656 262.117188 171.917969 208.398438 172.25 C 203.488281 172.78125 203.132812 178.4375 201.925781 182.199219 C 195.945312 203.28125 189.960938 224.359375 183.980469 245.441406 C 180.238281 258.609375 176.398438 272.167969 172.652344 285.363281 C 171.738281 287.890625 171.007812 291.398438 174.300781 292.5625 C 175.960938 293.140625 178.125 292.851562 179.707031 292.851562 C 207.339844 292.851562 234.972656 292.851562 262.605469 292.851562 C 265.988281 307.957031 269.398438 323.054688 272.769531 338.160156 L 257.816406 338.160156 C 256.546875 337.679688 254.839844 337.898438 253.539062 337.898438 C 250.59375 337.898438 247.644531 337.898438 244.695312 337.898438 C 233.179688 337.898438 221.53125 337.898438 210 337.898438 C 212.011719 336.421875 211.269531 333.84375 209.195312 332.859375 C 207.898438 332.136719 206.492188 331.597656 205.175781 330.902344 C 202.675781 329.59375 200.277344 328.109375 197.949219 326.515625 C 202.734375 324.292969 207.65625 321.332031 210.265625 316.574219 C 210.710938 315.71875 211.257812 314.601562 211.210938 313.613281 C 211.144531 312.167969 209.8125 311.0625 208.382812 311.277344 C 206.835938 311.695312 205.570312 312.875 204.144531 313.597656 C 199.546875 316.367188 194.785156 318.859375 189.824219 320.910156 C 187.4375 320.082031 184.921875 321.382812 182.609375 321.957031 C 179.832031 319.488281 176.136719 321.242188 173.039062 322.113281 C 169.1875 319.5625 164.671875 321.394531 160.589844 322.3125 C 162.984375 319.582031 162.140625 317.210938 159.207031 315.507812 C 158.734375 315.175781 158.195312 314.8125 157.90625 314.296875 C 157.460938 313.496094 157.980469 312.664062 158.34375 311.941406 C 160.585938 307.710938 156.027344 306.894531 152.820312 307.074219 C 152.390625 287.058594 152.773438 266.835938 148.96875 247.09375 C 155.472656 246.105469 161.507812 241.90625 164.171875 235.796875 C 171.070312 233.007812 177.3125 225.921875 173.144531 218.363281 C 171.746094 215.769531 169.914062 213.390625 170.125 210.289062 C 170.332031 207.234375 171.988281 204.445312 173.089844 201.65625 C 175.34375 195.929688 175.371094 188.929688 171.058594 184.132812 C 166.957031 179.558594 160.453125 178.914062 155.207031 176.203125 C 158.035156 172.613281 160.398438 168.660156 162.5 164.691406 C 165.523438 166.808594 169.570312 167.1875 173.167969 166.558594 C 182.441406 165.511719 186.5 156.476562 184.535156 148.027344 C 184.765625 147.101562 184.898438 146.148438 184.917969 145.195312 C 184.890625 142.847656 183.984375 139.898438 186.105469 138.1875 C 189.222656 135.691406 193.292969 134.988281 196.5625 132.722656 C 200.808594 130.0625 204.585938 126.417969 206.835938 121.894531 C 210.753906 114.015625 209.148438 102.820312 201.03125 98.164062 C 196.257812 95.722656 191.265625 96.027344 189.265625 89.972656 C 187.722656 85.597656 187.933594 80.796875 186.199219 76.476562 C 181.574219 65.375 167.777344 63.273438 157.214844 65.554688 C 164.277344 59.929688 172.707031 55.511719 181.820312 54.753906 C 184.394531 54.640625 189.921875 54.328125 190.503906 57.640625 C 190.488281 61.167969 186.328125 63.945312 183.496094 65.390625 C 182.628906 65.800781 183.382812 67.078125 184.246094 66.675781 C 187.398438 65.105469 190.628906 62.714844 191.800781 59.253906 C 193.46875 50.605469 178.550781 53.226562 173.835938 54.800781 C 166.621094 57.035156 160.019531 61.066406 154.355469 66.03125 C 153.488281 60.238281 149.507812 55.417969 144.996094 51.910156 C 140.578125 47.820312 137.421875 42.496094 132.554688 38.859375 C 114.53125 25.695312 86.78125 36.085938 77.242188 55.023438 C 74.085938 61.699219 73.226562 69.101562 71.265625 76.152344 C 70.480469 77.957031 69.761719 79.789062 69.097656 81.636719 C 68.679688 82.808594 68.300781 83.84375 67.359375 84.699219 C 64.484375 87.054688 60.539062 87.253906 57.160156 88.523438 C 47.042969 92.101562 41.484375 104.570312 44.960938 114.605469 C 45.96875 117.519531 47.839844 120.609375 47.671875 123.792969 C 45.703125 126.976562 41.710938 128.1875 38.277344 129.164062 C 34.238281 130.308594 30.382812 131.820312 26.804688 134.039062 C 18.363281 139.464844 9.503906 148.695312 11.242188 159.546875 C 12.554688 166.519531 19.363281 168.800781 14.902344 176.75 C 12.894531 180.402344 9.847656 183.535156 8.835938 187.691406 C 6.898438 194.835938 9.761719 202.839844 15.8125 207.105469 C 19.507812 209.859375 24.007812 211.679688 26.917969 215.386719 C 25.296875 220.324219 26.238281 226.746094 30.949219 229.640625 C 15.984375 258.511719 5.941406 290.445312 6.464844 323.214844 C 4.4375 327.027344 2.070312 330.96875 1.84375 335.378906 C 1.101562 341.523438 4.667969 348.75 11.789062 346.445312 C 11.640625 346.4375 11.910156 346.445312 11.808594 346.445312 C 12.070312 346.523438 12.3125 346.839844 12.464844 347.027344 C 14.800781 351.078125 18.542969 352.910156 22.898438 350.554688 C 59.886719 350.386719 102.640625 350.96875 139.828125 350.324219 C 139.96875 350.457031 140.148438 350.546875 140.339844 350.546875 C 141.402344 350.546875 142.46875 350.546875 143.53125 350.546875 C 146.417969 350.546875 149.308594 350.550781 152.195312 350.554688 C 166.429688 350.5625 183.179688 350.554688 197.542969 350.554688 C 240.796875 350.554688 284.050781 350.554688 327.300781 350.523438 C 333.46875 350.53125 339.640625 350.4375 345.800781 350.496094 C 349.523438 350.234375 349.164062 346.75 349.101562 343.921875 C 349.101562 342.929688 349.226562 341.84375 349.042969 340.863281 C 348.363281 337.546875 344.609375 338.199219 342.058594 338.175781 C 334.246094 338.167969 326.4375 338.160156 318.625 338.160156 C 315.257812 323.054688 311.875 307.949219 308.488281 292.847656 C 317.570312 292.847656 326.648438 292.847656 335.722656 292.832031 C 338.230469 292.828125 340.585938 292.046875 341.9375 289.75 C 349.5 265.28125 355.980469 240.394531 363.164062 215.78125 C 366.65625 203.476562 370.144531 191.171875 373.636719 178.867188 C 374.996094 175.8125 373.222656 172.183594 369.707031 172.125 Z M 182.382812 283.117188 C 181.863281 285.730469 179.792969 288.984375 181.761719 291.367188 C 180.054688 291.367188 178.355469 291.367188 176.652344 291.367188 C 174.429688 291.605469 172.851562 290.351562 173.4375 287.9375 C 179.296875 267.527344 185.042969 247.089844 190.859375 226.667969 C 195.5625 210.136719 200.222656 193.601562 204.933594 177.074219 C 206.238281 172.488281 210.792969 173.800781 214.460938 173.625 C 213.183594 174.667969 212.621094 176.359375 212.230469 177.953125 C 211.5625 180.3125 210.894531 182.671875 210.222656 185.03125 C 207.929688 193.117188 205.070312 203.195312 202.804688 211.183594 C 196.082031 234.867188 189.105469 259.457031 182.386719 283.117188 Z M 259.210938 250.335938 C 265.707031 279.398438 272.382812 308.859375 278.835938 337.925781 C 277.292969 337.925781 275.75 337.925781 274.210938 337.925781 C 267.554688 308.097656 260.800781 278.292969 254.191406 248.457031 C 255.726562 248.457031 257.257812 248.457031 258.792969 248.457031 L 259.214844 250.339844 Z M 258.519531 340.992188 C 258.632812 341.710938 258.542969 345.140625 258.574219 345.9375 C 258.574219 347.082031 258.628906 348.3125 257.386719 348.878906 C 256.613281 349.195312 255.757812 349.019531 254.941406 349.0625 C 252.574219 349.0625 250.210938 349.0625 247.839844 349.0625 C 245.5625 349.0625 243.289062 349.0625 241.011719 349.0625 C 240.457031 349.0625 239.929688 349.023438 239.457031 348.617188 C 238.621094 347.902344 238.8125 346.714844 238.8125 345.734375 C 238.8125 344.5 238.8125 343.261719 238.8125 342.027344 C 238.644531 340.859375 239.402344 339.65625 240.660156 339.660156 C 245.816406 339.65625 252.3125 339.664062 257.527344 339.660156 C 258.019531 339.941406 258.394531 340.414062 258.519531 340.988281 Z M 262.789062 349.070312 C 261.664062 349.070312 260.539062 349.070312 259.414062 349.070312 C 260.167969 348.054688 260.070312 346.828125 260.070312 345.640625 C 259.933594 343.6875 260.449219 341.464844 259.550781 339.667969 L 262.789062 339.667969 Z M 198.917969 318.289062 C 202.1875 316.601562 205.300781 314.582031 208.496094 312.796875 C 210.316406 312.605469 209.628906 314.675781 209.0625 315.59375 C 206.480469 320.472656 201.355469 323.351562 196.476562 325.507812 C 194.765625 324.324219 193.125 323.050781 191.453125 321.816406 C 193.988281 320.742188 196.484375 319.578125 198.917969 318.289062 Z M 187.535156 322.207031 C 188.957031 321.894531 190.210938 322.671875 191.261719 323.546875 C 193.59375 325.3125 195.953125 327.042969 198.398438 328.652344 C 200.824219 330.246094 203.335938 331.722656 205.945312 332.992188 C 206.988281 333.5 208.296875 333.878906 209.167969 334.667969 C 209.945312 335.371094 209.785156 336.25 208.960938 336.835938 C 206.699219 338.234375 203.746094 338.015625 201.207031 337.703125 C 204.683594 333.777344 198.121094 332.109375 195.570312 330.617188 C 191.539062 328.449219 187.765625 325.835938 184.105469 323.085938 C 185.234375 322.738281 186.378906 322.386719 187.53125 322.210938 Z M 177.933594 322.316406 C 179.324219 321.890625 180.742188 322.292969 181.816406 323.238281 C 184.160156 324.96875 186.472656 326.730469 188.898438 328.34375 C 192.300781 330.738281 196.058594 332.515625 199.746094 334.375 C 200.535156 334.886719 201.011719 335.742188 200.273438 336.523438 C 198.257812 338.242188 195.171875 337.960938 192.699219 337.777344 C 193.949219 335.742188 192.1875 334.148438 190.476562 333.25 C 189.023438 332.308594 187.566406 331.371094 186.105469 330.4375 C 182.335938 328 178.542969 325.609375 174.769531 323.179688 C 175.816406 322.863281 176.867188 322.558594 177.933594 322.320312 Z M 155.347656 308.609375 C 158.050781 309.046875 157.910156 309.898438 156.714844 312.003906 C 156.328125 312.847656 156.132812 313.734375 156.472656 314.628906 C 157.015625 316.039062 158.5 316.648438 159.589844 317.5625 C 161.933594 319.285156 159.367188 321.464844 158.179688 322.957031 C 155.535156 323.671875 152.914062 324.460938 150.3125 325.328125 C 148.007812 326.09375 145.6875 327.097656 143.257812 327.355469 C 140.632812 327.628906 138.027344 327.019531 135.460938 326.5625 C 139.816406 321.699219 145.449219 318.210938 151.542969 315.960938 C 152.347656 315.648438 152.046875 314.386719 151.175781 314.636719 C 144.484375 316.746094 138.355469 320.90625 133.84375 326.269531 C 133.511719 326.210938 133.183594 326.152344 132.855469 326.089844 C 132.9375 324.023438 133.023438 321.957031 133.105469 319.886719 C 137.914062 314.371094 145.363281 309.566406 152.109375 308.617188 C 153.167969 308.433594 154.285156 308.417969 155.347656 308.617188 Z M 121.402344 183.089844 C 124.039062 184.539062 126.855469 185.699219 129.777344 186.480469 C 127.308594 189.460938 125.792969 193.195312 125.570312 197.085938 C 123.8125 194.832031 121.996094 192.621094 120.066406 190.511719 C 120.453125 188.03125 120.878906 185.550781 121.402344 183.089844 Z M 126.9375 198.859375 C 126.894531 194.21875 128.5 190.441406 131.269531 186.839844 C 133.851562 187.390625 136.5 187.578125 139.121094 187.164062 C 143.570312 194.664062 137.171875 198.394531 137.011719 205.457031 C 136.859375 209.6875 140.242188 213.695312 138.769531 217.894531 C 135.378906 211.230469 131.417969 204.863281 126.933594 198.878906 C 126.933594 198.871094 126.933594 198.867188 126.933594 198.859375 Z M 140.363281 213.28125 C 139.863281 211.019531 138.773438 208.886719 138.554688 206.5625 C 137.996094 199.125 145.378906 195.121094 140.578125 186.867188 C 143.097656 186.238281 145.441406 185.070312 147.574219 183.585938 C 152.128906 187.519531 153.453125 194.410156 150.691406 199.761719 C 149.671875 201.980469 148.691406 204.117188 148.390625 206.5625 C 148.101562 208.933594 148.371094 211.390625 149.199219 213.632812 C 149.996094 215.792969 151.238281 217.734375 152.234375 219.796875 C 155.671875 226.753906 153.550781 235.855469 147.507812 240.679688 C 145.652344 233.371094 142.925781 226.296875 139.59375 219.527344 C 140.835938 217.699219 140.820312 215.367188 140.363281 213.277344 Z M 150.335938 245.296875 C 149.785156 245.433594 149.222656 245.539062 148.660156 245.625 C 148.425781 244.503906 148.171875 243.386719 147.902344 242.273438 C 156.632812 235.589844 157.449219 224.085938 151.53125 215.21875 C 150.429688 213.03125 149.757812 210.726562 149.78125 208.261719 C 149.683594 203.433594 153.261719 199.644531 153.605469 194.90625 C 153.980469 190.398438 152.175781 185.699219 148.78125 182.699219 C 150.773438 181.15625 152.5625 179.367188 154.203125 177.433594 C 157.027344 178.695312 159.929688 179.988281 162.207031 182.121094 C 168.507812 188.019531 169.417969 198.957031 163.847656 205.640625 C 162.054688 207.839844 159.636719 210.027344 159.550781 213.058594 C 159.53125 214.691406 160.375 216.046875 161.25 217.359375 C 168.324219 227.722656 162.699219 242.609375 150.339844 245.296875 Z M 168.441406 183.707031 C 173.230469 187.390625 174.09375 194.175781 172.246094 199.640625 C 171.339844 202.53125 169.738281 205.167969 168.996094 208.113281 C 168.179688 210.949219 168.78125 213.957031 170.320312 216.441406 C 175.675781 223.785156 172.347656 230.019531 164.910156 233.847656 C 166.925781 227.703125 165.695312 220.800781 161.921875 215.597656 C 161.121094 214.285156 160.828125 212.949219 161.425781 211.488281 C 162.59375 208.820312 165.085938 207.027344 166.519531 204.515625 C 170.945312 197.082031 169.46875 186.546875 162.980469 180.773438 C 164.921875 181.523438 166.796875 182.40625 168.445312 183.707031 Z M 156.875 171.230469 C 153.167969 176.800781 148.546875 182.332031 142.140625 184.804688 C 130.554688 188.589844 118.332031 180.988281 110.78125 172.5625 C 110.140625 171.832031 109.078125 172.902344 109.714844 173.628906 C 112.6875 177.03125 116.171875 179.984375 120.03125 182.300781 C 118.652344 188.757812 117.8125 195.328125 117.152344 201.894531 C 116.554688 205.347656 117.660156 211.019531 112.863281 211.523438 C 105.238281 211.152344 97.273438 206.984375 93.914062 199.890625 C 90.683594 192.859375 94.101562 185.273438 95.871094 178.308594 C 97.003906 174.046875 98.050781 169.761719 99 165.453125 C 99.75 161.265625 101.261719 157.101562 100.816406 152.808594 C 100.738281 152.246094 99.910156 152.089844 99.558594 152.476562 C 94.878906 156.980469 88.609375 152.519531 87.382812 147.125 C 86.128906 142.132812 86.386719 131.4375 91.203125 128.457031 C 93.851562 126.761719 97.0625 127.75 99.214844 129.785156 C 101.617188 131.984375 102.539062 135.210938 103.835938 138.066406 C 103.875 138.222656 103.980469 138.378906 104.160156 138.488281 C 105.386719 139.15625 106.777344 139.535156 108.058594 140.109375 C 111.984375 141.671875 115.878906 143.324219 119.792969 144.910156 C 119.394531 152.277344 124.367188 160.25 131.953125 161.464844 C 134.949219 165.871094 141.078125 167.433594 145.96875 165.542969 C 146.785156 165.234375 146.453125 163.929688 145.601562 164.214844 C 141.6875 165.5625 136.917969 164.800781 134.050781 161.679688 C 144.605469 162.015625 151.585938 155.460938 150.886719 144.738281 C 153.046875 144.167969 155.445312 144.941406 156.941406 146.566406 C 156.460938 147.847656 156.152344 149.195312 156.019531 150.558594 C 155.371094 149.28125 154.585938 147.863281 153.429688 147.023438 C 152.871094 146.617188 152.046875 147.433594 152.460938 147.996094 C 153.328125 149.019531 154.144531 150.085938 154.71875 151.308594 C 157.054688 154.921875 156.363281 159.53125 151.792969 160.667969 C 150.832031 160.9375 151.253906 162.28125 152.195312 162.132812 C 154.492188 161.769531 156.320312 159.992188 157.132812 157.867188 C 158.050781 160.148438 159.464844 162.214844 161.289062 163.777344 C 159.941406 166.324219 158.472656 168.8125 156.882812 171.226562 Z M 75.347656 186.03125 C 70.417969 188.066406 65.761719 190.824219 61.402344 193.992188 C 58.738281 190.316406 57.960938 185.371094 59.355469 181.050781 C 60.214844 178.375 62.035156 176.183594 63.375 173.75 C 67.210938 166.796875 67.734375 158.128906 64.746094 150.769531 C 62.058594 144.085938 56.875 138.410156 55.671875 131.15625 C 54.660156 121.339844 61.839844 112.5625 69.574219 107.386719 C 75.421875 103.464844 82.464844 102.039062 88.5625 98.621094 C 95.105469 95.167969 97.847656 88.898438 98.738281 81.84375 C 99.714844 74.371094 101.058594 67.164062 107.796875 62.679688 C 121.71875 52.378906 142.945312 55.929688 152.867188 70.097656 C 152.828125 71.933594 152.785156 73.773438 152.679688 75.609375 C 143.964844 61.242188 119.464844 61.15625 111.851562 76.660156 C 107.792969 84.796875 111.199219 95.195312 105.359375 102.597656 C 101.582031 107.03125 95.691406 108.476562 90.492188 110.542969 C 82.042969 113.578125 75.046875 120.328125 72.046875 128.835938 C 68.730469 138.023438 70.523438 148.75 76.511719 156.433594 C 81.09375 161.839844 83.933594 167.632812 79.542969 174.199219 C 77.242188 177.289062 74.070312 181.578125 76.941406 185.304688 C 76.40625 185.539062 75.875 185.777344 75.34375 186.03125 Z M 59.09375 147.78125 C 57.527344 143.597656 55.589844 139.453125 55.121094 134.960938 C 56.804688 139.90625 59.953125 144.210938 62.269531 148.867188 C 66.007812 156.15625 66.222656 165.101562 62.410156 172.414062 C 61.109375 174.929688 59.28125 177.148438 58.230469 179.800781 C 56.28125 184.734375 57.117188 190.597656 60.25 194.84375 C 58.265625 196.332031 56.34375 197.890625 54.480469 199.492188 C 54.832031 193.75 50.125 188.757812 49.394531 183.125 C 48.894531 168.984375 67.496094 168.070312 59.101562 147.78125 Z M 78.394531 184.695312 C 76.347656 182.644531 77.597656 179.429688 79.097656 177.417969 C 83.640625 172.089844 84.75 165.707031 80.75 159.703125 C 79.019531 157.039062 76.84375 154.707031 75.304688 151.90625 C 72.269531 146.394531 71.191406 139.78125 72.320312 133.582031 C 73.882812 124.914062 79.800781 117.238281 87.695312 113.378906 C 92.742188 110.890625 98.445312 109.773438 103.144531 106.570312 C 111.269531 101.453125 110.246094 91.074219 111.515625 82.773438 C 112.027344 79.929688 112.972656 77.234375 114.65625 74.871094 C 123.75 62.117188 145.730469 64.179688 152.480469 78.253906 C 152.136719 82.414062 151.519531 86.546875 150.800781 90.65625 C 134.984375 89.835938 124.058594 98.285156 123.804688 114.613281 C 124.519531 125.539062 120.917969 137.613281 107.882812 137.214844 C 106.792969 136.792969 105.699219 136.359375 104.582031 136.003906 C 103.136719 132.265625 101.179688 128.371094 97.289062 126.75 C 100.390625 123.90625 105.015625 124.765625 108.796875 123.683594 C 116.320312 121.5625 118.882812 113.082031 118.769531 106.042969 C 118.78125 102.707031 118.386719 99.355469 119.101562 96.066406 C 120.902344 88.34375 126.371094 80.691406 134.359375 78.695312 C 139.496094 77.460938 145.578125 79.039062 148.75 83.453125 C 149.289062 84.199219 150.542969 83.496094 150.007812 82.71875 C 147.101562 78.507812 141.851562 76.519531 136.851562 76.820312 C 128.496094 77.332031 121.980469 84.082031 118.976562 91.511719 C 116.035156 97.800781 117.9375 104.722656 116.859375 111.324219 C 116.34375 114.183594 115.261719 116.96875 113.292969 119.144531 C 108.824219 124.863281 100.246094 120.921875 95.699219 126.253906 C 92.730469 125.507812 89.679688 127.078125 88.003906 129.53125 C 85.457031 133.277344 85.371094 138.109375 85.269531 142.484375 C 85.328125 146.550781 86.425781 150.914062 89.640625 153.65625 C 92.332031 155.945312 96.507812 156.585938 99.449219 154.578125 C 99.261719 158.117188 98.21875 161.59375 97.550781 165.066406 C 96.417969 170.136719 95.210938 175.1875 93.78125 180.183594 C 88.589844 181.414062 83.347656 182.707031 78.390625 184.707031 Z M 152.382812 90.386719 C 156.515625 90.570312 165.015625 90.90625 165.363281 96.367188 C 165.492188 98.902344 164.429688 101.492188 165.351562 103.96875 C 166.277344 106.445312 168.636719 107.867188 171.007812 108.730469 C 175.820312 110.078125 181.207031 112.164062 183.050781 117.277344 C 185.167969 124.351562 183.5 133.96875 178.417969 139.453125 C 176.507812 138.226562 174.316406 137.546875 172.070312 137.367188 C 173.132812 131.671875 173.679688 125.875 173.679688 120.085938 C 173.519531 119.195312 174.140625 116.375 172.878906 116.390625 C 159.359375 115.851562 149.703125 104.96875 152.125 91.355469 C 152.191406 91.027344 152.257812 90.703125 152.320312 90.375 C 152.34375 90.375 152.363281 90.382812 152.386719 90.382812 Z M 161.96875 162.453125 C 156.71875 157.660156 155.9375 149.019531 160.347656 143.449219 C 161.652344 145.503906 164.371094 144.890625 165.507812 143.011719 C 166.21875 141.863281 166.601562 140.523438 167.042969 139.246094 C 168.117188 138.976562 169.15625 138.851562 170.242188 138.824219 C 168.570312 147.023438 165.792969 155.011719 161.96875 162.457031 Z M 150.441406 141.625 C 149.691406 138.65625 147.957031 135.933594 145.773438 133.808594 C 147.546875 128.542969 141.527344 124.546875 138.871094 130.257812 C 130.636719 128.867188 122 133.296875 120.246094 141.859375 C 119.632812 141.625 111.65625 138.632812 111.308594 138.5 C 119.472656 137.519531 124.21875 130.019531 125.0625 122.355469 C 125.570312 118.730469 125.097656 115.0625 125.457031 111.425781 C 127.191406 97.574219 137.289062 91.558594 150.539062 92.164062 C 148.949219 102.464844 154.546875 112.433594 164.378906 116.101562 C 162.417969 116.308594 160.433594 116.871094 158.816406 117.894531 C 158.039062 118.386719 158.714844 119.460938 159.519531 119.101562 C 163.253906 117.316406 168.753906 116.46875 172.152344 119.320312 C 172.199219 125.363281 171.664062 131.402344 170.539062 137.335938 C 169.492188 137.359375 168.441406 137.484375 167.417969 137.714844 C 167.984375 135.3125 166.644531 132.242188 163.957031 132.171875 C 159.949219 132.28125 158.554688 138.972656 159.566406 142.085938 C 158.804688 142.964844 158.15625 143.953125 157.625 145 C 155.753906 143.351562 153.167969 142.652344 150.71875 143.171875 C 150.644531 142.652344 150.558594 142.136719 150.441406 141.621094 Z M 131.925781 158.210938 C 131.402344 156.726562 131.308594 155.234375 131.449219 153.679688 C 131.523438 152.878906 130.203125 152.699219 130.046875 153.488281 C 129.628906 155.570312 130.019531 157.75 130.917969 159.679688 C 126.613281 158.5625 123.425781 154.679688 122.09375 150.601562 C 121.320312 148.429688 121.042969 146.101562 121.398438 143.816406 C 122.363281 135.265625 130.070312 130.269531 138.324219 131.71875 C 137.554688 134.242188 137.269531 137.3125 139.332031 139.289062 C 140.867188 140.761719 143 139.902344 144.035156 138.304688 C 144.589844 137.433594 144.914062 136.410156 145.265625 135.441406 C 146.628906 136.859375 147.652344 138.574219 148.460938 140.359375 C 148.453125 140.339844 148.554688 140.578125 148.539062 140.539062 C 149.375 142.796875 149.527344 145.105469 149.351562 147.53125 C 148.957031 156.539062 141.238281 161.070312 132.824219 160.082031 C 132.460938 159.492188 132.160156 158.867188 131.929688 158.210938 Z M 171.78125 138.847656 C 173.722656 138.980469 175.652344 139.515625 177.3125 140.558594 C 175.398438 142.304688 173.097656 143.597656 170.527344 144.195312 C 171.011719 142.429688 171.410156 140.640625 171.78125 138.851562 Z M 157.507812 153.546875 C 157.507812 153.523438 157.503906 153.511719 157.507812 153.546875 Z M 168.09375 152.070312 C 170.820312 153.386719 173.625 154.554688 176.375 155.832031 C 173.269531 157.253906 169.671875 157.128906 166.359375 156.53125 C 166.972656 155.054688 167.558594 153.570312 168.09375 152.070312 Z M 183.375 153.984375 C 183.320312 154.554688 183.230469 155.128906 183.109375 155.703125 C 182.3125 155.324219 181.484375 155.054688 180.683594 154.699219 C 181.796875 153.621094 182.726562 152.347656 183.429688 150.964844 C 183.492188 151.96875 183.476562 152.980469 183.375 153.980469 Z M 182.347656 149.710938 C 181.601562 151.363281 180.5 152.867188 179.132812 154.054688 C 175.761719 152.683594 172.242188 151.117188 168.867188 149.816406 C 169.304688 148.492188 169.714844 147.160156 170.09375 145.816406 C 173.308594 145.324219 176.226562 143.671875 178.585938 141.464844 C 180.625 143.148438 182.179688 145.476562 182.957031 147.992188 C 182.8125 148.566406 182.613281 149.136719 182.355469 149.710938 Z M 180.128906 161.671875 C 175.84375 165.847656 168.195312 166.621094 163.179688 163.398438 C 164.089844 161.621094 164.949219 159.8125 165.75 157.976562 C 170.027344 158.703125 174.429688 158.722656 178.125 156.625 C 179.5 157.21875 180.84375 157.902344 182.230469 158.464844 C 181.714844 159.636719 181.023438 160.734375 180.128906 161.667969 Z M 183.097656 144.613281 C 182.210938 143.015625 181.066406 141.535156 179.660156 140.363281 C 184.65625 134.808594 186.070312 126.777344 185.15625 119.539062 C 184.484375 114.039062 179.9375 109.972656 174.84375 108.398438 C 172.273438 107.542969 169.195312 106.980469 167.441406 104.699219 C 165.730469 102.472656 166.796875 99.609375 166.871094 97.078125 C 167.132812 89.894531 157.980469 89.058594 152.59375 88.925781 C 152.941406 86.929688 153.222656 84.925781 153.472656 82.921875 C 159.398438 81.167969 167.96875 80.417969 172.757812 85.09375 C 176.535156 89.664062 174.203125 96.066406 179.5 102.082031 C 181.722656 104.738281 184.777344 106.511719 187.421875 108.695312 C 191.730469 112.222656 196.167969 117.140625 195.503906 123.113281 C 194.71875 128.832031 190.125 133.078125 185.8125 136.472656 C 182.707031 138.636719 183.167969 141.703125 183.3125 145.015625 C 183.242188 144.882812 183.167969 144.753906 183.097656 144.621094 Z M 192.054688 133.449219 C 191.714844 133.605469 191.371094 133.757812 191.023438 133.902344 C 199.21875 126.0625 198.957031 117.167969 190.652344 109.558594 C 188.089844 107.050781 185.015625 105.167969 182.292969 102.867188 C 179.789062 100.65625 178.046875 97.761719 177.273438 94.511719 C 176.550781 91.476562 176.480469 88.175781 174.824219 85.4375 C 170.636719 79.09375 160.136719 79.335938 153.652344 81.40625 C 153.929688 78.960938 154.136719 76.503906 154.257812 74.046875 C 162.46875 71.433594 174.847656 69.890625 178.898438 79.605469 C 179.980469 82.414062 180.183594 85.460938 180.835938 88.378906 C 181.902344 94.253906 186.269531 97.886719 191.238281 100.636719 C 196.199219 103.351562 201.109375 106.9375 202.964844 112.53125 C 206.207031 122.320312 200.96875 129.609375 192.058594 133.457031 Z M 172.207031 67.015625 C 176.863281 68.179688 181.367188 70.898438 183.851562 75.105469 C 186.179688 79.046875 186.171875 83.796875 187.171875 88.148438 C 188.007812 92.5625 190.644531 96.160156 195.046875 97.480469 C 197.371094 98.304688 199.726562 98.914062 201.707031 100.453125 C 208.195312 105.628906 209.074219 115.753906 204.734375 122.570312 C 206.394531 117.109375 204.875 111.015625 201.335938 106.609375 C 197.765625 101.929688 192.050781 99.902344 187.503906 96.40625 C 185.269531 94.644531 183.578125 92.484375 182.726562 89.746094 C 181.792969 86.742188 181.644531 83.566406 180.773438 80.546875 C 177.542969 68.933594 163.613281 69.398438 154.324219 72.546875 C 154.386719 70.933594 154.433594 69.3125 154.402344 67.695312 C 160.210938 66.394531 166.355469 65.566406 172.207031 67.019531 Z M 77.359375 58.449219 C 82.394531 45.058594 96.359375 36.339844 110.183594 34.621094 C 122.746094 33.332031 132.382812 38.429688 139.695312 48.476562 C 115.160156 35.28125 86.472656 45.820312 74.125 70.292969 C 75.039062 66.296875 75.914062 62.292969 77.359375 58.449219 Z M 46.628906 114.789062 C 42.761719 104.867188 48.679688 92.21875 59.121094 89.507812 C 66.054688 87.53125 69.152344 87.503906 71.378906 79.882812 C 81.0625 53.050781 106.5 36.734375 134.445312 47.683594 C 126.984375 46.171875 119.183594 45.644531 111.792969 47.847656 C 98.148438 51.804688 86.34375 62.125 82.050781 75.855469 C 78.707031 86.015625 73.769531 91.304688 63.449219 94.480469 C 60.628906 95.386719 57.65625 96.058594 55.152344 97.71875 C 51.011719 100.464844 48.878906 105.320312 48.222656 110.109375 C 48.058594 111.296875 47.972656 112.492188 47.980469 113.695312 C 47.984375 114.566406 49.3125 114.566406 49.328125 113.695312 C 49.359375 105.9375 52.847656 98.753906 60.855469 96.804688 C 71.289062 93.9375 78.6875 89.636719 82.4375 78.96875 C 83.671875 75.851562 84.757812 72.679688 86.285156 69.691406 C 93.082031 56.78125 107.558594 48.167969 122.078125 47.835938 C 125.460938 47.78125 128.789062 48.199219 132.105469 48.785156 C 136.265625 49.382812 140.402344 50.554688 143.84375 53.050781 C 148.550781 56.496094 152.902344 61.746094 152.914062 67.816406 C 141.460938 52.964844 117.484375 50.855469 103.9375 63.992188 C 95.421875 71.832031 99.921875 85.492188 92.394531 93.820312 C 87.640625 98.898438 80.3125 100.402344 74.191406 103.175781 C 65.175781 107.261719 57.082031 114.953125 54.566406 124.753906 C 49.5 140.695312 63.480469 150.253906 58.664062 162.597656 C 56.125 168.320312 50.4375 172.089844 48.410156 178.089844 C 45.355469 186.5625 54.4375 193.128906 52.71875 201.035156 C 48.324219 204.929688 44.242188 209.136719 40.660156 213.734375 C 36.441406 210.679688 40.761719 205.019531 39.964844 200.925781 C 39.726562 199.234375 38.78125 197.882812 37.652344 196.644531 C 30.984375 190.851562 36.019531 184.0625 40.0625 178.5 C 44.527344 172.207031 44.082031 166.9375 40.058594 160.578125 C 36.25 154.609375 34.214844 149.5625 38.476562 143.101562 C 42.4375 136.855469 50.042969 131.734375 49.335938 123.472656 C 49.488281 123.222656 49.449219 122.917969 49.242188 122.742188 C 48.847656 119.984375 47.617188 117.351562 46.621094 114.796875 Z M 19.457031 207.753906 C 12.898438 204.171875 8.847656 197.59375 9.902344 190.015625 C 10.328125 185.988281 12.8125 182.714844 15.019531 179.480469 C 17.421875 176.015625 18.96875 171.398438 16.789062 167.449219 C 15.886719 165.683594 14.59375 164.152344 13.710938 162.375 C 9.179688 152.179688 17.996094 141.957031 25.917969 136.40625 C 29.257812 134.109375 32.925781 132.332031 36.800781 131.152344 C 39.730469 130.265625 42.964844 129.546875 45.566406 127.863281 C 39.035156 132.792969 30.667969 134.785156 24.953125 140.851562 C 20.75 145.253906 18.5625 151.480469 19 157.542969 C 19.230469 160.738281 20.191406 163.84375 21.796875 166.617188 C 23.351562 169.308594 25.898438 171.316406 26.589844 174.449219 C 26.910156 175.882812 26.863281 177.382812 26.480469 178.796875 C 26.058594 180.355469 25.21875 181.566406 24.238281 182.816406 C 22.25 185.355469 20.714844 188.269531 20.042969 191.441406 C 18.511719 198.457031 22.289062 207.046875 29.5625 208.976562 C 28.808594 210.515625 28.058594 212.105469 27.457031 213.742188 C 25.210938 211.242188 22.285156 209.535156 19.453125 207.753906 Z M 27.683594 220.445312 C 27.605469 216.3125 29.546875 212.4375 31.328125 208.824219 C 31.527344 208.429688 31.390625 207.800781 30.875 207.707031 C 22.683594 206.183594 19.242188 195.9375 22.425781 188.835938 C 24.917969 182.699219 30.148438 180.773438 27.730469 172.882812 C 26.699219 169.984375 24.25 167.972656 22.804688 165.292969 C 16.304688 152.488281 23.863281 140.5 35.988281 135.082031 C 39.835938 132.953125 44.257812 131.28125 47.371094 128.117188 C 44.398438 136.472656 34.039062 141.449219 34.621094 151.171875 C 35.070312 157.222656 40.042969 161.585938 41.53125 167.296875 C 42.453125 170.640625 41.175781 174.0625 39.351562 176.859375 C 35.546875 182.324219 29.605469 189.75 35.132812 196.097656 C 38.042969 199.003906 39.335938 200.796875 38.121094 205.035156 C 37.289062 208.257812 36.367188 212.800781 39.753906 214.914062 C 36.609375 219.0625 34.003906 223.648438 31.632812 228.292969 C 29.023438 226.636719 27.742188 223.476562 27.683594 220.449219 Z M 10.984375 289.609375 C 14.011719 272.945312 19.648438 256.871094 26.855469 241.574219 C 33.945312 225.90625 40.363281 213.492188 53.714844 202.113281 C 53.835938 202.058594 53.9375 201.972656 54.019531 201.84375 C 65.058594 191.691406 78.644531 184.710938 93.332031 181.765625 C 91.703125 187.507812 89.863281 193.753906 92.152344 199.570312 C 94.652344 205.945312 100.523438 210.113281 106.917969 212.023438 C 109.65625 212.695312 112.816406 213.78125 115.433594 212.222656 C 117.996094 210.785156 118.285156 207.730469 118.347656 205.082031 C 118.726562 200.835938 119.183594 196.589844 119.78125 192.367188 C 151.136719 228.171875 151 262.421875 151.378906 307.226562 C 144.367188 308.550781 137.992188 312.527344 133.1875 317.734375 C 133.664062 307.3125 133.398438 296.699219 136.695312 286.664062 C 142.101562 270.59375 143.039062 258.3125 135.863281 242.535156 C 134.996094 240.566406 133.914062 238.667969 133.1875 236.636719 C 132.175781 233.664062 131.8125 230.519531 131.128906 227.464844 C 131.101562 227.300781 131.066406 227.136719 131.03125 226.972656 C 130.847656 226.035156 129.410156 226.429688 129.597656 227.371094 C 130.492188 231.617188 130.933594 236.03125 132.992188 239.917969 C 136.121094 246.296875 138.613281 253.152344 139.351562 260.257812 C 141.003906 272.796875 134.761719 284.296875 132.925781 296.414062 C 131.808594 306.171875 131.90625 316.03125 131.382812 325.835938 C 112.363281 322.222656 93.199219 319.25 74.253906 315.265625 C 70.195312 314.253906 66.160156 313.125 62.011719 312.554688 C 63.957031 310.769531 62.445312 308.628906 61.304688 306.90625 C 61.304688 306.894531 61.304688 306.878906 61.304688 306.867188 C 63.21875 304.84375 62.507812 302.261719 60.246094 300.894531 C 59.714844 300.574219 59.125 300.332031 58.800781 299.800781 C 58.632812 299.523438 58.621094 299.121094 58.671875 298.820312 C 59.019531 297.332031 59.675781 295.679688 58.601562 294.332031 C 57.558594 292.871094 55.726562 292.570312 54.042969 292.757812 C 53.964844 275.589844 56.878906 258.515625 62.003906 242.167969 C 65.222656 233.640625 66.964844 224.277344 65.800781 215.175781 C 65.6875 214.453125 64.449219 214.617188 64.511719 215.351562 C 65.199219 222.367188 64.421875 229.464844 62.480469 236.234375 C 62.980469 228.796875 61.765625 221.230469 58.734375 214.421875 C 58.425781 213.746094 57.242188 214.234375 57.523438 214.933594 C 61.609375 224.660156 62.183594 235.652344 59.375 245.792969 C 54.835938 261.039062 52.527344 276.929688 52.539062 292.835938 C 35.0625 294.316406 17.355469 306.398438 7.863281 320.921875 C 7.929688 310.421875 9.117188 299.949219 10.980469 289.625 Z M 11.835938 346.457031 C 11.835938 346.457031 11.851562 346.464844 11.863281 346.472656 C 11.851562 346.46875 11.84375 346.460938 11.835938 346.457031 Z M 17.683594 349.875 C 17.015625 349.664062 16.417969 349.328125 15.894531 348.894531 C 12.941406 345.753906 11.773438 343.589844 13.578125 339.363281 C 18.273438 326.769531 25.65625 314.742188 36.617188 306.707031 C 37.328125 306.1875 36.648438 304.988281 35.917969 305.511719 C 24.699219 313.582031 17.140625 325.777344 12.292969 338.550781 C 11.523438 340.582031 10.8125 342.804688 11.472656 344.96875 C 10.757812 344.980469 10.035156 345.382812 9.320312 345.46875 C 8.449219 345.464844 7.59375 345.089844 6.824219 344.699219 C 2.941406 342.453125 2.96875 337.261719 3.636719 333.359375 C 9.242188 315.824219 24.769531 302.597656 41.78125 296.535156 C 45.691406 295.230469 49.753906 294.367188 53.882812 294.257812 C 55.226562 294.097656 57.039062 294.1875 57.632812 295.617188 C 57.96875 297.433594 56.269531 299.292969 57.828125 301.007812 C 59.433594 302.585938 62.464844 303.203125 60.078125 305.960938 C 48.269531 307.417969 34.527344 315.644531 28.328125 325.917969 C 27.894531 326.6875 29.011719 327.320312 29.503906 326.601562 C 31.246094 324.035156 33.164062 321.675781 35.4375 319.558594 C 40.886719 314.558594 47.511719 310.839844 54.558594 308.621094 C 56.125 308.332031 57.722656 307.523438 59.351562 308.117188 C 60.707031 308.472656 62.222656 310.316406 60.921875 311.527344 C 58.925781 313.09375 56.304688 313.578125 54.046875 314.664062 C 52.417969 315.363281 50.816406 316.132812 49.257812 316.96875 C 42.792969 320.292969 37.277344 325.253906 33.332031 331.371094 C 31.179688 334.558594 29.328125 337.941406 27.6875 341.417969 C 26.871094 343.035156 26.292969 344.777344 25.367188 346.335938 C 23.769531 348.769531 20.636719 350.671875 17.6875 349.882812 Z M 121.242188 349.0625 C 95.269531 349.0625 50.449219 349.0625 25.027344 349.0625 C 26.988281 347.355469 27.816406 344.808594 28.851562 342.503906 C 29.707031 340.679688 30.617188 338.882812 31.597656 337.117188 C 38.273438 324.488281 47.097656 318.601562 60.195312 313.789062 C 65.167969 314.273438 69.96875 315.734375 74.800781 316.910156 C 79.730469 318.109375 84.765625 318.875 89.757812 319.785156 C 104.988281 322.546875 120.214844 325.316406 135.441406 328.082031 C 137.800781 328.507812 140.207031 329.03125 142.617188 328.90625 C 145.003906 328.78125 147.234375 327.957031 149.472656 327.191406 C 154.191406 325.578125 158.996094 324.203125 163.851562 323.074219 C 166.210938 322.527344 168.648438 321.773438 170.992188 322.78125 C 175.964844 325.417969 180.535156 328.808594 185.34375 331.746094 C 186.800781 332.683594 188.253906 333.621094 189.710938 334.5625 C 190.222656 334.890625 191.023438 335.222656 191.386719 335.726562 C 191.835938 336.355469 191.496094 337.152344 190.832031 337.429688 C 182.785156 340.066406 176.089844 332.445312 168.316406 332.058594 C 165.15625 332.050781 164.46875 335.769531 163.050781 337.917969 C 158.128906 337.917969 153.207031 337.921875 148.285156 337.9375 C 147.960938 337.9375 147.753906 338.113281 147.65625 338.34375 C 145.164062 341.839844 142.648438 345.324219 140.152344 348.816406 C 133.851562 349.257812 127.554688 349 121.242188 349.066406 Z M 167.199219 333.875 C 170.226562 332.539062 177.242188 336.824219 180.382812 337.914062 C 175.191406 337.914062 170 337.914062 164.808594 337.914062 C 165.578125 336.570312 166.046875 334.9375 167.199219 333.871094 Z M 142.066406 348.640625 C 144.257812 345.558594 146.445312 342.46875 148.625 339.378906 C 153.132812 339.390625 157.636719 339.394531 162.144531 339.394531 C 157.730469 345.875 149.417969 347.785156 142.070312 348.636719 Z M 221.582031 349.074219 C 197.28125 349.074219 172.988281 349.066406 148.691406 349.074219 C 154.722656 347.773438 160.699219 344.804688 163.949219 339.394531 C 188.25 339.414062 213.808594 339.394531 238.105469 339.402344 C 236.855469 340.855469 237.433594 343.121094 237.3125 344.914062 C 237.3125 346.269531 237.046875 347.894531 237.871094 349.070312 C 232.445312 349.070312 227.011719 349.070312 221.582031 349.070312 Z M 325.183594 339.667969 C 331.535156 339.664062 337.882812 339.660156 344.238281 339.648438 C 345.21875 339.691406 346.355469 339.417969 347.125 340.191406 C 347.875 340.933594 347.679688 342.132812 347.683594 343.09375 C 347.683594 344.285156 347.6875 345.476562 347.691406 346.671875 C 348.023438 349.859375 344.542969 349.058594 342.488281 349.140625 C 316.398438 349.054688 290.308594 349.09375 264.21875 349.074219 L 264.21875 339.671875 C 275.390625 339.671875 314.714844 339.671875 325.191406 339.667969 Z M 309.695312 305 C 312.15625 315.992188 314.652344 326.980469 317.105469 337.976562 C 304.847656 337.90625 292.582031 337.949219 280.320312 337.9375 C 273.640625 308.113281 266.917969 278.296875 260.261719 248.464844 C 272.507812 248.464844 284.753906 248.464844 297 248.464844 C 301.222656 267.3125 305.457031 286.15625 309.691406 305 Z M 372.507812 177.367188 C 361.957031 214.414062 351.527344 251.507812 340.9375 288.535156 C 339.988281 290.824219 337.527344 291.613281 335.226562 291.386719 C 326.203125 291.375 317.175781 291.378906 308.15625 291.375 C 304.878906 276.753906 301.613281 262.128906 298.324219 247.511719 C 298.25 247.191406 297.917969 246.960938 297.597656 246.960938 C 282.808594 246.960938 268.011719 246.960938 253.222656 246.960938 C 252.71875 246.960938 252.394531 247.4375 252.5 247.90625 C 255.761719 262.394531 259.007812 276.886719 262.261719 291.371094 C 236.316406 291.371094 210.371094 291.371094 184.425781 291.371094 C 181.101562 290.625 182.675781 287.433594 183.289062 285.175781 C 184.089844 282.34375 184.890625 279.519531 185.695312 276.6875 C 189.875 261.972656 194.046875 247.257812 198.226562 232.539062 C 203.503906 213.953125 208.773438 195.363281 214.050781 176.773438 C 214.574219 175.03125 216.0625 173.820312 217.839844 173.625 C 249.019531 173.625 280.203125 173.625 311.382812 173.625 C 329.53125 173.625 347.679688 173.625 365.828125 173.625 C 367.101562 173.625 368.378906 173.585938 369.648438 173.625 C 371.664062 173.691406 372.996094 175.375 372.511719 177.355469 Z M 372.507812 177.367188 " fill-opacity="1" fill-rule="nonzero"/></svg>