<svg xmlns="http://www.w3.org/2000/svg" xmlns:xlink="http://www.w3.org/1999/xlink" zoomAndPan="magnify" preserveAspectRatio="xMidYMid meet" version="1.0" viewBox="613.2 300.5 215.59 215.41"><path fill="#ffffff" d="M 720.914062 515.917969 C 718.269531 515.917969 715.625 515.820312 712.988281 515.628906 C 710.351562 515.433594 707.722656 515.140625 705.109375 514.753906 C 702.492188 514.367188 699.894531 513.882812 697.3125 513.304688 C 694.730469 512.722656 692.175781 512.050781 689.644531 511.285156 C 687.113281 510.515625 684.613281 509.65625 682.148438 508.707031 C 679.679688 507.753906 677.25 506.714844 674.859375 505.585938 C 672.46875 504.453125 670.121094 503.238281 667.820312 501.933594 C 665.519531 500.632812 663.269531 499.246094 661.070312 497.777344 C 658.871094 496.308594 656.726562 494.761719 654.644531 493.136719 C 652.558594 491.511719 650.535156 489.8125 648.574219 488.035156 C 646.617188 486.261719 644.722656 484.417969 642.902344 482.503906 C 641.078125 480.589844 639.324219 478.609375 637.648438 476.566406 C 635.96875 474.523438 634.371094 472.421875 632.847656 470.261719 C 631.324219 468.101562 629.882812 465.886719 628.523438 463.621094 C 627.164062 461.355469 625.886719 459.039062 624.699219 456.679688 C 623.511719 454.320312 622.410156 451.917969 621.398438 449.476562 C 620.386719 447.035156 619.464844 444.558594 618.632812 442.050781 C 617.804688 439.542969 617.066406 437.003906 616.425781 434.441406 C 615.78125 431.878906 615.234375 429.292969 614.78125 426.691406 C 614.332031 424.085938 613.976562 421.46875 613.714844 418.839844 C 613.457031 416.210938 613.292969 413.574219 613.230469 410.933594 C 613.164062 408.289062 613.195312 405.648438 613.328125 403.011719 C 613.457031 400.371094 613.683594 397.738281 614.007812 395.117188 C 614.332031 392.492188 614.75 389.886719 615.265625 387.292969 C 615.78125 384.703125 616.390625 382.132812 617.097656 379.585938 C 617.804688 377.039062 618.601562 374.519531 619.492188 372.03125 C 620.382812 369.542969 621.363281 367.09375 622.4375 364.675781 C 623.507812 362.261719 624.667969 359.886719 625.914062 357.554688 C 627.160156 355.226562 628.492188 352.941406 629.90625 350.710938 C 631.320312 348.476562 632.816406 346.300781 634.390625 344.175781 C 635.964844 342.054688 637.617188 339.992188 639.34375 337.992188 C 641.074219 335.988281 642.871094 334.054688 644.742188 332.1875 C 645.988281 330.9375 647.261719 329.71875 648.570312 328.53125 C 649.875 327.34375 651.207031 326.1875 652.570312 325.066406 C 653.933594 323.945312 655.320312 322.859375 656.738281 321.804688 C 658.152344 320.75 659.59375 319.734375 661.0625 318.75 C 662.527344 317.769531 664.015625 316.824219 665.527344 315.914062 C 667.039062 315.003906 668.574219 314.132812 670.128906 313.296875 C 671.683594 312.464844 673.261719 311.667969 674.855469 310.910156 C 676.449219 310.15625 678.0625 309.4375 679.691406 308.761719 C 681.320312 308.082031 682.96875 307.445312 684.628906 306.847656 C 686.289062 306.253906 687.964844 305.695312 689.652344 305.183594 C 691.339844 304.667969 693.042969 304.195312 694.753906 303.765625 C 696.464844 303.332031 698.1875 302.945312 699.917969 302.597656 C 701.648438 302.253906 703.386719 301.949219 705.132812 301.6875 C 706.878906 301.425781 708.628906 301.207031 710.386719 301.035156 C 712.140625 300.859375 713.902344 300.726562 715.664062 300.636719 C 717.429688 300.550781 719.191406 300.503906 720.957031 300.503906 C 722.722656 300.5 724.488281 300.542969 726.25 300.628906 C 728.011719 300.710938 729.773438 300.839844 731.53125 301.011719 C 733.285156 301.183594 735.039062 301.398438 736.785156 301.652344 C 738.53125 301.910156 740.269531 302.210938 742 302.554688 C 743.734375 302.898438 745.457031 303.28125 747.167969 303.710938 C 748.882812 304.136719 750.582031 304.605469 752.273438 305.117188 C 753.960938 305.628906 755.636719 306.179688 757.300781 306.773438 C 758.960938 307.367188 760.609375 308 762.238281 308.671875 C 763.871094 309.347656 765.484375 310.0625 767.082031 310.816406 C 768.675781 311.566406 770.253906 312.359375 771.8125 313.191406 C 773.367188 314.023438 774.902344 314.890625 776.417969 315.796875 C 777.933594 316.703125 779.425781 317.644531 780.890625 318.625 C 782.359375 319.605469 783.804688 320.621094 785.222656 321.671875 C 786.640625 322.71875 788.03125 323.804688 789.394531 324.925781 C 790.761719 326.042969 792.097656 327.195312 793.402344 328.378906 C 794.710938 329.5625 795.992188 330.777344 797.238281 332.027344 C 798.488281 333.273438 799.703125 334.550781 800.890625 335.855469 C 802.074219 337.164062 803.226562 338.5 804.347656 339.863281 C 805.464844 341.226562 806.550781 342.617188 807.601562 344.035156 C 808.65625 345.449219 809.671875 346.890625 810.652344 348.359375 C 811.628906 349.824219 812.574219 351.316406 813.480469 352.828125 C 814.386719 354.34375 815.257812 355.875 816.089844 357.433594 C 816.921875 358.988281 817.714844 360.5625 818.46875 362.15625 C 819.222656 363.753906 819.9375 365.363281 820.609375 366.996094 C 821.285156 368.625 821.917969 370.269531 822.511719 371.929688 C 823.105469 373.59375 823.660156 375.265625 824.171875 376.957031 C 824.683594 378.644531 825.152344 380.34375 825.578125 382.054688 C 826.007812 383.765625 826.390625 385.484375 826.734375 387.214844 C 827.078125 388.945312 827.378906 390.683594 827.636719 392.429688 C 827.894531 394.171875 828.109375 395.921875 828.28125 397.679688 C 828.449219 399.433594 828.578125 401.191406 828.664062 402.953125 C 828.75 404.714844 828.789062 406.480469 828.789062 408.242188 C 828.785156 410.007812 828.742188 411.769531 828.652344 413.53125 C 828.5625 415.292969 828.433594 417.050781 828.257812 418.804688 C 828.082031 420.5625 827.863281 422.3125 827.601562 424.054688 C 827.339844 425.800781 827.039062 427.535156 826.691406 429.265625 C 826.34375 430.996094 825.957031 432.714844 825.523438 434.425781 C 825.09375 436.136719 824.621094 437.835938 824.105469 439.519531 C 823.589844 441.207031 823.035156 442.882812 822.4375 444.542969 C 821.839844 446.203125 821.203125 447.84375 820.523438 449.472656 C 819.847656 451.101562 819.128906 452.714844 818.371094 454.304688 C 817.613281 455.898438 816.816406 457.472656 815.984375 459.027344 C 815.148438 460.582031 814.273438 462.113281 813.363281 463.625 C 812.453125 465.136719 811.507812 466.625 810.523438 468.089844 C 809.542969 469.554688 808.523438 470.992188 807.46875 472.40625 C 806.414062 473.824219 805.324219 475.210938 804.203125 476.570312 C 803.082031 477.933594 801.925781 479.265625 800.738281 480.570312 C 799.550781 481.875 798.328125 483.148438 797.078125 484.394531 C 794.589844 486.894531 791.984375 489.265625 789.261719 491.507812 C 786.539062 493.75 783.710938 495.855469 780.777344 497.816406 C 777.847656 499.78125 774.824219 501.59375 771.714844 503.261719 C 768.601562 504.925781 765.417969 506.429688 762.15625 507.78125 C 758.894531 509.128906 755.578125 510.316406 752.199219 511.335938 C 748.820312 512.359375 745.402344 513.210938 741.9375 513.894531 C 738.476562 514.578125 734.988281 515.089844 731.476562 515.425781 C 727.964844 515.765625 724.441406 515.929688 720.914062 515.917969 Z M 720.914062 515.917969 " fill-opacity="1" fill-rule="nonzero"/><path fill="#9b8ef8" d="M 818.328125 408.292969 C 818.328125 462.058594 774.722656 505.625 720.914062 505.625 C 667.101562 505.625 623.480469 462.027344 623.480469 408.277344 C 623.480469 354.527344 667.117188 310.929688 720.914062 310.929688 C 774.710938 310.929688 818.328125 354.527344 818.328125 408.292969 Z M 818.328125 408.292969 " fill-opacity="1" fill-rule="nonzero"/><path fill="#f9da4a" d="M 797.078125 408.292969 C 797.078125 409.539062 797.046875 410.78125 796.988281 412.027344 C 796.925781 413.269531 796.832031 414.511719 796.710938 415.753906 C 796.589844 416.992188 796.4375 418.226562 796.253906 419.460938 C 796.070312 420.691406 795.859375 421.917969 795.613281 423.140625 C 795.371094 424.363281 795.097656 425.578125 794.796875 426.785156 C 794.492188 427.992188 794.160156 429.191406 793.796875 430.386719 C 793.4375 431.578125 793.046875 432.757812 792.625 433.933594 C 792.207031 435.105469 791.757812 436.265625 791.28125 437.417969 C 790.804688 438.566406 790.296875 439.707031 789.765625 440.832031 C 789.230469 441.957031 788.671875 443.070312 788.085938 444.167969 C 787.496094 445.269531 786.882812 446.351562 786.242188 447.417969 C 785.601562 448.488281 784.933594 449.539062 784.242188 450.574219 C 783.546875 451.609375 782.832031 452.628906 782.089844 453.628906 C 781.34375 454.628906 780.578125 455.613281 779.789062 456.574219 C 778.996094 457.539062 778.183594 458.480469 777.347656 459.402344 C 776.507812 460.324219 775.648438 461.226562 774.769531 462.109375 C 773.886719 462.988281 772.984375 463.847656 772.058594 464.683594 C 771.136719 465.519531 770.191406 466.332031 769.230469 467.125 C 768.265625 467.914062 767.28125 468.679688 766.28125 469.421875 C 765.28125 470.164062 764.261719 470.882812 763.226562 471.574219 C 762.1875 472.265625 761.136719 472.929688 760.066406 473.570312 C 758.996094 474.210938 757.914062 474.824219 756.8125 475.414062 C 755.714844 476 754.601562 476.558594 753.472656 477.09375 C 752.347656 477.625 751.207031 478.128906 750.054688 478.605469 C 748.902344 479.082031 747.742188 479.53125 746.566406 479.949219 C 745.394531 480.371094 744.210938 480.761719 743.019531 481.121094 C 741.824219 481.484375 740.625 481.816406 739.414062 482.117188 C 738.207031 482.421875 736.988281 482.695312 735.765625 482.9375 C 734.542969 483.179688 733.316406 483.390625 732.082031 483.574219 C 730.851562 483.757812 729.613281 483.910156 728.371094 484.03125 C 727.132812 484.15625 725.890625 484.246094 724.644531 484.308594 C 723.398438 484.367188 722.152344 484.398438 720.90625 484.398438 C 719.660156 484.398438 718.414062 484.367188 717.167969 484.308594 C 715.921875 484.246094 714.679688 484.152344 713.441406 484.03125 C 712.199219 483.910156 710.960938 483.757812 709.730469 483.574219 C 708.496094 483.390625 707.269531 483.179688 706.046875 482.9375 C 704.824219 482.691406 703.605469 482.421875 702.398438 482.117188 C 701.1875 481.816406 699.988281 481.484375 698.792969 481.121094 C 697.601562 480.757812 696.417969 480.367188 695.246094 479.949219 C 694.070312 479.53125 692.910156 479.082031 691.757812 478.605469 C 690.605469 478.128906 689.464844 477.625 688.339844 477.089844 C 687.210938 476.558594 686.097656 476 685 475.410156 C 683.898438 474.824219 682.816406 474.210938 681.746094 473.570312 C 680.675781 472.929688 679.625 472.261719 678.585938 471.570312 C 677.550781 470.878906 676.53125 470.164062 675.53125 469.421875 C 674.53125 468.679688 673.546875 467.914062 672.582031 467.121094 C 671.621094 466.332031 670.675781 465.519531 669.753906 464.683594 C 668.828125 463.84375 667.925781 462.988281 667.046875 462.105469 C 666.164062 461.226562 665.304688 460.324219 664.46875 459.402344 C 663.628906 458.476562 662.816406 457.535156 662.023438 456.570312 C 661.234375 455.609375 660.46875 454.628906 659.726562 453.625 C 658.984375 452.625 658.265625 451.609375 657.574219 450.574219 C 656.878906 449.535156 656.214844 448.484375 655.574219 447.417969 C 654.933594 446.347656 654.316406 445.265625 653.730469 444.167969 C 653.140625 443.066406 652.582031 441.957031 652.050781 440.828125 C 651.515625 439.703125 651.011719 438.566406 650.535156 437.414062 C 650.058594 436.261719 649.609375 435.101562 649.1875 433.929688 C 648.769531 432.757812 648.378906 431.574219 648.015625 430.382812 C 647.652344 429.191406 647.320312 427.988281 647.019531 426.78125 C 646.714844 425.574219 646.441406 424.359375 646.199219 423.136719 C 645.957031 421.914062 645.742188 420.6875 645.5625 419.457031 C 645.378906 418.222656 645.226562 416.988281 645.101562 415.75 C 644.980469 414.507812 644.890625 413.265625 644.828125 412.023438 C 644.765625 410.78125 644.738281 409.535156 644.738281 408.289062 C 644.738281 407.042969 644.769531 405.796875 644.828125 404.554688 C 644.890625 403.3125 644.980469 402.070312 645.105469 400.828125 C 645.226562 399.589844 645.378906 398.355469 645.5625 397.121094 C 645.746094 395.890625 645.957031 394.664062 646.203125 393.441406 C 646.445312 392.21875 646.71875 391.003906 647.019531 389.796875 C 647.324219 388.589844 647.65625 387.386719 648.019531 386.195312 C 648.378906 385.003906 648.769531 383.820312 649.191406 382.648438 C 649.609375 381.476562 650.058594 380.316406 650.535156 379.164062 C 651.015625 378.011719 651.519531 376.875 652.050781 375.75 C 652.585938 374.625 653.144531 373.511719 653.734375 372.414062 C 654.320312 371.3125 654.933594 370.230469 655.574219 369.164062 C 656.21875 368.09375 656.882812 367.042969 657.578125 366.007812 C 658.269531 364.972656 658.988281 363.953125 659.730469 362.953125 C 660.472656 361.953125 661.238281 360.96875 662.03125 360.007812 C 662.820312 359.046875 663.632812 358.101562 664.472656 357.179688 C 665.308594 356.257812 666.167969 355.355469 667.050781 354.472656 C 667.929688 353.59375 668.835938 352.734375 669.757812 351.898438 C 670.679688 351.0625 671.625 350.25 672.589844 349.457031 C 673.550781 348.667969 674.535156 347.902344 675.535156 347.160156 C 676.539062 346.417969 677.558594 345.703125 678.59375 345.011719 C 679.628906 344.316406 680.683594 343.652344 681.753906 343.011719 C 682.820312 342.371094 683.90625 341.757812 685.003906 341.171875 C 686.105469 340.582031 687.21875 340.023438 688.34375 339.492188 C 689.472656 338.957031 690.609375 338.453125 691.761719 337.976562 C 692.914062 337.5 694.078125 337.054688 695.25 336.632812 C 696.425781 336.214844 697.609375 335.824219 698.800781 335.460938 C 699.992188 335.101562 701.195312 334.769531 702.40625 334.464844 C 703.613281 334.164062 704.828125 333.890625 706.050781 333.648438 C 707.273438 333.40625 708.503906 333.191406 709.734375 333.007812 C 710.96875 332.828125 712.207031 332.675781 713.445312 332.550781 C 714.6875 332.429688 715.929688 332.339844 717.175781 332.277344 C 718.421875 332.214844 719.667969 332.1875 720.914062 332.1875 C 722.160156 332.1875 723.40625 332.214844 724.648438 332.277344 C 725.894531 332.339844 727.136719 332.429688 728.378906 332.550781 C 729.621094 332.675781 730.855469 332.828125 732.089844 333.007812 C 733.320312 333.191406 734.550781 333.40625 735.773438 333.648438 C 736.996094 333.890625 738.210938 334.164062 739.421875 334.46875 C 740.628906 334.769531 741.832031 335.101562 743.023438 335.464844 C 744.214844 335.824219 745.398438 336.214844 746.574219 336.636719 C 747.746094 337.054688 748.910156 337.503906 750.0625 337.980469 C 751.214844 338.457031 752.351562 338.960938 753.480469 339.492188 C 754.605469 340.027344 755.71875 340.585938 756.820312 341.171875 C 757.917969 341.761719 759.003906 342.375 760.070312 343.015625 C 761.140625 343.652344 762.191406 344.320312 763.230469 345.011719 C 764.265625 345.703125 765.285156 346.421875 766.285156 347.164062 C 767.289062 347.90625 768.269531 348.671875 769.234375 349.460938 C 770.195312 350.25 771.140625 351.066406 772.0625 351.902344 C 772.988281 352.738281 773.890625 353.597656 774.773438 354.476562 C 775.652344 355.359375 776.511719 356.261719 777.351562 357.183594 C 778.1875 358.105469 779 359.046875 779.792969 360.011719 C 780.582031 360.972656 781.347656 361.957031 782.089844 362.957031 C 782.835938 363.957031 783.550781 364.976562 784.242188 366.011719 C 784.9375 367.046875 785.601562 368.097656 786.242188 369.167969 C 786.886719 370.234375 787.5 371.316406 788.085938 372.417969 C 788.675781 373.515625 789.234375 374.628906 789.765625 375.753906 C 790.300781 376.878906 790.804688 378.015625 791.28125 379.167969 C 791.757812 380.320312 792.207031 381.480469 792.628906 382.652344 C 793.046875 383.824219 793.4375 385.007812 793.800781 386.199219 C 794.160156 387.390625 794.496094 388.59375 794.796875 389.800781 C 795.101562 391.007812 795.371094 392.222656 795.617188 393.445312 C 795.859375 394.667969 796.070312 395.894531 796.253906 397.125 C 796.4375 398.359375 796.589844 399.59375 796.710938 400.832031 C 796.835938 402.074219 796.925781 403.3125 796.988281 404.558594 C 797.046875 405.800781 797.078125 407.046875 797.078125 408.292969 Z M 797.078125 408.292969 " fill-opacity="1" fill-rule="nonzero"/><path fill="#000000" d="M 720.914062 332.1875 C 722.160156 332.1875 723.40625 332.214844 724.648438 332.277344 C 725.894531 332.339844 727.136719 332.429688 728.378906 332.550781 C 729.621094 332.675781 730.855469 332.828125 732.089844 333.007812 C 733.324219 333.191406 734.550781 333.40625 735.773438 333.648438 C 736.996094 333.890625 738.210938 334.164062 739.421875 334.46875 C 740.628906 334.769531 741.832031 335.101562 743.023438 335.464844 C 744.21875 335.824219 745.398438 336.214844 746.574219 336.636719 C 747.746094 337.054688 748.910156 337.503906 750.0625 337.980469 C 751.214844 338.457031 752.351562 338.960938 753.480469 339.492188 C 754.605469 340.027344 755.71875 340.585938 756.820312 341.171875 C 757.917969 341.757812 759.003906 342.375 760.074219 343.015625 C 761.140625 343.652344 762.195312 344.320312 763.230469 345.011719 C 764.265625 345.703125 765.285156 346.421875 766.289062 347.164062 C 767.289062 347.90625 768.269531 348.671875 769.234375 349.460938 C 770.199219 350.25 771.140625 351.066406 772.066406 351.902344 C 772.988281 352.738281 773.890625 353.597656 774.773438 354.476562 C 775.65625 355.359375 776.515625 356.257812 777.351562 357.183594 C 778.1875 358.105469 779.003906 359.046875 779.792969 360.011719 C 780.585938 360.972656 781.351562 361.957031 782.09375 362.957031 C 782.835938 363.957031 783.554688 364.972656 784.246094 366.011719 C 784.9375 367.046875 785.605469 368.097656 786.246094 369.164062 C 786.886719 370.234375 787.5 371.316406 788.089844 372.417969 C 788.675781 373.515625 789.238281 374.625 789.769531 375.753906 C 790.304688 376.878906 790.808594 378.015625 791.285156 379.167969 C 791.761719 380.320312 792.210938 381.480469 792.632812 382.652344 C 793.050781 383.824219 793.441406 385.007812 793.804688 386.199219 C 794.164062 387.390625 794.496094 388.59375 794.800781 389.800781 C 795.105469 391.007812 795.375 392.222656 795.621094 393.445312 C 795.863281 394.667969 796.074219 395.894531 796.257812 397.125 C 796.441406 398.355469 796.59375 399.59375 796.714844 400.832031 C 796.839844 402.070312 796.929688 403.3125 796.992188 404.558594 C 797.054688 405.800781 797.082031 407.046875 797.082031 408.292969 C 797.082031 409.539062 797.054688 410.78125 796.992188 412.027344 C 796.929688 413.269531 796.839844 414.511719 796.714844 415.753906 C 796.59375 416.992188 796.441406 418.226562 796.257812 419.460938 C 796.074219 420.691406 795.863281 421.917969 795.621094 423.140625 C 795.375 424.363281 795.105469 425.578125 794.800781 426.785156 C 794.496094 427.992188 794.164062 429.191406 793.804688 430.386719 C 793.441406 431.578125 793.050781 432.757812 792.632812 433.933594 C 792.210938 435.105469 791.761719 436.265625 791.285156 437.417969 C 790.808594 438.566406 790.304688 439.707031 789.769531 440.832031 C 789.238281 441.957031 788.675781 443.070312 788.089844 444.167969 C 787.5 445.265625 786.886719 446.351562 786.246094 447.417969 C 785.605469 448.488281 784.9375 449.539062 784.246094 450.574219 C 783.554688 451.609375 782.835938 452.628906 782.09375 453.628906 C 781.351562 454.628906 780.585938 455.609375 779.792969 456.574219 C 779.003906 457.535156 778.1875 458.480469 777.351562 459.402344 C 776.515625 460.324219 775.65625 461.226562 774.773438 462.109375 C 773.890625 462.988281 772.988281 463.847656 772.066406 464.683594 C 771.140625 465.519531 770.199219 466.332031 769.234375 467.125 C 768.269531 467.914062 767.289062 468.679688 766.289062 469.421875 C 765.285156 470.164062 764.265625 470.878906 763.230469 471.574219 C 762.195312 472.265625 761.140625 472.929688 760.074219 473.570312 C 759.003906 474.210938 757.917969 474.824219 756.820312 475.414062 C 755.71875 476 754.605469 476.558594 753.480469 477.089844 C 752.351562 477.625 751.214844 478.128906 750.0625 478.605469 C 748.910156 479.082031 747.746094 479.53125 746.574219 479.949219 C 745.398438 480.371094 744.21875 480.761719 743.023438 481.121094 C 741.832031 481.484375 740.628906 481.816406 739.421875 482.117188 C 738.210938 482.421875 736.996094 482.695312 735.773438 482.9375 C 734.550781 483.179688 733.324219 483.390625 732.089844 483.574219 C 730.855469 483.757812 729.621094 483.910156 728.378906 484.03125 C 727.136719 484.15625 725.894531 484.246094 724.648438 484.308594 C 723.40625 484.367188 722.160156 484.398438 720.914062 484.398438 C 719.667969 484.398438 718.421875 484.367188 717.175781 484.308594 C 715.929688 484.246094 714.6875 484.15625 713.445312 484.03125 C 712.207031 483.910156 710.96875 483.757812 709.734375 483.574219 C 708.503906 483.390625 707.273438 483.179688 706.050781 482.9375 C 704.828125 482.695312 703.613281 482.421875 702.40625 482.117188 C 701.195312 481.816406 699.996094 481.484375 698.800781 481.121094 C 697.609375 480.761719 696.425781 480.371094 695.25 479.949219 C 694.078125 479.53125 692.914062 479.082031 691.761719 478.605469 C 690.613281 478.128906 689.472656 477.625 688.34375 477.089844 C 687.21875 476.558594 686.105469 476 685.007812 475.414062 C 683.90625 474.824219 682.824219 474.210938 681.753906 473.570312 C 680.683594 472.929688 679.632812 472.265625 678.59375 471.574219 C 677.558594 470.878906 676.539062 470.164062 675.539062 469.421875 C 674.535156 468.679688 673.554688 467.914062 672.589844 467.125 C 671.628906 466.332031 670.683594 465.519531 669.757812 464.683594 C 668.835938 463.847656 667.933594 462.988281 667.050781 462.109375 C 666.171875 461.226562 665.3125 460.324219 664.472656 459.402344 C 663.636719 458.480469 662.824219 457.535156 662.03125 456.574219 C 661.242188 455.609375 660.472656 454.628906 659.730469 453.628906 C 658.988281 452.628906 658.273438 451.609375 657.578125 450.574219 C 656.886719 449.539062 656.21875 448.488281 655.578125 447.417969 C 654.9375 446.351562 654.324219 445.265625 653.734375 444.167969 C 653.148438 443.070312 652.589844 441.957031 652.054688 440.832031 C 651.523438 439.707031 651.015625 438.566406 650.539062 437.417969 C 650.0625 436.265625 649.613281 435.105469 649.195312 433.933594 C 648.773438 432.757812 648.382812 431.578125 648.023438 430.386719 C 647.660156 429.191406 647.328125 427.992188 647.023438 426.785156 C 646.722656 425.578125 646.449219 424.363281 646.207031 423.140625 C 645.960938 421.917969 645.75 420.691406 645.566406 419.460938 C 645.382812 418.226562 645.230469 416.992188 645.109375 415.753906 C 644.988281 414.511719 644.894531 413.269531 644.832031 412.027344 C 644.773438 410.78125 644.742188 409.539062 644.742188 408.292969 C 644.742188 407.046875 644.773438 405.800781 644.832031 404.558594 C 644.894531 403.3125 644.988281 402.070312 645.109375 400.832031 C 645.230469 399.59375 645.382812 398.355469 645.566406 397.125 C 645.75 395.894531 645.960938 394.667969 646.207031 393.445312 C 646.449219 392.222656 646.722656 391.007812 647.023438 389.800781 C 647.328125 388.59375 647.660156 387.390625 648.023438 386.199219 C 648.382812 385.007812 648.773438 383.824219 649.195312 382.652344 C 649.613281 381.480469 650.0625 380.320312 650.539062 379.167969 C 651.015625 378.015625 651.523438 376.878906 652.054688 375.753906 C 652.589844 374.625 653.148438 373.515625 653.734375 372.417969 C 654.324219 371.316406 654.9375 370.234375 655.578125 369.164062 C 656.21875 368.097656 656.886719 367.046875 657.578125 366.011719 C 658.273438 364.972656 658.988281 363.957031 659.730469 362.957031 C 660.472656 361.957031 661.242188 360.972656 662.03125 360.011719 C 662.824219 359.046875 663.636719 358.105469 664.472656 357.183594 C 665.3125 356.257812 666.171875 355.359375 667.050781 354.476562 C 667.933594 353.597656 668.835938 352.738281 669.757812 351.902344 C 670.683594 351.066406 671.628906 350.25 672.589844 349.460938 C 673.554688 348.671875 674.535156 347.90625 675.539062 347.164062 C 676.539062 346.421875 677.558594 345.703125 678.59375 345.011719 C 679.632812 344.320312 680.683594 343.652344 681.753906 343.015625 C 682.824219 342.375 683.90625 341.757812 685.007812 341.171875 C 686.105469 340.585938 687.21875 340.027344 688.34375 339.492188 C 689.472656 338.960938 690.613281 338.457031 691.761719 337.980469 C 692.914062 337.503906 694.078125 337.054688 695.25 336.636719 C 696.425781 336.214844 697.609375 335.824219 698.800781 335.464844 C 699.996094 335.101562 701.195312 334.769531 702.40625 334.46875 C 703.613281 334.164062 704.828125 333.890625 706.050781 333.648438 C 707.273438 333.40625 708.503906 333.191406 709.734375 333.007812 C 710.96875 332.828125 712.207031 332.675781 713.445312 332.550781 C 714.6875 332.429688 715.929688 332.339844 717.175781 332.277344 C 718.421875 332.214844 719.667969 332.1875 720.914062 332.1875 M 720.914062 329.429688 C 719.40625 329.429688 717.898438 329.472656 716.394531 329.558594 C 714.890625 329.644531 713.386719 329.773438 711.890625 329.941406 C 710.394531 330.113281 708.902344 330.328125 707.417969 330.585938 C 705.929688 330.84375 704.453125 331.140625 702.988281 331.484375 C 701.519531 331.824219 700.0625 332.207031 698.617188 332.632812 C 697.167969 333.058594 695.738281 333.523438 694.316406 334.03125 C 692.898438 334.539062 691.496094 335.085938 690.105469 335.671875 C 688.71875 336.257812 687.347656 336.886719 685.996094 337.550781 C 684.644531 338.214844 683.3125 338.921875 682 339.664062 C 680.6875 340.402344 679.398438 341.183594 678.132812 342 C 676.863281 342.8125 675.621094 343.664062 674.402344 344.550781 C 673.183594 345.4375 671.992188 346.359375 670.828125 347.316406 C 669.664062 348.269531 668.527344 349.257812 667.417969 350.277344 C 666.308594 351.296875 665.230469 352.347656 664.179688 353.429688 C 663.132812 354.511719 662.113281 355.625 661.128906 356.765625 C 660.144531 357.902344 659.195312 359.070312 658.277344 360.265625 C 657.359375 361.460938 656.476562 362.679688 655.625 363.925781 C 654.777344 365.171875 653.96875 366.4375 653.191406 367.730469 C 652.417969 369.023438 651.679688 370.335938 650.980469 371.667969 C 650.277344 373.003906 649.617188 374.355469 648.996094 375.726562 C 648.371094 377.097656 647.789062 378.484375 647.246094 379.890625 C 646.703125 381.296875 646.203125 382.714844 645.738281 384.148438 C 645.277344 385.582031 644.859375 387.027344 644.480469 388.488281 C 644.101562 389.945312 643.765625 391.410156 643.46875 392.886719 C 643.175781 394.367188 642.921875 395.851562 642.714844 397.339844 C 642.503906 398.832031 642.339844 400.328125 642.214844 401.828125 C 642.089844 403.332031 642.011719 404.835938 641.972656 406.339844 C 641.9375 407.84375 641.941406 409.351562 641.992188 410.855469 C 642.039062 412.359375 642.132812 413.863281 642.265625 415.363281 C 642.402344 416.863281 642.578125 418.359375 642.800781 419.847656 C 643.019531 421.339844 643.285156 422.820312 643.589844 424.296875 C 643.894531 425.769531 644.242188 427.234375 644.632812 428.691406 C 645.023438 430.144531 645.453125 431.585938 645.925781 433.015625 C 646.398438 434.449219 646.910156 435.863281 647.464844 437.265625 C 648.019531 438.664062 648.613281 440.046875 649.246094 441.414062 C 649.878906 442.78125 650.550781 444.128906 651.261719 445.457031 C 651.96875 446.785156 652.71875 448.09375 653.503906 449.378906 C 654.289062 450.664062 655.109375 451.925781 655.96875 453.164062 C 656.824219 454.402344 657.71875 455.617188 658.644531 456.804688 C 659.570312 457.992188 660.53125 459.152344 661.523438 460.285156 C 662.519531 461.417969 663.542969 462.519531 664.601562 463.59375 C 665.65625 464.667969 666.746094 465.710938 667.859375 466.722656 C 668.976562 467.734375 670.121094 468.714844 671.292969 469.660156 C 672.46875 470.605469 673.667969 471.515625 674.890625 472.394531 C 676.117188 473.273438 677.367188 474.113281 678.640625 474.917969 C 679.914062 475.726562 681.207031 476.496094 682.523438 477.226562 C 683.84375 477.957031 685.179688 478.652344 686.535156 479.308594 C 687.894531 479.960938 689.269531 480.578125 690.660156 481.15625 C 692.054688 481.730469 693.460938 482.269531 694.886719 482.765625 C 696.308594 483.261719 697.746094 483.714844 699.195312 484.128906 C 700.644531 484.542969 702.101562 484.914062 703.574219 485.246094 C 705.042969 485.574219 706.523438 485.863281 708.011719 486.109375 C 709.496094 486.355469 710.992188 486.558594 712.488281 486.71875 C 713.988281 486.878906 715.488281 486.996094 716.996094 487.070312 C 718.5 487.144531 720.007812 487.175781 721.515625 487.164062 C 723.023438 487.152344 724.527344 487.09375 726.03125 486.996094 C 727.535156 486.898438 729.035156 486.757812 730.53125 486.574219 C 732.027344 486.390625 733.515625 486.164062 735 485.894531 C 736.484375 485.625 737.957031 485.3125 739.421875 484.957031 C 740.886719 484.605469 742.339844 484.210938 743.785156 483.773438 C 745.226562 483.335938 746.65625 482.859375 748.070312 482.339844 C 749.484375 481.820312 750.882812 481.261719 752.269531 480.664062 C 753.652344 480.0625 755.015625 479.425781 756.363281 478.75 C 757.707031 478.074219 759.035156 477.359375 760.339844 476.605469 C 761.644531 475.851562 762.929688 475.0625 764.1875 474.234375 C 765.449219 473.410156 766.683594 472.546875 767.894531 471.652344 C 769.105469 470.753906 770.289062 469.824219 771.449219 468.859375 C 772.605469 467.894531 773.734375 466.898438 774.835938 465.867188 C 775.933594 464.839844 777.003906 463.777344 778.042969 462.6875 C 779.082031 461.597656 780.089844 460.476562 781.066406 459.328125 C 782.042969 458.179688 782.984375 457.003906 783.890625 455.804688 C 784.800781 454.601562 785.671875 453.375 786.507812 452.121094 C 787.347656 450.871094 788.148438 449.59375 788.914062 448.296875 C 789.675781 447 790.402344 445.679688 791.09375 444.339844 C 791.78125 443 792.429688 441.644531 793.042969 440.265625 C 793.652344 438.890625 794.222656 437.496094 794.753906 436.085938 C 795.285156 434.675781 795.777344 433.253906 796.226562 431.816406 C 796.675781 430.378906 797.082031 428.929688 797.449219 427.46875 C 797.816406 426.007812 798.140625 424.539062 798.421875 423.058594 C 798.703125 421.578125 798.945312 420.09375 799.140625 418.597656 C 799.339844 417.105469 799.492188 415.609375 799.601562 414.105469 C 799.714844 412.605469 799.78125 411.101562 799.808594 409.59375 C 799.832031 408.089844 799.8125 406.582031 799.75 405.078125 C 799.691406 403.574219 799.585938 402.070312 799.4375 400.574219 C 799.289062 399.074219 799.101562 397.582031 798.867188 396.09375 C 798.632812 394.605469 798.359375 393.125 798.039062 391.652344 C 797.722656 390.179688 797.363281 388.71875 796.960938 387.269531 C 796.558594 385.816406 796.113281 384.378906 795.628906 382.953125 C 795.144531 381.523438 794.621094 380.113281 794.054688 378.71875 C 793.492188 377.320312 792.886719 375.941406 792.242188 374.582031 C 791.597656 373.21875 790.914062 371.878906 790.191406 370.554688 C 789.472656 369.234375 788.710938 367.933594 787.917969 366.652344 C 787.121094 365.375 786.289062 364.121094 785.421875 362.886719 C 784.554688 361.65625 783.652344 360.449219 782.714844 359.269531 C 781.777344 358.089844 780.808594 356.941406 779.804688 355.816406 C 778.800781 354.691406 777.765625 353.597656 776.699219 352.53125 C 774.878906 350.699219 772.96875 348.960938 770.972656 347.320312 C 768.980469 345.675781 766.910156 344.136719 764.761719 342.699219 C 762.613281 341.257812 760.402344 339.929688 758.121094 338.710938 C 755.84375 337.492188 753.511719 336.386719 751.121094 335.398438 C 748.734375 334.410156 746.304688 333.539062 743.828125 332.792969 C 741.355469 332.042969 738.851562 331.417969 736.3125 330.917969 C 733.777344 330.417969 731.222656 330.042969 728.648438 329.792969 C 726.078125 329.542969 723.496094 329.421875 720.914062 329.429688 Z M 720.914062 329.429688 " fill-opacity="1" fill-rule="nonzero"/><path fill="#000000" d="M 720.914062 487.402344 C 719.402344 487.398438 717.890625 487.355469 716.382812 487.269531 C 714.871094 487.183594 713.367188 487.054688 711.867188 486.882812 C 710.363281 486.707031 708.867188 486.492188 707.378906 486.234375 C 705.890625 485.976562 704.410156 485.675781 702.9375 485.332031 C 701.464844 484.988281 700.003906 484.605469 698.554688 484.175781 C 697.105469 483.75 695.667969 483.28125 694.242188 482.773438 C 692.820312 482.265625 691.414062 481.714844 690.023438 481.125 C 688.628906 480.535156 687.257812 479.90625 685.902344 479.238281 C 684.546875 478.570312 683.210938 477.863281 681.894531 477.121094 C 680.578125 476.375 679.285156 475.59375 678.015625 474.773438 C 676.746094 473.957031 675.5 473.101562 674.277344 472.210938 C 673.058594 471.324219 671.863281 470.398438 670.695312 469.441406 C 669.527344 468.480469 668.386719 467.492188 667.273438 466.46875 C 666.164062 465.445312 665.082031 464.390625 664.03125 463.304688 C 662.980469 462.21875 661.960938 461.105469 660.972656 459.960938 C 659.984375 458.816406 659.03125 457.644531 658.113281 456.449219 C 657.191406 455.25 656.308594 454.027344 655.457031 452.777344 C 654.605469 451.527344 653.792969 450.253906 653.015625 448.960938 C 652.238281 447.664062 651.5 446.347656 650.800781 445.011719 C 650.097656 443.671875 649.433594 442.316406 648.8125 440.9375 C 648.1875 439.5625 647.605469 438.171875 647.058594 436.761719 C 646.515625 435.351562 646.011719 433.929688 645.550781 432.492188 C 645.089844 431.054688 644.667969 429.601562 644.289062 428.140625 C 643.910156 426.679688 643.574219 425.207031 643.277344 423.726562 C 642.984375 422.246094 642.730469 420.757812 642.519531 419.261719 C 642.3125 417.765625 642.144531 416.265625 642.023438 414.757812 C 641.898438 413.253906 641.820312 411.746094 641.78125 410.234375 C 641.746094 408.726562 641.75 407.214844 641.800781 405.707031 C 641.851562 404.199219 641.941406 402.691406 642.078125 401.1875 C 642.214844 399.683594 642.394531 398.183594 642.617188 396.6875 C 642.835938 395.195312 643.101562 393.707031 643.410156 392.230469 C 643.714844 390.75 644.066406 389.28125 644.457031 387.824219 C 644.847656 386.363281 645.28125 384.917969 645.753906 383.484375 C 646.230469 382.050781 646.746094 380.632812 647.300781 379.226562 C 647.855469 377.820312 648.453125 376.433594 649.085938 375.0625 C 649.722656 373.691406 650.394531 372.34375 651.109375 371.011719 C 651.820312 369.679688 652.570312 368.367188 653.359375 367.078125 C 654.148438 365.789062 654.972656 364.523438 655.832031 363.28125 C 656.691406 362.039062 657.585938 360.824219 658.515625 359.632812 C 659.449219 358.441406 660.410156 357.28125 661.40625 356.144531 C 662.40625 355.007812 663.433594 353.902344 664.492188 352.828125 C 665.554688 351.75 666.644531 350.703125 667.761719 349.691406 C 668.882812 348.675781 670.03125 347.695312 671.207031 346.746094 C 672.382812 345.796875 673.585938 344.882812 674.816406 344.003906 C 676.042969 343.125 677.296875 342.28125 678.574219 341.472656 C 679.851562 340.664062 681.152344 339.894531 682.472656 339.160156 C 683.792969 338.425781 685.136719 337.730469 686.496094 337.074219 C 687.855469 336.417969 689.234375 335.800781 690.632812 335.222656 C 692.03125 334.644531 693.441406 334.109375 694.867188 333.609375 C 696.296875 333.113281 697.738281 332.65625 699.191406 332.242188 C 700.644531 331.828125 702.109375 331.457031 703.582031 331.125 C 705.058594 330.792969 706.539062 330.507812 708.03125 330.261719 C 709.523438 330.015625 711.019531 329.8125 712.523438 329.652344 C 714.027344 329.492188 715.535156 329.375 717.042969 329.300781 C 718.554688 329.226562 720.0625 329.195312 721.574219 329.207031 C 723.085938 329.21875 724.597656 329.273438 726.105469 329.375 C 727.613281 329.472656 729.117188 329.613281 730.617188 329.800781 C 732.117188 329.984375 733.613281 330.210938 735.097656 330.484375 C 736.585938 330.753906 738.0625 331.066406 739.535156 331.421875 C 741.003906 331.777344 742.460938 332.171875 743.90625 332.613281 C 745.355469 333.050781 746.785156 333.53125 748.207031 334.050781 C 749.625 334.570312 751.027344 335.132812 752.414062 335.730469 C 753.800781 336.332031 755.167969 336.972656 756.519531 337.652344 C 757.871094 338.332031 759.199219 339.046875 760.507812 339.804688 C 761.816406 340.558594 763.105469 341.351562 764.367188 342.179688 C 765.632812 343.007812 766.871094 343.871094 768.085938 344.773438 C 769.296875 345.671875 770.484375 346.605469 771.644531 347.574219 C 772.808594 348.542969 773.9375 349.542969 775.042969 350.574219 C 776.144531 351.605469 777.21875 352.667969 778.261719 353.761719 C 779.300781 354.855469 780.3125 355.980469 781.289062 357.132812 C 782.269531 358.285156 783.210938 359.460938 784.121094 360.667969 C 785.03125 361.875 785.90625 363.105469 786.746094 364.359375 C 787.585938 365.617188 788.390625 366.894531 789.15625 368.195312 C 789.921875 369.5 790.652344 370.820312 791.34375 372.164062 C 792.035156 373.507812 792.683594 374.871094 793.296875 376.25 C 793.910156 377.632812 794.484375 379.027344 795.015625 380.441406 C 795.546875 381.855469 796.039062 383.285156 796.488281 384.726562 C 796.941406 386.167969 797.347656 387.621094 797.714844 389.085938 C 798.082031 390.550781 798.410156 392.023438 798.691406 393.507812 C 798.972656 394.992188 799.214844 396.484375 799.410156 397.980469 C 799.609375 399.476562 799.761719 400.980469 799.875 402.484375 C 799.984375 403.992188 800.054688 405.5 800.078125 407.011719 C 800.101562 408.519531 800.082031 410.03125 800.023438 411.539062 C 799.960938 413.046875 799.855469 414.554688 799.707031 416.058594 C 799.558594 417.558594 799.367188 419.058594 799.132812 420.550781 C 798.898438 422.042969 798.621094 423.527344 798.304688 425.003906 C 797.984375 426.476562 797.625 427.945312 797.21875 429.398438 C 796.816406 430.855469 796.371094 432.296875 795.886719 433.730469 C 795.402344 435.160156 794.875 436.574219 794.308594 437.972656 C 793.738281 439.375 793.132812 440.757812 792.488281 442.121094 C 791.839844 443.488281 791.15625 444.832031 790.433594 446.160156 C 789.710938 447.484375 788.949219 448.789062 788.148438 450.070312 C 787.351562 451.355469 786.515625 452.613281 785.648438 453.847656 C 784.777344 455.082031 783.871094 456.292969 782.933594 457.476562 C 781.992188 458.65625 781.019531 459.8125 780.011719 460.941406 C 779.007812 462.066406 777.96875 463.164062 776.902344 464.234375 C 775.070312 466.070312 773.15625 467.8125 771.152344 469.460938 C 769.152344 471.109375 767.074219 472.65625 764.917969 474.097656 C 762.761719 475.539062 760.542969 476.875 758.253906 478.097656 C 755.96875 479.320312 753.625 480.425781 751.230469 481.417969 C 748.832031 482.410156 746.390625 483.28125 743.910156 484.03125 C 741.425781 484.785156 738.914062 485.410156 736.367188 485.910156 C 733.824219 486.414062 731.257812 486.789062 728.675781 487.039062 C 726.09375 487.285156 723.507812 487.40625 720.914062 487.402344 Z M 720.914062 329.679688 C 719.410156 329.679688 717.910156 329.722656 716.410156 329.808594 C 714.910156 329.894531 713.414062 330.023438 711.921875 330.195312 C 710.429688 330.367188 708.941406 330.582031 707.460938 330.835938 C 705.980469 331.09375 704.507812 331.390625 703.046875 331.734375 C 701.582031 332.074219 700.132812 332.457031 698.691406 332.878906 C 697.25 333.304688 695.820312 333.769531 694.40625 334.273438 C 692.992188 334.78125 691.59375 335.324219 690.210938 335.910156 C 688.828125 336.496094 687.460938 337.121094 686.113281 337.785156 C 684.765625 338.449219 683.4375 339.152344 682.132812 339.890625 C 680.824219 340.632812 679.539062 341.40625 678.277344 342.222656 C 677.015625 343.035156 675.777344 343.882812 674.5625 344.765625 C 673.347656 345.652344 672.160156 346.570312 671 347.523438 C 669.835938 348.472656 668.703125 349.460938 667.597656 350.476562 C 666.496094 351.492188 665.417969 352.539062 664.375 353.621094 C 663.328125 354.699219 662.316406 355.804688 661.335938 356.941406 C 660.355469 358.078125 659.40625 359.242188 658.492188 360.433594 C 657.578125 361.625 656.695312 362.839844 655.851562 364.082031 C 655.007812 365.324219 654.199219 366.585938 653.425781 367.875 C 652.652344 369.160156 651.917969 370.46875 651.222656 371.800781 C 650.523438 373.128906 649.863281 374.476562 649.246094 375.84375 C 648.625 377.210938 648.042969 378.597656 647.503906 379.996094 C 646.964844 381.398438 646.460938 382.8125 646.003906 384.242188 C 645.542969 385.671875 645.125 387.113281 644.75 388.566406 C 644.371094 390.015625 644.035156 391.480469 643.742188 392.953125 C 643.449219 394.425781 643.199219 395.902344 642.992188 397.390625 C 642.78125 398.878906 642.617188 400.367188 642.492188 401.863281 C 642.371094 403.359375 642.292969 404.859375 642.253906 406.359375 C 642.21875 407.859375 642.222656 409.359375 642.273438 410.859375 C 642.320312 412.359375 642.414062 413.859375 642.546875 415.355469 C 642.683594 416.847656 642.859375 418.339844 643.082031 419.824219 C 643.300781 421.308594 643.566406 422.785156 643.871094 424.253906 C 644.175781 425.726562 644.523438 427.183594 644.910156 428.636719 C 645.300781 430.085938 645.730469 431.523438 646.199219 432.949219 C 646.671875 434.375 647.183594 435.785156 647.734375 437.179688 C 648.289062 438.578125 648.878906 439.957031 649.511719 441.316406 C 650.140625 442.679688 650.8125 444.023438 651.519531 445.347656 C 652.226562 446.671875 652.972656 447.972656 653.753906 449.253906 C 654.539062 450.535156 655.355469 451.792969 656.210938 453.027344 C 657.066406 454.261719 657.957031 455.472656 658.882812 456.65625 C 659.804688 457.835938 660.761719 458.992188 661.753906 460.121094 C 662.742188 461.25 663.765625 462.351562 664.820312 463.421875 C 665.871094 464.492188 666.957031 465.53125 668.070312 466.539062 C 669.183594 467.546875 670.324219 468.519531 671.492188 469.464844 C 672.660156 470.40625 673.855469 471.316406 675.078125 472.191406 C 676.300781 473.0625 677.542969 473.902344 678.8125 474.707031 C 680.082031 475.507812 681.375 476.277344 682.6875 477.003906 C 684 477.734375 685.332031 478.425781 686.6875 479.078125 C 688.039062 479.730469 689.410156 480.34375 690.796875 480.917969 C 692.183594 481.492188 693.589844 482.027344 695.007812 482.523438 C 696.425781 483.015625 697.855469 483.46875 699.300781 483.882812 C 700.746094 484.292969 702.203125 484.664062 703.667969 484.992188 C 705.132812 485.324219 706.605469 485.609375 708.089844 485.855469 C 709.570312 486.097656 711.058594 486.300781 712.554688 486.460938 C 714.046875 486.621094 715.542969 486.734375 717.046875 486.808594 C 718.546875 486.882812 720.046875 486.914062 721.550781 486.902344 C 723.050781 486.890625 724.550781 486.835938 726.050781 486.734375 C 727.550781 486.636719 729.046875 486.496094 730.535156 486.3125 C 732.027344 486.128906 733.511719 485.902344 734.992188 485.636719 C 736.46875 485.367188 737.9375 485.054688 739.398438 484.703125 C 740.859375 484.351562 742.308594 483.957031 743.746094 483.519531 C 745.183594 483.085938 746.605469 482.609375 748.015625 482.089844 C 749.425781 481.574219 750.820312 481.015625 752.199219 480.417969 C 753.578125 479.824219 754.9375 479.1875 756.28125 478.511719 C 757.621094 477.835938 758.945312 477.125 760.246094 476.375 C 761.546875 475.625 762.824219 474.835938 764.082031 474.011719 C 765.335938 473.1875 766.570312 472.332031 767.773438 471.4375 C 768.980469 470.542969 770.160156 469.613281 771.316406 468.652344 C 772.46875 467.691406 773.59375 466.695312 774.691406 465.671875 C 775.789062 464.644531 776.855469 463.585938 777.890625 462.5 C 778.925781 461.414062 779.929688 460.296875 780.902344 459.152344 C 781.875 458.007812 782.8125 456.835938 783.714844 455.640625 C 784.621094 454.441406 785.492188 453.21875 786.324219 451.96875 C 787.160156 450.722656 787.960938 449.449219 788.722656 448.15625 C 789.484375 446.863281 790.207031 445.546875 790.894531 444.214844 C 791.578125 442.878906 792.226562 441.523438 792.835938 440.152344 C 793.445312 438.78125 794.015625 437.390625 794.542969 435.984375 C 795.074219 434.582031 795.5625 433.164062 796.007812 431.730469 C 796.457031 430.296875 796.863281 428.851562 797.230469 427.394531 C 797.59375 425.941406 797.917969 424.476562 798.199219 423 C 798.480469 421.527344 798.71875 420.042969 798.914062 418.554688 C 799.109375 417.066406 799.261719 415.574219 799.375 414.078125 C 799.484375 412.582031 799.550781 411.082031 799.578125 409.582031 C 799.601562 408.082031 799.582031 406.582031 799.523438 405.082031 C 799.460938 403.582031 799.355469 402.082031 799.207031 400.589844 C 799.0625 399.097656 798.871094 397.609375 798.640625 396.125 C 798.40625 394.640625 798.132812 393.167969 797.816406 391.699219 C 797.496094 390.230469 797.140625 388.773438 796.738281 387.328125 C 796.335938 385.882812 795.894531 384.449219 795.414062 383.027344 C 794.929688 381.605469 794.40625 380.199219 793.84375 378.804688 C 793.28125 377.414062 792.675781 376.039062 792.035156 374.683594 C 791.390625 373.328125 790.710938 371.988281 789.992188 370.671875 C 789.273438 369.351562 788.519531 368.058594 787.722656 366.78125 C 786.929688 365.507812 786.101562 364.257812 785.238281 363.027344 C 784.371094 361.800781 783.472656 360.601562 782.539062 359.425781 C 781.605469 358.25 780.636719 357.101562 779.636719 355.980469 C 778.636719 354.859375 777.605469 353.769531 776.546875 352.707031 C 774.726562 350.882812 772.824219 349.148438 770.835938 347.511719 C 768.84375 345.871094 766.78125 344.335938 764.640625 342.902344 C 762.496094 341.46875 760.289062 340.144531 758.019531 338.929688 C 755.746094 337.710938 753.417969 336.613281 751.039062 335.625 C 748.65625 334.640625 746.230469 333.773438 743.765625 333.027344 C 741.296875 332.28125 738.800781 331.660156 736.269531 331.160156 C 733.742188 330.660156 731.195312 330.289062 728.628906 330.039062 C 726.0625 329.792969 723.492188 329.671875 720.914062 329.679688 Z M 720.914062 484.644531 C 678.78125 484.644531 644.492188 450.390625 644.492188 408.292969 C 644.492188 366.191406 678.777344 331.933594 720.914062 331.933594 C 763.046875 331.933594 797.328125 366.1875 797.328125 408.292969 C 797.328125 450.398438 763.046875 484.644531 720.914062 484.644531 Z M 720.914062 332.4375 C 679.054688 332.4375 644.992188 366.46875 644.992188 408.292969 C 644.992188 450.117188 679.054688 484.144531 720.914062 484.144531 C 762.773438 484.144531 796.828125 450.117188 796.828125 408.292969 C 796.828125 366.46875 762.773438 332.4375 720.914062 332.4375 Z M 720.914062 332.4375 " fill-opacity="1" fill-rule="nonzero"/><path fill="#000000" d="M 758.78125 413.054688 C 758.554688 413.054688 758.335938 413.097656 758.128906 413.183594 C 757.917969 413.265625 757.730469 413.386719 757.570312 413.542969 C 757.40625 413.699219 757.277344 413.878906 757.183594 414.085938 C 757.089844 414.292969 757.039062 414.507812 757.03125 414.730469 C 756.972656 415.875 756.859375 417.015625 756.695312 418.148438 C 756.53125 419.28125 756.308594 420.40625 756.039062 421.515625 C 755.765625 422.628906 755.441406 423.726562 755.0625 424.808594 C 754.6875 425.890625 754.257812 426.953125 753.78125 427.992188 C 753.300781 429.035156 752.777344 430.050781 752.199219 431.042969 C 751.625 432.03125 751.003906 432.996094 750.339844 433.925781 C 749.671875 434.859375 748.964844 435.757812 748.210938 436.621094 C 747.460938 437.484375 746.667969 438.3125 745.835938 439.101562 C 745.007812 439.890625 744.140625 440.640625 743.238281 441.347656 C 742.335938 442.054688 741.402344 442.71875 740.4375 443.335938 C 739.472656 443.953125 738.480469 444.527344 737.460938 445.050781 C 736.441406 445.574219 735.402344 446.046875 734.335938 446.472656 C 733.269531 446.898438 732.1875 447.273438 731.089844 447.59375 C 729.988281 447.917969 728.875 448.1875 727.75 448.402344 C 726.625 448.621094 725.492188 448.78125 724.347656 448.890625 C 723.207031 449 722.0625 449.054688 720.917969 449.054688 C 719.769531 449.054688 718.628906 449 717.484375 448.890625 C 716.34375 448.78125 715.210938 448.621094 714.085938 448.402344 C 712.960938 448.1875 711.847656 447.917969 710.746094 447.59375 C 709.648438 447.273438 708.5625 446.898438 707.5 446.472656 C 706.433594 446.046875 705.394531 445.574219 704.375 445.050781 C 703.355469 444.527344 702.363281 443.953125 701.398438 443.335938 C 700.433594 442.71875 699.5 442.054688 698.597656 441.347656 C 697.695312 440.640625 696.828125 439.890625 695.996094 439.101562 C 695.167969 438.3125 694.375 437.484375 693.625 436.621094 C 692.871094 435.757812 692.164062 434.859375 691.496094 433.925781 C 690.828125 432.996094 690.210938 432.03125 689.632812 431.042969 C 689.058594 430.050781 688.535156 429.035156 688.054688 427.992188 C 687.578125 426.953125 687.148438 425.890625 686.773438 424.808594 C 686.394531 423.726562 686.070312 422.628906 685.796875 421.515625 C 685.523438 420.40625 685.304688 419.28125 685.140625 418.148438 C 684.976562 417.015625 684.863281 415.875 684.804688 414.730469 C 684.796875 414.507812 684.742188 414.292969 684.652344 414.085938 C 684.558594 413.878906 684.429688 413.699219 684.265625 413.542969 C 684.105469 413.386719 683.917969 413.265625 683.707031 413.183594 C 683.5 413.097656 683.28125 413.054688 683.054688 413.054688 C 682.816406 413.050781 682.585938 413.097656 682.363281 413.191406 C 682.144531 413.285156 681.953125 413.417969 681.785156 413.589844 C 681.621094 413.765625 681.496094 413.964844 681.410156 414.1875 C 681.324219 414.410156 681.289062 414.644531 681.300781 414.882812 C 681.355469 416.140625 681.472656 417.394531 681.648438 418.644531 C 681.828125 419.890625 682.0625 421.128906 682.355469 422.355469 C 682.652344 423.582031 683.003906 424.789062 683.414062 425.980469 C 683.824219 427.175781 684.289062 428.34375 684.8125 429.492188 C 685.332031 430.640625 685.910156 431.761719 686.539062 432.851562 C 687.167969 433.945312 687.847656 435.007812 688.578125 436.035156 C 689.308594 437.0625 690.085938 438.054688 690.910156 439.007812 C 691.734375 439.960938 692.601562 440.875 693.515625 441.746094 C 694.425781 442.617188 695.378906 443.441406 696.371094 444.222656 C 697.359375 445.003906 698.386719 445.734375 699.445312 446.417969 C 700.507812 447.101562 701.597656 447.730469 702.71875 448.308594 C 703.839844 448.886719 704.988281 449.410156 706.15625 449.882812 C 707.328125 450.351562 708.519531 450.761719 709.730469 451.117188 C 710.941406 451.472656 712.164062 451.773438 713.402344 452.011719 C 714.644531 452.25 715.890625 452.429688 717.144531 452.550781 C 718.402344 452.667969 719.660156 452.730469 720.921875 452.730469 C 722.183594 452.730469 723.445312 452.667969 724.699219 452.550781 C 725.957031 452.429688 727.203125 452.25 728.441406 452.011719 C 729.679688 451.773438 730.90625 451.472656 732.117188 451.117188 C 733.328125 450.761719 734.515625 450.351562 735.6875 449.882812 C 736.859375 449.410156 738.003906 448.886719 739.125 448.308594 C 740.246094 447.730469 741.339844 447.101562 742.398438 446.417969 C 743.460938 445.734375 744.484375 445.003906 745.476562 444.222656 C 746.46875 443.441406 747.417969 442.617188 748.332031 441.746094 C 749.242188 440.875 750.109375 439.960938 750.9375 439.007812 C 751.761719 438.054688 752.539062 437.0625 753.269531 436.035156 C 754 435.007812 754.679688 433.945312 755.308594 432.851562 C 755.9375 431.761719 756.511719 430.640625 757.035156 429.492188 C 757.554688 428.34375 758.019531 427.175781 758.429688 425.980469 C 758.839844 424.789062 759.195312 423.582031 759.488281 422.355469 C 759.785156 421.128906 760.019531 419.890625 760.195312 418.644531 C 760.371094 417.394531 760.488281 416.140625 760.546875 414.882812 C 760.554688 414.640625 760.519531 414.410156 760.433594 414.183594 C 760.351562 413.960938 760.222656 413.761719 760.058594 413.589844 C 759.890625 413.414062 759.695312 413.28125 759.472656 413.1875 C 759.25 413.097656 759.019531 413.050781 758.78125 413.054688 Z M 758.78125 413.054688 " fill-opacity="1" fill-rule="nonzero"/><path fill="#000000" d="M 761.339844 414.921875 C 761.277344 416.207031 761.15625 417.484375 760.972656 418.753906 C 760.789062 420.027344 760.546875 421.285156 760.246094 422.535156 C 759.941406 423.78125 759.582031 425.011719 759.160156 426.226562 C 758.742188 427.441406 758.265625 428.632812 757.730469 429.800781 C 757.195312 430.96875 756.609375 432.109375 755.964844 433.222656 C 755.324219 434.335938 754.628906 435.414062 753.882812 436.460938 C 753.140625 437.507812 752.34375 438.515625 751.503906 439.488281 C 750.660156 440.457031 749.777344 441.386719 748.847656 442.273438 C 747.914062 443.160156 746.945312 444 745.933594 444.792969 C 744.925781 445.589844 743.878906 446.332031 742.796875 447.027344 C 741.714844 447.722656 740.605469 448.363281 739.460938 448.953125 C 738.320312 449.539062 737.152344 450.074219 735.957031 450.550781 C 734.765625 451.027344 733.550781 451.449219 732.316406 451.808594 C 731.082031 452.171875 729.835938 452.476562 728.574219 452.71875 C 727.3125 452.960938 726.039062 453.144531 724.761719 453.265625 C 723.480469 453.386719 722.199219 453.449219 720.914062 453.449219 C 719.628906 453.449219 718.34375 453.386719 717.066406 453.265625 C 715.785156 453.144531 714.515625 452.960938 713.25 452.71875 C 711.988281 452.476562 710.742188 452.171875 709.507812 451.808594 C 708.273438 451.449219 707.0625 451.027344 705.867188 450.550781 C 704.675781 450.074219 703.507812 449.539062 702.363281 448.953125 C 701.222656 448.363281 700.109375 447.722656 699.027344 447.027344 C 697.945312 446.332031 696.902344 445.589844 695.890625 444.792969 C 694.878906 444 693.910156 443.160156 692.980469 442.273438 C 692.050781 441.386719 691.164062 440.457031 690.320312 439.488281 C 689.480469 438.515625 688.6875 437.507812 687.941406 436.460938 C 687.195312 435.414062 686.5 434.335938 685.859375 433.222656 C 685.21875 432.109375 684.628906 430.96875 684.09375 429.800781 C 683.5625 428.632812 683.085938 427.441406 682.664062 426.226562 C 682.246094 425.011719 681.882812 423.78125 681.582031 422.535156 C 681.277344 421.285156 681.035156 420.027344 680.851562 418.753906 C 680.671875 417.484375 680.546875 416.207031 680.488281 414.921875 C 680.449219 414.195312 680.683594 413.566406 681.191406 413.042969 C 681.695312 412.515625 682.316406 412.253906 683.046875 412.25 C 683.375 412.25 683.691406 412.3125 683.996094 412.433594 C 684.304688 412.558594 684.574219 412.730469 684.8125 412.960938 C 685.050781 413.1875 685.238281 413.449219 685.375 413.75 C 685.507812 414.050781 685.585938 414.363281 685.597656 414.691406 C 685.652344 415.8125 685.757812 416.929688 685.917969 418.039062 C 686.078125 419.148438 686.289062 420.25 686.554688 421.339844 C 686.820312 422.429688 687.136719 423.503906 687.503906 424.5625 C 687.871094 425.625 688.289062 426.664062 688.753906 427.683594 C 689.21875 428.707031 689.734375 429.703125 690.296875 430.671875 C 690.855469 431.644531 691.464844 432.585938 692.113281 433.5 C 692.765625 434.414062 693.460938 435.296875 694.195312 436.144531 C 694.929688 436.992188 695.703125 437.800781 696.515625 438.574219 C 697.328125 439.351562 698.175781 440.082031 699.058594 440.777344 C 699.941406 441.46875 700.855469 442.121094 701.800781 442.726562 C 702.742188 443.332031 703.714844 443.894531 704.710938 444.40625 C 705.710938 444.921875 706.730469 445.386719 707.773438 445.804688 C 708.816406 446.222656 709.875 446.585938 710.953125 446.902344 C 712.03125 447.21875 713.121094 447.484375 714.222656 447.695312 C 715.324219 447.90625 716.433594 448.066406 717.550781 448.175781 C 718.667969 448.28125 719.789062 448.335938 720.914062 448.335938 C 722.035156 448.335938 723.15625 448.28125 724.273438 448.175781 C 725.390625 448.066406 726.5 447.90625 727.601562 447.695312 C 728.707031 447.484375 729.796875 447.21875 730.871094 446.902344 C 731.949219 446.585938 733.011719 446.222656 734.050781 445.804688 C 735.09375 445.386719 736.113281 444.921875 737.113281 444.40625 C 738.109375 443.894531 739.082031 443.332031 740.027344 442.726562 C 740.972656 442.121094 741.882812 441.46875 742.765625 440.777344 C 743.648438 440.082031 744.496094 439.351562 745.308594 438.574219 C 746.121094 437.800781 746.894531 436.992188 747.632812 436.144531 C 748.367188 435.296875 749.058594 434.414062 749.710938 433.5 C 750.363281 432.585938 750.96875 431.644531 751.53125 430.671875 C 752.089844 429.703125 752.605469 428.707031 753.070312 427.683594 C 753.539062 426.664062 753.957031 425.625 754.324219 424.5625 C 754.691406 423.503906 755.003906 422.429688 755.269531 421.339844 C 755.535156 420.25 755.746094 419.148438 755.90625 418.039062 C 756.066406 416.929688 756.171875 415.8125 756.226562 414.691406 C 756.242188 414.363281 756.316406 414.050781 756.453125 413.75 C 756.589844 413.449219 756.773438 413.1875 757.011719 412.960938 C 757.25 412.730469 757.523438 412.558594 757.828125 412.433594 C 758.132812 412.3125 758.449219 412.25 758.78125 412.25 C 759.511719 412.253906 760.128906 412.515625 760.636719 413.042969 C 761.144531 413.566406 761.378906 414.195312 761.339844 414.921875 Z M 700.851562 399.007812 C 701.371094 399.007812 701.890625 398.957031 702.402344 398.855469 C 702.914062 398.753906 703.410156 398.601562 703.890625 398.402344 C 704.375 398.203125 704.832031 397.960938 705.265625 397.671875 C 705.699219 397.382812 706.101562 397.054688 706.46875 396.683594 C 706.839844 396.316406 707.167969 395.914062 707.460938 395.480469 C 707.75 395.046875 707.996094 394.589844 708.195312 394.109375 C 708.394531 393.628906 708.546875 393.132812 708.648438 392.621094 C 708.75 392.109375 708.800781 391.59375 708.800781 391.070312 C 708.800781 390.550781 708.75 390.035156 708.648438 389.523438 C 708.546875 389.011719 708.394531 388.515625 708.195312 388.035156 C 707.996094 387.550781 707.753906 387.09375 707.464844 386.660156 C 707.171875 386.226562 706.84375 385.828125 706.476562 385.457031 C 706.105469 385.089844 705.707031 384.757812 705.269531 384.46875 C 704.835938 384.179688 704.378906 383.933594 703.898438 383.734375 C 703.414062 383.535156 702.917969 383.386719 702.40625 383.285156 C 701.894531 383.183594 701.378906 383.128906 700.855469 383.128906 C 700.335938 383.128906 699.820312 383.179688 699.308594 383.28125 C 698.796875 383.382812 698.296875 383.535156 697.816406 383.734375 C 697.335938 383.933594 696.875 384.179688 696.441406 384.46875 C 696.007812 384.757812 695.609375 385.085938 695.238281 385.457031 C 694.871094 385.824219 694.539062 386.226562 694.25 386.65625 C 693.960938 387.089844 693.714844 387.550781 693.515625 388.03125 C 693.316406 388.511719 693.164062 389.007812 693.0625 389.519531 C 692.960938 390.03125 692.910156 390.546875 692.910156 391.070312 C 692.910156 391.589844 692.960938 392.105469 693.066406 392.617188 C 693.167969 393.128906 693.316406 393.625 693.515625 394.105469 C 693.714844 394.585938 693.960938 395.042969 694.25 395.476562 C 694.539062 395.910156 694.871094 396.308594 695.238281 396.679688 C 695.605469 397.046875 696.007812 397.375 696.441406 397.664062 C 696.875 397.957031 697.332031 398.199219 697.8125 398.398438 C 698.292969 398.597656 698.789062 398.75 699.300781 398.851562 C 699.8125 398.953125 700.328125 399.003906 700.851562 399.007812 Z M 740.976562 399.007812 C 741.496094 399.007812 742.011719 398.957031 742.523438 398.855469 C 743.035156 398.753906 743.535156 398.601562 744.015625 398.402344 C 744.496094 398.203125 744.957031 397.960938 745.390625 397.671875 C 745.824219 397.382812 746.226562 397.054688 746.59375 396.683594 C 746.964844 396.316406 747.292969 395.914062 747.582031 395.480469 C 747.875 395.046875 748.117188 394.589844 748.316406 394.109375 C 748.519531 393.628906 748.667969 393.132812 748.769531 392.621094 C 748.875 392.109375 748.925781 391.59375 748.925781 391.070312 C 748.925781 390.550781 748.875 390.035156 748.773438 389.523438 C 748.671875 389.011719 748.519531 388.515625 748.320312 388.035156 C 748.121094 387.550781 747.875 387.09375 747.585938 386.660156 C 747.296875 386.226562 746.96875 385.828125 746.597656 385.457031 C 746.230469 385.089844 745.828125 384.757812 745.394531 384.46875 C 744.960938 384.179688 744.503906 383.933594 744.023438 383.734375 C 743.539062 383.535156 743.042969 383.386719 742.53125 383.285156 C 742.019531 383.183594 741.503906 383.128906 740.980469 383.128906 C 740.460938 383.128906 739.941406 383.179688 739.429688 383.28125 C 738.917969 383.382812 738.421875 383.535156 737.941406 383.734375 C 737.457031 383.933594 737 384.179688 736.566406 384.46875 C 736.132812 384.757812 735.730469 385.085938 735.363281 385.457031 C 734.992188 385.824219 734.664062 386.226562 734.375 386.65625 C 734.085938 387.089844 733.839844 387.550781 733.640625 388.03125 C 733.441406 388.511719 733.289062 389.007812 733.1875 389.519531 C 733.085938 390.03125 733.035156 390.546875 733.035156 391.070312 C 733.035156 391.589844 733.085938 392.105469 733.1875 392.617188 C 733.289062 393.128906 733.441406 393.625 733.640625 394.105469 C 733.839844 394.585938 734.085938 395.042969 734.375 395.476562 C 734.664062 395.910156 734.992188 396.308594 735.363281 396.679688 C 735.730469 397.046875 736.132812 397.375 736.566406 397.664062 C 736.996094 397.957031 737.457031 398.199219 737.9375 398.398438 C 738.417969 398.597656 738.914062 398.75 739.425781 398.851562 C 739.9375 398.953125 740.453125 399.003906 740.976562 399.007812 Z M 740.976562 399.007812 " fill-opacity="1" fill-rule="nonzero"/></svg>