<svg xmlns="http://www.w3.org/2000/svg" xmlns:xlink="http://www.w3.org/1999/xlink" width="500" zoomAndPan="magnify" viewBox="0 0 375 374.999991" height="500" preserveAspectRatio="xMidYMid meet" version="1.0"><defs><clipPath id="be4856a7f3"><path d="M 33 58 L 169.980469 58 L 169.980469 165 L 33 165 Z M 33 58 " clip-rule="nonzero"/></clipPath><clipPath id="1d6880135b"><path d="M 33 150 L 169.980469 150 L 169.980469 165 L 33 165 Z M 33 150 " clip-rule="nonzero"/></clipPath><clipPath id="4536318b3a"><path d="M 40 181 L 54 181 L 54 194.316406 L 40 194.316406 Z M 40 181 " clip-rule="nonzero"/></clipPath><clipPath id="693a7d1807"><path d="M 156 44.316406 L 169.980469 44.316406 L 169.980469 57 L 156 57 Z M 156 44.316406 " clip-rule="nonzero"/></clipPath></defs><path fill="#d8d2ed" d="M 80.46875 186.5625 C 79.601562 186.5625 78.882812 185.882812 78.835938 185.015625 C 78.515625 179.101562 81.433594 173.6875 84.015625 169.628906 C 84.609375 168.691406 85.234375 167.753906 85.835938 166.84375 C 88.101562 163.425781 90.242188 160.199219 91.441406 156.539062 C 91.660156 155.867188 92.289062 155.414062 92.996094 155.414062 L 110.507812 155.414062 C 111.214844 155.414062 111.84375 155.867188 112.0625 156.539062 C 113.261719 160.199219 115.402344 163.425781 117.667969 166.84375 C 118.269531 167.753906 118.890625 168.691406 119.488281 169.628906 C 122.066406 173.6875 124.988281 179.101562 124.667969 185.015625 C 124.621094 185.882812 123.902344 186.5625 123.03125 186.5625 L 80.46875 186.5625 " fill-opacity="1" fill-rule="nonzero"/><path fill="#4f51ac" d="M 110.507812 153.78125 L 92.996094 153.78125 C 91.582031 153.78125 90.324219 154.6875 89.886719 156.03125 C 88.753906 159.480469 86.671875 162.621094 84.46875 165.941406 C 83.863281 166.855469 83.238281 167.804688 82.632812 168.753906 C 79.921875 173.015625 76.855469 178.726562 77.203125 185.105469 C 77.296875 186.835938 78.730469 188.195312 80.46875 188.195312 L 123.03125 188.195312 C 124.769531 188.195312 126.207031 186.835938 126.300781 185.105469 C 126.648438 178.730469 123.582031 173.015625 120.871094 168.753906 C 120.265625 167.804688 119.640625 166.855469 119.03125 165.941406 C 116.828125 162.621094 114.75 159.480469 113.617188 156.03125 C 113.175781 154.6875 111.921875 153.78125 110.507812 153.78125 Z M 110.507812 157.046875 C 112.117188 161.953125 115.335938 166.140625 118.105469 170.503906 C 120.878906 174.863281 123.3125 179.769531 123.03125 184.929688 L 80.46875 184.929688 C 80.1875 179.769531 82.625 174.863281 85.394531 170.503906 C 88.167969 166.140625 91.386719 161.953125 92.996094 157.046875 L 110.507812 157.046875 " fill-opacity="1" fill-rule="nonzero"/><path fill="#fbcee9" d="M 36.828125 162.628906 C 35.921875 162.628906 35.191406 161.898438 35.191406 160.996094 L 35.191406 62.113281 C 35.191406 61.210938 35.921875 60.480469 36.828125 60.480469 L 166.675781 60.480469 C 167.582031 60.480469 168.3125 61.210938 168.3125 62.113281 L 168.3125 160.996094 C 168.3125 161.898438 167.582031 162.628906 166.675781 162.628906 L 36.828125 162.628906 " fill-opacity="1" fill-rule="nonzero"/><g clip-path="url(#be4856a7f3)"><path fill="#4f51ac" d="M 166.675781 58.847656 L 36.828125 58.847656 C 35.019531 58.847656 33.554688 60.308594 33.554688 62.113281 L 33.554688 160.996094 C 33.554688 162.800781 35.019531 164.261719 36.828125 164.261719 L 166.675781 164.261719 C 168.484375 164.261719 169.949219 162.800781 169.949219 160.996094 L 169.949219 62.113281 C 169.949219 60.308594 168.484375 58.847656 166.675781 58.847656 Z M 166.675781 62.113281 L 166.675781 160.996094 L 36.828125 160.996094 L 36.828125 62.113281 L 166.675781 62.113281 " fill-opacity="1" fill-rule="nonzero"/></g><path fill="#aee0f8" d="M 36.828125 162.628906 C 35.921875 162.628906 35.191406 161.898438 35.191406 160.996094 L 35.191406 154.175781 C 35.191406 153.273438 35.921875 152.542969 36.828125 152.542969 L 166.675781 152.542969 C 167.582031 152.542969 168.3125 153.273438 168.3125 154.175781 L 168.3125 160.996094 C 168.3125 161.898438 167.582031 162.628906 166.675781 162.628906 L 36.828125 162.628906 " fill-opacity="1" fill-rule="nonzero"/><g clip-path="url(#1d6880135b)"><path fill="#4f51ac" d="M 166.675781 150.910156 L 36.828125 150.910156 C 35.019531 150.910156 33.554688 152.371094 33.554688 154.175781 L 33.554688 160.996094 C 33.554688 162.800781 35.019531 164.261719 36.828125 164.261719 L 166.675781 164.261719 C 168.484375 164.261719 169.949219 162.800781 169.949219 160.996094 L 169.949219 154.175781 C 169.949219 152.371094 168.484375 150.910156 166.675781 150.910156 Z M 166.675781 154.175781 L 166.675781 160.996094 L 36.828125 160.996094 L 36.828125 154.175781 L 166.675781 154.175781 " fill-opacity="1" fill-rule="nonzero"/></g><path fill="#f0eff9" d="M 43.949219 141.117188 C 43.042969 141.117188 42.3125 140.386719 42.3125 139.484375 L 42.3125 69.3125 C 42.3125 68.410156 43.042969 67.679688 43.949219 67.679688 L 159.554688 67.679688 C 160.457031 67.679688 161.191406 68.410156 161.191406 69.3125 L 161.191406 139.484375 C 161.191406 140.386719 160.457031 141.117188 159.554688 141.117188 L 43.949219 141.117188 " fill-opacity="1" fill-rule="nonzero"/><path fill="#4f51ac" d="M 159.554688 66.046875 L 43.949219 66.046875 C 42.140625 66.046875 40.675781 67.507812 40.675781 69.3125 L 40.675781 139.484375 C 40.675781 141.289062 42.140625 142.75 43.949219 142.75 L 159.554688 142.75 C 161.363281 142.75 162.828125 141.289062 162.828125 139.484375 L 162.828125 69.3125 C 162.828125 67.507812 161.363281 66.046875 159.554688 66.046875 Z M 159.554688 69.3125 L 159.554688 139.484375 L 43.949219 139.484375 L 43.949219 69.3125 L 159.554688 69.3125 " fill-opacity="1" fill-rule="nonzero"/><path fill="#aee0f8" d="M 145.4375 190.511719 L 58.066406 190.511719 L 58.066406 182.601562 L 145.4375 182.601562 L 145.4375 190.511719 " fill-opacity="1" fill-rule="nonzero"/><path stroke-linecap="round" transform="matrix(0.00846006, 0, 0, -0.00844309, 10.272971, 208.933155)" fill="none" stroke-linejoin="round" d="M 15976.783748 2181.834904 L 5649.302983 2181.834904 L 5649.302983 3118.713804 L 15976.783748 3118.713804 Z M 15976.783748 2181.834904 " stroke="#4f51ac" stroke-width="386.81299" stroke-opacity="1" stroke-miterlimit="10"/><path fill="#aee0f8" d="M 101.75 156.851562 C 98.484375 156.851562 95.828125 154.199219 95.828125 150.9375 C 95.828125 147.679688 98.484375 145.027344 101.75 145.027344 C 105.019531 145.027344 107.675781 147.679688 107.675781 150.9375 C 107.675781 154.199219 105.019531 156.851562 101.75 156.851562 " fill-opacity="1" fill-rule="nonzero"/><path fill="#4f51ac" d="M 101.75 143.394531 C 97.582031 143.394531 94.191406 146.777344 94.191406 150.9375 C 94.191406 155.101562 97.582031 158.484375 101.75 158.484375 C 105.921875 158.484375 109.3125 155.101562 109.3125 150.9375 C 109.3125 146.777344 105.921875 143.394531 101.75 143.394531 Z M 101.75 146.660156 C 104.121094 146.660156 106.039062 148.574219 106.039062 150.9375 C 106.039062 153.300781 104.121094 155.21875 101.75 155.21875 C 99.382812 155.21875 97.464844 153.300781 97.464844 150.9375 C 97.464844 148.574219 99.382812 146.660156 101.75 146.660156 " fill-opacity="1" fill-rule="nonzero"/><path fill="#fce376" d="M 39.519531 180.1875 C 38.988281 180.1875 38.460938 180.042969 38 179.773438 L 37.503906 179.480469 L 36.980469 179.722656 C 36.574219 179.910156 36.148438 180.007812 35.707031 180.007812 C 34.796875 180.007812 33.941406 179.597656 33.363281 178.878906 C 32.792969 178.171875 32.578125 177.25 32.777344 176.359375 L 32.898438 175.796875 L 32.507812 175.378906 C 31.722656 174.535156 31.488281 173.347656 31.894531 172.269531 C 32.300781 171.195312 33.269531 170.457031 34.414062 170.347656 L 34.988281 170.292969 L 35.265625 169.789062 C 35.796875 168.835938 36.800781 168.242188 37.894531 168.242188 C 39.089844 168.242188 40.171875 168.949219 40.648438 170.046875 L 40.878906 170.570312 L 41.445312 170.679688 C 42.574219 170.898438 43.46875 171.726562 43.769531 172.835938 C 44.074219 173.945312 43.726562 175.105469 42.863281 175.871094 L 42.433594 176.25 L 42.503906 176.820312 C 42.609375 177.671875 42.34375 178.527344 41.777344 179.167969 C 41.203125 179.816406 40.378906 180.1875 39.519531 180.1875 " fill-opacity="1" fill-rule="nonzero"/><path fill="#4f51ac" d="M 37.894531 166.609375 C 36.300781 166.609375 34.828125 167.425781 33.980469 168.757812 C 32.332031 169.015625 30.960938 170.121094 30.363281 171.691406 C 29.769531 173.265625 30.0625 175 31.125 176.28125 C 30.917969 177.570312 31.261719 178.875 32.085938 179.902344 C 32.976562 181.007812 34.296875 181.640625 35.707031 181.640625 C 36.296875 181.640625 36.867188 181.53125 37.414062 181.3125 C 38.070312 181.648438 38.789062 181.820312 39.519531 181.820312 C 40.847656 181.820312 42.117188 181.25 43.003906 180.25 C 43.820312 179.332031 44.230469 178.125 44.152344 176.898438 C 45.335938 175.722656 45.792969 174.027344 45.347656 172.40625 C 44.90625 170.78125 43.648438 169.550781 42.03125 169.140625 C 41.242188 167.59375 39.648438 166.609375 37.894531 166.609375 Z M 37.894531 169.878906 C 38.40625 169.878906 38.914062 170.15625 39.152344 170.695312 L 39.4375 171.351562 C 39.617188 171.765625 39.988281 172.0625 40.429688 172.148438 L 41.132812 172.285156 C 42.246094 172.5 42.628906 173.898438 41.78125 174.648438 L 41.242188 175.121094 C 40.90625 175.417969 40.738281 175.863281 40.792969 176.3125 L 40.878906 177.019531 C 40.988281 177.886719 40.292969 178.554688 39.519531 178.554688 C 39.289062 178.554688 39.050781 178.496094 38.828125 178.363281 L 38.210938 178 C 37.996094 177.875 37.757812 177.8125 37.515625 177.8125 C 37.320312 177.8125 37.121094 177.855469 36.9375 177.941406 L 36.289062 178.242188 C 36.097656 178.332031 35.898438 178.375 35.707031 178.375 C 34.882812 178.375 34.175781 177.609375 34.375 176.710938 L 34.527344 176.011719 C 34.625 175.574219 34.5 175.117188 34.191406 174.785156 L 33.703125 174.265625 C 32.929688 173.4375 33.445312 172.082031 34.574219 171.972656 L 35.285156 171.902344 C 35.734375 171.859375 36.132812 171.597656 36.351562 171.203125 L 36.699219 170.582031 C 36.960938 170.109375 37.425781 169.878906 37.894531 169.878906 " fill-opacity="1" fill-rule="nonzero"/><path fill="#d8d2ed" d="M 48.382812 192.691406 C 47.925781 192.691406 47.472656 192.566406 47.070312 192.332031 L 46.949219 192.261719 L 46.820312 192.320312 C 46.472656 192.484375 46.101562 192.566406 45.722656 192.566406 C 44.933594 192.566406 44.195312 192.210938 43.699219 191.59375 C 43.207031 190.980469 43.023438 190.1875 43.191406 189.417969 L 43.222656 189.277344 L 43.125 189.175781 C 42.449219 188.449219 42.246094 187.421875 42.597656 186.496094 C 42.949219 185.566406 43.78125 184.933594 44.769531 184.835938 L 44.914062 184.820312 L 44.980469 184.695312 C 45.4375 183.875 46.308594 183.363281 47.25 183.363281 C 48.28125 183.363281 49.214844 183.972656 49.625 184.917969 L 49.683594 185.046875 L 49.820312 185.074219 C 50.796875 185.265625 51.566406 185.976562 51.828125 186.933594 C 52.089844 187.890625 51.792969 188.894531 51.046875 189.550781 L 50.941406 189.644531 L 50.957031 189.785156 C 51.046875 190.523438 50.820312 191.261719 50.332031 191.8125 C 49.835938 192.371094 49.125 192.691406 48.382812 192.691406 " fill-opacity="1" fill-rule="nonzero"/><g clip-path="url(#4536318b3a)"><path fill="#4f51ac" d="M 47.25 181.730469 C 45.945312 181.730469 44.730469 182.332031 43.933594 183.332031 C 42.625 183.675781 41.558594 184.621094 41.066406 185.917969 C 40.574219 187.210938 40.746094 188.625 41.5 189.75 C 41.441406 190.78125 41.765625 191.796875 42.425781 192.617188 C 43.234375 193.621094 44.433594 194.199219 45.722656 194.199219 C 46.113281 194.199219 46.496094 194.144531 46.863281 194.039062 C 47.347656 194.226562 47.863281 194.324219 48.382812 194.324219 C 49.59375 194.324219 50.75 193.804688 51.554688 192.894531 C 52.203125 192.167969 52.570312 191.238281 52.609375 190.277344 C 53.46875 189.230469 53.773438 187.839844 53.40625 186.503906 C 53.042969 185.167969 52.070312 184.121094 50.796875 183.65625 C 50.027344 182.46875 48.699219 181.730469 47.25 181.730469 Z M 47.25 184.996094 C 47.605469 184.996094 47.960938 185.191406 48.125 185.570312 L 48.324219 186.027344 C 48.453125 186.316406 48.710938 186.523438 49.019531 186.582031 L 49.511719 186.679688 C 50.289062 186.828125 50.554688 187.804688 49.960938 188.328125 L 49.589844 188.660156 C 49.351562 188.867188 49.234375 189.179688 49.273438 189.492188 L 49.335938 189.984375 C 49.410156 190.589844 48.921875 191.058594 48.382812 191.058594 C 48.222656 191.058594 48.058594 191.015625 47.902344 190.925781 L 47.46875 190.671875 C 47.320312 190.585938 47.152344 190.539062 46.984375 190.539062 C 46.847656 190.539062 46.710938 190.570312 46.582031 190.628906 L 46.128906 190.839844 C 45.992188 190.902344 45.855469 190.933594 45.722656 190.933594 C 45.148438 190.933594 44.652344 190.398438 44.789062 189.769531 L 44.898438 189.28125 C 44.964844 188.976562 44.878906 188.65625 44.664062 188.425781 L 44.324219 188.0625 C 43.78125 187.484375 44.140625 186.535156 44.929688 186.460938 L 45.425781 186.414062 C 45.738281 186.382812 46.019531 186.199219 46.171875 185.925781 L 46.414062 185.488281 C 46.597656 185.160156 46.921875 184.996094 47.25 184.996094 " fill-opacity="1" fill-rule="nonzero"/></g><path fill="#57afe5" d="M 164.273438 55.28125 C 163.8125 55.28125 163.363281 55.15625 162.960938 54.921875 L 162.835938 54.851562 L 162.710938 54.910156 C 162.359375 55.074219 161.992188 55.15625 161.609375 55.15625 C 160.824219 55.15625 160.085938 54.800781 159.589844 54.183594 C 159.097656 53.570312 158.910156 52.777344 159.082031 52.007812 L 159.113281 51.871094 L 159.015625 51.765625 C 158.335938 51.039062 158.132812 50.015625 158.484375 49.085938 C 158.835938 48.15625 159.671875 47.523438 160.660156 47.425781 L 160.800781 47.414062 L 160.871094 47.289062 C 161.328125 46.464844 162.195312 45.953125 163.136719 45.953125 C 164.167969 45.953125 165.101562 46.566406 165.515625 47.507812 L 165.570312 47.640625 L 165.710938 47.664062 C 166.6875 47.855469 167.457031 48.566406 167.71875 49.523438 C 167.980469 50.480469 167.679688 51.484375 166.9375 52.140625 L 166.832031 52.234375 L 166.847656 52.378906 C 166.9375 53.113281 166.710938 53.851562 166.21875 54.402344 C 165.726562 54.960938 165.015625 55.28125 164.273438 55.28125 " fill-opacity="1" fill-rule="nonzero"/><g clip-path="url(#693a7d1807)"><path fill="#4f51ac" d="M 163.136719 44.320312 C 161.835938 44.320312 160.617188 44.921875 159.824219 45.921875 C 158.515625 46.265625 157.449219 47.210938 156.957031 48.507812 C 156.464844 49.804688 156.636719 51.21875 157.390625 52.339844 C 157.332031 53.371094 157.65625 54.386719 158.3125 55.207031 C 159.121094 56.210938 160.324219 56.789062 161.613281 56.789062 C 162 56.789062 162.382812 56.734375 162.753906 56.628906 C 163.238281 56.816406 163.753906 56.914062 164.273438 56.914062 C 165.484375 56.914062 166.640625 56.394531 167.445312 55.484375 C 168.089844 54.757812 168.460938 53.828125 168.5 52.867188 C 169.359375 51.820312 169.664062 50.429688 169.296875 49.09375 C 168.929688 47.757812 167.960938 46.714844 166.6875 46.246094 C 165.917969 45.058594 164.585938 44.320312 163.136719 44.320312 Z M 163.136719 47.585938 C 163.496094 47.585938 163.851562 47.78125 164.015625 48.160156 L 164.214844 48.617188 C 164.339844 48.90625 164.601562 49.113281 164.910156 49.171875 L 165.402344 49.269531 C 166.179688 49.417969 166.445312 50.394531 165.851562 50.917969 L 165.476562 51.25 C 165.242188 51.457031 165.125 51.769531 165.164062 52.082031 L 165.222656 52.574219 C 165.296875 53.179688 164.8125 53.648438 164.273438 53.648438 C 164.113281 53.648438 163.945312 53.605469 163.789062 53.515625 L 163.359375 53.261719 C 163.210938 53.175781 163.042969 53.128906 162.875 53.128906 C 162.738281 53.128906 162.601562 53.160156 162.46875 53.21875 L 162.015625 53.429688 C 161.882812 53.492188 161.746094 53.523438 161.613281 53.523438 C 161.035156 53.523438 160.539062 52.988281 160.679688 52.359375 L 160.789062 51.871094 C 160.855469 51.566406 160.769531 51.246094 160.554688 51.015625 L 160.210938 50.652344 C 159.671875 50.074219 160.03125 49.128906 160.820312 49.050781 L 161.316406 49.003906 C 161.628906 48.972656 161.910156 48.789062 162.058594 48.515625 L 162.304688 48.078125 C 162.484375 47.75 162.8125 47.585938 163.136719 47.585938 " fill-opacity="1" fill-rule="nonzero"/></g><path fill="#6fd1f6" d="M 100.285156 137.441406 C 88.261719 137.441406 77.019531 132.707031 68.632812 124.105469 C 61.367188 116.660156 56.960938 106.863281 56.226562 96.523438 C 56.152344 95.464844 56.113281 94.402344 56.113281 93.359375 C 56.113281 71.902344 71.460938 53.640625 92.601562 49.941406 C 95.117188 49.5 97.703125 49.277344 100.285156 49.277344 C 118.304688 49.277344 134.355469 60.027344 141.179688 76.667969 C 143.355469 81.96875 144.457031 87.582031 144.457031 93.359375 C 144.457031 104.589844 140.222656 115.289062 132.53125 123.488281 C 127.808594 128.515625 121.90625 132.417969 115.453125 134.773438 C 110.605469 136.542969 105.5 137.441406 100.285156 137.441406 " fill-opacity="1" fill-rule="nonzero"/><path fill="#4f51ac" d="M 100.285156 47.640625 C 97.609375 47.640625 94.929688 47.875 92.316406 48.332031 C 81.835938 50.167969 72.253906 55.664062 65.335938 63.804688 C 58.332031 72.042969 54.476562 82.539062 54.476562 93.355469 C 54.476562 94.441406 54.515625 95.542969 54.59375 96.636719 C 55.359375 107.367188 59.925781 117.523438 67.460938 125.246094 C 76.160156 134.164062 87.816406 139.074219 100.285156 139.074219 C 105.691406 139.074219 110.984375 138.144531 116.015625 136.304688 C 122.707031 133.863281 128.828125 129.820312 133.726562 124.605469 C 141.703125 116.101562 146.09375 105.003906 146.09375 93.355469 C 146.09375 87.371094 144.949219 81.546875 142.695312 76.046875 C 139.292969 67.75 133.558594 60.679688 126.117188 55.597656 C 118.492188 50.394531 109.558594 47.640625 100.285156 47.640625 Z M 100.285156 50.910156 C 118.078125 50.910156 133.320312 61.8125 139.667969 77.285156 C 141.703125 82.242188 142.820312 87.667969 142.820312 93.355469 C 142.820312 104.578125 138.457031 114.78125 131.335938 122.371094 C 126.824219 127.175781 121.207031 130.933594 114.890625 133.238281 C 110.339844 134.902344 105.417969 135.808594 100.285156 135.808594 C 88.332031 135.808594 77.53125 130.886719 69.804688 122.964844 C 63.007812 116 58.59375 106.710938 57.855469 96.40625 C 57.785156 95.398438 57.75 94.382812 57.75 93.355469 C 57.75 72.433594 72.917969 55.042969 92.882812 51.550781 C 95.285156 51.128906 97.761719 50.910156 100.285156 50.910156 " fill-opacity="1" fill-rule="nonzero"/><path fill="#64c778" d="M 64.976562 100.800781 C 64.871094 100.804688 64.765625 100.800781 64.660156 100.796875 C 62.496094 100.710938 60.589844 99.8125 59.339844 99.144531 C 58.652344 98.777344 57.910156 98.351562 57.007812 97.804688 C 56.554688 97.527344 56.261719 97.050781 56.226562 96.523438 C 56.152344 95.464844 56.113281 94.402344 56.113281 93.359375 C 56.113281 71.902344 71.460938 53.640625 92.601562 49.941406 C 92.695312 49.925781 92.789062 49.917969 92.886719 49.917969 C 93.214844 49.917969 93.539062 50.015625 93.8125 50.203125 C 95.09375 51.085938 95.996094 52.007812 96.652344 53.101562 C 97.769531 54.96875 97.925781 57.007812 97.074219 58.695312 C 96.777344 59.289062 96.394531 59.742188 96.054688 60.144531 C 95.875 60.355469 95.707031 60.550781 95.582031 60.738281 C 95.351562 61.078125 95.226562 61.480469 95.214844 61.929688 C 95.183594 63.175781 95.820312 64.53125 96.378906 65.574219 C 96.550781 65.894531 96.734375 66.226562 96.921875 66.558594 C 98.394531 69.195312 100.222656 72.472656 98.601562 75.960938 C 98.1875 76.847656 97.582031 77.527344 97.046875 78.125 C 96.578125 78.648438 96.175781 79.101562 95.980469 79.585938 C 95.625 80.457031 95.667969 81.550781 95.707031 82.710938 C 95.722656 83.0625 95.734375 83.414062 95.738281 83.757812 C 95.753906 85.589844 95.460938 87.089844 94.8125 88.472656 C 94.179688 89.824219 93.207031 91.066406 91.996094 92.070312 C 90.011719 93.707031 87.59375 94.605469 85.179688 94.605469 C 84.601562 94.605469 84.019531 94.554688 83.457031 94.449219 C 82.910156 94.351562 82.414062 94.199219 81.933594 94.050781 C 81.597656 93.945312 81.285156 93.851562 80.984375 93.78125 C 80.792969 93.738281 80.625 93.71875 80.460938 93.71875 C 80.171875 93.71875 79.910156 93.785156 79.636719 93.921875 C 79.203125 94.144531 78.765625 94.441406 78.300781 94.75 C 78.097656 94.886719 77.890625 95.027344 77.683594 95.160156 C 76.925781 95.648438 76.121094 96.144531 75.292969 96.632812 C 73.695312 97.574219 72.054688 98.457031 70.410156 99.261719 C 68.769531 100.0625 66.972656 100.800781 64.976562 100.800781 " fill-opacity="1" fill-rule="nonzero"/><path fill="#4f51ac" d="M 92.882812 48.285156 C 92.695312 48.285156 92.507812 48.300781 92.320312 48.335938 C 81.835938 50.167969 72.253906 55.664062 65.335938 63.804688 C 58.332031 72.042969 54.476562 82.539062 54.476562 93.359375 C 54.476562 94.441406 54.515625 95.542969 54.59375 96.636719 C 54.664062 97.695312 55.25 98.648438 56.15625 99.199219 C 57.085938 99.761719 57.851562 100.203125 58.566406 100.585938 C 59.957031 101.328125 62.09375 102.332031 64.597656 102.429688 C 64.722656 102.433594 64.851562 102.4375 64.976562 102.4375 C 67.304688 102.4375 69.308594 101.613281 71.128906 100.726562 C 72.8125 99.90625 74.492188 99.003906 76.125 98.039062 C 76.96875 97.542969 77.792969 97.035156 78.570312 96.53125 C 78.789062 96.394531 79 96.25 79.214844 96.105469 C 79.636719 95.820312 80.035156 95.554688 80.386719 95.375 C 80.433594 95.351562 80.445312 95.351562 80.460938 95.351562 C 80.480469 95.351562 80.53125 95.355469 80.617188 95.375 C 80.863281 95.429688 81.148438 95.519531 81.453125 95.613281 C 81.953125 95.765625 82.519531 95.941406 83.164062 96.054688 C 83.820312 96.179688 84.5 96.238281 85.179688 96.238281 C 87.972656 96.238281 90.761719 95.207031 93.035156 93.332031 C 94.4375 92.171875 95.5625 90.730469 96.292969 89.164062 C 97.039062 87.574219 97.390625 85.800781 97.371094 83.742188 C 97.371094 83.371094 97.355469 83.003906 97.34375 82.652344 C 97.308594 81.671875 97.273438 80.746094 97.496094 80.195312 C 97.585938 79.976562 97.949219 79.570312 98.269531 79.210938 C 98.847656 78.5625 99.566406 77.757812 100.082031 76.652344 C 102.058594 72.40625 99.828125 68.410156 98.351562 65.765625 C 98.167969 65.4375 97.992188 65.121094 97.824219 64.808594 C 97.394531 64.007812 96.828125 62.84375 96.851562 61.964844 C 96.855469 61.792969 96.90625 61.699219 96.941406 61.644531 C 97.015625 61.542969 97.15625 61.375 97.304688 61.199219 C 97.660156 60.773438 98.152344 60.195312 98.539062 59.429688 C 99.644531 57.234375 99.46875 54.621094 98.054688 52.261719 C 97.285156 50.980469 96.203125 49.867188 94.738281 48.863281 C 94.191406 48.484375 93.542969 48.285156 92.882812 48.285156 Z M 92.882812 51.550781 C 93.820312 52.191406 94.652344 52.945312 95.246094 53.9375 C 95.976562 55.15625 96.273438 56.65625 95.613281 57.964844 C 95.261719 58.664062 94.660156 59.183594 94.226562 59.824219 C 93.8125 60.4375 93.601562 61.144531 93.578125 61.882812 C 93.539062 63.453125 94.207031 64.984375 94.9375 66.34375 C 96.355469 69.003906 98.570312 72.15625 97.117188 75.273438 C 96.464844 76.667969 95.042969 77.539062 94.460938 78.972656 C 93.851562 80.484375 94.089844 82.1875 94.101562 83.769531 C 94.113281 85.171875 93.925781 86.503906 93.328125 87.78125 C 92.78125 88.949219 91.945312 89.992188 90.953125 90.816406 C 89.328125 92.152344 87.273438 92.972656 85.179688 92.972656 C 84.703125 92.972656 84.226562 92.929688 83.753906 92.84375 C 82.933594 92.695312 82.15625 92.375 81.34375 92.191406 C 81.042969 92.121094 80.75 92.085938 80.460938 92.085938 C 79.925781 92.085938 79.40625 92.207031 78.894531 92.46875 C 78.160156 92.84375 77.488281 93.34375 76.796875 93.789062 C 76.027344 94.285156 75.246094 94.765625 74.460938 95.230469 C 72.902344 96.144531 71.3125 97 69.691406 97.792969 C 68.210938 98.515625 66.648438 99.171875 64.976562 99.171875 C 64.894531 99.171875 64.808594 99.167969 64.726562 99.164062 C 63.085938 99.101562 61.542969 98.472656 60.113281 97.707031 C 59.347656 97.296875 58.597656 96.859375 57.855469 96.410156 C 57.785156 95.398438 57.75 94.382812 57.75 93.359375 C 57.75 72.433594 72.917969 55.042969 92.882812 51.550781 " fill-opacity="1" fill-rule="nonzero"/><path fill="#64c778" d="M 100.285156 137.441406 C 88.261719 137.441406 77.019531 132.707031 68.632812 124.105469 C 68.328125 123.792969 68.160156 123.371094 68.167969 122.9375 C 68.175781 122.5 68.359375 122.085938 68.675781 121.785156 C 70.582031 119.96875 72.617188 118.089844 74.722656 116.195312 L 75.4375 115.550781 C 77.222656 113.945312 79.0625 112.285156 81.136719 110.902344 C 82.75 109.828125 84.886719 108.59375 87.070312 108.59375 C 87.964844 108.59375 88.796875 108.800781 89.546875 109.199219 C 91.042969 110 91.753906 111.488281 92.179688 112.378906 C 92.609375 113.289062 92.964844 113.902344 93.507812 114.339844 C 94.589844 115.21875 96.097656 115.621094 97.691406 116.050781 C 98.035156 116.140625 98.378906 116.234375 98.710938 116.328125 C 101.457031 117.109375 103.972656 118.273438 106.183594 119.792969 C 107.566406 120.738281 108.566406 121.671875 109.328125 122.726562 C 110.1875 123.921875 110.683594 125.277344 111.085938 126.363281 L 111.160156 126.566406 C 111.523438 127.550781 111.871094 128.480469 112.386719 129.25 C 112.851562 129.949219 113.523438 130.578125 114.375 131.117188 C 114.757812 131.355469 115.160156 131.570312 115.5625 131.75 C 116.171875 132.019531 116.550781 132.632812 116.527344 133.296875 C 116.503906 133.960938 116.082031 134.542969 115.457031 134.773438 C 110.601562 136.542969 105.5 137.441406 100.285156 137.441406 " fill-opacity="1" fill-rule="nonzero"/><path fill="#4f51ac" d="M 87.070312 106.960938 C 84.445312 106.960938 82.035156 108.34375 80.230469 109.546875 C 78.054688 110.992188 76.167969 112.695312 74.339844 114.34375 C 74.105469 114.554688 73.867188 114.769531 73.632812 114.980469 C 71.511719 116.886719 69.464844 118.777344 67.546875 120.601562 C 66.914062 121.203125 66.546875 122.035156 66.53125 122.90625 C 66.515625 123.777344 66.851562 124.621094 67.460938 125.246094 C 76.160156 134.164062 87.816406 139.074219 100.285156 139.074219 C 105.691406 139.074219 110.984375 138.144531 116.015625 136.304688 C 117.265625 135.851562 118.117188 134.683594 118.164062 133.355469 C 118.210938 132.027344 117.449219 130.804688 116.234375 130.257812 C 115.898438 130.109375 115.5625 129.929688 115.238281 129.726562 C 114.601562 129.324219 114.082031 128.84375 113.75 128.347656 C 113.335938 127.734375 113.023438 126.890625 112.695312 126 L 112.617188 125.789062 C 112.210938 124.683594 111.648438 123.152344 110.65625 121.773438 C 109.78125 120.5625 108.652344 119.503906 107.109375 118.445312 C 104.75 116.828125 102.074219 115.585938 99.160156 114.757812 C 98.820312 114.660156 98.46875 114.566406 98.117188 114.472656 C 96.695312 114.09375 95.351562 113.734375 94.542969 113.074219 C 94.238281 112.828125 93.988281 112.378906 93.660156 111.683594 C 93.179688 110.675781 92.289062 108.8125 90.316406 107.757812 C 89.328125 107.230469 88.238281 106.960938 87.070312 106.960938 Z M 87.070312 110.226562 C 87.65625 110.226562 88.230469 110.347656 88.769531 110.640625 C 89.734375 111.152344 90.25 112.136719 90.699219 113.082031 C 91.15625 114.042969 91.636719 114.929688 92.476562 115.609375 C 94.101562 116.925781 96.300781 117.339844 98.261719 117.898438 C 100.746094 118.605469 103.125 119.675781 105.257812 121.136719 C 106.292969 121.847656 107.261719 122.65625 108 123.683594 C 108.703125 124.660156 109.136719 125.800781 109.546875 126.925781 C 109.960938 128.039062 110.359375 129.164062 111.023438 130.15625 C 111.660156 131.113281 112.539062 131.886719 113.503906 132.496094 C 113.953125 132.777344 114.414062 133.027344 114.890625 133.238281 C 110.339844 134.902344 105.417969 135.808594 100.285156 135.808594 C 88.332031 135.808594 77.53125 130.886719 69.804688 122.964844 C 71.78125 121.082031 73.789062 119.234375 75.820312 117.410156 C 77.816406 115.617188 79.804688 113.753906 82.046875 112.261719 C 83.410156 111.351562 85.292969 110.226562 87.070312 110.226562 " fill-opacity="1" fill-rule="nonzero"/><path fill="#64c778" d="M 131.335938 124.007812 C 131.0625 124.007812 130.789062 123.9375 130.539062 123.800781 C 130.074219 123.542969 129.628906 123.257812 129.210938 122.949219 C 128.226562 122.222656 127.371094 121.394531 126.667969 120.480469 C 126.050781 119.691406 125.5625 118.851562 125.085938 118.042969 L 124.808594 117.574219 C 124.335938 116.777344 123.828125 115.953125 123.199219 115.332031 C 122.90625 115.042969 122.515625 114.808594 122.066406 114.53125 C 121.652344 114.277344 121.183594 113.992188 120.734375 113.621094 C 119.421875 112.542969 118.878906 110.894531 119.253906 109.105469 C 119.371094 108.550781 119.550781 108.039062 119.707031 107.589844 C 119.917969 106.984375 120.101562 106.464844 120.109375 105.984375 C 120.136719 104.09375 118.652344 102.386719 117.398438 101.285156 C 116.730469 100.699219 116.015625 100.15625 115.261719 99.585938 C 114.050781 98.667969 112.800781 97.722656 111.699219 96.53125 C 109.570312 94.222656 108.589844 91.667969 108.863281 89.140625 C 109.117188 86.738281 110.375 84.363281 112.507812 82.265625 C 114.125 80.671875 116.085938 79.328125 118.328125 78.273438 C 122.128906 76.488281 126.578125 75.558594 131.929688 75.429688 C 132.230469 75.421875 132.527344 75.417969 132.824219 75.417969 C 134.179688 75.417969 135.535156 75.484375 136.847656 75.546875 C 137.488281 75.578125 138.136719 75.609375 138.78125 75.632812 C 139.082031 75.644531 139.382812 75.648438 139.683594 75.652344 C 140.339844 75.660156 140.933594 76.058594 141.179688 76.667969 C 143.355469 81.96875 144.457031 87.582031 144.457031 93.359375 C 144.457031 104.585938 140.222656 115.289062 132.53125 123.488281 C 132.210938 123.828125 131.777344 124.007812 131.335938 124.007812 " fill-opacity="1" fill-rule="nonzero"/><path fill="#4f51ac" d="M 132.824219 73.785156 C 132.515625 73.785156 132.203125 73.789062 131.894531 73.796875 C 126.304688 73.929688 121.640625 74.914062 117.628906 76.796875 C 115.21875 77.929688 113.109375 79.378906 111.359375 81.101562 C 108.953125 83.46875 107.527344 86.1875 107.234375 88.96875 C 106.914062 91.972656 108.039062 94.972656 110.492188 97.632812 C 111.695312 98.9375 113.003906 99.929688 114.273438 100.886719 C 115.003906 101.441406 115.691406 101.960938 116.316406 102.507812 C 117.132812 103.226562 118.492188 104.625 118.472656 105.957031 C 118.46875 106.175781 118.3125 106.621094 118.164062 107.050781 C 117.988281 107.546875 117.792969 108.109375 117.65625 108.761719 C 117.15625 111.140625 117.921875 113.425781 119.699219 114.882812 C 120.230469 115.324219 120.75 115.640625 121.210938 115.921875 C 121.5625 116.136719 121.890625 116.339844 122.050781 116.496094 C 122.539062 116.976562 122.984375 117.699219 123.398438 118.402344 C 123.492188 118.558594 123.582031 118.710938 123.671875 118.867188 C 124.152344 119.683594 124.695312 120.605469 125.378906 121.488281 C 126.167969 122.511719 127.128906 123.445312 128.234375 124.261719 C 128.714844 124.609375 129.21875 124.933594 129.742188 125.226562 C 130.242188 125.503906 130.792969 125.640625 131.335938 125.640625 C 132.21875 125.640625 133.089844 125.285156 133.726562 124.605469 C 141.703125 116.101562 146.09375 105.003906 146.09375 93.359375 C 146.09375 87.371094 144.949219 81.546875 142.695312 76.050781 C 142.195312 74.832031 141.015625 74.03125 139.699219 74.019531 C 139.414062 74.015625 139.128906 74.011719 138.847656 74 C 138.199219 73.976562 137.5625 73.945312 136.925781 73.917969 C 135.59375 73.851562 134.21875 73.785156 132.824219 73.785156 Z M 132.824219 77.050781 C 134.792969 77.050781 136.75 77.191406 138.71875 77.265625 C 139.03125 77.277344 139.347656 77.285156 139.667969 77.285156 C 141.699219 82.242188 142.820312 87.667969 142.820312 93.359375 C 142.820312 104.578125 138.457031 114.78125 131.335938 122.371094 C 130.9375 122.148438 130.546875 121.902344 130.179688 121.632812 C 129.34375 121.019531 128.597656 120.308594 127.964844 119.484375 C 127.296875 118.625 126.769531 117.671875 126.214844 116.742188 C 125.675781 115.828125 125.105469 114.917969 124.347656 114.167969 C 123.585938 113.421875 122.59375 113.035156 121.777344 112.363281 C 120.878906 111.625 120.625 110.554688 120.855469 109.441406 C 121.105469 108.273438 121.726562 107.222656 121.746094 106.007812 C 121.78125 103.613281 120.191406 101.5625 118.480469 100.058594 C 116.664062 98.460938 114.554688 97.207031 112.902344 95.425781 C 111.371094 93.761719 110.242188 91.632812 110.488281 89.3125 C 110.730469 87.03125 112.046875 85.011719 113.65625 83.425781 C 115.207031 81.902344 117.058594 80.675781 119.023438 79.753906 C 123.054688 77.859375 127.546875 77.167969 131.96875 77.0625 C 132.253906 77.054688 132.539062 77.050781 132.824219 77.050781 " fill-opacity="1" fill-rule="nonzero"/><path stroke-linecap="round" transform="matrix(0.00846006, 0, 0, -0.00844309, 10.272971, 208.933155)" fill="none" stroke-linejoin="round" d="M 6102.258615 14181.749981 C 6041.310456 14489.416385 6081.942562 14816.977008 6216.305548 15100.585287 " stroke="#ffffff" stroke-width="386.81299" stroke-opacity="1" stroke-miterlimit="10"/><path stroke-linecap="round" transform="matrix(0.00846006, 0, 0, -0.00844309, 10.272971, 208.933155)" fill="none" stroke-linejoin="round" d="M 15253.716958 13886.575295 C 15276.341654 14147.976075 15261.104614 14412.615448 15208.929297 14669.852321 " stroke="#ffffff" stroke-width="386.81299" stroke-opacity="1" stroke-miterlimit="10"/><path stroke-linecap="round" transform="matrix(0.00846006, 0, 0, -0.00844309, 10.272971, 208.933155)" fill="none" stroke-linejoin="round" d="M 9238.318407 9270.191264 C 9398.538187 9141.110171 9599.851801 9063.846577 9805.320972 9053.205484 " stroke="#ffffff" stroke-width="386.81299" stroke-opacity="1" stroke-miterlimit="10"/></svg>