<svg xmlns="http://www.w3.org/2000/svg" xmlns:xlink="http://www.w3.org/1999/xlink" width="500" zoomAndPan="magnify" viewBox="0 0 375 374.999991" height="500" preserveAspectRatio="xMidYMid meet" version="1.0"><defs><clipPath id="b7b1bea799"><path d="M 0.152344 182.710938 L 150.628906 182.710938 L 150.628906 255 L 0.152344 255 Z M 0.152344 182.710938 " clip-rule="nonzero"/></clipPath><clipPath id="1b1d0e0bbd"><path d="M 92.234375 177 L 179 177 L 179 255.394531 L 92.234375 255.394531 Z M 92.234375 177 " clip-rule="nonzero"/></clipPath><clipPath id="d600410059"><path d="M 131 102.421875 L 155 102.421875 L 155 126 L 131 126 Z M 131 102.421875 " clip-rule="nonzero"/></clipPath></defs><path fill="#ffe9f3" d="M 147.511719 209.839844 C 145.238281 205.65625 142.617188 201.683594 139.503906 198.078125 C 137.707031 196.285156 135.769531 194.640625 133.675781 193.183594 C 132.171875 192.351562 130.613281 191.628906 128.988281 191.023438 C 128.359375 190.886719 127.75 190.707031 127.15625 190.492188 C 126.074219 202.464844 124.492188 227.203125 124.492188 227.203125 C 124.203125 230.816406 122.90625 234.253906 120.839844 236.863281 L 82.867188 242.339844 C 81.445312 243.820312 80.921875 246.304688 81.582031 248.359375 C 81.585938 248.390625 81.59375 248.417969 81.601562 248.457031 C 82.386719 250.871094 84.53125 251.886719 86.460938 250.738281 L 134.484375 249.855469 C 137.914062 247.808594 140.488281 243.707031 141.320312 238.929688 C 141.320312 238.929688 144.609375 224.03125 147.53125 209.882812 C 147.523438 209.867188 147.519531 209.851562 147.511719 209.839844 " fill-opacity="1" fill-rule="nonzero"/><g clip-path="url(#b7b1bea799)"><path fill="#a4a3a3" d="M 0.285156 186.996094 L 19.5625 251.394531 C 20.167969 253.402344 22.007812 254.777344 24.101562 254.777344 L 150.601562 254.777344 L 150.601562 246.277344 L 112.347656 246.277344 L 98.199219 186.726562 C 97.863281 185.324219 96.621094 184.320312 95.179688 184.300781 L 3.355469 182.925781 C 1.222656 182.894531 -0.324219 184.949219 0.285156 186.996094 " fill-opacity="1" fill-rule="nonzero"/></g><path fill="#f7f7f7" d="M 60.847656 223.421875 C 60.847656 227.085938 57.882812 230.054688 54.226562 230.054688 C 50.570312 230.054688 47.605469 227.085938 47.605469 223.421875 C 47.605469 219.753906 50.570312 216.78125 54.226562 216.78125 C 57.882812 216.78125 60.847656 219.753906 60.847656 223.421875 " fill-opacity="1" fill-rule="nonzero"/><path fill="#ffe9f3" d="M 285.78125 156.328125 L 296.191406 205.058594 L 297.171875 209.675781 L 297.375 210.628906 L 298.796875 217.3125 C 298.796875 217.3125 258.230469 215.824219 225.292969 219.03125 L 225.292969 249.429688 L 291.367188 249.429688 L 327.316406 233.035156 L 330.1875 231.71875 L 325.722656 217.246094 L 325.488281 216.480469 L 307.816406 159.109375 C 307.816406 159.109375 307.8125 159.109375 307.808594 159.109375 L 299.65625 132.660156 C 298.8125 129.925781 299.371094 126.933594 301.164062 124.695312 L 304.148438 120.949219 C 305.941406 119.152344 306.210938 116.324219 304.792969 114.222656 C 303.769531 112.683594 302.082031 111.867188 300.394531 111.867188 C 299.113281 111.867188 297.816406 112.335938 296.789062 113.289062 L 286.164062 124.03125 C 282.4375 127.796875 280.855469 133.1875 281.953125 138.355469 L 285.785156 156.320312 C 291.285156 157.019531 291.285156 157.023438 285.78125 156.328125 " fill-opacity="1" fill-rule="nonzero"/><path fill="#ffe9f3" d="M 374.433594 131.835938 C 373.9375 128.917969 371.34375 126.925781 368.488281 126.925781 C 367.863281 126.925781 367.222656 127.019531 366.582031 127.230469 L 351.628906 132.761719 C 346.871094 134.507812 343.339844 138.488281 342.246094 143.332031 L 337.9375 162.363281 C 337.941406 162.363281 337.941406 162.363281 337.941406 162.363281 L 325.566406 217.082031 L 325.488281 217.445312 L 324.191406 223.152344 C 324.191406 223.152344 316.714844 219.511719 305.539062 214.511719 C 302.929688 213.359375 300.140625 212.125 297.171875 210.835938 C 296.859375 210.703125 296.53125 210.5625 296.21875 210.425781 C 293.175781 209.105469 289.976562 207.753906 286.683594 206.386719 C 283.816406 205.199219 280.875 204 277.890625 202.808594 C 279.15625 218.289062 278.042969 233.882812 276.976562 249.429688 L 333.605469 249.429688 C 336.878906 249.429688 339.925781 248.425781 342.453125 246.710938 C 346.027344 244.28125 348.496094 240.390625 348.945312 235.878906 L 356.128906 164.378906 C 356.125 164.378906 356.125 164.378906 356.125 164.378906 L 357.671875 149.070312 C 358.078125 144.972656 360.542969 141.34375 364.257812 139.367188 L 370.265625 136.164062 C 372.25 134.886719 374.824219 134.113281 374.433594 131.835938 " fill-opacity="1" fill-rule="nonzero"/><path fill="#8bcced" d="M 218.152344 185.363281 C 217.558594 185.355469 216.964844 185.363281 216.375 185.382812 C 208.984375 185.605469 201.683594 188.40625 194.265625 186.570312 C 187.035156 184.777344 181.671875 178.902344 175.683594 174.460938 C 164.585938 166.230469 148.25 162.988281 137.203125 171.277344 C 129.058594 177.386719 125.730469 188.425781 126.695312 198.574219 C 128.648438 219.078125 145.910156 235.503906 165.167969 242.695312 C 181.957031 248.960938 200.152344 249.578125 218.160156 249.410156 L 218.160156 249.429688 L 286.535156 249.429688 L 286.535156 217.027344 C 286.535156 217.027344 286.535156 205.09375 286.535156 205.09375 C 271.019531 199.027344 255.535156 192.574219 239.304688 188.640625 C 232.46875 186.988281 225.238281 185.414062 218.152344 185.363281 " fill-opacity="1" fill-rule="nonzero"/><g clip-path="url(#1b1d0e0bbd)"><path fill="#ffe9f3" d="M 93.457031 250.777344 C 93.488281 250.734375 93.511719 250.707031 93.523438 250.679688 C 94.917969 248.492188 97.433594 246.539062 99.617188 245.960938 L 153.433594 236.300781 C 154.347656 234.777344 155.109375 233.1875 155.671875 231.582031 C 155.671875 231.582031 152.558594 189.921875 154 187.679688 L 154.023438 187.625 L 154.050781 187.597656 C 156.628906 183.640625 160.863281 180.191406 165.574219 178.601562 L 165.613281 178.570312 C 165.613281 178.570312 165.640625 178.570312 165.636719 178.585938 C 165.703125 178.558594 165.773438 178.53125 165.832031 178.515625 C 170.339844 177.074219 174.214844 177.707031 176.515625 179.835938 L 177.65625 177.171875 L 177.511719 180.984375 C 178.402344 182.300781 178.859375 183.976562 178.742188 185.949219 C 178.617188 187.988281 175.191406 241.226562 175.191406 241.226562 C 174.929688 248.039062 166.773438 255.394531 159.476562 255.394531 L 118.457031 255.394531 L 118.953125 255.183594 L 94.496094 255.386719 C 92.28125 255.398438 91.832031 253.351562 93.457031 250.777344 " fill-opacity="1" fill-rule="nonzero"/></g><path fill="#e69223" d="M 126.367188 168.21875 L 155.078125 139.230469 C 158.847656 148.804688 161.414062 154.449219 166.445312 158.535156 C 170.492188 161.824219 175.625 163.410156 180.832031 163.550781 C 189.820312 163.789062 198.59375 168.378906 203.785156 176.832031 C 210.738281 188.148438 208.644531 202.980469 198.824219 211.90625 C 185.75 223.785156 165.285156 220.730469 156.226562 205.558594 C 153.972656 201.78125 152.746094 197.613281 152.453125 193.402344 C 147.28125 177.25 142.175781 174.335938 126.367188 168.21875 " fill-opacity="1" fill-rule="nonzero"/><path fill="#e69223" d="M 120.296875 163.28125 C 128.9375 174.4375 145.570312 174.4375 154.210938 163.28125 C 160.101562 155.671875 160.101562 144.769531 154.210938 137.164062 C 145.570312 126.003906 128.9375 126.003906 120.296875 137.164062 C 114.410156 144.769531 114.410156 155.671875 120.296875 163.28125 " fill-opacity="1" fill-rule="nonzero"/><path fill="#ffe9f3" d="M 117.578125 156.605469 C 118.03125 164.621094 124.453125 171.277344 132.429688 171.984375 C 136.605469 172.355469 140.488281 171.164062 143.5625 168.914062 C 147.644531 165.9375 150.300781 161.097656 150.300781 155.648438 C 150.300781 146.570312 142.972656 139.226562 133.929688 139.226562 C 133.589844 139.226562 133.234375 139.238281 132.894531 139.261719 C 124.011719 139.8125 117.058594 147.441406 117.578125 156.605469 " fill-opacity="1" fill-rule="nonzero"/><path fill="#e69223" d="M 126.390625 133.085938 C 128.308594 132.980469 130.402344 132.574219 132.496094 132.105469 C 133.3125 132.515625 134.289062 132.757812 135.433594 132.757812 C 136.183594 132.757812 136.867188 132.652344 137.492188 132.464844 L 145.210938 137.765625 C 150.914062 140.917969 154.78125 146.992188 154.78125 153.992188 C 154.78125 159.480469 152.390625 164.40625 148.605469 167.800781 C 147.765625 168.726562 149.460938 171.515625 148.449219 172.253906 L 138.46875 146.089844 L 126.9375 134.742188 C 126.496094 134.234375 128.425781 136.074219 128.113281 135.496094 C 128.300781 135.488281 126.203125 133.097656 126.390625 133.085938 " fill-opacity="1" fill-rule="nonzero"/><path fill="#ffe9f3" d="M 138.664062 190.078125 C 133.695312 190.058594 129.523438 186.339844 128.917969 181.402344 L 126.351562 160.378906 L 144.011719 151.359375 L 145.261719 156.363281 L 148.457031 178.804688 C 149.308594 184.769531 144.675781 190.101562 138.664062 190.078125 " fill-opacity="1" fill-rule="nonzero"/><path fill="#ffe9f3" d="M 137.03125 153.3125 C 137.03125 156.933594 139.957031 159.871094 143.570312 159.871094 C 147.179688 159.871094 150.113281 156.933594 150.113281 153.3125 C 150.113281 149.695312 147.179688 146.757812 143.570312 146.757812 C 139.957031 146.757812 137.03125 149.695312 137.03125 153.3125 " fill-opacity="1" fill-rule="nonzero"/><g clip-path="url(#d600410059)"><path fill="#e69223" d="M 131.183594 114.152344 C 131.183594 120.632812 136.425781 125.886719 142.890625 125.886719 C 149.355469 125.886719 154.597656 120.632812 154.597656 114.152344 C 154.597656 107.675781 149.355469 102.421875 142.890625 102.421875 C 136.425781 102.421875 131.183594 107.675781 131.183594 114.152344 " fill-opacity="1" fill-rule="nonzero"/></g></svg>